<?xml version="1.0" encoding="UTF-8" standalone="no"?>
<!-- Created with Inkscape (http://www.inkscape.org/) -->
<svg
   xmlns:dc="http://purl.org/dc/elements/1.1/"
   xmlns:cc="http://web.resource.org/cc/"
   xmlns:rdf="http://www.w3.org/1999/02/22-rdf-syntax-ns#"
   xmlns:svg="http://www.w3.org/2000/svg"
   xmlns="http://www.w3.org/2000/svg"
   xmlns:xlink="http://www.w3.org/1999/xlink"
   xmlns:sodipodi="http://sodipodi.sourceforge.net/DTD/sodipodi-0.dtd"
   xmlns:inkscape="http://www.inkscape.org/namespaces/inkscape"
   width="88"
   height="88"
   id="svg1968"
   sodipodi:version="0.32"
   inkscape:version="0.44"
   version="1.0"
   inkscape:export-filename="/home/david/b.png"
   inkscape:export-xdpi="22.5"
   inkscape:export-ydpi="22.5"
   sodipodi:docbase="/home/david/Progetti/oxygen-svn/Oxygen/theme/svg/actions/small/22x22"
   sodipodi:docname="colorpicker.svg">
  <defs
     id="defs1970">
    <radialGradient
       gradientUnits="userSpaceOnUse"
       gradientTransform="matrix(1,0,0,0.197802,0,92.82166)"
       r="63.912209"
       fy="115.70919"
       fx="14.046639"
       cy="115.70919"
       cx="63.912209"
       id="radialGradient3297"
       xlink:href="#linearGradient3291"
       inkscape:collect="always" />
    <linearGradient
       id="linearGradient3291">
      <stop
         style="stop-color:black;stop-opacity:1"
         offset="0"
         id="stop3293" />
      <stop
         style="stop-color:black;stop-opacity:0"
         offset="1"
         id="stop3295" />
    </linearGradient>
    <radialGradient
       inkscape:collect="always"
       xlink:href="#linearGradient3291"
       id="radialGradient5198"
       gradientUnits="userSpaceOnUse"
       gradientTransform="matrix(0.688471,0,0,5.674189e-2,0,77.80795)"
       cx="63.912209"
       cy="115.70919"
       fx="63.912209"
       fy="115.7093"
       r="63.912209" />
    <linearGradient
       inkscape:collect="always"
       xlink:href="#linearGradient4357"
       id="linearGradient4463"
       x1="-61.42284"
       y1="93.001884"
       x2="-64.420349"
       y2="92.036232"
       gradientUnits="userSpaceOnUse" />
    <linearGradient
       id="linearGradient4357">
      <stop
         style="stop-color:#14471f;stop-opacity:1;"
         offset="0"
         id="stop4359" />
      <stop
         style="stop-color:#2d9b45;stop-opacity:0;"
         offset="1"
         id="stop4361" />
    </linearGradient>
    <radialGradient
       inkscape:collect="always"
       xlink:href="#linearGradient4357"
       id="radialGradient4363"
       cx="-119.48933"
       cy="22.960737"
       fx="-102.92719"
       fy="22.425863"
       r="20.117188"
       gradientTransform="matrix(0.101135,9.141595e-2,-2.577349,2.458455,142.842,2.836208)"
       gradientUnits="userSpaceOnUse" />
    <radialGradient
       inkscape:collect="always"
       xlink:href="#linearGradient3182"
       id="radialGradient4385"
       gradientUnits="userSpaceOnUse"
       gradientTransform="matrix(1.998882,-1.259613,0.477372,0.757544,-112.7347,133.1772)"
       cx="104.47214"
       cy="16.776716"
       fx="108.11813"
       fy="11.444658"
       r="12.184338" />
    <linearGradient
       id="linearGradient3152">
      <stop
         style="stop-color:#37a42c;stop-opacity:1;"
         offset="0"
         id="stop3154" />
      <stop
         id="stop3168"
         offset="0.125"
         style="stop-color:#37a42c;stop-opacity:0.60649818;" />
      <stop
         id="stop3166"
         offset="0.25"
         style="stop-color:#37a42c;stop-opacity:0.48014441;" />
      <stop
         id="stop3164"
         offset="0.5"
         style="stop-color:#37a42c;stop-opacity:0.36823106;" />
      <stop
         style="stop-color:#37a42c;stop-opacity:0.23104693;"
         offset="0.625"
         id="stop3172" />
      <stop
         style="stop-color:#37a42c;stop-opacity:0.13357401;"
         offset="0.75"
         id="stop3170" />
      <stop
         style="stop-color:#37a42c;stop-opacity:0;"
         offset="1"
         id="stop3160" />
    </linearGradient>
    <radialGradient
       inkscape:collect="always"
       xlink:href="#linearGradient3152"
       id="radialGradient3451"
       gradientUnits="userSpaceOnUse"
       gradientTransform="matrix(1,0,0,0.75,0,23.62477)"
       cx="24.043716"
       cy="94.499092"
       fx="23.213139"
       fy="94.227501"
       r="1.9234973" />
    <radialGradient
       inkscape:collect="always"
       xlink:href="#light100to0"
       id="radialGradient4389"
       gradientUnits="userSpaceOnUse"
       gradientTransform="matrix(6.330806e-2,1.26272e-2,-2.372642e-2,0.106846,31.11952,103.0889)"
       spreadMethod="pad"
       cx="-115.04427"
       cy="-27.05776"
       fx="-113.23781"
       fy="-26.507681"
       r="20.501772" />
    <radialGradient
       inkscape:collect="always"
       xlink:href="#light100to0"
       id="radialGradient4392"
       gradientUnits="userSpaceOnUse"
       gradientTransform="matrix(0.162701,-0.155481,0.165631,0.135096,58.40352,67.79236)"
       spreadMethod="pad"
       cx="-201.00865"
       cy="-3.8498094"
       fx="-199.20219"
       fy="-3.2997303"
       r="20.501772" />
    <linearGradient
       inkscape:collect="always"
       xlink:href="#linearGradient3244"
       id="linearGradient4396"
       gradientUnits="userSpaceOnUse"
       gradientTransform="matrix(0.411527,0.426938,-0.169552,0.170314,36.93702,-70.3558)"
       x1="135.68752"
       y1="299.44708"
       x2="197.88403"
       y2="162.98607" />
    <linearGradient
       inkscape:collect="always"
       xlink:href="#zerotowhitetozero"
       id="linearGradient4399"
       gradientUnits="userSpaceOnUse"
       gradientTransform="matrix(0.111798,3.338965e-2,-0.753294,0.68431,209.4424,192.8965)"
       x1="-2105.8408"
       y1="-86.329994"
       x2="-2035.2124"
       y2="-88.10363" />
    <linearGradient
       inkscape:collect="always"
       xlink:href="#zerotowhitetozero"
       id="linearGradient3443"
       gradientUnits="userSpaceOnUse"
       gradientTransform="matrix(1.161617,-4.739154e-2,2.691281e-2,0.545879,5.16733,-400.1846)"
       x1="-432.85263"
       y1="405.99652"
       x2="-420.16779"
       y2="406.47195" />
    <linearGradient
       id="sadow75to0w">
      <stop
         style="stop-color:#000000;stop-opacity:0.72941178;"
         offset="0.0000000"
         id="stop3429" />
      <stop
         style="stop-color:#ffffff;stop-opacity:0.0000000;"
         offset="1.0000000"
         id="stop3430" />
    </linearGradient>
    <linearGradient
       inkscape:collect="always"
       xlink:href="#sadow75to0w"
       id="linearGradient3441"
       gradientUnits="userSpaceOnUse"
       gradientTransform="matrix(1.161617,-4.739154e-2,2.691281e-2,0.545879,5.16733,-400.1846)"
       x1="-435.29645"
       y1="403.28021"
       x2="-419.48849"
       y2="405.64288" />
    <radialGradient
       inkscape:collect="always"
       xlink:href="#zerotowhitetozero"
       id="radialGradient4405"
       gradientUnits="userSpaceOnUse"
       gradientTransform="matrix(0.566388,-1.166528,-0.503508,-0.308299,149.8957,125.0291)"
       spreadMethod="reflect"
       cx="-36.280697"
       cy="224.72163"
       fx="-36.26968"
       fy="224.71202"
       r="14.292608" />
    <linearGradient
       id="light100to0">
      <stop
         style="stop-color:#ffffff;stop-opacity:1.0000000;"
         offset="0.0000000"
         id="stop2764" />
      <stop
         style="stop-color:#ffffff;stop-opacity:0.0000000;"
         offset="1.0000000"
         id="stop2765" />
    </linearGradient>
    <radialGradient
       inkscape:collect="always"
       xlink:href="#light100to0"
       id="radialGradient4408"
       gradientUnits="userSpaceOnUse"
       gradientTransform="matrix(0.155742,0.269127,-0.353053,0.232205,53.54416,281.0779)"
       spreadMethod="pad"
       cx="-543.27472"
       cy="-157.50522"
       fx="-541.46826"
       fy="-156.95514"
       r="20.501772" />
    <radialGradient
       inkscape:collect="always"
       xlink:href="#zerotowhitetozero"
       id="radialGradient4411"
       gradientUnits="userSpaceOnUse"
       gradientTransform="matrix(0.63419,-1.125745,0.507855,0.300005,-85.75471,-7.01332)"
       spreadMethod="reflect"
       cx="-36.280697"
       cy="224.72163"
       fx="-36.26968"
       fy="224.71202"
       r="14.292608" />
    <linearGradient
       inkscape:collect="always"
       id="linearGradient3231">
      <stop
         style="stop-color:black;stop-opacity:1;"
         offset="0"
         id="stop3233" />
      <stop
         style="stop-color:black;stop-opacity:0;"
         offset="1"
         id="stop3235" />
    </linearGradient>
    <linearGradient
       inkscape:collect="always"
       xlink:href="#linearGradient3231"
       id="linearGradient4414"
       gradientUnits="userSpaceOnUse"
       gradientTransform="matrix(1.115463,-8.021909e-3,8.021909e-3,1.115463,-12.87309,-3.736952)"
       x1="54.341255"
       y1="66.426491"
       x2="92.500397"
       y2="44.626854" />
    <linearGradient
       id="zerotowhitetozero">
      <stop
         style="stop-color:#ffffff;stop-opacity:0.0000000;"
         offset="0.0000000"
         id="stop3155" />
      <stop
         style="stop-color:#ffffff;stop-opacity:0.0000000;"
         offset="0.33462518"
         id="stop3156" />
      <stop
         style="stop-color:#ffffff;stop-opacity:1.0000000;"
         offset="0.55554277"
         id="stop3157" />
      <stop
         style="stop-color:#ffffff;stop-opacity:0.0000000;"
         offset="0.74528182"
         id="stop3158" />
      <stop
         style="stop-color:#ffffff;stop-opacity:0.0000000;"
         offset="1.0000000"
         id="stop3159" />
    </linearGradient>
    <linearGradient
       inkscape:collect="always"
       xlink:href="#zerotowhitetozero"
       id="linearGradient4417"
       gradientUnits="userSpaceOnUse"
       gradientTransform="matrix(1.239845,-0.594423,0.150736,0.662307,-131.3924,-8.023885e-2)"
       x1="111.31033"
       y1="198.13455"
       x2="135.19012"
       y2="235.01132" />
    <linearGradient
       id="greylighttograyw">
      <stop
         style="stop-color:#b5b5b8;stop-opacity:1.0000000;"
         offset="0.0000000"
         id="stop575" />
      <stop
         style="stop-color:#ebebee;stop-opacity:1.0000000;"
         offset="1.0000000"
         id="stop576" />
    </linearGradient>
    <linearGradient
       inkscape:collect="always"
       xlink:href="#greylighttograyw"
       id="linearGradient4420"
       gradientUnits="userSpaceOnUse"
       gradientTransform="matrix(1.038888,-0.457693,-1.086462e-2,0.738236,-119.3882,-343.1581)"
       spreadMethod="reflect"
       x1="139.84422"
       y1="169.79622"
       x2="159.0388"
       y2="203.17725" />
    <linearGradient
       inkscape:collect="always"
       xlink:href="#XMLID_11_"
       id="linearGradient4423"
       gradientUnits="userSpaceOnUse"
       gradientTransform="matrix(0.411527,0.426938,-0.169552,0.170314,30.24785,-62.54412)"
       x1="189.70045"
       y1="98.893227"
       x2="185.19417"
       y2="223.53912" />
    <linearGradient
       inkscape:collect="always"
       id="linearGradient3182">
      <stop
         style="stop-color:white;stop-opacity:1;"
         offset="0"
         id="stop3184" />
      <stop
         style="stop-color:white;stop-opacity:0;"
         offset="1"
         id="stop3186" />
    </linearGradient>
    <linearGradient
       inkscape:collect="always"
       xlink:href="#linearGradient3182"
       id="linearGradient4426"
       gradientUnits="userSpaceOnUse"
       gradientTransform="matrix(1.115492,-5.412134e-4,5.412134e-4,1.115492,-12.57335,-4.389341)"
       x1="73.75"
       y1="34.015625"
       x2="92.71875"
       y2="34.015625" />
    <linearGradient
       gradientTransform="translate(-484,-674)"
       y2="678.3681"
       x2="538.77338"
       y1="674"
       x1="538.77338"
       gradientUnits="userSpaceOnUse"
       id="XMLID_10_">
      <stop
         id="stop54"
         style="stop-color:#094422"
         offset="0" />
      <stop
         id="stop56"
         style="stop-color:#9ED676"
         offset="1" />
    </linearGradient>
    <linearGradient
       inkscape:collect="always"
       xlink:href="#XMLID_10_"
       id="linearGradient4429"
       gradientUnits="userSpaceOnUse"
       gradientTransform="matrix(0.411527,0.426938,-0.169552,0.170314,36.93702,-70.3558)"
       x1="183.57243"
       y1="247.49863"
       x2="187.18298"
       y2="123.06261" />
    <linearGradient
       id="linearGradient3205">
      <stop
         style="stop-color:black;stop-opacity:1;"
         offset="0"
         id="stop3207" />
      <stop
         id="stop3213"
         offset="0.5"
         style="stop-color:black;stop-opacity:1;" />
      <stop
         style="stop-color:white;stop-opacity:1;"
         offset="1"
         id="stop3209" />
    </linearGradient>
    <radialGradient
       inkscape:collect="always"
       xlink:href="#linearGradient3205"
       id="radialGradient4432"
       gradientUnits="userSpaceOnUse"
       gradientTransform="matrix(0.372623,-0.349169,1.532862,1.635814,6.18763,10.92735)"
       cx="91.509644"
       cy="33.319088"
       fx="94.437843"
       fy="33.117798"
       r="9.8092254" />
    <linearGradient
       inkscape:collect="always"
       id="linearGradient3244">
      <stop
         style="stop-color:black;stop-opacity:1;"
         offset="0"
         id="stop3246" />
      <stop
         style="stop-color:black;stop-opacity:0;"
         offset="1"
         id="stop3248" />
    </linearGradient>
    <linearGradient
       inkscape:collect="always"
       xlink:href="#linearGradient3244"
       id="linearGradient4435"
       gradientUnits="userSpaceOnUse"
       x1="73.109634"
       y1="26.46607"
       x2="112.67555"
       y2="26.46607"
       gradientTransform="matrix(1.115463,-8.021909e-3,8.021909e-3,1.115463,-12.57557,-4.656674)" />
    <linearGradient
       gradientTransform="translate(-484,-674)"
       y2="736.55688"
       x2="579.72852"
       y1="732.41022"
       x1="579.72852"
       gradientUnits="userSpaceOnUse"
       id="XMLID_11_">
      <stop
         id="stop61"
         style="stop-color:#094422"
         offset="0" />
      <stop
         id="stop63"
         style="stop-color:#9ED676"
         offset="1" />
    </linearGradient>
    <linearGradient
       inkscape:collect="always"
       xlink:href="#XMLID_11_"
       id="linearGradient4438"
       gradientUnits="userSpaceOnUse"
       gradientTransform="matrix(1.086618,7.523628e-3,-9.502225e-3,1.145069,-9.483939,-6.404238)"
       x1="132.08015"
       y1="48.816029"
       x2="103.92957"
       y2="25.544348" />
    <linearGradient
       inkscape:collect="always"
       xlink:href="#linearGradient4357"
       id="linearGradient14448"
       gradientUnits="userSpaceOnUse"
       x1="-61.42284"
       y1="93.001884"
       x2="-64.420349"
       y2="92.036232"
       gradientTransform="matrix(0.563612,-0.431543,0.431542,0.563612,-1.474685,1.056708)" />
    <radialGradient
       inkscape:collect="always"
       xlink:href="#linearGradient4357"
       id="radialGradient14451"
       gradientUnits="userSpaceOnUse"
       gradientTransform="matrix(7.179068e-2,6.48917e-2,-1.829531,1.745137,99.92171,3.069993)"
       cx="-119.48933"
       cy="22.960737"
       fx="-102.92719"
       fy="22.425863"
       r="20.117188" />
    <radialGradient
       inkscape:collect="always"
       xlink:href="#linearGradient3182"
       id="radialGradient14454"
       gradientUnits="userSpaceOnUse"
       gradientTransform="matrix(1.418906,-0.894138,0.338863,0.537743,-81.49941,95.59268)"
       cx="104.47214"
       cy="16.776716"
       fx="108.11813"
       fy="11.444658"
       r="12.184338" />
    <radialGradient
       inkscape:collect="always"
       xlink:href="#light100to0"
       id="radialGradient14458"
       gradientUnits="userSpaceOnUse"
       gradientTransform="matrix(4.493923e-2,8.963431e-3,-1.68422e-2,7.584474e-2,20.61551,74.23447)"
       spreadMethod="pad"
       cx="-115.04427"
       cy="-27.05776"
       fx="-113.23781"
       fy="-26.507681"
       r="20.501772" />
    <radialGradient
       inkscape:collect="always"
       xlink:href="#light100to0"
       id="radialGradient14461"
       gradientUnits="userSpaceOnUse"
       gradientTransform="matrix(0.115493,-0.110368,0.117573,9.589803e-2,39.98305,49.17918)"
       spreadMethod="pad"
       cx="-201.00865"
       cy="-3.8498094"
       fx="-199.20219"
       fy="-3.2997303"
       r="20.501772" />
    <linearGradient
       inkscape:collect="always"
       xlink:href="#linearGradient3244"
       id="linearGradient14465"
       gradientUnits="userSpaceOnUse"
       gradientTransform="matrix(0.292122,0.303062,-0.120356,0.120898,24.74506,-48.88543)"
       x1="135.68752"
       y1="299.44708"
       x2="197.88403"
       y2="162.98607" />
    <linearGradient
       inkscape:collect="always"
       xlink:href="#zerotowhitetozero"
       id="linearGradient14468"
       gradientUnits="userSpaceOnUse"
       gradientTransform="matrix(7.935981e-2,2.370168e-2,-0.534726,0.485758,147.198,137.9845)"
       x1="-2105.8408"
       y1="-86.329994"
       x2="-2035.2124"
       y2="-88.10363" />
    <radialGradient
       inkscape:collect="always"
       xlink:href="#zerotowhitetozero"
       id="radialGradient14474"
       gradientUnits="userSpaceOnUse"
       gradientTransform="matrix(0.402051,-0.828061,-0.357415,-0.218846,104.9288,89.80874)"
       spreadMethod="reflect"
       cx="-36.280697"
       cy="224.72163"
       fx="-36.26968"
       fy="224.71202"
       r="14.292608" />
    <radialGradient
       inkscape:collect="always"
       xlink:href="#light100to0"
       id="radialGradient14477"
       gradientUnits="userSpaceOnUse"
       gradientTransform="matrix(0.110553,0.19104,-0.250615,0.164831,36.53364,200.5801)"
       spreadMethod="pad"
       cx="-543.27472"
       cy="-157.50522"
       fx="-541.46826"
       fy="-156.95514"
       r="20.501772" />
    <radialGradient
       inkscape:collect="always"
       xlink:href="#zerotowhitetozero"
       id="radialGradient14480"
       gradientUnits="userSpaceOnUse"
       gradientTransform="matrix(0.45018,-0.799111,0.360501,0.212959,-62.34767,-3.921704)"
       spreadMethod="reflect"
       cx="-36.280697"
       cy="224.72163"
       fx="-36.26968"
       fy="224.71202"
       r="14.292608" />
    <linearGradient
       inkscape:collect="always"
       xlink:href="#linearGradient3231"
       id="linearGradient14483"
       gradientUnits="userSpaceOnUse"
       gradientTransform="matrix(0.791811,-5.69436e-3,5.694352e-3,0.791813,-10.61265,-1.595971)"
       x1="54.341255"
       y1="66.426491"
       x2="92.500397"
       y2="44.626854" />
    <linearGradient
       inkscape:collect="always"
       xlink:href="#zerotowhitetozero"
       id="linearGradient14486"
       gradientUnits="userSpaceOnUse"
       gradientTransform="matrix(0.880104,-0.421952,0.107,0.470139,-94.74358,0.99975)"
       x1="111.31033"
       y1="198.13455"
       x2="135.19012"
       y2="235.01132" />
    <linearGradient
       inkscape:collect="always"
       xlink:href="#greylighttograyw"
       id="linearGradient14489"
       gradientUnits="userSpaceOnUse"
       gradientTransform="matrix(0.737455,-0.324894,-7.712251e-3,0.524038,-86.2224,-242.5344)"
       spreadMethod="reflect"
       x1="139.84422"
       y1="169.79622"
       x2="159.0388"
       y2="203.17725" />
    <linearGradient
       inkscape:collect="always"
       xlink:href="#XMLID_11_"
       id="linearGradient14492"
       gradientUnits="userSpaceOnUse"
       gradientTransform="matrix(0.292122,0.303062,-0.120356,0.120898,19.99675,-43.3403)"
       x1="189.70045"
       y1="98.893227"
       x2="185.19417"
       y2="223.53912" />
    <linearGradient
       inkscape:collect="always"
       xlink:href="#linearGradient3182"
       id="linearGradient14495"
       gradientUnits="userSpaceOnUse"
       gradientTransform="matrix(0.791832,-3.841809e-4,3.841803e-4,0.791833,-10.39988,-2.05907)"
       x1="73.75"
       y1="34.015625"
       x2="92.71875"
       y2="34.015625" />
    <linearGradient
       inkscape:collect="always"
       xlink:href="#XMLID_10_"
       id="linearGradient14498"
       gradientUnits="userSpaceOnUse"
       gradientTransform="matrix(0.292122,0.303062,-0.120356,0.120898,24.74506,-48.88543)"
       x1="183.57243"
       y1="247.49863"
       x2="187.18298"
       y2="123.06261" />
    <radialGradient
       inkscape:collect="always"
       xlink:href="#linearGradient3205"
       id="radialGradient14501"
       gradientUnits="userSpaceOnUse"
       gradientTransform="matrix(0.264506,-0.247858,1.088102,1.161184,2.917604,8.813498)"
       cx="91.509644"
       cy="33.319088"
       fx="94.437843"
       fy="33.117798"
       r="9.8092254" />
    <linearGradient
       inkscape:collect="always"
       xlink:href="#linearGradient3244"
       id="linearGradient14504"
       gradientUnits="userSpaceOnUse"
       gradientTransform="matrix(0.791811,-5.69436e-3,5.694352e-3,0.791813,-10.40145,-2.248837)"
       x1="73.109634"
       y1="26.46607"
       x2="112.67555"
       y2="26.46607" />
    <linearGradient
       inkscape:collect="always"
       xlink:href="#XMLID_11_"
       id="linearGradient14507"
       gradientUnits="userSpaceOnUse"
       gradientTransform="matrix(0.771336,5.340655e-3,-6.745154e-3,0.812828,-8.206859,-3.489347)"
       x1="132.08015"
       y1="48.816029"
       x2="103.92957"
       y2="25.544348" />
    <linearGradient
       inkscape:collect="always"
       xlink:href="#XMLID_11_"
       id="linearGradient14538"
       gradientUnits="userSpaceOnUse"
       gradientTransform="matrix(0.771336,5.340655e-3,-6.745154e-3,0.812828,-8.206859,-3.489347)"
       x1="132.08015"
       y1="48.816029"
       x2="103.92957"
       y2="25.544348" />
    <linearGradient
       inkscape:collect="always"
       xlink:href="#linearGradient3244"
       id="linearGradient14540"
       gradientUnits="userSpaceOnUse"
       gradientTransform="matrix(0.791811,-5.69436e-3,5.694352e-3,0.791813,-10.40145,-2.248837)"
       x1="73.109634"
       y1="26.46607"
       x2="112.67555"
       y2="26.46607" />
    <radialGradient
       inkscape:collect="always"
       xlink:href="#linearGradient3205"
       id="radialGradient14542"
       gradientUnits="userSpaceOnUse"
       gradientTransform="matrix(0.264506,-0.247858,1.088102,1.161184,2.917604,8.813498)"
       cx="91.509644"
       cy="33.319088"
       fx="94.437843"
       fy="33.117798"
       r="9.8092254" />
    <linearGradient
       inkscape:collect="always"
       xlink:href="#XMLID_10_"
       id="linearGradient14544"
       gradientUnits="userSpaceOnUse"
       gradientTransform="matrix(0.292122,0.303062,-0.120356,0.120898,24.74506,-48.88543)"
       x1="183.57243"
       y1="247.49863"
       x2="187.18298"
       y2="123.06261" />
    <linearGradient
       inkscape:collect="always"
       xlink:href="#linearGradient3182"
       id="linearGradient14546"
       gradientUnits="userSpaceOnUse"
       gradientTransform="matrix(0.791832,-3.841809e-4,3.841803e-4,0.791833,-10.39988,-2.05907)"
       x1="73.75"
       y1="34.015625"
       x2="92.71875"
       y2="34.015625" />
    <linearGradient
       inkscape:collect="always"
       xlink:href="#XMLID_11_"
       id="linearGradient14548"
       gradientUnits="userSpaceOnUse"
       gradientTransform="matrix(0.292122,0.303062,-0.120356,0.120898,19.99675,-43.3403)"
       x1="189.70045"
       y1="98.893227"
       x2="185.19417"
       y2="223.53912" />
    <linearGradient
       inkscape:collect="always"
       xlink:href="#greylighttograyw"
       id="linearGradient14550"
       gradientUnits="userSpaceOnUse"
       gradientTransform="matrix(0.737455,-0.324894,-7.712251e-3,0.524038,-86.2224,-242.5344)"
       spreadMethod="reflect"
       x1="139.84422"
       y1="169.79622"
       x2="159.0388"
       y2="203.17725" />
    <linearGradient
       inkscape:collect="always"
       xlink:href="#zerotowhitetozero"
       id="linearGradient14552"
       gradientUnits="userSpaceOnUse"
       gradientTransform="matrix(0.880104,-0.421952,0.107,0.470139,-94.74358,0.99975)"
       x1="111.31033"
       y1="198.13455"
       x2="135.19012"
       y2="235.01132" />
    <linearGradient
       inkscape:collect="always"
       xlink:href="#linearGradient3231"
       id="linearGradient14554"
       gradientUnits="userSpaceOnUse"
       gradientTransform="matrix(0.791811,-5.69436e-3,5.694352e-3,0.791813,-10.61265,-1.595971)"
       x1="54.341255"
       y1="66.426491"
       x2="92.500397"
       y2="44.626854" />
    <radialGradient
       inkscape:collect="always"
       xlink:href="#zerotowhitetozero"
       id="radialGradient14556"
       gradientUnits="userSpaceOnUse"
       gradientTransform="matrix(0.45018,-0.799111,0.360501,0.212959,-62.34767,-3.921704)"
       spreadMethod="reflect"
       cx="-36.280697"
       cy="224.72163"
       fx="-36.26968"
       fy="224.71202"
       r="14.292608" />
    <radialGradient
       inkscape:collect="always"
       xlink:href="#light100to0"
       id="radialGradient14558"
       gradientUnits="userSpaceOnUse"
       gradientTransform="matrix(0.110553,0.19104,-0.250615,0.164831,36.53364,200.5801)"
       spreadMethod="pad"
       cx="-543.27472"
       cy="-157.50522"
       fx="-541.46826"
       fy="-156.95514"
       r="20.501772" />
    <radialGradient
       inkscape:collect="always"
       xlink:href="#zerotowhitetozero"
       id="radialGradient14560"
       gradientUnits="userSpaceOnUse"
       gradientTransform="matrix(0.402051,-0.828061,-0.357415,-0.218846,104.9288,89.80874)"
       spreadMethod="reflect"
       cx="-36.280697"
       cy="224.72163"
       fx="-36.26968"
       fy="224.71202"
       r="14.292608" />
    <linearGradient
       inkscape:collect="always"
       xlink:href="#sadow75to0w"
       id="linearGradient14562"
       gradientUnits="userSpaceOnUse"
       gradientTransform="matrix(1.161617,-4.739154e-2,2.691281e-2,0.545879,5.16733,-400.1846)"
       x1="-435.29645"
       y1="403.28021"
       x2="-419.48849"
       y2="405.64288" />
    <linearGradient
       inkscape:collect="always"
       xlink:href="#zerotowhitetozero"
       id="linearGradient14564"
       gradientUnits="userSpaceOnUse"
       gradientTransform="matrix(1.161617,-4.739154e-2,2.691281e-2,0.545879,5.16733,-400.1846)"
       x1="-432.85263"
       y1="405.99652"
       x2="-420.16779"
       y2="406.47195" />
    <linearGradient
       inkscape:collect="always"
       xlink:href="#zerotowhitetozero"
       id="linearGradient14566"
       gradientUnits="userSpaceOnUse"
       gradientTransform="matrix(7.935981e-2,2.370168e-2,-0.534726,0.485758,147.198,137.9845)"
       x1="-2105.8408"
       y1="-86.329994"
       x2="-2035.2124"
       y2="-88.10363" />
    <linearGradient
       inkscape:collect="always"
       xlink:href="#linearGradient3244"
       id="linearGradient14568"
       gradientUnits="userSpaceOnUse"
       gradientTransform="matrix(0.292122,0.303062,-0.120356,0.120898,24.74506,-48.88543)"
       x1="135.68752"
       y1="299.44708"
       x2="197.88403"
       y2="162.98607" />
    <radialGradient
       inkscape:collect="always"
       xlink:href="#light100to0"
       id="radialGradient14570"
       gradientUnits="userSpaceOnUse"
       gradientTransform="matrix(0.115493,-0.110368,0.117573,9.589803e-2,39.98305,49.17918)"
       spreadMethod="pad"
       cx="-201.00865"
       cy="-3.8498094"
       fx="-199.20219"
       fy="-3.2997303"
       r="20.501772" />
    <radialGradient
       inkscape:collect="always"
       xlink:href="#light100to0"
       id="radialGradient14572"
       gradientUnits="userSpaceOnUse"
       gradientTransform="matrix(4.493923e-2,8.963431e-3,-1.68422e-2,7.584474e-2,20.61551,74.23447)"
       spreadMethod="pad"
       cx="-115.04427"
       cy="-27.05776"
       fx="-113.23781"
       fy="-26.507681"
       r="20.501772" />
    <radialGradient
       inkscape:collect="always"
       xlink:href="#linearGradient3152"
       id="radialGradient14574"
       gradientUnits="userSpaceOnUse"
       gradientTransform="matrix(1,0,0,0.75,0,23.62477)"
       cx="24.043716"
       cy="94.499092"
       fx="23.213139"
       fy="94.227501"
       r="1.9234973" />
    <radialGradient
       inkscape:collect="always"
       xlink:href="#linearGradient3182"
       id="radialGradient14576"
       gradientUnits="userSpaceOnUse"
       gradientTransform="matrix(1.418906,-0.894138,0.338863,0.537743,-81.49941,95.59268)"
       cx="104.47214"
       cy="16.776716"
       fx="108.11813"
       fy="11.444658"
       r="12.184338" />
    <radialGradient
       inkscape:collect="always"
       xlink:href="#linearGradient4357"
       id="radialGradient14578"
       gradientUnits="userSpaceOnUse"
       gradientTransform="matrix(7.179068e-2,6.48917e-2,-1.829531,1.745137,99.92171,3.069993)"
       cx="-119.48933"
       cy="22.960737"
       fx="-102.92719"
       fy="22.425863"
       r="20.117188" />
    <linearGradient
       inkscape:collect="always"
       xlink:href="#linearGradient4357"
       id="linearGradient14580"
       gradientUnits="userSpaceOnUse"
       gradientTransform="matrix(0.563612,-0.431543,0.431542,0.563612,-1.474685,1.056708)"
       x1="-61.42284"
       y1="93.001884"
       x2="-64.420349"
       y2="92.036232" />
    <radialGradient
       inkscape:collect="always"
       xlink:href="#linearGradient3291"
       id="radialGradient14588"
       gradientUnits="userSpaceOnUse"
       gradientTransform="matrix(1,0,0,0.197802,0,92.82166)"
       cx="63.912209"
       cy="115.70919"
       fx="14.046639"
       fy="115.70919"
       r="63.912209" />
  </defs>
  <sodipodi:namedview
     id="base"
     pagecolor="#ffffff"
     bordercolor="#666666"
     borderopacity="1.0"
     gridtolerance="10000"
     guidetolerance="10"
     objecttolerance="10"
     inkscape:pageopacity="0.0"
     inkscape:pageshadow="2"
     inkscape:zoom="1"
     inkscape:cx="44"
     inkscape:cy="44"
     inkscape:document-units="px"
     inkscape:current-layer="layer1"
     width="88px"
     height="88px"
     inkscape:window-width="849"
     inkscape:window-height="579"
     inkscape:window-x="169"
     inkscape:window-y="0" />
  <metadata
     id="metadata1973">
    <rdf:RDF>
      <cc:Work
         rdf:about="">
        <dc:format>image/svg+xml</dc:format>
        <dc:type
           rdf:resource="http://purl.org/dc/dcmitype/StillImage" />
      </cc:Work>
    </rdf:RDF>
  </metadata>
  <g
     inkscape:label="Layer 1"
     inkscape:groupmode="layer"
     id="layer1">
    <path
       sodipodi:type="arc"
       style="opacity:0.38139535;fill:url(#radialGradient14588);fill-opacity:1;fill-rule:nonzero;stroke:none;stroke-width:0;stroke-linecap:round;stroke-linejoin:round;stroke-miterlimit:4;stroke-dasharray:none;stroke-dashoffset:4;stroke-opacity:1"
       id="path3289"
       sodipodi:cx="63.912209"
       sodipodi:cy="115.70919"
       sodipodi:rx="63.912209"
       sodipodi:ry="12.641975"
       d="M 127.82442 115.70919 A 63.912209 12.641975 0 1 1  0,115.70919 A 63.912209 12.641975 0 1 1  127.82442 115.70919 z"
       transform="matrix(0.688444,0,0,0.286852,2.34921e-5,51.18221)" />
    <g
       id="g14511"
       transform="matrix(1.00908,0,0,1.00908,-0.399519,-0.363209)">
      <path
         id="path3259"
         d="M 76.741947,3.1818354 C 76.708109,3.1819482 76.674242,3.1822438 76.640354,3.1826803 C 73.925809,3.21739 71.021167,4.2894195 68.360386,6.7759666 C 65.049936,9.869631 62.373342,16.836117 57.724184,16.889733 C 57.226623,17.639193 56.891286,18.43684 56.698941,19.261339 C 55.473909,18.736265 54.340029,18.464855 53.387512,18.470258 C 52.502265,18.475277 51.77363,18.719411 51.274068,19.221212 L 46.459866,23.661377 C 46.304185,23.752007 46.159699,23.863314 46.027305,23.996301 C 44.900839,25.127854 45.327978,27.285196 46.763205,29.856424 C 34.02529,41.443327 21.133441,53.211128 8.4020756,64.79036 C 8.3568411,64.832671 7.3530834,65.745857 6.4830068,67.797522 C 5.6129354,69.84922 5.5827868,73.407547 2.3165246,75.782332 C 0.12725692,77.844868 0.66846722,79.644121 1.6356858,81.077437 C 1.7460833,81.24103 1.9454135,81.418258 2.1303413,81.595877 C 2.2874749,81.794415 2.4427765,82.007413 2.5931021,82.131332 C 3.9268758,83.230856 5.6647556,83.940345 7.922535,81.953209 C 10.5926,78.922152 14.133622,79.228425 16.255945,78.555131 C 18.378231,77.881837 19.381162,76.967734 19.427501,76.926641 C 32.217689,65.264908 45.212869,53.459402 58.00908,41.793422 C 60.561717,43.434844 62.729634,43.993482 63.988072,42.976229 C 63.993447,42.976172 63.998804,42.976171 64.004192,42.976057 L 67.51237,39.807293 L 68.968205,38.401471 L 69.001567,38.367177 C 69.937971,37.3837 69.973741,35.562668 69.257322,33.347551 C 70.160687,33.285698 71.056219,33.073057 71.922392,32.685799 C 72.094943,27.588396 79.609181,25.19018 82.66945,22.330316 C 92.016301,13.595524 85.370337,3.1536206 76.741947,3.1818354 z "
         style="opacity:0.28999999;fill:none;fill-opacity:1;stroke:#2a2a2a;stroke-width:0.79183245;stroke-linecap:round;stroke-linejoin:round;stroke-miterlimit:4;stroke-dasharray:none;stroke-dashoffset:0;stroke-opacity:1" />
      <path
         sodipodi:nodetypes="cccss"
         id="rect10614"
         d="M 68.425482,6.5906466 C 65.108972,9.6899812 62.427481,16.669223 57.769806,16.722939 C 52.852387,24.129911 63.750178,36.233773 71.993988,32.547935 C 72.166858,27.441206 79.694909,25.038591 82.760773,22.173494 C 95.102182,10.64023 79.612474,-3.8637934 68.425482,6.5906466 z "
         style="fill:url(#linearGradient14538);fill-opacity:1;stroke:none;stroke-width:0.29981351;stroke-linecap:round;stroke-linejoin:round;stroke-miterlimit:4;stroke-dashoffset:0;stroke-opacity:1" />
      <path
         style="opacity:0.26639344;fill:url(#linearGradient14540);fill-opacity:1;stroke:none;stroke-width:0.29981351;stroke-linecap:round;stroke-linejoin:round;stroke-miterlimit:4;stroke-dashoffset:0;stroke-opacity:1"
         d="M 68.425482,6.5906466 C 65.108972,9.6899812 62.427481,16.669223 57.769806,16.722939 C 52.852387,24.129911 63.750178,36.233773 71.993988,32.547935 C 72.166858,27.441206 79.694909,25.038591 82.760773,22.173494 C 95.102182,10.64023 79.612474,-3.8637934 68.425482,6.5906466 z "
         id="path3242"
         sodipodi:nodetypes="cccss" />
      <path
         sodipodi:nodetypes="ccc"
         id="path3192"
         d="M 57.842884,16.375779 C 52.452147,23.170542 64.266336,35.191845 71.785292,32.462023 C 71.787663,27.763041 62.837535,18.32495 57.842884,16.375779 z "
         style="opacity:0.35655739;fill:url(#radialGradient14542);fill-opacity:1;stroke:none;stroke-width:0.29981351;stroke-linecap:round;stroke-linejoin:round;stroke-miterlimit:4;stroke-dashoffset:0;stroke-opacity:1" />
      <path
         sodipodi:nodetypes="cccsccsc"
         style="fill:url(#linearGradient14544);fill-opacity:1;stroke:none;stroke-width:1;stroke-linecap:round;stroke-linejoin:round;stroke-miterlimit:4;stroke-dashoffset:0;stroke-opacity:1"
         d="M 69.034392,38.274077 L 67.575946,39.682447 L 64.061333,42.857032 C 61.347445,42.916149 60.016714,35.503708 56.142521,31.484459 C 52.635707,27.846314 46.231355,26.807595 45.916331,24.03131 L 51.307905,19.058669 C 53.374379,16.982913 59.009867,19.602447 63.794735,25.018922 C 68.603975,30.462991 71.077309,36.129238 69.067839,38.239717"
         id="path3144" />
      <path
         sodipodi:nodetypes="cccccccccc"
         id="path3179"
         d="M 56.075188,19.015489 L 48.011542,26.418588 C 49.130512,27.103728 50.569555,27.78809 52.021234,28.569438 L 59.814612,21.338647 C 58.442937,20.356754 57.296276,19.497266 56.075188,19.015489 z M 61.397873,22.549476 L 53.679601,29.533681 C 54.256206,29.900715 54.819991,30.282554 55.338075,30.720626 L 62.736164,23.860702 C 62.234983,23.387769 61.902887,22.966338 61.397873,22.549476 z "
         style="fill:url(#linearGradient14546);fill-opacity:1;stroke:none;stroke-width:1;stroke-linecap:round;stroke-linejoin:round;stroke-miterlimit:4;stroke-dashoffset:0;stroke-opacity:1" />
      <path
         sodipodi:nodetypes="csssc"
         id="path5651"
         d="M 64.224175,42.6957 C 62.157698,44.771498 57.168663,41.846809 52.153005,36.643355 C 47.137346,31.43986 43.985059,25.918302 46.051536,23.842506 C 48.118012,21.76675 53.108873,24.945239 58.124532,30.148734 C 63.111328,35.322271 66.267095,40.550866 64.257623,42.661338"
         style="fill:url(#linearGradient14548);fill-opacity:1;stroke:none;stroke-width:1;stroke-linecap:round;stroke-linejoin:round;stroke-miterlimit:4;stroke-dashoffset:0;stroke-opacity:1" />
      <path
         style="fill:url(#linearGradient14550);fill-opacity:1;fill-rule:evenodd;stroke:none;stroke-width:0.125;stroke-linecap:butt;stroke-linejoin:miter;stroke-miterlimit:4;stroke-opacity:1"
         d="M 47.586735,28.98756 C 34.566186,40.829772 21.377953,52.869014 8.357397,64.71126 C 8.3120787,64.753651 7.3064796,65.668536 6.4348094,67.723958 C 5.5631445,69.779413 5.5329342,73.344236 2.2606931,75.723372 C 0.0674133,77.789677 0.60961405,79.592223 1.5786047,81.02816 C 1.689203,81.192043 1.8889182,81.369612 2.0741872,81.547565 C 2.2316101,81.746458 2.3871827,81.959818 2.5377847,82.083971 C 3.8739984,83.185503 5.6150881,83.896298 7.8770017,81.905528 C 10.551951,78.868928 14.099445,79.175768 16.22565,78.501246 C 18.351822,77.826725 19.356573,76.91091 19.403005,76.869746 C 32.408887,65.011345 45.626502,53.004441 58.632343,41.146042 C 56.584792,40.522124 54.084349,38.416592 51.983561,36.098228 C 49.874388,33.783746 48.013996,31.089357 47.586735,28.98756 z "
         id="path2770" />
      <path
         style="fill:url(#linearGradient14552);fill-opacity:1;fill-rule:evenodd;stroke:none;stroke-width:1px;stroke-linecap:butt;stroke-linejoin:miter;stroke-opacity:1"
         d="M 0.93829064,68.55062 C 5.1838726,64.634577 9.8762502,65.417887 13.507951,68.314538 C 16.568001,70.755225 19.657652,75.781232 15.645024,79.352258 C 29.953183,66.370134 44.322796,53.35852 58.630919,40.376393 C 62.702193,37.170448 58.079433,33.279352 55.452382,30.527148 C 52.262926,27.185743 46.694059,27.159232 42.738329,30.506566 C 28.561948,43.418524 15.114598,55.638659 0.93829064,68.55062 z "
         id="path2000"
         sodipodi:nodetypes="csccscc" />
      <path
         sodipodi:nodetypes="csssc"
         style="fill:url(#linearGradient14554);fill-opacity:1;stroke:none;stroke-width:1;stroke-linecap:round;stroke-linejoin:round;stroke-miterlimit:4;stroke-dashoffset:0;stroke-opacity:1"
         d="M 64.224175,42.6957 C 62.157698,44.771498 57.295583,41.845896 52.279925,36.642442 C 47.264266,31.438947 43.985059,25.918302 46.051536,23.842506 C 48.118012,21.76675 52.981953,24.946151 57.997611,30.149647 C 62.984408,35.323184 66.267095,40.550866 64.257623,42.661338"
         id="path3227" />
      <path
         style="fill:url(#radialGradient14556);fill-opacity:1;fill-rule:evenodd;stroke:none;stroke-width:0.125;stroke-linecap:butt;stroke-linejoin:miter;stroke-miterlimit:4;stroke-opacity:1"
         d="M 1.29822,77.742621 C 1.1428568,78.291485 1.2229273,80.082844 1.8260506,80.098397 C 2.2842578,80.110223 5.1721897,77.240281 5.7684441,76.615286 C 8.3244968,73.113129 8.345661,73.178705 8.6021461,72.689746 C 9.796801,70.412244 8.9413856,65.260312 8.4323564,65.586582 C 6.6175198,66.749955 6.1614582,71.200628 5.2365433,72.767737 C 3.6693937,75.422899 1.93655,76.292985 1.29822,77.742621 z "
         id="path5092"
         sodipodi:nodetypes="cscsssc" />
      <path
         style="opacity:0.82010582;fill:url(#radialGradient14558);fill-opacity:1;fill-rule:evenodd;stroke:none;stroke-width:0.125;stroke-linecap:butt;stroke-linejoin:miter;stroke-miterlimit:4;stroke-opacity:1"
         d="M 6.7889046,65.841974 C 6.2971851,66.420844 6.4194128,66.116799 6.1892623,67.056574 C 4.8000036,69.721652 5.2890153,72.673256 2.0167687,75.052393 C -0.17651104,77.118705 0.36852954,78.918312 1.337494,80.354241 C 2.161347,81.575064 4.8451732,83.431424 6.4151813,82.059161 C 9.3617651,79.589888 11.871102,79.532376 14.341932,78.806858 C 15.432174,78.611763 16.519641,78.216844 17.529531,77.510443 C 17.640592,77.409815 17.764136,77.296807 17.875392,77.195972 C 17.630447,71.48495 14.935047,68.215441 7.9493191,65.175647 L 6.7889046,65.841974 z "
         id="path7323"
         sodipodi:nodetypes="cccccccccc" />
      <path
         style="fill:url(#radialGradient14560);fill-opacity:1;fill-rule:evenodd;stroke:none;stroke-width:0.125;stroke-linecap:butt;stroke-linejoin:miter;stroke-miterlimit:4;stroke-opacity:1"
         d="M 6.7252758,74.125476 C 6.3689992,74.553502 4.900361,75.413352 4.5738081,74.869727 C 4.325698,74.456735 5.1075205,70.32003 5.2947714,69.449062 C 6.753038,65.286594 6.6898166,65.301412 6.9456799,64.8121 C 8.1376004,62.532923 12.687043,60.63185 12.692258,61.267431 C 12.710906,63.533586 9.4031891,66.269061 8.6366874,67.931474 C 7.3379792,70.748104 7.5475177,72.786456 6.7252758,74.125476 z "
         id="path7348"
         sodipodi:nodetypes="cscsssc" />
      <g
         id="g11960"
         transform="matrix(0.178814,0.224588,-0.220003,0.174535,54.44938,215.9209)">
        <path
           style="fill:url(#linearGradient14562);fill-opacity:1;stroke:none;stroke-width:1;stroke-linecap:round;stroke-linejoin:round;stroke-miterlimit:4;stroke-dashoffset:0;stroke-opacity:1"
           d="M -471.76248,-159.41569 C -471.64802,-157.09303 -475.56651,-155.04421 -480.50909,-154.8426 C -485.45184,-154.64099 -489.55616,-156.36237 -489.67069,-158.68512 C -489.7853,-161.00777 -485.86674,-163.05651 -480.92408,-163.25821 C -476.00985,-163.45872 -471.92297,-161.76114 -471.76473,-159.45371"
           id="path8110" />
        <path
           style="opacity:0.82539685;fill:url(#linearGradient14564);fill-opacity:1;stroke:none;stroke-width:1;stroke-linecap:round;stroke-linejoin:round;stroke-miterlimit:4;stroke-dashoffset:0;stroke-opacity:1"
           d="M -471.76248,-159.41569 C -471.64802,-157.09303 -475.56651,-155.04421 -480.50909,-154.8426 C -485.45184,-154.64099 -489.55616,-156.36237 -489.67069,-158.68512 C -489.7853,-161.00777 -485.86674,-163.05651 -480.92408,-163.25821 C -476.00985,-163.45872 -471.92297,-161.76114 -471.76473,-159.45371"
           id="path8872" />
      </g>
      <path
         style="fill:url(#linearGradient14566);fill-opacity:1;fill-rule:evenodd;stroke:none;stroke-width:1;stroke-linecap:round;stroke-linejoin:round;stroke-miterlimit:4;stroke-dashoffset:0;stroke-opacity:1"
         d="M 53.930358,29.323138 L 14.02968,65.886378 C 13.655867,66.225961 13.025579,66.400996 12.616488,66.278827 L 7.9324339,64.879881 C 7.5233495,64.75771 7.4949846,64.385946 7.8687944,64.046368 L 47.736543,27.873858 C 49.063252,26.739667 50.981234,27.110218 53.930358,29.323138 z "
         id="rect8885"
         sodipodi:nodetypes="ccccccc" />
      <path
         id="path3252"
         d="M 53.515188,18.300365 C 52.589331,18.289627 51.834919,18.539588 51.3183,19.058527 C 49.491027,20.745616 46.031792,23.831306 45.836482,24.119795 C 44.094026,26.3143 47.401671,31.578187 52.286121,36.645561 C 57.155307,41.697058 61.872826,44.580255 64.035283,42.846404 C 64.086047,42.805702 64.13495,42.767462 64.182858,42.721615 L 64.232168,42.696515 L 64.256734,42.671593 L 67.575835,39.678273 L 69.025772,38.282102 L 69.074904,38.232258 C 71.084372,36.121779 68.544818,30.470265 63.735581,25.026196 C 60.14693,20.96384 56.292757,18.33258 53.515188,18.300365 z "
         style="opacity:0;fill:url(#linearGradient14568);fill-opacity:1;stroke:none;stroke-width:1;stroke-linecap:round;stroke-linejoin:round;stroke-miterlimit:4;stroke-dashoffset:0;stroke-opacity:1"
         sodipodi:nodetypes="cccssccccccsc" />
      <path
         style="opacity:0.02016129;fill:black;fill-opacity:1;fill-rule:evenodd;stroke:none;stroke-width:1px;stroke-linecap:butt;stroke-linejoin:miter;stroke-opacity:1"
         d="M 49.408328,27.240855 C 49.038469,27.577281 46.777972,29.903106 46.407843,30.239813 C 46.367019,30.272929 46.32118,30.292858 46.280855,30.326913 C 33.260296,42.169163 20.838103,53.404114 7.8175475,65.246364 C 8.0597881,65.02631 8.3169227,64.883641 8.56552,64.700973 C 8.4742305,64.784017 8.3815269,64.868196 8.2902402,64.951241 C 8.2449468,64.993664 7.2395614,65.919131 6.3678911,67.974553 C 5.4962272,70.029979 4.7541832,73.68473 2.1954301,75.96328 C 0.002115476,78.029593 0.54715847,79.829207 1.5161554,81.265136 C 2.3399672,82.485959 5.0237997,84.342312 6.5938094,82.970014 C 9.5404294,80.500762 12.049734,80.450362 14.520533,79.724838 C 15.463279,79.556142 16.394623,79.190377 17.284933,78.65018 C 17.145523,78.79007 17.030945,78.947913 16.882443,79.079888 C 17.076683,78.903881 17.274068,78.730329 17.468308,78.554329 C 17.547126,78.503454 17.630268,78.475819 17.708155,78.421324 C 22.609958,73.980049 27.798982,69.233038 32.955222,64.523966 C 40.75095,57.467552 60.552357,39.467705 60.34678,39.409924 C 61.563928,36.727315 58.4838,33.75215 56.967435,32.217509 C 55.4201,30.651514 52.196819,27.268755 49.408328,27.240855 z "
         id="path12161"
         sodipodi:nodetypes="ccccccccccccccccczc" />
      <path
         sodipodi:nodetypes="cccccccccc"
         id="path3604"
         d="M 6.7889046,65.841974 C 6.2971851,66.420844 6.4194128,66.116799 6.1892623,67.056574 C 4.8000036,69.721652 5.2890153,72.673256 2.0167687,75.052393 C -0.17651104,77.118705 0.36852954,78.918312 1.337494,80.354241 C 2.161347,81.575064 4.8451732,83.431424 6.4151813,82.059161 C 9.3617651,79.589888 11.871102,79.532376 14.341932,78.806858 C 15.432174,78.611763 16.519641,78.216844 17.529531,77.510443 C 17.640592,77.409815 17.764136,77.296807 17.875392,77.195972 C 17.630447,71.48495 14.935047,68.215441 7.9493191,65.175647 L 6.7889046,65.841974 z "
         style="opacity:0.82010582;fill:url(#radialGradient14570);fill-opacity:1;fill-rule:evenodd;stroke:none;stroke-width:0.125;stroke-linecap:butt;stroke-linejoin:miter;stroke-miterlimit:4;stroke-opacity:1" />
      <path
         style="opacity:0.82010582;fill:url(#radialGradient14572);fill-opacity:1;fill-rule:evenodd;stroke:none;stroke-width:0.125;stroke-linecap:butt;stroke-linejoin:miter;stroke-miterlimit:4;stroke-opacity:1"
         d="M 6.7889046,65.841974 C 6.2971851,66.420844 6.4194128,66.116799 6.1892623,67.056574 C 4.8000036,69.721652 5.2890153,72.673256 2.0167687,75.052393 C -0.17651104,77.118705 0.36852954,78.918312 1.337494,80.354241 C 2.161347,81.575064 4.8451732,83.431424 6.4151813,82.059161 C 9.3617651,79.589888 11.871102,79.532376 14.341932,78.806858 C 15.432174,78.611763 16.519641,78.216844 17.529531,77.510443 C 17.640592,77.409815 17.764136,77.296807 17.875392,77.195972 C 17.630447,71.48495 14.935047,68.215441 7.9493191,65.175647 L 6.7889046,65.841974 z "
         id="path3612"
         sodipodi:nodetypes="cccccccccc" />
      <path
         transform="matrix(0.758417,1.258775,0.432966,-1.629048,-51.97049,196.3673)"
         d="M 25.967214 94.499092 A 1.9234973 1.442623 0 1 1  22.120219,94.499092 A 1.9234973 1.442623 0 1 1  25.967214 94.499092 z"
         sodipodi:ry="1.442623"
         sodipodi:rx="1.9234973"
         sodipodi:cy="94.499092"
         sodipodi:cx="24.043716"
         id="path3150"
         style="opacity:0.03999999;fill:url(#radialGradient14574);fill-opacity:1;fill-rule:nonzero;stroke:none;stroke-width:0.30000001;stroke-linecap:round;stroke-linejoin:round;stroke-miterlimit:4;stroke-dasharray:none;stroke-dashoffset:4;stroke-opacity:0.56504062"
         sodipodi:type="arc" />
      <path
         id="path3215"
         d="M 76.842157,3.433828 C 76.70982,3.4389743 76.579186,3.4498608 76.44643,3.4614193 C 73.817465,6.2471472 72.004849,10.250026 71.230729,14.560132 C 74.447897,11.829033 76.903914,12.266716 79.909341,10.142525 C 81.618525,8.934496 83.03092,6.1449007 81.13232,4.7144823 C 79.833962,3.7362927 78.349119,3.3752235 76.842157,3.433828 z M 73.1122,4.3514873 C 72.446922,4.6390163 71.782254,4.9753903 71.164535,5.3553109 C 67.83583,7.8018405 67.560014,10.55421 62.796906,15.165183 L 67.42707,18.992171 C 67.988049,18.174709 68.505811,17.474564 69.020133,16.852608 C 70.077471,10.924005 71.56066,6.9672518 73.1122,4.3514873 z "
         style="opacity:0.454918;fill:url(#radialGradient14576);fill-opacity:1;fill-rule:evenodd;stroke:none;stroke-width:1px;stroke-linecap:butt;stroke-linejoin:miter;stroke-opacity:1" />
      <path
         sodipodi:nodetypes="ccccc"
         id="rect3459"
         d="M 47.975265,29.16854 C 49.392561,32.700459 52.8969,36.273163 55.613354,38.420262 L 21.322175,72.409887 L 13.094856,64.371294 L 47.975265,29.16854 z "
         style="opacity:0.23999999;fill:url(#radialGradient14578);fill-opacity:1;fill-rule:nonzero;stroke:none;stroke-width:6;stroke-linecap:round;stroke-linejoin:round;stroke-miterlimit:4;stroke-dashoffset:4;stroke-opacity:1" />
      <path
         sodipodi:nodetypes="ccccccc"
         id="rect4446"
         d="M 2.3065574,80.564351 L 4.1254997,79.155903 C 4.2189145,79.231344 4.2864843,79.318396 4.3153881,79.356145 L 2.4853543,80.797868 C 2.4709073,80.808929 2.4503713,80.806204 2.4393095,80.791757 L 2.3004467,80.610396 C 2.2893849,80.595949 2.2921103,80.575413 2.3065574,80.564351 z "
         style="opacity:0.48360656;fill:url(#linearGradient14580);fill-opacity:1;fill-rule:nonzero;stroke:none;stroke-width:6;stroke-linecap:round;stroke-linejoin:round;stroke-miterlimit:4;stroke-dashoffset:4;stroke-opacity:1" />
    </g>
  </g>
</svg>
