<?xml version="1.0" encoding="UTF-8" standalone="no"?>
<!-- Created with Inkscape (http://www.inkscape.org/) -->
<svg
   xmlns:i="http://ns.adobe.com/AdobeIllustrator/10.0/"
   xmlns:dc="http://purl.org/dc/elements/1.1/"
   xmlns:cc="http://web.resource.org/cc/"
   xmlns:rdf="http://www.w3.org/1999/02/22-rdf-syntax-ns#"
   xmlns:svg="http://www.w3.org/2000/svg"
   xmlns="http://www.w3.org/2000/svg"
   xmlns:xlink="http://www.w3.org/1999/xlink"
   xmlns:sodipodi="http://sodipodi.sourceforge.net/DTD/sodipodi-0.dtd"
   xmlns:inkscape="http://www.inkscape.org/namespaces/inkscape"
   width="88"
   height="88"
   id="svg1307"
   sodipodi:version="0.32"
   inkscape:version="0.45.1"
   version="1.0"
   sodipodi:docbase="/home/david/svn/oxygen/scalable/actions/small/22x22"
   sodipodi:docname="document-new.svg"
   inkscape:output_extension="org.inkscape.output.svg.inkscape"
   inkscape:export-filename="/home/david/svn/oxygen/22x22/actions/document-new.png"
   inkscape:export-xdpi="22.5"
   inkscape:export-ydpi="22.5">
  <defs
     id="defs1309">
    <linearGradient
       id="XMLID_2_"
       gradientUnits="userSpaceOnUse"
       x1="28"
       y1="57.5"
       x2="28"
       y2="0">
      <stop
         offset="0"
         style="stop-color:#FFEA00"
         id="stop12" />
      <stop
         offset="1"
         style="stop-color:#FFCC00"
         id="stop14" />
    </linearGradient>
    <linearGradient
       y2="0"
       x2="28"
       y1="57.5"
       x1="28"
       gradientUnits="userSpaceOnUse"
       id="linearGradient18668">
      <stop
         id="stop18670"
         style="stop-color:#fffccf;stop-opacity:1;"
         offset="0" />
      <stop
         id="stop18672"
         style="stop-color:white;stop-opacity:0;"
         offset="1" />
    </linearGradient>
    <linearGradient
       id="path101_1_"
       gradientUnits="userSpaceOnUse"
       x1="398.44479"
       y1="-369.5"
       x2="392.9447"
       y2="-363.99991"
       gradientTransform="matrix(1,0,0,-1,-281.9995,-305)">
      <stop
         offset="0"
         style="stop-color:#888A85"
         id="stop74" />
      <stop
         offset="0.0072"
         style="stop-color:#8C8E89"
         id="stop4208" />
      <stop
         offset="0.0673"
         style="stop-color:#ABACA9"
         id="stop4210" />
      <stop
         offset="0.1347"
         style="stop-color:#C5C6C4"
         id="stop80" />
      <stop
         offset="0.2115"
         style="stop-color:#DBDBDA"
         id="stop82" />
      <stop
         offset="0.3012"
         style="stop-color:#EBEBEB"
         id="stop84" />
      <stop
         offset="0.4122"
         style="stop-color:#F7F7F6"
         id="stop86" />
      <stop
         offset="0.5679"
         style="stop-color:#FDFDFD"
         id="stop88" />
      <stop
         offset="1"
         style="stop-color:#FFFFFF"
         id="stop90" />
    </linearGradient>
    <radialGradient
       id="path59_1_"
       cx="402.76709"
       cy="-375.27051"
       r="94.664803"
       gradientTransform="matrix(1,0,0,-1,-281.9995,-305)"
       gradientUnits="userSpaceOnUse">
      <stop
         offset="0"
         style="stop-color:#535557"
         id="stop38" />
      <stop
         offset="0.07095145"
         style="stop-color:#898A8C"
         id="stop40" />
      <stop
         offset="0.203"
         style="stop-color:#ECECEC"
         id="stop42" />
      <stop
         offset="0.2363"
         style="stop-color:#FAFAFA"
         id="stop44" />
      <stop
         offset="0.2722"
         style="stop-color:#FFFFFF"
         id="stop46" />
      <stop
         offset="0.5313"
         style="stop-color:#FAFAFA"
         id="stop48" />
      <stop
         offset="0.8449"
         style="stop-color:#EBECEC"
         id="stop50" />
      <stop
         offset="1"
         style="stop-color:#E1E2E3"
         id="stop52" />
    </radialGradient>
    <filter
       inkscape:collect="always"
       id="filter3505">
      <feGaussianBlur
         inkscape:collect="always"
         stdDeviation="0.74"
         id="feGaussianBlur3507" />
    </filter>
    <filter
       inkscape:collect="always"
       id="filter4926">
      <feGaussianBlur
         inkscape:collect="always"
         stdDeviation="0.45161413"
         id="feGaussianBlur4928" />
    </filter>
    <radialGradient
       inkscape:collect="always"
       xlink:href="#path59_1_"
       id="radialGradient4940"
       gradientUnits="userSpaceOnUse"
       gradientTransform="matrix(1.00086,0,0,-1,-485.7967,-300.5)"
       cx="402.76709"
       cy="-375.27051"
       r="94.664803" />
    <linearGradient
       inkscape:collect="always"
       xlink:href="#path101_1_"
       id="linearGradient4942"
       gradientUnits="userSpaceOnUse"
       gradientTransform="matrix(1.00086,0,0,-1,-485.7967,-300.5)"
       x1="398.44479"
       y1="-369.5"
       x2="393.59644"
       y2="-364.65219" />
    <radialGradient
       inkscape:collect="always"
       xlink:href="#linearGradient18668"
       id="radialGradient6006"
       gradientUnits="userSpaceOnUse"
       gradientTransform="matrix(0.8461542,0,0,1.0929016,-3.3846169,-16.567199)"
       cx="30.010139"
       cy="34.750149"
       fx="30.010139"
       fy="34.750149"
       r="20.78125" />
    <linearGradient
       inkscape:collect="always"
       xlink:href="#XMLID_2_"
       id="linearGradient6018"
       gradientUnits="userSpaceOnUse"
       x1="28"
       y1="57.5"
       x2="28"
       y2="0" />
    <filter
       inkscape:collect="always"
       id="filter6999">
      <feGaussianBlur
         inkscape:collect="always"
         stdDeviation="0.58545455"
         id="feGaussianBlur7001" />
    </filter>
  </defs>
  <sodipodi:namedview
     id="base"
     pagecolor="#ffffff"
     bordercolor="#666666"
     borderopacity="1.0"
     inkscape:pageopacity="0.0"
     inkscape:pageshadow="2"
     inkscape:zoom="4"
     inkscape:cx="17.1692"
     inkscape:cy="41.252339"
     inkscape:current-layer="layer1"
     showgrid="true"
     inkscape:document-units="px"
     inkscape:grid-bbox="true"
     showguides="true"
     inkscape:guide-bbox="true"
     inkscape:window-width="1024"
     inkscape:window-height="697"
     inkscape:window-x="0"
     inkscape:window-y="0"
     gridspacingx="4px"
     gridspacingy="4px"
     gridempspacing="0"
     height="88px"
     width="88px"
     inkscape:grid-points="true" />
  <metadata
     id="metadata1312">
    <rdf:RDF>
      <cc:Work
         rdf:about="">
        <dc:format>image/svg+xml</dc:format>
        <dc:type
           rdf:resource="http://purl.org/dc/dcmitype/StillImage" />
      </cc:Work>
    </rdf:RDF>
  </metadata>
  <g
     id="layer1"
     inkscape:label="Layer 1"
     inkscape:groupmode="layer">
    <g
       id="g4320"
       transform="translate(152,0)">
      <g
         id="g4930"
         transform="translate(0,4)">
        <path
           id="path2532"
           d="M -142,2 L -141.99999,82 L -99.466796,82 C -99.078654,82 -98.711858,81.842894 -98.437499,81.572368 L -74.431641,57.822368 C -74.157281,57.55079 -74,57.186842 -74,56.802632 L -74,2 L -142,2 z "
           style="opacity:0.5;fill:#000000;fill-opacity:1;filter:url(#filter3505)"
           sodipodi:nodetypes="cccccccc" />
        <path
           sodipodi:nodetypes="cccccccc"
           style="fill:url(#radialGradient4940)"
           d="M -140.00001,4 L -140,80 L -99.968761,80 C -99.603447,80 -99.258234,79.85075 -99.000011,79.59375 L -76.406261,57.03125 C -76.14804,56.77325 -76.000011,56.4275 -76.000011,56.0625 L -76.000011,4 L -140.00001,4 z "
           id="path59" />
        <path
           transform="matrix(1.0561473,0,0,1.0633114,5.1530869,-5.7007749)"
           id="path4924"
           d="M -99.99277,80.598 C -99.99277,80.598 -91.794726,73.782 -88.009472,70 C -84.224219,66.218 -77.402357,58.027 -77.402357,58.027 C -77.402357,58.027 -85,61 -97,61 C -97,73 -99.99277,80.598 -99.99277,80.598 z "
           style="opacity:0.5;fill:#000000;fill-opacity:1;filter:url(#filter4926)"
           sodipodi:nodetypes="csccc" />
        <path
           sodipodi:nodetypes="csccc"
           style="fill:url(#linearGradient4942)"
           d="M -98.99277,79.598 C -98.99277,79.598 -90.794726,72.782 -87.009472,69 C -83.224219,65.218 -76.402357,57.027 -76.402357,57.027 C -76.402357,57.027 -84,60 -96,60 C -96,72 -98.99277,79.598 -98.99277,79.598 z "
           id="path101" />
      </g>
    </g>
    <rect
       style="opacity:0.57786889;fill:#ffffff;fill-opacity:1;fill-rule:nonzero;stroke:none;stroke-width:3.63199997;stroke-linecap:round;stroke-linejoin:round;stroke-miterlimit:4;stroke-dasharray:none;stroke-dashoffset:4;stroke-opacity:1"
       id="rect1327"
       width="1"
       height="0"
       x="116"
       y="77" />
    <path
       sodipodi:nodetypes="ccc"
       id="path2276"
       d="M -42.937421,3.7839329 L -42.937421,0.98922447 L -42.937421,3.7839329 z "
       style="fill:#ffffff;fill-opacity:0.75688076;fill-rule:nonzero;stroke:none;stroke-width:0.5;stroke-linecap:round;stroke-linejoin:round;stroke-miterlimit:4;stroke-dasharray:none;stroke-dashoffset:4;stroke-opacity:1" />
    <g
       style="opacity:0.40163933"
       transform="matrix(-0.782995,0,0,0.650879,-2365.796,690.3016)"
       id="g4640" />
    <g
       id="g4646"
       transform="matrix(-0.782995,0,0,0.650879,-2365.796,690.3016)"
       style="opacity:0.40163933" />
    <g
       id="g4730"
       transform="matrix(1,0,0,0.650879,835.167,697.6294)"
       style="opacity:0.40163933" />
    <g
       style="opacity:0.40163933"
       transform="matrix(1,0,0,0.650879,835.167,697.6294)"
       id="g4748" />
    <path
       sodipodi:nodetypes="ccc"
       id="path2408"
       d="M 61.23105,2.6244365 L 61.23105,0.41896716 L 61.23105,2.6244365 z "
       style="fill:#ffffff;fill-opacity:0.75688076;fill-rule:nonzero;stroke:none;stroke-width:0.5;stroke-linecap:round;stroke-linejoin:round;stroke-miterlimit:4;stroke-dasharray:none;stroke-dashoffset:4;stroke-opacity:1" />
    <g
       transform="matrix(0.7857143,0,0,0.7857143,1,0.9999784)"
       id="g6020"
       i:extraneous="self"
       style="fill:#cf4913;fill-opacity:1;stroke:#cf4710;stroke-width:2.5454545;stroke-linejoin:round;stroke-miterlimit:4;stroke-dasharray:none;stroke-opacity:0.4745098;filter:url(#filter6999)">
      <linearGradient
         y2="0"
         x2="28"
         y1="57.5"
         x1="28"
         gradientUnits="userSpaceOnUse"
         id="linearGradient6022">
        <stop
           id="stop6024"
           style="stop-color:#FFEA00"
           offset="0" />
        <stop
           id="stop6026"
           style="stop-color:#FFCC00"
           offset="1" />
      </linearGradient>
      <polygon
         style="fill:#cf4913;fill-opacity:1;stroke:#cf4710;stroke-width:2.5454545;stroke-linejoin:round;stroke-miterlimit:4;stroke-dasharray:none;stroke-opacity:0.4745098"
         id="polygon6028"
         points="28,0 31.601,14.562 42,3.751 37.837,18.163 52.249,14 41.438,24.399 56,28 41.438,31.601 52.249,42 37.837,37.837 42,52.249 31.601,41.438 28,56 24.399,41.438 14,52.249 18.163,37.837 3.751,42 14.562,31.601 0,28 14.562,24.399 3.751,14 18.163,18.163 14,3.751 24.399,14.562 28,0 " />
    </g>
    <g
       i:extraneous="self"
       id="g9"
       transform="matrix(0.7857143,0,0,0.7857143,0,-2.16e-5)">
      <linearGradient
         id="linearGradient2309"
         gradientUnits="userSpaceOnUse"
         x1="28"
         y1="57.5"
         x2="28"
         y2="0">
        <stop
           offset="0"
           style="stop-color:#FFEA00"
           id="stop2311" />
        <stop
           offset="1"
           style="stop-color:#FFCC00"
           id="stop2313" />
      </linearGradient>
      <polygon
         points="28,0 31.601,14.562 42,3.751 37.837,18.163 52.249,14 41.438,24.399 56,28 41.438,31.601 52.249,42 37.837,37.837 42,52.249 31.601,41.438 28,56 24.399,41.438 14,52.249 18.163,37.837 3.751,42 14.562,31.601 0,28 14.562,24.399 3.751,14 18.163,18.163 14,3.751 24.399,14.562 28,0 "
         id="polygon16"
         style="fill:url(#linearGradient6018)" />
    </g>
    <path
       style="fill:url(#radialGradient6006);fill-opacity:1"
       d="M 22.00859,1.691041 L 19.3908,12.241527 L 11.854739,4.4146 L 14.869164,14.859316 L 4.4244474,11.844892 L 12.251374,19.380953 L 6.1960829,20.888165 C 10.401027,23.057111 15.941615,24.378551 22.00859,24.378551 C 28.075565,24.378551 33.589711,23.057111 37.794655,20.888165 L 31.739364,19.380953 L 39.592733,11.844892 L 29.121574,14.859316 L 32.162441,4.4146 L 24.599938,12.241527 L 22.00859,1.691041 z "
       id="polygon18655" />
  </g>
</svg>
