<?xml version="1.0" encoding="UTF-8" standalone="no"?>
<!-- Created with Inkscape (http://www.inkscape.org/) -->
<svg
   xmlns:dc="http://purl.org/dc/elements/1.1/"
   xmlns:cc="http://web.resource.org/cc/"
   xmlns:rdf="http://www.w3.org/1999/02/22-rdf-syntax-ns#"
   xmlns:svg="http://www.w3.org/2000/svg"
   xmlns="http://www.w3.org/2000/svg"
   xmlns:xlink="http://www.w3.org/1999/xlink"
   xmlns:sodipodi="http://sodipodi.sourceforge.net/DTD/sodipodi-0.dtd"
   xmlns:inkscape="http://www.inkscape.org/namespaces/inkscape"
   version="1.0"
   width="88"
   height="88"
   id="svg8301"
   sodipodi:version="0.32"
   inkscape:version="0.44"
   sodipodi:docname="mail_send.svg"
   sodipodi:docbase="/home/david/Progetti/oxygen-svn/Oxygen/theme/svg/actions/small/22x22">
  <metadata
     id="metadata76">
    <rdf:RDF>
      <cc:Work
         rdf:about="">
        <dc:format>image/svg+xml</dc:format>
        <dc:type
           rdf:resource="http://purl.org/dc/dcmitype/StillImage" />
      </cc:Work>
    </rdf:RDF>
  </metadata>
  <sodipodi:namedview
     inkscape:window-height="579"
     inkscape:window-width="849"
     inkscape:pageshadow="2"
     inkscape:pageopacity="0.0"
     guidetolerance="10.0"
     gridtolerance="10.0"
     objecttolerance="10.0"
     borderopacity="1.0"
     bordercolor="#666666"
     pagecolor="#ffffff"
     id="base"
     inkscape:zoom="4.2954545"
     inkscape:cx="44"
     inkscape:cy="39.977143"
     inkscape:window-x="0"
     inkscape:window-y="0"
     inkscape:current-layer="svg8301"
     showgrid="true"
     gridspacingx="4px"
     gridspacingy="4px"
     gridempspacing="0"
     inkscape:grid-points="true" />
  <defs
     id="defs8303">
    <linearGradient
       id="XMLID_2_"
       gradientUnits="userSpaceOnUse"
       x1="3.9985001"
       y1="60"
       x2="47.998501"
       y2="60">
      <stop
         offset="0"
         style="stop-color:#6193CF"
         id="stop197" />
      <stop
         offset="0.16"
         style="stop-color:#98B9E0"
         id="stop203" />
      <stop
         offset="1"
         style="stop-color:white;stop-opacity:1;"
         id="stop207" />
    </linearGradient>
    <linearGradient
       id="polygon3293_12_"
       gradientUnits="userSpaceOnUse"
       x1="645.99847"
       y1="-532.10211"
       x2="645.99847"
       y2="-543.35211"
       gradientTransform="matrix(0,-4,-4,0,-2060.408,2643.994)">
      <stop
         offset="0"
         style="stop-color:#6193CF"
         id="stop182" />
      <stop
         offset="1"
         style="stop-color:#EEEEEE"
         id="stop184" />
    </linearGradient>
    <linearGradient
       x1="1080.5"
       y1="-613.01813"
       x2="1080.5"
       y2="-606.44482"
       id="linearGradient2081"
       gradientUnits="userSpaceOnUse"
       gradientTransform="matrix(4,0,0,-4,-4142,-2294.406)">
      <stop
         style="stop-color:#a4c0e4;stop-opacity:1"
         offset="0"
         id="stop2083" />
      <stop
         style="stop-color:#d1dff1;stop-opacity:1"
         offset="0"
         id="stop2087" />
      <stop
         style="stop-color:white;stop-opacity:1"
         offset="1"
         id="stop2085" />
    </linearGradient>
    <linearGradient
       inkscape:collect="always"
       xlink:href="#linearGradient2081"
       id="linearGradient2155"
       gradientUnits="userSpaceOnUse"
       x1="231.98985"
       y1="1"
       x2="231.98985"
       y2="51.062332"
       gradientTransform="translate(-260.2646,21.72487)" />
    <linearGradient
       x1="803"
       y1="43.9995"
       x2="765"
       y2="43.9995"
       id="XMLID_10_"
       gradientUnits="userSpaceOnUse">
      <stop
         style="stop-color:#a4c0e4;stop-opacity:1"
         offset="0"
         id="stop6538" />
      <stop
         style="stop-color:white;stop-opacity:1"
         offset="1"
         id="stop6540" />
    </linearGradient>
    <linearGradient
       x1="765.54303"
       y1="44.0005"
       x2="733.71002"
       y2="44.0005"
       id="XMLID_9_"
       gradientUnits="userSpaceOnUse">
      <stop
         style="stop-color:#a4c0e4;stop-opacity:1"
         offset="0"
         id="stop6525" />
      <stop
         style="stop-color:white;stop-opacity:1"
         offset="0.69999999"
         id="stop6527" />
    </linearGradient>
    <linearGradient
       x1="612.00049"
       y1="214"
       x2="612.00049"
       y2="210"
       id="polygon3303_19_"
       gradientUnits="userSpaceOnUse"
       gradientTransform="matrix(0,-1,1,0,600,686)">
      <stop
         style="stop-color:#0057ae;stop-opacity:1"
         offset="0"
         id="stop6519" />
      <stop
         style="stop-color:#06f;stop-opacity:1"
         offset="1"
         id="stop6521" />
    </linearGradient>
    <linearGradient
       x1="626"
       y1="212"
       x2="638"
       y2="212"
       id="polygon3301_63_"
       gradientUnits="userSpaceOnUse"
       gradientTransform="matrix(0,-1,1,0,600,686)">
      <stop
         style="stop-color:#bf0000;stop-opacity:1"
         offset="0"
         id="stop6513" />
      <stop
         style="stop-color:red;stop-opacity:1"
         offset="1"
         id="stop6515" />
    </linearGradient>
    <linearGradient
       x1="652"
       y1="214"
       x2="652"
       y2="210"
       id="polygon3299_21_"
       gradientUnits="userSpaceOnUse"
       gradientTransform="matrix(0,-1,1,0,600,686)">
      <stop
         style="stop-color:#0057ae;stop-opacity:1"
         offset="0"
         id="stop6507" />
      <stop
         style="stop-color:#06f;stop-opacity:1"
         offset="1"
         id="stop6509" />
    </linearGradient>
    <linearGradient
       x1="666"
       y1="212"
       x2="678"
       y2="212"
       id="polygon3297_28_"
       gradientUnits="userSpaceOnUse"
       gradientTransform="matrix(0,-1,1,0,600,686)">
      <stop
         style="stop-color:#bf0000;stop-opacity:1"
         offset="0"
         id="stop6501" />
      <stop
         style="stop-color:red;stop-opacity:1"
         offset="1"
         id="stop6503" />
    </linearGradient>
    <linearGradient
       x1="791.83301"
       y1="44.0005"
       x2="765.54303"
       y2="44.0005"
       id="polygon3295_12_"
       gradientUnits="userSpaceOnUse">
      <stop
         style="stop-color:#2c72c7;stop-opacity:1"
         offset="0"
         id="stop6491" />
      <stop
         style="stop-color:#6193cf;stop-opacity:1"
         offset="0.15000001"
         id="stop6493" />
      <stop
         style="stop-color:#a4c0e4;stop-opacity:1"
         offset="1"
         id="stop6495" />
    </linearGradient>
    <linearGradient
       x1="1196"
       y1="-618.5293"
       x2="1196"
       y2="-626.51862"
       id="polygon3293_18_"
       gradientUnits="userSpaceOnUse"
       gradientTransform="matrix(0,-4,-4,0,-1694.406,4828)">
      <stop
         style="stop-color:#888;stop-opacity:1"
         offset="0"
         id="stop6475" />
      <stop
         style="stop-color:#8b8b8b;stop-opacity:1"
         offset="0.2375"
         id="stop6477" />
      <stop
         style="stop-color:#959595;stop-opacity:1"
         offset="0.42809999"
         id="stop6479" />
      <stop
         style="stop-color:#a6a6a6;stop-opacity:1"
         offset="0.60259998"
         id="stop6481" />
      <stop
         style="stop-color:#bebebe;stop-opacity:1"
         offset="0.76740003"
         id="stop6483" />
      <stop
         style="stop-color:#dcdcdc;stop-opacity:1"
         offset="0.92390001"
         id="stop6485" />
      <stop
         style="stop-color:#eee;stop-opacity:1"
         offset="1"
         id="stop6487" />
    </linearGradient>
    <linearGradient
       x1="682.00098"
       y1="196.99899"
       x2="678.00098"
       y2="196.99899"
       id="polygon3301_62_"
       gradientUnits="userSpaceOnUse"
       gradientTransform="matrix(0,-1,1,0,600,686)">
      <stop
         style="stop-color:#0057ae;stop-opacity:1"
         offset="0"
         id="stop6469" />
      <stop
         style="stop-color:#06f;stop-opacity:1"
         offset="1"
         id="stop6471" />
    </linearGradient>
    <linearGradient
       x1="682.00098"
       y1="180.99899"
       x2="678.00098"
       y2="180.99899"
       id="polygon3301_61_"
       gradientUnits="userSpaceOnUse"
       gradientTransform="matrix(0,-1,1,0,600,686)">
      <stop
         style="stop-color:#bf0000;stop-opacity:1"
         offset="0"
         id="stop6463" />
      <stop
         style="stop-color:red;stop-opacity:1"
         offset="1"
         id="stop6465" />
    </linearGradient>
    <linearGradient
       x1="602"
       y1="197"
       x2="606"
       y2="197"
       id="polygon3301_60_"
       gradientUnits="userSpaceOnUse"
       gradientTransform="matrix(0,-1,1,0,600,686)">
      <stop
         style="stop-color:#bf0000;stop-opacity:1"
         offset="0"
         id="stop6455" />
      <stop
         style="stop-color:red;stop-opacity:1"
         offset="1"
         id="stop6457" />
    </linearGradient>
    <linearGradient
       x1="602"
       y1="181"
       x2="606"
       y2="181"
       id="polygon3301_59_"
       gradientUnits="userSpaceOnUse"
       gradientTransform="matrix(0,-1,1,0,600,686)">
      <stop
         style="stop-color:#0057ae;stop-opacity:1"
         offset="0"
         id="stop6449" />
      <stop
         style="stop-color:#06f;stop-opacity:1"
         offset="1"
         id="stop6451" />
    </linearGradient>
    <linearGradient
       x1="733.71002"
       y1="44"
       x2="814"
       y2="44"
       id="XMLID_1_"
       gradientUnits="userSpaceOnUse">
      <stop
         style="stop-color:#6193cf;stop-opacity:1"
         offset="0"
         id="stop5473" />
      <stop
         style="stop-color:white;stop-opacity:1"
         offset="0.5"
         id="stop5475" />
    </linearGradient>
    <linearGradient
       id="linearGradient3291">
      <stop
         style="stop-color:black;stop-opacity:1"
         offset="0"
         id="stop3293" />
      <stop
         style="stop-color:black;stop-opacity:0"
         offset="1"
         id="stop3295" />
    </linearGradient>
    <radialGradient
       cx="63.912209"
       cy="115.70919"
       r="63.912209"
       fx="63.912209"
       fy="115.7093"
       id="radialGradient4418"
       xlink:href="#linearGradient3291"
       gradientUnits="userSpaceOnUse"
       gradientTransform="matrix(0.688444,0,0,5.67397e-2,1.5e-5,77.80829)" />
    <linearGradient
       x1="1229.8545"
       y1="-280.94821"
       x2="1231.6117"
       y2="-393.9523"
       id="path4399_1_"
       gradientUnits="userSpaceOnUse"
       gradientTransform="matrix(0.9579,0,0,-0.9579,-1135.012,-285.1991)">
      <stop
         style="stop-color:#740000;stop-opacity:1"
         offset="0"
         id="stop6608" />
      <stop
         style="stop-color:#de0000;stop-opacity:1"
         offset="1"
         id="stop6610" />
    </linearGradient>
    <radialGradient
       inkscape:collect="always"
       xlink:href="#linearGradient3291"
       id="radialGradient2106"
       gradientUnits="userSpaceOnUse"
       gradientTransform="matrix(0.688444,0,0,5.67397e-2,1.5e-5,77.80829)"
       cx="63.912209"
       cy="115.70919"
       fx="63.912209"
       fy="115.7093"
       r="63.912209" />
    <linearGradient
       inkscape:collect="always"
       xlink:href="#XMLID_1_"
       id="linearGradient2108"
       gradientUnits="userSpaceOnUse"
       x1="733.71002"
       y1="44"
       x2="814"
       y2="44" />
    <linearGradient
       inkscape:collect="always"
       xlink:href="#polygon3295_12_"
       id="linearGradient2110"
       gradientUnits="userSpaceOnUse"
       gradientTransform="matrix(0,-4,-4,0,-1694.406,4828)"
       x1="1196"
       y1="-618.5293"
       x2="1196"
       y2="-626.51862" />
    <linearGradient
       inkscape:collect="always"
       xlink:href="#polygon3295_12_"
       id="linearGradient2112"
       gradientUnits="userSpaceOnUse"
       x1="791.83301"
       y1="44.0005"
       x2="765.54303"
       y2="44.0005" />
    <linearGradient
       inkscape:collect="always"
       xlink:href="#XMLID_9_"
       id="linearGradient2114"
       gradientUnits="userSpaceOnUse"
       x1="765.54303"
       y1="44.0005"
       x2="733.71002"
       y2="44.0005" />
    <linearGradient
       inkscape:collect="always"
       xlink:href="#XMLID_10_"
       id="linearGradient2116"
       gradientUnits="userSpaceOnUse"
       x1="803"
       y1="43.9995"
       x2="765"
       y2="43.9995" />
    <linearGradient
       inkscape:collect="always"
       xlink:href="#XMLID_9_"
       id="linearGradient2126"
       gradientUnits="userSpaceOnUse"
       x1="765.54303"
       y1="44.0005"
       x2="733.71002"
       y2="44.0005"
       gradientTransform="matrix(0.996761,0,0,1,-727.3505,0)" />
    <linearGradient
       inkscape:collect="always"
       xlink:href="#XMLID_2_"
       id="linearGradient2136"
       gradientUnits="userSpaceOnUse"
       x1="733.71002"
       y1="44"
       x2="791.3446"
       y2="44" />
  </defs>
  <path
     id="path4416"
     style="opacity:0.38139535;fill:url(#radialGradient2106);fill-opacity:1;fill-rule:nonzero;stroke:none;stroke-width:0;stroke-linecap:round;stroke-linejoin:round;stroke-miterlimit:4;stroke-dasharray:none;stroke-dashoffset:4;stroke-opacity:1"
     d="M 87.999975,84.37363 C 87.999975,86.37642 68.300515,88 44.000005,88 C 19.699485,88 2.5e-05,86.37642 2.5e-05,84.37363 C 2.5e-05,82.37085 19.699485,80.74727 44.000005,80.74727 C 68.300515,80.74727 87.999975,82.37085 87.999975,84.37363 L 87.999975,84.37363 z " />
  <path
     d="M 31.35108,0 C 30.037349,0 28.808343,0.649 28.064759,1.736 C 28.064759,1.736 0.69669229,41.734 0.69669229,41.734 C -0.23228896,43.088 -0.23228896,44.908 0.69669229,46.263 L 28.064759,86.264 C 28.805352,87.351 30.034359,88 31.35108,88 L 84.012954,88 C 86.211809,88 87.999998,86.206 87.999998,84 L 87.999998,4 C 87.999998,1.794 86.211809,0 84.012954,0 L 31.35108,0 z "
     style="opacity:0.1"
     id="path5464" />
  <path
     d="M 31.35108,1 C 30.365283,1 29.444276,1.487 28.88609,2.302 C 28.885093,2.303 1.5180234,42.3 1.5180234,42.3 C 0.82228418,43.315 0.82128742,44.68 1.5180234,45.697 L 28.88609,85.698 C 29.442283,86.513 30.36329,87.001 31.35108,87.001 L 84.012954,87.001 C 85.661597,87.001 87.003237,85.655 87.003237,84.001 L 87.003237,4 C 87.003237,2.346 85.661597,1 84.012954,1 L 31.35108,1 z "
     style="opacity:0.15"
     id="path5466" />
  <path
     d="M 31.35108,2 C 30.694215,2 30.08021,2.324 29.708418,2.868 L 2.3403512,42.866 C 1.8758606,43.543 1.8758606,44.453 2.3403512,45.131 L 29.708418,85.132 C 30.079213,85.676 30.693218,86.001 31.35108,86.001 L 84.012954,86.001 C 85.112381,86.001 86.006476,85.104 86.006476,84.001 L 86.006476,4 C 86.006476,2.897 85.112381,2 84.012954,2 L 31.35108,2 z "
     style="opacity:0.2"
     id="path5468" />
  <path
     d="M 31.35108,3 C 31.023146,3 30.715147,3.163 30.529749,3.434 L 3.1616822,43.431 C 2.9284402,43.772 2.9284402,44.222 3.1616822,44.563 L 30.529749,84.565 C 30.716143,84.837 31.023146,85 31.35108,85 L 84.012954,85 C 84.564163,85 85.009715,84.553 85.009715,84 L 85.009715,4 C 85.009715,3.448 84.564163,3 84.012954,3 L 31.35108,3 z "
     style="opacity:0.25"
     id="path5470" />
  <path
     transform="matrix(0.996761,0,0,1,-727.3505,0)"
     style="fill:url(#linearGradient2136)"
     d="M 761.167,4 L 733.71,43.997 L 761.167,84 L 814,84 L 814,4 L 761.167,4 z "
     id="polygon5477" />
  <polygon
     points="811.666,4 808.834,4 779.709,44.002 808.834,84 811.666,84 782.543,44.002 811.666,4 "
     style="fill:url(#linearGradient2110)"
     id="polygon3293_3_"
     transform="matrix(0.996761,0,0,1,-727.3505,0)" />
  <polygon
     points="765.543,84 768.376,84 791.833,43.997 768.376,4 765.543,4 765.543,84 "
     style="fill:url(#linearGradient2112)"
     id="polygon3295_10_"
     transform="matrix(0.996761,0,0,1,-727.3505,0)" />
  <polygon
     points="768.376,4 789.833,43.997 768.376,84 791.833,43.997 768.376,4 "
     style="opacity:0.25;fill:#0057ae"
     id="polygon6498"
     transform="matrix(0.996761,0,0,1,-727.3505,0)" />
  <path
     d="M 35.712906,80 L 33.450259,80 C 31.403908,77.01 14.630452,47.845 12,44 C 14.630452,40.156 31.404905,10.989 33.449262,8 L 35.712906,8 L 35.712906,4 L 31.35108,4 L 3.9830133,43.997 L 31.35108,84 L 35.712906,84 L 35.712906,80 L 35.712906,80 z "
     style="fill:url(#linearGradient2126)"
     id="path6529"
     sodipodi:nodetypes="cccccccccccc" />
  <path
     transform="matrix(0.996761,0,0,1,-725.3505,0)"
     style="fill:none;stroke:black;stroke-opacity:1;stroke-width:4.00649378;stroke-miterlimit:4;stroke-dasharray:none;stroke-linejoin:round;opacity:0.2"
     d="M 752,80 L 767.83753,80 L 767.83753,8 L 752,8 L 752,80 z "
     id="path8315"
     sodipodi:nodetypes="ccccc" />
  <path
     sodipodi:nodetypes="ccccc"
     id="path7428"
     d="M 752,80 L 767.83753,80 L 767.83753,8 L 752,8 L 752,80 z "
     style="fill:none;stroke:black;stroke-opacity:1;stroke-width:2.00324689;stroke-miterlimit:4;stroke-dasharray:none;stroke-linejoin:round;opacity:0.25"
     transform="matrix(0.996761,0,0,1,-725.3505,0)" />
  <path
     transform="matrix(0.996761,0,0,1,-725.3505,0)"
     style="fill:url(#linearGradient2116)"
     d="M 752,80 L 767.83753,80 L 791.91551,44 L 767.83753,8 L 752,8 L 752,80 z "
     id="polygon6542"
     sodipodi:nodetypes="cccccc" />
  <path
     d="M 61.917753,43.997 L 38.53673,4 L 36.543208,4 C 36.543208,4 36.543208,4 36.543208,4 L 36.781434,4.947 C 36.781434,4.947 55.285305,39.554 57.661583,43.997 C 57.168187,44.92 36.780437,83.055 36.780437,83.055 C 36.780437,83.057 36.543208,83.999 36.543208,83.999 L 36.543208,84 L 38.53673,84 L 61.917753,43.997 z "
     style="opacity:0.15;fill:#00224d"
     id="path6546" />
  <path
     d="M 61.917753,43.997 L 38.53673,4 L 37.539969,4 C 37.539969,4 37.539969,4 37.539969,4 C 37.539969,4.16 37.577846,4.322 37.658584,4.472 C 37.658584,4.472 58.29951,43.073 58.792907,43.996 C 58.29951,44.919 37.658584,83.526 37.658584,83.526 C 37.577846,83.676 37.539969,83.838 37.539969,83.998 L 37.539969,84 L 38.53673,84 L 61.917753,43.997 z "
     style="opacity:0.2;fill:#00224d"
     id="path6548" />
  <path
     d="M 61.917753,43.997 L 38.53673,4 L 35.712906,4 L 35.712906,4.787 L 35.815573,5.193 C 35.836505,5.272 35.865411,5.349 35.904284,5.421 C 35.904284,5.421 56.03786,43.075 56.531256,43.998 C 56.03786,44.921 35.903288,82.583 35.903288,82.583 C 35.864414,82.655 35.832518,82.741 35.812582,82.82 L 35.712906,83.214 L 35.712906,84 L 38.53673,84 L 61.917753,43.997 z "
     style="opacity:0.1;fill:#00224d"
     id="path6544" />
  <g
     id="g8317">
    <path
       id="path9570"
       d="M 31.265469,16.175269 C 31.203872,16.36006 31.130777,16.494752 31.046183,16.579346 C 30.96159,16.663939 30.748874,16.736213 30.407216,16.800274 C 30.065557,16.862693 29.70583,16.893902 29.32557,16.893902 C 28.727667,16.893902 28.429537,16.690221 28.429537,16.282037 C 28.429537,16.167056 28.461568,15.951876 28.524808,15.633214 L 29.074254,12.876948 C 29.106284,12.717617 29.12271,12.603457 29.12271,12.534468 C 29.12271,12.470407 29.099714,12.412095 29.0529,12.357068 C 29.304216,12.263441 29.478331,12.216627 29.576065,12.216627 C 29.69351,12.216627 29.751822,12.283152 29.751822,12.416201 C 29.751822,12.449874 29.720613,12.614133 29.659016,12.910621 L 29.166239,15.374506 C 29.094786,15.728484 29.058649,15.974873 29.058649,16.11285 C 29.058649,16.346919 29.317357,16.464364 29.836416,16.464364 C 30.298805,16.464364 30.775156,16.368273 31.265469,16.175269 z "
       style="opacity:0.5;fill:black;fill-opacity:1" />
    <path
       id="path9577"
       d="M 34.791288,14.725683 C 34.796216,14.770854 34.799501,14.811098 34.799501,14.845592 C 34.799501,15.386004 34.615531,15.856606 34.249234,16.259041 C 33.882936,16.661475 33.453399,16.861871 32.961443,16.861871 C 32.586111,16.861871 32.279768,16.741962 32.042414,16.502144 C 31.806702,16.262326 31.687615,15.950234 31.687615,15.56751 C 31.687615,15.131403 31.841197,14.754428 32.14754,14.434945 C 32.453061,14.114639 32.814431,13.955308 33.230007,13.955308 C 33.293246,13.955308 33.361414,13.963521 33.432045,13.979947 C 33.385231,13.895354 33.362235,13.823901 33.362235,13.765589 C 33.362235,13.675247 33.392623,13.588189 33.45422,13.50606 C 33.91086,13.543839 34.289477,13.777909 34.592535,14.208267 C 34.903806,14.420161 35.227396,14.526108 35.564948,14.526108 C 35.785055,14.526108 36.021588,14.452192 36.27619,14.303537 L 36.416631,14.542534 C 36.118501,14.7495 35.812979,14.852984 35.500066,14.852984 C 35.292278,14.853805 35.055745,14.810276 34.791288,14.725683 z M 34.155606,14.487507 C 34.001203,14.439872 33.857476,14.365956 33.72689,14.262473 C 33.632441,14.243583 33.552775,14.232906 33.489536,14.232085 C 33.172516,14.232906 32.890812,14.375811 32.646887,14.660801 C 32.402962,14.94579 32.279768,15.271844 32.278947,15.63732 C 32.279768,15.902599 32.354506,16.121063 32.501518,16.291071 C 32.64853,16.461079 32.839891,16.547315 33.073139,16.547315 C 33.388516,16.546494 33.659544,16.387163 33.887043,16.069322 C 34.11372,15.75148 34.22788,15.372042 34.228701,14.931828 C 34.22788,14.779067 34.204062,14.630413 34.155606,14.487507 z "
       style="opacity:0.5;fill:black;fill-opacity:1" />
    <path
       id="path9584"
       d="M 36.322182,16.77235 C 36.194882,16.831483 36.09222,16.861871 36.015839,16.861871 C 35.824477,16.861871 35.728386,16.777278 35.728386,16.608912 C 35.728386,16.522676 35.762059,16.308318 35.829405,15.965017 L 35.970668,15.265274 C 36.056904,14.849698 36.100433,14.541713 36.100433,14.341317 C 36.100433,14.232085 36.069223,14.141742 36.007626,14.068647 C 36.20638,14.001301 36.367353,13.967628 36.49219,13.967628 C 36.62524,13.967628 36.690944,14.0514 36.690944,14.218123 C 36.690944,14.320784 36.642487,14.591812 36.548038,15.029562 L 36.384601,15.846751 C 36.738579,15.159327 37.0942,14.625485 37.453105,14.244404 C 37.812011,13.863323 38.137244,13.672783 38.428804,13.672783 C 38.532287,13.672783 38.620166,13.702349 38.695725,13.760661 C 38.770463,13.819795 38.808242,13.891247 38.808242,13.975841 C 38.808242,14.106427 38.666158,14.280541 38.38199,14.498184 C 38.310537,14.34953 38.209518,14.275613 38.078932,14.275613 C 37.840757,14.275613 37.536878,14.529393 37.168116,15.03449 C 36.939796,15.349046 36.740221,15.674279 36.571856,16.008546 C 36.402669,16.343634 36.318076,16.58181 36.318076,16.723894 L 36.322182,16.77235 z "
       style="opacity:0.5;fill:black;fill-opacity:1" />
    <path
       id="path9591"
       d="M 39.319909,15.621716 C 39.319909,16.170341 39.551514,16.444653 40.016367,16.444653 C 40.41798,16.444653 40.860658,16.253292 41.345222,15.868926 C 41.829787,15.485381 42.266715,14.980284 42.656009,14.352815 L 42.894185,14.484222 C 42.527887,15.170825 42.050715,15.737518 41.46431,16.187588 C 40.877906,16.636836 40.321889,16.86105 39.79626,16.86105 C 39.459529,16.86105 39.19343,16.751818 38.997961,16.535817 C 38.802493,16.318174 38.704759,16.020865 38.704759,15.644712 C 38.704759,15.101836 38.882159,14.636983 39.236137,14.251796 C 39.591758,13.864966 40.01801,13.672783 40.519,13.672783 C 40.76046,13.672783 40.953465,13.733559 41.098834,13.855932 C 41.244203,13.978304 41.316477,14.1401 41.316477,14.344602 C 41.316477,14.67969 41.11526,14.976999 40.712004,15.234886 C 40.307106,15.493594 39.843895,15.621716 39.319909,15.621716 z M 39.342084,15.352331 C 39.733842,15.33262 40.069751,15.220103 40.349813,15.0156 C 40.629875,14.811919 40.770316,14.576207 40.770316,14.308465 C 40.770316,14.069468 40.663548,13.948738 40.44919,13.948738 C 40.194588,13.948738 39.959698,14.085073 39.744518,14.358564 C 39.529339,14.632055 39.394647,14.963858 39.342084,15.352331 z "
       style="opacity:0.5;fill:black;fill-opacity:1" />
    <path
       id="path9598"
       d="M 42.9375 13.9375 C 42.847158 13.9375 42.685572 13.983656 42.46875 14.0625 C 42.559094 14.166804 42.624999 14.339108 42.625 14.5625 C 42.624999 14.740721 42.583854 14.915571 42.5625 15.125 L 42.53125 15.75 C 42.475404 16.268238 42.4375 16.505791 42.4375 16.53125 C 42.437502 16.741501 42.524104 16.874999 42.71875 16.875 C 42.804986 16.875001 42.896518 16.827242 43 16.78125 C 42.970436 16.74347 42.968752 16.726923 42.96875 16.6875 C 42.968751 16.549522 43.170743 16.124062 43.5625 15.40625 C 43.843501 14.888834 44.065137 14.559052 44.25 14.40625 L 44.09375 14.125 C 43.765479 14.47569 43.406712 15.023709 43.03125 15.8125 L 43.125 15 C 43.169349 14.555679 43.187499 14.287738 43.1875 14.21875 C 43.1875 14.024924 43.101757 13.937499 42.9375 13.9375 z M 44.53125 14.8125 C 44.511007 14.945885 44.489735 15.024514 44.4375 15.28125 L 44.34375 15.875 C 44.323217 15.980125 44.301783 16.065086 44.28125 16.15625 C 44.223759 16.41085 44.1875 16.574081 44.1875 16.625 C 44.187499 16.790902 44.262567 16.875 44.4375 16.875 C 44.492527 16.875001 44.565829 16.851963 44.59375 16.84375 C 44.658634 16.825682 44.693293 16.817428 44.71875 16.8125 C 44.711358 16.784576 44.718753 16.761498 44.71875 16.75 C 44.718749 16.666124 44.910548 16.33427 45.21875 15.84375 L 45.0625 15.59375 C 44.99577 15.719184 44.94046 15.830922 44.875 15.96875 L 44.96875 15.46875 L 44.53125 14.8125 z "
       style="opacity:0.5;fill:black;fill-opacity:1" />
    <path
       id="path9640"
       d="M 30.643749,25.003369 C 30.352189,25.529819 30.045846,25.947037 29.727183,26.255022 C 29.408521,26.563008 29.123532,26.71659 28.873037,26.71659 C 28.672641,26.71659 28.513309,26.629533 28.395043,26.453776 C 28.277598,26.27884 28.218464,26.044771 28.218464,25.750747 C 28.218464,25.158593 28.394222,24.640356 28.746557,24.195214 C 29.098893,23.750894 29.507898,23.528323 29.974393,23.528323 C 30.252812,23.528323 30.557513,23.617023 30.886852,23.796065 L 31.189088,22.284061 C 31.024008,22.317734 30.886852,22.334981 30.77762,22.334981 C 30.611718,22.334981 30.490166,22.29638 30.413786,22.218357 C 30.337406,22.140334 30.274987,21.995786 30.227352,21.783071 C 30.362866,21.872592 30.569832,21.917763 30.850715,21.917763 C 31.198123,21.917763 31.533211,21.853702 31.856801,21.72558 L 31.242473,24.803794 C 31.172663,25.147916 31.138168,25.440298 31.138168,25.68258 C 31.138168,26.004527 31.229332,26.165501 31.412481,26.165501 C 31.592344,26.165501 31.890474,25.955249 32.308514,25.533104 C 32.726553,25.112601 33.074782,24.671565 33.35238,24.21164 L 33.582342,24.357831 C 33.249718,24.968053 32.833321,25.514214 32.333974,25.995493 C 31.834626,26.476772 31.43712,26.717411 31.139811,26.717411 C 30.762015,26.717411 30.573117,26.414353 30.573117,25.807416 C 30.573117,25.5561 30.596113,25.288358 30.643749,25.003369 z M 30.792403,24.260097 C 30.402288,24.003853 30.078698,23.874909 29.81999,23.874909 C 29.538286,23.874909 29.295182,24.04656 29.089858,24.391504 C 28.884535,24.735626 28.781873,25.142167 28.781873,25.611948 C 28.781873,25.988923 28.905067,26.17782 29.153098,26.17782 C 29.418376,26.17782 29.930043,25.590594 30.688099,24.416143 C 30.702061,24.396432 30.736555,24.343869 30.792403,24.260097 z "
       style="opacity:0.5;fill:black;fill-opacity:1" />
    <path
       id="path9647"
       d="M 35.810515,24.581223 C 35.815443,24.626394 35.818728,24.666638 35.818728,24.701132 C 35.818728,25.241544 35.634758,25.712146 35.268461,26.114581 C 34.902163,26.517015 34.472626,26.717411 33.98067,26.717411 C 33.605338,26.717411 33.298995,26.597502 33.061641,26.357684 C 32.825929,26.117866 32.706842,25.805774 32.706842,25.42305 C 32.706842,24.986943 32.860424,24.609968 33.166767,24.290485 C 33.472289,23.970179 33.833658,23.810848 34.249234,23.810848 C 34.312473,23.810848 34.380641,23.819061 34.451272,23.835487 C 34.404458,23.750894 34.381462,23.679441 34.381462,23.621129 C 34.381462,23.530787 34.41185,23.443729 34.473447,23.3616 C 34.930087,23.399379 35.308704,23.633449 35.611762,24.063807 C 35.923033,24.275701 36.246623,24.381648 36.584175,24.381648 C 36.804282,24.381648 37.040815,24.307732 37.295417,24.159077 L 37.435858,24.398074 C 37.137728,24.60504 36.832206,24.708524 36.519293,24.708524 C 36.310684,24.709345 36.074151,24.665816 35.810515,24.581223 z M 35.174012,24.343047 C 35.019608,24.295412 34.875882,24.221496 34.745296,24.118013 C 34.650847,24.099123 34.571181,24.088446 34.507942,24.087625 C 34.190922,24.088446 33.909218,24.231351 33.665293,24.516341 C 33.421368,24.80133 33.298174,25.127384 33.297353,25.49286 C 33.298174,25.758139 33.372912,25.976603 33.519924,26.146611 C 33.666936,26.316619 33.858297,26.402855 34.091545,26.402855 C 34.406922,26.402034 34.67795,26.242703 34.905448,25.924862 C 35.132126,25.60702 35.246286,25.227582 35.247107,24.787368 C 35.246286,24.634607 35.222468,24.485953 35.174012,24.343047 z "
       style="opacity:0.5;fill:black;fill-opacity:1" />
    <path
       id="path9654"
       d="M 39.769157,24.362758 C 39.381506,25.097817 38.993034,25.673545 38.601276,26.090763 C 38.209518,26.507981 37.864574,26.717411 37.562338,26.717411 C 37.343052,26.717411 37.167295,26.631997 37.031781,26.463631 C 36.897089,26.293623 36.829743,26.071873 36.829743,25.799203 C 36.829743,25.645621 36.857667,25.428799 36.914336,25.147916 L 37.471995,22.336624 C 37.3989,22.348122 37.33566,22.353871 37.282276,22.353871 C 36.85356,22.353871 36.638381,22.172365 36.638381,21.809352 L 36.638381,21.74447 C 36.862594,21.872592 37.116374,21.936653 37.3989,21.936653 C 37.681425,21.936653 37.928635,21.866022 38.139708,21.724759 L 37.488421,25.107673 C 37.43093,25.410731 37.402185,25.620161 37.402185,25.735142 C 37.402185,26.051341 37.517988,26.209851 37.750414,26.209851 C 37.974628,26.209851 38.200484,26.083371 38.427161,25.829591 C 38.65466,25.57499 39.026707,25.034578 39.544944,24.206712 L 39.769157,24.362758 z "
       style="opacity:0.5;fill:black;fill-opacity:1" />
    <path
       id="path9661"
       d="M 42.000616,24.581223 C 42.005544,24.626394 42.008829,24.666638 42.008829,24.701132 C 42.008829,25.241544 41.824859,25.712146 41.458561,26.114581 C 41.092264,26.517015 40.662726,26.717411 40.170771,26.717411 C 39.795439,26.717411 39.489096,26.597502 39.251742,26.357684 C 39.01603,26.117866 38.896942,25.805774 38.896942,25.42305 C 38.896942,24.986943 39.050524,24.609968 39.356867,24.290485 C 39.662389,23.970179 40.023759,23.810848 40.439334,23.810848 C 40.502574,23.810848 40.570741,23.819061 40.641373,23.835487 C 40.594559,23.750894 40.571563,23.679441 40.571563,23.621129 C 40.571563,23.530787 40.60195,23.443729 40.663548,23.3616 C 41.120188,23.399379 41.498805,23.633449 41.801862,24.063807 C 42.113133,24.275701 42.436724,24.381648 42.774276,24.381648 C 42.994383,24.381648 43.230916,24.307732 43.485517,24.159077 L 43.625959,24.398074 C 43.327829,24.60504 43.022307,24.708524 42.709393,24.708524 C 42.500785,24.709345 42.264252,24.665816 42.000616,24.581223 z M 41.364112,24.343047 C 41.209709,24.295412 41.065982,24.221496 40.935396,24.118013 C 40.840947,24.099123 40.761282,24.088446 40.698042,24.087625 C 40.381022,24.088446 40.099318,24.231351 39.855393,24.516341 C 39.611469,24.80133 39.488274,25.127384 39.487453,25.49286 C 39.488274,25.758139 39.563012,25.976603 39.710024,26.146611 C 39.857036,26.316619 40.048398,26.402855 40.281645,26.402855 C 40.597023,26.402034 40.86805,26.242703 41.095549,25.924862 C 41.322226,25.60702 41.436386,25.227582 41.437207,24.787368 C 41.436386,24.634607 41.412569,24.485953 41.364112,24.343047 z "
       style="opacity:0.5;fill:black;fill-opacity:1" />
    <path
       id="path9668"
       d="M 43.530688,26.62789 C 43.403388,26.687023 43.300726,26.717411 43.224345,26.717411 C 43.032984,26.717411 42.936892,26.632818 42.936892,26.464452 C 42.936892,26.378216 42.970565,26.163858 43.037911,25.820557 L 43.179174,25.120814 C 43.26541,24.705238 43.308939,24.397253 43.308939,24.196857 C 43.308939,24.087625 43.27773,23.997282 43.216132,23.924187 C 43.414886,23.856841 43.57586,23.823168 43.700697,23.823168 C 43.833746,23.823168 43.89945,23.90694 43.89945,24.073663 C 43.89945,24.176324 43.850994,24.447352 43.756545,24.885102 L 43.593107,25.702291 C 43.947085,25.014867 44.302706,24.481025 44.661612,24.099944 C 45.020518,23.718863 45.34575,23.528323 45.63731,23.528323 C 45.740793,23.528323 45.828672,23.557889 45.904231,23.616201 C 45.978969,23.675335 46.016748,23.746787 46.016748,23.831381 C 46.016748,23.961967 45.874664,24.136081 45.590496,24.353724 C 45.519044,24.20507 45.418024,24.131153 45.287438,24.131153 C 45.049263,24.131153 44.745384,24.384933 44.376622,24.89003 C 44.148302,25.204586 43.948728,25.529819 43.780362,25.864086 C 43.611175,26.199174 43.526582,26.43735 43.526582,26.579434 L 43.530688,26.62789 z "
       style="opacity:0.5;fill:black;fill-opacity:1" />
    <path
       id="path9675"
       d="M 49.566385,25.660405 C 49.629625,25.80331 49.661656,25.938824 49.661656,26.067767 C 49.661656,26.354399 49.541747,26.603251 49.30275,26.815967 C 49.063753,27.028682 48.78287,27.134629 48.462565,27.134629 C 48.274488,27.134629 48.112693,27.085351 47.980465,26.988439 C 47.848236,26.890704 47.781711,26.774081 47.781711,26.636924 C 47.781711,26.490734 47.872054,26.343722 48.054381,26.194246 C 48.236709,26.043949 48.541409,25.867371 48.967661,25.660405 L 48.743448,25.298213 C 48.469957,24.858821 48.333622,24.514698 48.333622,24.266667 C 48.333622,23.910225 48.540588,23.624414 48.954521,23.406771 C 49.209122,23.504505 49.336423,23.626878 49.336423,23.774711 C 49.336423,23.984963 49.175449,24.18618 48.853501,24.378363 L 49.172164,24.968874 L 49.421016,25.424693 C 49.779101,25.211156 50.049307,25.028829 50.229992,24.875247 C 50.412319,24.722486 50.642282,24.486774 50.91988,24.168933 L 51.144093,24.30691 C 50.740016,24.84568 50.215208,25.298213 49.566385,25.660405 z M 49.089213,25.914185 C 48.542231,26.209851 48.269561,26.440635 48.269561,26.60243 C 48.269561,26.756833 48.380435,26.833214 48.601364,26.833214 C 48.765623,26.833214 48.898673,26.777366 49.000513,26.666491 C 49.103175,26.553974 49.154917,26.410247 49.154917,26.235311 C 49.154917,26.129364 49.13192,26.022596 49.089213,25.914185 z "
       style="opacity:0.5;fill:black;fill-opacity:1" />
    <path
       id="path9731"
       d="M 32.330689,34.210086 C 31.877334,34.970605 31.397697,35.569329 30.890137,36.007079 C 30.383398,36.444829 29.912796,36.663294 29.478331,36.663294 C 29.116961,36.663294 28.823759,36.540099 28.599545,36.292068 C 28.375332,36.044859 28.262814,35.723732 28.262814,35.327047 C 28.262814,34.806346 28.455819,34.35217 28.84347,33.96534 C 29.231121,33.57851 29.685297,33.384684 30.207641,33.384684 C 30.419535,33.384684 30.592828,33.425749 30.728342,33.507057 C 30.863856,33.588365 30.932023,33.69267 30.932023,33.818328 C 30.932023,34.025294 30.757909,34.179698 30.40968,34.283181 C 30.427748,34.23801 30.437604,34.195302 30.437604,34.154237 C 30.437604,33.850358 30.27663,33.698419 29.95304,33.698419 C 29.673799,33.698419 29.415913,33.853643 29.180201,34.166557 C 28.945311,34.477828 28.827044,34.819486 28.827044,35.18989 C 28.827044,35.492127 28.905888,35.738516 29.061113,35.927413 C 29.21798,36.117954 29.42084,36.213224 29.672157,36.213224 C 30.362044,36.213224 31.168556,35.498697 32.094156,34.068823 L 32.330689,34.210086 z "
       style="opacity:0.5;fill:black;fill-opacity:1" />
    <path
       id="path9738"
       d="M 34.560504,34.436763 C 34.567075,34.481934 34.569539,34.522178 34.569539,34.556672 C 34.569539,35.097084 34.385569,35.567686 34.019271,35.970121 C 33.652973,36.372555 33.223436,36.572951 32.73148,36.572951 C 32.355327,36.572951 32.048984,36.453042 31.813273,36.213224 C 31.575918,35.973406 31.457652,35.661314 31.457652,35.27859 C 31.457652,34.842483 31.611234,34.465508 31.917577,34.146025 C 32.22392,33.825719 32.584469,33.666388 33.000044,33.666388 C 33.064105,33.666388 33.131451,33.674601 33.202083,33.691027 C 33.155269,33.606434 33.132272,33.534981 33.132272,33.476669 C 33.132272,33.386327 33.16266,33.299269 33.224257,33.21714 C 33.680898,33.254919 34.059515,33.488989 34.362572,33.919347 C 34.673022,34.131241 34.997433,34.237188 35.334986,34.237188 C 35.554271,34.237188 35.791626,34.163272 36.046227,34.014617 L 36.186669,34.253614 C 35.888538,34.46058 35.583017,34.564064 35.270103,34.564064 C 35.061494,34.564885 34.824961,34.521356 34.560504,34.436763 z M 33.925643,34.198587 C 33.77124,34.150952 33.627513,34.077036 33.496927,33.973553 C 33.402479,33.954663 33.322813,33.943986 33.259573,33.943165 C 32.942553,33.943986 32.660849,34.086891 32.416925,34.371881 C 32.173,34.65687 32.049806,34.982924 32.048984,35.3484 C 32.049806,35.613679 32.123722,35.832143 32.271555,36.002151 C 32.419388,36.172159 32.609929,36.258395 32.843177,36.258395 C 33.158554,36.257574 33.429581,36.098243 33.65708,35.780402 C 33.883757,35.46256 33.997917,35.083122 33.998739,34.642908 C 33.997917,34.490147 33.973279,34.341493 33.925643,34.198587 z "
       style="opacity:0.5;fill:black;fill-opacity:1" />
    <path
       id="path9745"
       d="M 36.337787,35.490484 C 37.004678,34.086891 37.603402,33.384684 38.13478,33.384684 C 38.549534,33.384684 38.757322,33.795332 38.757322,34.617448 L 38.763071,34.956643 C 38.763071,35.349222 38.782782,35.620249 38.823026,35.770546 C 38.863269,35.920843 38.937186,35.995581 39.043954,35.995581 C 39.204928,35.995581 39.388076,35.86828 39.5934,35.612857 C 39.797903,35.358256 40.131348,34.844947 40.594559,34.075393 L 40.83027,34.211728 C 40.41798,34.987852 40.049219,35.56358 39.722344,35.939733 C 39.397111,36.315065 39.103908,36.503141 38.846022,36.503141 C 38.607846,36.503141 38.441123,36.38816 38.344211,36.158197 C 38.248119,35.929056 38.199663,35.530728 38.199663,34.964856 L 38.199663,34.724216 C 38.199663,34.417873 38.179952,34.201873 38.140529,34.077857 C 38.101107,33.954663 38.032118,33.891423 37.934384,33.891423 C 37.686353,33.891423 37.286383,34.3842 36.735294,35.368111 C 36.59978,35.609572 36.512723,35.763976 36.473301,35.832964 C 36.327931,36.083459 36.255657,36.264144 36.255657,36.376662 C 36.255657,36.421833 36.268798,36.463719 36.292616,36.505605 C 36.185026,36.550776 36.093862,36.572951 36.018303,36.572951 C 35.830227,36.572951 35.735778,36.468647 35.735778,36.258395 C 35.735778,36.199262 35.760416,35.929877 35.809694,35.451062 L 35.872934,34.842483 C 35.900858,34.584596 35.915641,34.383379 35.915641,34.242116 C 35.915641,34.044184 35.869649,33.887317 35.778485,33.773978 C 35.817907,33.760016 35.883611,33.737841 35.975596,33.704989 C 36.09222,33.662282 36.185026,33.641749 36.254015,33.641749 C 36.401027,33.641749 36.474122,33.748518 36.474122,33.961233 C 36.474122,34.073751 36.459339,34.265934 36.430593,34.538604 C 36.424844,34.597737 36.419095,34.656049 36.413346,34.709433 L 36.337787,35.490484 z "
       style="opacity:0.5;fill:black;fill-opacity:1" />
    <path
       id="path9752"
       d="M 41.713984,35.515945 C 41.777224,35.65885 41.809254,35.794364 41.809254,35.923307 C 41.809254,36.209939 41.689345,36.458791 41.450348,36.671507 C 41.211351,36.884222 40.930468,36.990169 40.610163,36.990169 C 40.422087,36.990169 40.260292,36.940891 40.128063,36.843979 C 39.995835,36.746244 39.92931,36.629621 39.92931,36.492464 C 39.92931,36.346274 40.019652,36.199262 40.20198,36.049786 C 40.384307,35.899489 40.689008,35.722911 41.11526,35.515945 L 40.891046,35.153753 C 40.617555,34.714361 40.48122,34.370238 40.48122,34.122207 C 40.48122,33.765765 40.688186,33.479954 41.102119,33.262311 C 41.356721,33.360045 41.484021,33.482418 41.484021,33.630251 C 41.484021,33.840503 41.323047,34.04172 41.0011,34.233903 L 41.319762,34.824414 L 41.568615,35.280233 C 41.926699,35.066696 42.196905,34.884369 42.37759,34.730787 C 42.559918,34.578026 42.78988,34.342314 43.067478,34.024473 L 43.291692,34.16245 C 42.888436,34.70122 42.362807,35.153753 41.713984,35.515945 z M 41.236812,35.769725 C 40.689829,36.065391 40.417159,36.296175 40.417159,36.45797 C 40.417159,36.612373 40.528034,36.688754 40.748962,36.688754 C 40.913221,36.688754 41.046271,36.632906 41.148112,36.522031 C 41.250774,36.409514 41.302515,36.265787 41.302515,36.090851 C 41.302515,35.984904 41.28034,35.878136 41.236812,35.769725 z "
       style="opacity:0.5;fill:black;fill-opacity:1" />
    <path
       id="path9759"
       d="M 43.083904,35.332796 C 43.083904,35.881421 43.315509,36.155733 43.779541,36.155733 C 44.181975,36.155733 44.624653,35.964372 45.109217,35.580006 C 45.593781,35.196461 46.03071,34.691364 46.420004,34.063895 L 46.65818,34.195302 C 46.291882,34.881905 45.815531,35.448598 45.228305,35.898668 C 44.641901,36.347916 44.085884,36.57213 43.560255,36.57213 C 43.223524,36.57213 42.957425,36.462898 42.761956,36.246897 C 42.566488,36.029254 42.468754,35.731945 42.468754,35.355792 C 42.468754,34.812916 42.646154,34.348063 43.000132,33.962876 C 43.355753,33.576046 43.782826,33.383863 44.282995,33.383863 C 44.524455,33.383863 44.71746,33.444639 44.862829,33.567012 C 45.007377,33.688563 45.080472,33.85118 45.080472,34.055682 C 45.080472,34.39077 44.879255,34.688079 44.475999,34.945966 C 44.071101,35.204674 43.60789,35.332796 43.083904,35.332796 z M 43.106079,35.063411 C 43.497837,35.0437 43.833746,34.931183 44.113808,34.72668 C 44.393869,34.522999 44.534311,34.287287 44.534311,34.019545 C 44.534311,33.780548 44.427543,33.659818 44.214006,33.659818 C 43.958583,33.659818 43.723693,33.796153 43.508513,34.069644 C 43.293334,34.343135 43.158642,34.674938 43.106079,35.063411 z "
       style="opacity:0.5;fill:black;fill-opacity:1" />
    <path
       id="path9766"
       d="M 49.937611,34.210086 C 49.484256,34.970605 49.00462,35.569329 48.497059,36.007079 C 47.99032,36.444829 47.519718,36.663294 47.085253,36.663294 C 46.723883,36.663294 46.430681,36.540099 46.206468,36.292068 C 45.982254,36.044859 45.869737,35.723732 45.869737,35.327047 C 45.869737,34.806346 46.062741,34.35217 46.450392,33.96534 C 46.838043,33.57851 47.29222,33.384684 47.814563,33.384684 C 48.026457,33.384684 48.199751,33.425749 48.335264,33.507057 C 48.470778,33.588365 48.538945,33.69267 48.538945,33.818328 C 48.538945,34.025294 48.364831,34.179698 48.016602,34.283181 C 48.03467,34.23801 48.044526,34.195302 48.044526,34.154237 C 48.044526,33.850358 47.883552,33.698419 47.559962,33.698419 C 47.280721,33.698419 47.022835,33.853643 46.787123,34.166557 C 46.552233,34.477828 46.433966,34.819486 46.433966,35.18989 C 46.433966,35.492127 46.512811,35.738516 46.668035,35.927413 C 46.824903,36.117954 47.027763,36.213224 47.279079,36.213224 C 47.968967,36.213224 48.775478,35.498697 49.701078,34.068823 L 49.937611,34.210086 z "
       style="opacity:0.5;fill:black;fill-opacity:1" />
    <path
       id="path9773"
       d="M 51.282892,35.396857 C 51.333812,35.488021 51.358451,35.568507 51.358451,35.636675 C 51.358451,35.819824 51.204048,36.021862 50.894419,36.241969 C 50.584791,36.462076 50.303087,36.572951 50.049307,36.572951 C 49.825093,36.572951 49.641945,36.472753 49.500682,36.273179 C 49.359419,36.072783 49.288788,35.814075 49.288788,35.498697 C 49.288788,35.147183 49.379951,34.647014 49.5631,33.99737 L 49.690401,33.525947 L 49.219799,33.525947 C 49.023509,33.525947 48.866642,33.553871 48.750018,33.61054 C 48.857608,33.415072 48.946308,33.291878 49.016939,33.2426 C 49.08757,33.19168 49.206658,33.167041 49.375845,33.167041 L 49.796348,33.167041 L 49.853017,32.971573 C 49.939253,32.680834 50.042737,32.482081 50.163467,32.37367 C 50.284197,32.265259 50.464882,32.211053 50.706343,32.211053 C 50.734267,32.211053 50.780259,32.212696 50.841857,32.216803 C 50.695666,32.404879 50.543726,32.721899 50.386038,33.167041 L 51.869297,33.167041 C 52.129647,33.167041 52.3284,33.133368 52.465557,33.0652 C 52.417922,33.255741 52.356325,33.380578 52.278301,33.43889 C 52.200278,33.497201 52.055731,33.525947 51.843836,33.525947 L 50.264486,33.525947 C 50.246418,33.587544 50.231634,33.633536 50.221779,33.663924 C 49.993459,34.436763 49.879299,35.019882 49.879299,35.414104 C 49.879299,35.84939 50.035345,36.067034 50.34908,36.067034 C 50.510053,36.067034 50.68581,35.998045 50.877172,35.86171 C 51.066891,35.723732 51.202405,35.568507 51.282892,35.396857 z "
       style="opacity:0.5;fill:black;fill-opacity:1" />
    <path
       id="path9780"
       d="M 52.257769,35.332796 C 52.257769,35.881421 52.489374,36.155733 52.953406,36.155733 C 53.355841,36.155733 53.798519,35.964372 54.283083,35.580006 C 54.767647,35.196461 55.204576,34.691364 55.593869,34.063895 L 55.832045,34.195302 C 55.465747,34.881905 54.989396,35.448598 54.40217,35.898668 C 53.815766,36.347916 53.259749,36.57213 52.73412,36.57213 C 52.397389,36.57213 52.13129,36.462898 51.935821,36.246897 C 51.740353,36.029254 51.642619,35.731945 51.642619,35.355792 C 51.642619,34.812916 51.820019,34.348063 52.173997,33.962876 C 52.529618,33.576046 52.956691,33.383863 53.45686,33.383863 C 53.698321,33.383863 53.891325,33.444639 54.036694,33.567012 C 54.181242,33.688563 54.254337,33.85118 54.254337,34.055682 C 54.254337,34.39077 54.05312,34.688079 53.649864,34.945966 C 53.244966,35.204674 52.781755,35.332796 52.257769,35.332796 z M 52.279944,35.063411 C 52.671702,35.0437 53.007611,34.931183 53.287673,34.72668 C 53.567735,34.522999 53.708176,34.287287 53.708176,34.019545 C 53.708176,33.780548 53.601408,33.659818 53.387871,33.659818 C 53.132448,33.659818 52.897558,33.796153 52.682379,34.069644 C 52.467199,34.343135 52.332507,34.674938 52.279944,35.063411 z "
       style="opacity:0.5;fill:black;fill-opacity:1" />
    <path
       id="path9815"
       d="M 30.679886,44.642996 C 30.440067,45.139058 30.144401,45.560382 29.792066,45.90779 C 29.440551,46.255198 29.134208,46.428491 28.873858,46.428491 C 28.675104,46.428491 28.515773,46.340613 28.397507,46.163213 C 28.277598,45.985813 28.218464,45.750102 28.218464,45.456899 C 28.218464,44.870495 28.395864,44.354721 28.750664,43.908758 C 29.105463,43.462795 29.517753,43.240224 29.984249,43.240224 C 30.267595,43.240224 30.573939,43.328103 30.903278,43.504681 C 30.952556,43.329745 31.150488,43.243509 31.497895,43.243509 C 31.52007,43.243509 31.556207,43.244331 31.607128,43.245973 C 31.500359,43.40859 31.419051,43.631982 31.363203,43.915329 L 31.314747,44.154325 C 31.261362,44.420425 31.233438,44.731696 31.233438,45.088138 C 31.233438,45.498785 31.328709,45.704109 31.52007,45.704109 C 31.721288,45.704109 31.998064,45.534922 32.348757,45.196549 C 32.700271,44.858996 33.044394,44.426995 33.382767,43.904652 L 33.602053,44.057413 C 33.256288,44.675848 32.861245,45.191621 32.416103,45.604732 C 31.970961,46.017844 31.589059,46.22481 31.269575,46.22481 C 30.86632,46.22481 30.664281,45.888079 30.664281,45.212975 C 30.662638,45.070891 30.668387,44.881171 30.679886,44.642996 z M 30.811293,43.971177 C 30.417071,43.714933 30.089374,43.585989 29.828203,43.585989 C 29.544856,43.585989 29.299289,43.75764 29.092322,44.100941 C 28.886177,44.444243 28.782694,44.851605 28.782694,45.323028 C 28.782694,45.700003 28.905888,45.8889 29.154741,45.8889 C 29.422483,45.8889 29.936614,45.301674 30.69549,44.127223 C 30.705346,44.114082 30.743947,44.060698 30.811293,43.971177 z "
       style="opacity:0.5;fill:black;fill-opacity:1" />
    <path
       id="path9822"
       d="M 35.194544,44.714449 C 34.902984,45.240899 34.596641,45.658117 34.277979,45.966102 C 33.959317,46.274088 33.674327,46.42767 33.423832,46.42767 C 33.223436,46.42767 33.064105,46.340613 32.945838,46.164856 C 32.828393,45.98992 32.76926,45.755851 32.76926,45.461827 C 32.76926,44.869673 32.945017,44.351436 33.297353,43.906294 C 33.649688,43.461974 34.058693,43.239403 34.525189,43.239403 C 34.803608,43.239403 35.108308,43.328103 35.437648,43.507145 L 35.739884,41.995141 C 35.574804,42.028814 35.437648,42.046061 35.328415,42.046061 C 35.162514,42.046061 35.040962,42.00746 34.964582,41.929437 C 34.888201,41.851414 34.825783,41.706866 34.778148,41.494151 C 34.913661,41.583672 35.120628,41.628843 35.401511,41.628843 C 35.748918,41.628843 36.084007,41.564782 36.407597,41.43666 L 35.793268,44.514874 C 35.723458,44.858996 35.688964,45.151378 35.688964,45.39366 C 35.688964,45.715607 35.780128,45.876581 35.963276,45.876581 C 36.14314,45.876581 36.44127,45.666329 36.859309,45.244184 C 37.277348,44.823681 37.625577,44.382645 37.903175,43.92272 L 38.133138,44.068911 C 37.800513,44.679133 37.384117,45.225294 36.884769,45.706573 C 36.385422,46.187852 35.987915,46.428491 35.690606,46.428491 C 35.312811,46.428491 35.123913,46.125433 35.123913,45.518496 C 35.123913,45.26718 35.146909,44.999438 35.194544,44.714449 z M 35.343199,43.971177 C 34.953083,43.714933 34.629493,43.585989 34.370785,43.585989 C 34.089081,43.585989 33.845978,43.75764 33.640654,44.102584 C 33.43533,44.446706 33.332668,44.853247 33.332668,45.323028 C 33.332668,45.700003 33.455863,45.8889 33.703894,45.8889 C 33.969172,45.8889 34.480839,45.301674 35.238894,44.127223 C 35.252856,44.107512 35.287351,44.054949 35.343199,43.971177 z "
       style="opacity:0.5;fill:black;fill-opacity:1" />
    <path
       id="path9829"
       d="M 40.676688,44.060698 C 40.253721,44.801506 39.826648,45.382161 39.394647,45.800201 C 38.962646,46.219061 38.574994,46.428491 38.230872,46.428491 C 38.021442,46.428491 37.852255,46.360324 37.724954,46.223167 C 37.596832,46.086833 37.532771,45.906969 37.532771,45.684398 C 37.532771,45.599805 37.55084,45.465933 37.588619,45.282785 L 37.651038,44.973978 C 37.742201,44.528015 37.789015,44.215101 37.789015,44.035238 C 37.789015,43.928469 37.756985,43.841412 37.692924,43.774066 C 37.936848,43.718218 38.089609,43.690294 38.152027,43.690294 C 38.290826,43.690294 38.360636,43.787207 38.360636,43.981853 C 38.360636,44.12558 38.333534,44.332546 38.277686,44.601931 L 38.166811,45.149735 C 38.111784,45.412549 38.08386,45.5842 38.08386,45.663044 C 38.08386,45.895471 38.181594,46.011273 38.377884,46.011273 C 38.611953,46.011273 38.923223,45.814163 39.312517,45.419941 C 39.701811,45.025719 40.078786,44.527193 40.443441,43.92272 L 40.676688,44.060698 z M 38.181594,42.646428 L 38.221016,42.648892 C 38.345853,42.643143 38.525717,42.580724 38.761428,42.459994 C 38.995497,42.340085 39.180289,42.21689 39.312517,42.092054 C 39.230388,42.34994 39.084197,42.565941 38.874767,42.740055 C 38.556105,43.004512 38.340925,43.137562 38.228408,43.137562 C 38.15367,43.137562 38.115891,43.09157 38.115891,42.999585 C 38.115891,42.868177 38.138065,42.750732 38.181594,42.646428 z "
       style="opacity:0.5;fill:black;fill-opacity:1" />
    <path
       id="path9836"
       d="M 40.436049,46.184567 L 40.229083,47.221862 C 40.181447,47.45511 40.158451,47.658791 40.158451,47.832906 C 40.158451,47.942959 40.18309,48.043157 40.232368,48.131857 C 40.044291,48.194275 39.899743,48.224663 39.801188,48.224663 C 39.646784,48.224663 39.568761,48.136785 39.568761,47.961849 C 39.568761,47.824693 39.599971,47.602122 39.661568,47.291672 L 40.486148,43.175342 C 40.32271,43.209836 40.185554,43.226262 40.073858,43.226262 C 39.91042,43.226262 39.788868,43.18684 39.711667,43.107996 C 39.633644,43.029973 39.571225,42.884603 39.52359,42.670245 C 39.660746,42.76223 39.869355,42.809044 40.149417,42.809044 C 40.497646,42.809044 40.831913,42.744983 41.153861,42.616861 L 40.935396,43.699328 C 41.253237,43.392985 41.581755,43.238581 41.922593,43.238581 C 42.21908,43.238581 42.467111,43.35192 42.665044,43.576955 C 42.862976,43.802811 42.962352,44.083694 42.962352,44.420425 C 42.962352,44.947696 42.779204,45.401051 42.414549,45.783775 C 42.049072,46.165677 41.615429,46.356217 41.113617,46.356217 C 40.84259,46.35786 40.615912,46.300369 40.436049,46.184567 z M 40.524749,45.750102 C 40.713647,45.971851 40.946894,46.081905 41.222028,46.081905 C 41.551367,46.081905 41.83225,45.943106 42.063856,45.665508 C 42.295461,45.38791 42.411263,45.050358 42.411263,44.653673 C 42.411263,44.366219 42.34556,44.133793 42.214974,43.955572 C 42.084388,43.777351 41.913559,43.688651 41.704128,43.688651 C 41.442135,43.688651 41.157967,43.837306 40.850803,44.132972 L 40.524749,45.750102 z "
       style="opacity:0.5;fill:black;fill-opacity:1" />
    <path
       id="path9843"
       d="M 46.740309,44.060698 C 46.317342,44.801506 45.890269,45.382161 45.458268,45.800201 C 45.026267,46.219061 44.638615,46.428491 44.294493,46.428491 C 44.085063,46.428491 43.915876,46.360324 43.788575,46.223167 C 43.660453,46.086833 43.596392,45.906969 43.596392,45.684398 C 43.596392,45.599805 43.614461,45.465933 43.65224,45.282785 L 43.714659,44.973978 C 43.805822,44.528015 43.852636,44.215101 43.852636,44.035238 C 43.852636,43.928469 43.820606,43.841412 43.756545,43.774066 C 44.000469,43.718218 44.15323,43.690294 44.215648,43.690294 C 44.354447,43.690294 44.424257,43.787207 44.424257,43.981853 C 44.424257,44.12558 44.397155,44.332546 44.341307,44.601931 L 44.230432,45.149735 C 44.175405,45.412549 44.147481,45.5842 44.147481,45.663044 C 44.147481,45.895471 44.245215,46.011273 44.441505,46.011273 C 44.675574,46.011273 44.986844,45.814163 45.376138,45.419941 C 45.765432,45.025719 46.142407,44.527193 46.507062,43.92272 L 46.740309,44.060698 z M 44.245215,42.646428 L 44.284637,42.648892 C 44.409474,42.643143 44.589338,42.580724 44.825049,42.459994 C 45.059118,42.340085 45.24391,42.21689 45.376138,42.092054 C 45.294009,42.34994 45.147818,42.565941 44.938388,42.740055 C 44.619726,43.004512 44.404546,43.137562 44.292029,43.137562 C 44.217291,43.137562 44.179512,43.09157 44.179512,42.999585 C 44.179512,42.868177 44.200865,42.750732 44.245215,42.646428 z "
       style="opacity:0.5;fill:black;fill-opacity:1" />
    <path
       id="path9850"
       d="M 47.6347,45.371485 C 47.697939,45.51439 47.72997,45.649904 47.72997,45.778847 C 47.72997,46.065479 47.610061,46.314331 47.371064,46.527047 C 47.132067,46.739762 46.851184,46.845709 46.530879,46.845709 C 46.342803,46.845709 46.181007,46.796431 46.048779,46.699519 C 45.91655,46.601784 45.850026,46.485161 45.850026,46.348004 C 45.850026,46.201814 45.940368,46.054802 46.122695,45.905326 C 46.305023,45.755029 46.609723,45.578451 47.035976,45.371485 L 46.811762,45.009293 C 46.538271,44.569901 46.401936,44.225778 46.401936,43.977747 C 46.401936,43.621305 46.608902,43.335494 47.022835,43.117851 C 47.277436,43.215585 47.404737,43.337958 47.404737,43.485791 C 47.404737,43.696043 47.243763,43.89726 46.921816,44.089443 L 47.240478,44.679954 L 47.48933,45.135773 C 47.847415,44.922236 48.117621,44.739909 48.298306,44.586327 C 48.480633,44.433566 48.710596,44.197854 48.988194,43.880013 L 49.212407,44.01799 C 48.809151,44.55676 48.283523,45.009293 47.6347,45.371485 z M 47.157527,45.625265 C 46.610545,45.920931 46.337875,46.151715 46.337875,46.31351 C 46.337875,46.467913 46.44875,46.544294 46.669678,46.544294 C 46.833937,46.544294 46.966987,46.488446 47.068827,46.377571 C 47.171489,46.265054 47.223231,46.121327 47.223231,45.946391 C 47.223231,45.840444 47.201056,45.733676 47.157527,45.625265 z "
       style="opacity:0.5;fill:black;fill-opacity:1" />
    <path
       id="path9857"
       d="M 52.494302,44.065626 C 52.040947,44.826145 51.561311,45.424869 51.053751,45.862619 C 50.547012,46.300369 50.07641,46.518834 49.641945,46.518834 C 49.280575,46.518834 48.987372,46.395639 48.763159,46.147608 C 48.538945,45.900399 48.426428,45.579272 48.426428,45.182587 C 48.426428,44.661886 48.619432,44.20771 49.007084,43.82088 C 49.394735,43.43405 49.848911,43.240224 50.371255,43.240224 C 50.583149,43.240224 50.756442,43.281289 50.891956,43.362597 C 51.027469,43.443905 51.095637,43.54821 51.095637,43.673868 C 51.095637,43.880834 50.921522,44.035238 50.573293,44.138721 C 50.591362,44.09355 50.601217,44.050842 50.601217,44.009777 C 50.601217,43.705898 50.440243,43.553959 50.116653,43.553959 C 49.837413,43.553959 49.579526,43.709183 49.343814,44.022097 C 49.108924,44.333368 48.990658,44.675026 48.990658,45.04543 C 48.990658,45.347667 49.069502,45.594056 49.224727,45.782953 C 49.381594,45.973494 49.584454,46.068764 49.83577,46.068764 C 50.525658,46.068764 51.33217,45.354237 52.257769,43.924363 L 52.494302,44.065626 z "
       style="opacity:0.5;fill:black;fill-opacity:1" />
    <path
       id="path9864"
       d="M 55.041959,44.060698 C 54.618992,44.801506 54.191919,45.382161 53.759918,45.800201 C 53.327917,46.219061 52.940265,46.428491 52.596143,46.428491 C 52.386712,46.428491 52.217526,46.360324 52.090225,46.223167 C 51.962103,46.086833 51.898042,45.906969 51.898042,45.684398 C 51.898042,45.599805 51.91611,45.465933 51.95389,45.282785 L 52.016308,44.973978 C 52.107472,44.528015 52.154286,44.215101 52.154286,44.035238 C 52.154286,43.928469 52.122255,43.841412 52.058194,43.774066 C 52.302119,43.718218 52.45488,43.690294 52.517298,43.690294 C 52.656097,43.690294 52.725907,43.787207 52.725907,43.981853 C 52.725907,44.12558 52.698805,44.332546 52.642956,44.601931 L 52.532082,45.149735 C 52.477055,45.412549 52.449131,45.5842 52.449131,45.663044 C 52.449131,45.895471 52.546865,46.011273 52.743154,46.011273 C 52.977224,46.011273 53.288494,45.814163 53.677788,45.419941 C 54.067082,45.025719 54.444056,44.527193 54.808711,43.92272 L 55.041959,44.060698 z M 52.546865,42.646428 L 52.586287,42.648892 C 52.711124,42.643143 52.890988,42.580724 53.126699,42.459994 C 53.360768,42.340085 53.54556,42.21689 53.677788,42.092054 C 53.595659,42.34994 53.449468,42.565941 53.240038,42.740055 C 52.921375,43.004512 52.706196,43.137562 52.593679,43.137562 C 52.518941,43.137562 52.481161,43.09157 52.481161,42.999585 C 52.481161,42.868177 52.502515,42.750732 52.546865,42.646428 z "
       style="opacity:0.5;fill:black;fill-opacity:1" />
    <path
       id="path9871"
       d="M 55.197184,45.346024 C 55.864075,43.942431 56.4628,43.240224 56.994177,43.240224 C 57.408931,43.240224 57.616719,43.650872 57.616719,44.472988 L 57.622468,44.812183 C 57.622468,45.204762 57.642179,45.475789 57.682423,45.626086 C 57.722666,45.776383 57.796583,45.851121 57.903351,45.851121 C 58.064325,45.851121 58.247474,45.72382 58.452797,45.468397 C 58.6573,45.213796 58.990746,44.700487 59.453956,43.930933 L 59.689668,44.067268 C 59.277377,44.843392 58.908616,45.41912 58.581741,45.795273 C 58.256508,46.170605 57.963305,46.358681 57.705419,46.358681 C 57.467243,46.358681 57.30052,46.2437 57.203608,46.013737 C 57.107516,45.784596 57.05906,45.386268 57.05906,44.820396 L 57.05906,44.579756 C 57.05906,44.273413 57.039349,44.057413 56.999926,43.933397 C 56.960504,43.810203 56.891516,43.746963 56.793781,43.746963 C 56.54575,43.746963 56.14578,44.23974 55.594691,45.223651 C 55.459177,45.465112 55.37212,45.619516 55.332698,45.688504 C 55.187328,45.938999 55.115054,46.119684 55.115054,46.232202 C 55.115054,46.277373 55.128195,46.319259 55.152013,46.361145 C 55.044423,46.406316 54.953259,46.428491 54.8777,46.428491 C 54.689624,46.428491 54.595175,46.324187 54.595175,46.113935 C 54.595175,46.054802 54.619814,45.785417 54.669091,45.306602 L 54.732331,44.698023 C 54.760255,44.440136 54.775038,44.238919 54.775038,44.097656 C 54.775038,43.899724 54.729046,43.742857 54.637882,43.629518 C 54.677304,43.615556 54.743008,43.593381 54.834993,43.560529 C 54.951617,43.517822 55.044423,43.497289 55.113412,43.497289 C 55.260424,43.497289 55.333519,43.604058 55.333519,43.816773 C 55.333519,43.929291 55.318736,44.121474 55.28999,44.394144 C 55.284241,44.453277 55.278492,44.511589 55.272743,44.564973 L 55.197184,45.346024 z "
       style="opacity:0.5;fill:black;fill-opacity:1" />
    <path
       id="path9920"
       d="M 28.067346,63.413693 C 28.022175,63.31678 28,63.216582 28,63.113099 C 28,62.77719 28.257065,62.475774 28.771196,62.208032 C 29.286148,61.941932 29.868446,61.808883 30.519733,61.808883 C 31.204693,61.808883 31.743463,61.960822 32.137684,62.264701 C 32.531085,62.567759 32.729017,62.983335 32.729017,63.512249 C 32.729017,64.213634 32.423495,64.832891 31.81163,65.369197 C 31.487219,65.652543 31.083141,65.884148 30.597756,66.064012 C 30.112371,66.243876 29.647518,66.333397 29.20484,66.333397 C 28.777766,66.333397 28.565051,66.173244 28.565051,65.852118 C 28.565051,65.736315 28.601188,65.495676 28.674283,65.132664 L 29.037296,63.297069 C 29.068505,63.140202 29.084931,63.026042 29.084931,62.957053 C 29.084931,62.89135 29.062756,62.831395 29.017585,62.776368 C 29.268079,62.682741 29.441373,62.635927 29.539107,62.635927 C 29.655731,62.635927 29.714043,62.703273 29.714043,62.837965 C 29.714043,62.869996 29.683655,63.033434 29.624522,63.330742 L 29.316536,64.868207 C 29.239334,65.260786 29.200733,65.506353 29.200733,65.607372 C 29.200733,65.719889 29.238513,65.795449 29.314893,65.835692 C 29.390452,65.875936 29.533358,65.895647 29.742788,65.896468 C 30.42282,65.895647 30.991978,65.687859 31.45026,65.273926 C 31.908543,64.859994 32.138506,64.346684 32.139327,63.733998 C 32.138506,63.260111 31.971783,62.880673 31.639158,62.596505 C 31.306534,62.311515 30.863034,62.16861 30.309482,62.16861 C 29.857769,62.169431 29.437266,62.278663 29.047151,62.495485 C 28.655393,62.711486 28.329339,63.017829 28.067346,63.413693 z "
       style="opacity:0.5;fill:black;fill-opacity:1" />
    <path
       id="path9927"
       d="M 36.254836,64.003383 C 36.259764,64.048554 36.263049,64.088798 36.263049,64.123292 C 36.263049,64.663704 36.079079,65.134306 35.712781,65.536741 C 35.346484,65.939175 34.916946,66.139571 34.424991,66.139571 C 34.049659,66.139571 33.743316,66.019662 33.505962,65.779844 C 33.27025,65.540026 33.151162,65.227934 33.151162,64.84521 C 33.151162,64.409103 33.304744,64.032128 33.611087,63.712645 C 33.916609,63.392339 34.277979,63.233008 34.693554,63.233008 C 34.756794,63.233008 34.824961,63.241221 34.895593,63.257647 C 34.848779,63.173054 34.825783,63.101601 34.825783,63.043289 C 34.825783,62.952947 34.856171,62.865889 34.917768,62.78376 C 35.374408,62.821539 35.753025,63.055609 36.056083,63.485967 C 36.367353,63.697861 36.690944,63.803808 37.028496,63.803808 C 37.248603,63.803808 37.485136,63.729892 37.739737,63.581237 L 37.880179,63.820234 C 37.582049,64.0272 37.276527,64.130684 36.963614,64.130684 C 36.755005,64.131505 36.518472,64.087976 36.254836,64.003383 z M 35.618332,63.765207 C 35.463929,63.717572 35.320202,63.643656 35.189616,63.540173 C 35.095168,63.521283 35.015502,63.510606 34.952262,63.509785 C 34.635242,63.510606 34.353538,63.653511 34.109614,63.938501 C 33.865689,64.22349 33.742495,64.549544 33.741673,64.91502 C 33.742495,65.180299 33.817232,65.398763 33.964244,65.568771 C 34.111256,65.738779 34.302618,65.825015 34.535866,65.825015 C 34.851243,65.824194 35.12227,65.664863 35.349769,65.347022 C 35.576446,65.02918 35.690606,64.649742 35.691428,64.209528 C 35.690606,64.056767 35.666789,63.908113 35.618332,63.765207 z "
       style="opacity:0.5;fill:black;fill-opacity:1" />
    <path
       id="path9934"
       d="M 38.031297,65.057104 C 38.698189,63.653511 39.296091,62.951304 39.828291,62.951304 C 40.243045,62.951304 40.450832,63.361952 40.450832,64.184068 L 40.456581,64.523263 C 40.456581,64.915842 40.476292,65.186869 40.516536,65.337166 C 40.556779,65.487463 40.630696,65.562201 40.737464,65.562201 C 40.898438,65.562201 41.081587,65.4349 41.286911,65.179477 C 41.491413,64.924876 41.824859,64.411567 42.288069,63.642013 L 42.523781,63.778348 C 42.111491,64.554472 41.742729,65.1302 41.415854,65.506353 C 41.090621,65.881685 40.797419,66.069761 40.539532,66.069761 C 40.301357,66.069761 40.134634,65.95478 40.038542,65.724817 C 39.941629,65.495676 39.893173,65.097348 39.893173,64.531476 L 39.893173,64.290836 C 39.893173,63.984493 39.873462,63.768493 39.83404,63.644477 C 39.794617,63.521283 39.725629,63.458043 39.627895,63.458043 C 39.379864,63.458043 38.979893,63.95082 38.428804,64.934731 C 38.29329,65.176192 38.206233,65.330596 38.166811,65.399584 C 38.021442,65.650079 37.949168,65.830764 37.949168,65.943282 C 37.949168,65.988453 37.961487,66.030339 37.986947,66.072225 C 37.877715,66.117396 37.786551,66.139571 37.712635,66.139571 C 37.523737,66.139571 37.429288,66.035267 37.429288,65.825015 C 37.429288,65.765882 37.453927,65.496497 37.504026,65.017682 L 37.566444,64.409103 C 37.594368,64.151216 37.609152,63.949999 37.609152,63.808736 C 37.609152,63.610804 37.563159,63.453937 37.471995,63.340598 C 37.511417,63.326636 37.577121,63.304461 37.669106,63.271609 C 37.78573,63.228902 37.878536,63.208369 37.947525,63.208369 C 38.094537,63.208369 38.167632,63.315138 38.167632,63.527853 C 38.167632,63.640371 38.152849,63.832554 38.124103,64.105224 C 38.118354,64.164357 38.112605,64.222669 38.106856,64.276053 L 38.031297,65.057104 z "
       style="opacity:0.5;fill:black;fill-opacity:1" />
    <path
       id="path9941"
       d="M 42.309423,64.899416 C 42.309423,65.448041 42.541028,65.722353 43.00506,65.722353 C 43.407494,65.722353 43.850172,65.530992 44.334736,65.146626 C 44.8193,64.763081 45.256229,64.257984 45.645523,63.630515 L 45.883699,63.761922 C 45.517401,64.448525 45.04105,65.015218 44.453824,65.465288 C 43.867419,65.914536 43.311403,66.13875 42.785774,66.13875 C 42.449043,66.13875 42.182943,66.029518 41.987475,65.813517 C 41.792007,65.595874 41.694273,65.298565 41.694273,64.922412 C 41.694273,64.379536 41.871673,63.914683 42.225651,63.529496 C 42.581271,63.142666 43.008345,62.950483 43.508513,62.950483 C 43.749974,62.950483 43.942979,63.011259 44.088348,63.133632 C 44.232896,63.255183 44.305991,63.4178 44.305991,63.622302 C 44.305991,63.95739 44.104774,64.254699 43.701518,64.512586 C 43.296619,64.771294 42.832588,64.899416 42.309423,64.899416 z M 42.331598,64.630031 C 42.723355,64.61032 43.059265,64.497803 43.339327,64.2933 C 43.619388,64.089619 43.75983,63.853907 43.75983,63.586165 C 43.75983,63.347168 43.653061,63.226438 43.439525,63.226438 C 43.184102,63.226438 42.949212,63.362773 42.734032,63.636264 C 42.518853,63.909755 42.384161,64.241558 42.331598,64.630031 z "
       style="opacity:0.5;fill:black;fill-opacity:1" />
    <path
       id="path9948"
       d="M 49.162308,63.776706 C 48.708953,64.537225 48.229317,65.135949 47.721757,65.573699 C 47.215018,66.011449 46.744416,66.229914 46.309951,66.229914 C 45.948581,66.229914 45.655379,66.106719 45.431165,65.858688 C 45.206952,65.611479 45.094434,65.290352 45.094434,64.893667 C 45.094434,64.372966 45.287438,63.91879 45.67509,63.53196 C 46.062741,63.14513 46.516917,62.951304 47.039261,62.951304 C 47.251155,62.951304 47.424448,62.992369 47.559962,63.073677 C 47.695475,63.154985 47.763643,63.25929 47.763643,63.384948 C 47.763643,63.591914 47.589528,63.746318 47.241299,63.849801 C 47.259368,63.80463 47.269223,63.761922 47.269223,63.720857 C 47.269223,63.416978 47.108249,63.265039 46.784659,63.265039 C 46.505419,63.265039 46.247532,63.420263 46.011821,63.733177 C 45.77693,64.044448 45.658664,64.386106 45.658664,64.75651 C 45.658664,65.058747 45.737508,65.305136 45.892733,65.494033 C 46.0496,65.684574 46.25246,65.779844 46.503776,65.779844 C 47.193664,65.779844 48.000176,65.065317 48.925775,63.635443 L 49.162308,63.776706 z "
       style="opacity:0.5;fill:black;fill-opacity:1" />
    <path
       id="path10004"
       d="M 30.643749,74.281069 C 30.352189,74.807519 30.045846,75.224737 29.727183,75.532722 C 29.408521,75.840708 29.123532,75.99429 28.873037,75.99429 C 28.672641,75.99429 28.513309,75.907233 28.395043,75.731476 C 28.277598,75.55654 28.218464,75.322471 28.218464,75.028447 C 28.218464,74.436293 28.394222,73.918056 28.746557,73.472914 C 29.098893,73.028594 29.507898,72.806023 29.974393,72.806023 C 30.252812,72.806023 30.557513,72.894723 30.886852,73.073765 L 31.189088,71.561761 C 31.024008,71.595434 30.886852,71.612681 30.77762,71.612681 C 30.611718,71.612681 30.490166,71.57408 30.413786,71.496057 C 30.337406,71.418034 30.274987,71.273486 30.227352,71.060771 C 30.362866,71.150292 30.569832,71.195463 30.850715,71.195463 C 31.198123,71.195463 31.533211,71.131402 31.856801,71.00328 L 31.242473,74.081494 C 31.172663,74.425616 31.138168,74.717998 31.138168,74.96028 C 31.138168,75.282227 31.229332,75.443201 31.412481,75.443201 C 31.592344,75.443201 31.890474,75.232949 32.308514,74.810804 C 32.726553,74.390301 33.074782,73.949265 33.35238,73.48934 L 33.582342,73.635531 C 33.249718,74.245753 32.833321,74.791914 32.333974,75.273193 C 31.834626,75.754472 31.43712,75.995111 31.139811,75.995111 C 30.762015,75.995111 30.573117,75.692053 30.573117,75.085116 C 30.573117,74.8338 30.596113,74.566058 30.643749,74.281069 z M 30.792403,73.537797 C 30.402288,73.281553 30.078698,73.152609 29.81999,73.152609 C 29.538286,73.152609 29.295182,73.32426 29.089858,73.669204 C 28.884535,74.013326 28.781873,74.419867 28.781873,74.889648 C 28.781873,75.266623 28.905067,75.45552 29.153098,75.45552 C 29.418376,75.45552 29.930043,74.868294 30.688099,73.693843 C 30.702061,73.674132 30.736555,73.621569 30.792403,73.537797 z "
       style="opacity:0.5;fill:black;fill-opacity:1" />
    <path
       id="path10011"
       d="M 36.125893,73.627318 C 35.702926,74.368126 35.275852,74.948781 34.843851,75.366821 C 34.41185,75.785681 34.024199,75.995111 33.680076,75.995111 C 33.470646,75.995111 33.301459,75.926944 33.174158,75.789787 C 33.046036,75.653453 32.981975,75.473589 32.981975,75.251018 C 32.981975,75.166425 33.000044,75.032553 33.037824,74.849405 L 33.100242,74.540598 C 33.191406,74.094635 33.23822,73.781721 33.23822,73.601858 C 33.23822,73.495089 33.206189,73.408032 33.142128,73.340686 C 33.386053,73.284838 33.538813,73.256914 33.601232,73.256914 C 33.740031,73.256914 33.809841,73.353827 33.809841,73.548473 C 33.809841,73.6922 33.782738,73.899166 33.72689,74.168551 L 33.616015,74.716355 C 33.560988,74.979169 33.533064,75.15082 33.533064,75.229664 C 33.533064,75.462091 33.630799,75.577893 33.827088,75.577893 C 34.061157,75.577893 34.372428,75.380783 34.761722,74.986561 C 35.151016,74.592339 35.52799,74.093813 35.892645,73.48934 L 36.125893,73.627318 z M 33.630799,72.213048 L 33.670221,72.215512 C 33.795058,72.209763 33.974921,72.147344 34.210633,72.026614 C 34.444702,71.906705 34.629493,71.78351 34.761722,71.658674 C 34.679592,71.91656 34.533402,72.132561 34.323972,72.306675 C 34.005309,72.571132 33.79013,72.704182 33.677612,72.704182 C 33.602874,72.704182 33.565095,72.65819 33.565095,72.566205 C 33.565095,72.434797 33.58727,72.317352 33.630799,72.213048 z "
       style="opacity:0.5;fill:black;fill-opacity:1" />
    <path
       id="path10018"
       d="M 37.761912,74.209616 C 37.522094,74.705678 37.226428,75.127002 36.874092,75.47441 C 36.522578,75.821818 36.216235,75.995111 35.955885,75.995111 C 35.757131,75.995111 35.5978,75.907233 35.479534,75.729833 C 35.359624,75.552433 35.300491,75.316722 35.300491,75.023519 C 35.300491,74.437115 35.477891,73.921341 35.83269,73.475378 C 36.18749,73.029415 36.59978,72.806844 37.066276,72.806844 C 37.349622,72.806844 37.655965,72.894723 37.985305,73.071301 C 38.034582,72.896365 38.232514,72.810129 38.579922,72.810129 C 38.602097,72.810129 38.638234,72.810951 38.689154,72.812593 C 38.582386,72.97521 38.501078,73.198602 38.44523,73.481949 L 38.396773,73.720945 C 38.343389,73.987045 38.315465,74.298316 38.315465,74.654758 C 38.315465,75.065405 38.410735,75.270729 38.602097,75.270729 C 38.803314,75.270729 39.080091,75.101542 39.430784,74.763169 C 39.782298,74.425616 40.126421,73.993615 40.464794,73.471272 L 40.68408,73.624033 C 40.338315,74.242468 39.943272,74.758241 39.49813,75.171352 C 39.052988,75.584464 38.671086,75.79143 38.351602,75.79143 C 37.948346,75.79143 37.746308,75.454699 37.746308,74.779595 C 37.744665,74.637511 37.750414,74.447791 37.761912,74.209616 z M 37.89332,73.537797 C 37.499098,73.281553 37.171401,73.152609 36.910229,73.152609 C 36.626883,73.152609 36.381315,73.32426 36.174349,73.667561 C 35.968204,74.010863 35.864721,74.418225 35.864721,74.889648 C 35.864721,75.266623 35.987915,75.45552 36.236768,75.45552 C 36.50451,75.45552 37.01864,74.868294 37.777517,73.693843 C 37.787373,73.680702 37.825973,73.627318 37.89332,73.537797 z "
       style="opacity:0.5;fill:black;fill-opacity:1" />
    <path
       id="path10025"
       d="M 42.625 72.8125 C 42.106762 72.812501 41.519675 73.517479 40.84375 74.9375 L 40.90625 74.125 C 40.950598 73.680682 40.999999 73.412738 41 73.34375 C 40.999998 73.149921 40.88301 73.062502 40.71875 73.0625 C 40.628408 73.062503 40.498071 73.108654 40.28125 73.1875 C 40.371594 73.291808 40.437502 73.464108 40.4375 73.6875 C 40.437498 73.865721 40.396353 74.040569 40.375 74.25 L 40.3125 74.875 C 40.256653 75.393238 40.25 75.630789 40.25 75.65625 C 40.250001 75.8665 40.336604 76.000002 40.53125 76 C 40.617485 76.000001 40.709017 75.983495 40.8125 75.9375 C 40.782934 75.899721 40.750001 75.851924 40.75 75.8125 C 40.750001 75.674522 40.951993 75.24906 41.34375 74.53125 C 41.737151 73.806866 42.04796 73.437498 42.25 73.4375 C 42.341985 73.437497 42.375 73.500163 42.375 73.625 C 42.375 73.711235 42.337057 73.978353 42.25 74.40625 L 42.15625 75 C 42.135717 75.105127 42.083031 75.190083 42.0625 75.28125 C 42.005008 75.535854 42 75.699078 42 75.75 C 42.000001 75.915901 42.075063 76.000003 42.25 76 C 42.305027 76.000001 42.347076 75.976965 42.375 75.96875 C 42.439883 75.950682 42.474539 75.942429 42.5 75.9375 C 42.492606 75.909576 42.499999 75.917748 42.5 75.90625 C 42.499998 75.801946 42.714434 75.356775 43.1875 74.625 C 43.708201 73.82095 44.110462 73.437503 44.3125 73.4375 C 44.341245 73.437499 44.355498 73.461768 44.375 73.46875 L 44.78125 72.84375 C 44.727025 72.823956 44.664793 72.8125 44.59375 72.8125 C 44.335865 72.812501 44.043119 73.019461 43.6875 73.4375 C 43.331879 73.855536 42.983125 74.405501 42.65625 75.09375 L 42.8125 74.25 C 42.912698 73.758869 42.968749 73.45212 42.96875 73.3125 C 42.968751 72.9848 42.851678 72.8125 42.625 72.8125 z "
       style="opacity:0.5;fill:black;fill-opacity:1" />
  </g>
</svg>
