<?xml version="1.0" encoding="UTF-8" standalone="no"?>
<!-- Created with Inkscape (http://www.inkscape.org/) -->
<svg
   xmlns:dc="http://purl.org/dc/elements/1.1/"
   xmlns:cc="http://web.resource.org/cc/"
   xmlns:rdf="http://www.w3.org/1999/02/22-rdf-syntax-ns#"
   xmlns:svg="http://www.w3.org/2000/svg"
   xmlns="http://www.w3.org/2000/svg"
   xmlns:xlink="http://www.w3.org/1999/xlink"
   xmlns:sodipodi="http://sodipodi.sourceforge.net/DTD/sodipodi-0.dtd"
   xmlns:inkscape="http://www.inkscape.org/namespaces/inkscape"
   version="1.0"
   width="88"
   height="88"
   id="svg8301"
   sodipodi:version="0.32"
   inkscape:version="0.44"
   sodipodi:docname="mail_delete.svg"
   sodipodi:docbase="/home/david/Progetti/oxygen-svn/Oxygen/theme/svg/actions/small/22x22">
  <metadata
     id="metadata15">
    <rdf:RDF>
      <cc:Work
         rdf:about="">
        <dc:format>image/svg+xml</dc:format>
        <dc:type
           rdf:resource="http://purl.org/dc/dcmitype/StillImage" />
      </cc:Work>
    </rdf:RDF>
  </metadata>
  <sodipodi:namedview
     inkscape:window-height="579"
     inkscape:window-width="849"
     inkscape:pageshadow="2"
     inkscape:pageopacity="0.0"
     guidetolerance="10.0"
     gridtolerance="10.0"
     objecttolerance="10.0"
     borderopacity="1.0"
     bordercolor="#666666"
     pagecolor="#ffffff"
     id="base"
     inkscape:zoom="4.2954545"
     inkscape:cx="44"
     inkscape:cy="44"
     inkscape:window-x="169"
     inkscape:window-y="0"
     inkscape:current-layer="svg8301" />
  <defs
     id="defs8303">
    <linearGradient
       id="linearGradient3291">
      <stop
         style="stop-color:black;stop-opacity:1"
         offset="0"
         id="stop3293" />
      <stop
         style="stop-color:black;stop-opacity:0"
         offset="1"
         id="stop3295" />
    </linearGradient>
    <radialGradient
       cx="63.912209"
       cy="115.70919"
       r="63.912209"
       fx="63.912209"
       fy="115.7093"
       id="radialGradient4418"
       xlink:href="#linearGradient3291"
       gradientUnits="userSpaceOnUse"
       gradientTransform="matrix(0.688444,0,0,5.67397e-2,1.5e-5,77.80829)" />
    <linearGradient
       x1="1229.8545"
       y1="-280.94821"
       x2="1231.6117"
       y2="-393.9523"
       id="path4399_1_"
       gradientUnits="userSpaceOnUse"
       gradientTransform="matrix(0.9579,0,0,-0.9579,-1135.012,-285.1991)">
      <stop
         style="stop-color:#740000;stop-opacity:1"
         offset="0"
         id="stop6608" />
      <stop
         style="stop-color:#de0000;stop-opacity:1"
         offset="1"
         id="stop6610" />
    </linearGradient>
    <radialGradient
       inkscape:collect="always"
       xlink:href="#linearGradient3291"
       id="radialGradient1880"
       gradientUnits="userSpaceOnUse"
       gradientTransform="matrix(0.688444,0,0,5.67397e-2,1.5e-5,77.80829)"
       cx="63.912209"
       cy="115.70919"
       fx="63.912209"
       fy="115.7093"
       r="63.912209" />
    <linearGradient
       inkscape:collect="always"
       xlink:href="#path4399_1_"
       id="linearGradient1883"
       gradientUnits="userSpaceOnUse"
       gradientTransform="matrix(0.880594,0,0,-0.880594,-1039.861,-258.6314)"
       x1="1229.8545"
       y1="-280.94821"
       x2="1231.6117"
       y2="-393.9523" />
  </defs>
  <path
     id="path4399"
     style="fill:url(#linearGradient1883)"
     d="M 69.432456,8.0691845 C 69.314786,7.9533525 69.094155,7.9873665 68.935116,8.1454855 L 44.000133,33.08047 L 19.064231,8.1454855 C 18.906112,7.9864475 18.683642,7.9524335 18.565972,8.0701035 L 8.0703707,18.565706 C 7.9527008,18.683376 7.9857955,18.905845 8.145753,19.063964 L 33.080736,43.999867 L 8.145753,68.93485 C 7.9857955,69.093888 7.9527008,69.316358 8.0703707,69.433109 L 18.565972,79.92963 C 18.683642,80.0473 18.906112,80.014205 19.064231,79.854248 L 44.000133,54.919264 L 68.935116,79.854248 C 69.094155,80.014205 69.316624,80.0473 69.433375,79.92963 L 79.929896,69.433109 C 80.047566,69.316358 80.013552,69.093888 79.854514,68.93485 L 54.91953,43.999867 L 79.854514,19.063964 C 80.013552,18.904926 80.047566,18.682456 79.929896,18.565706 L 69.433375,8.0701035 L 69.433375,8.0701035 C 69.433375,8.0701035 69.433375,8.0691845 69.432456,8.0691845 z " />
  <path
     id="path4416"
     style="opacity:0.38139535;fill:url(#radialGradient1880);fill-opacity:1;fill-rule:nonzero;stroke:none;stroke-width:0;stroke-linecap:round;stroke-linejoin:round;stroke-miterlimit:4;stroke-dasharray:none;stroke-dashoffset:4;stroke-opacity:1"
     d="M 87.999975,84.37363 C 87.999975,86.37642 68.300515,88 44.000005,88 C 19.699485,88 2.5e-05,86.37642 2.5e-05,84.37363 C 2.5e-05,82.37085 19.699485,80.74727 44.000005,80.74727 C 68.300515,80.74727 87.999975,82.37085 87.999975,84.37363 L 87.999975,84.37363 z " />
</svg>
