<?xml version="1.0" encoding="UTF-8" standalone="no"?>
<!-- Generator: Adobe Illustrator 12.0.0, SVG Export Plug-In . SVG Version: 6.00 Build 51448)  -->
<svg
   xmlns:ns="http://ns.adobe.com/SaveForWeb/1.0/"
   xmlns:dc="http://purl.org/dc/elements/1.1/"
   xmlns:cc="http://web.resource.org/cc/"
   xmlns:rdf="http://www.w3.org/1999/02/22-rdf-syntax-ns#"
   xmlns:svg="http://www.w3.org/2000/svg"
   xmlns="http://www.w3.org/2000/svg"
   xmlns:xlink="http://www.w3.org/1999/xlink"
   xmlns:sodipodi="http://sodipodi.sourceforge.net/DTD/sodipodi-0.dtd"
   xmlns:inkscape="http://www.inkscape.org/namespaces/inkscape"
   version="1.0"
   id="Livello_1"
   width="128"
   height="128.00018"
   viewBox="0 0 119.999 120.061"
   overflow="visible"
   enable-background="new 0 0 119.999 120.061"
   xml:space="preserve"
   sodipodi:version="0.32"
   inkscape:version="0.45"
   sodipodi:docname="configure_toolbars.svg"
   sodipodi:docbase="/home/david/Progetti/oxygen-svn/Oxygen/theme/svg/actions/small/16x16"
   inkscape:output_extension="org.inkscape.output.svg.inkscape"
   inkscape:export-filename="/Users/david/Desktop/configure.png"
   inkscape:export-xdpi="11.249984"
   inkscape:export-ydpi="11.249984"
   sodipodi:modified="true"><defs
   id="defs127"><linearGradient
   inkscape:collect="always"
   xlink:href="#linearGradient3291"
   id="linearGradient2896"
   gradientUnits="userSpaceOnUse"
   gradientTransform="matrix(0.7538579,-0.7542405,0.7538579,0.7542405,-51.047033,26.410868)"
   x1="-28.612268"
   y1="96.109436"
   x2="-5.8000355"
   y2="96.115227" /><linearGradient
   inkscape:collect="always"
   xlink:href="#linearGradient6134"
   id="linearGradient2894"
   gradientUnits="userSpaceOnUse"
   gradientTransform="matrix(1.0005076,0,0,1.0000002,3.0258732,-3.0687761)"
   spreadMethod="pad"
   x1="107.48289"
   y1="45.495159"
   x2="74.391113"
   y2="12.386586" /><linearGradient
   inkscape:collect="always"
   xlink:href="#XMLID_15_"
   id="linearGradient2892"
   gradientUnits="userSpaceOnUse"
   gradientTransform="matrix(1.0005076,0,0,1.0000002,3.0258732,-3.0687761)"
   x1="76.919403"
   y1="43.1436"
   x2="100.6411"
   y2="19.4214" /><linearGradient
   gradientTransform="translate(6.1416442,2.5179057)"
   y2="43.945599"
   x2="105.3924"
   y1="6.4331002"
   x1="67.880402"
   gradientUnits="userSpaceOnUse"
   id="linearGradient11157">
	<stop
   id="stop11159"
   style="stop-color:#757575;stop-opacity:0;"
   offset="0.0947" />
	
	
	<stop
   offset="0.5"
   style="stop-color:#606060;stop-opacity:1;"
   id="stop11165" />
	
	
	<stop
   id="stop11167"
   style="stop-color:#646464;stop-opacity:0;"
   offset="0.93489999" />
</linearGradient><linearGradient
   inkscape:collect="always"
   xlink:href="#linearGradient11157"
   id="linearGradient2890"
   gradientUnits="userSpaceOnUse"
   gradientTransform="matrix(1.0005076,0,0,1.0000002,9.2009054,-0.551176)"
   x1="67.880402"
   y1="6.4331002"
   x2="105.3924"
   y2="43.945599" /><linearGradient
   inkscape:collect="always"
   xlink:href="#XMLID_14_"
   id="linearGradient2888"
   gradientUnits="userSpaceOnUse"
   gradientTransform="matrix(1.0005076,0,0,1.0000002,9.2009054,-0.551176)"
   x1="67.880402"
   y1="6.4331002"
   x2="105.3924"
   y2="43.945599" /><linearGradient
   inkscape:collect="always"
   xlink:href="#XMLID_18_"
   id="linearGradient2886"
   gradientUnits="userSpaceOnUse"
   gradientTransform="matrix(0.7074589,0.7071,-0.7074589,0.7071,95.272564,-47.896072)"
   x1="40.413525"
   y1="102.06514"
   x2="61.97266"
   y2="102.07061" /><linearGradient
   inkscape:collect="always"
   xlink:href="#XMLID_10_"
   id="linearGradient2884"
   gradientUnits="userSpaceOnUse"
   gradientTransform="matrix(0.7071,0.7074589,0.7071,-0.7074589,-47.911766,95.28826)"
   x1="61.9692"
   y1="88.430702"
   x2="40.815899"
   y2="88.430702" /><radialGradient
   inkscape:collect="always"
   xlink:href="#linearGradient3236"
   id="radialGradient18007"
   gradientUnits="userSpaceOnUse"
   gradientTransform="matrix(1.17806,-4.586233e-6,4.447791e-6,1.142499,-27.0796,-5.760327)"
   cx="152.08052"
   cy="40.428711"
   fx="153.39473"
   fy="41.424862"
   r="4.3543735" /><radialGradient
   inkscape:collect="always"
   xlink:href="#linearGradient3236"
   id="radialGradient12331"
   gradientUnits="userSpaceOnUse"
   gradientTransform="matrix(1.17806,-4.586233e-6,4.447791e-6,1.142499,-27.0796,-5.760327)"
   cx="152.08052"
   cy="40.428711"
   fx="153.39473"
   fy="41.424862"
   r="4.3543735" /><linearGradient
   id="linearGradient3236"><stop
     style="stop-color:#727272;stop-opacity:1;"
     offset="0"
     id="stop3238" /><stop
     style="stop-color:#f8f8f8;stop-opacity:1;"
     offset="1"
     id="stop3240" /></linearGradient><radialGradient
   inkscape:collect="always"
   xlink:href="#linearGradient3236"
   id="radialGradient12329"
   gradientUnits="userSpaceOnUse"
   gradientTransform="matrix(1.17806,-4.586233e-6,4.447791e-6,1.142499,-27.0796,-5.760327)"
   cx="152.08052"
   cy="40.428711"
   fx="153.39473"
   fy="41.424862"
   r="4.3543735" /><linearGradient
   id="linearGradient3235"><stop
     style="stop-color:#e3e3e6;stop-opacity:1;"
     offset="0"
     id="stop3237" /><stop
     style="stop-color:#ffffff;stop-opacity:1;"
     offset="1"
     id="stop3239" /></linearGradient><linearGradient
   id="linearGradient6134"><stop
     id="stop6136"
     offset="0"
     style="stop-color:#a3a3a3;stop-opacity:1;" /><stop
     style="stop-color:#ffffff;stop-opacity:0.49803922;"
     offset="0.5"
     id="stop7109" /><stop
     id="stop6138"
     offset="1"
     style="stop-color:#838383;stop-opacity:1;" /></linearGradient><linearGradient
   id="linearGradient3291"><stop
     style="stop-color:black;stop-opacity:1"
     offset="0"
     id="stop3293" /><stop
     style="stop-color:black;stop-opacity:0"
     offset="1"
     id="stop3295" /></linearGradient><radialGradient
   inkscape:collect="always"
   xlink:href="#linearGradient3291"
   id="radialGradient3336"
   gradientUnits="userSpaceOnUse"
   gradientTransform="matrix(1,0,0,0.197802,0,92.82166)"
   cx="63.912209"
   cy="115.70919"
   fx="33.953373"
   fy="115.70919"
   r="63.912209" /><linearGradient
   id="linearGradient6141"><stop
     style="stop-color:#000000;stop-opacity:1;"
     offset="0"
     id="stop6143" /><stop
     style="stop-color:#ffffff;stop-opacity:0;"
     offset="1"
     id="stop6145" /></linearGradient><linearGradient
   gradientTransform="translate(-3.0255781e-2,3.056501e-4)"
   id="linearGradient5166"
   gradientUnits="userSpaceOnUse"
   x1="77.542931"
   y1="41.868668"
   x2="88.108376"
   y2="31.303225">
		<stop
   offset="0"
   style="stop-color:#323232;stop-opacity:1;"
   id="stop5168" />
		
		
		
		
		
		
		<stop
   offset="0.75739998"
   style="stop-color:#ffffff;stop-opacity:0;"
   id="stop5170" />
	</linearGradient>
	<linearGradient
   y2="31.303225"
   x2="88.108376"
   y1="41.868668"
   x1="77.542931"
   gradientUnits="userSpaceOnUse"
   id="XMLID_16_"
   gradientTransform="translate(-3.0255781e-2,3.056501e-4)">
		<stop
   id="stop92"
   style="stop-color:#ffffff;stop-opacity:1;"
   offset="0" />
		
		
		
		
		
		
		<stop
   id="stop106"
   style="stop-color:#ffffff;stop-opacity:0.01898734;"
   offset="0.75739998" />
	</linearGradient>
	
<linearGradient
   inkscape:collect="always"
   xlink:href="#XMLID_18_"
   id="linearGradient3295"
   gradientUnits="userSpaceOnUse"
   gradientTransform="matrix(0.7074656,-0.7074656,0.7071068,0.7071068,-18.749172,36.539651)"
   x1="-6.165"
   y1="112.5049"
   x2="11.0181"
   y2="112.5049" /><linearGradient
   inkscape:collect="always"
   xlink:href="#XMLID_17_"
   id="linearGradient3298"
   gradientUnits="userSpaceOnUse"
   gradientTransform="matrix(1.0002442,-2.5378062e-4,-2.5378062e-4,1.0002442,8.6347844,-24.632129)"
   x1="38.757801"
   y1="7.4277"
   x2="63.923302"
   y2="7.4277" /><linearGradient
   inkscape:collect="always"
   xlink:href="#XMLID_15_"
   id="linearGradient3304"
   gradientUnits="userSpaceOnUse"
   gradientTransform="matrix(0.7074656,-0.7074656,0.7071068,0.7071068,-24.895791,39.125846)"
   x1="76.919403"
   y1="43.1436"
   x2="100.6411"
   y2="19.4214" /><linearGradient
   inkscape:collect="always"
   xlink:href="#XMLID_14_"
   id="linearGradient3307"
   gradientUnits="userSpaceOnUse"
   gradientTransform="matrix(0.7074656,-0.7074656,0.7071068,0.7071068,-18.749172,36.539651)"
   x1="67.880402"
   y1="6.4331002"
   x2="105.3924"
   y2="43.945599" /><linearGradient
   inkscape:collect="always"
   xlink:href="#XMLID_13_"
   id="linearGradient3310"
   gradientUnits="userSpaceOnUse"
   gradientTransform="matrix(-0.7074656,0.7074656,-0.7071068,-0.7071068,101.2385,185.78751)"
   x1="-0.47799999"
   y1="105.0586"
   x2="6.3157001"
   y2="111.8523" /><linearGradient
   inkscape:collect="always"
   xlink:href="#XMLID_12_"
   id="linearGradient3313"
   gradientUnits="userSpaceOnUse"
   gradientTransform="matrix(-0.7074656,0.7074656,-0.7071068,-0.7071068,107.38512,183.20132)"
   x1="1.3501"
   y1="103.2324"
   x2="8.1437998"
   y2="110.0261" />
	

		
			<linearGradient
   id="XMLID_10_"
   gradientUnits="userSpaceOnUse"
   x1="61.9692"
   y1="88.430702"
   x2="40.815899"
   y2="88.430702"
   gradientTransform="matrix(0.7074589,0.7071,-0.7074589,0.7071,68.76314,-21.373694)">
			<stop
   offset="0.0533"
   style="stop-color:#555555"
   id="stop10" />
			<stop
   offset="0.19746539"
   style="stop-color:#aeaeae;stop-opacity:1;"
   id="stop12" />
			<stop
   offset="0.36265489"
   style="stop-color:#dedede;stop-opacity:1;"
   id="stop14" />
			<stop
   offset="0.60322773"
   style="stop-color:#e3e3e3;stop-opacity:1;"
   id="stop16" />
			<stop
   offset="0.74190539"
   style="stop-color:#c1c1c1;stop-opacity:1;"
   id="stop18" />
			<stop
   offset="1"
   style="stop-color:#555555"
   id="stop20" />
		</linearGradient>
		
	<linearGradient
   inkscape:collect="always"
   xlink:href="#XMLID_10_"
   id="linearGradient10168"
   gradientUnits="userSpaceOnUse"
   gradientTransform="matrix(1.5628683,-3.9649986e-4,-3.9652886e-4,1.562754,-20.23462,-103.35726)"
   x1="61.9692"
   y1="88.430702"
   x2="40.815899"
   y2="88.430702" /><linearGradient
   inkscape:collect="always"
   xlink:href="#XMLID_10_"
   id="linearGradient10170"
   gradientUnits="userSpaceOnUse"
   gradientTransform="matrix(1.0663866,2.7056218e-4,-2.7056218e-4,-1.0663866,9.2387294,154.26114)"
   x1="61.9692"
   y1="88.430702"
   x2="40.815899"
   y2="88.430702" /><linearGradient
   inkscape:collect="always"
   xlink:href="#XMLID_17_"
   id="linearGradient10203"
   x1="56.03125"
   y1="121.5"
   x2="72.031251"
   y2="121.5"
   gradientUnits="userSpaceOnUse" /><linearGradient
   inkscape:collect="always"
   xlink:href="#XMLID_17_"
   id="linearGradient10205"
   x1="56.03125"
   y1="110.5"
   x2="72.031251"
   y2="110.5"
   gradientUnits="userSpaceOnUse" /><linearGradient
   inkscape:collect="always"
   xlink:href="#XMLID_10_"
   id="linearGradient10219"
   gradientUnits="userSpaceOnUse"
   gradientTransform="matrix(1.0663866,2.7056218e-4,-2.7056218e-4,-1.0663866,9.2387294,154.26114)"
   x1="61.9692"
   y1="88.430702"
   x2="40.815899"
   y2="88.430702" /><linearGradient
   inkscape:collect="always"
   xlink:href="#XMLID_17_"
   id="linearGradient10221"
   gradientUnits="userSpaceOnUse"
   x1="56.03125"
   y1="110.5"
   x2="72.031251"
   y2="110.5" /><linearGradient
   inkscape:collect="always"
   xlink:href="#XMLID_14_"
   id="linearGradient10223"
   gradientUnits="userSpaceOnUse"
   gradientTransform="matrix(0.7074656,-0.7074656,0.7071068,0.7071068,-18.749172,36.539651)"
   x1="67.880402"
   y1="6.4331002"
   x2="105.3924"
   y2="43.945599" /><linearGradient
   inkscape:collect="always"
   xlink:href="#XMLID_15_"
   id="linearGradient10225"
   gradientUnits="userSpaceOnUse"
   gradientTransform="matrix(0.7074656,-0.7074656,0.7071068,0.7071068,-24.895791,39.125846)"
   x1="76.919403"
   y1="43.1436"
   x2="100.6411"
   y2="19.4214" /><linearGradient
   inkscape:collect="always"
   xlink:href="#XMLID_16_"
   id="linearGradient10227"
   gradientUnits="userSpaceOnUse"
   gradientTransform="matrix(0.7074656,-0.7074656,0.7071068,0.7071068,-24.895791,39.125846)"
   x1="76.281174"
   y1="43.060352"
   x2="86.611"
   y2="31.303225" /><linearGradient
   inkscape:collect="always"
   xlink:href="#XMLID_17_"
   id="linearGradient10229"
   gradientUnits="userSpaceOnUse"
   gradientTransform="matrix(1.0002442,-2.5378062e-4,-2.5378062e-4,1.0002442,8.6347844,-24.632129)"
   x1="38.757801"
   y1="7.4277"
   x2="63.923302"
   y2="7.4277" /><linearGradient
   inkscape:collect="always"
   xlink:href="#XMLID_17_"
   id="linearGradient10231"
   gradientUnits="userSpaceOnUse"
   x1="56.03125"
   y1="121.5"
   x2="72.031251"
   y2="121.5" /><linearGradient
   inkscape:collect="always"
   xlink:href="#XMLID_18_"
   id="linearGradient10233"
   gradientUnits="userSpaceOnUse"
   gradientTransform="matrix(0.7074656,-0.7074656,0.7071068,0.7071068,-18.749172,36.539651)"
   x1="-6.165"
   y1="112.5049"
   x2="11.0181"
   y2="112.5049" /><linearGradient
   inkscape:collect="always"
   xlink:href="#XMLID_18_"
   id="linearGradient10236"
   gradientUnits="userSpaceOnUse"
   gradientTransform="matrix(1.0005075,0,0,1.0000001,6.1427973,2.5178157)"
   x1="-6.165"
   y1="112.5049"
   x2="11.0181"
   y2="112.5049" /><linearGradient
   inkscape:collect="always"
   xlink:href="#XMLID_17_"
   id="linearGradient10239"
   gradientUnits="userSpaceOnUse"
   x1="56.03125"
   y1="121.5"
   x2="72.031251"
   y2="121.5"
   gradientTransform="matrix(0.6632486,0.6632486,-0.6632486,0.6632486,45.21604,-10.083813)" /><linearGradient
   inkscape:collect="always"
   xlink:href="#XMLID_17_"
   id="linearGradient10242"
   gradientUnits="userSpaceOnUse"
   gradientTransform="matrix(0.7074589,0.7071,-0.7074589,0.7071,68.761161,-21.373784)"
   x1="38.757801"
   y1="7.4277"
   x2="63.923302"
   y2="7.4277" /><linearGradient
   inkscape:collect="always"
   xlink:href="#XMLID_16_"
   id="linearGradient10245"
   gradientUnits="userSpaceOnUse"
   gradientTransform="matrix(1.0005075,0,0,1.0000001,-3.223487e-2,2.1565487e-4)"
   x1="76.281174"
   y1="43.060352"
   x2="86.611"
   y2="31.303225" /><linearGradient
   inkscape:collect="always"
   xlink:href="#XMLID_15_"
   id="linearGradient10248"
   gradientUnits="userSpaceOnUse"
   gradientTransform="matrix(1.0005075,0,0,1.0000001,-3.223487e-2,2.1565487e-4)"
   x1="76.919403"
   y1="43.1436"
   x2="100.6411"
   y2="19.4214" /><linearGradient
   inkscape:collect="always"
   xlink:href="#XMLID_14_"
   id="linearGradient10251"
   gradientUnits="userSpaceOnUse"
   gradientTransform="matrix(1.0005075,0,0,1.0000001,6.1427973,2.5178157)"
   x1="67.880402"
   y1="6.4331002"
   x2="105.3924"
   y2="43.945599" /><linearGradient
   inkscape:collect="always"
   xlink:href="#XMLID_17_"
   id="linearGradient10254"
   gradientUnits="userSpaceOnUse"
   x1="56.03125"
   y1="110.5"
   x2="72.031251"
   y2="110.5"
   gradientTransform="matrix(0.6632486,0.6632486,-0.6632486,0.6632486,45.21604,-10.083813)" /><linearGradient
   inkscape:collect="always"
   xlink:href="#XMLID_10_"
   id="linearGradient10257"
   gradientUnits="userSpaceOnUse"
   gradientTransform="matrix(0.7071,0.7074589,0.7071,-0.7074589,-50.969871,98.357246)"
   x1="61.9692"
   y1="88.430702"
   x2="40.815899"
   y2="88.430702" /><linearGradient
   inkscape:collect="always"
   xlink:href="#linearGradient6141"
   id="linearGradient6147"
   x1="7.2493796"
   y1="120.2508"
   x2="57.625931"
   y2="69.874252"
   gradientUnits="userSpaceOnUse" /><linearGradient
   inkscape:collect="always"
   xlink:href="#linearGradient6134"
   id="linearGradient6132"
   gradientUnits="userSpaceOnUse"
   gradientTransform="matrix(1.0005075,0,0,1.0000001,-3.223487e-2,2.1565487e-4)"
   x1="107.48289"
   y1="45.495159"
   x2="74.391113"
   y2="12.386586"
   spreadMethod="pad" /><linearGradient
   inkscape:collect="always"
   xlink:href="#linearGradient3235"
   id="linearGradient2285"
   gradientUnits="userSpaceOnUse"
   gradientTransform="matrix(0.9379752,0,0,0.9379752,-75.06893,1.737371e-4)"
   x1="144"
   y1="32"
   x2="145.24672"
   y2="88.013878" /></defs><sodipodi:namedview
   inkscape:window-height="694"
   inkscape:window-width="898"
   inkscape:pageshadow="2"
   inkscape:pageopacity="0.0"
   guidetolerance="10.0"
   gridtolerance="10.0"
   objecttolerance="10.0"
   borderopacity="1.0"
   bordercolor="#666666"
   pagecolor="#ffffff"
   id="base"
   width="128px"
   height="128.00018px"
   inkscape:zoom="2"
   inkscape:cx="29.234459"
   inkscape:cy="46.128311"
   inkscape:window-x="120"
   inkscape:window-y="0"
   inkscape:current-layer="Livello_1" />
<metadata
   id="metadata3">
	<ns:sfw>
		<ns:slices />
		<ns:sliceSourceBounds
   y="3.97"
   x="4"
   height="120.061"
   width="119.999"
   bottomLeftOrigin="true" />
	</ns:sfw>
<rdf:RDF><cc:Work
     rdf:about=""><dc:format>image/svg+xml</dc:format><dc:type
       rdf:resource="http://purl.org/dc/dcmitype/StillImage" /></cc:Work></rdf:RDF></metadata>

<linearGradient
   id="XMLID_11_"
   gradientUnits="userSpaceOnUse"
   x1="41.188999"
   y1="80.101601"
   x2="27.6451"
   y2="66.557701"
   gradientTransform="translate(8.7075442,3.5814057)">
	<stop
   offset="0.40830001"
   style="stop-color:#f0f0f0;stop-opacity:1;"
   id="stop25" />
	<stop
   offset="0.50628459"
   style="stop-color:#C3C3C3"
   id="stop27" />
	<stop
   offset="0.56008232"
   style="stop-color:#8b8b8b;stop-opacity:1;"
   id="stop29" /><stop
   id="stop12212"
   style="stop-color:#393939;stop-opacity:1;"
   offset="0.67944592" />
	
</linearGradient>

<linearGradient
   id="XMLID_12_"
   gradientUnits="userSpaceOnUse"
   x1="1.3501"
   y1="103.2324"
   x2="8.1437998"
   y2="110.0261"
   gradientTransform="matrix(-1,0,0,-1,18.150444,221.94371)">
	<stop
   offset="0"
   style="stop-color:#EEEEEE"
   id="stop36" />
	<stop
   offset="1"
   style="stop-color:#BBBBBB"
   id="stop38" />
</linearGradient>

<linearGradient
   id="XMLID_13_"
   gradientUnits="userSpaceOnUse"
   x1="-0.47799999"
   y1="105.0586"
   x2="6.3157001"
   y2="111.8523"
   gradientTransform="matrix(-1,0,0,-1,11.978544,219.42611)">
	<stop
   offset="0"
   style="stop-color:#BBBBBB"
   id="stop43" />
	<stop
   offset="1"
   style="stop-color:#555555"
   id="stop45" />
</linearGradient>

<linearGradient
   id="XMLID_14_"
   gradientUnits="userSpaceOnUse"
   x1="67.880402"
   y1="6.4331002"
   x2="105.3924"
   y2="43.945599"
   gradientTransform="translate(6.1416442,2.5179057)">
	<stop
   offset="0.0947"
   style="stop-color:#666666;stop-opacity:1;"
   id="stop50" /><stop
   id="stop3330"
   style="stop-color:#b7b7b7;stop-opacity:1;"
   offset="0.40963161" />
	
	
	<stop
   offset="0.50530702"
   style="stop-color:#ffffff;stop-opacity:1;"
   id="stop56" /><stop
   id="stop3328"
   style="stop-color:#a3a3a3;stop-opacity:1;"
   offset="0.63043118" />
	
	
	<stop
   offset="0.93489999"
   style="stop-color:#646464;stop-opacity:1;"
   id="stop62" />
</linearGradient>

<linearGradient
   id="XMLID_15_"
   gradientUnits="userSpaceOnUse"
   x1="76.919403"
   y1="43.1436"
   x2="100.6411"
   y2="19.4214"
   gradientTransform="translate(-3.0255781e-2,3.056501e-4)">
	<stop
   offset="0"
   style="stop-color:#aeaeae;stop-opacity:1;"
   id="stop67" />
	<stop
   offset="0.0602"
   style="stop-color:#b2b2b2;stop-opacity:1;"
   id="stop69" />
	<stop
   offset="0.18103883"
   style="stop-color:#d9d9d9;stop-opacity:1;"
   id="stop71" />
	<stop
   offset="0.3195"
   style="stop-color:#ffffff;stop-opacity:1;"
   id="stop73" />
	<stop
   offset="0.43529999"
   style="stop-color:#f4f4f4;stop-opacity:1;"
   id="stop75" />
	<stop
   offset="0.6028"
   style="stop-color:#D4D4D4"
   id="stop77" />
	<stop
   offset="0.7633"
   style="stop-color:#BBBBBB"
   id="stop79" />
	<stop
   offset="0.80790001"
   style="stop-color:#b9bcc1;stop-opacity:1;"
   id="stop81" />
	<stop
   offset="0.92970002"
   style="stop-color:#bdc0c3;stop-opacity:1;"
   id="stop83" />
	<stop
   offset="1"
   style="stop-color:#b5b9bb;stop-opacity:1;"
   id="stop85" />
</linearGradient>


<linearGradient
   id="XMLID_17_"
   gradientUnits="userSpaceOnUse"
   x1="38.757801"
   y1="7.4277"
   x2="63.923302"
   y2="7.4277"
   gradientTransform="matrix(0.7071,0.7071,-0.7071,0.7071,68.728244,-21.373694)">
	<stop
   offset="0"
   style="stop-color:#3a3a3a;stop-opacity:1;"
   id="stop111" />
	
	<stop
   offset="1"
   style="stop-color:#888888"
   id="stop115" />
</linearGradient>

<linearGradient
   id="XMLID_18_"
   gradientUnits="userSpaceOnUse"
   x1="-6.165"
   y1="112.5049"
   x2="11.0181"
   y2="112.5049"
   gradientTransform="translate(6.1416442,2.5179057)">
	<stop
   offset="0"
   style="stop-color:#BBBBBB"
   id="stop120" />
	<stop
   offset="1"
   style="stop-color:#000000"
   id="stop122" />
</linearGradient>
<rect
   ry="7.7014194"
   rx="7.7014194"
   y="30.015381"
   x="7.4728875"
   height="52.526611"
   width="105.05322"
   id="rect12318"
   style="fill:#888888;fill-opacity:1;fill-rule:nonzero;stroke:#bbbbbb;stroke-width:15.00760365;stroke-linecap:round;stroke-linejoin:round;stroke-miterlimit:4;stroke-dasharray:none;stroke-opacity:1" /><rect
   style="fill:url(#linearGradient2285);fill-opacity:1;fill-rule:nonzero;stroke:none;stroke-width:8;stroke-linecap:round;stroke-linejoin:round;stroke-miterlimit:4;stroke-dasharray:none;stroke-opacity:1"
   id="rect12320"
   width="105.05322"
   height="52.526611"
   x="7.4728875"
   y="30.015381"
   rx="7.7014194"
   ry="7.7014194" /><path
   sodipodi:type="arc"
   style="fill:url(#radialGradient12329);fill-opacity:1;fill-rule:nonzero;stroke:none;stroke-width:1;stroke-linecap:round;stroke-linejoin:round;stroke-miterlimit:4;stroke-dasharray:none;stroke-dashoffset:4;stroke-opacity:0.71951222"
   id="path12322"
   sodipodi:cx="152.08052"
   sodipodi:cy="40.428711"
   sodipodi:rx="4.3543735"
   sodipodi:ry="4.3543735"
   d="M 156.43489 40.428711 A 4.3543735 4.3543735 0 1 1  147.72615,40.428711 A 4.3543735 4.3543735 0 1 1  156.43489 40.428711 z"
   transform="matrix(1.7232794,0,0,1.7232794,-239.59673,-13.391276)" /><path
   transform="matrix(1.7232793,0,0,1.7232793,-239.59672,1.6163295)"
   d="M 156.43489 40.428711 A 4.3543735 4.3543735 0 1 1  147.72615,40.428711 A 4.3543735 4.3543735 0 1 1  156.43489 40.428711 z"
   sodipodi:ry="4.3543735"
   sodipodi:rx="4.3543735"
   sodipodi:cy="40.428711"
   sodipodi:cx="152.08052"
   id="path12324"
   style="fill:url(#radialGradient12331);fill-opacity:1;fill-rule:nonzero;stroke:none;stroke-width:1;stroke-linecap:round;stroke-linejoin:round;stroke-miterlimit:4;stroke-dasharray:none;stroke-dashoffset:4;stroke-opacity:0.71951222"
   sodipodi:type="arc" /><path
   transform="matrix(1.7232794,0,0,1.7232794,-239.59673,-28.398879)"
   d="M 156.43489 40.428711 A 4.3543735 4.3543735 0 1 1  147.72615,40.428711 A 4.3543735 4.3543735 0 1 1  156.43489 40.428711 z"
   sodipodi:ry="4.3543735"
   sodipodi:rx="4.3543735"
   sodipodi:cy="40.428711"
   sodipodi:cx="152.08052"
   id="path18005"
   style="fill:url(#radialGradient18007);fill-opacity:1;fill-rule:nonzero;stroke:none;stroke-width:1;stroke-linecap:round;stroke-linejoin:round;stroke-miterlimit:4;stroke-dasharray:none;stroke-dashoffset:4;stroke-opacity:0.71951222"
   sodipodi:type="arc" /><path
   sodipodi:type="arc"
   style="opacity:0.38139535;fill:url(#radialGradient3336);fill-opacity:1;fill-rule:nonzero;stroke:none;stroke-width:0;stroke-linecap:round;stroke-linejoin:round;stroke-miterlimit:4;stroke-dasharray:none;stroke-dashoffset:4;stroke-opacity:1"
   id="path1563"
   sodipodi:cx="63.912209"
   sodipodi:cy="115.70919"
   sodipodi:rx="63.912209"
   sodipodi:ry="12.641975"
   d="M 127.82442 115.70919 A 63.912209 12.641975 0 1 1  0,115.70919 A 63.912209 12.641975 0 1 1  127.82442 115.70919 z"
   transform="matrix(0.939264,0,0,0.3849253,-3.0936658e-2,70.655389)" />
<g
   id="g2875"
   transform="matrix(1.0000313,0,0,0.999943,-3.0598866,3.0690791)"><path
     id="path10166"
     d="M 79.467563,28.735491 C 78.501198,27.855616 77.41579,27.679107 75.798969,29.295107 L 5.6604287,100.8016 C 5.6284151,100.83359 5.627264,100.87023 5.5982457,100.90523 C 2.1044763,104.66123 2.1683853,110.53593 5.8262403,114.19093 C 9.4840946,117.84693 15.356025,117.91393 19.111936,114.41893 C 19.146955,114.39093 19.184557,114.38774 19.215571,114.35674 L 90.784243,44.238928 C 94.018884,41.007929 90.011598,39.90317 87.737445,37.627169 L 82.431455,32.32118 C 81.292378,31.18268 80.433928,29.615366 79.467563,28.735491 z M 19.111935,100.94669 C 22.043093,103.8779 22.044446,108.6292 19.111937,111.55866 C 16.182567,114.48654 11.432674,114.48832 8.4999596,111.55866 C 5.5672448,108.629 5.5690168,103.8777 8.4999575,100.94669 C 11.43089,98.017243 16.179233,98.017011 19.111935,100.94669 z "
     style="fill:url(#linearGradient2884);fill-opacity:1" /><path
     id="path3273"
     d="M 91.322739,40.558332 C 90.950016,40.150607 90.468128,39.773118 89.934063,39.376921 C 90.142477,40.00389 89.844751,40.835169 88.607565,42.071368 L 20.831849,108.85221 C 20.46786,109.83897 19.904661,110.7751 19.111548,111.56739 C 18.212172,112.4663 17.139874,113.08565 16.00257,113.43277 C 12.456618,116.11709 8.161624,116.53376 5.8258495,114.19965 C 9.483706,117.85565 15.355637,117.92265 19.111548,114.42764 C 19.146562,114.39965 19.184166,114.39646 19.215181,114.36547 L 90.78385,44.247653 C 92.40117,42.632153 92.2045,41.522897 91.322739,40.558332 z M 5.8258495,114.19965 C 3.4647402,111.84114 3.9339521,107.48723 6.6963633,103.9193 C 7.0516324,102.83609 7.6383268,101.81667 8.4995704,100.95541 C 9.2656119,100.18976 10.161638,99.621277 11.111112,99.255833 L 77.974861,31.480117 C 79.229198,30.226232 80.057719,29.953693 80.690035,30.174346 C 80.284319,29.631703 79.881926,29.121851 79.467171,28.744216 C 78.500805,27.864341 77.415396,27.687833 75.798577,29.303832 L 5.6600373,100.81032 C 5.628027,100.84232 5.6268736,100.87895 5.5978578,100.91395 C 2.1040863,104.66995 2.167997,110.54465 5.8258495,114.19965 z "
     style="opacity:0.4;fill:url(#linearGradient2886);fill-opacity:1" /><path
     style="fill:url(#linearGradient2888)"
     id="path64"
     d="M 121.78911,13.551226 L 106.25323,29.081227 C 102.86652,32.465227 96.607349,30.166227 93.21863,26.781227 C 89.834914,23.396225 87.533745,17.142226 90.918463,13.756226 L 106.45834,-1.7727759 C 95.581829,-5.930776 82.126001,0.87622454 77.887852,5.1122243 C 66.694173,16.298227 65.895768,31.653227 77.123464,42.873228 C 88.344156,54.091228 103.70694,53.421228 114.89962,42.234229 C 119.13777,37.997227 125.94922,24.420227 121.78911,13.551226 z " /><path
     sodipodi:nodetypes="cccccscc"
     d="M 121.78911,13.551226 L 106.25323,29.081227 C 102.86652,32.465227 96.607349,30.166227 93.21863,26.781227 C 89.834914,23.396225 87.533745,17.142226 90.918463,13.756226 L 106.45834,-1.7727759 C 95.581829,-5.930776 82.126001,0.87622454 77.887852,5.1122243 C 66.694173,16.298227 103.70694,53.421228 114.89962,42.234229 C 119.13777,37.997227 125.94922,24.420227 121.78911,13.551226 z "
     id="path9215"
     style="fill:url(#linearGradient2890);fill-opacity:1" /><path
     style="fill:url(#linearGradient2892);fill-opacity:1"
     id="path87"
     d="M 80.717287,7.9402247 C 75.798792,12.856225 73.089418,18.798227 73.089418,24.672226 L 73.088417,24.673226 C 73.089418,30.242227 75.462621,35.557227 79.9529,40.044228 C 84.480195,44.570228 89.835913,46.962229 95.439757,46.962228 L 95.439757,46.962228 C 101.28772,46.962229 107.19271,44.279229 112.06918,39.405228 C 114.88061,36.595228 118.62951,29.176227 118.99269,22.002227 C 114.41437,26.578227 109.08167,31.908227 109.08167,31.908227 C 104.0201,36.968228 95.437756,34.655227 90.389195,29.611227 C 87.317637,26.538227 85.256591,22.159227 85.256589,18.060226 C 85.25759,15.425226 86.109023,12.908225 88.087026,10.928226 C 88.088027,10.927226 93.582814,5.4352242 98.041075,0.98022418 C 90.529266,1.3282252 83.1085,5.5522245 80.717287,7.9402247 z " /><path
     d="M 80.717287,7.9402247 C 75.798792,12.856225 73.089418,18.798227 73.089418,24.672226 L 73.088417,24.673226 C 73.089418,30.242227 75.462621,35.557227 79.9529,40.044228 C 84.480195,44.570228 89.835913,46.962229 95.439757,46.962228 L 95.439757,46.962228 C 101.28772,46.962229 107.19271,44.279229 112.06918,39.405228 C 114.88061,36.595228 118.62951,29.176227 118.99269,22.002227 C 114.41437,26.578227 109.08167,31.908227 109.08167,31.908227 C 104.0201,36.968228 95.437756,34.655227 90.389195,29.611227 C 87.317637,26.538227 85.256591,22.159227 85.256589,18.060226 C 85.25759,15.425226 86.109023,12.908225 88.087026,10.928226 C 88.088027,10.927226 93.582814,5.4352242 98.041075,0.98022418 C 90.529266,1.3282252 83.1085,5.5522245 80.717287,7.9402247 z "
     id="path6130"
     style="opacity:0.5;fill:url(#linearGradient2894);fill-opacity:1" /><path
     id="path13126"
     d="M 5.6555605,100.80302 C 5.623547,100.83501 5.6259554,100.85596 5.5969371,100.89096 C 2.1031676,104.64696 2.173576,110.54348 5.8314309,114.19848 C 9.4892856,117.85447 15.353732,117.92797 19.109642,114.43297 C 19.144661,114.40498 19.195875,114.37604 19.226889,114.34504 L 21.10284,112.46909 C 21.071825,112.50009 21.020611,112.52903 20.985593,112.55702 C 17.229682,116.05202 11.365236,115.97852 7.7073813,112.32253 C 4.0495264,108.66753 3.9791179,102.77101 7.4728875,99.015007 C 7.5019058,98.980011 7.4994974,98.959066 7.5315109,98.927072 L 5.6555605,100.80302 z "
     style="fill:url(#linearGradient2896);fill-opacity:1" /></g></svg>