<?xml version="1.0" encoding="UTF-8" standalone="no"?>
<!-- Created with Inkscape (http://www.inkscape.org/) -->
<svg
   xmlns:dc="http://purl.org/dc/elements/1.1/"
   xmlns:cc="http://web.resource.org/cc/"
   xmlns:rdf="http://www.w3.org/1999/02/22-rdf-syntax-ns#"
   xmlns:svg="http://www.w3.org/2000/svg"
   xmlns="http://www.w3.org/2000/svg"
   xmlns:xlink="http://www.w3.org/1999/xlink"
   xmlns:sodipodi="http://sodipodi.sourceforge.net/DTD/sodipodi-0.dtd"
   xmlns:inkscape="http://www.inkscape.org/namespaces/inkscape"
   width="128"
   height="128"
   id="svg1307"
   sodipodi:version="0.32"
   inkscape:version="0.44"
   version="1.0"
   sodipodi:docbase="/home/pinheiro/artwork/Oxygen/theme/svg/actions"
   sodipodi:docname="ark_view_ark.svg">
  <defs
     id="defs1309">
    <linearGradient
       inkscape:collect="always"
       id="linearGradient3654">
      <stop
         style="stop-color:white;stop-opacity:1;"
         offset="0"
         id="stop3656" />
      <stop
         style="stop-color:white;stop-opacity:0;"
         offset="1"
         id="stop3658" />
    </linearGradient>
    <linearGradient
       inkscape:collect="always"
       id="linearGradient3272">
      <stop
         style="stop-color:white;stop-opacity:1;"
         offset="0"
         id="stop3274" />
      <stop
         style="stop-color:white;stop-opacity:0;"
         offset="1"
         id="stop3276" />
    </linearGradient>
    <linearGradient
       inkscape:collect="always"
       id="linearGradient3194">
      <stop
         style="stop-color:#967239;stop-opacity:1;"
         offset="0"
         id="stop3196" />
      <stop
         style="stop-color:#967239;stop-opacity:0;"
         offset="1"
         id="stop3198" />
    </linearGradient>
    <linearGradient
       id="linearGradient2257">
      <stop
         id="stop2259"
         offset="0"
         style="stop-color:#8f6b32;stop-opacity:1;" />
      <stop
         id="stop2261"
         offset="1"
         style="stop-color:#debc85;stop-opacity:1;" />
    </linearGradient>
    <linearGradient
       inkscape:collect="always"
       xlink:href="#linearGradient2257"
       id="linearGradient3174"
       x1="63.109283"
       y1="123.58058"
       x2="42.708179"
       y2="36.313725"
       gradientUnits="userSpaceOnUse"
       gradientTransform="matrix(1.282021,0,0,1.282021,-16.73149,-41.65718)" />
    <linearGradient
       inkscape:collect="always"
       xlink:href="#linearGradient3194"
       id="linearGradient3200"
       x1="61.060928"
       y1="67.373436"
       x2="61.060928"
       y2="84.336159"
       gradientUnits="userSpaceOnUse"
       gradientTransform="matrix(1.282021,0,0,1.282021,-16.73149,-41.65718)" />
    <linearGradient
       inkscape:collect="always"
       xlink:href="#linearGradient2257"
       id="linearGradient3202"
       gradientUnits="userSpaceOnUse"
       gradientTransform="matrix(1.282021,0,0,0.381859,-16.73149,1.246937)"
       x1="76.601013"
       y1="165.6929"
       x2="37.203804"
       y2="33.424469" />
    <linearGradient
       inkscape:collect="always"
       xlink:href="#linearGradient3272"
       id="linearGradient3278"
       x1="106.37579"
       y1="-8.5763578"
       x2="21.697437"
       y2="138.35936"
       gradientUnits="userSpaceOnUse" />
    <linearGradient
       inkscape:collect="always"
       xlink:href="#linearGradient3272"
       id="linearGradient3280"
       gradientUnits="userSpaceOnUse"
       x1="106.37579"
       y1="-8.5763578"
       x2="21.697437"
       y2="138.35936" />
    <linearGradient
       inkscape:collect="always"
       xlink:href="#linearGradient3272"
       id="linearGradient3282"
       gradientUnits="userSpaceOnUse"
       x1="106.37579"
       y1="-8.5763578"
       x2="21.697437"
       y2="138.35936" />
    <linearGradient
       inkscape:collect="always"
       xlink:href="#linearGradient3272"
       id="linearGradient3284"
       gradientUnits="userSpaceOnUse"
       x1="106.37579"
       y1="-8.5763578"
       x2="21.697437"
       y2="138.35936" />
    <linearGradient
       inkscape:collect="always"
       xlink:href="#linearGradient3272"
       id="linearGradient3286"
       gradientUnits="userSpaceOnUse"
       x1="106.37579"
       y1="-8.5763578"
       x2="21.697437"
       y2="138.35936" />
    <linearGradient
       inkscape:collect="always"
       xlink:href="#linearGradient3272"
       id="linearGradient3288"
       gradientUnits="userSpaceOnUse"
       x1="106.37579"
       y1="-8.5763578"
       x2="21.697437"
       y2="138.35936" />
    <linearGradient
       inkscape:collect="always"
       xlink:href="#linearGradient3272"
       id="linearGradient3290"
       gradientUnits="userSpaceOnUse"
       x1="106.37579"
       y1="-8.5763578"
       x2="21.697437"
       y2="138.35936" />
    <linearGradient
       inkscape:collect="always"
       xlink:href="#linearGradient3272"
       id="linearGradient3292"
       gradientUnits="userSpaceOnUse"
       x1="106.37579"
       y1="-8.5763578"
       x2="21.697437"
       y2="138.35936" />
    <linearGradient
       inkscape:collect="always"
       xlink:href="#linearGradient3654"
       id="linearGradient3660"
       x1="112.39521"
       y1="52.859375"
       x2="103.28125"
       y2="59.734375"
       gradientUnits="userSpaceOnUse"
       gradientTransform="matrix(1.278584,0,0,1.278584,-18.49577,-43.79903)" />
    <linearGradient
       inkscape:collect="always"
       xlink:href="#linearGradient3654"
       id="linearGradient3662"
       x1="119.58964"
       y1="42.13184"
       x2="103.77021"
       y2="63.31934"
       gradientUnits="userSpaceOnUse"
       gradientTransform="matrix(1.278584,0,0,1.278584,-18.49577,-43.79903)" />
    <linearGradient
       id="linearGradient3291"
       inkscape:collect="always">
      <stop
         id="stop3293"
         offset="0"
         style="stop-color:#000000;stop-opacity:1;" />
      <stop
         id="stop3295"
         offset="1"
         style="stop-color:#000000;stop-opacity:0;" />
    </linearGradient>
    <radialGradient
       inkscape:collect="always"
       xlink:href="#linearGradient3291"
       id="radialGradient4000"
       gradientUnits="userSpaceOnUse"
       gradientTransform="matrix(1,0,0,0.197802,0,92.82166)"
       cx="63.912209"
       cy="115.70919"
       fx="63.912209"
       fy="115.7093"
       r="63.912209" />
  </defs>
  <sodipodi:namedview
     id="base"
     pagecolor="#ffffff"
     bordercolor="#666666"
     borderopacity="1.0"
     inkscape:pageopacity="0.0"
     inkscape:pageshadow="2"
     inkscape:zoom="4.0000001"
     inkscape:cx="109.18652"
     inkscape:cy="41.844214"
     inkscape:current-layer="layer1"
     showgrid="false"
     inkscape:document-units="px"
     inkscape:grid-bbox="true"
     guidetolerance="0.1px"
     showguides="true"
     inkscape:guide-bbox="true"
     inkscape:window-width="1106"
     inkscape:window-height="1011"
     inkscape:window-x="733"
     inkscape:window-y="43">
    <sodipodi:guide
       orientation="horizontal"
       position="32.487481"
       id="guide2204" />
  </sodipodi:namedview>
  <metadata
     id="metadata1312">
    <rdf:RDF>
      <cc:Work
         rdf:about="">
        <dc:format>image/svg+xml</dc:format>
        <dc:type
           rdf:resource="http://purl.org/dc/dcmitype/StillImage" />
        <cc:license
           rdf:resource="http://creativecommons.org/licenses/GPL/2.0/" />
        <dc:contributor>
          <cc:Agent>
            <dc:title>Oxygen team</dc:title>
          </cc:Agent>
        </dc:contributor>
      </cc:Work>
      <cc:License
         rdf:about="http://creativecommons.org/licenses/LGPL/2.1/">
        <cc:permits
           rdf:resource="http://web.resource.org/cc/Reproduction" />
        <cc:permits
           rdf:resource="http://web.resource.org/cc/Distribution" />
        <cc:requires
           rdf:resource="http://web.resource.org/cc/Notice" />
        <cc:permits
           rdf:resource="http://web.resource.org/cc/DerivativeWorks" />
        <cc:requires
           rdf:resource="http://web.resource.org/cc/ShareAlike" />
        <cc:requires
           rdf:resource="http://web.resource.org/cc/SourceCode" />
      </cc:License>
    </rdf:RDF>
  </metadata>
  <g
     id="layer1"
     inkscape:label="Layer 1"
     inkscape:groupmode="layer">
    <path
       sodipodi:nodetypes="ccc"
       id="path2276"
       d="M 50.892799,3.2812959 L 50.892799,0.48658747 L 50.892799,3.2812959 z "
       style="fill:#ffffff;fill-opacity:0.75688076;fill-rule:nonzero;stroke:none;stroke-width:0.5;stroke-linecap:round;stroke-linejoin:round;stroke-miterlimit:4;stroke-dasharray:none;stroke-dashoffset:4;stroke-opacity:1" />
    <path
       sodipodi:nodetypes="ccc"
       id="path3206"
       d="M -68.609401,-83.348954 L -68.609401,-86.143663 L -68.609401,-83.348954 z "
       style="fill:white;fill-opacity:0.75688076;fill-rule:nonzero;stroke:none;stroke-width:0.5;stroke-linecap:round;stroke-linejoin:round;stroke-miterlimit:4;stroke-dasharray:none;stroke-dashoffset:4;stroke-opacity:1" />
    <g
       id="layer4"
       inkscape:label="box"
       style="display:inline"
       transform="translate(114.3422,61.23268)" />
    <g
       id="layer5"
       inkscape:label="zip_app"
       style="display:inline"
       transform="translate(114.3422,61.23268)" />
    <g
       id="g3343"
       transform="matrix(1.141228,0,0,0.91583,-7.655086,15.74374)"
       style="opacity:0.62">
      <path
         style="opacity:0.05"
         d="M 13.223,101.877 C 10.419,101.877 8.14,104.156 8.14,106.96 C 8.14,109.762 10.419,112.043 13.223,112.043 L 112.781,112.043 C 115.582,112.043 117.863,109.762 117.863,106.96 C 117.863,104.156 115.582,101.877 112.781,101.877 L 13.223,101.877 z "
         id="path3345" />
      <path
         style="opacity:0.1"
         d="M 13.223,102.893 C 10.979,102.893 9.156,104.716 9.156,106.96 C 9.156,109.202 10.979,111.027 13.223,111.027 L 112.781,111.027 C 115.023,111.027 116.847,109.202 116.847,106.96 C 116.847,104.716 115.023,102.893 112.781,102.893 L 13.223,102.893 z "
         id="path3347" />
      <path
         style="opacity:0.15"
         d="M 13.223,103.908 C 11.54,103.908 10.171,105.277 10.171,106.96 C 10.171,108.643 11.54,110.012 13.223,110.012 L 112.781,110.012 C 114.463,110.012 115.832,108.643 115.832,106.96 C 115.832,105.277 114.463,103.908 112.781,103.908 L 13.223,103.908 z "
         id="path3349" />
      <path
         style="opacity:0.2"
         d="M 13.223,104.924 C 12.1,104.924 11.187,105.837 11.187,106.96 C 11.187,108.081 12.1,108.996 13.223,108.996 L 112.781,108.996 C 113.902,108.996 114.816,108.081 114.816,106.96 C 114.816,105.837 113.902,104.924 112.781,104.924 L 13.223,104.924 z "
         id="path3351" />
      <path
         style="opacity:0.25"
         d="M 13.223,105.94 C 12.66,105.94 12.203,106.396 12.203,106.96 C 12.203,107.524 12.659,107.98 13.223,107.98 L 112.781,107.98 C 113.343,107.98 113.801,107.524 113.801,106.96 C 113.801,106.396 113.344,105.94 112.781,105.94 L 13.223,105.94 z "
         id="path3353" />
    </g>
    <rect
       style="opacity:1;fill:url(#linearGradient3174);fill-opacity:1;fill-rule:nonzero;stroke:none;stroke-width:1.63090873;stroke-linecap:round;stroke-linejoin:round;stroke-miterlimit:4;stroke-dasharray:none;stroke-dashoffset:4;stroke-opacity:1"
       id="rect2270"
       width="113.97591"
       height="94.032318"
       x="7.1879911"
       y="19.44739"
       rx="1.5239433"
       ry="1.5239433" />
    <path
       style="opacity:0.87704923;fill:black;fill-opacity:1;fill-rule:nonzero;stroke:none;stroke-width:3.20000005;stroke-linecap:round;stroke-linejoin:round;stroke-miterlimit:4;stroke-dasharray:none;stroke-dashoffset:4;stroke-opacity:1"
       d="M 93.582441,42.902258 C 86.155947,43.051235 79.644415,47.336488 75.121464,53.743435 C 70.598512,60.150384 67.932537,68.748775 68.121161,78.151571 C 68.309784,87.554357 71.305423,96.02956 76.081683,102.24996 C 80.857941,108.47035 87.580792,112.49672 95.007281,112.34774 C 102.43378,112.19876 108.97628,107.91351 113.49923,101.50656 C 118.02218,95.099612 120.62619,86.501224 120.43759,77.098429 C 120.24895,67.695643 117.31528,59.220443 112.53901,53.00004 C 107.76276,46.779639 101.00894,42.753278 93.582441,42.902258 z M 34.513512,43.242981 C 27.157355,43.095413 20.473812,47.086348 15.742788,53.247839 C 11.011763,59.409331 8.0930008,67.784694 7.9061658,77.098429 C 7.7193301,86.412173 10.302453,94.912491 14.78257,101.25877 C 19.262686,107.60503 25.732511,111.85945 33.088672,112.00702 C 40.444832,112.15459 47.128371,108.16365 51.859396,102.00216 C 56.590421,95.840676 59.540157,87.465306 59.726993,78.151571 C 59.913829,68.837827 57.299731,60.337505 52.819614,53.991234 C 48.339499,47.644966 41.869672,43.390547 34.513512,43.242981 z M 92.622222,51.699099 C 98.529179,51.699103 103.82285,55.00948 107.5211,60.031318 C 111.21935,65.05315 113.40631,71.849728 113.40631,79.328614 C 113.40631,86.807493 111.21936,93.5731 107.5211,98.594934 C 103.82285,103.61679 98.529179,106.92715 92.622222,106.92715 C 86.715258,106.92715 81.421603,103.61677 77.723347,98.594934 C 75.125667,95.067566 73.275527,90.668869 72.395683,85.77137 C 74.481275,87.856963 77.361811,89.147622 80.542053,89.147623 C 86.902535,89.147623 92.064679,83.985483 92.064676,77.625 C 92.064676,71.264518 86.902534,66.102374 80.542053,66.102377 C 77.857021,66.102377 75.408568,67.038716 73.448826,68.580361 C 74.462552,65.383965 75.904449,62.501192 77.723347,60.031318 C 81.421596,55.009476 86.715265,51.699099 92.622222,51.699099 z M 35.473731,51.946897 C 41.324749,51.946897 46.554507,55.21191 50.217732,60.186192 C 51.928554,62.509307 53.310827,65.230895 54.306404,68.208663 C 52.435152,66.895699 50.166645,66.102376 47.708773,66.102377 C 41.348292,66.102377 36.186149,71.264519 36.186151,77.625 C 36.186151,83.985482 41.348291,89.147621 47.708773,89.147623 C 50.686137,89.147623 53.375871,87.998759 55.421497,86.143068 C 54.519605,90.819813 52.713723,95.019798 50.217732,98.409085 C 46.554507,103.38336 41.324751,106.64838 35.473731,106.64838 C 29.622711,106.64838 24.392957,103.38336 20.72973,98.409085 C 17.066501,93.434807 14.875494,86.705689 14.875494,79.297639 C 14.875493,71.889582 17.066503,65.160464 20.72973,60.186192 C 24.392955,55.211918 29.622714,51.9469 35.473731,51.946897 z "
       id="path3136" />
    <rect
       ry="1.5239433"
       rx="1.5239433"
       y="19.44739"
       x="7.1879911"
       height="52.421364"
       width="113.97591"
       id="rect3192"
       style="opacity:1;fill:url(#linearGradient3200);fill-opacity:1;fill-rule:nonzero;stroke:none;stroke-width:1.63090873;stroke-linecap:round;stroke-linejoin:round;stroke-miterlimit:4;stroke-dasharray:none;stroke-dashoffset:4;stroke-opacity:1" />
    <path
       style="fill:url(#linearGradient3202);fill-opacity:1;fill-rule:nonzero;stroke:none;stroke-width:1.63090873;stroke-linecap:round;stroke-linejoin:round;stroke-miterlimit:4;stroke-dashoffset:4;stroke-opacity:1"
       d="M 9.1417166,19.447394 L 119.21014,19.447394 C 120.2925,19.447394 121.16387,20.318757 121.16387,21.401121 L 127.57399,45.501899 C 127.57399,46.584265 126.70261,47.455625 125.62024,47.455625 L 2.7316131,47.455625 C 1.6492469,47.455625 0.77788415,46.584265 0.77788415,45.501899 L 7.1879902,21.401121 C 7.1879902,20.318757 8.0593517,19.447394 9.1417166,19.447394 z "
       id="rect3187"
       sodipodi:nodetypes="ccccccccc" />
    <g
       id="g3231"
       transform="matrix(1.188824,0,0,0.516324,-12.03871,-3.814206)"
       style="opacity:0.704918;fill:none;fill-opacity:1;stroke:url(#linearGradient3278)">
      <path
         id="path3217"
         d="M 18,47.999999 L 110.25,47.999999"
         style="fill:none;fill-opacity:1;fill-rule:evenodd;stroke:url(#linearGradient3280);stroke-width:2.5;stroke-linecap:round;stroke-linejoin:round;stroke-miterlimit:4;stroke-dasharray:none;stroke-opacity:0.12601624" />
      <path
         style="fill:none;fill-opacity:1;fill-rule:evenodd;stroke:url(#linearGradient3282);stroke-width:2.0999999;stroke-linecap:round;stroke-linejoin:round;stroke-miterlimit:4;stroke-dasharray:none;stroke-opacity:0.12601624"
         d="M 18,47.799999 L 110.25,47.799999"
         id="path3219" />
      <path
         id="path3221"
         d="M 18,47.699999 L 110.25,47.699999"
         style="fill:none;fill-opacity:1;fill-rule:evenodd;stroke:url(#linearGradient3284);stroke-width:1.89999998;stroke-linecap:round;stroke-linejoin:round;stroke-miterlimit:4;stroke-dasharray:none;stroke-opacity:0.12601624" />
      <path
         style="fill:none;fill-opacity:1;fill-rule:evenodd;stroke:url(#linearGradient3286);stroke-width:1.79999995;stroke-linecap:round;stroke-linejoin:round;stroke-miterlimit:4;stroke-dasharray:none;stroke-opacity:0.22357722"
         d="M 18,47.649999 L 110.25,47.649999"
         id="path3223" />
      <path
         id="path3225"
         d="M 18,47.649999 L 110.25,47.649999"
         style="fill:none;fill-opacity:1;fill-rule:evenodd;stroke:url(#linearGradient3288);stroke-width:1.60000002;stroke-linecap:round;stroke-linejoin:round;stroke-miterlimit:4;stroke-dasharray:none;stroke-opacity:0.22357722" />
      <path
         style="fill:none;fill-opacity:1;fill-rule:evenodd;stroke:url(#linearGradient3290);stroke-width:0.80000001;stroke-linecap:round;stroke-linejoin:round;stroke-miterlimit:4;stroke-dasharray:none;stroke-opacity:0.22357722"
         d="M 18,47.249999 L 110.25,47.249999"
         id="path3227" />
      <path
         id="path3229"
         d="M 18,47.199999 L 110.25,47.199999"
         style="fill:none;fill-opacity:1;fill-rule:evenodd;stroke:url(#linearGradient3292);stroke-width:0.5;stroke-linecap:round;stroke-linejoin:round;stroke-miterlimit:4;stroke-dasharray:none;stroke-opacity:0.22357722" />
    </g>
    <g
       id="g3254"
       transform="matrix(1.188824,0,0,1.188824,-31.96875,-143.5532)">
      <path
         id="path3240"
         d="M 27.65625,158.6875 L 27.53125,159.09375 C 27.53125,160.0042 28.277048,160.71875 29.1875,160.71875 L 132.53125,160.71875 C 133.44169,160.71875 134.1875,160.0042 134.1875,159.09375 L 134.0625,158.6875 C 133.8203,159.29223 133.22452,159.71875 132.53125,159.71875 L 29.1875,159.71875 C 28.49422,159.71875 27.898446,159.29224 27.65625,158.6875 z "
         style="fill:black;fill-opacity:0.06910568;fill-rule:nonzero;stroke:none;stroke-width:1.63090873;stroke-linecap:round;stroke-linejoin:round;stroke-miterlimit:4;stroke-dashoffset:4;stroke-opacity:1" />
      <path
         id="path3249"
         d="M 27.5625,159.03125 L 27.53125,159.09375 C 27.53125,160.0042 28.277048,160.71875 29.1875,160.71875 L 132.53125,160.71875 C 133.44169,160.71875 134.1875,160.0042 134.1875,159.09375 L 134.15625,159.03125 C 134.00105,159.77795 133.32788,160.31249 132.53125,160.3125 L 29.1875,160.3125 C 28.390855,160.3125 27.717698,159.77795 27.5625,159.03125 z "
         style="fill:black;fill-opacity:0.06910568;fill-rule:nonzero;stroke:none;stroke-width:1.63090873;stroke-linecap:round;stroke-linejoin:round;stroke-miterlimit:4;stroke-dashoffset:4;stroke-opacity:1" />
    </g>
    <g
       transform="matrix(1.188824,0,0,1.188824,-31.96875,-143.7911)"
       id="g3258">
      <path
         style="fill:black;fill-opacity:0.06910568;fill-rule:nonzero;stroke:none;stroke-width:1.63090873;stroke-linecap:round;stroke-linejoin:round;stroke-miterlimit:4;stroke-dashoffset:4;stroke-opacity:1"
         d="M 27.65625,158.6875 L 27.53125,159.09375 C 27.53125,160.0042 28.277048,160.71875 29.1875,160.71875 L 132.53125,160.71875 C 133.44169,160.71875 134.1875,160.0042 134.1875,159.09375 L 134.0625,158.6875 C 133.8203,159.29223 133.22452,159.71875 132.53125,159.71875 L 29.1875,159.71875 C 28.49422,159.71875 27.898446,159.29224 27.65625,158.6875 z "
         id="path3260" />
      <path
         style="fill:black;fill-opacity:0.06910568;fill-rule:nonzero;stroke:none;stroke-width:1.63090873;stroke-linecap:round;stroke-linejoin:round;stroke-miterlimit:4;stroke-dashoffset:4;stroke-opacity:1"
         d="M 27.5625,159.03125 L 27.53125,159.09375 C 27.53125,160.0042 28.277048,160.71875 29.1875,160.71875 L 132.53125,160.71875 C 133.44169,160.71875 134.1875,160.0042 134.1875,159.09375 L 134.15625,159.03125 C 134.00105,159.77795 133.32788,160.31249 132.53125,160.3125 L 29.1875,160.3125 C 28.390855,160.3125 27.717698,159.77795 27.5625,159.03125 z "
         id="path3262" />
    </g>
    <path
       id="path3294"
       d="M 103.15679,108.92869 C 102.9235,108.93019 102.73476,109.00222 102.59055,109.14475 C 102.44641,109.28606 102.36686,109.47943 102.35187,109.72487 C 102.33687,109.97032 102.39205,110.16343 102.51736,110.30419 C 102.64435,110.44373 102.82527,110.51273 103.06011,110.51121 C 103.29182,110.50969 103.47977,110.43769 103.62398,110.29515 C 103.76818,110.15263 103.84775,109.95926 103.86266,109.71504 C 103.87752,109.47205 103.82148,109.28016 103.69458,109.13941 C 103.56775,108.99742 103.38849,108.92717 103.15679,108.92869 M 103.17423,108.64294 C 103.55253,108.6405 103.84382,108.7338 104.04811,108.92288 C 104.25243,109.11198 104.34429,109.37502 104.32369,109.71204 C 104.30319,110.04785 104.17911,110.3123 103.95145,110.50542 C 103.72389,110.69731 103.42096,110.7945 103.04267,110.79693 C 102.66281,110.79943 102.37071,110.7061 102.16641,110.51702 C 101.96376,110.32669 101.87269,110.06366 101.8932,109.72785 C 101.91379,109.39082 102.03708,109.12639 102.26308,108.9345 C 102.49064,108.74259 102.79437,108.64542 103.17423,108.64294 M 107.15505,108.66647 L 106.13655,109.67097 L 107.0794,110.71759 L 106.56635,110.72093 L 105.84482,109.92003 L 105.02483,110.73097 L 104.51177,110.7343 L 105.60581,109.65427 L 104.72456,108.6823 L 105.23761,108.67896 L 105.89517,109.40521 L 106.64202,108.66982 L 107.15505,108.66647 M 108.78425,110.89693 C 108.64638,111.14193 108.51686,111.30206 108.39567,111.37731 C 108.27448,111.45254 108.11615,111.49081 107.92072,111.49208 L 107.57316,111.49434 L 107.59039,111.21227 L 107.84573,111.21061 C 107.96553,111.20982 108.05986,111.18723 108.12876,111.14285 C 108.19764,111.09847 108.27726,110.99419 108.36766,110.83007 L 108.45508,110.67567 L 107.50734,108.66419 L 107.96837,108.6612 L 108.69787,110.26032 L 109.62337,108.65044 L 110.08443,108.64743 L 108.78425,110.89693 M 112.36624,109.63409 C 112.38116,109.38987 112.32731,109.20103 112.20471,109.06755 C 112.08365,108.93408 111.9057,108.8681 111.67084,108.86964 C 111.43756,108.87115 111.25143,108.93949 111.11239,109.07466 C 110.97492,109.20983 110.89874,109.39951 110.88383,109.64373 C 110.869,109.88672 110.92209,110.07496 111.04314,110.20844 C 111.16576,110.34191 111.34369,110.4079 111.57697,110.40637 C 111.81184,110.40484 111.99798,110.33651 112.13544,110.20134 C 112.27446,110.06618 112.35141,109.87708 112.36624,109.63409 M 112.75272,110.42619 C 112.73138,110.77542 112.61545,111.03556 112.40491,111.20658 C 112.19428,111.37884 111.8825,111.4663 111.46954,111.46899 C 111.31664,111.46998 111.17298,111.46176 111.03853,111.44432 C 110.90403,111.42811 110.77408,111.40211 110.64861,111.36632 L 110.66865,111.03845 C 110.79305,111.09134 110.91673,111.13021 111.03967,111.15505 C 111.16261,111.17987 111.28871,111.19186 111.41797,111.19103 C 111.70327,111.18918 111.92037,111.12979 112.06933,111.01286 C 112.21818,110.89716 112.29975,110.72268 112.31399,110.48946 L 112.32417,110.32279 C 112.22694,110.44425 112.10637,110.53535 111.96242,110.59611 C 111.81849,110.65685 111.6488,110.68787 111.45336,110.68914 C 111.12867,110.69125 110.87285,110.59709 110.68598,110.40669 C 110.49907,110.21626 110.4153,109.9629 110.43462,109.64665 C 110.45402,109.32916 110.56886,109.07392 110.77916,108.88092 C 110.98948,108.68793 111.257,108.59038 111.58169,108.58824 C 111.77712,108.587 111.94317,108.6158 112.0798,108.67473 C 112.21642,108.73365 112.32595,108.82327 112.40842,108.94357 L 112.42746,108.63218 L 112.86248,108.62934 L 112.75272,110.42619 M 115.96602,109.55026 L 115.95595,109.71509 L 113.95578,109.7281 C 113.96052,109.95998 114.03954,110.13645 114.19284,110.25751 C 114.34782,110.37735 114.56952,110.43634 114.85796,110.43446 C 115.02503,110.43337 115.18756,110.41644 115.34555,110.38369 C 115.50512,110.3509 115.66406,110.30225 115.82241,110.23777 L 115.80294,110.55647 C 115.64378,110.60877 115.4814,110.64888 115.31582,110.67683 C 115.15027,110.70475 114.98315,110.71926 114.8145,110.72036 C 114.39208,110.72311 114.06296,110.63004 113.82712,110.44116 C 113.59288,110.25227 113.48566,109.99544 113.50551,109.67062 C 113.52603,109.33481 113.65892,109.06787 113.90422,108.86974 C 114.15114,108.67041 114.47322,108.56945 114.87042,108.56684 C 115.22663,108.56456 115.50254,108.65187 115.69814,108.82877 C 115.89539,109.00449 115.98467,109.24498 115.96602,109.55026 M 115.53704,109.45416 C 115.54516,109.26981 115.48715,109.12309 115.36303,109.01404 C 115.24051,108.90501 115.07206,108.85117 114.8577,108.85256 C 114.61496,108.85414 114.41704,108.90853 114.26397,109.01572 C 114.11248,109.12288 114.01979,109.27303 113.98595,109.4661 L 115.53704,109.45416 M 118.87961,109.40313 L 118.80395,110.64132 L 118.36892,110.64414 L 118.44389,109.41696 C 118.45575,109.22278 118.41576,109.07781 118.32393,108.98197 C 118.2321,108.88616 118.08845,108.83887 117.89301,108.84012 C 117.65817,108.84166 117.46942,108.90088 117.32678,109.01775 C 117.18413,109.13463 117.1067,109.29322 117.09447,109.49347 L 117.02364,110.65289 L 116.58625,110.65573 L 116.71156,108.60432 L 117.14895,108.60148 L 117.12949,108.92017 C 117.24105,108.79617 117.36882,108.70319 117.51283,108.64121 C 117.65842,108.57923 117.82345,108.54764 118.00785,108.54644 C 118.31205,108.54447 118.5377,108.61624 118.68479,108.76175 C 118.83196,108.90604 118.89689,109.11985 118.87961,109.40313"
       style="font-size:3.58423424px;font-style:normal;font-variant:normal;font-weight:normal;font-stretch:normal;text-align:start;line-height:125%;writing-mode:lr-tb;text-anchor:start;opacity:0.7;fill:#d4c4aa;fill-opacity:1;stroke:none;stroke-width:1px;stroke-linecap:butt;stroke-linejoin:miter;stroke-opacity:1;font-family:Bitstream Vera Sans" />
    <text
       transform="matrix(1.190557,9.651268e-3,-8.059836e-3,0.839878,0,0)"
       sodipodi:linespacing="125%"
       id="text3296"
       y="131.07449"
       x="75.758865"
       style="font-size:6.42132568px;font-style:normal;font-variant:normal;font-weight:normal;font-stretch:normal;text-align:start;line-height:125%;writing-mode:lr-tb;text-anchor:start;fill:#c0aa86;fill-opacity:1;stroke:none;stroke-width:1px;stroke-linecap:butt;stroke-linejoin:miter;stroke-opacity:1;font-family:Bitstream Vera Sans"
       xml:space="preserve"><tspan
         y="131.07449"
         x="75.758865"
         id="tspan3298"
         sodipodi:role="line">ark</tspan></text>
    <rect
       height="128"
       width="128"
       id="_x3C_Sezione_x3E_"
       x="8.1248837"
       y="-142.8287"
       style="fill:none" />
    <path
       style="opacity:0.20901639;fill:url(#linearGradient3662);fill-opacity:1;fill-rule:nonzero;stroke:none;stroke-width:1.63090873;stroke-linecap:round;stroke-linejoin:round;stroke-miterlimit:4;stroke-dashoffset:4;stroke-opacity:1"
       d="M 117.30858,19.997516 C 118.39094,19.997514 119.20991,20.901236 119.5772,22.308511 L 125.97012,45.890397 C 125.97012,46.537111 125.65232,47.133435 125.17101,47.488627 C 126.25337,47.488627 127.12883,46.613159 127.12883,45.530795 L 120.69596,21.908953 C 120.69596,20.826588 119.82049,19.991079 118.73813,19.991077 L 117.30858,19.997516 z "
       id="path3640"
       sodipodi:nodetypes="cccccccc" />
    <path
       style="opacity:0.20901639;fill:url(#linearGradient3660);fill-opacity:1;fill-rule:nonzero;stroke:none;stroke-width:1.63090873;stroke-linecap:round;stroke-linejoin:round;stroke-miterlimit:4;stroke-dashoffset:4;stroke-opacity:1"
       d="M 118.073,20.002312 C 119.15535,20.002308 119.98318,20.912471 120.35048,22.319745 L 126.7434,45.901631 C 126.7434,46.35576 126.56387,46.761917 126.30388,47.100304 C 126.79794,46.74512 127.14295,46.197815 127.14295,45.54203 L 120.71007,21.920188 C 120.71007,20.837821 119.83461,20.002313 118.75225,20.002312 L 118.073,20.002312 z "
       id="path3649"
       sodipodi:nodetypes="cccccccc" />
    <path
       sodipodi:nodetypes="ccc"
       id="path3946"
       d="M 177.982,-17.593684 L 177.982,-20.388393 L 177.982,-17.593684 z "
       style="fill:white;fill-opacity:0.75688076;fill-rule:nonzero;stroke:none;stroke-width:0.5;stroke-linecap:round;stroke-linejoin:round;stroke-miterlimit:4;stroke-dasharray:none;stroke-dashoffset:4;stroke-opacity:1" />
    <path
       sodipodi:type="arc"
       style="opacity:0.38139535;fill:url(#radialGradient4000);fill-opacity:1;fill-rule:nonzero;stroke:none;stroke-width:0;stroke-linecap:round;stroke-linejoin:round;stroke-miterlimit:4;stroke-dasharray:none;stroke-dashoffset:4;stroke-opacity:1"
       id="path3289"
       sodipodi:cx="63.912209"
       sodipodi:cy="115.70919"
       sodipodi:rx="63.912209"
       sodipodi:ry="12.641975"
       d="M 127.82442 115.70919 A 63.912209 12.641975 0 1 1  0,115.70919 A 63.912209 12.641975 0 1 1  127.82442 115.70919 z"
       transform="matrix(1,0,0,0.416667,8.919899e-2,74.49653)" />
    <rect
       style="opacity:0.57786889;fill:white;fill-opacity:1;fill-rule:nonzero;stroke:none;stroke-width:3.63199997;stroke-linecap:round;stroke-linejoin:round;stroke-miterlimit:4;stroke-dasharray:none;stroke-dashoffset:4;stroke-opacity:1"
       id="rect1327"
       width="1"
       height="0"
       x="27.87281"
       y="-0.29999" />
  </g>
</svg>
