<?xml version="1.0" encoding="UTF-8" standalone="no"?>
<!-- Created with Inkscape (http://www.inkscape.org/) -->
<svg
   xmlns:dc="http://purl.org/dc/elements/1.1/"
   xmlns:cc="http://web.resource.org/cc/"
   xmlns:rdf="http://www.w3.org/1999/02/22-rdf-syntax-ns#"
   xmlns:svg="http://www.w3.org/2000/svg"
   xmlns="http://www.w3.org/2000/svg"
   xmlns:xlink="http://www.w3.org/1999/xlink"
   xmlns:sodipodi="http://sodipodi.sourceforge.net/DTD/sodipodi-0.dtd"
   xmlns:inkscape="http://www.inkscape.org/namespaces/inkscape"
   width="128"
   height="128"
   id="svg1307"
   sodipodi:version="0.32"
   inkscape:version="0.44"
   version="1.0"
   sodipodi:docbase="/home/pinheiro/artwork/Oxygen/theme/svg/actions"
   sodipodi:docname="battery.svg"
   inkscape:export-filename="/home/pinheiro/artwork/Oxygen/theme/svg/actions/small/battery22-100.png"
   inkscape:export-xdpi="90"
   inkscape:export-ydpi="90">
  <defs
     id="defs1309">
    <linearGradient
       id="linearGradient2860">
      <stop
         style="stop-color:#03004d;stop-opacity:1;"
         offset="0"
         id="stop2862" />
      <stop
         id="stop2872"
         offset="0.0989011"
         style="stop-color:#0d004d;stop-opacity:0.01960784;" />
      <stop
         id="stop2870"
         offset="0.5"
         style="stop-color:#004d00;stop-opacity:0;" />
      <stop
         style="stop-color:#00024d;stop-opacity:0.02352941;"
         offset="0.86263734"
         id="stop2874" />
      <stop
         style="stop-color:#05004d;stop-opacity:1;"
         offset="1"
         id="stop2864" />
    </linearGradient>
    <radialGradient
       id="XMLID_15_"
       cx="538.77338"
       cy="651.10352"
       r="126.0234"
       gradientTransform="translate(-484,-674)"
       gradientUnits="userSpaceOnUse">
      <stop
         offset="0"
         style="stop-color:#CCEAAC"
         id="stop137" />
      <stop
         offset="0.5393"
         style="stop-color:#3BA42A"
         id="stop139" />
      <stop
         offset="1"
         style="stop-color:#91E851"
         id="stop141" />
    </radialGradient>
    <linearGradient
       inkscape:collect="always"
       id="linearGradient2865">
      <stop
         style="stop-color:#bf0303;stop-opacity:1;"
         offset="0"
         id="stop2867" />
      <stop
         style="stop-color:#bf0303;stop-opacity:0;"
         offset="1"
         id="stop2869" />
    </linearGradient>
    <linearGradient
       inkscape:collect="always"
       id="linearGradient2852">
      <stop
         style="stop-color:black;stop-opacity:1;"
         offset="0"
         id="stop2854" />
      <stop
         style="stop-color:black;stop-opacity:0;"
         offset="1"
         id="stop2856" />
    </linearGradient>
    <linearGradient
       inkscape:collect="always"
       id="linearGradient3832">
      <stop
         style="stop-color:white;stop-opacity:1;"
         offset="0"
         id="stop3834" />
      <stop
         style="stop-color:white;stop-opacity:0;"
         offset="1"
         id="stop3836" />
    </linearGradient>
    <linearGradient
       inkscape:collect="always"
       id="linearGradient3822">
      <stop
         style="stop-color:white;stop-opacity:1;"
         offset="0"
         id="stop3824" />
      <stop
         style="stop-color:white;stop-opacity:0;"
         offset="1"
         id="stop3826" />
    </linearGradient>
    <linearGradient
       inkscape:collect="always"
       id="linearGradient2919">
      <stop
         style="stop-color:white;stop-opacity:1;"
         offset="0"
         id="stop2921" />
      <stop
         style="stop-color:white;stop-opacity:0;"
         offset="1"
         id="stop2923" />
    </linearGradient>
    <linearGradient
       id="linearGradient2895">
      <stop
         style="stop-color:white;stop-opacity:1;"
         offset="0"
         id="stop2897" />
      <stop
         style="stop-color:white;stop-opacity:0;"
         offset="1"
         id="stop2899" />
    </linearGradient>
    <linearGradient
       inkscape:collect="always"
       id="linearGradient4081">
      <stop
         style="stop-color:#2e3436;stop-opacity:1;"
         offset="0"
         id="stop4083" />
      <stop
         style="stop-color:#2e3436;stop-opacity:0;"
         offset="1"
         id="stop4085" />
    </linearGradient>
    <linearGradient
       inkscape:collect="always"
       xlink:href="#linearGradient2916"
       id="linearGradient3005"
       gradientUnits="userSpaceOnUse"
       gradientTransform="matrix(8.560082e-2,0,0,1.017614,-47.82096,3.651065e-2)"
       x1="26.446152"
       y1="65.760353"
       x2="64.747475"
       y2="65.760353" />
    <linearGradient
       inkscape:collect="always"
       xlink:href="#linearGradient2916"
       id="linearGradient3008"
       gradientUnits="userSpaceOnUse"
       gradientTransform="matrix(0.540941,0,0,1.017614,27.03184,3.651065e-2)"
       x1="26.446152"
       y1="65.760353"
       x2="52.304092"
       y2="65.760254" />
    <linearGradient
       inkscape:collect="always"
       xlink:href="#linearGradient2874"
       id="linearGradient3011"
       gradientUnits="userSpaceOnUse"
       gradientTransform="matrix(0.850729,0,0,0.906718,25.94577,-131.9927)"
       x1="43.918915"
       y1="7.8450942"
       x2="43.918915"
       y2="14.355825" />
    <linearGradient
       inkscape:collect="always"
       xlink:href="#linearGradient2874"
       id="linearGradient3014"
       gradientUnits="userSpaceOnUse"
       gradientTransform="matrix(0.850729,0,0,0.883896,25.94577,-131.7351)"
       x1="43.918915"
       y1="-35.670052"
       x2="43.918915"
       y2="54.970299" />
    <linearGradient
       inkscape:collect="always"
       xlink:href="#linearGradient2874"
       id="linearGradient3020"
       gradientUnits="userSpaceOnUse"
       gradientTransform="matrix(0.850729,0,0,1.017614,25.94577,-0.130603)"
       x1="69.07917"
       y1="1.0128831"
       x2="69.011536"
       y2="14.34282" />
    <linearGradient
       inkscape:collect="always"
       xlink:href="#linearGradient3082"
       id="linearGradient3096"
       gradientUnits="userSpaceOnUse"
       x1="5.6568542"
       y1="6.0850325"
       x2="5.6568542"
       y2="1.4639859"
       gradientTransform="matrix(4.287572,0,0,5.700416,48.60728,0.666451)" />
    <linearGradient
       inkscape:collect="always"
       xlink:href="#linearGradient3082"
       id="linearGradient3092"
       gradientUnits="userSpaceOnUse"
       x1="5.5593128"
       y1="-0.25962076"
       x2="5.5593128"
       y2="0.43399933"
       gradientTransform="matrix(4.287572,0,0,5.700416,48.60728,0.666451)" />
    <linearGradient
       inkscape:collect="always"
       id="linearGradient3082">
      <stop
         style="stop-color:black;stop-opacity:1;"
         offset="0"
         id="stop3084" />
      <stop
         style="stop-color:black;stop-opacity:0;"
         offset="1"
         id="stop3086" />
    </linearGradient>
    <linearGradient
       id="linearGradient3041">
      <stop
         id="stop3043"
         offset="0"
         style="stop-color:#303030;stop-opacity:1;" />
      <stop
         style="stop-color:#ddd;stop-opacity:1;"
         offset="0.11538462"
         id="stop3045" />
      <stop
         id="stop2848"
         offset="0.21628143"
         style="stop-color:silver;stop-opacity:1;" />
      <stop
         id="stop3053"
         offset="0.26590282"
         style="stop-color:#868686;stop-opacity:1;" />
      <stop
         style="stop-color:#a8a8a8;stop-opacity:1;"
         offset="0.28553563"
         id="stop3057" />
      <stop
         style="stop-color:#b4b4b4;stop-opacity:1;"
         offset="0.43724003"
         id="stop3055" />
      <stop
         style="stop-color:#e9e9e9;stop-opacity:1;"
         offset="0.69156802"
         id="stop3047" />
      <stop
         id="stop3049"
         offset="0.90384614"
         style="stop-color:#c1c1c1;stop-opacity:1;" />
      <stop
         id="stop3051"
         offset="1"
         style="stop-color:#5d5d5d;stop-opacity:1;" />
    </linearGradient>
    <linearGradient
       inkscape:collect="always"
       xlink:href="#linearGradient3041"
       id="linearGradient3077"
       x1="1.1209211"
       y1="1.022699"
       x2="5.8979483"
       y2="1.022699"
       gradientUnits="userSpaceOnUse"
       gradientTransform="matrix(4.287572,0,0,5.700416,48.60728,0.666451)" />
    <linearGradient
       inkscape:collect="always"
       id="linearGradient2916">
      <stop
         style="stop-color:white;stop-opacity:1;"
         offset="0"
         id="stop2918" />
      <stop
         style="stop-color:white;stop-opacity:0;"
         offset="1"
         id="stop2920" />
    </linearGradient>
    <linearGradient
       inkscape:collect="always"
       id="linearGradient2874">
      <stop
         style="stop-color:#414141;stop-opacity:1;"
         offset="0"
         id="stop2876" />
      <stop
         style="stop-color:#414141;stop-opacity:0;"
         offset="1"
         id="stop2878" />
    </linearGradient>
    <linearGradient
       inkscape:collect="always"
       id="linearGradient3291">
      <stop
         style="stop-color:#000000;stop-opacity:1;"
         offset="0"
         id="stop3293" />
      <stop
         style="stop-color:#000000;stop-opacity:0;"
         offset="1"
         id="stop3295" />
    </linearGradient>
    <radialGradient
       inkscape:collect="always"
       xlink:href="#linearGradient3291"
       id="radialGradient3297"
       cx="63.912209"
       cy="115.70919"
       fx="66.022942"
       fy="115.70919"
       r="63.912209"
       gradientTransform="matrix(1,0,0,0.197802,0,92.82166)"
       gradientUnits="userSpaceOnUse" />
    <linearGradient
       inkscape:collect="always"
       xlink:href="#linearGradient4081"
       id="linearGradient4087"
       x1="58.922195"
       y1="67.719147"
       x2="67.528694"
       y2="67.719147"
       gradientUnits="userSpaceOnUse"
       gradientTransform="matrix(0.82776,0,0,1.066307,-3.93939,-5.720918)" />
    <linearGradient
       inkscape:collect="always"
       xlink:href="#linearGradient2895"
       id="linearGradient2909"
       gradientUnits="userSpaceOnUse"
       x1="11.972158"
       y1="1.8372642"
       x2="10.88339"
       y2="5.9006019"
       gradientTransform="matrix(4.635469,0,0,6.162951,13.85333,-9.123909)" />
    <linearGradient
       inkscape:collect="always"
       xlink:href="#linearGradient2919"
       id="linearGradient2925"
       x1="16.153557"
       y1="11.921875"
       x2="15.121005"
       y2="11.921875"
       gradientUnits="userSpaceOnUse"
       gradientTransform="matrix(4.635469,0,0,6.162951,13.45514,-7.186)" />
    <linearGradient
       inkscape:collect="always"
       xlink:href="#linearGradient3822"
       id="linearGradient3828"
       x1="11.434079"
       y1="1.0289581"
       x2="11.174653"
       y2="2.2792649"
       gradientUnits="userSpaceOnUse"
       gradientTransform="matrix(4.834331,0,0,6.162951,11.69676,-7.186)" />
    <radialGradient
       inkscape:collect="always"
       xlink:href="#linearGradient3832"
       id="radialGradient3838"
       cx="12.308078"
       cy="3.0406888"
       fx="13.944797"
       fy="3.0406888"
       r="2.9831069"
       gradientTransform="matrix(1,0,0,2.962963e-2,0,2.950605)"
       gradientUnits="userSpaceOnUse" />
    <radialGradient
       inkscape:collect="always"
       xlink:href="#linearGradient3832"
       id="radialGradient3842"
       gradientUnits="userSpaceOnUse"
       gradientTransform="matrix(1,0,0,2.962963e-2,0,2.950605)"
       cx="12.308078"
       cy="3.0406888"
       fx="13.944797"
       fy="3.0406888"
       r="2.9831069" />
    <linearGradient
       inkscape:collect="always"
       xlink:href="#linearGradient2852"
       id="linearGradient2858"
       x1="59.375"
       y1="10.718748"
       x2="67.375"
       y2="21.718748"
       gradientUnits="userSpaceOnUse"
       gradientTransform="matrix(-0.796368,0,0,-1,114.793,24.4375)" />
    <linearGradient
       inkscape:collect="always"
       xlink:href="#linearGradient2865"
       id="linearGradient2871"
       x1="-14.169934"
       y1="52.959"
       x2="-44.796474"
       y2="64.645042"
       gradientUnits="userSpaceOnUse"
       gradientTransform="matrix(0,-1.536136,0.518423,0.174431,13.45514,0)" />
    <linearGradient
       inkscape:collect="always"
       xlink:href="#linearGradient2916"
       id="linearGradient3000"
       gradientUnits="userSpaceOnUse"
       gradientTransform="matrix(0.433662,0,0,1.017614,50.86314,-0.664732)"
       x1="38.875084"
       y1="67.528122"
       x2="90.409752"
       y2="67.528122" />
    <linearGradient
       inkscape:collect="always"
       xlink:href="#linearGradient2860"
       id="linearGradient2868"
       x1="41.32803"
       y1="66.664459"
       x2="87.517387"
       y2="66.664459"
       gradientUnits="userSpaceOnUse" />
  </defs>
  <sodipodi:namedview
     id="base"
     pagecolor="#ffffff"
     bordercolor="#666666"
     borderopacity="1.0"
     inkscape:pageopacity="0.0"
     inkscape:pageshadow="2"
     inkscape:zoom="4.2677452"
     inkscape:cx="41.719299"
     inkscape:cy="63.639609"
     inkscape:current-layer="layer1"
     showgrid="true"
     inkscape:document-units="px"
     inkscape:grid-bbox="true"
     guidetolerance="0.1px"
     showguides="true"
     inkscape:guide-bbox="true"
     inkscape:window-width="1106"
     inkscape:window-height="958"
     inkscape:window-x="482"
     inkscape:window-y="121"
     width="128px"
     height="128px">
    <sodipodi:guide
       orientation="horizontal"
       position="32.487481"
       id="guide2204" />
  </sodipodi:namedview>
  <metadata
     id="metadata1312">
    <rdf:RDF>
      <cc:Work
         rdf:about="">
        <dc:format>image/svg+xml</dc:format>
        <dc:type
           rdf:resource="http://purl.org/dc/dcmitype/StillImage" />
        <cc:license
           rdf:resource="http://creativecommons.org/licenses/GPL/2.0/" />
        <dc:contributor>
          <cc:Agent>
            <dc:title>Oxygen team</dc:title>
          </cc:Agent>
        </dc:contributor>
      </cc:Work>
      <cc:License
         rdf:about="http://creativecommons.org/licenses/LGPL/2.1/">
        <cc:permits
           rdf:resource="http://web.resource.org/cc/Reproduction" />
        <cc:permits
           rdf:resource="http://web.resource.org/cc/Distribution" />
        <cc:requires
           rdf:resource="http://web.resource.org/cc/Notice" />
        <cc:permits
           rdf:resource="http://web.resource.org/cc/DerivativeWorks" />
        <cc:requires
           rdf:resource="http://web.resource.org/cc/ShareAlike" />
        <cc:requires
           rdf:resource="http://web.resource.org/cc/SourceCode" />
      </cc:License>
    </rdf:RDF>
  </metadata>
  <g
     id="layer1"
     inkscape:label="Layer 1"
     inkscape:groupmode="layer">
    <path
       sodipodi:type="arc"
       style="opacity:0.38139535;fill:url(#radialGradient3297);fill-opacity:1;fill-rule:nonzero;stroke:none;stroke-width:0;stroke-linecap:round;stroke-linejoin:round;stroke-miterlimit:4;stroke-dasharray:none;stroke-dashoffset:4;stroke-opacity:1"
       id="path3289"
       sodipodi:cx="63.912209"
       sodipodi:cy="115.70919"
       sodipodi:rx="63.912209"
       sodipodi:ry="12.641975"
       d="M 127.82442 115.70919 A 63.912209 12.641975 0 1 1  0,115.70919 A 63.912209 12.641975 0 1 1  127.82442 115.70919 z"
       transform="matrix(0.474227,0,0,0.416919,35.76696,74.98275)" />
    <rect
       y="11.340002"
       x="41.267956"
       height="110.89598"
       width="46.354691"
       id="rect4079"
       style="opacity:1;fill:#d3d7cf;fill-opacity:1;fill-rule:nonzero;stroke:none;stroke-width:0.04;stroke-linecap:round;stroke-linejoin:round;stroke-miterlimit:4;stroke-dasharray:none;stroke-dashoffset:4;stroke-opacity:1"
       rx="2.6970553"
       ry="2.6970553" />
    <rect
       style="opacity:1;fill:#00438a;fill-opacity:1;fill-rule:nonzero;stroke:none;stroke-width:0.04;stroke-linecap:round;stroke-linejoin:round;stroke-miterlimit:4;stroke-dasharray:none;stroke-dashoffset:4;stroke-opacity:1"
       id="rect1970"
       width="46.189354"
       height="110.64334"
       x="41.32803"
       y="11.342789"
       rx="2.4748201"
       ry="2.4748201" />
    <rect
       ry="2.4748201"
       rx="2.4748201"
       y="11.342789"
       x="41.32803"
       height="110.64334"
       width="46.189354"
       id="rect1971"
       style="opacity:1;fill:url(#linearGradient2868);fill-opacity:1;fill-rule:nonzero;stroke:none;stroke-width:0.04;stroke-linecap:round;stroke-linejoin:round;stroke-miterlimit:4;stroke-dasharray:none;stroke-dashoffset:4;stroke-opacity:1" />
    <rect
       style="opacity:1;fill:#babdb6;fill-opacity:1;fill-rule:nonzero;stroke:none;stroke-width:0.04;stroke-linecap:round;stroke-linejoin:round;stroke-miterlimit:4;stroke-dasharray:none;stroke-dashoffset:4;stroke-opacity:1"
       id="rect1982"
       width="45.791172"
       height="20"
       x="41.32803"
       y="81.375"
       rx="0"
       ry="0" />
    <path
       id="path1980"
       d="M 41.863227,89.794506 L 42.297205,89.794506 L 42.026893,92.757583 C 41.989632,93.165905 41.985497,93.458348 42.014474,93.63491 C 42.044404,93.809277 42.110851,93.896461 42.2138,93.896461 C 42.317516,93.896461 42.399855,93.809277 42.460847,93.63491 C 42.522793,93.458348 42.572387,93.165905 42.609648,92.757583 L 42.879962,89.794506 L 43.313932,89.794506 L 43.043618,92.757583 C 42.97979,93.457245 42.872518,93.97813 42.721827,94.320236 C 42.571135,94.662342 42.373302,94.833386 42.128326,94.833386 C 41.884086,94.833386 41.717848,94.662342 41.629573,94.320236 C 41.541308,93.97813 41.529077,93.457245 41.592906,92.757583 L 41.863227,89.794506"
       style="font-size:3.37224936px;font-style:normal;font-variant:normal;font-weight:bold;font-stretch:normal;text-align:start;line-height:125%;writing-mode:lr-tb;text-anchor:start;fill:#00438a;fill-opacity:1;stroke:none;stroke-width:1px;stroke-linecap:butt;stroke-linejoin:miter;stroke-opacity:1;font-family:Bitstream Vera Sans" />
    <rect
       ry="0"
       rx="0"
       y="11.872185"
       x="67.775177"
       height="108.90166"
       width="11.166464"
       id="rect1986"
       style="opacity:0.26;fill:url(#linearGradient3000);fill-opacity:1;fill-rule:nonzero;stroke:none;stroke-width:0.04;stroke-linecap:round;stroke-linejoin:round;stroke-miterlimit:4;stroke-dasharray:none;stroke-dashoffset:4;stroke-opacity:1" />
    <rect
       style="opacity:0.19;fill:url(#linearGradient4087);fill-opacity:1;fill-rule:nonzero;stroke:none;stroke-width:0.04;stroke-linecap:round;stroke-linejoin:round;stroke-miterlimit:4;stroke-dasharray:none;stroke-dashoffset:4;stroke-opacity:1"
       id="rect4077"
       width="7.124136"
       height="110.46001"
       x="44.834175"
       y="11.258511" />
    <path
       sodipodi:nodetypes="ccc"
       id="path2276"
       d="M 50.892799,3.2812959 L 50.892799,0.48658747 L 50.892799,3.2812959 z "
       style="fill:white;fill-opacity:0.75688076;fill-rule:nonzero;stroke:none;stroke-width:0.5;stroke-linecap:round;stroke-linejoin:round;stroke-miterlimit:4;stroke-dasharray:none;stroke-dashoffset:4;stroke-opacity:1" />
    <path
       style="fill:url(#linearGradient3077);fill-opacity:1;fill-rule:nonzero;stroke:none;stroke-width:0.04;stroke-linecap:round;stroke-linejoin:round;stroke-miterlimit:4;stroke-dashoffset:4;stroke-opacity:1"
       d="M 54.884443,0.66648068 L 72.482459,0.66648068 C 73.5847,0.66648068 74.472053,1.8462433 74.472053,3.3116946 L 74.472053,12.091882 L 52.894844,12.091882 L 52.894844,3.3116946 C 52.894844,1.8462433 53.782203,0.66648068 54.884443,0.66648068 z "
       id="rect3069"
       sodipodi:nodetypes="ccccccc" />
    <path
       style="fill:url(#linearGradient3092);fill-opacity:1;fill-rule:nonzero;stroke:none;stroke-width:0.04;stroke-linecap:round;stroke-linejoin:round;stroke-miterlimit:4;stroke-dashoffset:4;stroke-opacity:1"
       d="M 54.884443,0.66648068 L 72.482459,0.66648068 C 73.5847,0.66648068 74.472053,1.8462433 74.472053,3.3116946 L 74.472053,6.6433928 L 52.894844,6.6433928 L 52.894844,3.3116946 C 52.894844,1.8462433 53.782203,0.66648068 54.884443,0.66648068 z "
       id="path3090"
       sodipodi:nodetypes="ccccccc" />
    <path
       sodipodi:nodetypes="ccccccc"
       id="path3080"
       d="M 56.220555,1.5331457 L 71.939131,1.5331457 C 72.923658,1.5331457 73.71624,2.5435652 73.71624,3.7986647 L 73.71624,5.0700678 C 59.995224,8.9598662 69.574287,5.3424336 54.443442,5.0700678 L 54.443442,3.7986647 C 54.443442,2.5435652 55.236033,1.5331457 56.220555,1.5331457 z "
       style="fill:url(#linearGradient3828);fill-opacity:1;fill-rule:nonzero;stroke:none;stroke-width:0.04;stroke-linecap:round;stroke-linejoin:round;stroke-miterlimit:4;stroke-dashoffset:4;stroke-opacity:1" />
    <path
       sodipodi:nodetypes="ccccc"
       id="path3094"
       d="M 74.472053,9.0121079 L 74.472053,12.040971 L 52.894844,12.040971 L 52.894844,9.0121079 L 74.472053,9.0121079 z "
       style="fill:url(#linearGradient3096);fill-opacity:1;fill-rule:nonzero;stroke:none;stroke-width:0.04;stroke-linecap:round;stroke-linejoin:round;stroke-miterlimit:4;stroke-dashoffset:4;stroke-opacity:1" />
    <path
       style="opacity:1;fill:#babdb6;fill-opacity:1;fill-rule:nonzero;stroke:none;stroke-width:0.04;stroke-linecap:round;stroke-linejoin:round;stroke-miterlimit:4;stroke-dasharray:none;stroke-dashoffset:4;stroke-opacity:1"
       d="M 43.90625 11.375 C 42.477969 11.375 41.3125 12.509219 41.3125 13.9375 L 41.3125 19 L 87.625 19 L 87.625 13.9375 C 87.625 12.509219 86.459531 11.375 85.03125 11.375 L 43.90625 11.375 z "
       id="rect3002" />
    <rect
       ry="2.8378232"
       rx="2.8378232"
       y="11.340073"
       x="41.268028"
       height="39.207966"
       width="46.354614"
       id="rect2872"
       style="fill:url(#linearGradient3020);fill-opacity:1;fill-rule:nonzero;stroke:none;stroke-width:0.04;stroke-linecap:round;stroke-linejoin:round;stroke-miterlimit:4;stroke-dasharray:none;stroke-dashoffset:4;stroke-opacity:1" />
    <rect
       style="fill:url(#linearGradient3014);fill-opacity:1;fill-rule:nonzero;stroke:none;stroke-width:0.04;stroke-linecap:round;stroke-linejoin:round;stroke-miterlimit:4;stroke-dasharray:none;stroke-dashoffset:4;stroke-opacity:1"
       id="rect2882"
       width="46.354614"
       height="41.746948"
       x="41.268028"
       y="-121.77199"
       rx="1.6015975"
       ry="1.5119978"
       transform="scale(1,-1)" />
    <g
       id="g2015"
       transform="matrix(1.363781,0,0,1.7125,-38.7468,-77.73791)">
      <path
         id="path1999"
         d="M 83.76188,97.813644 L 82.93655,100.71217 L 83.72257,100.71217 L 84.03698,99.721532 L 84.5479,99.721532 C 84.94134,99.721533 85.27396,99.627099 85.53043,99.464701 C 85.78862,99.30102 85.95441,99.070467 86.04135,98.767588 C 86.12792,98.466003 86.08805,98.232874 85.92344,98.070475 C 85.76057,97.906796 85.49157,97.813646 85.09812,97.813644 L 83.76188,97.813644 z M 84.42999,98.363996 L 84.8623,98.363996 C 85.01694,98.363999 85.11247,98.404474 85.17672,98.474067 C 85.24095,98.543666 85.25302,98.638706 85.21602,98.767588 C 85.17904,98.896474 85.12406,98.990223 85.01951,99.061109 C 84.91531,99.130708 84.78112,99.171183 84.6265,99.17118 L 84.1942,99.17118 L 84.42999,98.363996 z "
         style="font-size:3.37224936px;font-style:normal;font-variant:normal;font-weight:bold;font-stretch:normal;text-align:start;line-height:125%;writing-mode:lr-tb;text-anchor:start;fill:#00438a;fill-opacity:1;stroke:none;stroke-width:1px;stroke-linecap:butt;stroke-linejoin:miter;stroke-opacity:1;font-family:Bitstream Vera Sans" />
      <path
         id="path2005"
         d="M 74.421411,97.776954 C 73.844468,97.776956 73.375583,97.915051 72.957405,98.180545 C 72.540852,98.446048 72.244464,98.813407 72.088152,99.28125 C 71.932265,99.747809 71.986258,100.11646 72.225403,100.38196 C 72.466159,100.64745 72.883708,100.78555 73.460661,100.78555 C 74.039201,100.78555 74.50811,100.64745 74.924661,100.38196 C 75.341211,100.11645 75.63803,99.747812 75.79392,99.28125 C 75.95023,98.813404 75.89581,98.446052 75.65666,98.180545 C 75.417536,97.915047 74.999963,97.776952 74.421411,97.776954 z M 74.238411,98.327306 C 74.522849,98.327308 74.733244,98.416587 74.833161,98.584137 C 74.933053,98.751687 74.934761,98.977088 74.833161,99.28125 C 74.731947,99.584128 74.587503,99.810814 74.375661,99.978363 C 74.163782,100.14591 73.882349,100.23519 73.597911,100.23519 C 73.315045,100.23519 73.14881,100.14591 73.048907,99.978363 C 72.948987,99.810816 72.947699,99.58413 73.048907,99.28125 C 73.150523,98.977086 73.294533,98.751684 73.506411,98.584137 C 73.718278,98.41659 73.955544,98.327313 74.238411,98.327306 z "
         style="font-size:3.37224936px;font-style:normal;font-variant:normal;font-weight:bold;font-stretch:normal;text-align:start;line-height:125%;writing-mode:lr-tb;text-anchor:start;fill:#00438a;fill-opacity:1;stroke:none;stroke-width:1px;stroke-linecap:butt;stroke-linejoin:miter;stroke-opacity:1;font-family:Bitstream Vera Sans" />
      <path
         id="path2003"
         d="M 78.30124,99.242358 L 79.04912,100.7155 L 78.09348,100.7155 L 77.58742,99.729538 L 76.43721,100.7155 L 75.476803,100.7155 L 77.19785,99.242358 L 76.47782,97.829148 L 77.43585,97.829148 L 77.90799,98.759044 L 78.99203,97.829148 L 79.95483,97.829148 L 78.30124,99.242358"
         style="font-size:3.37224936px;font-style:normal;font-variant:normal;font-weight:bold;font-stretch:normal;text-align:start;line-height:125%;writing-mode:lr-tb;text-anchor:start;fill:#00438a;fill-opacity:1;stroke:none;stroke-width:1px;stroke-linecap:butt;stroke-linejoin:miter;stroke-opacity:1;font-family:Bitstream Vera Sans" />
      <path
         id="path2001"
         d="M 80.0549,97.829148 L 80.99899,97.829148 L 81.44179,98.85764 L 82.52392,97.829148 L 83.47023,97.829148 L 81.67512,99.499481 L 81.29716,100.7155 L 80.43378,100.7155 L 80.81174,99.499481 L 80.0549,97.829148"
         style="font-size:3.37224936px;font-style:normal;font-variant:normal;font-weight:bold;font-stretch:normal;text-align:start;line-height:125%;writing-mode:lr-tb;text-anchor:start;fill:#00438a;fill-opacity:1;stroke:none;stroke-width:1px;stroke-linecap:butt;stroke-linejoin:miter;stroke-opacity:1;font-family:Bitstream Vera Sans" />
      <path
         id="path1995"
         d="M 86.78477,97.829148 L 87.49298,97.829148 L 86.90053,100.15293 L 88.14402,100.15293 L 88.0006,100.7155 L 86.04889,100.7155 L 86.78477,97.829148"
         style="font-size:3.37224936px;font-style:normal;font-variant:normal;font-weight:bold;font-stretch:normal;text-align:start;line-height:125%;writing-mode:lr-tb;text-anchor:start;fill:#00438a;fill-opacity:1;stroke:none;stroke-width:1px;stroke-linecap:butt;stroke-linejoin:miter;stroke-opacity:1;font-family:Bitstream Vera Sans" />
      <path
         id="path1993"
         d="M 88.95815,97.829148 L 89.53655,97.829148 L 89.17628,99.559412 C 89.12662,99.797848 89.12111,99.968618 89.15973,100.07172 C 89.19962,100.17354 89.28818,100.22445 89.42539,100.22445 C 89.56362,100.22445 89.67336,100.17354 89.75465,100.07172 C 89.83721,99.968618 89.90331,99.797848 89.95297,99.559412 L 90.31324,97.829148 L 90.89163,97.829148 L 90.53136,99.559412 C 90.44629,99.967974 90.30332,100.27214 90.10248,100.47191 C 89.90164,100.67168 89.63797,100.77156 89.31147,100.77156 C 88.98595,100.77156 88.76439,100.67168 88.64674,100.47191 C 88.5291,100.27214 88.5128,99.967974 88.59787,99.559412 L 88.95815,97.829148"
         style="font-size:3.37224936px;font-style:normal;font-variant:normal;font-weight:bold;font-stretch:normal;text-align:start;line-height:125%;writing-mode:lr-tb;text-anchor:start;fill:#00438a;fill-opacity:1;stroke:none;stroke-width:1px;stroke-linecap:butt;stroke-linejoin:miter;stroke-opacity:1;font-family:Bitstream Vera Sans" />
      <path
         id="text1986"
         d="M 92,97.920011 L 91.93186,98.530919 C 91.87377,98.460036 91.81536,98.40655 91.75662,98.37046 C 91.69787,98.334374 91.6406,98.316331 91.5848,98.316328 C 91.51077,98.316331 91.45331,98.340819 91.41243,98.389792 C 91.37157,98.43877 91.34538,98.514811 91.33388,98.617916 C 91.32526,98.695248 91.3303,98.755824 91.34902,98.799642 C 91.36842,98.842175 91.40778,98.878908 91.4671,98.909838 L 91.59197,98.973635 C 91.71836,99.038078 91.8024,99.13603 91.84407,99.26749 C 91.88574,99.398952 91.89306,99.585834 91.86604,99.828134 C 91.83052,100.14648 91.76465,100.38362 91.66838,100.53958 C 91.5728,100.69424 91.44427,100.77156 91.28278,100.77156 C 91.2066,100.77156 91.13208,100.75416 91.05925,100.71936 C 90.98641,100.68456 90.91545,100.63301 90.84634,100.5647 L 90.91642,99.936397 C 90.98221,100.03435 91.04798,100.10846 91.11373,100.15873 C 91.18017,100.2077 91.24664,100.23219 91.31317,100.23219 C 91.38077,100.23219 91.43556,100.20511 91.47755,100.15099 C 91.51953,100.09686 91.54612,100.01953 91.55734,99.918997 C 91.56739,99.82878 91.56283,99.759183 91.54361,99.710206 C 91.52492,99.661231 91.48126,99.617411 91.4126,99.578745 L 91.29983,99.514947 C 91.18655,99.453084 91.10955,99.354489 91.06885,99.219159 C 91.02868,99.083833 91.0214,98.901462 91.04698,98.672047 C 91.07905,98.384639 91.14232,98.163603 91.23683,98.008941 C 91.33134,97.854282 91.45102,97.776952 91.59588,97.77695 C 91.66187,97.776952 91.72837,97.789197 91.79538,97.813681 C 91.86254,97.836884 91.93075,97.872327 92,97.920011"
         style="font-size:3.37224936px;font-style:normal;font-variant:normal;font-weight:bold;font-stretch:normal;text-align:start;line-height:125%;writing-mode:lr-tb;text-anchor:start;fill:#00438a;fill-opacity:1;stroke:none;stroke-width:1px;stroke-linecap:butt;stroke-linejoin:miter;stroke-opacity:1;font-family:Bitstream Vera Sans" />
    </g>
    <rect
       transform="scale(1,-1)"
       ry="1.5119978"
       rx="1.6015975"
       y="-121.77199"
       x="41.268028"
       height="6.4959407"
       width="46.354614"
       id="rect2886"
       style="opacity:1;fill:url(#linearGradient3011);fill-opacity:1;fill-rule:nonzero;stroke:none;stroke-width:0.04;stroke-linecap:round;stroke-linejoin:round;stroke-miterlimit:4;stroke-dasharray:none;stroke-dashoffset:4;stroke-opacity:1" />
    <path
       style="font-size:5.38862085px;font-style:normal;font-variant:normal;font-weight:normal;font-stretch:normal;text-align:start;line-height:125%;writing-mode:lr-tb;text-anchor:start;fill:#bf0303;fill-opacity:1;stroke:none;stroke-width:1px;stroke-linecap:butt;stroke-linejoin:miter;stroke-opacity:1;font-family:Bitstream Vera Sans"
       d="M 45.177615,117.83543 L 45.937394,118.09107 L 45.937394,115.83977 L 46.169283,115.91779 L 46.169283,118.16909 L 46.929062,118.42473 L 46.929062,119.10376 L 46.169283,118.84812 L 46.169283,121.09941 L 45.937394,121.02139 L 45.937394,118.77009 L 45.177615,118.51446 L 45.177615,117.83543 M 45.177615,110.89966 L 45.937394,111.1553 L 45.937394,108.904 L 46.169283,108.98203 L 46.169283,111.23332 L 46.929062,111.48896 L 46.929062,112.16799 L 46.169283,111.91235 L 46.169283,114.16364 L 45.937394,114.08562 L 45.937394,111.83433 L 45.177615,111.57869 L 45.177615,110.89966 M 45.177615,103.96389 L 45.937394,104.21953 L 45.937394,101.96823 L 46.169283,102.04626 L 46.169283,104.29755 L 46.929062,104.55319 L 46.929062,105.23222 L 46.169283,104.97658 L 46.169283,107.22787 L 45.937394,107.14985 L 45.937394,104.89856 L 45.177615,104.64292 L 45.177615,103.96389 M 46.102444,70.141862 L 46.225209,70.183168 L 46.225209,73.602552 C 46.39799,73.628352 46.529848,73.519129 46.620785,73.27488 C 46.710813,73.027635 46.755827,72.657461 46.755826,72.164356 C 46.755827,71.878736 46.744005,71.598568 46.720361,71.323848 C 46.696718,71.046443 46.661252,70.767751 46.613965,70.487769 L 46.851311,70.567628 C 46.889504,70.847244 46.918604,71.130531 46.93861,71.417491 C 46.958616,71.704459 46.968619,71.992099 46.968619,72.280414 C 46.968619,73.002554 46.897688,73.55128 46.755826,73.926591 C 46.613965,74.29921 46.422088,74.444824 46.180196,74.363436 C 45.93012,74.279294 45.731877,74.013196 45.585467,73.565141 C 45.438151,73.114088 45.364492,72.549047 45.36449,71.870019 C 45.364492,71.261054 45.430876,70.802413 45.563642,70.494096 C 45.695502,70.182785 45.875103,70.065374 46.102444,70.141862 M 46.028785,70.860774 C 45.891471,70.819966 45.781892,70.897614 45.700048,71.093721 C 45.618206,71.28714 45.577284,71.567078 45.577283,71.933532 C 45.577284,72.348496 45.616842,72.694582 45.695956,72.971793 C 45.775072,73.246311 45.88647,73.426604 46.030149,73.51267 L 46.028785,70.860774 M 45.40132,65.084063 L 46.14473,66.971133 L 46.929062,65.513216 L 46.929062,66.390292 L 46.328877,67.505985 L 46.929062,69.025561 L 46.929062,69.902637 L 46.129726,67.875495 L 45.40132,69.239059 L 45.40132,68.361982 L 45.945578,67.344685 L 45.40132,65.96114 L 45.40132,65.084063 M 44.96755,63.066752 L 45.40132,63.212701 L 45.40132,61.680849 L 45.59638,61.74648 L 45.59638,63.278331 L 46.425725,63.557377 C 46.550309,63.599296 46.630334,63.576373 46.665799,63.488606 C 46.701265,63.398147 46.718997,63.19798 46.718997,62.888106 L 46.718997,62.124201 L 46.929062,62.19488 L 46.929062,62.958785 C 46.929062,63.532725 46.893142,63.916738 46.821301,64.110822 C 46.748552,64.304605 46.616693,64.369368 46.425725,64.305114 L 45.59638,64.026069 L 45.59638,64.571715 L 45.40132,64.506084 L 45.40132,63.960438 L 44.96755,63.81449 L 44.96755,63.066752 M 45.635937,58.154481 C 45.61957,58.232509 45.607748,58.320145 45.600472,58.417392 C 45.592289,58.511646 45.588197,58.618051 45.588195,58.736608 C 45.588197,59.156961 45.634575,59.49591 45.727329,59.753459 C 45.819177,60.008011 45.95149,60.164354 46.124269,60.222487 L 46.929062,60.493271 L 46.929062,61.241009 L 45.40132,60.726978 L 45.40132,59.97924 L 45.638665,60.059099 C 45.545911,59.871607 45.477254,59.645068 45.432693,59.37948 C 45.387226,59.113591 45.364492,58.801458 45.36449,58.44308 C 45.364492,58.391887 45.365856,58.335761 45.368583,58.2747 C 45.370403,58.213342 45.373586,58.145701 45.378131,58.07178 L 45.635937,58.154481 M 46.161098,55.501906 C 46.161099,56.102793 46.184288,56.526902 46.230666,56.774236 C 46.277044,57.021574 46.356159,57.164058 46.468011,57.201691 C 46.557129,57.231678 46.628061,57.169319 46.680803,57.014612 C 46.732638,56.856908 46.758555,56.628509 46.758555,56.329411 C 46.758555,55.917149 46.709449,55.570543 46.611237,55.289598 C 46.512116,55.005658 46.380712,54.836148 46.217025,54.781069 L 46.161098,54.762252 L 46.161098,55.501906 M 46.05743,53.983677 L 46.929062,54.27695 L 46.929062,55.020644 L 46.697172,54.942621 C 46.789928,55.143592 46.858586,55.378214 46.903145,55.646491 C 46.946794,55.914468 46.968619,56.231683 46.968619,56.59814 C 46.968619,57.061604 46.924969,57.416071 46.83767,57.66154 C 46.749461,57.904011 46.631698,58.000463 46.48438,57.950894 C 46.31251,57.893067 46.182924,57.679709 46.095624,57.310822 C 46.008325,56.939243 45.964676,56.415287 45.964675,55.738952 L 45.964675,54.696162 L 45.940122,54.687901 C 45.824633,54.649047 45.735515,54.732232 45.672767,54.937459 C 45.609112,55.139692 45.577284,55.444246 45.577283,55.851119 C 45.577284,56.109798 45.587742,56.365257 45.608657,56.617497 C 45.629573,56.869739 45.660946,57.116068 45.702776,57.356483 L 45.470887,57.27846 C 45.435423,56.99438 45.409051,56.721441 45.391772,56.459643 C 45.373586,56.197544 45.364492,55.945239 45.36449,55.702727 C 45.364492,55.047956 45.421782,54.578171 45.536361,54.293374 C 45.650943,54.008585 45.824633,53.905352 46.05743,53.983677 M 45.446334,49.34014 L 45.683679,49.419998 C 45.647306,49.617939 45.620024,49.827018 45.601836,50.047237 C 45.58365,50.267462 45.574556,50.498829 45.574555,50.741335 C 45.574556,51.11049 45.593653,51.394454 45.631845,51.593226 C 45.67004,51.789309 45.72733,51.900199 45.803716,51.925898 C 45.861917,51.945483 45.90784,51.894919 45.941486,51.774204 C 45.974224,51.653188 46.005597,51.398332 46.035605,51.009632 L 46.054702,50.761423 C 46.092897,50.246146 46.147004,49.889809 46.217025,49.692412 C 46.286137,49.492022 46.382985,49.412785 46.507569,49.454698 C 46.649431,49.502434 46.761738,49.707284 46.84449,50.069248 C 46.927243,50.428523 46.968619,50.89917 46.968619,51.481191 C 46.968619,51.723702 46.960435,51.974236 46.944066,52.232791 C 46.928607,52.488962 46.904963,52.757198 46.873135,53.037501 L 46.613965,52.950299 C 46.662162,52.691672 46.698537,52.433108 46.723089,52.174608 C 46.746733,51.915804 46.758555,51.655717 46.758555,51.394344 C 46.758555,51.044055 46.738549,50.767869 46.698536,50.565786 C 46.657615,50.363401 46.600324,50.249815 46.526665,50.225028 C 46.458463,50.202084 46.406175,50.253202 46.369799,50.378383 C 46.333425,50.500874 46.298414,50.786842 46.264767,51.236285 L 46.244306,51.488078 C 46.211569,51.937832 46.161554,52.25378 46.09426,52.435923 C 46.026058,52.617762 45.932848,52.688793 45.814629,52.649015 C 45.670949,52.600673 45.560006,52.41245 45.481799,52.084345 C 45.403595,51.756245 45.364492,51.314655 45.36449,50.759575 C 45.364492,50.484735 45.371312,50.228353 45.384951,49.99043 C 45.398593,49.752514 45.419054,49.535751 45.446334,49.34014 M 44.96755,47.028797 L 45.40132,47.174745 L 45.40132,45.642893 L 45.59638,45.708524 L 45.59638,47.240376 L 46.425725,47.519421 C 46.550309,47.561341 46.630334,47.538417 46.665799,47.45065 C 46.701265,47.360192 46.718997,47.160026 46.718997,46.85015 L 46.718997,46.086245 L 46.929062,46.156924 L 46.929062,46.920829 C 46.929062,47.49477 46.893142,47.878783 46.821301,48.072868 C 46.748552,48.266649 46.616693,48.331414 46.425725,48.267158 L 45.59638,47.988113 L 45.59638,48.533759 L 45.40132,48.468128 L 45.40132,47.922482 L 44.96755,47.776534 L 44.96755,47.028797 M 46.161098,42.859079 C 46.161099,43.459967 46.184288,43.884076 46.230666,44.131409 C 46.277044,44.378748 46.356159,44.521232 46.468011,44.558865 C 46.557129,44.588851 46.628061,44.526492 46.680803,44.371786 C 46.732638,44.214082 46.758555,43.985683 46.758555,43.686585 C 46.758555,43.274323 46.709449,42.927717 46.611237,42.646772 C 46.512116,42.362831 46.380712,42.193322 46.217025,42.138242 L 46.161098,42.119425 L 46.161098,42.859079 M 46.05743,41.34085 L 46.929062,41.634124 L 46.929062,42.377818 L 46.697172,42.299795 C 46.789928,42.500766 46.858586,42.735388 46.903145,43.003665 C 46.946794,43.271642 46.968619,43.588857 46.968619,43.955313 C 46.968619,44.418778 46.924969,44.773245 46.83767,45.018714 C 46.749461,45.261184 46.631698,45.357637 46.48438,45.308068 C 46.31251,45.250241 46.182924,45.036883 46.095624,44.667996 C 46.008325,44.296417 45.964676,43.772461 45.964675,43.096126 L 45.964675,42.053336 L 45.940122,42.045074 C 45.824633,42.006221 45.735515,42.089406 45.672767,42.294633 C 45.609112,42.496866 45.577284,42.801419 45.577283,43.208292 C 45.577284,43.466972 45.587742,43.722431 45.608657,43.97467 C 45.629573,44.226912 45.660946,44.473242 45.702776,44.713657 L 45.470887,44.635634 C 45.435423,44.351554 45.409051,44.078614 45.391772,43.816817 C 45.373586,43.554718 45.364492,43.302412 45.36449,43.059901 C 45.364492,42.405129 45.421782,41.935344 45.536361,41.650547 C 45.650943,41.365759 45.824633,41.262525 46.05743,41.34085 M 45.694592,36.142241 C 45.581831,35.918383 45.498624,35.668086 45.44497,35.391352 C 45.391319,35.114629 45.364492,34.801119 45.36449,34.450821 C 45.364492,33.979282 45.420418,33.634336 45.532269,33.415981 C 45.643214,33.197334 45.801444,33.122582 46.00696,33.191725 L 46.929062,33.501979 L 46.929062,34.249717 L 46.015145,33.942216 C 45.868737,33.892961 45.760068,33.933192 45.689135,34.062909 C 45.618206,34.192639 45.582741,34.415131 45.582739,34.730387 C 45.582741,35.115713 45.625936,35.434731 45.712325,35.68744 C 45.798716,35.94016 45.916479,36.091606 46.065615,36.141781 L 46.929062,36.4323 L 46.929062,37.180037 L 46.015145,36.872537 C 45.867828,36.822974 45.759158,36.863205 45.689135,36.993231 C 45.618206,37.122958 45.582741,37.348145 45.582739,37.668792 C 45.582741,38.048727 45.62639,38.365203 45.713688,38.618222 C 45.80008,38.870938 45.917388,39.022232 46.065615,39.072103 L 46.929062,39.362622 L 46.929062,40.11036 L 45.40132,39.596329 L 45.40132,38.848591 L 45.638665,38.92845 C 45.545002,38.72718 45.47589,38.500488 45.431329,38.248374 C 45.386771,37.996264 45.364492,37.707186 45.36449,37.381144 C 45.364492,37.052413 45.392683,36.783012 45.449062,36.572941 C 45.505444,36.360184 45.587288,36.216619 45.694592,36.142241 M 45.40132,31.516723 L 45.40132,30.773028 L 46.929062,31.287059 L 46.929062,32.030754 L 45.40132,31.516723 M 44.806592,31.316618 L 44.806592,30.572923 L 45.124417,30.679859 L 45.124417,31.423555 L 44.806592,31.316618 M 46.00696,25.661803 L 46.929062,25.972057 L 46.929062,26.715753 L 46.015145,26.408252 C 45.870556,26.359606 45.762341,26.406728 45.690499,26.549613 C 45.618661,26.692508 45.582741,26.931015 45.582739,27.265135 C 45.582741,27.666626 45.625936,27.997768 45.712325,28.258564 C 45.798716,28.519365 45.916479,28.674853 46.065615,28.72503 L 46.929062,29.01555 L 46.929062,29.763287 L 45.40132,29.249256 L 45.40132,28.501519 L 45.638665,28.581377 C 45.546821,28.372636 45.478163,28.140708 45.432693,27.885592 C 45.387226,27.627788 45.364492,27.341253 45.36449,27.025988 C 45.364492,26.505943 45.419054,26.130897 45.528177,25.90085 C 45.636393,25.670505 45.795988,25.590822 46.00696,25.661803 M 46.161098,22.164947 C 46.161099,22.765834 46.184288,23.189943 46.230666,23.437277 C 46.277044,23.684614 46.356159,23.827099 46.468011,23.864732 C 46.557129,23.894719 46.628061,23.832359 46.680803,23.677653 C 46.732638,23.519949 46.758555,23.291549 46.758555,22.992452 C 46.758555,22.580189 46.709449,22.233585 46.611237,21.952638 C 46.512116,21.668698 46.380712,21.499189 46.217025,21.44411 L 46.161098,21.425293 L 46.161098,22.164947 M 46.05743,20.646717 L 46.929062,20.93999 L 46.929062,21.683686 L 46.697172,21.605663 C 46.789928,21.806632 46.858586,22.041255 46.903145,22.309532 C 46.946794,22.577508 46.968619,22.894725 46.968619,23.261181 C 46.968619,23.724645 46.924969,24.079111 46.83767,24.324581 C 46.749461,24.567052 46.631698,24.663503 46.48438,24.613935 C 46.31251,24.556107 46.182924,24.34275 46.095624,23.973863 C 46.008325,23.602284 45.964676,23.078328 45.964675,22.401994 L 45.964675,21.359203 L 45.940122,21.350942 C 45.824633,21.312088 45.735515,21.395274 45.672767,21.6005 C 45.609112,21.802733 45.577284,22.107286 45.577283,22.51416 C 45.577284,22.772839 45.587742,23.028298 45.608657,23.280537 C 45.629573,23.53278 45.660946,23.779108 45.702776,24.019524 L 45.470887,23.941501 C 45.435423,23.657421 45.409051,23.384482 45.391772,23.122684 C 45.373586,22.860585 45.364492,22.60828 45.36449,22.365768 C 45.364492,21.710996 45.421782,21.241212 45.536361,20.956414 C 45.650943,20.671625 45.824633,20.568393 46.05743,20.646717"
       id="text1970" />
    <rect
       ry="0"
       rx="0"
       y="12.435211"
       x="44.790871"
       height="109.03988"
       width="17.265705"
       id="rect2928"
       style="opacity:0.43999999;fill:url(#linearGradient3008);fill-opacity:1;fill-rule:nonzero;stroke:none;stroke-width:0.04;stroke-linecap:round;stroke-linejoin:round;stroke-miterlimit:4;stroke-dasharray:none;stroke-dashoffset:4;stroke-opacity:1" />
    <rect
       transform="scale(-1,1)"
       style="fill:url(#linearGradient3005);fill-opacity:1;fill-rule:nonzero;stroke:none;stroke-width:0.04;stroke-linecap:round;stroke-linejoin:round;stroke-miterlimit:4;stroke-dasharray:none;stroke-dashoffset:4;stroke-opacity:1"
       id="rect2930"
       width="2.7321801"
       height="109.03988"
       x="-45.010685"
       y="12.435211"
       rx="0"
       ry="0" />
    <path
       style="font-size:30.7476635px;font-style:normal;font-variant:normal;font-weight:normal;font-stretch:normal;text-align:start;line-height:125%;writing-mode:lr-tb;text-anchor:start;fill:#babdb6;fill-opacity:1;stroke:none;stroke-width:1px;stroke-linecap:butt;stroke-linejoin:miter;stroke-opacity:1;font-family:Bitstream Vera Sans"
       d="M 62.854193,22.501274 L 62.854193,31.168623 L 54.584501,31.168623 L 54.584501,33.84868 L 62.854193,33.84868 L 62.854193,42.516029 L 65.362976,42.516029 L 65.362976,33.84868 L 73.663641,33.84868 L 73.663641,31.168623 L 65.362976,31.168623 L 65.362976,22.501274 L 62.854193,22.501274 z M 54.584501,111.79529 L 54.584501,114.47535 L 73.663641,114.47535 L 73.663641,111.79529 L 54.584501,111.79529 z "
       id="text2857"
       sodipodi:nodetypes="cccccccccccccccccc" />
    <path
       style="opacity:0.73000004;fill:url(#linearGradient2909);fill-opacity:1;fill-rule:nonzero;stroke:none;stroke-width:0.04;stroke-linecap:round;stroke-linejoin:round;stroke-miterlimit:4;stroke-dasharray:none;stroke-dashoffset:4;stroke-opacity:1"
       d="M 44.853027,12.061237 C 44.411644,12.061237 44.128735,12.629962 44.128735,13.21679 L 44.128735,16.490859 C 53.357673,36.218292 72.28129,25.352328 85.26852,21.883441 L 85.26852,13.21679 C 85.26852,12.629962 84.98561,12.061237 84.54423,12.061237 L 44.853027,12.061237 z "
       id="rect2885"
       sodipodi:nodetypes="ccccccc" />
    <rect
       style="opacity:1;fill:url(#linearGradient2925);fill-opacity:1;fill-rule:nonzero;stroke:none;stroke-width:0.04;stroke-linecap:round;stroke-linejoin:round;stroke-miterlimit:4;stroke-dasharray:none;stroke-dashoffset:4;stroke-opacity:1"
       id="rect2917"
       width="3.708389"
       height="106.88869"
       x="82.987183"
       y="12.843593" />
    <path
       sodipodi:type="arc"
       style="opacity:1;fill:url(#radialGradient3838);fill-opacity:1;fill-rule:nonzero;stroke:none;stroke-width:0.04;stroke-linecap:round;stroke-linejoin:round;stroke-miterlimit:4;stroke-dasharray:none;stroke-dashoffset:4;stroke-opacity:1"
       id="path3830"
       sodipodi:cx="12.308078"
       sodipodi:cy="3.0406995"
       sodipodi:rx="2.9831069"
       sodipodi:ry="0.088388346"
       d="M 15.291185 3.0406995 A 2.9831069 0.088388346 0 1 1  9.324971,3.0406995 A 2.9831069 0.088388346 0 1 1  15.291185 3.0406995 z"
       transform="matrix(4.635469,0,0,6.162951,12.28644,-6.603207)" />
    <path
       transform="matrix(2.767889,0,0,6.162951,29.36387,-17.09948)"
       d="M 15.291185 3.0406995 A 2.9831069 0.088388346 0 1 1  9.324971,3.0406995 A 2.9831069 0.088388346 0 1 1  15.291185 3.0406995 z"
       sodipodi:ry="0.088388346"
       sodipodi:rx="2.9831069"
       sodipodi:cy="3.0406995"
       sodipodi:cx="12.308078"
       id="path3840"
       style="opacity:1;fill:url(#radialGradient3842);fill-opacity:1;fill-rule:nonzero;stroke:none;stroke-width:0.04;stroke-linecap:round;stroke-linejoin:round;stroke-miterlimit:4;stroke-dasharray:none;stroke-dashoffset:4;stroke-opacity:1"
       sodipodi:type="arc" />
    <path
       style="fill:url(#linearGradient2858);fill-opacity:1;fill-rule:nonzero;stroke:none;stroke-width:0.04;stroke-linecap:round;stroke-linejoin:round;stroke-miterlimit:4;stroke-dashoffset:4;stroke-opacity:1"
       d="M 53.87083,11.400002 C 53.87083,10.123502 55.278809,9.187502 60.938598,9.187502 C 66.598387,9.187502 74.377311,10.123502 74.377311,11.400002 C 74.377311,11.400002 74.377311,11.400002 74.377311,11.400002 L 64.124071,11.400002 L 53.87083,11.400002 z "
       id="path2850"
       sodipodi:nodetypes="cscccc" />
    <path
       style="font-size:3.37224936px;font-style:normal;font-variant:normal;font-weight:bold;font-stretch:normal;text-align:start;line-height:125%;writing-mode:lr-tb;text-anchor:start;fill:#00438a;fill-opacity:1;stroke:none;stroke-width:1px;stroke-linecap:butt;stroke-linejoin:miter;stroke-opacity:1;font-family:Bitstream Vera Sans"
       d="M 45.469146,89.950109 L 45.339843,90.996289 C 45.229612,90.874902 45.118772,90.783307 45.007305,90.721503 C 44.89582,90.659705 44.787145,90.628807 44.681258,90.628802 C 44.540779,90.628807 44.431742,90.670743 44.354168,90.754609 C 44.276633,90.838484 44.226934,90.968704 44.205109,91.145271 C 44.188754,91.277702 44.198317,91.381439 44.233841,91.456477 C 44.270655,91.529315 44.345344,91.59222 44.45791,91.645188 L 44.694866,91.75444 C 44.934703,91.864799 45.094179,92.032541 45.173253,92.257667 C 45.252326,92.482795 45.266214,92.802831 45.214942,93.217769 C 45.14754,93.762937 45.022544,94.169039 44.839862,94.436121 C 44.658487,94.700976 44.414587,94.833386 44.108144,94.833386 C 43.963583,94.833386 43.822173,94.803589 43.683972,94.743994 C 43.545748,94.684399 43.411095,94.59612 43.27995,94.479139 L 43.412936,93.40317 C 43.537779,93.570914 43.662584,93.697828 43.787353,93.783915 C 43.913429,93.867776 44.039563,93.909715 44.165812,93.909715 C 44.29409,93.909715 44.398059,93.863341 44.477739,93.77066 C 44.557402,93.677963 44.607858,93.545535 44.629151,93.373372 C 44.648221,93.218876 44.639569,93.099691 44.603095,93.015818 C 44.56763,92.931948 44.48478,92.856906 44.354491,92.790691 L 44.140498,92.681437 C 43.925536,92.575496 43.77942,92.406652 43.702187,92.1749 C 43.625959,91.943154 43.612146,91.630844 43.660687,91.23797 C 43.721543,90.745784 43.841605,90.36726 44.020948,90.102401 C 44.200291,89.837548 44.427397,89.70512 44.702284,89.705117 C 44.827508,89.70512 44.953699,89.72609 45.080858,89.768019 C 45.208301,89.807754 45.337736,89.86845 45.469146,89.950109"
       id="path1982" />
    <path
       id="path1976"
       d="M 45.177615,117.83543 L 45.937394,118.09107 L 45.937394,115.83977 L 46.169283,115.91779 L 46.169283,118.16909 L 46.929062,118.42473 L 46.929062,119.10376 L 46.169283,118.84812 L 46.169283,121.09941 L 45.937394,121.02139 L 45.937394,118.77009 L 45.177615,118.51446 L 45.177615,117.83543 M 45.177615,110.89966 L 45.937394,111.1553 L 45.937394,108.904 L 46.169283,108.98203 L 46.169283,111.23332 L 46.929062,111.48896 L 46.929062,112.16799 L 46.169283,111.91235 L 46.169283,114.16364 L 45.937394,114.08562 L 45.937394,111.83433 L 45.177615,111.57869 L 45.177615,110.89966 M 45.177615,103.96389 L 45.937394,104.21953 L 45.937394,101.96823 L 46.169283,102.04626 L 46.169283,104.29755 L 46.929062,104.55319 L 46.929062,105.23222 L 46.169283,104.97658 L 46.169283,107.22787 L 45.937394,107.14985 L 45.937394,104.89856 L 45.177615,104.64292 L 45.177615,103.96389 M 46.102444,70.141862 L 46.225209,70.183168 L 46.225209,73.602552 C 46.39799,73.628352 46.529848,73.519129 46.620785,73.27488 C 46.710813,73.027635 46.755827,72.657461 46.755826,72.164356 C 46.755827,71.878736 46.744005,71.598568 46.720361,71.323848 C 46.696718,71.046443 46.661252,70.767751 46.613965,70.487769 L 46.851311,70.567628 C 46.889504,70.847244 46.918604,71.130531 46.93861,71.417491 C 46.958616,71.704459 46.968619,71.992099 46.968619,72.280414 C 46.968619,73.002554 46.897688,73.55128 46.755826,73.926591 C 46.613965,74.29921 46.422088,74.444824 46.180196,74.363436 C 45.93012,74.279294 45.731877,74.013196 45.585467,73.565141 C 45.438151,73.114088 45.364492,72.549047 45.36449,71.870019 C 45.364492,71.261054 45.430876,70.802413 45.563642,70.494096 C 45.695502,70.182785 45.875103,70.065374 46.102444,70.141862 M 46.028785,70.860774 C 45.891471,70.819966 45.781892,70.897614 45.700048,71.093721 C 45.618206,71.28714 45.577284,71.567078 45.577283,71.933532 C 45.577284,72.348496 45.616842,72.694582 45.695956,72.971793 C 45.775072,73.246311 45.88647,73.426604 46.030149,73.51267 L 46.028785,70.860774 M 45.40132,65.084063 L 46.14473,66.971133 L 46.929062,65.513216 L 46.929062,66.390292 L 46.328877,67.505985 L 46.929062,69.025561 L 46.929062,69.902637 L 46.129726,67.875495 L 45.40132,69.239059 L 45.40132,68.361982 L 45.945578,67.344685 L 45.40132,65.96114 L 45.40132,65.084063 M 44.96755,63.066752 L 45.40132,63.212701 L 45.40132,61.680849 L 45.59638,61.74648 L 45.59638,63.278331 L 46.425725,63.557377 C 46.550309,63.599296 46.630334,63.576373 46.665799,63.488606 C 46.701265,63.398147 46.718997,63.19798 46.718997,62.888106 L 46.718997,62.124201 L 46.929062,62.19488 L 46.929062,62.958785 C 46.929062,63.532725 46.893142,63.916738 46.821301,64.110822 C 46.748552,64.304605 46.616693,64.369368 46.425725,64.305114 L 45.59638,64.026069 L 45.59638,64.571715 L 45.40132,64.506084 L 45.40132,63.960438 L 44.96755,63.81449 L 44.96755,63.066752 M 45.635937,58.154481 C 45.61957,58.232509 45.607748,58.320145 45.600472,58.417392 C 45.592289,58.511646 45.588197,58.618051 45.588195,58.736608 C 45.588197,59.156961 45.634575,59.49591 45.727329,59.753459 C 45.819177,60.008011 45.95149,60.164354 46.124269,60.222487 L 46.929062,60.493271 L 46.929062,61.241009 L 45.40132,60.726978 L 45.40132,59.97924 L 45.638665,60.059099 C 45.545911,59.871607 45.477254,59.645068 45.432693,59.37948 C 45.387226,59.113591 45.364492,58.801458 45.36449,58.44308 C 45.364492,58.391887 45.365856,58.335761 45.368583,58.2747 C 45.370403,58.213342 45.373586,58.145701 45.378131,58.07178 L 45.635937,58.154481 M 46.161098,55.501906 C 46.161099,56.102793 46.184288,56.526902 46.230666,56.774236 C 46.277044,57.021574 46.356159,57.164058 46.468011,57.201691 C 46.557129,57.231678 46.628061,57.169319 46.680803,57.014612 C 46.732638,56.856908 46.758555,56.628509 46.758555,56.329411 C 46.758555,55.917149 46.709449,55.570543 46.611237,55.289598 C 46.512116,55.005658 46.380712,54.836148 46.217025,54.781069 L 46.161098,54.762252 L 46.161098,55.501906 M 46.05743,53.983677 L 46.929062,54.27695 L 46.929062,55.020644 L 46.697172,54.942621 C 46.789928,55.143592 46.858586,55.378214 46.903145,55.646491 C 46.946794,55.914468 46.968619,56.231683 46.968619,56.59814 C 46.968619,57.061604 46.924969,57.416071 46.83767,57.66154 C 46.749461,57.904011 46.631698,58.000463 46.48438,57.950894 C 46.31251,57.893067 46.182924,57.679709 46.095624,57.310822 C 46.008325,56.939243 45.964676,56.415287 45.964675,55.738952 L 45.964675,54.696162 L 45.940122,54.687901 C 45.824633,54.649047 45.735515,54.732232 45.672767,54.937459 C 45.609112,55.139692 45.577284,55.444246 45.577283,55.851119 C 45.577284,56.109798 45.587742,56.365257 45.608657,56.617497 C 45.629573,56.869739 45.660946,57.116068 45.702776,57.356483 L 45.470887,57.27846 C 45.435423,56.99438 45.409051,56.721441 45.391772,56.459643 C 45.373586,56.197544 45.364492,55.945239 45.36449,55.702727 C 45.364492,55.047956 45.421782,54.578171 45.536361,54.293374 C 45.650943,54.008585 45.824633,53.905352 46.05743,53.983677 M 45.446334,49.34014 L 45.683679,49.419998 C 45.647306,49.617939 45.620024,49.827018 45.601836,50.047237 C 45.58365,50.267462 45.574556,50.498829 45.574555,50.741335 C 45.574556,51.11049 45.593653,51.394454 45.631845,51.593226 C 45.67004,51.789309 45.72733,51.900199 45.803716,51.925898 C 45.861917,51.945483 45.90784,51.894919 45.941486,51.774204 C 45.974224,51.653188 46.005597,51.398332 46.035605,51.009632 L 46.054702,50.761423 C 46.092897,50.246146 46.147004,49.889809 46.217025,49.692412 C 46.286137,49.492022 46.382985,49.412785 46.507569,49.454698 C 46.649431,49.502434 46.761738,49.707284 46.84449,50.069248 C 46.927243,50.428523 46.968619,50.89917 46.968619,51.481191 C 46.968619,51.723702 46.960435,51.974236 46.944066,52.232791 C 46.928607,52.488962 46.904963,52.757198 46.873135,53.037501 L 46.613965,52.950299 C 46.662162,52.691672 46.698537,52.433108 46.723089,52.174608 C 46.746733,51.915804 46.758555,51.655717 46.758555,51.394344 C 46.758555,51.044055 46.738549,50.767869 46.698536,50.565786 C 46.657615,50.363401 46.600324,50.249815 46.526665,50.225028 C 46.458463,50.202084 46.406175,50.253202 46.369799,50.378383 C 46.333425,50.500874 46.298414,50.786842 46.264767,51.236285 L 46.244306,51.488078 C 46.211569,51.937832 46.161554,52.25378 46.09426,52.435923 C 46.026058,52.617762 45.932848,52.688793 45.814629,52.649015 C 45.670949,52.600673 45.560006,52.41245 45.481799,52.084345 C 45.403595,51.756245 45.364492,51.314655 45.36449,50.759575 C 45.364492,50.484735 45.371312,50.228353 45.384951,49.99043 C 45.398593,49.752514 45.419054,49.535751 45.446334,49.34014 M 44.96755,47.028797 L 45.40132,47.174745 L 45.40132,45.642893 L 45.59638,45.708524 L 45.59638,47.240376 L 46.425725,47.519421 C 46.550309,47.561341 46.630334,47.538417 46.665799,47.45065 C 46.701265,47.360192 46.718997,47.160026 46.718997,46.85015 L 46.718997,46.086245 L 46.929062,46.156924 L 46.929062,46.920829 C 46.929062,47.49477 46.893142,47.878783 46.821301,48.072868 C 46.748552,48.266649 46.616693,48.331414 46.425725,48.267158 L 45.59638,47.988113 L 45.59638,48.533759 L 45.40132,48.468128 L 45.40132,47.922482 L 44.96755,47.776534 L 44.96755,47.028797 M 46.161098,42.859079 C 46.161099,43.459967 46.184288,43.884076 46.230666,44.131409 C 46.277044,44.378748 46.356159,44.521232 46.468011,44.558865 C 46.557129,44.588851 46.628061,44.526492 46.680803,44.371786 C 46.732638,44.214082 46.758555,43.985683 46.758555,43.686585 C 46.758555,43.274323 46.709449,42.927717 46.611237,42.646772 C 46.512116,42.362831 46.380712,42.193322 46.217025,42.138242 L 46.161098,42.119425 L 46.161098,42.859079 M 46.05743,41.34085 L 46.929062,41.634124 L 46.929062,42.377818 L 46.697172,42.299795 C 46.789928,42.500766 46.858586,42.735388 46.903145,43.003665 C 46.946794,43.271642 46.968619,43.588857 46.968619,43.955313 C 46.968619,44.418778 46.924969,44.773245 46.83767,45.018714 C 46.749461,45.261184 46.631698,45.357637 46.48438,45.308068 C 46.31251,45.250241 46.182924,45.036883 46.095624,44.667996 C 46.008325,44.296417 45.964676,43.772461 45.964675,43.096126 L 45.964675,42.053336 L 45.940122,42.045074 C 45.824633,42.006221 45.735515,42.089406 45.672767,42.294633 C 45.609112,42.496866 45.577284,42.801419 45.577283,43.208292 C 45.577284,43.466972 45.587742,43.722431 45.608657,43.97467 C 45.629573,44.226912 45.660946,44.473242 45.702776,44.713657 L 45.470887,44.635634 C 45.435423,44.351554 45.409051,44.078614 45.391772,43.816817 C 45.373586,43.554718 45.364492,43.302412 45.36449,43.059901 C 45.364492,42.405129 45.421782,41.935344 45.536361,41.650547 C 45.650943,41.365759 45.824633,41.262525 46.05743,41.34085 M 45.694592,36.142241 C 45.581831,35.918383 45.498624,35.668086 45.44497,35.391352 C 45.391319,35.114629 45.364492,34.801119 45.36449,34.450821 C 45.364492,33.979282 45.420418,33.634336 45.532269,33.415981 C 45.643214,33.197334 45.801444,33.122582 46.00696,33.191725 L 46.929062,33.501979 L 46.929062,34.249717 L 46.015145,33.942216 C 45.868737,33.892961 45.760068,33.933192 45.689135,34.062909 C 45.618206,34.192639 45.582741,34.415131 45.582739,34.730387 C 45.582741,35.115713 45.625936,35.434731 45.712325,35.68744 C 45.798716,35.94016 45.916479,36.091606 46.065615,36.141781 L 46.929062,36.4323 L 46.929062,37.180037 L 46.015145,36.872537 C 45.867828,36.822974 45.759158,36.863205 45.689135,36.993231 C 45.618206,37.122958 45.582741,37.348145 45.582739,37.668792 C 45.582741,38.048727 45.62639,38.365203 45.713688,38.618222 C 45.80008,38.870938 45.917388,39.022232 46.065615,39.072103 L 46.929062,39.362622 L 46.929062,40.11036 L 45.40132,39.596329 L 45.40132,38.848591 L 45.638665,38.92845 C 45.545002,38.72718 45.47589,38.500488 45.431329,38.248374 C 45.386771,37.996264 45.364492,37.707186 45.36449,37.381144 C 45.364492,37.052413 45.392683,36.783012 45.449062,36.572941 C 45.505444,36.360184 45.587288,36.216619 45.694592,36.142241 M 45.40132,31.516723 L 45.40132,30.773028 L 46.929062,31.287059 L 46.929062,32.030754 L 45.40132,31.516723 M 44.806592,31.316618 L 44.806592,30.572923 L 45.124417,30.679859 L 45.124417,31.423555 L 44.806592,31.316618 M 46.00696,25.661803 L 46.929062,25.972057 L 46.929062,26.715753 L 46.015145,26.408252 C 45.870556,26.359606 45.762341,26.406728 45.690499,26.549613 C 45.618661,26.692508 45.582741,26.931015 45.582739,27.265135 C 45.582741,27.666626 45.625936,27.997768 45.712325,28.258564 C 45.798716,28.519365 45.916479,28.674853 46.065615,28.72503 L 46.929062,29.01555 L 46.929062,29.763287 L 45.40132,29.249256 L 45.40132,28.501519 L 45.638665,28.581377 C 45.546821,28.372636 45.478163,28.140708 45.432693,27.885592 C 45.387226,27.627788 45.364492,27.341253 45.36449,27.025988 C 45.364492,26.505943 45.419054,26.130897 45.528177,25.90085 C 45.636393,25.670505 45.795988,25.590822 46.00696,25.661803 M 46.161098,22.164947 C 46.161099,22.765834 46.184288,23.189943 46.230666,23.437277 C 46.277044,23.684614 46.356159,23.827099 46.468011,23.864732 C 46.557129,23.894719 46.628061,23.832359 46.680803,23.677653 C 46.732638,23.519949 46.758555,23.291549 46.758555,22.992452 C 46.758555,22.580189 46.709449,22.233585 46.611237,21.952638 C 46.512116,21.668698 46.380712,21.499189 46.217025,21.44411 L 46.161098,21.425293 L 46.161098,22.164947 M 46.05743,20.646717 L 46.929062,20.93999 L 46.929062,21.683686 L 46.697172,21.605663 C 46.789928,21.806632 46.858586,22.041255 46.903145,22.309532 C 46.946794,22.577508 46.968619,22.894725 46.968619,23.261181 C 46.968619,23.724645 46.924969,24.079111 46.83767,24.324581 C 46.749461,24.567052 46.631698,24.663503 46.48438,24.613935 C 46.31251,24.556107 46.182924,24.34275 46.095624,23.973863 C 46.008325,23.602284 45.964676,23.078328 45.964675,22.401994 L 45.964675,21.359203 L 45.940122,21.350942 C 45.824633,21.312088 45.735515,21.395274 45.672767,21.6005 C 45.609112,21.802733 45.577284,22.107286 45.577283,22.51416 C 45.577284,22.772839 45.587742,23.028298 45.608657,23.280537 C 45.629573,23.53278 45.660946,23.779108 45.702776,24.019524 L 45.470887,23.941501 C 45.435423,23.657421 45.409051,23.384482 45.391772,23.122684 C 45.373586,22.860585 45.364492,22.60828 45.36449,22.365768 C 45.364492,21.710996 45.421782,21.241212 45.536361,20.956414 C 45.650943,20.671625 45.824633,20.568393 46.05743,20.646717"
       style="font-size:5.38862085px;font-style:normal;font-variant:normal;font-weight:normal;font-stretch:normal;text-align:start;line-height:125%;writing-mode:lr-tb;text-anchor:start;opacity:0.63999999;fill:url(#linearGradient2871);fill-opacity:1;stroke:none;stroke-width:1px;stroke-linecap:butt;stroke-linejoin:miter;stroke-opacity:1;font-family:Bitstream Vera Sans" />
  </g>
</svg>
