<?xml version="1.0" encoding="UTF-8" standalone="no"?>
<!-- Created with Inkscape (http://www.inkscape.org/) -->
<svg
   xmlns:dc="http://purl.org/dc/elements/1.1/"
   xmlns:cc="http://web.resource.org/cc/"
   xmlns:rdf="http://www.w3.org/1999/02/22-rdf-syntax-ns#"
   xmlns:svg="http://www.w3.org/2000/svg"
   xmlns="http://www.w3.org/2000/svg"
   xmlns:xlink="http://www.w3.org/1999/xlink"
   xmlns:sodipodi="http://sodipodi.sourceforge.net/DTD/sodipodi-0.dtd"
   xmlns:inkscape="http://www.inkscape.org/namespaces/inkscape"
   width="128"
   height="128"
   id="svg11465"
   sodipodi:version="0.32"
   inkscape:version="0.44"
   version="1.0"
   sodipodi:docbase="/home/pinheiro/artwork/Oxygen/theme/svg/actions"
   sodipodi:docname="identity.svg">
  <defs
     id="defs11467">
    <radialGradient
       gradientUnits="userSpaceOnUse"
       gradientTransform="matrix(0.198406,0,-5.256355e-3,-0.198406,-93.84279,22.97293)"
       r="130.5231"
       cy="-319.7261"
       cx="336.8938"
       id="radialGradient4035">
      <stop
         id="stop4037"
         style="stop-color:#A4C0E4"
         offset="0" />
      <stop
         id="stop4039"
         style="stop-color:#6193CF"
         offset="0.6036" />
      <stop
         id="stop4041"
         style="stop-color:#A4C0E4"
         offset="1" />
    </radialGradient>
    <radialGradient
       gradientUnits="userSpaceOnUse"
       gradientTransform="matrix(0.198406,0,-5.256355e-3,-0.198406,-452.9859,-58.52922)"
       r="130.5231"
       cy="-319.7261"
       cx="336.8938"
       id="radialGradient4029">
      <stop
         id="stop4031"
         style="stop-color:#A4C0E4"
         offset="0" />
      <stop
         id="stop4033"
         style="stop-color:#6193CF"
         offset="1" />
    </radialGradient>
    <radialGradient
       id="XMLID_12_"
       cx="336.8938"
       cy="-319.7261"
       r="130.5231"
       gradientTransform="matrix(0.198406,0,-5.256355e-3,-0.198406,-93.84279,22.97293)"
       gradientUnits="userSpaceOnUse">
      <stop
         offset="0"
         style="stop-color:#A4C0E4"
         id="stop44" />
      <stop
         offset="0.6036"
         style="stop-color:#6193CF"
         id="stop46" />
      <stop
         offset="1"
         style="stop-color:#A4C0E4"
         id="stop48" />
    </radialGradient>
    <linearGradient
       id="XMLID_7_"
       gradientUnits="userSpaceOnUse"
       x1="290.9375"
       y1="27.1499"
       x2="233.8198"
       y2="184.0795"
       gradientTransform="matrix(0.9659,-0.2588,0.2588,0.9659,-368.9027,-26.63475)">
      <stop
         offset="0"
         style="stop-color:#EEEEEE"
         id="stop785" />
      <stop
         offset="0.2012"
         style="stop-color:#FFFFFF"
         id="stop787" />
      <stop
         offset="0.3969"
         style="stop-color:#F9F9F9"
         id="stop789" />
      <stop
         offset="0.574"
         style="stop-color:#EEEEEE"
         id="stop791" />
      <stop
         offset="0.7988"
         style="stop-color:#FFFFFF"
         id="stop793" />
    </linearGradient>
    <linearGradient
       inkscape:collect="always"
       xlink:href="#XMLID_7_"
       id="linearGradient8712"
       gradientUnits="userSpaceOnUse"
       gradientTransform="matrix(1.194801,-1.634576e-5,1.633659e-5,1.195471,-260.4728,-43.301)"
       x1="296.85559"
       y1="34.247837"
       x2="383.84659"
       y2="147.11354" />
    <linearGradient
       inkscape:collect="always"
       xlink:href="#XMLID_12_"
       id="linearGradient10541"
       gradientUnits="userSpaceOnUse"
       gradientTransform="matrix(0.209908,-3.766857e-2,3.62667e-2,0.244064,5.332846,20.81113)"
       x1="8.207305"
       y1="219.11998"
       x2="134.41685"
       y2="219.11998" />
    <linearGradient
       inkscape:collect="always"
       xlink:href="#radialGradient4035"
       id="linearGradient10543"
       gradientUnits="userSpaceOnUse"
       gradientTransform="matrix(0.216453,-3.884327e-2,3.645922e-2,0.245359,12.05874,59.14474)"
       x1="73.783409"
       y1="-17.918573"
       x2="59.461929"
       y2="151.13226" />
    <linearGradient
       inkscape:collect="always"
       xlink:href="#radialGradient4029"
       id="linearGradient10545"
       gradientUnits="userSpaceOnUse"
       gradientTransform="matrix(0.216453,-3.884327e-2,3.645922e-2,0.245359,11.94627,59.0505)"
       x1="81.624855"
       y1="-4.6484313"
       x2="73.938446"
       y2="133.6398" />
    <linearGradient
       inkscape:collect="always"
       xlink:href="#XMLID_7_"
       id="linearGradient4604"
       x1="-24.932241"
       y1="-13.071564"
       x2="143.06032"
       y2="103.4277"
       gradientUnits="userSpaceOnUse" />
    <linearGradient
       y2="36.570763"
       x2="46.637329"
       y1="-43.929237"
       x1="69.03923"
       gradientUnits="userSpaceOnUse"
       id="linearGradient3036"
       xlink:href="#linearGradient3013"
       inkscape:collect="always" />
    <radialGradient
       gradientUnits="userSpaceOnUse"
       gradientTransform="matrix(1,0,0,0.861838,0,8.667266)"
       r="61.600001"
       fy="49.969273"
       fx="120.002"
       cy="49.969273"
       cx="120.002"
       id="radialGradient3029"
       xlink:href="#linearGradient3023"
       inkscape:collect="always" />
    <linearGradient
       gradientUnits="userSpaceOnUse"
       y2="100.32076"
       x2="69.637329"
       y1="-66.679237"
       x1="45.789234"
       id="linearGradient3019"
       xlink:href="#linearGradient3013"
       inkscape:collect="always" />
    <linearGradient
       gradientTransform="matrix(1.11851,0,0,1.11851,-78.91956,-13.44646)"
       gradientUnits="userSpaceOnUse"
       y2="91.609367"
       x2="115.5625"
       y1="-6.8906326"
       x1="127.99593"
       id="linearGradient3001"
       xlink:href="#linearGradient2995"
       inkscape:collect="always" />
    <linearGradient
       gradientTransform="matrix(-1.507231,0.8702,0.830106,1.437785,124.5926,-38.67976)"
       gradientUnits="userSpaceOnUse"
       y2="26.10339"
       x2="97.413643"
       y1="26.10339"
       x1="24.392714"
       id="linearGradient3455"
       xlink:href="#XMLID_2_"
       inkscape:collect="always" />
    <linearGradient
       id="XMLID_2_"
       gradientUnits="userSpaceOnUse"
       x1="64.000504"
       y1="113"
       x2="64.000504"
       y2="29.0005">
      <stop
         offset="0"
         style="stop-color:#00bf00;stop-opacity:1;"
         id="stop20" />
      <stop
         offset="1"
         style="stop-color:#009300;stop-opacity:1;"
         id="stop22" />
    </linearGradient>
    <radialGradient
       gradientUnits="userSpaceOnUse"
       gradientTransform="matrix(1,0,0,0.197802,0,92.82166)"
       r="63.912209"
       fy="115.7093"
       fx="63.912209"
       cy="115.70919"
       cx="63.912209"
       id="radialGradient3297"
       xlink:href="#linearGradient3291"
       inkscape:collect="always" />
    <linearGradient
       id="linearGradient3291"
       inkscape:collect="always">
      <stop
         id="stop3293"
         offset="0"
         style="stop-color:#000000;stop-opacity:1;" />
      <stop
         id="stop3295"
         offset="1"
         style="stop-color:#000000;stop-opacity:0;" />
    </linearGradient>
    <linearGradient
       y2="29.0005"
       x2="64.000504"
       y1="113"
       x1="64.000504"
       gradientUnits="userSpaceOnUse"
       id="linearGradient2979">
      <stop
         id="stop2981"
         style="stop-color:white;stop-opacity:1"
         offset="0" />
      <stop
         id="stop2983"
         style="stop-color:#009300;stop-opacity:1;"
         offset="1" />
    </linearGradient>
    <linearGradient
       id="linearGradient2995"
       inkscape:collect="always">
      <stop
         id="stop2997"
         offset="0"
         style="stop-color:white;stop-opacity:1;" />
      <stop
         id="stop2999"
         offset="1"
         style="stop-color:white;stop-opacity:0;" />
    </linearGradient>
    <linearGradient
       id="linearGradient3013"
       inkscape:collect="always">
      <stop
         id="stop3015"
         offset="0"
         style="stop-color:white;stop-opacity:1;" />
      <stop
         id="stop3017"
         offset="1"
         style="stop-color:white;stop-opacity:0;" />
    </linearGradient>
    <linearGradient
       id="linearGradient3023"
       inkscape:collect="always">
      <stop
         id="stop3025"
         offset="0"
         style="stop-color:#009300;stop-opacity:1;" />
      <stop
         id="stop3027"
         offset="1"
         style="stop-color:#009300;stop-opacity:0;" />
    </linearGradient>
    <linearGradient
       inkscape:collect="always"
       xlink:href="#linearGradient2979"
       id="linearGradient3245"
       x1="29.298576"
       y1="7.6345978"
       x2="66.048576"
       y2="110.46935"
       gradientUnits="userSpaceOnUse" />
    <linearGradient
       inkscape:collect="always"
       xlink:href="#linearGradient3013"
       id="linearGradient3248"
       gradientUnits="userSpaceOnUse"
       x1="69.03923"
       y1="-43.929237"
       x2="46.637329"
       y2="36.570763"
       gradientTransform="translate(-435.8171,48.10215)" />
    <linearGradient
       inkscape:collect="always"
       xlink:href="#linearGradient2995"
       id="linearGradient3252"
       gradientUnits="userSpaceOnUse"
       gradientTransform="matrix(1.11851,0,0,1.11851,-514.7367,34.65569)"
       x1="127.99593"
       y1="-6.8906326"
       x2="115.5625"
       y2="91.609367" />
    <linearGradient
       inkscape:collect="always"
       xlink:href="#linearGradient3013"
       id="linearGradient3255"
       gradientUnits="userSpaceOnUse"
       x1="45.789234"
       y1="-66.679237"
       x2="69.637329"
       y2="100.32076"
       gradientTransform="translate(-435.8171,48.10215)" />
    <radialGradient
       inkscape:collect="always"
       xlink:href="#linearGradient3023"
       id="radialGradient3258"
       gradientUnits="userSpaceOnUse"
       gradientTransform="matrix(1,0,0,0.861838,-435.8171,56.76942)"
       cx="120.002"
       cy="49.969273"
       fx="120.002"
       fy="49.969273"
       r="61.600001" />
    <linearGradient
       inkscape:collect="always"
       xlink:href="#XMLID_2_"
       id="linearGradient3261"
       gradientUnits="userSpaceOnUse"
       gradientTransform="matrix(-1.507231,0.8702,0.830106,1.437785,-311.2245,9.42239)"
       x1="24.392714"
       y1="26.10339"
       x2="97.413643"
       y2="26.10339" />
    <radialGradient
       inkscape:collect="always"
       xlink:href="#linearGradient3291"
       id="radialGradient3292"
       gradientUnits="userSpaceOnUse"
       gradientTransform="matrix(1,0,0,0.197802,0,92.82166)"
       cx="63.912209"
       cy="115.70919"
       fx="63.912209"
       fy="115.7093"
       r="63.912209" />
  </defs>
  <sodipodi:namedview
     id="base"
     pagecolor="#ffffff"
     bordercolor="#666666"
     borderopacity="1.0"
     inkscape:pageopacity="0.0"
     inkscape:pageshadow="2"
     inkscape:zoom="4"
     inkscape:cx="55.659878"
     inkscape:cy="74.572714"
     inkscape:current-layer="layer1"
     showgrid="false"
     inkscape:document-units="px"
     inkscape:grid-bbox="true"
     inkscape:window-width="954"
     inkscape:window-height="688"
     inkscape:window-x="330"
     inkscape:window-y="112"
     fill="#b1d28f" />
  <metadata
     id="metadata11470">
    <rdf:RDF>
      <cc:Work
         rdf:about="">
        <dc:format>image/svg+xml</dc:format>
        <dc:type
           rdf:resource="http://purl.org/dc/dcmitype/StillImage" />
      </cc:Work>
    </rdf:RDF>
  </metadata>
  <g
     id="layer1"
     inkscape:label="Layer 1"
     inkscape:groupmode="layer">
    <path
       style="opacity:0.15;fill:none;stroke:black;stroke-width:4.22926044;stroke-linecap:round;stroke-linejoin:round;stroke-miterlimit:4;stroke-dasharray:none;stroke-opacity:1"
       d="M 124.87513,14.523804 C 124.40132,14.523844 117.9369,14.52364 108.77229,14.523908 L 108.76353,19.472318 C 112.14813,20.587981 114.57254,23.76996 114.55707,27.526811 C 114.53788,32.195486 110.74883,35.970366 106.08277,35.951163 C 101.41668,35.93196 97.644193,32.139347 97.663384,27.470651 C 97.677028,24.151497 99.611217,21.277732 102.40013,19.904661 L 102.3944,14.524112 C 92.448215,14.524401 80.532236,14.525133 68.05514,14.525523 L 68.046621,19.573568 C 71.431234,20.689229 73.85588,23.869772 73.840447,27.626608 C 73.821251,32.295308 70.030762,36.069921 65.364677,36.050729 C 60.698624,36.031517 56.927571,32.239149 56.946757,27.570461 C 56.960391,24.251308 58.893127,21.377286 61.682047,20.004217 L 61.675571,14.526905 C 49.382989,14.52728 37.311884,14.526628 27.336533,14.526872 L 27.328554,19.673125 C 30.713169,20.788787 33.137823,23.969327 33.122357,27.726162 C 33.103172,32.394862 29.314137,36.169733 24.648044,36.150538 C 19.98199,36.131338 16.20947,32.338711 16.228691,27.670015 C 16.242327,24.350863 18.176494,21.477097 20.965416,20.104028 L 20.960081,14.527333 C 11.083147,14.527576 4.0684084,14.526996 3.5737281,14.526975 C 3.5737931,16.647104 4.0376528,108.55645 4.0377153,110.67658 C 6.1841935,110.67527 123.19322,110.67244 125.33911,110.67341 C 125.33939,108.55212 124.87487,16.645081 124.87513,14.523804 z "
       id="path5299" />
    <path
       id="path5301"
       d="M 124.87513,14.523804 C 124.40132,14.523844 117.9369,14.52364 108.77229,14.523908 L 108.76353,19.472318 C 112.14813,20.587981 114.57254,23.76996 114.55707,27.526811 C 114.53788,32.195486 110.74883,35.970366 106.08277,35.951163 C 101.41668,35.93196 97.644193,32.139347 97.663384,27.470651 C 97.677028,24.151497 99.611217,21.277732 102.40013,19.904661 L 102.3944,14.524112 C 92.448215,14.524401 80.532236,14.525133 68.05514,14.525523 L 68.046621,19.573568 C 71.431234,20.689229 73.85588,23.869772 73.840447,27.626608 C 73.821251,32.295308 70.030762,36.069921 65.364677,36.050729 C 60.698624,36.031517 56.927571,32.239149 56.946757,27.570461 C 56.960391,24.251308 58.893127,21.377286 61.682047,20.004217 L 61.675571,14.526905 C 49.382989,14.52728 37.311884,14.526628 27.336533,14.526872 L 27.328554,19.673125 C 30.713169,20.788787 33.137823,23.969327 33.122357,27.726162 C 33.103172,32.394862 29.314137,36.169733 24.648044,36.150538 C 19.98199,36.131338 16.20947,32.338711 16.228691,27.670015 C 16.242327,24.350863 18.176494,21.477097 20.965416,20.104028 L 20.960081,14.527333 C 11.083147,14.527576 4.0684084,14.526996 3.5737281,14.526975 C 3.5737931,16.647104 4.0376528,108.55645 4.0377153,110.67658 C 6.1841935,110.67527 123.19322,110.67244 125.33911,110.67341 C 125.33939,108.55212 124.87487,16.645081 124.87513,14.523804 z "
       style="opacity:0.2;fill:none;stroke:black;stroke-width:2.74901891;stroke-linecap:round;stroke-linejoin:round;stroke-miterlimit:4;stroke-dasharray:none;stroke-opacity:1" />
    <path
       id="path5297"
       d="M 124.49545,13.981286 C 124.02161,13.981325 117.55719,13.981119 108.39261,13.981389 L 108.38383,18.929798 C 111.76843,20.045462 114.19282,23.227439 114.17738,26.984294 C 114.1582,31.652966 110.36916,35.427845 105.70307,35.408642 C 101.037,35.389441 97.264509,31.596829 97.283701,26.928132 C 97.297343,23.608977 99.231534,20.735215 102.02045,19.36214 L 102.01472,13.981592 C 92.068532,13.98188 80.152555,13.982612 67.675457,13.983003 L 67.666936,19.031047 C 71.051552,20.146711 73.476197,23.327252 73.460763,27.084091 C 73.441567,31.752787 69.65108,35.527401 64.984994,35.508208 C 60.31894,35.488999 56.547889,31.696629 56.567074,27.027941 C 56.580709,23.708788 58.513443,20.834768 61.302366,19.461697 L 61.295888,13.984389 C 49.003306,13.984759 36.932201,13.984109 26.956849,13.984354 L 26.948871,19.130604 C 30.333485,20.246268 32.758139,23.426812 32.742676,27.183645 C 32.723487,31.852344 28.934453,35.627212 24.26836,35.608019 C 19.602306,35.588819 15.829785,31.796191 15.849009,27.127497 C 15.862643,23.808346 17.796809,20.934577 20.585734,19.561509 L 20.580398,13.984812 C 10.703465,13.985056 3.6887251,13.984478 3.1940451,13.984454 C 3.1941101,16.104584 3.6579697,108.01393 3.6580333,110.13406 C 5.8045114,110.13273 122.81353,110.12994 124.95941,110.13088 C 124.95966,108.0096 124.49519,16.102562 124.49545,13.981286 z "
       style="opacity:0.25;fill:none;stroke:black;stroke-width:2.11463022;stroke-linecap:round;stroke-linejoin:round;stroke-miterlimit:4;stroke-dasharray:none;stroke-opacity:1" />
    <path
       style="opacity:0.3;fill:none;stroke:black;stroke-width:1.05731511;stroke-linecap:round;stroke-linejoin:round;stroke-miterlimit:4;stroke-dasharray:none;stroke-opacity:1"
       d="M 124.49545,13.981286 C 124.02161,13.981325 117.55719,13.981119 108.39261,13.981389 L 108.38383,18.929798 C 111.76843,20.045462 114.19282,23.227439 114.17738,26.984294 C 114.1582,31.652966 110.36916,35.427845 105.70307,35.408642 C 101.037,35.389441 97.264509,31.596829 97.283701,26.928132 C 97.297343,23.608977 99.231534,20.735215 102.02045,19.36214 L 102.01472,13.981592 C 92.068532,13.98188 80.152555,13.982612 67.675457,13.983003 L 67.666936,19.031047 C 71.051552,20.146711 73.476197,23.327252 73.460763,27.084091 C 73.441567,31.752787 69.65108,35.527401 64.984994,35.508208 C 60.31894,35.488999 56.547889,31.696629 56.567074,27.027941 C 56.580709,23.708788 58.513443,20.834768 61.302366,19.461697 L 61.295888,13.984389 C 49.003306,13.984759 36.932201,13.984109 26.956849,13.984354 L 26.948871,19.130604 C 30.333485,20.246268 32.758139,23.426812 32.742676,27.183645 C 32.723487,31.852344 28.934453,35.627212 24.26836,35.608019 C 19.602306,35.588819 15.829785,31.796191 15.849009,27.127497 C 15.862643,23.808346 17.796809,20.934577 20.585734,19.561509 L 20.580398,13.984812 C 10.703465,13.985056 3.6887251,13.984478 3.1940451,13.984454 C 3.1941101,16.104584 3.6579697,108.01393 3.6580333,110.13406 C 5.8045114,110.13273 122.81353,110.12994 124.95941,110.13088 C 124.95966,108.0096 124.49519,16.102562 124.49545,13.981286 z "
       id="path4422" />
    <path
       id="path2867"
       d="M 124.11584,13.438751 C 123.64203,13.438794 117.17762,13.438587 108.013,13.438859 L 108.00423,18.387271 C 111.38884,19.50293 113.81324,22.684907 113.79778,26.441756 C 113.77862,31.110435 109.98954,34.885312 105.32347,34.86611 C 100.6574,34.846908 96.884903,31.054297 96.904093,26.385601 C 96.917734,23.066451 98.851927,20.192684 101.64084,18.819612 L 101.63511,13.439065 C 91.688918,13.439354 79.772932,13.440087 67.295826,13.440482 L 67.287308,18.488523 C 70.671927,19.604188 73.096572,22.784727 73.08114,26.541565 C 73.061944,31.210261 69.271453,34.984875 64.605367,34.965683 C 59.93931,34.946473 56.168254,31.154106 56.187436,26.485417 C 56.201074,23.166265 58.133807,20.292246 60.922731,18.919177 L 60.916251,13.441867 C 48.623661,13.44224 36.552551,13.441592 26.57719,13.441838 L 26.569215,18.588088 C 29.953832,19.70375 32.37849,22.884292 32.363024,26.641125 C 32.34384,31.309822 28.554802,35.084693 23.888705,35.0655 C 19.222648,35.0463 15.450126,31.253675 15.469348,26.584983 C 15.482982,23.26583 17.417149,20.392064 20.206075,19.018992 L 20.200739,13.442299 C 10.323798,13.442545 3.3090534,13.441966 2.814373,13.441941 C 2.8144384,15.562071 3.2783128,107.47141 3.2783758,109.59155 C 5.4248602,109.5902 122.43399,109.58739 124.57985,109.58835 C 124.58009,107.46707 124.11558,15.560027 124.11584,13.438751 z "
       style="fill:url(#linearGradient8712);stroke:none;stroke-width:1.05700004;stroke-miterlimit:4;stroke-dasharray:none;stroke-opacity:1" />
    <path
       style="opacity:1;fill:url(#linearGradient4604);fill-opacity:1.0;fill-rule:nonzero;stroke:none;stroke-width:0.2;stroke-linecap:round;stroke-linejoin:round;stroke-miterlimit:4;stroke-dasharray:none;stroke-dashoffset:4;stroke-opacity:1"
       d="M 52.665133,39.427697 L 52.665133,92.302697 L 9.0088835,92.302697 L 9.0088835,103.33395 L 118.66513,103.4277 L 118.66513,39.427697 L 52.665133,39.427697 z "
       id="rect1936"
       sodipodi:nodetypes="ccccccc" />
    <path
       style="opacity:0.46000001;fill:url(#linearGradient3245);fill-opacity:1.0;fill-rule:nonzero;stroke:none;stroke-width:2.0570004;stroke-linecap:butt;stroke-linejoin:miter;stroke-miterlimit:4;stroke-dasharray:none;stroke-dashoffset:4;stroke-opacity:1"
       d="M 119.79858,38.81345 L 118.63859,38.812043 L 8.1283108,38.832734 L 6.968303,38.831327 L 6.9731249,39.957947 L 6.9915982,103.84692 L 8.1224076,104.96871 L 118.6667,104.95425 L 119.78164,103.85686 L 119.79719,39.97411 L 119.79858,38.81345 z M 117.51601,41.104147 L 117.49706,102.6996 L 9.2727747,102.71689 L 9.2844949,93.044723 L 10.23416,93.042781 L 51.824345,93.062285 C 52.491892,93.037753 52.779319,92.633101 52.858788,92.020491 L 52.857454,42.065659 L 52.855513,41.115462 L 117.51601,41.104147 z M 50.799079,41.130969 L 50.79365,91.008986 L 9.572888,91.016755 L 9.550527,41.098466 L 50.799079,41.130969 z "
       id="rect5303"
       sodipodi:nodetypes="cccccccccccccccccccccccccc" />
    <text
       xml:space="preserve"
       style="font-size:6.85397434px;font-style:normal;font-variant:normal;font-weight:normal;font-stretch:normal;text-align:start;line-height:125%;writing-mode:lr-tb;text-anchor:start;fill:#006e29;fill-opacity:1;stroke:none;stroke-width:1px;stroke-linecap:butt;stroke-linejoin:miter;stroke-opacity:1;font-family:Luxi Sans"
       x="58.164818"
       y="61.324219"
       id="text10503"
       sodipodi:linespacing="125%"
       transform="matrix(0.999703,-5.768749e-3,5.765513e-3,1.000264,0,0)"><tspan
         sodipodi:role="line"
         id="tspan10505"
         x="58.164818"
         y="61.324219">Oxygen Icons</tspan><tspan
         sodipodi:role="line"
         x="58.164818"
         y="69.891687"
         id="tspan10507">1100 Sea of Colors</tspan><tspan
         sodipodi:role="line"
         x="58.164818"
         y="78.459155"
         id="tspan10509">World</tspan></text>
    <g
       id="g10535"
       transform="matrix(1.569071,0.253789,-0.237021,1.450336,2.678611,-41.73517)">
      <g
         id="g10511">
        <path
           d="M 25.730957,56.969284 C 24.022824,57.39872 22.455448,58.5089 21.791544,60.259702 C 21.642295,60.653301 21.647531,60.902882 21.629253,61.282491 C 21.610971,61.662075 21.619148,62.11589 21.654036,62.602896 C 21.721961,63.55095 21.869709,64.631761 22.096011,65.769497 C 22.548979,68.04683 23.206299,70.263402 24.007714,71.520795 C 24.808218,72.776773 25.08551,74.78329 24.834362,75.545775 C 24.522903,76.491386 23.631683,77.428049 21.987955,78.308836 C 20.154138,79.291476 18.718185,80.184335 17.778912,81.515155 C 16.947366,82.693354 16.486005,83.965799 16.706599,85.450326 L 17.032581,87.64409 L 17.185983,88.676456 L 18.07648,88.516653 L 42.787715,84.08213 L 43.67821,83.922328 L 43.524806,82.889961 L 43.198825,80.696199 C 42.978233,79.211669 42.1725,78.166611 41.043094,77.340312 C 39.781547,76.417336 38.155776,76.032089 36.119773,75.739714 C 34.293038,75.477379 33.187951,74.925068 32.626194,74.147502 C 32.167375,73.512422 31.849437,71.5132 32.244791,70.042623 C 32.640599,68.570382 32.622139,66.239161 32.392358,63.921779 C 32.277559,62.764035 32.104766,61.687704 31.894729,60.765166 C 31.786838,60.29126 31.663222,59.85816 31.536011,59.504687 C 31.408795,59.151186 31.341511,58.912741 31.086085,58.591762 C 29.955487,57.171071 28.124389,56.539774 26.343174,56.859419 L 25.786613,56.959297 L 25.758786,56.964291 L 25.730957,56.969284 z "
           style="fill:url(#linearGradient10541);fill-opacity:1;stroke:none;stroke-width:2;stroke-miterlimit:4;stroke-dasharray:none;stroke-opacity:1"
           id="path3220" />
        <path
           style="opacity:0.24590167;fill:url(#linearGradient10543);fill-opacity:1;fill-rule:evenodd;stroke:none;stroke-width:1px;stroke-linecap:butt;stroke-linejoin:miter;stroke-opacity:1"
           d="M 25.664261,57.096867 C 23.987285,57.540487 22.46396,58.646896 21.810391,60.370475 C 21.661141,60.76406 21.661078,61.012812 21.642797,61.392409 C 21.624519,61.772005 21.638117,62.230347 21.67301,62.717352 C 21.740928,63.665395 21.889066,64.743487 22.115364,65.881222 C 22.21244,66.369273 22.319312,66.853957 22.434441,67.3275 C 23.700105,63.842056 25.710751,60.524604 29.14446,57.243789 C 28.278695,56.896787 27.31256,56.801071 26.360968,56.971839 L 25.806308,57.071374 L 25.772488,57.077444 L 25.745433,57.082301 C 25.743764,57.08272 25.740354,57.083184 25.738668,57.083513 C 25.731892,57.084662 25.718385,57.087219 25.711612,57.088369 C 25.709931,57.088722 25.706512,57.089149 25.704847,57.089582 C 25.691627,57.093001 25.677467,57.093371 25.664261,57.096867 z M 31.775479,60.321904 C 25.642145,67.635402 25.718057,74.501928 26.256802,83.330128 C 33.473192,81.97087 40.700207,79.366509 42.99176,79.909774 C 42.630539,78.88489 41.943953,78.103047 41.057452,77.454458 C 39.795907,76.531481 38.174403,76.142059 36.138394,75.849672 C 34.311662,75.587334 33.206477,75.034291 32.64472,74.256726 C 32.185897,73.621635 31.868723,71.623453 32.264082,70.1529 C 32.659889,68.680648 32.640155,66.351127 32.410374,64.033745 C 32.295576,62.875999 32.123937,61.802124 31.913903,60.879585 C 31.870073,60.687065 31.82426,60.499329 31.775479,60.321904 z M 20.074808,79.535281 C 19.141709,80.147709 18.374337,80.808894 17.795607,81.628881 C 17.273943,82.368024 16.895886,83.14024 16.742576,83.982652 C 17.637742,84.088936 18.582629,84.125727 19.559668,84.106867 C 19.752941,82.537967 19.913172,81.016098 20.074808,79.535281 z "
           id="path3271" />
      </g>
      <path
         id="path2377"
         d="M 25.592375,56.995277 C 23.899815,57.431927 22.356632,58.539035 21.697917,60.276169 C 21.548669,60.669754 21.548606,60.918507 21.530322,61.298105 C 21.512045,61.677699 21.525644,62.13604 21.560535,62.623047 C 21.628455,63.571102 21.776591,64.649195 22.002891,65.786917 C 22.455857,68.064247 23.111478,70.279657 23.912898,71.537063 C 24.7134,72.793024 24.991115,74.79829 24.739967,75.560774 C 24.428508,76.506386 23.537171,77.442199 21.893448,78.322986 C 20.059629,79.305627 18.622406,80.203756 17.683135,81.534591 C 17.161469,82.273718 16.783414,83.045934 16.6301,83.888346 C 25.62711,84.956632 39.528143,79.021024 42.879283,79.815469 C 42.518067,78.790585 41.831478,78.008743 40.94498,77.360167 C 39.683429,76.437178 38.06193,76.047753 36.02592,75.755367 C 34.19919,75.493029 33.094005,74.939997 32.532246,74.162421 C 32.073427,73.527341 31.756251,71.529159 32.15161,70.058593 C 32.547414,68.586341 32.527679,66.256821 32.297899,63.93944 C 32.183103,62.781708 32.011467,61.707833 31.801429,60.78528 C 31.693537,60.311374 31.566989,59.873302 31.439773,59.519816 C 31.312563,59.166329 31.247258,58.929308 30.991831,58.608342 C 29.861236,57.187653 28.02971,56.557887 26.248494,56.877532 L 25.693835,56.977069 L 25.660016,56.983138 L 25.632958,56.987994 C 25.619616,56.991364 25.605703,56.991854 25.592375,56.995277 z "
         style="opacity:0.17213117;fill:url(#linearGradient10545);fill-opacity:1;fill-rule:evenodd;stroke:none;stroke-width:1px;stroke-linecap:butt;stroke-linejoin:miter;stroke-opacity:1" />
    </g>
    <path
       style="fill:none;stroke:white;stroke-width:0.75699991;stroke-miterlimit:4;stroke-dasharray:none;stroke-opacity:1"
       d="M 123.8943,13.792299 C 123.42247,13.792341 116.98511,13.792135 107.85883,13.792405 L 107.85011,18.704425 C 111.22055,19.811879 113.63481,22.970454 113.61941,26.699674 C 113.60033,31.334017 109.82711,35.081132 105.18056,35.062071 C 100.53402,35.043011 96.7773,31.278292 96.796409,26.643931 C 96.809993,23.349192 98.736094,20.49656 101.51334,19.133586 L 101.50763,13.79261 C 91.603055,13.792897 79.736927,13.793625 67.312026,13.794016 L 67.303544,18.804932 C 70.674001,19.912392 73.088501,23.06954 73.073134,26.798749 C 73.054019,31.433109 69.279387,35.179963 64.632825,35.160912 C 59.986291,35.141843 56.231013,31.377367 56.250115,26.743013 C 56.263696,23.448272 58.188343,20.595389 60.965598,19.232419 L 60.959144,13.795391 C 48.717988,13.795762 36.697385,13.795118 26.763762,13.795362 L 26.75582,18.903765 C 30.126275,20.011221 32.540789,23.168373 32.525387,26.897577 C 32.506284,31.531938 28.733099,35.279047 24.086526,35.259995 C 19.439992,35.240936 15.683255,31.476203 15.702396,26.841847 C 15.715973,23.547105 17.642048,20.694473 20.419304,19.3315 L 20.41399,13.795821 C 10.578375,13.796065 3.5929816,13.79549 3.1003709,13.795465 C 3.1004361,15.900002 3.5623696,107.1334 3.5624323,109.23795 C 5.6999356,109.23661 122.21948,109.23382 124.35637,109.23477 C 124.35661,107.1291 123.89404,15.897974 123.8943,13.792299 z "
       id="path4607" />
    <path
       sodipodi:nodetypes="ccc"
       id="path2276"
       d="M -384.9243,51.383446 L -384.9243,48.588737 L -384.9243,51.383446 z "
       style="fill:white;fill-opacity:0.75688076;fill-rule:nonzero;stroke:none;stroke-width:0.5;stroke-linecap:round;stroke-linejoin:round;stroke-miterlimit:4;stroke-dasharray:none;stroke-dashoffset:4;stroke-opacity:1" />
    <path
       sodipodi:type="arc"
       style="opacity:0.38139535;fill:url(#radialGradient3292);fill-opacity:1;fill-rule:nonzero;stroke:none;stroke-width:0;stroke-linecap:round;stroke-linejoin:round;stroke-miterlimit:4;stroke-dasharray:none;stroke-dashoffset:4;stroke-opacity:1"
       id="path3289"
       sodipodi:cx="63.912209"
       sodipodi:cy="115.70919"
       sodipodi:rx="63.912209"
       sodipodi:ry="12.641975"
       d="M 127.82442 115.70919 A 63.912209 12.641975 0 1 1  0,115.70919 A 63.912209 12.641975 0 1 1  127.82442 115.70919 z"
       transform="matrix(1.003912,0,0,0.416667,-7.511e-2,74.47623)" />
    <path
       sodipodi:nodetypes="ccc"
       id="path2985"
       d="M -541.9326,-18.251654 L -541.9326,-21.046363 L -541.9326,-18.251654 z "
       style="fill:white;fill-opacity:0.75688076;fill-rule:nonzero;stroke:none;stroke-width:0.5;stroke-linecap:round;stroke-linejoin:round;stroke-miterlimit:4;stroke-dasharray:none;stroke-dashoffset:4;stroke-opacity:1" />
    <path
       sodipodi:nodetypes="ccc"
       id="path3206"
       d="M -661.4348,-104.8819 L -661.4348,-107.67661 L -661.4348,-104.8819 z "
       style="fill:white;fill-opacity:0.75688076;fill-rule:nonzero;stroke:none;stroke-width:0.5;stroke-linecap:round;stroke-linejoin:round;stroke-miterlimit:4;stroke-dasharray:none;stroke-dashoffset:4;stroke-opacity:1" />
    <g
       id="layer4"
       inkscape:label="box"
       style="display:inline"
       transform="translate(-478.4832,39.69973)" />
    <g
       id="layer5"
       inkscape:label="zip_app"
       style="display:inline"
       transform="translate(-478.4832,39.69973)" />
    <path
       sodipodi:nodetypes="ccc"
       id="path3946"
       d="M -414.8434,-39.126634 L -414.8434,-41.921343 L -414.8434,-39.126634 z "
       style="fill:white;fill-opacity:0.75688076;fill-rule:nonzero;stroke:none;stroke-width:0.5;stroke-linecap:round;stroke-linejoin:round;stroke-miterlimit:4;stroke-dasharray:none;stroke-dashoffset:4;stroke-opacity:1" />
    <path
       sodipodi:nodetypes="ccc"
       id="path1561"
       d="M -507.46785,34.767046 L -507.46785,33.24031 L -507.46785,34.767046 z "
       style="fill:white;fill-opacity:0.75688076;fill-rule:nonzero;stroke:none;stroke-width:0.5;stroke-linecap:round;stroke-linejoin:round;stroke-miterlimit:4;stroke-dasharray:none;stroke-dashoffset:4;stroke-opacity:1" />
    <rect
       style="opacity:0.57786889;fill:white;fill-opacity:1;fill-rule:nonzero;stroke:none;stroke-width:3.63199997;stroke-linecap:round;stroke-linejoin:round;stroke-miterlimit:4;stroke-dasharray:none;stroke-dashoffset:4;stroke-opacity:1"
       id="rect1327"
       width="1"
       height="0"
       x="-564.95258"
       y="-21.832939" />
    <rect
       style="opacity:0.57786889;fill:white;fill-opacity:1;fill-rule:nonzero;stroke:none;stroke-width:3.63199997;stroke-linecap:round;stroke-linejoin:round;stroke-miterlimit:4;stroke-dasharray:none;stroke-dashoffset:4;stroke-opacity:1"
       id="rect2482"
       width="1"
       height="0"
       x="-600.07941"
       y="-49.36055" />
    <path
       sodipodi:nodetypes="ccc"
       id="path2494"
       d="M -759.01682,-122.57662 L -759.01682,-125.37133 L -759.01682,-122.57662 z "
       style="fill:white;fill-opacity:0.75688076;fill-rule:nonzero;stroke:none;stroke-width:0.5;stroke-linecap:round;stroke-linejoin:round;stroke-miterlimit:4;stroke-dasharray:none;stroke-dashoffset:4;stroke-opacity:1" />
    <g
       style="opacity:0.40163933"
       transform="matrix(-0.782995,0,0,0.650879,-3081.875,563.9411)"
       id="g4640" />
    <g
       id="g4646"
       transform="matrix(-0.782995,0,0,0.650879,-3081.875,563.9411)"
       style="opacity:0.40163933" />
    <g
       id="g4730"
       transform="matrix(1,0,0,0.650879,119.0876,571.2689)"
       style="opacity:0.40163933" />
    <g
       style="opacity:0.40163933"
       transform="matrix(1,0,0,0.650879,119.0876,571.2689)"
       id="g4748" />
    <path
       sodipodi:nodetypes="ccc"
       id="path3256"
       d="M -300.70113,-53.80795 L -300.70113,-56.60266 L -300.70113,-53.80795 z "
       style="fill:white;fill-opacity:0.75688076;fill-rule:nonzero;stroke:none;stroke-width:0.5;stroke-linecap:round;stroke-linejoin:round;stroke-miterlimit:4;stroke-dasharray:none;stroke-dashoffset:4;stroke-opacity:1" />
    <path
       sodipodi:nodetypes="ccc"
       id="path3258"
       d="M -420.20333,-140.4382 L -420.20333,-143.23291 L -420.20333,-140.4382 z "
       style="fill:white;fill-opacity:0.75688076;fill-rule:nonzero;stroke:none;stroke-width:0.5;stroke-linecap:round;stroke-linejoin:round;stroke-miterlimit:4;stroke-dasharray:none;stroke-dashoffset:4;stroke-opacity:1" />
    <g
       id="g3260"
       inkscape:label="box"
       style="display:inline"
       transform="translate(-237.2517,4.14343)" />
    <g
       id="g3262"
       inkscape:label="zip_app"
       style="display:inline"
       transform="translate(-237.2517,4.14343)" />
    <path
       sodipodi:nodetypes="ccc"
       id="path3264"
       d="M -173.61193,-74.68293 L -173.61193,-77.47764 L -173.61193,-74.68293 z "
       style="fill:white;fill-opacity:0.75688076;fill-rule:nonzero;stroke:none;stroke-width:0.5;stroke-linecap:round;stroke-linejoin:round;stroke-miterlimit:4;stroke-dasharray:none;stroke-dashoffset:4;stroke-opacity:1" />
    <path
       sodipodi:nodetypes="ccc"
       id="path3279"
       d="M -266.23638,-0.789254 L -266.23638,-2.31599 L -266.23638,-0.789254 z "
       style="fill:white;fill-opacity:0.75688076;fill-rule:nonzero;stroke:none;stroke-width:0.5;stroke-linecap:round;stroke-linejoin:round;stroke-miterlimit:4;stroke-dasharray:none;stroke-dashoffset:4;stroke-opacity:1" />
    <rect
       style="opacity:0.57786889;fill:white;fill-opacity:1;fill-rule:nonzero;stroke:none;stroke-width:3.63199997;stroke-linecap:round;stroke-linejoin:round;stroke-miterlimit:4;stroke-dasharray:none;stroke-dashoffset:4;stroke-opacity:1"
       id="rect3286"
       width="1"
       height="0"
       x="-323.72113"
       y="-57.389236" />
    <rect
       style="opacity:0.57786889;fill:white;fill-opacity:1;fill-rule:nonzero;stroke:none;stroke-width:3.63199997;stroke-linecap:round;stroke-linejoin:round;stroke-miterlimit:4;stroke-dasharray:none;stroke-dashoffset:4;stroke-opacity:1"
       id="rect3288"
       width="1"
       height="0"
       x="-358.84793"
       y="-84.916847" />
    <path
       sodipodi:nodetypes="ccc"
       id="path3290"
       d="M -517.78535,-158.13292 L -517.78535,-160.92763 L -517.78535,-158.13292 z "
       style="fill:white;fill-opacity:0.75688076;fill-rule:nonzero;stroke:none;stroke-width:0.5;stroke-linecap:round;stroke-linejoin:round;stroke-miterlimit:4;stroke-dasharray:none;stroke-dashoffset:4;stroke-opacity:1" />
    <g
       style="opacity:0.40163933"
       transform="matrix(-0.782995,0,0,0.650879,-2840.644,528.3848)"
       id="g3292" />
    <g
       id="g3294"
       transform="matrix(-0.782995,0,0,0.650879,-2840.644,528.3848)"
       style="opacity:0.40163933" />
    <g
       id="g3296"
       transform="matrix(1,0,0,0.650879,360.3191,535.7126)"
       style="opacity:0.40163933" />
    <g
       style="opacity:0.40163933"
       transform="matrix(1,0,0,0.650879,360.3191,535.7126)"
       id="g3298" />
  </g>
</svg>
