<?xml version="1.0" encoding="UTF-8" standalone="no"?>
<!-- Created with Inkscape (http://www.inkscape.org/) -->
<svg
   xmlns:dc="http://purl.org/dc/elements/1.1/"
   xmlns:cc="http://web.resource.org/cc/"
   xmlns:rdf="http://www.w3.org/1999/02/22-rdf-syntax-ns#"
   xmlns:svg="http://www.w3.org/2000/svg"
   xmlns="http://www.w3.org/2000/svg"
   xmlns:xlink="http://www.w3.org/1999/xlink"
   xmlns:sodipodi="http://inkscape.sourceforge.net/DTD/sodipodi-0.dtd"
   xmlns:inkscape="http://www.inkscape.org/namespaces/inkscape"
   width="128"
   height="128"
   id="svg1307"
   sodipodi:version="0.32"
   inkscape:version="0.43"
   version="1.0"
   sodipodi:docbase="/home/pinheiro/Documents/pics/new oxygen/svg"
   sodipodi:docname="inktube.svg">
  <defs
     id="defs1309">
    <linearGradient
       inkscape:collect="always"
       id="linearGradient6969">
      <stop
         style="stop-color:#000000;stop-opacity:1;"
         offset="0"
         id="stop6971" />
      <stop
         style="stop-color:#000000;stop-opacity:0;"
         offset="1"
         id="stop6973" />
    </linearGradient>
    <linearGradient
       inkscape:collect="always"
       id="linearGradient6959">
      <stop
         style="stop-color:#000000;stop-opacity:1;"
         offset="0"
         id="stop6961" />
      <stop
         style="stop-color:#000000;stop-opacity:0;"
         offset="1"
         id="stop6963" />
    </linearGradient>
    <linearGradient
       inkscape:collect="always"
       id="linearGradient6949">
      <stop
         style="stop-color:#000000;stop-opacity:1;"
         offset="0"
         id="stop6951" />
      <stop
         style="stop-color:#000000;stop-opacity:0;"
         offset="1"
         id="stop6953" />
    </linearGradient>
    <linearGradient
       inkscape:collect="always"
       id="linearGradient6066">
      <stop
         style="stop-color:#000000;stop-opacity:1;"
         offset="0"
         id="stop6068" />
      <stop
         style="stop-color:#000000;stop-opacity:0;"
         offset="1"
         id="stop6070" />
    </linearGradient>
    <linearGradient
       id="linearGradient6048">
      <stop
         style="stop-color:#000000;stop-opacity:1;"
         offset="0"
         id="stop6050" />
      <stop
         style="stop-color:#000000;stop-opacity:0;"
         offset="1"
         id="stop6052" />
    </linearGradient>
    <linearGradient
       inkscape:collect="always"
       id="linearGradient6031">
      <stop
         style="stop-color:#ffffff;stop-opacity:1;"
         offset="0"
         id="stop6033" />
      <stop
         style="stop-color:#ffffff;stop-opacity:0;"
         offset="1"
         id="stop6035" />
    </linearGradient>
    <linearGradient
       id="linearGradient5490">
      <stop
         style="stop-color:#000000;stop-opacity:0;"
         offset="0"
         id="stop5492" />
      <stop
         id="stop5504"
         offset="0.44935718"
         style="stop-color:#000000;stop-opacity:0;" />
      <stop
         id="stop5502"
         offset="0.50785339"
         style="stop-color:#000000;stop-opacity:1;" />
      <stop
         style="stop-color:#000000;stop-opacity:0;"
         offset="0.5980373"
         id="stop5506" />
      <stop
         style="stop-color:#000000;stop-opacity:0;"
         offset="1"
         id="stop5494" />
    </linearGradient>
    <linearGradient
       inkscape:collect="always"
       id="linearGradient4480">
      <stop
         style="stop-color:#dadada;stop-opacity:1;"
         offset="0"
         id="stop4482" />
      <stop
         style="stop-color:#dadada;stop-opacity:0;"
         offset="1"
         id="stop4484" />
    </linearGradient>
    <linearGradient
       id="linearGradient4293">
      <stop
         style="stop-color:#ce0000;stop-opacity:1;"
         offset="0"
         id="stop4295" />
      <stop
         style="stop-color:#a30000;stop-opacity:1;"
         offset="1"
         id="stop4297" />
    </linearGradient>
    <linearGradient
       id="linearGradient4142">
      <stop
         id="stop4144"
         offset="0"
         style="stop-color:#ffffff;stop-opacity:1;" />
      <stop
         style="stop-color:#ffffff;stop-opacity:0.79136693;"
         offset="0.5"
         id="stop4148" />
      <stop
         id="stop4146"
         offset="1"
         style="stop-color:#ffffff;stop-opacity:0;" />
    </linearGradient>
    <linearGradient
       inkscape:collect="always"
       id="linearGradient4102">
      <stop
         style="stop-color:#ffffff;stop-opacity:1;"
         offset="0"
         id="stop4104" />
      <stop
         style="stop-color:#ffffff;stop-opacity:0;"
         offset="1"
         id="stop4106" />
    </linearGradient>
    <linearGradient
       id="linearGradient4067">
      <stop
         style="stop-color:#ffffff;stop-opacity:0.6978417;"
         offset="0"
         id="stop4069" />
      <stop
         id="stop4120"
         offset="0.5"
         style="stop-color:#ffffff;stop-opacity:0.18705036;" />
      <stop
         style="stop-color:#ffffff;stop-opacity:0"
         offset="1"
         id="stop4071" />
    </linearGradient>
    <linearGradient
       id="linearGradient3225">
      <stop
         style="stop-color:#ffffff;stop-opacity:1;"
         offset="0"
         id="stop3227" />
      <stop
         style="stop-color:#aeaeae;stop-opacity:1;"
         offset="1"
         id="stop3229" />
    </linearGradient>
    <radialGradient
       inkscape:collect="always"
       xlink:href="#linearGradient3225"
       id="radialGradient5541"
       gradientUnits="userSpaceOnUse"
       gradientTransform="matrix(-0.920164,-0.815696,0.114561,-0.129234,36.69055,135.8931)"
       spreadMethod="reflect"
       cx="17.496065"
       cy="77.604561"
       fx="17.496065"
       fy="77.604561"
       r="11.462803" />
    <radialGradient
       inkscape:collect="always"
       xlink:href="#linearGradient3225"
       id="radialGradient5543"
       gradientUnits="userSpaceOnUse"
       gradientTransform="matrix(0.322773,0.11016,-1.099044,3.22023,126.8991,-206.5913)"
       cx="35.842823"
       cy="92.839737"
       fx="35.842823"
       fy="92.839737"
       r="9.5113354" />
    <linearGradient
       inkscape:collect="always"
       xlink:href="#linearGradient4102"
       id="linearGradient5545"
       gradientUnits="userSpaceOnUse"
       gradientTransform="matrix(-0.874535,-0.723243,0.723243,-0.874535,62.91014,156.9133)"
       x1="51.425694"
       y1="118.64987"
       x2="50.780857"
       y2="84.151138" />
    <radialGradient
       inkscape:collect="always"
       xlink:href="#linearGradient4067"
       id="radialGradient5547"
       gradientUnits="userSpaceOnUse"
       gradientTransform="matrix(-1.471259,-1.136742,10.36792,-13.41895,-427.9728,1024.306)"
       cx="106.24496"
       cy="63.052021"
       fx="108.62652"
       fy="61.993141"
       r="7.5625" />
    <linearGradient
       inkscape:collect="always"
       xlink:href="#linearGradient4067"
       id="linearGradient5549"
       gradientUnits="userSpaceOnUse"
       gradientTransform="matrix(-0.874535,-0.723243,0.723243,-0.874535,62.56032,156.624)"
       x1="71.826324"
       y1="110.30566"
       x2="44.2686"
       y2="106.55357" />
    <linearGradient
       inkscape:collect="always"
       xlink:href="#linearGradient4067"
       id="linearGradient5551"
       gradientUnits="userSpaceOnUse"
       gradientTransform="matrix(-0.874535,-0.723243,0.723243,-0.874535,62.91014,156.9133)"
       x1="59.299126"
       y1="98.029755"
       x2="48.925049"
       y2="97.311661" />
    <linearGradient
       inkscape:collect="always"
       xlink:href="#linearGradient4102"
       id="linearGradient5553"
       gradientUnits="userSpaceOnUse"
       gradientTransform="matrix(2.392662,-4.701718e-16,4.701718e-16,2.392662,-342.1376,-160.1986)"
       spreadMethod="reflect"
       x1="104.49763"
       y1="93.95005"
       x2="105.66235"
       y2="99.431656" />
    <linearGradient
       inkscape:collect="always"
       xlink:href="#linearGradient4102"
       id="linearGradient5555"
       gradientUnits="userSpaceOnUse"
       gradientTransform="matrix(-0.874535,-0.723243,0.723243,-0.874535,62.91014,156.9133)"
       x1="45.480206"
       y1="108.20477"
       x2="46.65696"
       y2="118.30448" />
    <radialGradient
       inkscape:collect="always"
       xlink:href="#linearGradient4142"
       id="radialGradient5557"
       gradientUnits="userSpaceOnUse"
       gradientTransform="matrix(1.73462,-5.694366e-2,8.522224e-3,0.259604,11.23941,-82.6444)"
       cx="45.431717"
       cy="118.93744"
       fx="39.490993"
       fy="128.91806"
       r="15.5" />
    <radialGradient
       inkscape:collect="always"
       xlink:href="#linearGradient3225"
       id="radialGradient5559"
       gradientUnits="userSpaceOnUse"
       gradientTransform="matrix(-1.857629,-1.534956,2.403075,-2.961056,118.9128,185.8302)"
       cx="51.356403"
       cy="7.9091048"
       fx="49.717407"
       fy="6.1839604"
       r="3.9750405" />
    <radialGradient
       inkscape:collect="always"
       xlink:href="#linearGradient4293"
       id="radialGradient5561"
       gradientUnits="userSpaceOnUse"
       gradientTransform="matrix(2.293878,-9.226514e-2,9.005844e-2,1.832845,-69.68551,-32.16987)"
       spreadMethod="reflect"
       cx="50.516796"
       cy="44.194733"
       fx="51.588631"
       fy="42.860706"
       r="2.579345" />
    <radialGradient
       inkscape:collect="always"
       xlink:href="#linearGradient4293"
       id="radialGradient5563"
       gradientUnits="userSpaceOnUse"
       gradientTransform="matrix(2.293878,-9.226514e-2,9.005844e-2,1.832845,-69.68551,-32.16987)"
       spreadMethod="reflect"
       cx="53.912449"
       cy="42.097103"
       fx="52.453564"
       fy="42.732529"
       r="2.579345" />
    <linearGradient
       inkscape:collect="always"
       xlink:href="#linearGradient4102"
       id="linearGradient5565"
       gradientUnits="userSpaceOnUse"
       gradientTransform="matrix(-0.406724,-2.357839,2.357839,-0.406724,-0.242475,383.7266)"
       spreadMethod="reflect"
       x1="139.7972"
       y1="76.892853"
       x2="145.40347"
       y2="66.489067" />
    <linearGradient
       inkscape:collect="always"
       xlink:href="#linearGradient4480"
       id="linearGradient5567"
       gradientUnits="userSpaceOnUse"
       gradientTransform="matrix(-0.169988,-0.985446,0.985446,-0.169988,24.36373,143.2954)"
       x1="66.82003"
       y1="45.390396"
       x2="52.22506"
       y2="59.465969" />
    <radialGradient
       inkscape:collect="always"
       xlink:href="#linearGradient3225"
       id="radialGradient5569"
       gradientUnits="userSpaceOnUse"
       gradientTransform="matrix(-1.857629,-1.534956,2.403075,-2.961056,137.2689,163.7988)"
       cx="50.194775"
       cy="7.7490687"
       fx="48.555779"
       fy="6.0239253"
       r="3.9750405" />
    <radialGradient
       inkscape:collect="always"
       xlink:href="#linearGradient3225"
       id="radialGradient5571"
       gradientUnits="userSpaceOnUse"
       gradientTransform="matrix(-1.857629,-1.534956,2.403075,-2.961056,131.0091,171.2782)"
       cx="51.36319"
       cy="7.5789285"
       fx="49.724194"
       fy="5.8537841"
       r="3.9750405" />
    <radialGradient
       inkscape:collect="always"
       xlink:href="#linearGradient3225"
       id="radialGradient5573"
       gradientUnits="userSpaceOnUse"
       gradientTransform="matrix(-0.920164,-0.815696,0.114561,-0.129234,36.69055,135.8931)"
       spreadMethod="reflect"
       cx="17.496065"
       cy="77.604561"
       fx="17.496065"
       fy="77.604561"
       r="11.462803" />
    <radialGradient
       inkscape:collect="always"
       xlink:href="#linearGradient5490"
       id="radialGradient5575"
       gradientUnits="userSpaceOnUse"
       gradientTransform="matrix(1.379567,0.353744,-0.328711,1.281944,28.7913,-42.08147)"
       spreadMethod="reflect"
       cx="22.210812"
       cy="121.22048"
       fx="22.210812"
       fy="121.22048"
       r="11.187891" />
    <linearGradient
       inkscape:collect="always"
       xlink:href="#linearGradient4293"
       id="linearGradient6019"
       x1="44.577621"
       y1="8.6263304"
       x2="44.993702"
       y2="-21.680973"
       gradientUnits="userSpaceOnUse"
       gradientTransform="matrix(0.438399,1.089812e-2,0.100629,0.38438,-13.0999,119.7228)" />
    <linearGradient
       inkscape:collect="always"
       xlink:href="#linearGradient6031"
       id="linearGradient6042"
       gradientUnits="userSpaceOnUse"
       gradientTransform="matrix(0.439556,6.86454e-3,0.105761,0.384472,-13.04161,119.6077)"
       x1="41.746742"
       y1="-29.900099"
       x2="41.548233"
       y2="-10.981362"
       spreadMethod="reflect" />
    <linearGradient
       inkscape:collect="always"
       xlink:href="#linearGradient6048"
       id="linearGradient6062"
       gradientUnits="userSpaceOnUse"
       x1="42.384941"
       y1="11.541688"
       x2="42.063972"
       y2="-2.2374327"
       gradientTransform="matrix(0.440642,1.089812e-2,0.101144,0.38438,-13.36417,119.7228)" />
    <linearGradient
       inkscape:collect="always"
       xlink:href="#linearGradient6066"
       id="linearGradient6072"
       x1="33.095234"
       y1="104.36056"
       x2="25.251886"
       y2="112.50882"
       gradientUnits="userSpaceOnUse"
       gradientTransform="matrix(0.966567,0,0,0.915457,1.289673,8.600729)" />
    <linearGradient
       inkscape:collect="always"
       xlink:href="#linearGradient6949"
       id="linearGradient6955"
       x1="34.330593"
       y1="118.87337"
       x2="29.423252"
       y2="106.62148"
       gradientUnits="userSpaceOnUse" />
    <radialGradient
       inkscape:collect="always"
       xlink:href="#linearGradient6959"
       id="radialGradient6965"
       cx="64.161209"
       cy="117.27959"
       fx="33.853905"
       fy="120.80253"
       r="64"
       gradientTransform="matrix(1,0,0,0.167506,0,97.63452)"
       gradientUnits="userSpaceOnUse" />
    <radialGradient
       inkscape:collect="always"
       xlink:href="#linearGradient6969"
       id="radialGradient6975"
       cx="17.249371"
       cy="122.51889"
       fx="17.249371"
       fy="116.0263"
       r="17.088161"
       gradientTransform="matrix(1,0,0,0.122642,7.213196e-16,107.493)"
       gradientUnits="userSpaceOnUse" />
  </defs>
  <sodipodi:namedview
     id="base"
     pagecolor="#ffffff"
     bordercolor="#666666"
     borderopacity="1.0"
     inkscape:pageopacity="0.0"
     inkscape:pageshadow="2"
     inkscape:zoom="6.203125"
     inkscape:cx="64"
     inkscape:cy="64"
     inkscape:current-layer="layer1"
     showgrid="false"
     inkscape:document-units="px"
     inkscape:grid-bbox="true"
     guidetolerance="0.1px"
     showguides="true"
     inkscape:guide-bbox="true"
     inkscape:window-width="1106"
     inkscape:window-height="958"
     inkscape:window-x="0"
     inkscape:window-y="25"
     inkscape:grid-points="true">
    <sodipodi:guide
       orientation="horizontal"
       position="32.487481"
       id="guide2204" />
    <sodipodi:guide
       orientation="horizontal"
       position="29.790951"
       id="guide1507" />
  </sodipodi:namedview>
  <metadata
     id="metadata1312">
    <rdf:RDF>
      <cc:Work
         rdf:about="">
        <dc:format>image/svg+xml</dc:format>
        <dc:type
           rdf:resource="http://purl.org/dc/dcmitype/StillImage" />
        <cc:license
           rdf:resource="http://creativecommons.org/licenses/GPL/2.0/" />
        <dc:contributor>
          <cc:Agent>
            <dc:title>Oxygen team</dc:title>
          </cc:Agent>
        </dc:contributor>
      </cc:Work>
      <cc:License
         rdf:about="http://creativecommons.org/licenses/LGPL/2.1/">
        <cc:permits
           rdf:resource="http://web.resource.org/cc/Reproduction" />
        <cc:permits
           rdf:resource="http://web.resource.org/cc/Distribution" />
        <cc:requires
           rdf:resource="http://web.resource.org/cc/Notice" />
        <cc:permits
           rdf:resource="http://web.resource.org/cc/DerivativeWorks" />
        <cc:requires
           rdf:resource="http://web.resource.org/cc/ShareAlike" />
        <cc:requires
           rdf:resource="http://web.resource.org/cc/SourceCode" />
      </cc:License>
    </rdf:RDF>
  </metadata>
  <g
     id="layer1"
     inkscape:label="Layer 1"
     inkscape:groupmode="layer">
    <path
       sodipodi:type="arc"
       style="opacity:0.32093023;fill:url(#radialGradient6965);fill-opacity:1;fill-rule:nonzero;stroke:none;stroke-width:0.31099999;stroke-linecap:round;stroke-linejoin:round;stroke-miterlimit:4;stroke-dasharray:none;stroke-dashoffset:4;stroke-opacity:1"
       id="path6957"
       sodipodi:cx="64.161209"
       sodipodi:cy="117.27959"
       sodipodi:rx="64"
       sodipodi:ry="10.720403"
       d="M 128.16121 117.27959 A 64 10.720403 0 1 1  0.16120911,117.27959 A 64 10.720403 0 1 1  128.16121 117.27959 z"
       transform="matrix(1,0,0,0.451128,0,70.25563)" />
    <path
       sodipodi:type="arc"
       style="opacity:0.71162792;fill:url(#radialGradient6975);fill-opacity:1;fill-rule:nonzero;stroke:none;stroke-width:0.31099999;stroke-linecap:round;stroke-linejoin:round;stroke-miterlimit:4;stroke-dasharray:none;stroke-dashoffset:4;stroke-opacity:1"
       id="path6967"
       sodipodi:cx="17.249371"
       sodipodi:cy="122.51889"
       sodipodi:rx="17.088161"
       sodipodi:ry="2.0957179"
       d="M 34.337532 122.51889 A 17.088161 2.0957179 0 1 1  0.16120911,122.51889 A 17.088161 2.0957179 0 1 1  34.337532 122.51889 z"
       transform="matrix(0.966567,0,0,0.809827,0.533853,22.26373)" />
    <path
       sodipodi:nodetypes="ccc"
       id="path2276"
       d="M 50.892799,3.2812959 L 50.892799,0.48658747 L 50.892799,3.2812959 z "
       style="fill:#ffffff;fill-opacity:0.75688076;fill-rule:nonzero;stroke:none;stroke-width:0.5;stroke-linecap:round;stroke-linejoin:round;stroke-miterlimit:4;stroke-dasharray:none;stroke-dashoffset:4;stroke-opacity:1" />
    <path
       style="fill:url(#linearGradient6019);fill-opacity:1;fill-rule:evenodd;stroke:none;stroke-width:1px;stroke-linecap:butt;stroke-linejoin:miter;stroke-opacity:1"
       d="M 4.190456,107.1069 C 4.0398309,107.32126 3.8985135,107.52672 3.7656271,107.72421 C 3.4998556,108.11918 3.2678153,108.48222 3.0625166,108.82056 C 2.6519206,109.49725 2.3482936,110.07518 2.0957193,110.61233 C 0.062048592,114.93721 2.3088625,121.19349 6.9227538,121.20558 C 22.440523,121.38613 11.013098,121.26621 26.530867,121.44677 C 35.749007,121.88112 32.060614,113.5133 38.574984,108.02059 C 35.581939,107.49474 37.134924,105.06849 33.165147,103.22555 C 31.076603,105.50215 26.212673,110.66548 22.137137,110.56416 C 11.408977,110.44113 8.5342284,110.61591 6.9260849,109.99365 C 6.1220129,109.68253 5.6448045,109.26218 5.352749,108.68578 C 5.2067202,108.39759 5.1069816,108.07039 5.0358159,107.69833 C 4.9646503,107.32626 4.3410826,106.89254 4.190456,107.1069 z "
       id="path6011"
       sodipodi:nodetypes="cssscccccssss" />
    <path
       style="opacity:1;fill:url(#linearGradient6042);fill-opacity:1;fill-rule:nonzero;stroke:none;stroke-width:0.31099999;stroke-linecap:round;stroke-linejoin:round;stroke-miterlimit:4;stroke-dashoffset:4;stroke-opacity:1"
       d="M 7.3070067,110.80656 L 22.960275,110.93807 C 28.745359,110.44757 29.816085,102.76553 30.818507,103.65088 C 32.950244,105.53366 26.550935,114.38918 22.866774,114.50601 L 7.5239096,114.71197 C 5.5537594,114.6812 3.325619,110.97304 4.4156843,109.03152 C 4.8970985,108.17406 5.0454309,110.77579 7.3070067,110.80656 z "
       id="rect6021"
       sodipodi:nodetypes="ccsccsc" />
    <path
       sodipodi:nodetypes="ccccc"
       id="path6064"
       d="M 26.530867,121.44677 C 35.749007,121.88112 32.060614,113.5133 38.574984,108.02059 C 35.581939,107.49474 36.99495,105.06849 33.025173,103.22555 C 30.936629,105.50215 26.212673,110.66548 22.137137,110.56416 C 11.408977,110.44113 11.013098,121.26621 26.530867,121.44677 z "
       style="fill:url(#linearGradient6072);fill-opacity:1;fill-rule:evenodd;stroke:none;stroke-width:1px;stroke-linecap:butt;stroke-linejoin:miter;stroke-opacity:1" />
    <g
       id="g5518"
       transform="translate(1.612091,-1.289673)">
      <path
         style="fill:url(#radialGradient5541);fill-opacity:1;fill-rule:nonzero;stroke:#000000;stroke-width:0.31099999;stroke-linecap:round;stroke-linejoin:round;stroke-miterlimit:4;stroke-dasharray:none;stroke-dashoffset:4;stroke-opacity:1"
         d="M 32.851664,116.03055 C 31.066814,113.97069 27.320622,110.64981 25.140204,109.19459 C 24.869919,109.0142 24.724338,108.43854 25.215124,108.22822 C 25.70591,108.0179 27.384528,107.82483 27.384528,107.82483 C 27.384528,107.82483 27.038828,106.074 27.710375,105.33846 C 28.381922,104.60292 30.070715,104.88266 30.070715,104.88266 C 30.070715,104.88266 30.165616,103.09612 30.343598,102.571 C 30.52158,102.04588 31.025288,102.1982 31.294007,102.38072 C 33.547727,103.91167 37.150344,107.17273 39.005467,109.21668 C 39.223624,109.45706 39.42133,109.97273 38.930548,110.18305 C 38.439766,110.39337 36.761142,110.58645 36.761142,110.58645 C 36.761142,110.58645 37.106841,112.33728 36.435294,113.07282 C 35.763747,113.80836 34.074955,113.52861 34.074955,113.52861 C 34.074955,113.52861 33.980055,115.31515 33.802074,115.84027 C 33.624093,116.36539 33.064416,116.27608 32.851664,116.03055 z "
         id="path5479"
         sodipodi:nodetypes="cszczczsszczczs" />
      <path
         style="fill:#787878;fill-opacity:1;fill-rule:evenodd;stroke:#000000;stroke-width:0.09570646;stroke-linecap:butt;stroke-linejoin:miter;stroke-miterlimit:4;stroke-dasharray:none;stroke-opacity:1"
         d="M 47.127447,110.74172 C 42.378565,108.56843 31.329664,99.207459 28.689233,95.493271 L 45.278138,75.058744 L 63.716362,90.307198 L 47.127447,110.74172 z "
         id="path3170"
         sodipodi:nodetypes="ccccc" />
      <path
         sodipodi:nodetypes="ccccc"
         id="path4538"
         d="M 28.705772,95.482669 L 39.173804,98.176322 L 47.145734,110.67266 L 32.517331,108.61857 L 28.705772,95.482669 z "
         style="fill:url(#radialGradient5543);fill-opacity:1;fill-rule:evenodd;stroke:#000000;stroke-width:0.2;stroke-linecap:round;stroke-linejoin:round;stroke-miterlimit:4;stroke-dasharray:none;stroke-opacity:1" />
      <path
         sodipodi:nodetypes="ccccccc"
         id="path1420"
         d="M 47.127447,110.74172 C 71.320074,82.704855 94.492484,51.703575 121.87985,29.738035 L 126.45438,24.206564 L 98.797072,1.3339035 L 94.222536,6.8653633 C 77.543033,39.182339 50.993988,66.827083 28.689233,95.493271 C 32.841174,97.393374 44.096896,106.47876 47.127447,110.74172 z "
         style="fill:#000000;fill-opacity:1;fill-rule:evenodd;stroke:none;stroke-width:0.03;stroke-linecap:butt;stroke-linejoin:miter;stroke-miterlimit:4;stroke-dasharray:none;stroke-opacity:1" />
      <path
         sodipodi:nodetypes="ccccc"
         style="opacity:0.2465116;fill:url(#linearGradient5545);fill-opacity:1;fill-rule:evenodd;stroke:none;stroke-width:1px;stroke-linecap:butt;stroke-linejoin:miter;stroke-opacity:1"
         d="M 121.87985,29.738035 C 111.3291,27.955244 97.953976,16.893977 94.222536,6.8653633 C 82.093818,40.303093 80.521113,38.450417 58.631598,66.920813 C 60.762309,68.682915 62.893029,70.445026 65.023728,72.207118 C 90.191953,43.34335 91.312924,47.927314 121.87985,29.738035 z "
         id="path4047" />
      <path
         style="opacity:0.66976743;fill:url(#radialGradient5547);fill-opacity:1;fill-rule:evenodd;stroke:none;stroke-width:0.04;stroke-linecap:butt;stroke-linejoin:miter;stroke-miterlimit:4;stroke-dasharray:none;stroke-opacity:1"
         d="M 47.48921,109.17797 C 44.278201,104.66117 34.105552,96.651323 30.157285,94.844429 C 53.262946,67.415451 76.899352,39.075434 96.084383,8.3684269 C 105.30349,15.99264 110.83494,20.567176 120.05406,28.191396 C 93.493743,52.799033 72.406676,82.176743 47.48921,109.17797 z "
         id="path4065"
         sodipodi:nodetypes="ccccc" />
      <path
         id="path4091"
         d="M 120.59296,29.937185 C 110.04221,28.154411 97.969591,18.037536 94.238169,8.008919 C 82.109454,41.446653 64.442456,58.306529 42.552954,86.776934 C 44.683652,88.539025 46.814373,90.301137 48.945073,92.06323 C 74.113307,63.199471 90.02604,48.126465 120.59296,29.937185 z "
         style="opacity:0.2465116;fill:url(#linearGradient5549);fill-opacity:1;fill-rule:evenodd;stroke:none;stroke-width:1px;stroke-linecap:butt;stroke-linejoin:miter;stroke-opacity:1"
         sodipodi:nodetypes="ccccc" />
      <path
         sodipodi:nodetypes="ccccc"
         style="opacity:0.2465116;fill:url(#linearGradient5551);fill-opacity:1;fill-rule:evenodd;stroke:none;stroke-width:1px;stroke-linecap:butt;stroke-linejoin:miter;stroke-opacity:1"
         d="M 117.98994,29.936419 C 110.54333,28.428534 97.023287,18.496212 94.477719,9.5602968 C 82.348998,42.998021 64.79227,58.595827 42.902768,87.06623 C 45.033465,88.828322 47.164188,90.590434 49.294887,92.352527 C 74.463122,63.488767 87.423007,48.125703 117.98994,29.936419 z "
         id="path4093" />
      <rect
         transform="matrix(-0.770615,-0.637301,0.637301,-0.770615,0,0)"
         style="fill:url(#linearGradient5553);fill-opacity:1;fill-rule:nonzero;stroke:none;stroke-width:0.03;stroke-linecap:round;stroke-linejoin:round;stroke-miterlimit:4;stroke-dasharray:none;stroke-dashoffset:4;stroke-opacity:1"
         id="rect4110"
         width="33.613918"
         height="6.17558"
         x="-111.38443"
         y="55.140953"
         rx="0.49255264"
         ry="0.56668746" />
      <path
         sodipodi:nodetypes="cczc"
         id="path4122"
         d="M 120.51826,29.391114 C 111.61909,22.031492 103.72072,15.712536 94.821545,8.3529084 C 96.400074,11.579557 99.040768,15.995905 105.16251,21.058603 C 111.28427,26.12131 116.66144,28.583674 120.51826,29.391114 z "
         style="fill:url(#linearGradient5555);fill-opacity:1;fill-rule:evenodd;stroke:none;stroke-width:1px;stroke-linecap:butt;stroke-linejoin:miter;stroke-opacity:1" />
      <rect
         transform="matrix(0.774005,0.63318,-0.63318,0.774005,0,0)"
         ry="0.22797197"
         rx="0.49255264"
         y="-54.111942"
         x="77.685936"
         height="0.56154633"
         width="35.496319"
         id="rect4132"
         style="fill:url(#radialGradient5557);fill-opacity:1;fill-rule:nonzero;stroke:none;stroke-width:0.03;stroke-linecap:round;stroke-linejoin:round;stroke-miterlimit:4;stroke-dasharray:none;stroke-dashoffset:4;stroke-opacity:1" />
      <path
         sodipodi:nodetypes="cccccccccc"
         id="path2274"
         d="M 57.327411,98.917888 L 63.494528,91.469714 L 47.911321,78.816808 L 41.723328,86.177013 L 57.327411,98.917888 z M 41.738814,86.186421 L 49.547101,80.202499 L 44.40352,76.071777 L 38.374533,83.440676 L 41.738814,86.186421 z "
         style="fill:url(#radialGradient5559);fill-opacity:1;fill-rule:nonzero;stroke:none;stroke-width:0.5;stroke-linecap:round;stroke-linejoin:round;stroke-miterlimit:4;stroke-dasharray:none;stroke-dashoffset:4;stroke-opacity:1" />
      <path
         sodipodi:type="arc"
         style="opacity:0.31162792;fill:url(#radialGradient5561);fill-opacity:1;fill-rule:nonzero;stroke:none;stroke-width:0.03;stroke-linecap:round;stroke-linejoin:round;stroke-miterlimit:4;stroke-dasharray:none;stroke-dashoffset:4;stroke-opacity:1"
         id="path4301"
         sodipodi:cx="53.360203"
         sodipodi:cy="41.591938"
         sodipodi:rx="2.579345"
         sodipodi:ry="2.579345"
         d="M 55.939548 41.591938 A 2.579345 2.579345 0 1 1  50.780858,41.591938 A 2.579345 2.579345 0 1 1  55.939548 41.591938 z"
         transform="matrix(1.493097,-0.193042,-1.453581e-2,1.547807,-34.22774,28.64095)" />
      <path
         transform="matrix(1.36037,-0.175882,-1.324368e-2,1.410217,-27.16769,33.41166)"
         d="M 55.939548 41.591938 A 2.579345 2.579345 0 1 1  50.780858,41.591938 A 2.579345 2.579345 0 1 1  55.939548 41.591938 z"
         sodipodi:ry="2.579345"
         sodipodi:rx="2.579345"
         sodipodi:cy="41.591938"
         sodipodi:cx="53.360203"
         id="path4291"
         style="fill:url(#radialGradient5563);fill-opacity:1;fill-rule:nonzero;stroke:none;stroke-width:0.03;stroke-linecap:round;stroke-linejoin:round;stroke-miterlimit:4;stroke-dasharray:none;stroke-dashoffset:4;stroke-opacity:1"
         sodipodi:type="arc" />
      <path
         sodipodi:nodetypes="cccccccccccc"
         id="rect4337"
         d="M 99.417522,3.0475241 C 100.91599,4.1839511 102.35942,5.4631323 103.83658,6.6548064 C 110.79258,12.401932 117.50543,17.985104 124.46143,23.732239 C 125.02994,24.133469 124.88882,24.469509 124.59139,24.798739 C 123.68118,25.875519 122.28977,27.647581 121.34612,28.693165 C 122.00338,28.638611 122.28787,27.889699 122.74453,27.484351 C 123.61948,26.44303 124.13809,26.004778 124.95904,24.925699 C 125.38136,24.467959 125.31556,23.854223 124.67603,23.402866 C 116.46358,16.679728 108.07076,9.6836277 99.848655,2.9731543 C 99.735865,2.9203791 99.451091,2.927024 99.417522,3.0475241 z M 121.34612,28.693165 C 121.29646,28.596557 121.29659,28.745272 121.34612,28.693165 z "
         style="fill:url(#linearGradient5565);fill-opacity:1;fill-rule:nonzero;stroke:none;stroke-width:0.03;stroke-linecap:round;stroke-linejoin:round;stroke-miterlimit:4;stroke-dasharray:none;stroke-dashoffset:4;stroke-opacity:1" />
      <path
         sodipodi:nodetypes="ccccccccccccccccccccccscccccccccccccccccccccccccccccccccccscccccccsccccccscccccsccccccccccscccccccc"
         id="path4363"
         d="M 53.336262,67.980631 C 53.564877,68.168561 53.808049,68.496872 53.972947,68.070375 C 54.234992,67.743633 54.497039,67.416892 54.759084,67.09015 C 54.650284,67.673011 54.541483,68.255872 54.432683,68.838731 C 54.65176,68.942272 54.913674,69.449611 55.080079,69.05664 C 55.514665,68.515644 55.949252,67.974649 56.383839,67.433654 C 56.155224,67.245725 55.912052,66.917413 55.747153,67.343909 C 55.485106,67.670649 55.223058,67.997388 54.961011,68.324127 C 55.080132,67.739844 55.199252,67.155559 55.318372,66.571275 C 55.088696,66.471264 54.809575,65.971046 54.640018,66.357639 C 54.205432,66.898636 53.770848,67.439634 53.336262,67.980631 z M 56.511053,70.141344 C 57.043786,70.572528 57.576518,71.003712 58.109251,71.434898 C 58.592377,70.821384 59.075503,70.207871 59.558629,69.594358 C 59.015576,69.164598 58.472524,68.734837 57.929472,68.305077 C 57.639449,68.550844 57.646407,68.760639 57.997233,68.928782 C 58.229117,69.116878 58.461001,69.304975 58.692886,69.493072 C 58.519566,69.730053 58.360477,70.085679 58.112978,69.704132 C 57.879627,69.513924 57.646278,69.323717 57.412929,69.133509 C 57.176315,69.372398 57.024493,69.600365 57.42045,69.757765 C 57.602287,69.944174 57.977692,70.110804 58.044062,70.309011 C 57.867739,70.718315 57.631201,70.486679 57.395276,70.261586 C 57.172216,70.171585 56.908858,69.663903 56.716778,69.89499 C 56.648203,69.977108 56.579628,70.059226 56.511053,70.141344 z M 59.543419,72.205172 C 60.172834,73.043103 61.11908,73.930434 62.250229,73.803631 C 63.169562,73.629805 63.16771,72.420486 62.587684,71.875524 C 62.098187,71.331695 61.279696,70.571105 60.613396,70.673082 C 60.409705,70.9208 60.206013,71.168519 60.002322,71.416238 C 60.380964,71.721485 60.759607,72.026733 61.138249,72.33198 C 61.483833,72.085936 61.35863,71.892325 61.027745,71.721622 C 60.916079,71.237716 61.696311,71.294913 61.878035,71.77575 C 62.272648,72.107888 62.333726,72.82735 61.806595,73.059905 C 61.097055,73.344363 60.447817,72.597705 60.039524,72.099575 C 59.855479,71.591247 59.761433,72.051005 59.543419,72.205172 z M 60.717742,68.393285 C 61.21382,68.787471 61.709898,69.181657 62.205975,69.575842 C 62.484537,69.23243 62.763101,68.889019 63.041663,68.545607 C 62.59329,68.462303 61.67667,67.833978 62.255842,67.423794 C 62.860338,67.061707 63.203453,68.394574 63.505953,68.130651 C 63.920345,67.611666 62.806749,67.073043 62.410004,66.829407 C 61.917332,66.588077 61.31635,67.00842 61.358109,67.547748 C 61.289985,68.111876 62.548034,68.486271 61.972856,68.816167 C 61.643424,68.557769 61.313992,68.299373 60.98456,68.040976 C 60.895621,68.158413 60.806682,68.275849 60.717742,68.393285 z M 62.475068,74.702662 C 62.744213,74.892931 62.983996,75.191525 63.270686,75.317068 C 63.635314,75.256643 63.999942,75.196216 64.36457,75.13579 C 64.396648,75.520434 64.428727,75.905079 64.460807,76.289724 C 64.720588,76.495711 64.980369,76.701698 65.240152,76.907686 C 65.173879,76.275391 65.107605,75.643095 65.041332,75.010799 C 65.248744,74.761336 65.456157,74.511873 65.663569,74.26241 C 65.427273,74.07421 65.190976,73.886011 64.954681,73.697811 C 64.72677,73.948651 64.546813,74.285124 64.289198,74.482916 C 63.684489,74.556165 63.079778,74.629413 62.475068,74.702662 z M 64.069719,70.466436 C 64.289074,70.977475 64.946416,71.612291 65.532307,71.463252 C 66.020058,71.368737 66.001109,70.642164 65.629515,70.379988 C 65.293519,70.009978 64.619986,69.559352 64.195617,70.0074 C 64.075144,70.133705 64.060867,70.301258 64.069719,70.466436 z M 64.624859,70.831429 C 64.480645,70.511584 64.853831,70.106697 65.15319,70.316833 C 65.558775,70.482342 65.388885,71.076187 64.972892,71.067297 C 64.82224,71.032019 64.751531,70.921254 64.624859,70.831429 z M 64.777308,69.422336 C 65.261644,69.807628 65.745979,70.192921 66.230315,70.578213 C 66.602221,70.318983 66.172254,70.160526 65.967761,69.973732 C 65.644945,69.716623 65.322129,69.459513 64.999314,69.202404 C 64.925312,69.275715 64.85131,69.349026 64.777308,69.422336 z M 65.797033,77.534461 C 66.044571,77.666627 66.248606,77.990383 66.524978,77.995561 C 66.810746,77.937146 67.096513,77.878732 67.38228,77.820318 C 67.420793,78.158994 67.366383,78.54474 67.463505,78.853725 C 67.628579,78.913509 68.048065,79.482012 68.024586,79.164769 C 68.009389,78.710187 67.994193,78.255605 67.978998,77.801023 C 68.492086,77.709146 69.005175,77.61727 69.518263,77.525394 C 69.278666,77.382151 69.090961,77.038901 68.816889,77.028528 C 68.500203,77.091394 68.183516,77.15426 67.86683,77.217125 C 67.826488,76.867962 67.879888,76.472724 67.782147,76.151774 C 67.612698,76.077358 67.201927,75.506317 67.216566,75.810744 C 67.234414,76.285971 67.252262,76.761198 67.27011,77.236425 C 66.779084,77.33577 66.288058,77.435116 65.797033,77.534461 z M 67.251333,72.759421 C 67.487756,73.425708 68.380948,73.212622 68.331457,73.693789 C 68.553467,73.832213 68.80531,74.259014 68.969585,73.839314 C 69.277858,73.462856 69.586131,73.086399 69.894403,72.709941 C 69.668974,72.628774 69.391484,72.131233 69.205878,72.368567 C 68.92275,72.652258 68.704511,73.249657 68.213179,73.099808 C 67.585858,72.832205 68.136603,72.364653 68.38314,72.055454 C 68.678498,71.81905 68.659065,71.610613 68.309344,71.454052 C 68.046979,71.0809 67.884778,71.494887 67.697397,71.711002 C 67.457211,72.031353 67.105306,72.326879 67.251333,72.759421 z M 69.368381,80.59384 C 69.65974,81.257687 70.584742,81.70646 71.178978,81.139784 C 71.833202,80.681149 71.992074,79.604959 71.222394,79.170628 C 70.33676,78.406473 69.044675,79.621695 69.368381,80.59384 z M 69.859411,80.494494 C 69.732254,79.744215 71.060102,78.906728 71.205426,79.961632 C 71.207585,80.64024 70.179156,81.338805 69.859411,80.494494 z "
         style="font-size:12.3537302px;font-style:normal;font-variant:normal;font-weight:bold;font-stretch:normal;text-align:start;line-height:125%;writing-mode:lr-tb;text-anchor:start;fill:url(#linearGradient5567);fill-opacity:1;stroke:none;stroke-width:1px;stroke-linecap:butt;stroke-linejoin:miter;stroke-opacity:1;font-family:Bitstream Vera Sans" />
      <path
         style="fill:url(#radialGradient5569);fill-opacity:1;fill-rule:nonzero;stroke:none;stroke-width:0.5;stroke-linecap:round;stroke-linejoin:round;stroke-miterlimit:4;stroke-dasharray:none;stroke-dashoffset:4;stroke-opacity:1"
         d="M 75.683574,76.88651 L 76.886115,75.25619 L 61.302908,62.603284 L 60.079491,64.145634 L 75.683574,76.88651 z M 60.094977,64.155043 L 61.329802,62.606252 L 57.718332,59.871496 L 56.623019,61.243399 L 60.094977,64.155043 z "
         id="path4468"
         sodipodi:nodetypes="cccccccccc" />
      <path
         sodipodi:nodetypes="cccccccccc"
         id="path4475"
         d="M 69.423693,84.36591 L 70.626233,82.735591 L 54.987429,70.065921 L 53.819609,71.625034 L 69.423693,84.36591 z M 53.835096,71.634443 L 55.044328,70.090066 L 51.535226,67.337653 L 50.444327,68.735147 L 53.835096,71.634443 z "
         style="fill:url(#radialGradient5571);fill-opacity:1;fill-rule:nonzero;stroke:none;stroke-width:0.5;stroke-linecap:round;stroke-linejoin:round;stroke-miterlimit:4;stroke-dasharray:none;stroke-dashoffset:4;stroke-opacity:1" />
      <path
         sodipodi:nodetypes="cszczczsszczczs"
         id="rect5461"
         d="M 32.851664,116.03055 C 31.066814,113.97069 27.320622,110.64981 25.140204,109.19459 C 24.869919,109.0142 24.724338,108.43854 25.215124,108.22822 C 25.70591,108.0179 27.384528,107.82483 27.384528,107.82483 C 27.384528,107.82483 27.038828,106.074 27.710375,105.33846 C 28.381922,104.60292 30.070715,104.88266 30.070715,104.88266 C 30.070715,104.88266 30.165616,103.09612 30.343598,102.571 C 30.52158,102.04588 31.008014,102.22667 31.294007,102.38072 C 33.672593,103.66194 37.649808,106.83975 39.005467,109.21668 C 39.16629,109.49866 39.42133,109.97273 38.930548,110.18305 C 38.439766,110.39337 36.761142,110.58645 36.761142,110.58645 C 36.761142,110.58645 37.106841,112.33728 36.435294,113.07282 C 35.763747,113.80836 34.074955,113.52861 34.074955,113.52861 C 34.074955,113.52861 33.980055,115.31515 33.802074,115.84027 C 33.624093,116.36539 33.064416,116.27608 32.851664,116.03055 z "
         style="fill:url(#radialGradient5573);fill-opacity:1;fill-rule:nonzero;stroke:none;stroke-width:0.11067946;stroke-linecap:round;stroke-linejoin:round;stroke-miterlimit:4;stroke-dashoffset:4;stroke-opacity:1" />
      <path
         id="path5485"
         d="M 28.71875,95.46875 L 30.71875,102.34375 C 30.593562,102.39075 30.456531,102.44846 30.34375,102.5625 C 28.759078,104.16483 26.619459,106.45335 25.21875,108.21875 C 25.027682,108.45957 24.937819,108.78294 25,109 C 25.001651,109.00455 24.998198,109.02678 25,109.03125 C 25.001955,109.03563 25.029141,109.05821 25.03125,109.0625 C 25.033514,109.06669 25.02883,109.08966 25.03125,109.09375 C 25.033987,109.09764 25.059603,109.12122 25.0625,109.125 C 25.065721,109.12856 25.090365,109.15281 25.09375,109.15625 C 25.097467,109.15945 25.121116,109.18442 25.125,109.1875 C 27.305418,110.64272 31.058899,113.97139 32.84375,116.03125 C 32.850398,116.03892 32.867925,116.05556 32.875,116.0625 C 32.88228,116.06908 32.898576,116.08788 32.90625,116.09375 C 32.910181,116.09651 32.933477,116.09116 32.9375,116.09375 C 32.941612,116.09616 32.964552,116.12276 32.96875,116.125 C 32.973112,116.1269 32.99556,116.12326 33,116.125 C 33.013545,116.12972 33.048329,116.15298 33.0625,116.15625 C 33.285556,116.19185 33.596337,116.06232 33.8125,115.84375 C 35.397168,114.24143 37.536785,111.95291 38.9375,110.1875 C 39.095339,109.98857 39.168062,109.75763 39.15625,109.5625 L 47.15625,110.6875 L 39.1875,98.1875 L 28.71875,95.46875 z "
         style="opacity:0.30232556;fill:url(#radialGradient5575);fill-opacity:1;fill-rule:evenodd;stroke:none;stroke-width:0.2;stroke-linecap:round;stroke-linejoin:round;stroke-miterlimit:4;stroke-dasharray:none;stroke-opacity:1" />
      <path
         style="opacity:1;fill:url(#linearGradient6955);fill-opacity:1;fill-rule:evenodd;stroke:none;stroke-width:0.2;stroke-linecap:round;stroke-linejoin:round;stroke-miterlimit:4;stroke-dasharray:none;stroke-opacity:1"
         d="M 28.71875,95.46875 L 30.71875,102.34375 C 30.593562,102.39075 30.456531,102.44846 30.34375,102.5625 C 28.759078,104.16483 26.619459,106.45335 25.21875,108.21875 C 25.027682,108.45957 24.937819,108.78294 25,109 C 25.001651,109.00455 24.998198,109.02678 25,109.03125 C 25.001955,109.03563 25.029141,109.05821 25.03125,109.0625 C 25.033514,109.06669 25.02883,109.08966 25.03125,109.09375 C 25.033987,109.09764 25.059603,109.12122 25.0625,109.125 C 25.065721,109.12856 25.090365,109.15281 25.09375,109.15625 C 25.097467,109.15945 25.121116,109.18442 25.125,109.1875 C 27.305418,110.64272 31.058899,113.97139 32.84375,116.03125 C 32.850398,116.03892 32.867925,116.05556 32.875,116.0625 C 32.88228,116.06908 32.898576,116.08788 32.90625,116.09375 C 32.910181,116.09651 32.933477,116.09116 32.9375,116.09375 C 32.941612,116.09616 32.964552,116.12276 32.96875,116.125 C 32.973112,116.1269 32.99556,116.12326 33,116.125 C 33.013545,116.12972 33.048329,116.15298 33.0625,116.15625 C 33.285556,116.19185 33.666723,116.3244 33.8125,115.84375 C 33.958277,115.3631 34.084838,113.53224 34.084838,113.53224 C 34.084838,113.53224 35.773032,113.81215 36.443982,113.07678 C 37.114931,112.34141 36.768636,110.59075 36.768636,110.59075 C 36.768636,110.59075 38.514217,110.33924 38.9375,110.1875 C 39.360783,110.03576 39.168062,109.75763 39.15625,109.5625 L 47.15625,110.6875 L 39.1875,98.1875 L 28.71875,95.46875 z "
         id="path6074"
         sodipodi:nodetypes="ccsssssssssssssssszczczcccc" />
    </g>
    <path
       style="fill:url(#linearGradient6062);fill-opacity:1;fill-rule:evenodd;stroke:none;stroke-width:1px;stroke-linecap:butt;stroke-linejoin:miter;stroke-opacity:1"
       d="M 2.6980223,115.17834 C 2.8424864,118.18938 4.7751408,121.01089 7.8748498,121.02262 C 22.536993,121.20254 11.336418,120.91026 25.99856,121.09019 C 30.4715,121.29468 32.671013,118.98116 33.836249,115.7826 L 2.780642,115.18039 C 2.7536402,115.17972 2.7249631,115.17933 2.6980223,115.17834 z "
       id="path6044"
       sodipodi:nodetypes="cccccc" />
  </g>
</svg>
