<?xml version="1.0" encoding="UTF-8" standalone="no"?>
<!-- Created with Inkscape (http://www.inkscape.org/) -->
<svg
   xmlns:dc="http://purl.org/dc/elements/1.1/"
   xmlns:cc="http://web.resource.org/cc/"
   xmlns:rdf="http://www.w3.org/1999/02/22-rdf-syntax-ns#"
   xmlns:svg="http://www.w3.org/2000/svg"
   xmlns="http://www.w3.org/2000/svg"
   xmlns:xlink="http://www.w3.org/1999/xlink"
   xmlns:sodipodi="http://sodipodi.sourceforge.net/DTD/sodipodi-0.dtd"
   xmlns:inkscape="http://www.inkscape.org/namespaces/inkscape"
   width="128"
   height="128"
   id="svg1307"
   sodipodi:version="0.32"
   inkscape:version="0.44"
   version="1.0"
   sodipodi:docbase="/home/pinheiro/artwork/Oxygen/theme/svg/actions"
   sodipodi:docname="kgpg_key4_kgpg.svg">
  <defs
     id="defs1309">
    <linearGradient
       id="linearGradient3541">
      <stop
         style="stop-color:black;stop-opacity:1;"
         offset="0"
         id="stop3543" />
      <stop
         style="stop-color:black;stop-opacity:0;"
         offset="1"
         id="stop3545" />
    </linearGradient>
    <linearGradient
       id="linearGradient3529">
      <stop
         style="stop-color:black;stop-opacity:1;"
         offset="0"
         id="stop3531" />
      <stop
         id="stop3537"
         offset="0.80219781"
         style="stop-color:black;stop-opacity:1;" />
      <stop
         style="stop-color:black;stop-opacity:0;"
         offset="1"
         id="stop3533" />
    </linearGradient>
    <linearGradient
       id="linearGradient3306">
      <stop
         id="stop3308"
         offset="0"
         style="stop-color:#bbb;stop-opacity:1;" />
      <stop
         style="stop-color:#f0f0f0;stop-opacity:1;"
         offset="0.4642857"
         id="stop3316" />
      <stop
         style="stop-color:#cacaca;stop-opacity:1;"
         offset="0.5"
         id="stop3312" />
      <stop
         id="stop3314"
         offset="0.54395604"
         style="stop-color:#e4e4e4;stop-opacity:1;" />
      <stop
         id="stop3310"
         offset="1"
         style="stop-color:#ddd;stop-opacity:1;" />
    </linearGradient>
    <linearGradient
       inkscape:collect="always"
       id="linearGradient3205">
      <stop
         style="stop-color:black;stop-opacity:1;"
         offset="0"
         id="stop3207" />
      <stop
         style="stop-color:black;stop-opacity:0;"
         offset="1"
         id="stop3210" />
    </linearGradient>
    <linearGradient
       inkscape:collect="always"
       id="linearGradient3189">
      <stop
         style="stop-color:white;stop-opacity:1;"
         offset="0"
         id="stop3191" />
      <stop
         style="stop-color:white;stop-opacity:0;"
         offset="1"
         id="stop3193" />
    </linearGradient>
    <linearGradient
       id="linearGradient3160">
      <stop
         style="stop-color:#656565;stop-opacity:1;"
         offset="0"
         id="stop3162" />
      <stop
         style="stop-color:#a6a6a6;stop-opacity:1;"
         offset="1"
         id="stop3164" />
    </linearGradient>
    <linearGradient
       id="linearGradient3146">
      <stop
         style="stop-color:white;stop-opacity:1;"
         offset="0"
         id="stop3148" />
      <stop
         id="stop3183"
         offset="0"
         style="stop-color:white;stop-opacity:0.49803922;" />
      <stop
         style="stop-color:#ccc;stop-opacity:0.24705882;"
         offset="0.75"
         id="stop3185" />
      <stop
         style="stop-color:white;stop-opacity:0;"
         offset="1"
         id="stop3150" />
    </linearGradient>
    <linearGradient
       inkscape:collect="always"
       id="linearGradient3134">
      <stop
         style="stop-color:white;stop-opacity:1;"
         offset="0"
         id="stop3136" />
      <stop
         style="stop-color:white;stop-opacity:0;"
         offset="1"
         id="stop3138" />
    </linearGradient>
    <linearGradient
       inkscape:collect="always"
       id="linearGradient3092">
      <stop
         style="stop-color:white;stop-opacity:1;"
         offset="0"
         id="stop3094" />
      <stop
         style="stop-color:white;stop-opacity:0;"
         offset="1"
         id="stop3096" />
    </linearGradient>
    <linearGradient
       id="linearGradient2930">
      <stop
         style="stop-color:black;stop-opacity:0.50180507;"
         offset="0"
         id="stop2932" />
      <stop
         id="stop2938"
         offset="0.13736264"
         style="stop-color:black;stop-opacity:0;" />
      <stop
         style="stop-color:white;stop-opacity:0;"
         offset="0.29486871"
         id="stop2940" />
      <stop
         id="stop2942"
         offset="0.58544481"
         style="stop-color:white;stop-opacity:0.79061371;" />
      <stop
         style="stop-color:black;stop-opacity:0;"
         offset="1"
         id="stop2934" />
    </linearGradient>
    <linearGradient
       inkscape:collect="always"
       id="linearGradient2917">
      <stop
         style="stop-color:black;stop-opacity:1;"
         offset="0"
         id="stop2919" />
      <stop
         style="stop-color:black;stop-opacity:0;"
         offset="1"
         id="stop2921" />
    </linearGradient>
    <linearGradient
       id="linearGradient2890">
      <stop
         style="stop-color:#434542;stop-opacity:1;"
         offset="0"
         id="stop2892" />
      <stop
         id="stop2898"
         offset="0.07692308"
         style="stop-color:#cecfce;stop-opacity:1;" />
      <stop
         style="stop-color:white;stop-opacity:1;"
         offset="1"
         id="stop2894" />
    </linearGradient>
    <linearGradient
       id="linearGradient2598">
      <stop
         style="stop-color:#252525;stop-opacity:1;"
         offset="0"
         id="stop2600" />
      <stop
         id="stop2606"
         offset="0.5"
         style="stop-color:#252525;stop-opacity:1;" />
      <stop
         style="stop-color:#252525;stop-opacity:1;"
         offset="0.75"
         id="stop2608" />
      <stop
         style="stop-color:#000000;stop-opacity:1;"
         offset="1"
         id="stop2602" />
    </linearGradient>
    <linearGradient
       id="linearGradient3325">
      <stop
         id="stop3327"
         offset="0"
         style="stop-color:#ffffff;stop-opacity:1;" />
      <stop
         id="stop3329"
         offset="1"
         style="stop-color:#ffffff;stop-opacity:0;" />
    </linearGradient>
    <linearGradient
       id="linearGradient3311">
      <stop
         style="stop-color:#2d2d2d;stop-opacity:1;"
         offset="0"
         id="stop3313" />
      <stop
         id="stop3319"
         offset="0.5"
         style="stop-color:#000000;stop-opacity:1;" />
      <stop
         style="stop-color:#000000;stop-opacity:1;"
         offset="1"
         id="stop3315" />
    </linearGradient>
    <linearGradient
       id="linearGradient3303">
      <stop
         style="stop-color:#ffffff;stop-opacity:0.68345326;"
         offset="0"
         id="stop3305" />
      <stop
         style="stop-color:#ffffff;stop-opacity:0;"
         offset="1"
         id="stop3307" />
    </linearGradient>
    <linearGradient
       inkscape:collect="always"
       id="linearGradient3291">
      <stop
         style="stop-color:#000000;stop-opacity:1;"
         offset="0"
         id="stop3293" />
      <stop
         style="stop-color:#000000;stop-opacity:0;"
         offset="1"
         id="stop3295" />
    </linearGradient>
    <linearGradient
       id="linearGradient3273">
      <stop
         style="stop-color:#ffffff;stop-opacity:0.55035973;"
         offset="0"
         id="stop3275" />
      <stop
         style="stop-color:#ffffff;stop-opacity:0;"
         offset="1"
         id="stop3277" />
    </linearGradient>
    <linearGradient
       id="linearGradient3259">
      <stop
         id="stop3261"
         offset="0"
         style="stop-color:#ffffff;stop-opacity:0.55035973;" />
      <stop
         id="stop3263"
         offset="1"
         style="stop-color:#000000;stop-opacity:0;" />
    </linearGradient>
    <linearGradient
       id="linearGradient3251">
      <stop
         style="stop-color:#000000;stop-opacity:1;"
         offset="0"
         id="stop3253" />
      <stop
         style="stop-color:#131313;stop-opacity:0;"
         offset="1"
         id="stop3255" />
    </linearGradient>
    <linearGradient
       inkscape:collect="always"
       id="linearGradient3235">
      <stop
         style="stop-color:#ffffff;stop-opacity:1;"
         offset="0"
         id="stop3237" />
      <stop
         style="stop-color:#ffffff;stop-opacity:0;"
         offset="1"
         id="stop3239" />
    </linearGradient>
    <linearGradient
       id="linearGradient3225">
      <stop
         style="stop-color:#ffffff;stop-opacity:1;"
         offset="0"
         id="stop3227" />
      <stop
         style="stop-color:#aeaeae;stop-opacity:1;"
         offset="1"
         id="stop3229" />
    </linearGradient>
    <linearGradient
       inkscape:collect="always"
       id="linearGradient3217">
      <stop
         style="stop-color:#252525;stop-opacity:1;"
         offset="0"
         id="stop3219" />
      <stop
         style="stop-color:#252525;stop-opacity:0;"
         offset="1"
         id="stop3221" />
    </linearGradient>
    <linearGradient
       id="linearGradient3207">
      <stop
         style="stop-color:#ffffff;stop-opacity:1;"
         offset="0"
         id="stop3209" />
      <stop
         style="stop-color:#252525;stop-opacity:0;"
         offset="1"
         id="stop3211" />
    </linearGradient>
    <linearGradient
       id="linearGradient2257">
      <stop
         style="stop-color:#b4942a;stop-opacity:1;"
         offset="0"
         id="stop2259" />
      <stop
         style="stop-color:#e4dcc9;stop-opacity:1"
         offset="1"
         id="stop2261" />
    </linearGradient>
    <radialGradient
       inkscape:collect="always"
       xlink:href="#linearGradient3291"
       id="radialGradient3297"
       cx="63.912209"
       cy="115.70919"
       fx="63.912209"
       fy="115.7093"
       r="63.912209"
       gradientTransform="matrix(1,0,0,0.197802,0,92.82166)"
       gradientUnits="userSpaceOnUse" />
    <radialGradient
       inkscape:collect="always"
       xlink:href="#linearGradient3303"
       id="radialGradient1539"
       gradientUnits="userSpaceOnUse"
       gradientTransform="matrix(1,7.635218e-17,-1.390307e-18,2.608014e-2,-1.139078e-13,7.26766)"
       cx="34.677639"
       cy="7.4622769"
       fx="34.677639"
       fy="7.4622769"
       r="47.595197" />
    <radialGradient
       inkscape:collect="always"
       xlink:href="#linearGradient3325"
       id="radialGradient1541"
       gradientUnits="userSpaceOnUse"
       gradientTransform="matrix(-1.5103,2.641273e-3,-1.167078e-4,-9.110224e-3,87.0522,7.438666)"
       cx="34.677639"
       cy="7.4622769"
       fx="34.677639"
       fy="7.4622769"
       r="47.595196" />
    <radialGradient
       inkscape:collect="always"
       xlink:href="#linearGradient3259"
       id="radialGradient1547"
       gradientUnits="userSpaceOnUse"
       gradientTransform="matrix(0.853446,3.931539e-16,-5.927715e-17,0.1578,-62.04115,15.05256)"
       cx="49.011971"
       cy="2.6743078"
       fx="49.011971"
       fy="2.6743078"
       r="1.7246193" />
    <linearGradient
       inkscape:collect="always"
       xlink:href="#linearGradient3251"
       id="linearGradient1550"
       gradientUnits="userSpaceOnUse"
       x1="46.051746"
       y1="3.0999987"
       x2="46.051746"
       y2="2.395859"
       gradientTransform="translate(53.87194,19.35268)" />
    <radialGradient
       inkscape:collect="always"
       xlink:href="#linearGradient3273"
       id="radialGradient1553"
       gradientUnits="userSpaceOnUse"
       gradientTransform="matrix(0.860164,-2.860046e-16,6.583289e-17,0.1578,-29.37149,15.05256)"
       cx="49.011971"
       cy="2.6743078"
       fx="49.011971"
       fy="2.6743078"
       r="1.7246193" />
    <linearGradient
       inkscape:collect="always"
       xlink:href="#linearGradient3251"
       id="linearGradient1556"
       gradientUnits="userSpaceOnUse"
       gradientTransform="matrix(1.28993,-5.112494e-16,5.140778e-16,1.29707,-46.7271,12.03998)"
       x1="46.051746"
       y1="3.0999987"
       x2="46.051746"
       y2="2.395859" />
    <linearGradient
       inkscape:collect="always"
       xlink:href="#linearGradient3235"
       id="linearGradient1559"
       gradientUnits="userSpaceOnUse"
       gradientTransform="matrix(1.297068,-1.880044e-3,1.880044e-3,1.297068,-47.04731,12.10823)"
       x1="48.498562"
       y1="0.81150496"
       x2="48.732723"
       y2="2.3657269" />
    <radialGradient
       inkscape:collect="always"
       xlink:href="#linearGradient3207"
       id="radialGradient1562"
       gradientUnits="userSpaceOnUse"
       gradientTransform="matrix(1.29707,-4.591755e-16,6.750436e-17,0.1578,-47.06473,15.05256)"
       cx="49.011971"
       cy="2.6743078"
       fx="49.011971"
       fy="2.6743078"
       r="1.7246193" />
    <linearGradient
       inkscape:collect="always"
       xlink:href="#linearGradient3217"
       id="linearGradient1565"
       gradientUnits="userSpaceOnUse"
       gradientTransform="matrix(1.29707,-3.784064e-16,3.784064e-16,1.29707,-47.06473,12.03998)"
       x1="48.914677"
       y1="2.9719031"
       x2="48.913002"
       y2="2.5548496" />
    <radialGradient
       inkscape:collect="always"
       xlink:href="#linearGradient3225"
       id="radialGradient1569"
       gradientUnits="userSpaceOnUse"
       gradientTransform="matrix(1.297068,-1.880044e-3,7.085819e-4,0.48867,-47.03734,18.97582)"
       cx="49.009884"
       cy="8.4953122"
       fx="47.370888"
       fy="6.7701697"
       r="3.9750405" />
    <radialGradient
       inkscape:collect="always"
       xlink:href="#linearGradient3311"
       id="radialGradient1576"
       gradientUnits="userSpaceOnUse"
       gradientTransform="matrix(6.228741e-2,-3.825032e-4,4.90218e-3,0.798611,15.0605,-17.07621)"
       cx="95.505852"
       cy="59.591507"
       fx="95.505852"
       fy="59.591507"
       r="47.746404" />
    <radialGradient
       inkscape:collect="always"
       xlink:href="#linearGradient2257"
       id="radialGradient1580"
       gradientUnits="userSpaceOnUse"
       gradientTransform="matrix(1.520175,8.839467e-2,-0.843351,13.788,55.27677,-1567.892)"
       cx="42.617531"
       cy="120.64188"
       fx="42.617531"
       fy="120.64188"
       r="3.406888" />
    <radialGradient
       inkscape:collect="always"
       xlink:href="#linearGradient3146"
       id="radialGradient3176"
       cx="92.454208"
       cy="71.239235"
       fx="92.454208"
       fy="71.239235"
       r="29.344931"
       gradientTransform="matrix(1,0,0,0.173814,0,65.56385)"
       gradientUnits="userSpaceOnUse" />
    <radialGradient
       inkscape:collect="always"
       xlink:href="#linearGradient3189"
       id="radialGradient3272"
       gradientUnits="userSpaceOnUse"
       gradientTransform="matrix(1,0,0,0.534483,0,41.66379)"
       cx="39"
       cy="89.5"
       fx="39"
       fy="89.5"
       r="29" />
    <linearGradient
       inkscape:collect="always"
       xlink:href="#linearGradient2890"
       id="linearGradient3274"
       gradientUnits="userSpaceOnUse"
       gradientTransform="matrix(1.088583,0,0,1.088583,-11.08559,-36.9904)"
       x1="63.498344"
       y1="49.15625"
       x2="124.625"
       y2="49.15625" />
    <linearGradient
       inkscape:collect="always"
       xlink:href="#linearGradient2890"
       id="linearGradient3276"
       gradientUnits="userSpaceOnUse"
       gradientTransform="matrix(1.088583,0,0,1.088583,-11.08559,-36.9904)"
       x1="64.15625"
       y1="63.796875"
       x2="127.31514"
       y2="63.796875" />
    <linearGradient
       inkscape:collect="always"
       xlink:href="#linearGradient2917"
       id="linearGradient3278"
       gradientUnits="userSpaceOnUse"
       gradientTransform="matrix(1.088583,0,0,1.088583,-11.08559,-36.9904)"
       x1="94.478127"
       y1="67.146591"
       x2="94.478127"
       y2="64.642754" />
    <linearGradient
       inkscape:collect="always"
       xlink:href="#linearGradient2930"
       id="linearGradient3280"
       gradientUnits="userSpaceOnUse"
       gradientTransform="matrix(1.088583,0,0,1.088583,-11.08559,-36.9904)"
       x1="94.15625"
       y1="58.84375"
       x2="94.15625"
       y2="50.607132" />
    <linearGradient
       inkscape:collect="always"
       xlink:href="#linearGradient3092"
       id="linearGradient3282"
       gradientUnits="userSpaceOnUse"
       gradientTransform="matrix(0.911332,0,0,0.911332,0.757746,-26.41314)"
       x1="34.760506"
       y1="35.675571"
       x2="27.73057"
       y2="85.991692" />
    <linearGradient
       inkscape:collect="always"
       xlink:href="#linearGradient3160"
       id="linearGradient3288"
       gradientUnits="userSpaceOnUse"
       x1="34.981007"
       y1="89.296867"
       x2="34.981007"
       y2="6.8746934"
       gradientTransform="translate(0,-32.25)" />
    <radialGradient
       inkscape:collect="always"
       xlink:href="#linearGradient3146"
       id="radialGradient3290"
       gradientUnits="userSpaceOnUse"
       gradientTransform="matrix(0.929333,0,1.322225e-7,0.156312,-2.766704,10.32209)"
       cx="98.227898"
       cy="44.293781"
       fx="98.227898"
       fy="44.293781"
       r="63.893538" />
    <radialGradient
       inkscape:collect="always"
       xlink:href="#linearGradient3146"
       id="radialGradient3292"
       gradientUnits="userSpaceOnUse"
       gradientTransform="matrix(0.929333,0,1.322225e-7,0.156312,-2.766704,10.32209)"
       cx="98.227898"
       cy="44.293781"
       fx="98.227898"
       fy="44.293781"
       r="63.893538" />
    <radialGradient
       inkscape:collect="always"
       xlink:href="#linearGradient3146"
       id="radialGradient3294"
       gradientUnits="userSpaceOnUse"
       gradientTransform="matrix(0.837949,0.162001,-2.967029e-2,0.15347,6.604647,-4.73853)"
       cx="40.082912"
       cy="3.6800315"
       fx="40.082912"
       fy="3.6800315"
       r="63.893538" />
    <radialGradient
       inkscape:collect="always"
       xlink:href="#linearGradient3146"
       id="radialGradient3296"
       gradientUnits="userSpaceOnUse"
       gradientTransform="matrix(1.460461,0,0,0.173814,-42.57157,33.31385)"
       cx="92.454208"
       cy="71.239235"
       fx="109.07122"
       fy="64.119919"
       r="29.344931" />
    <radialGradient
       inkscape:collect="always"
       xlink:href="#linearGradient3205"
       id="radialGradient3298"
       gradientUnits="userSpaceOnUse"
       gradientTransform="matrix(1,0,0,3.457205e-3,0,30.0091)"
       cx="96.094643"
       cy="62.475086"
       fx="96.094643"
       fy="62.475086"
       r="30.94986" />
    <radialGradient
       inkscape:collect="always"
       xlink:href="#linearGradient3146"
       id="radialGradient3300"
       gradientUnits="userSpaceOnUse"
       gradientTransform="matrix(1,0,0,8.834941e-3,-0.140625,34.20637)"
       cx="96.350143"
       cy="66.806999"
       fx="96.350143"
       fy="66.806999"
       r="31.649858" />
    <radialGradient
       inkscape:collect="always"
       xlink:href="#linearGradient3306"
       id="radialGradient3302"
       cx="149.14813"
       cy="132.84563"
       fx="207.57301"
       fy="94.598503"
       r="63.399036"
       gradientTransform="matrix(1.339956,1.944969e-2,-1.864776e-2,1.284707,-42.50005,-66.23018)"
       gradientUnits="userSpaceOnUse"
       spreadMethod="reflect" />
    <linearGradient
       inkscape:collect="always"
       xlink:href="#linearGradient3134"
       id="linearGradient3494"
       gradientUnits="userSpaceOnUse"
       gradientTransform="matrix(1.113305,0,0,1.113305,-43.84526,0.955735)"
       x1="26.241974"
       y1="50.778923"
       x2="55.263794"
       y2="75.174103" />
    <linearGradient
       inkscape:collect="always"
       xlink:href="#linearGradient3160"
       id="linearGradient3496"
       gradientUnits="userSpaceOnUse"
       gradientTransform="translate(-16.09364,7.548466)"
       x1="13.012782"
       y1="68.636307"
       x2="31.868282"
       y2="68.636307" />
    <linearGradient
       inkscape:collect="always"
       xlink:href="#linearGradient3134"
       id="linearGradient3976"
       gradientUnits="userSpaceOnUse"
       gradientTransform="matrix(1.113305,0,0,1.113305,-27.75162,5.40727)"
       x1="26.241974"
       y1="50.778923"
       x2="55.263794"
       y2="75.174103" />
    <linearGradient
       inkscape:collect="always"
       xlink:href="#linearGradient3134"
       id="linearGradient4152"
       gradientUnits="userSpaceOnUse"
       gradientTransform="matrix(1.113305,0,0,1.113305,-27.75162,5.40727)"
       x1="26.241974"
       y1="50.778923"
       x2="55.263794"
       y2="75.174103" />
    <linearGradient
       inkscape:collect="always"
       xlink:href="#linearGradient3134"
       id="linearGradient4186"
       gradientUnits="userSpaceOnUse"
       gradientTransform="matrix(1.02233,2.472554e-7,-2.472554e-7,1.02233,-35.56869,7.516287)"
       x1="26.241974"
       y1="50.778923"
       x2="55.263794"
       y2="75.174103" />
    <linearGradient
       inkscape:collect="always"
       xlink:href="#linearGradient3134"
       id="linearGradient4225"
       gradientUnits="userSpaceOnUse"
       gradientTransform="matrix(0.883188,0,0,0.883188,-148.945,98.4114)"
       x1="26.241974"
       y1="50.778923"
       x2="55.263794"
       y2="75.174103" />
    <linearGradient
       inkscape:collect="always"
       xlink:href="#linearGradient3134"
       id="linearGradient4276"
       gradientUnits="userSpaceOnUse"
       gradientTransform="matrix(0.883188,0,0,0.883188,-148.945,98.4114)"
       x1="26.241974"
       y1="50.778923"
       x2="55.263794"
       y2="75.174103" />
    <linearGradient
       inkscape:collect="always"
       xlink:href="#linearGradient3134"
       id="linearGradient4310"
       gradientUnits="userSpaceOnUse"
       gradientTransform="matrix(0.883188,0,0,0.883188,-148.945,98.4114)"
       x1="26.241974"
       y1="50.778923"
       x2="55.263794"
       y2="75.174103" />
    <radialGradient
       inkscape:collect="always"
       xlink:href="#linearGradient3189"
       id="radialGradient4372"
       gradientUnits="userSpaceOnUse"
       gradientTransform="matrix(1,0,0,0.534483,0,41.66379)"
       cx="39"
       cy="89.5"
       fx="39"
       fy="89.5"
       r="29" />
    <linearGradient
       inkscape:collect="always"
       xlink:href="#linearGradient3134"
       id="linearGradient4386"
       gradientUnits="userSpaceOnUse"
       gradientTransform="matrix(1.02233,2.472554e-7,-2.472554e-7,1.02233,-35.56869,7.516287)"
       x1="26.241974"
       y1="50.778923"
       x2="55.263794"
       y2="75.174103" />
    <radialGradient
       inkscape:collect="always"
       xlink:href="#linearGradient3146"
       id="radialGradient4417"
       gradientUnits="userSpaceOnUse"
       gradientTransform="matrix(1.249354,0.487557,-5.802573e-2,0.14869,-18.04641,15.94474)"
       cx="92.454208"
       cy="71.239235"
       fx="109.07122"
       fy="64.119919"
       r="29.344931" />
    <radialGradient
       inkscape:collect="always"
       xlink:href="#linearGradient3146"
       id="radialGradient4420"
       gradientUnits="userSpaceOnUse"
       gradientTransform="matrix(0.662743,0.418322,-7.661549e-2,0.121381,36.72497,-0.190239)"
       cx="40.082912"
       cy="3.6800315"
       fx="40.082912"
       fy="3.6800315"
       r="63.893538" />
    <radialGradient
       inkscape:collect="always"
       xlink:href="#linearGradient3146"
       id="radialGradient4423"
       gradientUnits="userSpaceOnUse"
       gradientTransform="matrix(0.794999,0.310247,-5.218265e-2,0.133717,23.68041,9.564858)"
       cx="98.227898"
       cy="44.293781"
       fx="98.227898"
       fy="44.293781"
       r="63.893538" />
    <radialGradient
       inkscape:collect="always"
       xlink:href="#linearGradient3146"
       id="radialGradient4426"
       gradientUnits="userSpaceOnUse"
       gradientTransform="matrix(0.794999,0.310247,-5.218265e-2,0.133717,23.68041,9.564858)"
       cx="98.227898"
       cy="44.293781"
       fx="98.227898"
       fy="44.293781"
       r="63.893538" />
    <linearGradient
       inkscape:collect="always"
       xlink:href="#linearGradient2930"
       id="linearGradient4429"
       gradientUnits="userSpaceOnUse"
       gradientTransform="matrix(0.93123,0.36341,-0.36341,0.93123,32.35855,-33.68588)"
       x1="94.15625"
       y1="58.84375"
       x2="94.15625"
       y2="50.607132" />
    <linearGradient
       inkscape:collect="always"
       xlink:href="#linearGradient2917"
       id="linearGradient4432"
       gradientUnits="userSpaceOnUse"
       gradientTransform="matrix(0.93123,0.36341,-0.36341,0.93123,32.35855,-33.68588)"
       x1="94.478127"
       y1="67.146591"
       x2="94.478127"
       y2="64.642754" />
    <linearGradient
       inkscape:collect="always"
       xlink:href="#linearGradient2890"
       id="linearGradient4435"
       gradientUnits="userSpaceOnUse"
       gradientTransform="matrix(0.93123,0.36341,-0.36341,0.93123,32.35855,-33.68588)"
       x1="64.15625"
       y1="63.796875"
       x2="127.31514"
       y2="63.796875" />
    <linearGradient
       inkscape:collect="always"
       xlink:href="#linearGradient2890"
       id="linearGradient4438"
       gradientUnits="userSpaceOnUse"
       gradientTransform="matrix(0.93123,0.36341,-0.36341,0.93123,32.35855,-33.68588)"
       x1="63.498344"
       y1="49.15625"
       x2="124.625"
       y2="49.15625" />
    <linearGradient
       inkscape:collect="always"
       xlink:href="#linearGradient3160"
       id="linearGradient4441"
       gradientUnits="userSpaceOnUse"
       gradientTransform="matrix(0.855452,0.333838,-0.333838,0.855452,40.25925,-25.92992)"
       x1="34.981007"
       y1="89.296867"
       x2="34.981007"
       y2="6.8746934" />
    <linearGradient
       inkscape:collect="always"
       xlink:href="#linearGradient3225"
       id="linearGradient4444"
       gradientUnits="userSpaceOnUse"
       gradientTransform="matrix(0.931231,0.36341,-0.36341,0.931231,32.35855,-33.68587)"
       x1="132.77945"
       y1="22.707912"
       x2="-20.653816"
       y2="91.103127" />
    <radialGradient
       inkscape:collect="always"
       xlink:href="#linearGradient3146"
       id="radialGradient4447"
       gradientUnits="userSpaceOnUse"
       gradientTransform="matrix(1.228181,-0.538672,6.410886e-2,0.146169,-31.41262,99.56864)"
       cx="92.454208"
       cy="71.239235"
       fx="109.07122"
       fy="64.119919"
       r="29.344931" />
    <radialGradient
       inkscape:collect="always"
       xlink:href="#linearGradient3146"
       id="radialGradient4450"
       gradientUnits="userSpaceOnUse"
       gradientTransform="matrix(0.764428,-0.172831,3.165406e-2,0.140005,-4.092807,49.43031)"
       cx="40.082912"
       cy="3.6800315"
       fx="40.082912"
       fy="3.6800315"
       r="63.893538" />
    <radialGradient
       inkscape:collect="always"
       xlink:href="#linearGradient3146"
       id="radialGradient4453"
       gradientUnits="userSpaceOnUse"
       gradientTransform="matrix(0.781527,-0.342773,5.765382e-2,0.131451,-6.41872,65.55209)"
       cx="98.227898"
       cy="44.293781"
       fx="98.227898"
       fy="44.293781"
       r="63.893538" />
    <radialGradient
       inkscape:collect="always"
       xlink:href="#linearGradient3146"
       id="radialGradient4456"
       gradientUnits="userSpaceOnUse"
       gradientTransform="matrix(0.781527,-0.342773,5.765382e-2,0.131451,-6.41872,65.55209)"
       cx="98.227898"
       cy="44.293781"
       fx="98.227898"
       fy="44.293781"
       r="63.893538" />
    <linearGradient
       inkscape:collect="always"
       xlink:href="#linearGradient3134"
       id="linearGradient4460"
       gradientUnits="userSpaceOnUse"
       gradientTransform="matrix(1.02233,2.472555e-7,-2.472555e-7,1.02233,-55.15111,12.30644)"
       x1="26.241974"
       y1="50.778923"
       x2="55.263794"
       y2="75.174103" />
    <linearGradient
       inkscape:collect="always"
       xlink:href="#linearGradient3092"
       id="linearGradient4463"
       gradientUnits="userSpaceOnUse"
       gradientTransform="matrix(0.766388,-0.336133,0.336133,0.766388,-17.00416,33.35951)"
       x1="34.760506"
       y1="35.675571"
       x2="27.73057"
       y2="85.991692" />
    <linearGradient
       inkscape:collect="always"
       xlink:href="#linearGradient2930"
       id="linearGradient4466"
       gradientUnits="userSpaceOnUse"
       gradientTransform="matrix(0.915449,-0.40151,0.40151,0.915449,-30.86515,28.83277)"
       x1="94.15625"
       y1="58.84375"
       x2="94.15625"
       y2="50.607132" />
    <linearGradient
       inkscape:collect="always"
       xlink:href="#linearGradient2917"
       id="linearGradient4469"
       gradientUnits="userSpaceOnUse"
       gradientTransform="matrix(0.915449,-0.40151,0.40151,0.915449,-30.86515,28.83277)"
       x1="94.478127"
       y1="67.146591"
       x2="94.478127"
       y2="64.642754" />
    <linearGradient
       inkscape:collect="always"
       xlink:href="#linearGradient2890"
       id="linearGradient4472"
       gradientUnits="userSpaceOnUse"
       gradientTransform="matrix(0.915449,-0.40151,0.40151,0.915449,-30.86515,28.83277)"
       x1="64.15625"
       y1="63.796875"
       x2="127.31514"
       y2="63.796875" />
    <linearGradient
       inkscape:collect="always"
       xlink:href="#linearGradient2890"
       id="linearGradient4475"
       gradientUnits="userSpaceOnUse"
       gradientTransform="matrix(0.915449,-0.40151,0.40151,0.915449,-30.86515,28.83277)"
       x1="63.498344"
       y1="49.15625"
       x2="124.625"
       y2="49.15625" />
    <linearGradient
       inkscape:collect="always"
       xlink:href="#linearGradient3160"
       id="linearGradient4478"
       gradientUnits="userSpaceOnUse"
       gradientTransform="matrix(0.840955,-0.368838,0.368838,0.840955,-19.79426,28.73046)"
       x1="34.981007"
       y1="89.296867"
       x2="34.981007"
       y2="6.8746934" />
    <linearGradient
       inkscape:collect="always"
       xlink:href="#linearGradient3225"
       id="linearGradient4482"
       gradientUnits="userSpaceOnUse"
       gradientTransform="matrix(0.91545,-0.40151,0.40151,0.91545,-30.86514,28.83278)"
       x1="132.77945"
       y1="22.707912"
       x2="-20.653816"
       y2="91.103127" />
  </defs>
  <sodipodi:namedview
     id="base"
     pagecolor="#ffffff"
     bordercolor="#666666"
     borderopacity="1.0"
     inkscape:pageopacity="0.0"
     inkscape:pageshadow="2"
     inkscape:zoom="2.8284271"
     inkscape:cx="-31.209053"
     inkscape:cy="60.920362"
     inkscape:current-layer="layer1"
     showgrid="false"
     inkscape:document-units="px"
     inkscape:grid-bbox="true"
     guidetolerance="0.1px"
     showguides="true"
     inkscape:guide-bbox="true"
     inkscape:window-width="1106"
     inkscape:window-height="958"
     inkscape:window-x="165"
     inkscape:window-y="15">
    <sodipodi:guide
       orientation="horizontal"
       position="157.34005"
       id="guide2204" />
    <sodipodi:guide
       orientation="vertical"
       position="30.184621"
       id="guide3119" />
    <sodipodi:guide
       orientation="horizontal"
       position="76.809474"
       id="guide3121" />
  </sodipodi:namedview>
  <metadata
     id="metadata1312">
    <rdf:RDF>
      <cc:Work
         rdf:about="">
        <dc:format>image/svg+xml</dc:format>
        <dc:type
           rdf:resource="http://purl.org/dc/dcmitype/StillImage" />
        <cc:license
           rdf:resource="http://creativecommons.org/licenses/GPL/2.0/" />
        <dc:contributor>
          <cc:Agent>
            <dc:title>Oxygen team</dc:title>
          </cc:Agent>
        </dc:contributor>
      </cc:Work>
      <cc:License
         rdf:about="http://creativecommons.org/licenses/LGPL/2.1/">
        <cc:permits
           rdf:resource="http://web.resource.org/cc/Reproduction" />
        <cc:permits
           rdf:resource="http://web.resource.org/cc/Distribution" />
        <cc:requires
           rdf:resource="http://web.resource.org/cc/Notice" />
        <cc:permits
           rdf:resource="http://web.resource.org/cc/DerivativeWorks" />
        <cc:requires
           rdf:resource="http://web.resource.org/cc/ShareAlike" />
        <cc:requires
           rdf:resource="http://web.resource.org/cc/SourceCode" />
      </cc:License>
    </rdf:RDF>
  </metadata>
  <g
     id="layer1"
     inkscape:label="Layer 1"
     inkscape:groupmode="layer">
    <path
       sodipodi:nodetypes="ccc"
       id="path2276"
       d="M 50.892799,3.2812959 L 50.892799,0.48658747 L 50.892799,3.2812959 z "
       style="fill:#ffffff;fill-opacity:0.75688076;fill-rule:nonzero;stroke:none;stroke-width:0.5;stroke-linecap:round;stroke-linejoin:round;stroke-miterlimit:4;stroke-dasharray:none;stroke-dashoffset:4;stroke-opacity:1" />
    <path
       sodipodi:type="arc"
       style="opacity:0.38139535;fill:url(#radialGradient3297);fill-opacity:1.0;fill-rule:nonzero;stroke:none;stroke-width:0;stroke-linecap:round;stroke-linejoin:round;stroke-miterlimit:4;stroke-dasharray:none;stroke-dashoffset:4;stroke-opacity:1"
       id="path3289"
       sodipodi:cx="63.912209"
       sodipodi:cy="115.70919"
       sodipodi:rx="63.912209"
       sodipodi:ry="12.641975"
       d="M 127.82442 115.70919 A 63.912209 12.641975 0 1 1  0,115.70919 A 63.912209 12.641975 0 1 1  127.82442 115.70919 z"
       transform="matrix(1,0,0,0.416667,0,74.87151)" />
    <path
       style="fill:url(#linearGradient4482);fill-opacity:1;fill-rule:nonzero;stroke:none;stroke-width:0.48889723;stroke-linecap:round;stroke-linejoin:round;stroke-miterlimit:4;stroke-dasharray:none;stroke-dashoffset:4;stroke-opacity:1"
       d="M 17.734603,44.703488 C 3.9504459,50.749129 -2.3337621,66.852291 3.7118795,80.636441 C 9.7575216,94.420592 25.860684,100.7048 39.64483,94.659159 C 45.860683,91.932927 50.546823,87.16591 53.2659,81.496124 C 53.285563,81.455114 53.302232,81.39426 53.321693,81.353156 C 53.349988,81.268528 53.387098,81.199751 53.414682,81.114873 C 54.035639,79.204185 54.465631,77.25632 54.714207,75.251968 L 74.060435,66.766838 L 75.742376,60.064713 L 63.920677,54.545249 L 67.874446,45.187735 L 65.633433,43.050162 L 63.298268,42.138871 C 62.579756,41.858477 61.756669,42.219476 61.476277,42.937984 L 59.203281,48.832852 L 56.221842,50.140492 C 55.515511,50.450286 54.706162,50.106984 54.396368,49.400651 L 53.49555,47.34677 C 52.993468,46.202016 52.014512,46.139864 51.189444,46.501733 L 45.557836,48.971719 C 44.440745,47.866813 43.225181,46.841554 41.969659,45.924021 C 41.926685,45.892615 41.902937,45.88488 41.859817,45.853699 C 34.682491,41.892831 25.816123,41.158984 17.734603,44.703488 z M 14.388735,55.176866 C 18.298993,53.46186 22.857679,55.21341 24.572685,59.12366 C 26.287691,63.033912 24.517537,67.640255 20.607292,69.355264 C 16.697046,71.07027 12.142419,69.237936 10.427413,65.327685 C 8.7124082,61.417438 10.478489,56.891874 14.388735,55.176866 z "
       id="path1969" />
    <path
       sodipodi:type="arc"
       style="opacity:0.41393445;fill:url(#radialGradient4372);fill-opacity:1;fill-rule:nonzero;stroke:none;stroke-width:0.78899997;stroke-linecap:round;stroke-linejoin:round;stroke-miterlimit:4;stroke-dasharray:none;stroke-dashoffset:4;stroke-opacity:1"
       id="path3187"
       sodipodi:cx="39"
       sodipodi:cy="65.25"
       sodipodi:rx="29"
       sodipodi:ry="29"
       d="M 68 65.25 A 29 29 0 1 1  10,65.25 A 29 29 0 1 1  68 65.25 z"
       transform="matrix(0.634341,-0.278217,0.278217,0.634341,-11.47581,45.79458)" />
    <path
       style="fill:none;fill-opacity:1;fill-rule:nonzero;stroke:url(#linearGradient4478);stroke-width:0.90818328;stroke-linecap:round;stroke-linejoin:round;stroke-miterlimit:4;stroke-dasharray:none;stroke-dashoffset:4;stroke-opacity:1"
       d="M 17.734603,44.703488 C 3.9504459,50.749129 -2.3337621,66.852291 3.7118795,80.636441 C 9.7575216,94.420592 25.860684,100.7048 39.64483,94.659159 C 45.860683,91.932927 50.979904,87.353951 53.2659,81.496124 C 54.08151,79.406128 54.412297,77.368354 54.714207,75.251968 L 74.060435,66.766838 L 75.742376,60.064713 L 63.920677,54.545249 L 67.874446,45.187735 L 65.633433,43.050162 L 63.298268,42.138871 C 62.579756,41.858477 61.756669,42.219476 61.476277,42.937984 L 59.203281,48.832852 L 56.221842,50.140492 C 55.515511,50.450286 54.706162,50.106984 54.396368,49.400651 L 53.49555,47.34677 C 52.993468,46.202016 52.014512,46.139864 51.189444,46.501733 L 45.557836,48.971719 C 44.440745,47.866813 43.225181,46.841554 41.969659,45.924021 C 41.926685,45.892615 41.902937,45.88488 41.859817,45.853699 C 34.682491,41.892831 25.816123,41.158984 17.734603,44.703488 z M 14.388735,55.176866 C 18.298993,53.46186 22.857679,55.21341 24.572685,59.12366 C 26.287691,63.033912 24.517537,67.640255 20.607292,69.355264 C 16.697046,71.07027 12.142419,69.237936 10.427413,65.327685 C 8.7124082,61.417438 10.478489,56.891874 14.388735,55.176866 z "
       id="path3142" />
    <path
       style="fill:url(#linearGradient4475);fill-opacity:1;fill-rule:nonzero;stroke:none;stroke-width:0.2;stroke-linecap:round;stroke-linejoin:round;stroke-miterlimit:4;stroke-dasharray:none;stroke-dashoffset:4;stroke-opacity:1"
       d="M 47.21419,48.245253 C 47.233726,48.335831 47.258573,48.436506 47.297298,48.5248 L 50.50828,55.845888 C 50.818082,56.552234 51.627408,56.895531 52.333755,56.585731 L 65.485214,50.817586 L 67.874446,45.187735 L 65.695619,43.101887 L 63.298268,42.138871 C 62.579757,41.858477 61.756669,42.219476 61.476277,42.937984 L 59.203281,48.832852 L 56.221842,50.140492 C 55.51551,50.450287 54.706162,50.106985 54.396368,49.400651 L 53.49555,47.34677 C 52.993463,46.202019 52.047638,46.125335 51.222569,46.487204 L 47.21419,48.245253 z "
       id="path2944" />
    <path
       style="fill:url(#linearGradient4472);fill-opacity:1;fill-rule:nonzero;stroke:none;stroke-width:0.2;stroke-linecap:round;stroke-linejoin:round;stroke-miterlimit:4;stroke-dasharray:none;stroke-dashoffset:4;stroke-opacity:1"
       d="M 56.974447,57.710319 C 56.268094,58.020119 52.665757,59.594194 53.350802,61.156106 L 53.583271,61.68614 C 54.224851,63.148941 57.843659,61.792541 58.550008,61.482741 L 68.985044,56.906002 L 64.063647,54.601043 L 56.974447,57.710319 z "
       id="path2900" />
    <path
       style="fill:url(#linearGradient4469);fill-opacity:1;fill-rule:nonzero;stroke:none;stroke-width:0.2;stroke-linecap:round;stroke-linejoin:round;stroke-miterlimit:4;stroke-dasharray:none;stroke-dashoffset:4;stroke-opacity:1"
       d="M 54.394017,60.382563 C 53.707373,60.645644 53.274347,60.981787 53.481566,61.454251 L 53.583271,61.68614 C 54.216708,63.130375 57.843659,61.792541 58.550008,61.482741 L 68.985044,56.906002 L 66.05708,55.543717 L 57.77356,59.53231 C 57.332091,59.725938 55.53842,59.944094 54.394017,60.382563 z "
       id="path2915" />
    <path
       style="fill:url(#linearGradient4466);fill-opacity:1;fill-rule:nonzero;stroke:none;stroke-width:0.2;stroke-linecap:round;stroke-linejoin:round;stroke-miterlimit:4;stroke-dasharray:none;stroke-dashoffset:4;stroke-opacity:1"
       d="M 47.21419,48.245253 C 47.233726,48.335831 47.258573,48.436506 47.297298,48.5248 L 50.50828,55.845888 C 50.818082,56.552234 51.627408,56.895531 52.333755,56.585731 L 65.485214,50.817586 L 67.874446,45.187735 L 65.695619,43.101887 L 63.298268,42.138871 C 62.579757,41.858477 61.756669,42.219476 61.476277,42.937984 L 59.203281,48.832852 L 56.221842,50.140492 C 55.51551,50.450287 54.706162,50.106985 54.396368,49.400651 L 53.49555,47.34677 C 52.993463,46.202019 52.047638,46.125335 51.222569,46.487204 L 47.21419,48.245253 z "
       id="path2927" />
    <path
       style="fill:url(#linearGradient4463);fill-opacity:1;fill-rule:nonzero;stroke:none;stroke-width:0.2;stroke-linecap:round;stroke-linejoin:round;stroke-miterlimit:4;stroke-dasharray:none;stroke-dashoffset:4;stroke-opacity:1"
       d="M 18.830052,50.231475 C 18.589619,50.351145 18.37149,50.51309 18.137119,50.640049 L 18.41942,51.283715 L 19.340257,50.042588 L 19.327432,50.013329 C 19.164269,50.089882 18.990561,50.15159 18.830052,50.231475 z M 20.409953,49.538541 L 19.99521,50.104186 L 20.739479,51.801118 L 21.843044,50.340303 L 21.342591,49.199263 C 21.031151,49.31141 20.719247,49.411945 20.409953,49.538541 z M 21.894897,49.026796 L 22.228532,49.78749 L 23.058016,48.656203 C 22.661396,48.764683 22.289218,48.895736 21.894897,49.026796 z M 17.636136,50.929546 C 17.39296,51.069262 17.151212,51.198786 16.913938,51.350955 C 17.22085,51.332692 17.523405,51.361225 17.828616,51.368411 L 17.636136,50.929546 z M 23.94138,48.443192 L 23.804334,48.607957 L 24.420271,50.012316 L 25.511011,48.522244 L 25.35703,48.171154 C 24.884685,48.24963 24.412649,48.333778 23.94138,48.443192 z M 19.609733,50.656995 L 19.012263,51.442325 C 19.355975,51.487558 19.696337,51.54583 20.033191,51.622492 L 19.609733,50.656995 z M 23.418845,49.160768 L 22.485183,50.372636 L 23.113956,51.806253 L 24.021957,50.53587 L 23.418845,49.160768 z M 26.626394,47.963274 L 26.165971,48.583838 L 26.923068,50.31003 L 27.814652,49.081732 L 27.301366,47.911434 C 27.07197,47.928989 26.85608,47.93859 26.626394,47.963274 z M 27.904994,47.856 L 28.200134,48.528922 L 28.706237,47.853436 C 28.443722,47.85728 28.1683,47.842889 27.904994,47.856 z M 25.780487,49.136651 L 24.689746,50.626724 L 25.434015,52.323657 L 26.524755,50.833582 L 25.780487,49.136651 z M 22.099695,50.925451 L 21.315904,52.001813 C 21.742719,52.15388 22.156571,52.333997 22.562168,52.536661 L 22.715631,52.329811 L 22.099695,50.925451 z M 29.436134,47.847278 L 28.469609,49.143329 L 29.085552,50.547687 L 30.176292,49.057614 L 29.650175,47.858059 C 29.57149,47.855854 29.514921,47.848652 29.436134,47.847278 z M 30.292299,47.890397 L 30.574605,48.53406 L 31.005768,47.926328 C 30.77045,47.905532 30.528877,47.90375 30.292299,47.890397 z M 24.291433,51.150277 L 23.370595,52.391403 L 23.704232,53.152098 C 23.951803,53.314261 24.187024,53.492541 24.421803,53.67463 L 25.048538,52.876464 L 24.291433,51.150277 z M 31.689983,47.975093 L 30.831248,49.11921 L 31.575512,50.816144 L 32.509186,49.604271 L 31.803418,47.995111 C 31.760125,47.989706 31.733327,47.980244 31.689983,47.975093 z M 28.071295,49.666881 L 27.17971,50.895179 L 27.795653,52.299537 L 28.687238,51.071241 L 28.071295,49.666881 z M 32.484039,48.115222 L 32.894668,49.051461 L 33.46288,48.278963 C 33.144776,48.214824 32.805722,48.165479 32.484039,48.115222 z M 30.445767,49.672022 L 29.342194,51.132836 L 30.09929,52.859028 L 31.190031,51.368954 L 30.445767,49.672022 z M 26.79423,51.447989 L 25.690654,52.908806 L 26.319428,54.342422 L 27.397339,52.82309 L 26.79423,51.447989 z M 34.055727,48.43757 L 33.15131,49.63661 L 33.780085,51.070226 L 34.857995,49.550895 L 34.396037,48.497626 C 34.281497,48.469251 34.17083,48.464131 34.055727,48.43757 z M 35.115154,48.705511 L 35.256308,49.027342 L 35.426207,48.778398 C 35.31757,48.745681 35.224379,48.736569 35.115154,48.705511 z M 28.956713,51.685648 L 28.065128,52.913944 L 28.809391,54.610878 L 29.700977,53.382582 L 28.956713,51.685648 z M 25.305176,53.461614 L 24.861181,54.040091 C 25.197045,54.328855 25.498644,54.658124 25.800496,54.98865 L 25.908289,54.836717 L 25.305176,53.461614 z M 32.765829,50.189421 L 31.844986,51.430549 L 32.460929,52.834908 L 33.368939,51.564523 L 32.765829,50.189421 z M 36.002629,48.979096 L 35.525782,49.641749 L 36.270046,51.338682 L 37.178056,50.068295 L 36.818757,49.249087 C 36.556997,49.151148 36.268446,49.067034 36.002629,48.979096 z M 27.666815,53.437498 L 26.576078,54.927569 L 27.320335,56.624505 L 28.423911,55.163688 L 27.666815,53.437498 z M 35.12747,50.165303 L 34.036727,51.655376 L 34.780992,53.352311 L 35.884565,51.891495 L 35.12747,50.165303 z M 31.446675,51.954105 L 30.355932,53.444176 L 30.971875,54.848535 L 32.062615,53.358463 L 31.446675,51.954105 z M 38.107108,49.800363 L 37.845844,50.15915 L 38.461786,51.563509 L 39.336948,50.377302 C 38.934299,50.163953 38.523207,49.987859 38.107108,49.800363 z M 33.651247,52.208187 L 32.717572,53.420057 L 33.474668,55.146248 L 34.39551,53.905121 L 33.651247,52.208187 z M 37.447531,50.682703 L 36.526689,51.923832 L 37.155463,53.357447 L 38.063474,52.087061 L 37.447531,50.682703 z M 29.970452,53.996988 L 29.066034,55.196028 L 29.694808,56.629642 L 30.573561,55.372089 L 29.970452,53.996988 z M 39.809171,50.658585 L 38.731261,52.177915 L 39.475526,53.874847 L 40.553435,52.355517 L 39.809171,50.658585 z M 32.332091,53.972869 L 31.241349,55.462942 L 31.985614,57.159875 L 33.076355,55.669804 L 32.332091,53.972869 z M 28.680553,55.748837 L 27.589811,57.238912 L 28.205759,58.643268 L 29.296496,57.153196 L 28.680553,55.748837 z M 36.141208,52.476643 L 35.050466,53.966716 L 35.666408,55.371074 L 36.75715,53.881001 L 36.141208,52.476643 z M 40.630945,51.100528 L 40.96458,51.86122 L 41.213012,51.473177 C 41.021482,51.34493 40.826581,51.222389 40.630945,51.100528 z M 30.843036,55.986495 L 29.951451,57.214792 L 30.695715,58.911725 L 31.600132,57.712686 L 30.843036,55.986495 z M 38.332949,52.701469 L 37.412106,53.942598 L 38.15637,55.63953 L 39.077213,54.398401 L 38.332949,52.701469 z M 6.7312876,66.631522 C 6.6936598,66.876928 6.636451,67.136782 6.6075846,67.38349 L 6.8852802,66.98261 L 6.7312876,66.631522 z M 34.652152,54.49027 L 33.731312,55.731399 L 34.347254,57.135757 L 35.268095,55.894627 L 34.652152,54.49027 z M 41.681644,51.825807 L 41.221224,52.446372 L 41.837167,53.850729 L 42.758008,52.609601 C 42.414905,52.331071 42.041327,52.08151 41.681644,51.825807 z M 7.1547563,67.597017 L 6.5116034,68.437268 C 6.4771176,68.972584 6.479845,69.514398 6.487473,70.052587 L 6.8082722,70.784024 L 7.8990131,69.293953 L 7.1547563,67.597017 z M 29.56597,57.767602 L 28.462398,59.228418 L 29.219491,60.95461 L 30.310235,59.464538 L 29.56597,57.767602 z M 37.026626,54.495408 L 35.923052,55.956224 L 36.680148,57.682415 L 37.77089,56.192342 L 37.026626,54.495408 z M 40.822911,52.969924 L 39.732169,54.459997 L 40.360943,55.893614 L 41.438853,54.374282 L 40.822911,52.969924 z M 33.345829,56.284209 L 32.242257,57.745025 L 32.871032,59.17864 L 33.94894,57.65931 L 33.345829,56.284209 z M 8.1176721,68.360795 L 8.2844901,68.741143 L 8.3301721,68.686221 C 8.259086,68.579963 8.1854304,68.470063 8.1176721,68.360795 z M 43.01465,53.194749 L 42.106641,54.465138 L 42.850904,56.162068 L 43.758915,54.891684 L 43.01465,53.194749 z M 35.53757,56.509034 L 34.616728,57.750164 L 35.360991,59.447095 L 36.281835,58.205968 L 35.53757,56.509034 z M 39.333855,54.98355 L 38.425845,56.253937 L 39.041788,57.658295 L 39.949798,56.387908 L 39.333855,54.98355 z M 31.856775,58.297836 L 30.96519,59.526133 L 31.581133,60.930491 L 32.459886,59.672936 L 31.856775,58.297836 z M 43.797928,53.548921 L 44.17006,54.397387 L 44.356383,54.106354 C 44.168212,53.916552 43.992963,53.730773 43.797928,53.548921 z M 8.6910236,69.190782 L 8.5539659,69.355548 L 9.169914,70.759906 L 9.5554025,70.207093 C 9.2470356,69.887315 8.9621944,69.550549 8.6910236,69.190782 z M 34.218414,58.273715 L 33.127674,59.763789 L 33.871937,61.460723 L 34.975511,59.999908 L 34.218414,58.273715 z M 41.708327,54.988688 L 40.630418,56.50802 L 41.361849,58.175696 L 42.452592,56.685624 L 41.708327,54.988688 z M 8.1556635,69.879099 L 7.0649227,71.369171 L 7.6808601,72.773533 L 8.7844369,71.312716 L 8.1556635,69.879099 z M 30.566878,60.049686 L 29.476135,61.539758 L 30.092078,62.944118 L 31.182819,61.454044 L 30.566878,60.049686 z M 38.027533,56.77749 L 36.93679,58.267563 L 37.552733,59.671923 L 38.656307,58.211107 L 38.027533,56.77749 z M 28.615862,61.010045 C 28.645661,61.233199 28.680915,61.449123 28.696968,61.672184 L 28.821178,61.478164 L 28.615862,61.010045 z M 44.766501,54.484648 L 44.426702,54.982536 L 45.042645,56.386896 L 45.643708,55.530218 C 45.354189,55.176582 45.077415,54.815986 44.766501,54.484648 z M 32.742192,60.3166 L 31.850608,61.544896 L 32.594871,63.24183 L 33.486456,62.013534 L 32.742192,60.3166 z M 40.232106,57.031573 L 39.311262,58.272703 L 40.055526,59.969635 L 40.963537,58.69925 L 40.232106,57.031573 z M 44.028388,55.506089 L 43.107548,56.747219 L 43.736321,58.180834 L 44.644331,56.910448 L 44.028388,55.506089 z M 6.6794349,71.921986 L 6.5752448,72.002567 C 6.6434389,72.619023 6.7709408,73.236374 6.897069,73.849895 L 7.2953717,73.326345 L 6.6794349,71.921986 z M 29.090654,62.092569 L 28.738022,62.561201 C 28.733027,63.139669 28.673958,63.704309 28.580437,64.269936 L 28.785753,64.738055 L 29.693766,63.46767 L 29.090654,62.092569 z M 36.551309,58.820373 L 35.617635,60.032247 L 36.246408,61.46586 L 37.167251,60.224732 L 36.551309,58.820373 z M 9.9783422,70.614649 L 9.43939,71.374313 L 10.183647,73.071247 L 11.075241,71.842948 L 10.857089,71.345572 C 10.557991,71.118662 10.254754,70.872548 9.9783422,70.614649 z M 9.0410762,71.897865 L 7.9503359,73.387939 L 8.6946033,75.08487 L 9.785344,73.594797 L 9.0410762,71.897865 z M 31.452294,62.068449 L 30.361553,63.558524 L 31.105817,65.255457 L 32.196558,63.765384 L 31.452294,62.068449 z M 38.91295,58.796255 L 37.835041,60.315587 L 38.566472,61.983262 L 39.657214,60.493189 L 38.91295,58.796255 z M 42.709234,57.270773 L 41.631323,58.790102 L 42.247266,60.194462 L 43.338008,58.704387 L 42.709234,57.270773 z M 35.232152,60.585056 L 34.141412,62.075129 L 34.757355,63.479489 L 35.848095,61.989416 L 35.232152,60.585056 z M 46.033805,56.021951 L 45.324953,57.030561 L 46.056385,58.698234 L 47.022907,57.402185 C 46.718798,56.929809 46.372475,56.462681 46.033805,56.021951 z M 11.755857,71.963062 L 12.346131,73.308905 L 12.897921,72.578497 C 12.507638,72.397789 12.123703,72.18804 11.755857,71.963062 z M 7.5520111,73.911496 L 7.058741,74.616238 C 7.2170548,75.261234 7.3952968,75.896477 7.6202804,76.532856 L 8.3091154,75.637684 L 7.5520111,73.911496 z M 29.963241,64.082077 L 29.042404,65.323204 L 29.786661,67.020139 L 30.720336,65.808267 L 29.963241,64.082077 z M 37.423893,60.809882 L 36.515885,62.080268 L 37.247316,63.747945 L 38.18099,62.536072 L 37.423893,60.809882 z M 44.913806,57.524855 L 44.005798,58.795241 L 44.737229,60.462918 L 45.670903,59.251045 L 44.913806,57.524855 z M 11.331881,72.428099 L 10.440286,73.656399 L 11.056235,75.060756 L 11.960654,73.861715 L 11.331881,72.428099 z M 33.743099,62.598684 L 32.851514,63.826981 L 33.467456,65.231339 L 34.371873,64.032299 L 33.743099,62.598684 z M 41.233011,59.313656 L 40.312169,60.554786 L 40.928112,61.959145 L 41.848953,60.718014 L 41.233011,59.313656 z M 28.361779,65.203096 C 28.352533,65.239481 28.351365,65.280246 28.341768,65.316528 L 28.38744,65.261611 L 28.361779,65.203096 z M 28.656916,65.876017 L 27.690396,67.172067 C 27.65598,67.246402 27.615054,67.321759 27.579,67.39535 L 28.310432,69.063025 L 29.401172,67.572953 L 28.656916,65.876017 z M 36.117571,62.603821 L 35.026829,64.093894 L 35.771094,65.790827 L 36.861835,64.300755 L 36.117571,62.603821 z M 43.607483,59.318795 L 42.516741,60.808867 L 43.261006,62.505801 L 44.351747,61.015727 L 43.607483,59.318795 z M 10.054809,74.209206 L 8.9512429,75.67002 L 9.5800163,77.103637 L 10.670757,75.613564 L 10.054809,74.209206 z M 32.466034,64.37979 L 31.36246,65.840606 L 31.991234,67.274223 L 33.081976,65.78415 L 32.466034,64.37979 z M 39.926688,61.107594 L 38.823114,62.568411 L 39.451888,64.002027 L 40.54263,62.511954 L 39.926688,61.107594 z M 47.312402,57.903153 L 46.313027,59.283384 L 46.941802,60.717 L 48.032542,59.226928 L 47.827228,58.758808 C 47.668372,58.463482 47.484216,58.187843 47.312402,57.903153 z M 13.415827,72.804859 L 12.602771,73.894054 L 13.359875,75.620244 L 14.450616,74.130171 L 13.962987,73.018389 C 13.777466,72.954522 13.597731,72.878346 13.415827,72.804859 z M 14.694948,73.255526 L 14.836104,73.577357 L 15.03525,73.315585 C 14.923453,73.2892 14.805799,73.285314 14.694948,73.255526 z M 12.217294,74.446865 L 11.32571,75.675161 L 12.069979,77.372095 L 12.961562,76.143797 L 12.217294,74.446865 z M 34.628516,64.617449 L 33.749763,65.875003 L 34.481197,67.542679 L 35.372781,66.314381 L 34.628516,64.617449 z M 42.118429,61.332421 L 41.210418,62.602808 L 41.941851,64.270485 L 42.862694,63.029354 L 42.118429,61.332421 z M 45.914714,59.806937 L 45.006703,61.077324 L 45.635478,62.510939 L 46.543488,61.240553 L 45.914714,59.806937 z M 8.5657549,76.222834 L 7.8605028,77.160094 C 7.9599487,77.41401 8.0708403,77.639664 8.181302,77.891532 C 8.2787168,78.113626 8.3720464,78.347578 8.4764507,78.564451 L 9.1816916,77.627194 L 8.5657549,76.222834 z M 27.232022,68.03593 C 26.970294,68.492648 26.662489,68.917924 26.336845,69.335573 L 26.991292,70.827704 L 27.912129,69.586575 L 27.232022,68.03593 z M 30.976979,66.393416 L 30.056136,67.634547 L 30.672084,69.038903 L 31.592922,67.797775 L 30.976979,66.393416 z M 38.437633,63.121223 L 37.516791,64.362352 L 38.132734,65.76671 L 39.053575,64.525581 L 38.437633,63.121223 z M 15.657358,73.461359 L 15.10558,74.191765 L 15.721517,75.596124 L 16.642354,74.354996 L 16.283057,73.535787 C 16.073996,73.510993 15.864168,73.497833 15.657358,73.461359 z M 10.927396,76.198714 L 9.8366559,77.688787 L 10.580924,79.385719 L 11.684501,77.924902 L 10.927396,76.198714 z M 33.338619,66.369298 L 32.26071,67.888629 L 32.992141,69.556305 L 34.095715,68.095489 L 33.338619,66.369298 z M 48.289185,59.812076 L 47.211277,61.331408 L 47.942708,62.999083 L 49.046281,61.538267 L 48.289185,59.812076 z M 16.93801,73.597385 L 17.040668,73.831445 L 17.194142,73.624587 C 17.107654,73.621539 17.024271,73.602444 16.93801,73.597385 z M 40.812105,63.12636 L 39.721364,64.616435 L 40.452795,66.28411 L 41.556369,64.823294 L 40.812105,63.12636 z M 14.707255,74.715321 L 13.616515,76.205394 L 14.232464,77.609752 L 15.336029,76.148938 L 14.707255,74.715321 z M 29.657822,68.158099 L 28.567083,69.648173 L 29.183019,71.052533 L 30.286597,69.591716 L 29.657822,68.158099 z M 37.118477,64.885903 L 36.027737,66.375978 L 36.64368,67.780337 L 37.747252,66.319521 L 37.118477,64.885903 z M 44.608389,61.600876 L 43.517649,63.090951 L 44.146423,64.524566 L 45.237165,63.034493 L 44.608389,61.600876 z M 25.938532,69.859127 C 25.651719,70.184878 25.345917,70.49285 25.019237,70.785608 L 24.75797,71.144397 L 25.502227,72.841332 L 26.605803,71.380515 L 25.938532,69.859127 z M 17.865513,73.644098 L 17.297308,74.416595 L 18.041576,76.113527 L 19.145153,74.652709 L 18.67036,73.570183 C 18.408842,73.595468 18.126385,73.637467 17.865513,73.644098 z M 19.261153,73.485493 L 19.53063,74.0999 L 20.098846,73.3274 C 19.817447,73.392846 19.543708,73.442604 19.261153,73.485493 z M 23.489118,71.910221 C 23.370253,71.984427 23.269665,72.094688 23.147262,72.164812 L 23.211422,72.3111 L 23.489118,71.910221 z M 21.157754,73.037396 L 21.722379,74.324723 L 22.825945,72.86391 L 22.620629,72.39579 C 22.43236,72.491352 22.244072,72.595832 22.048313,72.681689 C 21.746445,72.814087 21.464271,72.933619 21.157754,73.037396 z M 9.4511678,78.241601 L 8.762344,79.13677 C 9.0364419,79.664354 9.3292939,80.174626 9.643647,80.668941 L 10.195435,79.938532 L 9.4511678,78.241601 z M 16.91183,74.969403 L 15.990993,76.21053 L 16.722424,77.878205 L 16.780932,77.852545 L 17.656098,76.666334 L 16.91183,74.969403 z M 24.372492,71.697206 L 23.480898,72.925507 L 24.21233,74.593182 L 24.270848,74.567517 L 25.116749,73.39414 L 24.372492,71.697206 z M 31.862397,68.412181 L 30.94156,69.653309 L 31.672992,71.320985 L 31.731499,71.295323 L 32.606659,70.109114 L 31.862397,68.412181 z M 46.812963,61.854961 L 45.892121,63.096089 L 46.636385,64.793022 L 47.557226,63.551892 L 46.812963,61.854961 z M 39.335882,65.169246 L 38.402208,66.381116 L 39.133639,68.048792 L 39.192155,68.023128 L 40.067313,66.836921 L 39.335882,65.169246 z M 43.119335,63.614504 L 42.198493,64.855633 L 42.8401,66.318505 L 43.74811,65.048119 L 43.119335,63.614504 z M 13.231038,76.758203 L 12.326617,77.957244 L 12.955391,79.390861 L 13.846985,78.16256 L 13.231038,76.758203 z M 20.720943,73.47318 L 19.787269,74.68505 L 20.416053,76.118663 L 21.336891,74.877536 L 20.720943,73.47318 z M 28.181605,70.200982 L 27.247932,71.412853 L 27.876705,72.846469 L 28.797542,71.605341 L 28.181605,70.200982 z M 35.642255,66.928789 L 34.737838,68.127828 L 35.366613,69.561444 L 36.258197,68.333146 L 35.642255,66.928789 z M 15.592668,76.734088 L 14.501928,78.22416 L 14.732916,78.750793 C 14.817212,78.688541 14.925297,78.666415 15.025486,78.622471 L 16.19578,78.109189 L 15.592668,76.734088 z M 23.082584,73.449059 L 21.991844,74.939132 L 22.222821,75.465766 L 23.685696,74.82416 L 23.082584,73.449059 z M 30.543235,70.176865 L 29.465332,71.696195 L 29.683473,72.193574 L 31.146347,71.551967 L 30.543235,70.176865 z M 45.493807,63.619642 L 44.415898,65.138973 L 44.634043,65.636351 L 45.336222,65.328379 C 45.63474,65.197452 45.919614,65.186735 46.212407,65.258061 L 45.493807,63.619642 z M 38.016727,66.933927 L 36.925986,68.424 L 37.144132,68.921377 L 38.607005,68.27977 L 38.016727,66.933927 z M 11.94114,78.510052 L 10.8504,80.000127 L 11.466337,81.404486 L 12.557077,79.914413 L 11.94114,78.510052 z M 19.401791,75.237859 L 18.311052,76.727935 L 18.477869,77.10828 L 19.940744,76.466671 L 19.401791,75.237859 z M 26.862443,71.965665 L 25.771702,73.45574 L 25.93852,73.836085 L 27.401395,73.194479 L 26.862443,71.965665 z M 34.352357,68.680638 L 33.261616,70.170713 L 33.428433,70.551059 L 34.891307,69.909451 L 34.352357,68.680638 z M 41.813012,65.408444 L 40.722272,66.898518 L 40.889087,67.278863 L 42.351962,66.637257 L 41.813012,65.408444 z M 49.257241,62.178338 L 48.212183,63.613491 L 48.840958,65.047106 L 49.71971,63.789551 C 49.59307,63.241376 49.43174,62.720862 49.257241,62.178338 z M 14.103625,78.74771 L 13.21203,79.97601 L 13.956298,81.672943 L 14.491658,80.984625 L 14.273506,80.487249 C 14.093657,80.077187 14.145125,79.642057 14.334602,79.274344 L 14.103625,78.74771 z M 21.593531,75.462686 L 21.28658,75.876396 L 21.696189,75.696746 L 21.593531,75.462686 z M 29.054182,72.190492 L 28.776486,72.591371 L 29.15684,72.424551 L 29.054182,72.190492 z M 44.004753,65.633268 L 43.727063,66.034146 L 44.10741,65.867328 L 44.004753,65.633268 z M 36.527673,68.947554 L 36.266408,69.306342 L 36.617497,69.152356 L 36.527673,68.947554 z M 10.452075,80.523683 L 9.9752338,81.186337 C 10.235861,81.57013 10.493544,81.9377 10.777502,82.299658 L 11.080848,81.957299 L 10.452075,80.523683 z M 17.912738,77.251485 L 17.804945,77.403419 L 17.951236,77.339257 L 17.912738,77.251485 z M 25.3734,73.979289 L 25.265596,74.131225 L 25.411887,74.067063 L 25.3734,73.979289 z M 32.863302,70.694265 L 32.755512,70.846197 L 32.9018,70.782037 L 32.863302,70.694265 z M 40.323956,67.42207 L 40.216167,67.574003 L 40.362454,67.509842 L 40.323956,67.42207 z M 47.813869,64.137043 L 46.893027,65.378171 L 47.188167,66.051094 L 47.521801,66.811787 L 48.442644,65.570659 L 47.813869,64.137043 z M 12.826553,80.52882 L 11.722987,81.989632 L 12.480079,83.715819 L 13.57082,82.225752 L 12.826553,80.52882 z M 49.881393,64.555892 L 49.0976,65.632256 L 49.841862,67.329183 L 50.194494,66.860559 C 50.137462,66.093923 50.027445,65.31931 49.881393,64.555892 z M 11.337499,82.542447 L 11.15477,82.762131 C 11.313719,82.952864 11.505825,83.11899 11.671134,83.30314 L 11.337499,82.542447 z M 48.699287,66.155808 L 47.791277,67.426194 L 48.53554,69.123124 L 49.443549,67.852739 L 48.699287,66.155808 z M 14.748298,81.569775 L 14.225774,82.287349 L 14.841711,83.69171 L 15.364247,82.974134 L 14.748298,81.569775 z M 13.82746,82.810903 L 12.736719,84.300973 L 12.826553,84.505777 C 13.104168,84.768751 13.355662,85.015949 13.646769,85.262367 L 14.456234,84.244521 L 13.82746,82.810903 z M 50.219129,67.791663 L 50.111339,67.943593 L 50.23966,68.23617 C 50.2387,68.083284 50.22353,67.944673 50.219129,67.791663 z M 49.713025,68.467147 L 48.792184,69.708277 L 49.420959,71.141895 L 50.175494,70.078362 C 50.187735,69.932149 50.217176,69.783969 50.22631,69.637446 L 49.713025,68.467147 z M 15.633721,83.588535 L 15.111186,84.306111 L 15.855454,86.003047 L 16.701355,84.82967 C 16.336338,84.705864 16.019602,84.46836 15.851864,84.085919 L 15.633721,83.588535 z M 14.712883,84.829662 L 14.128237,85.644249 C 14.548962,85.980429 14.966594,86.279448 15.411459,86.581523 L 15.457141,86.526603 L 14.712883,84.829662 z M 48.689007,70.904748 C 48.543159,71.168459 48.34232,71.370776 48.043803,71.501704 L 47.341624,71.809674 L 47.931904,73.155521 L 49.009811,71.636186 L 48.689007,70.904748 z M 17.440489,84.924118 L 18.017941,86.240708 L 19.10868,84.750628 L 18.903364,84.282511 L 17.733071,84.795794 C 17.63287,84.839741 17.543395,84.904264 17.440489,84.924118 z M 19.430008,84.051528 L 19.506995,84.22708 L 19.722567,83.923213 L 19.430008,84.051528 z M 21.185442,83.281606 L 21.827051,84.744479 L 22.917804,83.254405 L 22.648327,82.639994 L 21.185442,83.281606 z M 23.17496,82.409017 L 23.316106,82.730852 L 23.730848,82.165208 L 23.17496,82.409017 z M 24.930405,81.639089 L 25.507856,82.955679 L 26.598595,81.4656 L 26.39328,80.997483 L 24.930405,81.639089 z M 26.919913,80.766505 L 26.996899,80.942056 L 27.212483,80.638184 L 26.919913,80.766505 z M 28.646104,80.009408 L 29.287715,81.472283 L 30.378445,79.982216 L 30.108979,79.367802 L 28.646104,80.009408 z M 30.635611,79.136822 L 30.776769,79.458655 L 31.191498,78.893013 L 30.635611,79.136822 z M 32.391056,78.366897 L 32.981333,79.712745 L 34.072071,78.222667 L 33.853926,77.725291 L 32.391056,78.366897 z M 34.380568,77.49431 L 34.470394,77.699116 L 34.731651,77.340326 L 34.380568,77.49431 z M 36.136014,76.724382 L 36.777621,78.187257 L 37.868364,76.697186 L 37.598887,76.082776 L 36.136014,76.724382 z M 38.125522,75.851797 L 38.266674,76.17363 L 38.681412,75.607986 L 38.125522,75.851797 z M 39.851712,75.094701 L 40.441992,76.440549 L 41.53273,74.95047 L 41.314584,74.453094 L 39.851712,75.094701 z M 41.84122,74.222115 L 41.931046,74.426922 L 42.192309,74.068131 L 41.84122,74.222115 z M 43.596668,73.452188 L 44.251107,74.944319 L 45.34185,73.454248 L 45.059541,72.810581 L 43.596668,73.452188 z M 45.586176,72.579602 L 45.72733,72.901436 L 46.142068,72.335792 L 45.586176,72.579602 z M 20.697306,83.600353 L 19.776469,84.841482 L 20.507901,86.509162 L 21.441575,85.297291 L 20.697306,83.600353 z M 28.157968,80.328155 L 27.266374,81.556458 L 27.997806,83.224138 L 28.902237,82.025093 L 28.157968,80.328155 z M 35.647874,77.043132 L 34.727034,78.284261 L 35.458468,79.951941 L 36.39214,78.740069 L 35.647874,77.043132 z M 43.108528,73.770937 L 42.200519,75.041324 L 42.931953,76.709004 L 43.852794,75.467874 L 43.108528,73.770937 z M 17.00369,85.359899 L 16.112096,86.588202 L 16.38157,87.202602 C 16.600817,87.334912 16.781759,87.467378 17.005739,87.591677 L 17.632463,86.793518 L 17.00369,85.359899 z M 24.493594,82.074876 L 23.572757,83.316004 L 24.188693,84.720356 L 25.122369,83.508494 L 24.493594,82.074876 z M 31.954246,78.802681 L 31.033409,80.04381 L 31.66218,81.477418 L 32.595856,80.265556 L 31.954246,78.802681 z M 39.414904,75.530486 L 38.52332,76.758784 L 39.152091,78.192393 L 40.056511,76.993361 L 39.414904,75.530486 z M 46.904817,72.245459 L 45.996806,73.515847 L 46.612745,74.920198 L 47.533592,73.679077 L 46.904817,72.245459 z M 50.017397,71.22915 L 49.677601,71.72704 L 49.882917,72.195165 C 49.942476,71.878694 49.972471,71.548086 50.017397,71.22915 z M 49.279287,72.250595 L 48.188544,73.740666 L 48.93281,75.437603 L 49.040601,75.285672 C 49.288393,74.579169 49.504993,73.884329 49.677082,73.157574 L 49.279287,72.250595 z M 19.390981,85.394297 L 18.287415,86.855107 L 19.031672,88.552047 L 20.122414,87.061977 L 19.390981,85.394297 z M 26.880897,82.109269 L 25.777331,83.57008 L 26.521588,85.267019 L 27.61233,83.776948 L 26.880897,82.109269 z M 34.341548,78.837075 L 33.237971,80.29789 L 33.98224,81.994826 L 35.072981,80.504755 L 34.341548,78.837075 z M 41.802206,75.56488 L 40.711465,77.05495 L 41.442898,78.722629 L 42.546472,77.261816 L 41.802206,75.56488 z M 23.187278,83.868806 L 22.083692,85.329633 L 22.712463,86.763242 L 23.803216,85.273168 L 23.187278,83.868806 z M 30.647919,80.596617 L 29.544355,82.057436 L 30.185965,83.52031 L 31.276692,82.030233 L 30.647919,80.596617 z M 38.137836,77.311587 L 37.034264,78.77241 L 37.675872,80.235284 L 38.76661,78.745204 L 38.137836,77.311587 z M 45.611326,74.068657 L 44.507752,75.529472 L 45.136527,76.96309 L 46.227266,75.47301 L 45.611326,74.068657 z M 47.790232,74.264222 L 46.882222,75.534607 L 47.626488,77.231545 L 48.534498,75.961158 L 47.790232,74.264222 z M 17.901938,87.407919 L 17.549296,87.876557 C 17.787335,88.000015 18.018523,88.112618 18.261235,88.227127 L 17.901938,87.407919 z M 25.391843,84.122894 L 24.471006,85.364023 L 25.202438,87.031703 L 26.123275,85.790575 L 25.391843,84.122894 z M 32.852494,80.8507 L 31.931657,82.091828 L 32.663089,83.759508 L 33.583926,82.51838 L 32.852494,80.8507 z M 40.313153,77.578506 L 39.434398,78.836059 L 40.165832,80.503739 L 41.057416,79.275442 L 40.313153,77.578506 z M 21.698213,85.882435 L 20.777376,87.123563 L 21.393324,88.527922 L 22.314162,87.286794 L 21.698213,85.882435 z M 29.158875,82.610238 L 28.267281,83.838539 L 28.896055,85.272156 L 29.787649,84.043856 L 29.158875,82.610238 z M 36.648781,79.325213 L 35.727941,80.566342 L 36.356716,81.999959 L 37.277557,80.758831 L 36.648781,79.325213 z M 44.122271,76.082285 L 43.201425,77.323405 L 43.817368,78.727766 L 44.73821,77.486636 L 44.122271,76.082285 z M 24.072692,85.887577 L 22.981941,87.377652 L 23.713373,89.045332 L 24.816958,87.584504 L 24.072692,85.887577 z M 31.533344,82.615384 L 30.442602,84.105454 L 31.174036,85.773135 L 32.277599,84.312314 L 31.533344,82.615384 z M 39.023256,79.330357 L 37.945344,80.849685 L 38.676778,82.517366 L 39.767516,81.027285 L 39.023256,79.330357 z M 46.48391,76.058162 L 45.393167,77.548234 L 46.137433,79.245171 L 47.228172,77.755091 L 46.48391,76.058162 z M 20.379063,87.647118 L 19.59168,88.794829 C 20.01648,88.961643 20.435066,89.105404 20.870778,89.245502 L 21.007836,89.080736 L 20.379063,87.647118 z M 27.868978,84.36209 L 26.778238,85.85216 L 27.407012,87.285779 L 28.510578,85.824966 L 27.868978,84.36209 z M 35.329622,81.0899 L 34.238878,82.579971 L 34.867652,84.01359 L 35.971229,82.552774 L 35.329622,81.0899 z M 42.803112,77.84696 L 41.71237,79.337031 L 42.328315,80.741392 L 43.431887,79.280577 L 42.803112,77.84696 z M 22.596463,87.930462 L 21.662802,89.142331 L 21.829619,89.522678 C 22.260627,89.639581 22.718911,89.756313 23.157992,89.847086 L 23.327894,89.598134 L 22.596463,87.930462 z M 30.057125,84.658264 L 29.152706,85.857307 L 29.896962,87.554238 L 30.788557,86.325937 L 30.057125,84.658264 z M 37.547032,81.373241 L 36.626192,82.614368 L 37.357622,84.282041 L 38.291298,83.070177 L 37.547032,81.373241 z M 45.007685,78.101046 L 44.074014,79.312918 L 44.818274,81.009847 L 45.751952,79.797984 L 45.007685,78.101046 z M 26.39275,86.404976 L 25.459076,87.616848 L 26.100686,89.079722 L 27.021524,87.838594 L 26.39275,86.404976 z M 33.853401,83.132781 L 32.919739,84.344651 L 33.561337,85.807527 L 34.482175,84.566399 L 33.853401,83.132781 z M 41.32689,79.889843 L 40.422473,81.088884 L 41.051249,82.522502 L 41.942833,81.294205 L 41.32689,79.889843 z M 48.157226,77.487163 L 47.883128,77.816689 L 47.921623,77.90446 C 47.992708,77.763525 48.089284,77.629427 48.157226,77.487163 z M 28.767229,86.410117 L 27.676489,87.900189 L 28.407919,89.567859 L 29.498659,88.077789 L 28.767229,86.410117 z M 36.227873,83.137927 L 35.137129,84.627999 L 35.881395,86.324926 L 36.972135,84.834856 L 36.227873,83.137927 z M 43.688532,79.86573 L 42.59779,81.355802 L 43.342052,83.052729 L 44.432794,81.562659 L 43.688532,79.86573 z M 25.0736,88.169659 L 23.982848,89.659733 L 24.149665,90.040081 C 24.525371,90.100018 24.891286,90.170329 25.271203,90.211012 L 25.702373,89.603277 L 25.0736,88.169659 z M 32.534251,84.897466 L 31.44351,86.387537 L 32.072283,87.821153 L 33.163024,86.331083 L 32.534251,84.897466 z M 40.036994,81.641697 L 38.94625,83.131767 L 39.562194,84.536127 L 40.652937,83.046056 L 40.036994,81.641697 z M 47.497648,78.369502 L 46.406906,79.859573 L 46.573723,80.239919 C 46.93498,79.699408 47.264175,79.111609 47.574639,78.545042 L 47.497648,78.369502 z M 27.278164,88.423748 L 26.357327,89.664875 L 26.626802,90.279276 C 27.036806,90.298029 27.456088,90.331456 27.868968,90.327532 L 28.022431,90.120675 L 27.278164,88.423748 z M 34.738826,85.151551 L 33.830815,86.421937 L 34.562245,88.089608 L 35.483082,86.84848 L 34.738826,85.151551 z M 42.199478,81.879357 L 41.307893,83.107655 L 42.052154,84.804583 L 42.943739,83.576284 L 42.199478,81.879357 z M 31.045196,86.91109 L 30.153613,88.139389 L 30.782387,89.573007 L 31.686806,88.373965 L 31.045196,86.91109 z M 38.547939,83.655322 L 37.627099,84.89645 L 38.243042,86.300811 L 39.176714,85.088939 L 38.547939,83.655322 z M 46.008592,80.383127 L 45.087752,81.624257 L 45.241737,81.975347 C 45.560225,81.587286 45.898366,81.198817 46.188242,80.792732 L 46.008592,80.383127 z M 25.971847,90.217676 L 25.926166,90.272598 C 25.945818,90.274115 25.964999,90.245476 25.984684,90.246932 L 25.971847,90.217676 z M 40.922409,83.660458 L 39.818838,85.12128 L 40.383451,86.408604 C 40.738636,86.17061 41.083717,85.929225 41.421833,85.674088 L 41.666674,85.357394 L 40.922409,83.660458 z M 33.445324,86.974742 L 32.34176,88.435563 L 32.893537,89.693631 C 33.101867,89.643733 33.309293,89.580804 33.517186,89.524759 L 34.176757,88.642424 L 33.445324,86.974742 z M 29.768136,88.692199 L 28.664558,90.153014 L 28.728718,90.299297 C 29.280245,90.273167 29.814168,90.206117 30.367645,90.138651 L 30.39691,90.125816 L 29.768136,88.692199 z M 37.241611,85.449266 L 36.138036,86.91008 L 36.766813,88.343697 L 37.857554,86.853626 L 37.241611,85.449266 z M 44.70227,82.177069 L 43.598696,83.637883 L 43.650024,83.75491 C 44.06405,83.347858 44.465364,82.932866 44.843424,82.498901 L 44.70227,82.177069 z M 39.433354,85.674083 L 38.512514,86.915213 L 38.730662,87.412595 C 39.126487,87.193385 39.517361,86.96666 39.895312,86.727353 L 39.433354,85.674083 z M 31.956283,88.988373 L 31.159655,90.035475 C 31.544738,89.974324 31.930989,89.889263 32.31558,89.80758 L 31.956283,88.988373 z M 35.752559,87.462889 L 34.831722,88.704018 L 34.998539,89.084363 C 35.418818,88.940294 35.823613,88.744915 36.240187,88.574672 L 35.752559,87.462889 z M 38.114194,87.43877 L 37.761569,87.907401 C 37.910383,87.833751 38.083165,87.778547 38.229685,87.702091 L 38.114194,87.43877 z "
       id="path2967" />
    <text
       xml:space="preserve"
       style="font-size:4.27701283px;font-style:normal;font-variant:normal;font-weight:normal;font-stretch:normal;text-align:start;line-height:125%;writing-mode:lr-tb;text-anchor:start;fill:url(#linearGradient4460);fill-opacity:1;stroke:none;stroke-width:0;stroke-linecap:butt;stroke-linejoin:miter;stroke-miterlimit:4;stroke-dasharray:none;stroke-opacity:1;font-family:Bitstream Vera Sans"
       x="-17.900614"
       y="82.945061"
       id="text3130"
       sodipodi:linespacing="125%"
       transform="matrix(0.915789,-0.401659,0.401659,0.915789,0,0)"><tspan
         sodipodi:role="line"
         id="tspan3132"
         x="-17.900614"
         y="82.945061"
         style="fill:url(#linearGradient4460);fill-opacity:1;stroke:none;stroke-width:0;stroke-miterlimit:4;stroke-dasharray:none;stroke-opacity:1">OXYGEN</tspan></text>
    <path
       style="opacity:0.65163933;fill:none;fill-opacity:1;fill-rule:nonzero;stroke:url(#radialGradient4456);stroke-width:1.36732483;stroke-linecap:round;stroke-linejoin:round;stroke-miterlimit:4;stroke-dasharray:none;stroke-dashoffset:4;stroke-opacity:1"
       d="M 17.734603,44.703488 C 3.9504563,50.749123 -2.3337603,66.852298 3.7118795,80.636441 L 67.435047,56.163836 L 63.920677,54.545249 L 67.874446,45.187735 L 66.298878,43.666792 L 63.487149,42.569523 C 62.768636,42.289126 61.94555,42.650128 61.665158,43.368636 L 59.377633,49.230378 L 56.396194,50.538018 C 55.689864,50.847814 54.880513,50.504508 54.57072,49.798176 L 53.684431,47.777422 C 53.182346,46.632667 52.203393,46.570516 51.378325,46.932386 L 45.557836,48.971719 C 44.440746,47.866811 43.225181,46.841553 41.969659,45.924021 C 41.926687,45.892613 41.902938,45.884879 41.859817,45.853699 C 34.682491,41.892836 25.816121,41.158985 17.734603,44.703488 z M 14.388735,55.176866 C 18.298993,53.461859 22.85768,55.213412 24.572685,59.12366 C 26.28769,63.03391 24.517537,67.640255 20.607292,69.355264 C 16.697046,71.07027 12.142418,69.237933 10.427413,65.327685 C 8.7124087,61.41744 10.478489,56.891874 14.388735,55.176866 z "
       id="path3154" />
    <path
       style="opacity:0.84836067;fill:none;fill-opacity:1;fill-rule:nonzero;stroke:url(#radialGradient4453);stroke-width:0.54086924;stroke-linecap:round;stroke-linejoin:round;stroke-miterlimit:4;stroke-dasharray:none;stroke-dashoffset:4;stroke-opacity:1"
       d="M 17.734603,44.703488 C 3.9504563,50.749123 -2.3337603,66.852298 3.7118795,80.636441 L 67.435047,56.163836 L 63.920677,54.545249 L 67.874446,45.187735 L 65.633433,43.050162 L 63.298268,42.138871 C 62.579756,41.858476 61.756669,42.219476 61.476277,42.937984 L 59.203281,48.832852 L 56.221842,50.140492 C 55.515512,50.450289 54.706162,50.106984 54.396368,49.400651 L 53.49555,47.34677 C 52.993465,46.202016 52.014513,46.139864 51.189444,46.501733 L 45.557836,48.971719 C 44.440746,47.866811 43.225181,46.841553 41.969659,45.924021 C 41.926687,45.892613 41.902938,45.884879 41.859817,45.853699 C 34.682491,41.892836 25.816121,41.158985 17.734603,44.703488 z M 14.388735,55.176866 C 18.298993,53.461859 22.85768,55.213412 24.572685,59.12366 C 26.28769,63.03391 24.517537,67.640255 20.607292,69.355264 C 16.697046,71.07027 12.142418,69.237933 10.427413,65.327685 C 8.7124087,61.41744 10.478489,56.891874 14.388735,55.176866 z "
       id="path3158" />
    <path
       style="fill:none;fill-opacity:1;fill-rule:nonzero;stroke:url(#radialGradient4450);stroke-width:0.72452605;stroke-linecap:round;stroke-linejoin:round;stroke-miterlimit:4;stroke-dasharray:none;stroke-dashoffset:4;stroke-opacity:1"
       d="M 17.778189,44.802871 C 3.9940432,50.848507 -2.2901739,66.951681 3.7554657,80.735822 L 67.544891,56.234157 L 63.920677,54.545249 L 67.874446,45.187735 L 65.772334,43.18674 L 63.327326,42.205125 C 62.608814,41.924729 61.785729,42.285729 61.505336,43.004238 L 59.23234,48.899107 L 56.250901,50.206747 C 55.544571,50.516541 54.735219,50.173236 54.425427,49.466905 L 53.524608,47.413024 C 53.022524,46.26827 52.0581,46.239244 51.233031,46.601115 L 45.601423,49.071101 C 44.484334,47.966193 43.268769,46.940934 42.013246,46.023403 C 41.970274,45.991995 41.931997,45.951134 41.888875,45.919952 C 34.711549,41.959091 25.859708,41.258368 17.778189,44.802871 z M 14.43232,55.276247 C 18.342578,53.561239 22.886733,55.279668 24.601749,59.189913 C 26.316755,63.100161 24.546602,67.706508 20.636345,69.42152 C 16.7261,71.136525 12.171483,69.304185 10.456467,65.39394 C 8.7414618,61.483695 10.522076,56.991256 14.43232,55.276247 z "
       id="path3144" />
    <path
       style="opacity:0.63934428;fill:url(#radialGradient4447);fill-opacity:1;fill-rule:nonzero;stroke:none;stroke-width:0.78899997;stroke-linecap:round;stroke-linejoin:round;stroke-miterlimit:4;stroke-dasharray:none;stroke-dashoffset:4;stroke-opacity:1"
       d="M 74.950814,59.700894 C 64.847171,64.954123 57.83061,70.659246 57.397503,74.075091 L 74.060435,66.766838 L 75.742376,60.064713 L 74.950814,59.700894 z "
       id="path3168" />
    <path
       style="fill:url(#linearGradient4444);fill-opacity:1;fill-rule:nonzero;stroke:none;stroke-width:0.48889723;stroke-linecap:round;stroke-linejoin:round;stroke-miterlimit:4;stroke-dasharray:none;stroke-dashoffset:4;stroke-opacity:1"
       d="M 110.18127,50.689683 C 110.13089,50.670009 110.08434,50.684301 110.03332,50.670778 C 109.67553,50.489274 109.24202,50.45923 108.84402,50.633788 L 104.0186,52.750189 L 97.885528,50.356779 L 95.769127,45.531352 C 95.459329,44.82502 94.622064,44.498279 93.915727,44.808069 L 91.151648,46.020377 L 90.53522,44.614913 L 90.608362,47.711039 L 81.209015,51.498367 L 85.652218,63.794119 L 79.736938,67.310226 L 109.32395,78.856461 C 109.72086,79.011368 110.10913,79.149173 110.50914,79.202486 C 111.63783,79.635749 112.99095,79.622225 114.24964,79.070168 L 125.28541,74.174092 C 127.67539,73.125854 128.8453,70.573262 127.89004,68.395263 L 124.28106,60.230421 C 123.95517,60.373375 123.61952,60.399387 123.26027,60.259189 L 122.11452,59.812065 L 120.55291,56.251557 C 120.24311,55.545212 119.43955,55.231626 118.73321,55.541425 L 116.13022,56.738938 L 114.40422,52.803639 C 114.31766,52.606272 114.16942,52.434704 114.0171,52.303096 C 113.96752,52.254918 113.93218,52.210808 113.87492,52.169948 C 113.85635,52.158191 113.82659,52.154482 113.80752,52.143646 C 113.72966,52.093415 113.6746,52.052946 113.58479,52.017894 L 110.18127,50.689683 z "
       id="path4046"
       inkscape:transform-center-x="-0.99301954"
       inkscape:transform-center-y="-14.010179" />
    <path
       style="fill:none;fill-opacity:1;fill-rule:nonzero;stroke:url(#linearGradient4441);stroke-width:0.90818328;stroke-linecap:round;stroke-linejoin:round;stroke-miterlimit:4;stroke-dasharray:none;stroke-dashoffset:4;stroke-opacity:1"
       d="M 110.18127,50.689683 C 110.13089,50.670009 110.08434,50.684301 110.03332,50.670778 C 109.67553,50.489274 109.24202,50.45923 108.84402,50.633788 L 104.0186,52.750189 L 97.885528,50.356779 L 95.769127,45.531352 C 95.459329,44.82502 94.622064,44.498279 93.915727,44.808069 L 91.151648,46.020377 L 90.53522,44.614913 L 90.608362,47.711039 L 81.209015,51.498367 L 85.652218,63.794119 L 79.736938,67.310226 L 109.32395,78.856461 C 109.72086,79.011368 110.10913,79.149173 110.50914,79.202486 C 111.63783,79.635749 112.99095,79.622225 114.24964,79.070168 L 125.28541,74.174092 C 127.67539,73.125854 128.8453,70.573262 127.89004,68.395263 L 124.28106,60.230421 C 123.95517,60.373375 123.61952,60.399387 123.26027,60.259189 L 122.11452,59.812065 L 120.55291,56.251557 C 120.24311,55.545212 119.43955,55.231626 118.73321,55.541425 L 116.13022,56.738938 L 114.40422,52.803639 C 114.31766,52.606272 114.16942,52.434704 114.0171,52.303096 C 113.96752,52.254918 113.93218,52.210808 113.87492,52.169948 C 113.85635,52.158191 113.82659,52.154482 113.80752,52.143646 C 113.72966,52.093415 113.6746,52.052946 113.58479,52.017894 L 110.18127,50.689683 z "
       id="path4050"
       inkscape:transform-center-x="-0.99301954"
       inkscape:transform-center-y="-14.010179" />
    <path
       style="fill:url(#linearGradient4438);fill-opacity:1;fill-rule:nonzero;stroke:none;stroke-width:0.2;stroke-linecap:round;stroke-linejoin:round;stroke-miterlimit:4;stroke-dasharray:none;stroke-dashoffset:4;stroke-opacity:1"
       d="M 95.017083,44.771907 C 94.685759,44.642609 94.302591,44.66633 93.949424,44.821219 L 91.151648,46.020377 L 90.53522,44.614913 L 90.608362,47.711039 L 84.984863,49.981957 L 127.0402,66.393917 L 124.31477,60.243573 C 123.98887,60.386524 123.6195,60.399382 123.26027,60.259189 L 122.11452,59.812065 L 120.55291,56.251557 C 120.24311,55.545212 119.43954,55.231622 118.73321,55.541425 L 116.14337,56.70524 L 114.40422,52.803639 C 114.31766,52.606275 114.16942,52.434704 114.0171,52.303096 C 113.96752,52.254893 113.93218,52.21082 113.87492,52.169948 C 113.85634,52.158186 113.8266,52.154486 113.80752,52.143646 C 113.72967,52.09342 113.64091,52.039797 113.55108,52.004741 L 110.18127,50.689683 C 110.13087,50.670017 110.08434,50.684301 110.03332,50.670778 C 109.67553,50.489274 109.24202,50.45923 108.84402,50.633788 L 104.0186,52.750189 L 97.919226,50.369929 L 95.769127,45.531352 C 95.614229,45.178181 95.348406,44.901205 95.017083,44.771907 z "
       id="path4054"
       inkscape:transform-center-x="-3.0254946"
       inkscape:transform-center-y="-20.567146" />
    <path
       style="fill:url(#linearGradient4435);fill-opacity:1;fill-rule:nonzero;stroke:none;stroke-width:0.2;stroke-linecap:round;stroke-linejoin:round;stroke-miterlimit:4;stroke-dasharray:none;stroke-dashoffset:4;stroke-opacity:1"
       d="M 81.257508,51.672612 L 83.107608,56.782417 L 126.20759,73.602046 C 127.42955,72.70559 128.12421,71.347195 128.13169,69.965109 L 81.257508,51.672612 z "
       id="path4056"
       inkscape:transform-center-x="-1.7075615"
       inkscape:transform-center-y="-13.434233" />
    <path
       style="fill:url(#linearGradient4432);fill-opacity:1;fill-rule:nonzero;stroke:none;stroke-width:0.2;stroke-linecap:round;stroke-linejoin:round;stroke-miterlimit:4;stroke-dasharray:none;stroke-dashoffset:4;stroke-opacity:1"
       d="M 128.19909,69.991412 L 82.034205,53.761903 L 83.107608,56.782417 L 126.27499,73.628348 C 127.49694,72.731893 128.19161,71.373496 128.19909,69.991412 z "
       id="path4058"
       inkscape:transform-center-x="-2.1296096"
       inkscape:transform-center-y="-12.376435" />
    <path
       style="fill:url(#linearGradient4429);fill-opacity:1;fill-rule:nonzero;stroke:none;stroke-width:0.2;stroke-linecap:round;stroke-linejoin:round;stroke-miterlimit:4;stroke-dasharray:none;stroke-dashoffset:4;stroke-opacity:1"
       d="M 95.017083,44.771907 C 94.685759,44.642609 94.302591,44.66633 93.949424,44.821219 L 91.151648,46.020377 L 90.53522,44.614913 L 90.608362,47.711039 L 84.984863,49.981957 L 127.0402,66.393917 L 124.31477,60.243573 C 123.98887,60.386524 123.6195,60.399382 123.26027,60.259189 L 122.11452,59.812065 L 120.55291,56.251557 C 120.24311,55.545212 119.43954,55.231622 118.73321,55.541425 L 116.14337,56.70524 L 114.40422,52.803639 C 114.31766,52.606275 114.16942,52.434704 114.0171,52.303096 C 113.96752,52.254893 113.93218,52.21082 113.87492,52.169948 C 113.85634,52.158186 113.8266,52.154486 113.80752,52.143646 C 113.72967,52.09342 113.64091,52.039797 113.55108,52.004741 L 110.18127,50.689683 C 110.13087,50.670017 110.08434,50.684301 110.03332,50.670778 C 109.67553,50.489274 109.24202,50.45923 108.84402,50.633788 L 104.0186,52.750189 L 97.919226,50.369929 L 95.769127,45.531352 C 95.614229,45.178181 95.348406,44.901205 95.017083,44.771907 z "
       id="path4060"
       inkscape:transform-center-x="-3.0254946"
       inkscape:transform-center-y="-20.567146" />
    <path
       style="opacity:0.65163933;fill:none;fill-opacity:1;fill-rule:nonzero;stroke:url(#radialGradient4426);stroke-width:1.36732483;stroke-linecap:round;stroke-linejoin:round;stroke-miterlimit:4;stroke-dasharray:none;stroke-dashoffset:4;stroke-opacity:1"
       d="M 94.846126,45.209985 C 94.511834,45.079528 94.097936,45.091256 93.744767,45.246144 L 90.980689,46.458453 L 90.54919,45.474628 L 90.608362,47.711039 L 81.209015,51.498367 L 82.536387,55.161613 L 125.28541,74.174092 C 127.67539,73.125841 128.6875,70.977628 127.73224,68.799643 L 124.12326,60.6348 C 123.79735,60.77775 123.44855,60.837461 123.0893,60.697263 L 121.94357,60.250145 L 120.38195,56.689636 C 120.07215,55.983288 119.26859,55.669703 118.56225,55.979503 L 115.97242,57.143317 L 114.23326,53.241716 C 114.1467,53.044349 113.99846,52.872781 113.84615,52.741174 C 113.79657,52.692984 113.76123,52.648885 113.70396,52.608024 C 113.68539,52.596267 113.65564,52.592558 113.63656,52.581722 C 113.55871,52.531495 113.50365,52.491022 113.41383,52.455971 L 110.01031,51.12776 C 109.95991,51.108104 109.91338,51.122377 109.86237,51.108853 C 109.50457,50.927351 109.07106,50.897307 108.67306,51.071865 L 103.84764,53.188266 L 97.714569,50.794855 L 95.598168,45.969428 C 95.443269,45.616268 95.180416,45.340441 94.846126,45.209985 z "
       id="path4068"
       inkscape:transform-center-y="-16.424361"
       inkscape:transform-center-x="-1.6619921" />
    <path
       style="opacity:0.84836067;fill:none;fill-opacity:1;fill-rule:nonzero;stroke:url(#radialGradient4423);stroke-width:0.54086924;stroke-linecap:round;stroke-linejoin:round;stroke-miterlimit:4;stroke-dasharray:none;stroke-dashoffset:4;stroke-opacity:1"
       d="M 110.18127,50.689683 C 110.13088,50.670019 110.08434,50.684311 110.03332,50.670778 C 109.67552,50.489285 109.24202,50.45923 108.84402,50.633788 L 104.0186,52.750189 L 97.885528,50.356779 L 95.769127,45.531352 C 95.459333,44.825022 94.622064,44.498279 93.915727,44.808069 L 91.151648,46.020377 L 90.53522,44.614913 L 90.608362,47.711039 L 81.209015,51.498367 L 82.536387,55.161613 L 125.28541,74.174092 C 127.67539,73.125841 128.84531,70.57325 127.89004,68.395263 L 124.28106,60.230421 C 123.95517,60.373363 123.61952,60.399387 123.26027,60.259189 L 122.11452,59.812065 L 120.55291,56.251557 C 120.24311,55.545212 119.43955,55.231626 118.73321,55.541425 L 116.13022,56.738938 L 114.40422,52.803639 C 114.31765,52.606273 114.16942,52.434704 114.0171,52.303096 C 113.96751,52.254915 113.93218,52.210821 113.87492,52.169948 C 113.85635,52.158201 113.82659,52.154492 113.80752,52.143646 C 113.72966,52.09343 113.67461,52.052945 113.58479,52.017894 L 110.18127,50.689683 z "
       id="path4070"
       inkscape:transform-center-x="-1.7290593"
       inkscape:transform-center-y="-16.677058" />
    <path
       style="fill:none;fill-opacity:1;fill-rule:nonzero;stroke:url(#radialGradient4420);stroke-width:0.72452605;stroke-linecap:round;stroke-linejoin:round;stroke-miterlimit:4;stroke-dasharray:none;stroke-dashoffset:4;stroke-opacity:1"
       d="M 94.977632,44.873003 C 94.64334,44.742547 94.242597,44.720565 93.889424,44.875465 L 91.112195,46.121471 L 90.536863,44.809704 L 90.608362,47.711039 L 81.209015,51.498367 L 82.56433,55.28901 L 125.24595,74.275185 C 127.63595,73.226939 128.819,70.640645 127.86375,68.462662 L 124.25477,60.297818 C 123.92886,60.440758 123.58006,60.500479 123.22081,60.360281 L 122.07507,59.913161 L 120.51346,56.352653 C 120.20366,55.646307 119.4001,55.332721 118.69376,55.642521 L 116.10392,56.806336 L 114.37792,52.871035 C 114.29136,52.673669 114.12997,52.5358 113.97765,52.404191 C 113.92806,52.35601 113.89272,52.311913 113.83547,52.271042 C 113.8169,52.259285 113.78714,52.255587 113.76807,52.244741 C 113.69022,52.194514 113.63516,52.15404 113.54534,52.118988 L 110.14181,50.790776 C 110.09142,50.771112 110.04489,50.785406 109.99387,50.771873 C 109.63608,50.59037 109.21572,50.526627 108.81772,50.701184 L 103.97915,52.851284 L 97.846075,50.457872 L 95.742825,45.598748 C 95.587926,45.245589 95.311922,45.003458 94.977632,44.873003 z "
       id="path4072"
       inkscape:transform-center-x="-1.7149828"
       inkscape:transform-center-y="-16.550418" />
    <path
       style="opacity:0.63934428;fill:url(#radialGradient4417);fill-opacity:1;fill-rule:nonzero;stroke:none;stroke-width:0.78899997;stroke-linecap:round;stroke-linejoin:round;stroke-miterlimit:4;stroke-dasharray:none;stroke-dashoffset:4;stroke-opacity:1"
       d="M 92.585827,65.529184 C 90.11886,64.566457 87.686311,63.715128 85.349757,62.977142 L 85.652218,63.794119 L 79.736938,67.310226 L 109.32395,78.856461 C 109.72087,79.01136 110.10913,79.149173 110.50914,79.202486 C 111.63783,79.635749 112.99095,79.622215 114.24964,79.070168 L 115.43401,78.522781 C 111.50398,74.544165 103.00163,69.593915 92.585827,65.529184 z "
       id="path4074"
       inkscape:transform-center-x="5.4015624"
       inkscape:transform-center-y="-4.8290661" />
  </g>
</svg>
