<?xml version="1.0" encoding="UTF-8" standalone="no"?>
<!-- Created with Inkscape (http://www.inkscape.org/) -->
<svg
   xmlns:dc="http://purl.org/dc/elements/1.1/"
   xmlns:cc="http://web.resource.org/cc/"
   xmlns:rdf="http://www.w3.org/1999/02/22-rdf-syntax-ns#"
   xmlns:svg="http://www.w3.org/2000/svg"
   xmlns="http://www.w3.org/2000/svg"
   xmlns:xlink="http://www.w3.org/1999/xlink"
   xmlns:sodipodi="http://sodipodi.sourceforge.net/DTD/sodipodi-0.dtd"
   xmlns:inkscape="http://www.inkscape.org/namespaces/inkscape"
   width="128"
   height="128"
   id="svg1307"
   sodipodi:version="0.32"
   inkscape:version="0.44"
   version="1.0"
   sodipodi:docbase="/home/pinheiro/artwork/Oxygen/theme/svg/actions"
   sodipodi:docname="konv_message2.svg">
  <defs
     id="defs1309">
    <linearGradient
       inkscape:collect="always"
       id="linearGradient2878">
      <stop
         style="stop-color:white;stop-opacity:1;"
         offset="0"
         id="stop2880" />
      <stop
         style="stop-color:white;stop-opacity:0;"
         offset="1"
         id="stop2882" />
    </linearGradient>
    <linearGradient
       id="linearGradient3106">
      <stop
         style="stop-color:#85d1ff;stop-opacity:1;"
         offset="0"
         id="stop3108" />
      <stop
         style="stop-color:#58a7ff;stop-opacity:0;"
         offset="1"
         id="stop3110" />
    </linearGradient>
    <linearGradient
       id="linearGradient3011">
      <stop
         style="stop-color:#3e96ff;stop-opacity:1;"
         offset="0"
         id="stop3013" />
      <stop
         style="stop-color:#6193cf;stop-opacity:0;"
         offset="1"
         id="stop3015" />
    </linearGradient>
    <linearGradient
       id="linearGradient2965">
      <stop
         style="stop-color:white;stop-opacity:1;"
         offset="0"
         id="stop2967" />
      <stop
         style="stop-color:#e8e8e8;stop-opacity:0;"
         offset="1"
         id="stop2969" />
    </linearGradient>
    <linearGradient
       inkscape:collect="always"
       id="linearGradient2877">
      <stop
         style="stop-color:#fdfdfd;stop-opacity:1;"
         offset="0"
         id="stop2879" />
      <stop
         style="stop-color:#fdfdfd;stop-opacity:0;"
         offset="1"
         id="stop2881" />
    </linearGradient>
    <linearGradient
       id="linearGradient2598">
      <stop
         style="stop-color:#252525;stop-opacity:1;"
         offset="0"
         id="stop2600" />
      <stop
         id="stop2606"
         offset="0.5"
         style="stop-color:#252525;stop-opacity:1;" />
      <stop
         style="stop-color:#252525;stop-opacity:1;"
         offset="0.75"
         id="stop2608" />
      <stop
         style="stop-color:#000000;stop-opacity:1;"
         offset="1"
         id="stop2602" />
    </linearGradient>
    <linearGradient
       id="linearGradient3325">
      <stop
         id="stop3327"
         offset="0"
         style="stop-color:#ffffff;stop-opacity:1;" />
      <stop
         id="stop3329"
         offset="1"
         style="stop-color:#ffffff;stop-opacity:0;" />
    </linearGradient>
    <linearGradient
       id="linearGradient3311">
      <stop
         style="stop-color:#2d2d2d;stop-opacity:1;"
         offset="0"
         id="stop3313" />
      <stop
         id="stop3319"
         offset="0.5"
         style="stop-color:#000000;stop-opacity:1;" />
      <stop
         style="stop-color:#000000;stop-opacity:1;"
         offset="1"
         id="stop3315" />
    </linearGradient>
    <linearGradient
       id="linearGradient3303">
      <stop
         style="stop-color:#ffffff;stop-opacity:0.68345326;"
         offset="0"
         id="stop3305" />
      <stop
         style="stop-color:#ffffff;stop-opacity:0;"
         offset="1"
         id="stop3307" />
    </linearGradient>
    <linearGradient
       id="linearGradient3273">
      <stop
         style="stop-color:#ffffff;stop-opacity:0.55035973;"
         offset="0"
         id="stop3275" />
      <stop
         style="stop-color:#ffffff;stop-opacity:0;"
         offset="1"
         id="stop3277" />
    </linearGradient>
    <linearGradient
       id="linearGradient3259">
      <stop
         id="stop3261"
         offset="0"
         style="stop-color:#ffffff;stop-opacity:0.55035973;" />
      <stop
         id="stop3263"
         offset="1"
         style="stop-color:#000000;stop-opacity:0;" />
    </linearGradient>
    <linearGradient
       id="linearGradient3251">
      <stop
         style="stop-color:#000000;stop-opacity:1;"
         offset="0"
         id="stop3253" />
      <stop
         style="stop-color:#131313;stop-opacity:0;"
         offset="1"
         id="stop3255" />
    </linearGradient>
    <linearGradient
       inkscape:collect="always"
       id="linearGradient3235">
      <stop
         style="stop-color:#ffffff;stop-opacity:1;"
         offset="0"
         id="stop3237" />
      <stop
         style="stop-color:#ffffff;stop-opacity:0;"
         offset="1"
         id="stop3239" />
    </linearGradient>
    <linearGradient
       id="linearGradient3225">
      <stop
         style="stop-color:#ffffff;stop-opacity:1;"
         offset="0"
         id="stop3227" />
      <stop
         style="stop-color:#aeaeae;stop-opacity:1;"
         offset="1"
         id="stop3229" />
    </linearGradient>
    <linearGradient
       inkscape:collect="always"
       id="linearGradient3217">
      <stop
         style="stop-color:#252525;stop-opacity:1;"
         offset="0"
         id="stop3219" />
      <stop
         style="stop-color:#252525;stop-opacity:0;"
         offset="1"
         id="stop3221" />
    </linearGradient>
    <linearGradient
       id="linearGradient3207">
      <stop
         style="stop-color:#ffffff;stop-opacity:1;"
         offset="0"
         id="stop3209" />
      <stop
         style="stop-color:#252525;stop-opacity:0;"
         offset="1"
         id="stop3211" />
    </linearGradient>
    <linearGradient
       id="linearGradient2257">
      <stop
         style="stop-color:#b4942a;stop-opacity:1;"
         offset="0"
         id="stop2259" />
      <stop
         style="stop-color:#e4dcc9;stop-opacity:1"
         offset="1"
         id="stop2261" />
    </linearGradient>
    <radialGradient
       inkscape:collect="always"
       xlink:href="#linearGradient3303"
       id="radialGradient1539"
       gradientUnits="userSpaceOnUse"
       gradientTransform="matrix(1,7.635218e-17,-1.390307e-18,2.608014e-2,-1.139078e-13,7.26766)"
       cx="34.677639"
       cy="7.4622769"
       fx="34.677639"
       fy="7.4622769"
       r="47.595197" />
    <radialGradient
       inkscape:collect="always"
       xlink:href="#linearGradient3325"
       id="radialGradient1541"
       gradientUnits="userSpaceOnUse"
       gradientTransform="matrix(-1.5103,2.641273e-3,-1.167078e-4,-9.110224e-3,87.0522,7.438666)"
       cx="34.677639"
       cy="7.4622769"
       fx="34.677639"
       fy="7.4622769"
       r="47.595196" />
    <radialGradient
       inkscape:collect="always"
       xlink:href="#linearGradient3259"
       id="radialGradient1547"
       gradientUnits="userSpaceOnUse"
       gradientTransform="matrix(0.853446,3.931539e-16,-5.927715e-17,0.1578,-62.04115,15.05256)"
       cx="49.011971"
       cy="2.6743078"
       fx="49.011971"
       fy="2.6743078"
       r="1.7246193" />
    <linearGradient
       inkscape:collect="always"
       xlink:href="#linearGradient3251"
       id="linearGradient1550"
       gradientUnits="userSpaceOnUse"
       x1="46.051746"
       y1="3.0999987"
       x2="46.051746"
       y2="2.395859"
       gradientTransform="translate(53.87194,19.35268)" />
    <radialGradient
       inkscape:collect="always"
       xlink:href="#linearGradient3273"
       id="radialGradient1553"
       gradientUnits="userSpaceOnUse"
       gradientTransform="matrix(0.860164,-2.860046e-16,6.583289e-17,0.1578,-29.37149,15.05256)"
       cx="49.011971"
       cy="2.6743078"
       fx="49.011971"
       fy="2.6743078"
       r="1.7246193" />
    <linearGradient
       inkscape:collect="always"
       xlink:href="#linearGradient3251"
       id="linearGradient1556"
       gradientUnits="userSpaceOnUse"
       gradientTransform="matrix(1.28993,-5.112494e-16,5.140778e-16,1.29707,-46.7271,12.03998)"
       x1="46.051746"
       y1="3.0999987"
       x2="46.051746"
       y2="2.395859" />
    <linearGradient
       inkscape:collect="always"
       xlink:href="#linearGradient3235"
       id="linearGradient1559"
       gradientUnits="userSpaceOnUse"
       gradientTransform="matrix(1.297068,-1.880044e-3,1.880044e-3,1.297068,-47.04731,12.10823)"
       x1="48.498562"
       y1="0.81150496"
       x2="48.732723"
       y2="2.3657269" />
    <radialGradient
       inkscape:collect="always"
       xlink:href="#linearGradient3207"
       id="radialGradient1562"
       gradientUnits="userSpaceOnUse"
       gradientTransform="matrix(1.29707,-4.591755e-16,6.750436e-17,0.1578,-47.06473,15.05256)"
       cx="49.011971"
       cy="2.6743078"
       fx="49.011971"
       fy="2.6743078"
       r="1.7246193" />
    <linearGradient
       inkscape:collect="always"
       xlink:href="#linearGradient3217"
       id="linearGradient1565"
       gradientUnits="userSpaceOnUse"
       gradientTransform="matrix(1.29707,-3.784064e-16,3.784064e-16,1.29707,-47.06473,12.03998)"
       x1="48.914677"
       y1="2.9719031"
       x2="48.913002"
       y2="2.5548496" />
    <radialGradient
       inkscape:collect="always"
       xlink:href="#linearGradient3225"
       id="radialGradient1569"
       gradientUnits="userSpaceOnUse"
       gradientTransform="matrix(1.297068,-1.880044e-3,7.085819e-4,0.48867,-47.03734,18.97582)"
       cx="49.009884"
       cy="8.4953122"
       fx="47.370888"
       fy="6.7701697"
       r="3.9750405" />
    <radialGradient
       inkscape:collect="always"
       xlink:href="#linearGradient3311"
       id="radialGradient1576"
       gradientUnits="userSpaceOnUse"
       gradientTransform="matrix(6.228741e-2,-3.825032e-4,4.90218e-3,0.798611,15.0605,-17.07621)"
       cx="95.505852"
       cy="59.591507"
       fx="95.505852"
       fy="59.591507"
       r="47.746404" />
    <radialGradient
       inkscape:collect="always"
       xlink:href="#linearGradient2257"
       id="radialGradient1580"
       gradientUnits="userSpaceOnUse"
       gradientTransform="matrix(1.520175,8.839467e-2,-0.843351,13.788,55.27677,-1567.892)"
       cx="42.617531"
       cy="120.64188"
       fx="42.617531"
       fy="120.64188"
       r="3.406888" />
    <linearGradient
       inkscape:collect="always"
       xlink:href="#linearGradient2877"
       id="linearGradient2903"
       gradientUnits="userSpaceOnUse"
       gradientTransform="matrix(0.963514,-8.169758e-2,7.106383e-2,0.899186,-2.875296,3.908005)"
       x1="71.137604"
       y1="-45.176449"
       x2="71.137604"
       y2="85.008018" />
    <linearGradient
       inkscape:collect="always"
       xlink:href="#linearGradient2877"
       id="linearGradient2905"
       gradientUnits="userSpaceOnUse"
       gradientTransform="matrix(0.963514,-8.169758e-2,7.106383e-2,0.899186,-2.875296,3.908005)"
       x1="71.137604"
       y1="-45.176449"
       x2="71.137604"
       y2="85.008018" />
    <linearGradient
       inkscape:collect="always"
       xlink:href="#linearGradient2965"
       id="linearGradient2971"
       x1="13.380353"
       y1="96.249008"
       x2="24.503778"
       y2="105.43793"
       gradientUnits="userSpaceOnUse"
       gradientTransform="matrix(0.999882,-1.59711e-2,1.536206e-2,1.039523,-0.953766,-3.554603)" />
    <linearGradient
       inkscape:collect="always"
       xlink:href="#linearGradient2877"
       id="linearGradient2981"
       gradientUnits="userSpaceOnUse"
       gradientTransform="matrix(0.963514,-8.169758e-2,7.106383e-2,0.899186,-2.85166,3.691475)"
       x1="78.544739"
       y1="-15.421039"
       x2="68.395805"
       y2="122.18253" />
    <radialGradient
       inkscape:collect="always"
       xlink:href="#linearGradient3011"
       id="radialGradient3017"
       cx="-7.7906528"
       cy="315.84476"
       fx="-7.7906528"
       fy="315.84476"
       r="63.988658"
       gradientTransform="matrix(0.999882,-1.59711e-2,6.61782e-3,0.447816,91.22918,-29.91161)"
       gradientUnits="userSpaceOnUse" />
    <radialGradient
       inkscape:collect="always"
       xlink:href="#linearGradient3011"
       id="radialGradient3021"
       gradientUnits="userSpaceOnUse"
       gradientTransform="matrix(0.680003,-1.086166e-2,6.61782e-3,0.447816,87.34479,-29.84956)"
       cx="-12.143297"
       cy="312.47681"
       fx="-12.143297"
       fy="312.47681"
       r="63.988658" />
    <radialGradient
       inkscape:collect="always"
       xlink:href="#linearGradient3011"
       id="radialGradient3029"
       gradientUnits="userSpaceOnUse"
       gradientTransform="matrix(0.192656,0.482784,-1.219161,0.525853,299.5799,-34.1805)"
       cx="89.216011"
       cy="196.43195"
       fx="82.953209"
       fy="192.42668"
       r="63.988658" />
    <radialGradient
       inkscape:collect="always"
       xlink:href="#linearGradient3011"
       id="radialGradient3091"
       gradientUnits="userSpaceOnUse"
       gradientTransform="matrix(0.401036,0,-3.430127e-4,0.183417,61.14504,47.11596)"
       cx="-93.689613"
       cy="377.23575"
       fx="-141.14726"
       fy="378.3584"
       r="63.988658" />
    <radialGradient
       inkscape:collect="always"
       xlink:href="#linearGradient3011"
       id="radialGradient3093"
       gradientUnits="userSpaceOnUse"
       gradientTransform="matrix(2.22415,-0.595959,0.114167,0.433073,71.29239,-32.02693)"
       cx="-9.1384687"
       cy="303.95941"
       fx="-9.1384687"
       fy="303.95941"
       r="63.988658" />
    <radialGradient
       inkscape:collect="always"
       xlink:href="#linearGradient3011"
       id="radialGradient3095"
       gradientUnits="userSpaceOnUse"
       gradientTransform="matrix(0.941359,-0.543494,0.223192,0.38829,22.84421,-17.71688)"
       cx="-12.143297"
       cy="312.47681"
       fx="-12.143297"
       fy="312.47681"
       r="63.988658" />
    <linearGradient
       inkscape:collect="always"
       xlink:href="#linearGradient2965"
       id="linearGradient3097"
       gradientUnits="userSpaceOnUse"
       x1="13.380353"
       y1="96.249008"
       x2="24.503778"
       y2="105.43793"
       gradientTransform="matrix(0.999882,-1.59711e-2,1.536206e-2,1.039523,-0.953766,-3.554603)" />
    <radialGradient
       inkscape:collect="always"
       xlink:href="#linearGradient3011"
       id="radialGradient3099"
       gradientUnits="userSpaceOnUse"
       gradientTransform="matrix(0.680003,-1.086166e-2,6.61782e-3,0.447816,87.34479,-29.84956)"
       cx="-12.143297"
       cy="312.47681"
       fx="-12.143297"
       fy="312.47681"
       r="63.988658" />
    <radialGradient
       inkscape:collect="always"
       xlink:href="#linearGradient3106"
       id="radialGradient3112"
       cx="255.30496"
       cy="8.7486687"
       fx="255.30496"
       fy="8.7486687"
       r="61.75"
       gradientTransform="matrix(0.830019,-0.16329,6.227951e-2,0.316573,-148.5875,106.7631)"
       gradientUnits="userSpaceOnUse" />
    <linearGradient
       inkscape:collect="always"
       xlink:href="#linearGradient2877"
       id="linearGradient1976"
       gradientUnits="userSpaceOnUse"
       gradientTransform="matrix(0.963514,-8.169758e-2,7.106383e-2,0.899186,-2.85166,3.691475)"
       x1="73.756706"
       y1="-8.2497177"
       x2="65.631966"
       y2="101.90899" />
    <radialGradient
       inkscape:collect="always"
       xlink:href="#linearGradient3011"
       id="radialGradient1982"
       gradientUnits="userSpaceOnUse"
       gradientTransform="matrix(2.22415,-0.595959,0.114167,0.433073,71.29239,-32.02693)"
       cx="-8.9209194"
       cy="312.7749"
       fx="-8.9209194"
       fy="312.7749"
       r="63.988658" />
    <linearGradient
       inkscape:collect="always"
       xlink:href="#linearGradient2878"
       id="linearGradient2866"
       gradientUnits="userSpaceOnUse"
       x1="59.914902"
       y1="50.723709"
       x2="65.289047"
       y2="89.413895"
       gradientTransform="translate(9.80366e-7,-5.021114e-6)" />
    <linearGradient
       inkscape:collect="always"
       xlink:href="#linearGradient2965"
       id="linearGradient2863"
       x1="4.3982034"
       y1="105.84182"
       x2="21.465097"
       y2="105.84182"
       gradientUnits="userSpaceOnUse" />
  </defs>
  <sodipodi:namedview
     id="base"
     pagecolor="#ffffff"
     bordercolor="#666666"
     borderopacity="1.0"
     inkscape:pageopacity="0.0"
     inkscape:pageshadow="2"
     inkscape:zoom="2.2810345"
     inkscape:cx="6.3189965"
     inkscape:cy="71.507453"
     inkscape:current-layer="layer1"
     showgrid="false"
     inkscape:document-units="px"
     inkscape:grid-bbox="true"
     guidetolerance="0.1px"
     showguides="true"
     inkscape:guide-bbox="true"
     inkscape:window-width="849"
     inkscape:window-height="579"
     inkscape:window-x="126"
     inkscape:window-y="12">
    <sodipodi:guide
       orientation="horizontal"
       position="32.487481"
       id="guide2204" />
  </sodipodi:namedview>
  <metadata
     id="metadata1312">
    <rdf:RDF>
      <cc:Work
         rdf:about="">
        <dc:format>image/svg+xml</dc:format>
        <dc:type
           rdf:resource="http://purl.org/dc/dcmitype/StillImage" />
        <cc:license
           rdf:resource="http://creativecommons.org/licenses/GPL/2.0/" />
        <dc:contributor>
          <cc:Agent>
            <dc:title>Oxygen team</dc:title>
          </cc:Agent>
        </dc:contributor>
      </cc:Work>
      <cc:License
         rdf:about="http://creativecommons.org/licenses/LGPL/2.1/">
        <cc:permits
           rdf:resource="http://web.resource.org/cc/Reproduction" />
        <cc:permits
           rdf:resource="http://web.resource.org/cc/Distribution" />
        <cc:requires
           rdf:resource="http://web.resource.org/cc/Notice" />
        <cc:permits
           rdf:resource="http://web.resource.org/cc/DerivativeWorks" />
        <cc:requires
           rdf:resource="http://web.resource.org/cc/ShareAlike" />
        <cc:requires
           rdf:resource="http://web.resource.org/cc/SourceCode" />
      </cc:License>
    </rdf:RDF>
  </metadata>
  <g
     id="layer1"
     inkscape:label="Layer 1"
     inkscape:groupmode="layer">
    <path
       sodipodi:nodetypes="ccc"
       id="path2276"
       d="M 50.892799,3.2812959 L 50.892799,0.48658747 L 50.892799,3.2812959 z "
       style="fill:#ffffff;fill-opacity:0.75688076;fill-rule:nonzero;stroke:none;stroke-width:0.5;stroke-linecap:round;stroke-linejoin:round;stroke-miterlimit:4;stroke-dasharray:none;stroke-dashoffset:4;stroke-opacity:1" />
    <path
       style="opacity:1;fill:#2c72c7;fill-opacity:1;fill-rule:nonzero;stroke:none;stroke-width:1.60000002;stroke-linecap:round;stroke-linejoin:round;stroke-miterlimit:4;stroke-dasharray:none;stroke-dashoffset:4;stroke-opacity:1"
       d="M 78.722915,6.6364475 C 72.733033,5.7292068 66.441833,5.5859636 60.027469,6.3282134 C 25.817531,10.286878 0.67729235,37.700636 3.8730436,67.550849 C 5.1456185,79.437449 10.726353,89.933665 19.141299,97.998925 C 15.743861,105.98215 9.7662075,111.75209 0.87822138,112.89191 C 14.929174,118.13353 31.079023,115.25264 42.77663,111.79993 C 51.648271,114.60838 61.444494,115.6435 71.607028,114.46752 C 105.81696,110.50886 130.99819,83.063752 127.80244,53.213543 C 125.20588,28.960251 104.67907,10.56782 78.722915,6.6364475 z "
       id="path1969" />
    <path
       style="opacity:0.23360656;fill:url(#radialGradient3021);fill-opacity:1;fill-rule:nonzero;stroke:none;stroke-width:1.60000002;stroke-linecap:round;stroke-linejoin:round;stroke-miterlimit:4;stroke-dasharray:none;stroke-dashoffset:4;stroke-opacity:1"
       d="M 128.46668,55.654962 C 128.20812,83.280481 95.040834,95.661139 81.154139,99.768306 C 67.38194,103.84161 53.360027,103.86714 43.518768,100.90657 C 32.899832,104.04089 20.772096,115.01737 7.716003,111.56068 C 6.4806669,111.94884 5.1952418,112.25912 3.8222156,112.4352 C 17.873166,117.67682 31.510745,114.21253 43.208357,110.75981 C 52.08,113.56825 61.869764,114.5947 72.032297,113.41872 C 104.89969,109.61541 129.42579,84.121168 128.46668,55.654962 z M 6.549337,62.222815 C 6.5582779,63.831941 6.6346378,65.46557 6.8088245,67.092583 C 8.0465942,78.654155 13.37349,88.876946 21.406503,96.850227 C 21.627832,96.389849 21.839172,95.919565 22.042033,95.442887 C 13.627095,87.377625 8.0506668,76.900136 6.7781004,65.013537 C 6.678233,64.080713 6.5944481,63.150232 6.549337,62.222815 z "
       id="path3031"
       sodipodi:nodetypes="czccccsccsccsc" />
    <path
       sodipodi:nodetypes="czccccsccsccsc"
       id="path3027"
       d="M 128.46668,55.654962 C 128.20812,83.280481 93.041935,103.69845 71.924763,106.14206 C 50.80759,108.58567 51.972466,106.29159 43.100823,103.48316 C 32.481887,106.61748 20.772096,115.01737 7.716003,111.56068 C 6.4806669,111.94884 5.1952418,112.25912 3.8222156,112.4352 C 17.873166,117.67682 31.510745,114.21253 43.208357,110.75981 C 52.08,113.56825 61.869764,114.5947 72.032297,113.41872 C 104.89969,109.61541 129.42579,84.121168 128.46668,55.654962 z M 6.549337,62.222815 C 6.5582779,63.831941 6.6346378,65.46557 6.8088245,67.092583 C 8.0465942,78.654155 13.37349,88.876946 21.406503,96.850227 C 21.627832,96.389849 21.839172,95.919565 22.042033,95.442887 C 13.627095,87.377625 8.0506668,76.900136 6.7781004,65.013537 C 6.678233,64.080713 6.5944481,63.150232 6.549337,62.222815 z "
       style="opacity:0.09836067;fill:url(#radialGradient3029);fill-opacity:1;fill-rule:nonzero;stroke:none;stroke-width:1.60000002;stroke-linecap:round;stroke-linejoin:round;stroke-miterlimit:4;stroke-dasharray:none;stroke-dashoffset:4;stroke-opacity:1" />
    <path
       style="opacity:1;fill:url(#linearGradient1976);fill-opacity:1;fill-rule:nonzero;stroke:none;stroke-width:1.60000002;stroke-linecap:round;stroke-linejoin:round;stroke-miterlimit:4;stroke-dasharray:none;stroke-dashoffset:4;stroke-opacity:1"
       d="M 63.370067,9.2671071 C 61.291354,9.4417623 59.171741,9.7165313 57.066229,10.085864 C 27.121106,15.338615 6.3436674,38.567292 10.634727,61.983192 C 10.787811,62.818545 10.979157,63.655521 11.191098,64.468403 C 25.503739,68.153932 42.538874,69.588432 60.623104,68.055047 C 83.873565,66.083609 104.61298,59.603404 119.63575,50.621907 C 119.74638,48.08806 119.58299,45.526296 119.11373,42.965644 C 115.62722,23.940232 96.613807,10.653947 73.550738,9.1532534 C 70.224328,8.9368065 66.834588,8.9760126 63.370067,9.2671071 z "
       id="path2869" />
    <path
       style="opacity:1;fill:url(#linearGradient2905);fill-opacity:1;fill-rule:nonzero;stroke:none;stroke-width:1.60000002;stroke-linecap:round;stroke-linejoin:round;stroke-miterlimit:4;stroke-dasharray:none;stroke-dashoffset:4;stroke-opacity:1"
       d="M 63.359945,9.4775282 C 61.281228,9.6521855 59.133927,9.9279328 57.028412,10.297265 C 28.151027,15.36272 7.829179,37.146607 10.262772,59.692897 C 9.3624145,37.96397 29.290629,17.441951 57.206071,12.54523 C 59.311586,12.175898 61.458887,11.900152 63.537606,11.725493 C 67.002119,11.434399 70.37274,11.41121 73.699131,11.627655 C 96.762212,13.128349 115.77292,26.418558 119.25943,45.443968 C 119.40261,46.225316 119.50524,47.011191 119.59238,47.791918 C 119.52398,46.262802 119.36297,44.730571 119.08177,43.196005 C 115.59526,24.170593 96.584555,10.880384 73.521472,9.3796903 C 70.195081,9.1632434 66.82446,9.1864337 63.359945,9.4775282 z "
       id="path2885" />
    <path
       style="opacity:1;fill:url(#linearGradient2903);fill-opacity:1;fill-rule:nonzero;stroke:none;stroke-width:1.60000002;stroke-linecap:round;stroke-linejoin:round;stroke-miterlimit:4;stroke-dasharray:none;stroke-dashoffset:4;stroke-opacity:1"
       d="M 63.359419,9.470887 C 61.280702,9.6455432 59.133402,9.9212915 57.027887,10.290627 C 28.654458,15.267682 8.5257038,36.386708 10.139695,58.508559 C 9.0885459,36.694681 29.080701,16.047585 57.09451,11.133614 C 59.200024,10.764279 61.347325,10.48853 63.426043,10.313876 C 66.890558,10.02278 70.258957,9.9714877 73.585348,10.187937 C 96.648439,11.688633 115.65913,24.978838 119.14565,44.004251 C 119.26297,44.644413 119.36568,45.29086 119.44527,45.930707 C 119.35427,45.018627 119.24856,44.102478 119.08126,43.189364 C 115.59474,24.163952 96.584035,10.873746 73.520947,9.373049 C 70.194557,9.1566021 66.823934,9.1797935 63.359419,9.470887 z "
       id="path2893" />
    <path
       sodipodi:nodetypes="czccccsccsccsc"
       id="path3019"
       d="M 128.46668,55.654962 C 128.20812,83.280481 104.14816,102.21875 82.753187,107.68396 C 61.322654,113.15826 52.988168,109.5623 43.146909,106.60172 C 32.527973,109.73605 20.772096,115.01737 7.716003,111.56068 C 6.4806669,111.94884 5.1952418,112.25912 3.8222156,112.4352 C 17.873166,117.67682 31.510745,114.21253 43.208357,110.75981 C 52.08,113.56825 61.869764,114.5947 72.032297,113.41872 C 104.89969,109.61541 129.42579,84.121168 128.46668,55.654962 z M 6.549337,62.222815 C 6.5582779,63.831941 6.6346378,65.46557 6.8088245,67.092583 C 8.0465942,78.654155 13.37349,88.876946 21.406503,96.850227 C 21.627832,96.389849 21.839172,95.919565 22.042033,95.442887 C 13.627095,87.377625 8.0506668,76.900136 6.7781004,65.013537 C 6.678233,64.080713 6.5944481,63.150232 6.549337,62.222815 z "
       style="opacity:0.23360656;fill:url(#radialGradient3099);fill-opacity:1;fill-rule:nonzero;stroke:none;stroke-width:1.60000002;stroke-linecap:round;stroke-linejoin:round;stroke-miterlimit:4;stroke-dasharray:none;stroke-dashoffset:4;stroke-opacity:1" />
    <path
       style="opacity:1;fill:url(#radialGradient3091);fill-opacity:1;fill-rule:nonzero;stroke:none;stroke-width:1.60000002;stroke-linecap:round;stroke-linejoin:round;stroke-miterlimit:4;stroke-dasharray:none;stroke-dashoffset:4;stroke-opacity:1"
       d="M 128.46668,55.654962 C 128.20812,83.280481 94.202123,98.300141 82.324411,101.81312 C 70.517431,105.30519 53.017356,111.53738 43.176097,108.57682 C 32.557161,111.71115 20.772096,115.01737 7.716003,111.56068 C 6.4806669,111.94884 5.1952418,112.25912 3.8222156,112.4352 C 17.873166,117.67682 31.510745,114.21253 43.208357,110.75981 C 52.08,113.56825 61.869764,114.5947 72.032297,113.41872 C 104.89969,109.61541 129.42579,84.121168 128.46668,55.654962 z M 6.549337,62.222815 C 6.5582779,63.831941 6.6346378,65.46557 6.8088245,67.092583 C 8.0465942,78.654155 13.37349,88.876946 21.406503,96.850227 C 21.627832,96.389849 21.839172,95.919565 22.042033,95.442887 C 13.627095,87.377625 8.0506668,76.900136 6.7781004,65.013537 C 6.678233,64.080713 6.5944481,63.150232 6.549337,62.222815 z "
       id="path3089"
       sodipodi:nodetypes="czccccsccsccsc" />
    <path
       style="opacity:1;fill:url(#radialGradient3017);fill-opacity:1;fill-rule:nonzero;stroke:none;stroke-width:1.60000002;stroke-linecap:round;stroke-linejoin:round;stroke-miterlimit:4;stroke-dasharray:none;stroke-dashoffset:4;stroke-opacity:1"
       d="M 128.46668,55.654962 C 128.20812,83.280481 104.08875,108.66795 72.016935,112.37919 C 61.854402,113.55518 52.064638,112.52873 43.192995,109.72029 C 32.57406,112.85462 20.772096,115.01737 7.716003,111.56068 C 6.4806669,111.94884 5.1952418,112.25912 3.8222156,112.4352 C 17.873166,117.67682 31.510745,114.21253 43.208357,110.75981 C 52.08,113.56825 61.869764,114.5947 72.032297,113.41872 C 104.89969,109.61541 129.42579,84.121168 128.46668,55.654962 z M 6.549337,62.222815 C 6.5582779,63.831941 6.6346378,65.46557 6.8088245,67.092583 C 8.0465942,78.654155 13.37349,88.876946 21.406503,96.850227 C 21.627832,96.389849 21.839172,95.919565 22.042033,95.442887 C 13.627095,87.377625 8.0506668,76.900136 6.7781004,65.013537 C 6.678233,64.080713 6.5944481,63.150232 6.549337,62.222815 z "
       id="path2960"
       sodipodi:nodetypes="csccccsccsccsc" />
    <path
       style="opacity:0.61065572;fill:url(#linearGradient2971);fill-opacity:1.0;fill-rule:evenodd;stroke:none;stroke-width:1px;stroke-linecap:butt;stroke-linejoin:miter;stroke-opacity:1"
       d="M 4.1573472,113.19493 C 11.913347,110.89192 16.871221,106.86692 20.366709,98.555414 L 24.52667,100.91103 C 21.914359,106.01655 15.358272,112.90434 4.1573472,113.19493 z "
       id="path2963"
       sodipodi:nodetypes="cccc" />
    <path
       sodipodi:nodetypes="czccccsccsccsc"
       id="path1978"
       d="M 128.46668,55.654962 C 128.20812,83.280481 94.202123,98.300141 82.324411,101.81312 C 70.517431,105.30519 53.017356,107.53738 43.176097,104.57682 C 32.557161,107.71115 23.872794,113.56145 10.816701,110.10476 C 8.7920596,111.57314 5.1192306,112.30663 3.8222156,112.4352 C 17.873166,117.67682 31.510745,114.21253 43.208357,110.75981 C 52.08,113.56825 61.869764,114.5947 72.032297,113.41872 C 104.89969,109.61541 129.42579,84.121168 128.46668,55.654962 z M 6.549337,62.222815 C 6.5582779,63.831941 6.6346378,65.46557 6.8088245,67.092583 C 8.0465942,78.654155 13.37349,88.876946 21.406503,96.850227 C 21.627832,96.389849 21.839172,95.919565 22.042033,95.442887 C 13.627095,87.377625 8.0506668,76.900136 6.7781004,65.013537 C 6.678233,64.080713 6.5944481,63.150232 6.549337,62.222815 z "
       style="opacity:1;fill:url(#radialGradient3091);fill-opacity:1;fill-rule:nonzero;stroke:none;stroke-width:1.60000002;stroke-linecap:round;stroke-linejoin:round;stroke-miterlimit:4;stroke-dasharray:none;stroke-dashoffset:4;stroke-opacity:1" />
    <path
       sodipodi:nodetypes="czccccsccsccsc"
       id="path3087"
       d="M 128.46668,55.654962 C 128.20812,83.280481 94.202123,98.300141 82.324411,101.81312 C 70.517431,105.30519 52.925184,105.30025 43.083924,102.33968 C 32.464989,105.474 20.772096,115.01737 7.716003,111.56068 C 6.4806669,111.94884 5.1952418,112.25912 3.8222156,112.4352 C 17.873166,117.67682 31.510745,114.21253 43.208357,110.75981 C 52.08,113.56825 61.869764,114.5947 72.032297,113.41872 C 104.89969,109.61541 129.42579,84.121168 128.46668,55.654962 z M 6.549337,62.222815 C 6.5582779,63.831941 6.6346378,65.46557 6.8088245,67.092583 C 8.0465942,78.654155 13.37349,88.876946 21.406503,96.850227 C 21.627832,96.389849 21.839172,95.919565 22.042033,95.442887 C 13.627095,87.377625 8.0506668,76.900136 6.7781004,65.013537 C 6.678233,64.080713 6.5944481,63.150232 6.549337,62.222815 z "
       style="opacity:0.23360656;fill:url(#radialGradient3093);fill-opacity:1;fill-rule:nonzero;stroke:none;stroke-width:1.60000002;stroke-linecap:round;stroke-linejoin:round;stroke-miterlimit:4;stroke-dasharray:none;stroke-dashoffset:4;stroke-opacity:1" />
    <path
       sodipodi:nodetypes="cccc"
       id="path2975"
       d="M 4.1573472,113.19493 C 11.913347,110.89192 16.871221,106.86692 20.366709,98.555414 L 22.399679,99.7005 C 19.787368,104.80601 12.282601,113.07199 4.1573472,113.19493 z "
       style="opacity:0.61065572;fill:url(#linearGradient3097);fill-opacity:1.0;fill-rule:evenodd;stroke:none;stroke-width:1px;stroke-linecap:butt;stroke-linejoin:miter;stroke-opacity:1" />
    <path
       style="opacity:0.90163934;fill:url(#radialGradient3112);fill-opacity:1;fill-rule:nonzero;stroke:none;stroke-width:1.60000002;stroke-linecap:round;stroke-linejoin:round;stroke-miterlimit:4;stroke-dasharray:none;stroke-dashoffset:4;stroke-opacity:1"
       d="M 121.85352,54.257379 C 104.29246,63.364861 82.354014,69.733903 58.22932,71.829622 C 39.553247,73.452016 21.734079,72.292485 5.8768542,68.94335 C 9.0900706,74.872571 13.500521,80.068671 18.821249,84.34964 C 9.9536624,124.32817 105.76264,90.30661 121.85352,54.257379 z "
       id="path3101"
       sodipodi:nodetypes="csccc" />
    <path
       style="opacity:0.61065572;fill:url(#linearGradient2863);fill-opacity:1.0;fill-rule:evenodd;stroke:none;stroke-width:1px;stroke-linecap:butt;stroke-linejoin:miter;stroke-opacity:1"
       d="M 4.3982035,113.12823 C 12.154204,110.82522 16.871221,106.86692 20.366709,98.555414 L 21.465098,99.191611 C 19.282385,106.09219 9.3889089,113.04851 4.3982035,113.12823 z "
       id="path2977"
       sodipodi:nodetypes="cccc" />
    <path
       style="fill:white;fill-opacity:1;fill-rule:nonzero;stroke:black;stroke-width:0.61703038;stroke-linecap:round;stroke-linejoin:round;stroke-miterlimit:4;stroke-dasharray:none;stroke-dashoffset:4;stroke-opacity:1"
       d="M 91.069114,32.778663 L 56.52655,45.55691 C 56.320905,45.634131 56.132271,45.72948 55.913798,45.829436 L 33.629429,46.055871 C 31.831889,46.074133 30.270831,47.238208 29.454611,48.938806 C 27.012178,49.215175 25.088469,51.543692 25.087161,54.442299 L 25.082706,64.295387 C 25.08141,67.193996 27.003003,69.483441 29.445219,69.710175 C 30.259913,71.394202 31.819921,72.526563 33.61747,72.508298 L 40.088363,72.442547 L 40.083426,83.360832 C 40.08204,86.428297 42.22078,88.886998 44.867081,88.86011 L 47.049572,88.837934 C 49.695858,88.811043 51.836855,86.308856 51.838241,83.241391 L 51.843175,72.323106 L 56.131577,72.279531 C 56.263736,72.347945 56.382012,72.429502 56.514369,72.497555 L 91.045078,85.949822 C 93.625141,85.923606 95.717458,83.498976 95.718818,80.487596 L 95.72579,65.065904 L 95.802368,65.065124 C 98.448666,65.038234 100.58964,62.536049 100.59104,59.468582 L 100.59105,59.459675 C 100.59244,56.39221 98.453679,53.93351 95.807385,53.960399 L 95.730809,53.961178 L 95.73794,38.190338 C 95.739301,35.178961 93.649175,32.752447 91.069114,32.778663 z "
       id="rect2909"
       sodipodi:nodetypes="ccccccccccccccccccccccccccc" />
    <path
       id="path1985"
       d="M 91.062501,32.781245 L 56.531251,45.562495 C 56.325605,45.639715 56.124724,45.743789 55.906251,45.843745 L 33.625001,46.062495 C 31.827461,46.080758 30.284971,47.236897 29.468751,48.937495 C 27.026319,49.213866 25.095059,51.538888 25.093751,54.437495 L 25.093751,64.281245 C 25.093246,65.411433 25.373964,66.453688 25.875001,67.312495 C 36.629907,68.769421 48.392063,69.099741 60.625001,68.062495 C 75.195228,66.827066 88.784623,63.813899 100.59375,59.531245 C 100.59396,59.510144 100.59374,59.4899 100.59375,59.468745 C 100.59514,56.40128 98.458795,53.941856 95.812501,53.968745 L 95.718751,53.968745 L 95.750001,38.187495 C 95.751364,35.176118 93.642562,32.755029 91.062501,32.781245 z "
       style="fill:url(#linearGradient2866);fill-opacity:1;fill-rule:nonzero;stroke:none;stroke-width:0.60000002;stroke-linecap:round;stroke-linejoin:round;stroke-miterlimit:4;stroke-dasharray:none;stroke-dashoffset:4;stroke-opacity:1" />
    <path
       style="fill:black;fill-opacity:1;fill-rule:evenodd;stroke:none;stroke-width:0.60000002;stroke-linecap:butt;stroke-linejoin:miter;stroke-miterlimit:4;stroke-dasharray:none;stroke-opacity:1"
       d="M 55.470194,45.702299 L 54.862709,45.686725 C 54.862595,45.743637 54.886322,46.141178 54.890732,46.870715 C 54.895142,47.600253 54.881254,48.649915 54.888842,49.886649 C 54.904018,52.360116 54.930376,55.631234 54.950648,58.910679 C 54.991192,65.46957 55.024972,72.001676 55.024972,72.001676 L 55.636929,71.985062 C 55.636929,71.985062 55.603148,65.452947 55.562604,58.894065 C 55.542332,55.614625 55.515975,52.343484 55.500799,49.870035 C 55.493211,48.633311 55.507099,47.583601 55.502689,46.854101 C 55.498279,46.124601 55.470234,45.68239 55.470194,45.702299 z M 96.047156,53.64663 L 95.435199,53.663244 C 95.434904,53.811411 95.392856,67.132073 95.392856,67.132073 L 96.004812,67.115459 C 96.004812,67.115459 96.046861,53.794474 96.047156,53.64663 z "
       id="path2998" />
    <path
       sodipodi:nodetypes="ccccccccccccccccccccccccccc"
       id="path3051"
       d="M 91.069114,32.778663 L 56.52655,45.55691 C 56.320905,45.634131 56.132271,45.72948 55.913798,45.829436 L 33.629429,46.055871 C 31.831889,46.074133 30.270831,47.238208 29.454611,48.938806 C 27.012178,49.215175 25.088469,51.543692 25.087161,54.442299 L 25.082706,64.295387 C 25.08141,67.193996 27.003003,69.483441 29.445219,69.710175 C 30.259913,71.394202 31.819921,72.526563 33.61747,72.508298 L 40.088363,72.442547 L 40.083426,83.360832 C 40.08204,86.428297 42.22078,88.886998 44.867081,88.86011 L 47.049572,88.837934 C 49.695858,88.811043 51.836855,86.308856 51.838241,83.241391 L 51.843175,72.323106 L 56.131577,72.279531 C 56.263736,72.347945 56.382012,72.429502 56.514369,72.497555 L 91.045078,85.949822 C 93.625141,85.923606 95.717458,83.498976 95.718818,80.487596 L 95.72579,65.065904 L 95.802368,65.065124 C 98.448666,65.038234 100.58964,62.536049 100.59104,59.468582 L 100.59105,59.459675 C 100.59244,56.39221 98.453679,53.93351 95.807385,53.960399 L 95.730809,53.961178 L 95.73794,38.190338 C 95.739301,35.178961 93.649175,32.752447 91.069114,32.778663 z "
       style="fill:none;fill-opacity:1;fill-rule:nonzero;stroke:black;stroke-width:0.61703038;stroke-linecap:round;stroke-linejoin:round;stroke-miterlimit:4;stroke-dasharray:none;stroke-dashoffset:4;stroke-opacity:1" />
    <path
       style="opacity:0.23360656;fill:url(#radialGradient3095);fill-opacity:1;fill-rule:nonzero;stroke:none;stroke-width:1.60000002;stroke-linecap:round;stroke-linejoin:round;stroke-miterlimit:4;stroke-dasharray:none;stroke-dashoffset:4;stroke-opacity:1"
       d="M 128.46668,55.654962 C 128.20812,83.280481 103.78083,100.50601 82.38586,105.97122 C 60.955326,111.44552 52.97127,108.41882 43.130011,105.45824 C 32.511075,108.59258 20.772096,115.01737 7.716003,111.56068 C 6.4806669,111.94884 5.1952418,112.25912 3.8222156,112.4352 C 17.873166,117.67682 31.510745,114.21253 43.208357,110.75981 C 52.08,113.56825 61.869764,114.5947 72.032297,113.41872 C 104.89969,109.61541 129.42579,84.121168 128.46668,55.654962 z M 6.549337,62.222815 C 6.5582779,63.831941 6.6346378,65.46557 6.8088245,67.092583 C 8.0465942,78.654155 13.37349,88.876946 21.406503,96.850227 C 21.627832,96.389849 21.839172,95.919565 22.042033,95.442887 C 13.627095,87.377625 8.0506668,76.900136 6.7781004,65.013537 C 6.678233,64.080713 6.5944481,63.150232 6.549337,62.222815 z "
       id="path3085"
       sodipodi:nodetypes="czccccsccsccsc" />
    <path
       style="opacity:0.23360656;fill:url(#radialGradient1982);fill-opacity:1;fill-rule:nonzero;stroke:none;stroke-width:1.60000002;stroke-linecap:round;stroke-linejoin:round;stroke-miterlimit:4;stroke-dasharray:none;stroke-dashoffset:4;stroke-opacity:1"
       d="M 128.46668,55.654962 C 128.20812,83.280481 94.202123,94.108705 82.324411,97.621684 C 70.517431,101.11375 52.925184,102.5597 43.083924,99.599126 C 32.464989,102.73345 20.772096,115.01737 7.716003,111.56068 C 6.4806669,111.94884 5.1952418,112.25912 3.8222156,112.4352 C 17.873166,117.67682 31.510745,114.21253 43.208357,110.75981 C 52.08,113.56825 61.869764,114.5947 72.032297,113.41872 C 104.89969,109.61541 129.42579,84.121168 128.46668,55.654962 z M 6.549337,62.222815 C 6.5582779,63.831941 6.6346378,65.46557 6.8088245,67.092583 C 8.0465942,78.654155 13.37349,88.876946 21.406503,96.850227 C 21.627832,96.389849 21.839172,95.919565 22.042033,95.442887 C 13.627095,87.377625 8.0506668,76.900136 6.7781004,65.013537 C 6.678233,64.080713 6.5944481,63.150232 6.549337,62.222815 z "
       id="path1980"
       sodipodi:nodetypes="czccccsccsccsc" />
  </g>
</svg>
