<?xml version="1.0" encoding="UTF-8" standalone="no"?>
<!-- Created with Inkscape (http://www.inkscape.org/) -->
<svg
   xmlns:dc="http://purl.org/dc/elements/1.1/"
   xmlns:cc="http://web.resource.org/cc/"
   xmlns:rdf="http://www.w3.org/1999/02/22-rdf-syntax-ns#"
   xmlns:svg="http://www.w3.org/2000/svg"
   xmlns="http://www.w3.org/2000/svg"
   xmlns:xlink="http://www.w3.org/1999/xlink"
   xmlns:sodipodi="http://sodipodi.sourceforge.net/DTD/sodipodi-0.dtd"
   xmlns:inkscape="http://www.inkscape.org/namespaces/inkscape"
   width="128"
   height="128"
   id="svg2156"
   sodipodi:version="0.32"
   inkscape:version="0.43+0.44pre3"
   version="1.0"
   sodipodi:docbase="/home/pinheiro/artwork/Oxygen/theme/svg/actions"
   sodipodi:docname="media_podcast.svg">
  <defs
     id="defs2158">
    <linearGradient
       inkscape:collect="always"
       id="linearGradient1907">
      <stop
         style="stop-color:#555753;stop-opacity:1;"
         offset="0"
         id="stop1909" />
      <stop
         style="stop-color:#555753;stop-opacity:0;"
         offset="1"
         id="stop1911" />
    </linearGradient>
    <linearGradient
       inkscape:collect="always"
       id="linearGradient3223">
      <stop
         style="stop-color:#888a85;stop-opacity:1;"
         offset="0"
         id="stop3225" />
      <stop
         style="stop-color:#888a85;stop-opacity:0;"
         offset="1"
         id="stop3227" />
    </linearGradient>
    <linearGradient
       inkscape:collect="always"
       id="linearGradient3197">
      <stop
         style="stop-color:black;stop-opacity:1;"
         offset="0"
         id="stop3199" />
      <stop
         style="stop-color:black;stop-opacity:0;"
         offset="1"
         id="stop3201" />
    </linearGradient>
    <linearGradient
       inkscape:collect="always"
       id="linearGradient3055">
      <stop
         style="stop-color:white;stop-opacity:1;"
         offset="0"
         id="stop3057" />
      <stop
         style="stop-color:white;stop-opacity:0;"
         offset="1"
         id="stop3059" />
    </linearGradient>
    <linearGradient
       id="linearGradient37885">
      <stop
         style="stop-color:#000000;stop-opacity:1;"
         offset="0"
         id="stop37887" />
      <stop
         id="stop2905"
         offset="0.5"
         style="stop-color:black;stop-opacity:0.21014492;" />
      <stop
         style="stop-color:#000000;stop-opacity:0;"
         offset="1"
         id="stop37889" />
    </linearGradient>
    <radialGradient
       inkscape:collect="always"
       xlink:href="#linearGradient37885"
       id="radialGradient37891"
       cx="114.58915"
       cy="801.87805"
       fx="83.909851"
       fy="801.87805"
       r="39.872711"
       gradientTransform="matrix(1,0,0,9.009009e-2,0,729.6368)"
       gradientUnits="userSpaceOnUse" />
    <linearGradient
       inkscape:collect="always"
       xlink:href="#linearGradient3055"
       id="linearGradient3156"
       gradientUnits="userSpaceOnUse"
       x1="34"
       y1="74.156036"
       x2="23.25"
       y2="104.15604"
       gradientTransform="matrix(0.933808,0,0,0.933808,-2.262414,4.852542)" />
    <radialGradient
       inkscape:collect="always"
       xlink:href="#linearGradient3055"
       id="radialGradient3159"
       gradientUnits="userSpaceOnUse"
       gradientTransform="matrix(2.608813,0,0,1.302919,-752.2779,13.75595)"
       cx="293.03818"
       cy="77.628777"
       fx="293.03818"
       fy="77.628777"
       r="14.027714" />
    <linearGradient
       inkscape:collect="always"
       xlink:href="#linearGradient3197"
       id="linearGradient3203"
       x1="92.5"
       y1="28.5"
       x2="15.168396"
       y2="59.83762"
       gradientUnits="userSpaceOnUse"
       gradientTransform="matrix(0.933808,0,0,0.933808,-2.262414,4.852542)" />
    <radialGradient
       inkscape:collect="always"
       xlink:href="#linearGradient3223"
       id="radialGradient3229"
       cx="70.916756"
       cy="57.712875"
       fx="70.916756"
       fy="57.712875"
       r="28.194088"
       gradientTransform="matrix(3.750314,0,0,2.119602,-195.0433,-64.61547)"
       gradientUnits="userSpaceOnUse" />
    <radialGradient
       inkscape:collect="always"
       xlink:href="#linearGradient3223"
       id="radialGradient3231"
       cx="56.694817"
       cy="57.712864"
       fx="56.694817"
       fy="57.712864"
       r="20.694814"
       gradientTransform="matrix(3.440225,0,0,2.136317,-138.3481,-65.58013)"
       gradientUnits="userSpaceOnUse" />
    <linearGradient
       inkscape:collect="always"
       xlink:href="#linearGradient1907"
       id="linearGradient1913"
       x1="28.75"
       y1="94.25"
       x2="11.373871"
       y2="84.217888"
       gradientUnits="userSpaceOnUse" />
  </defs>
  <sodipodi:namedview
     id="base"
     pagecolor="#ffffff"
     bordercolor="#666666"
     borderopacity="1.0"
     inkscape:pageopacity="0.0"
     inkscape:pageshadow="2"
     inkscape:zoom="4"
     inkscape:cx="-8.679866"
     inkscape:cy="54.422383"
     inkscape:current-layer="layer1"
     showgrid="false"
     inkscape:document-units="px"
     inkscape:grid-bbox="true"
     showguides="true"
     inkscape:guide-bbox="true"
     inkscape:window-width="948"
     inkscape:window-height="582"
     inkscape:window-x="153"
     inkscape:window-y="283" />
  <metadata
     id="metadata2161">
    <rdf:RDF>
      <cc:Work
         rdf:about="">
        <dc:format>image/svg+xml</dc:format>
        <dc:type
           rdf:resource="http://purl.org/dc/dcmitype/StillImage" />
      </cc:Work>
    </rdf:RDF>
  </metadata>
  <g
     id="layer1"
     inkscape:label="Layer 1"
     inkscape:groupmode="layer">
    <path
       sodipodi:type="arc"
       style="opacity:0.33953486;fill:url(#radialGradient37891);fill-opacity:1;fill-rule:nonzero;stroke:none;stroke-width:1;stroke-linecap:round;stroke-linejoin:miter;stroke-miterlimit:4;stroke-dasharray:none;stroke-dashoffset:4;stroke-opacity:1"
       id="path37010"
       sodipodi:cx="114.58915"
       sodipodi:cy="801.87805"
       sodipodi:rx="39.872711"
       sodipodi:ry="3.5921361"
       d="M 154.46186 801.87805 A 39.872711 3.5921361 0 1 1  74.716438,801.87805 A 39.872711 3.5921361 0 1 1  154.46186 801.87805 z"
       transform="matrix(1.609111,0,0,1.609111,-120.1565,-1166.939)" />
    <path
       id="path1989"
       d="M 50,16.050142 C 67.173127,22.106269 79.494664,38.48603 79.494664,57.722988 C 79.494663,76.944787 67.192401,93.308001 50.040464,99.375605 C 72.893772,99.211693 91.389628,80.614693 91.389628,57.722988 C 91.389628,34.817737 72.871992,16.192312 50,16.050142 z "
       style="opacity:1;fill:url(#radialGradient3231);fill-opacity:1.0;fill-rule:nonzero;stroke:black;stroke-width:0;stroke-linecap:round;stroke-linejoin:round;stroke-miterlimit:4;stroke-dasharray:none;stroke-dashoffset:4;stroke-opacity:1" />
    <path
       style="opacity:1;fill:url(#radialGradient3229);fill-opacity:1.0;fill-rule:nonzero;stroke:none;stroke-width:6;stroke-linecap:round;stroke-linejoin:round;stroke-miterlimit:4;stroke-dasharray:none;stroke-dashoffset:4;stroke-opacity:1"
       d="M 70.916754,0.95262143 C 94.312992,9.203335 111.09954,31.518709 111.09954,57.726655 C 111.09954,83.913946 94.339246,106.20677 70.971881,114.47313 C 102.10666,114.24982 127.30493,88.913735 127.30493,57.726655 C 127.30493,26.521118 102.07697,1.1463104 70.916754,0.95262143 z "
       id="path1991" />
    <path
       sodipodi:nodetypes="ccc"
       id="path2276"
       d="M -192.3514,155.0517 L -192.3514,152.25699 L -192.3514,155.0517 z "
       style="fill:white;fill-opacity:0.75688076;fill-rule:nonzero;stroke:none;stroke-width:0.5;stroke-linecap:round;stroke-linejoin:round;stroke-miterlimit:4;stroke-dasharray:none;stroke-dashoffset:4;stroke-opacity:1" />
    <path
       id="path2072"
       d="M 39.599215,33.65424 C 35.656154,29.083922 31.394002,24.412372 29.931144,21.670625 L 29.931144,16.156098 L 25.847078,16.156098 L 25.847078,87.273091 C 22.220971,83.793265 16.845224,83.748936 10.311135,87.485871 C 2.8749508,91.741454 -0.81544009,99.281806 2.0725949,104.33088 C 4.9606299,109.37996 13.329942,110.0183 20.770561,105.76271 C 26.078952,102.7284 29.461261,98.018433 29.922283,93.731825 L 29.931144,39.887621 C 54.367791,49.783119 46.826087,76.388005 38.497937,82.213537 C 52.198676,74.303409 53.065792,62.4436 50.551728,52.739715 C 48.076577,43.186039 41.513941,35.742343 39.599215,33.65424 z "
       style="fill:#555753;fill-opacity:1"
       sodipodi:nodetypes="ccccccsccccsc" />
    <path
       sodipodi:nodetypes="ccccccccsc"
       style="fill:url(#linearGradient3203);fill-opacity:1"
       d="M 39.599215,33.65424 C 35.656154,29.083922 31.394002,24.412372 29.931144,21.670625 L 29.931144,16.156098 L 25.847078,16.156098 L 25.847078,87.273091 C 19.82331,97.394869 21.235864,95.252793 29.922283,93.731825 L 29.931144,39.887621 C 54.367791,49.783119 46.826087,76.388005 38.497937,82.213537 C 52.198676,74.303409 53.065792,62.4436 50.551728,52.739715 C 48.076577,43.186039 41.513941,35.742343 39.599215,33.65424 z "
       id="path3195" />
    <path
       sodipodi:nodetypes="ccsccc"
       style="fill:url(#radialGradient3159);fill-opacity:1"
       d="M 24.902177,88.564745 C 21.607393,85.565489 16.722839,85.527283 10.785781,88.748139 C 4.0290629,92.416017 0.67587004,98.915037 3.3000203,103.26683 C 5.9241704,107.61861 13.528759,108.16879 20.28951,104.50091 C 25.112862,101.88564 28.186128,97.826141 28.605016,94.131514 L 24.902177,88.564745 z "
       id="path3053" />
    <path
       style="fill:url(#linearGradient3156);fill-opacity:1"
       d="M 18.894177,85.656121 C 16.319215,85.675796 12.659848,86.786076 9.7090841,88.729333 C 2.2022805,93.673021 5.3008915,95.584202 11.336168,96.686729 C 12.746476,91.990423 16.81494,88.617175 20.995245,85.831211 C 20.324555,85.702252 19.624066,85.650544 18.894177,85.656121 z M 23.446492,86.677474 C 19.706497,89.455413 17.174797,92.536651 20.557522,97.095273 C 25.361958,96.892274 29.334676,95.894378 29.487062,94.118758 C 29.769951,90.822499 30.331497,76.369109 26.367931,89.02737 C 25.747416,88.462512 24.167976,87.046889 23.446492,86.677474 z "
       id="path3078"
       sodipodi:nodetypes="cscccccscc" />
    <path
       sodipodi:nodetypes="cscccccscc"
       id="path3175"
       d="M 18.894177,85.656121 C 16.319215,85.675796 12.659848,86.786076 9.7090841,88.729333 C 2.2022808,93.673021 5.3008915,95.584202 11.336168,96.686729 C 12.746476,91.990423 16.81494,88.617175 20.995245,85.831211 C 20.324555,85.702252 19.624066,85.650544 18.894177,85.656121 z M 23.446492,86.677474 C 19.706497,89.455413 17.174797,92.536651 20.557522,97.095273 C 25.361958,96.892274 29.451403,96.594734 29.603788,94.819114 C 29.886677,91.522855 30.331497,75.78548 26.367931,88.443741 C 25.747416,87.878883 24.167976,87.046889 23.446492,86.677474 z "
       style="fill:url(#linearGradient1913);fill-opacity:1.0" />
  </g>
</svg>
