<?xml version="1.0" encoding="UTF-8" standalone="no"?>
<!-- Created with Inkscape (http://www.inkscape.org/) -->
<svg
   xmlns:dc="http://purl.org/dc/elements/1.1/"
   xmlns:cc="http://web.resource.org/cc/"
   xmlns:rdf="http://www.w3.org/1999/02/22-rdf-syntax-ns#"
   xmlns:svg="http://www.w3.org/2000/svg"
   xmlns="http://www.w3.org/2000/svg"
   xmlns:xlink="http://www.w3.org/1999/xlink"
   xmlns:sodipodi="http://sodipodi.sourceforge.net/DTD/sodipodi-0.dtd"
   xmlns:inkscape="http://www.inkscape.org/namespaces/inkscape"
   width="128"
   height="128"
   id="svg1307"
   sodipodi:version="0.32"
   inkscape:version="0.44"
   version="1.0"
   sodipodi:docbase="/home/pinheiro/artwork/Oxygen/theme/svg/actions"
   sodipodi:docname="no.svg">
  <defs
     id="defs1309">
    <linearGradient
       inkscape:collect="always"
       id="linearGradient3350">
      <stop
         style="stop-color:#ffffff;stop-opacity:1;"
         offset="0"
         id="stop3352" />
      <stop
         style="stop-color:#ffffff;stop-opacity:0;"
         offset="1"
         id="stop3354" />
    </linearGradient>
    <linearGradient
       inkscape:collect="always"
       id="linearGradient3332">
      <stop
         style="stop-color:#ffffff;stop-opacity:1;"
         offset="0"
         id="stop3334" />
      <stop
         style="stop-color:#ffffff;stop-opacity:0;"
         offset="1"
         id="stop3336" />
    </linearGradient>
    <linearGradient
       inkscape:collect="always"
       id="linearGradient3284">
      <stop
         style="stop-color:#000000;stop-opacity:1;"
         offset="0"
         id="stop3286" />
      <stop
         style="stop-color:#000000;stop-opacity:0;"
         offset="1"
         id="stop3288" />
    </linearGradient>
    <linearGradient
       inkscape:collect="always"
       id="linearGradient3250">
      <stop
         style="stop-color:#ffffff;stop-opacity:1;"
         offset="0"
         id="stop3252" />
      <stop
         style="stop-color:#ffffff;stop-opacity:0;"
         offset="1"
         id="stop3254" />
    </linearGradient>
    <linearGradient
       inkscape:collect="always"
       id="linearGradient3291">
      <stop
         style="stop-color:#000000;stop-opacity:1;"
         offset="0"
         id="stop3293" />
      <stop
         style="stop-color:#000000;stop-opacity:0;"
         offset="1"
         id="stop3295" />
    </linearGradient>
    <radialGradient
       inkscape:collect="always"
       xlink:href="#linearGradient3291"
       id="radialGradient3297"
       cx="63.912209"
       cy="115.70919"
       fx="63.912209"
       fy="115.7093"
       r="63.912209"
       gradientTransform="matrix(1,0,0,0.197802,0,92.82166)"
       gradientUnits="userSpaceOnUse" />
    <linearGradient
       id="linearGradient3954">
      <stop
         id="stop3956"
         offset="0"
         style="stop-color:#b3b3b3;stop-opacity:1;" />
      <stop
         style="stop-color:#ffffff;stop-opacity:1;"
         offset="0.52879584"
         id="stop3962" />
      <stop
         id="stop3958"
         offset="1"
         style="stop-color:#c5c5c5;stop-opacity:1;" />
    </linearGradient>
    <linearGradient
       id="linearGradient2346">
      <stop
         id="stop2348"
         offset="0"
         style="stop-color:#740000;stop-opacity:1;" />
      <stop
         id="stop2350"
         offset="1"
         style="stop-color:#de0000;stop-opacity:1;" />
    </linearGradient>
    <radialGradient
       inkscape:collect="always"
       xlink:href="#linearGradient3350"
       id="radialGradient3397"
       gradientUnits="userSpaceOnUse"
       gradientTransform="matrix(1,6.394861e-16,2.507447e-16,0.236842,-1.252422e-13,31.0044)"
       cx="56.362732"
       cy="40.62645"
       fx="63.34869"
       fy="40.350914"
       r="8.6015415" />
    <linearGradient
       inkscape:collect="always"
       xlink:href="#linearGradient3332"
       id="linearGradient3401"
       gradientUnits="userSpaceOnUse"
       x1="68.567268"
       y1="0.71596837"
       x2="68.567268"
       y2="3.0337353" />
    <radialGradient
       inkscape:collect="always"
       xlink:href="#linearGradient2346"
       id="radialGradient3413"
       gradientUnits="userSpaceOnUse"
       cx="58.022865"
       cy="39.602749"
       fx="67.119041"
       fy="67.800743"
       r="79.128937"
       gradientTransform="matrix(1.399754,-0.184403,0.222004,1.685163,-31.9868,-16.43472)" />
    <linearGradient
       inkscape:collect="always"
       xlink:href="#linearGradient3284"
       id="linearGradient3426"
       gradientUnits="userSpaceOnUse"
       gradientTransform="matrix(0.990972,-2.270288e-3,2.270288e-3,0.990972,0.447305,1.238123)"
       x1="65.767624"
       y1="123.04875"
       x2="65.865608"
       y2="80.278618" />
    <linearGradient
       inkscape:collect="always"
       xlink:href="#linearGradient3284"
       id="linearGradient3429"
       gradientUnits="userSpaceOnUse"
       gradientTransform="matrix(0.990972,-2.270288e-3,2.270288e-3,0.990972,0.447305,1.238123)"
       x1="65.767624"
       y1="123.04875"
       x2="65.852966"
       y2="85.797173" />
    <linearGradient
       inkscape:collect="always"
       xlink:href="#linearGradient3250"
       id="linearGradient3433"
       gradientUnits="userSpaceOnUse"
       gradientTransform="matrix(1.085942,-2.487862e-3,2.487862e-3,1.085942,-5.284097,-4.237344)"
       x1="84.695107"
       y1="-39.363861"
       x2="75.234779"
       y2="89.837311" />
    <linearGradient
       inkscape:collect="always"
       xlink:href="#linearGradient3250"
       id="linearGradient3436"
       gradientUnits="userSpaceOnUse"
       gradientTransform="matrix(1.085942,-2.487862e-3,2.487862e-3,1.085942,-5.284097,-4.237344)"
       x1="84.695107"
       y1="-39.363861"
       x2="75.234779"
       y2="89.837311" />
    <linearGradient
       inkscape:collect="always"
       xlink:href="#linearGradient3250"
       id="linearGradient3439"
       gradientUnits="userSpaceOnUse"
       gradientTransform="matrix(1.085942,-2.487862e-3,2.487862e-3,1.085942,-5.284097,-4.237344)"
       x1="84.695107"
       y1="-39.363861"
       x2="75.234779"
       y2="89.837311" />
    <radialGradient
       inkscape:collect="always"
       xlink:href="#linearGradient3954"
       id="radialGradient1952"
       gradientUnits="userSpaceOnUse"
       gradientTransform="matrix(1.233257,2.079685,-0.898294,0.51863,63.94031,-138.9044)"
       cx="79.790611"
       cy="104.00619"
       fx="97.495888"
       fy="128.80084"
       r="44.931736" />
  </defs>
  <sodipodi:namedview
     id="base"
     pagecolor="#ffffff"
     bordercolor="#666666"
     borderopacity="1.0"
     inkscape:pageopacity="0.0"
     inkscape:pageshadow="2"
     inkscape:zoom="2.502002"
     inkscape:cx="149.99946"
     inkscape:cy="-5.6861367"
     inkscape:current-layer="layer1"
     showgrid="false"
     inkscape:document-units="px"
     inkscape:grid-bbox="true"
     guidetolerance="0.1px"
     showguides="true"
     inkscape:guide-bbox="true"
     inkscape:window-width="1106"
     inkscape:window-height="958"
     inkscape:window-x="601"
     inkscape:window-y="25">
    <sodipodi:guide
       orientation="horizontal"
       position="32.487481"
       id="guide2204" />
    <sodipodi:guide
       orientation="vertical"
       position="-153.819"
       id="guide3267" />
  </sodipodi:namedview>
  <metadata
     id="metadata1312">
    <rdf:RDF>
      <cc:Work
         rdf:about="">
        <dc:format>image/svg+xml</dc:format>
        <dc:type
           rdf:resource="http://purl.org/dc/dcmitype/StillImage" />
        <cc:license
           rdf:resource="http://creativecommons.org/licenses/GPL/2.0/" />
        <dc:contributor>
          <cc:Agent>
            <dc:title>Oxygen team</dc:title>
          </cc:Agent>
        </dc:contributor>
      </cc:Work>
      <cc:License
         rdf:about="http://creativecommons.org/licenses/LGPL/2.1/">
        <cc:permits
           rdf:resource="http://web.resource.org/cc/Reproduction" />
        <cc:permits
           rdf:resource="http://web.resource.org/cc/Distribution" />
        <cc:requires
           rdf:resource="http://web.resource.org/cc/Notice" />
        <cc:permits
           rdf:resource="http://web.resource.org/cc/DerivativeWorks" />
        <cc:requires
           rdf:resource="http://web.resource.org/cc/ShareAlike" />
        <cc:requires
           rdf:resource="http://web.resource.org/cc/SourceCode" />
      </cc:License>
    </rdf:RDF>
  </metadata>
  <g
     id="layer1"
     inkscape:label="Layer 1"
     inkscape:groupmode="layer">
    <path
       sodipodi:nodetypes="ccc"
       id="path2276"
       d="M 50.892799,3.2812959 L 50.892799,0.48658747 L 50.892799,3.2812959 z "
       style="fill:#ffffff;fill-opacity:0.75688076;fill-rule:nonzero;stroke:none;stroke-width:0.5;stroke-linecap:round;stroke-linejoin:round;stroke-miterlimit:4;stroke-dasharray:none;stroke-dashoffset:4;stroke-opacity:1" />
    <path
       sodipodi:type="arc"
       style="opacity:0.38139535;fill:url(#radialGradient3297);fill-opacity:1.0;fill-rule:nonzero;stroke:none;stroke-width:0;stroke-linecap:round;stroke-linejoin:round;stroke-miterlimit:4;stroke-dasharray:none;stroke-dashoffset:4;stroke-opacity:1"
       id="path3289"
       sodipodi:cx="63.912209"
       sodipodi:cy="115.70919"
       sodipodi:rx="63.912209"
       sodipodi:ry="12.641975"
       d="M 127.82442 115.70919 A 63.912209 12.641975 0 1 1  0,115.70919 A 63.912209 12.641975 0 1 1  127.82442 115.70919 z"
       transform="matrix(1,0,0,0.416667,0,74.87151)" />
    <path
       style="fill:#560000;fill-opacity:1;fill-rule:nonzero;stroke:none;stroke-width:1.69076896;stroke-linecap:round;stroke-linejoin:round;stroke-miterlimit:4;stroke-dasharray:none;stroke-dashoffset:4;stroke-opacity:1"
       d="M 4.0440288,35.558384 C 4.0488258,35.553554 4.0688218,35.553156 4.0773833,35.544565 C 4.0945065,35.527382 4.1068475,35.493238 4.1400407,35.459985 C 4.2064272,35.393479 4.2998949,35.293093 4.4280764,35.164788 C 4.6844397,34.908178 5.0726228,34.53331 5.5509161,34.054762 C 6.5075038,33.097664 7.8656785,31.750807 9.5052744,30.110701 C 12.784467,26.830488 17.16461,22.444872 21.536786,18.071953 C 25.908962,13.699033 30.278875,9.3365413 33.55853,6.0567908 C 35.198358,4.4169158 36.565721,3.0458932 37.522655,2.089143 C 38.001123,1.610768 38.365343,1.2257557 38.621908,0.96934861 C 38.750191,0.84114502 38.867036,0.75031679 38.933531,0.68391941 C 38.966778,0.65072072 38.979009,0.61646513 38.996189,0.59933967 C 39.004778,0.59077678 39.024714,0.59031839 39.029543,0.58552047 C 39.029543,0.58552047 39.503235,0.36848523 39.506273,0.36846475 C 39.509312,0.36844428 39.526456,0.37824397 39.52986,0.37823239 C 39.536668,0.37820923 39.541318,0.38802119 39.553446,0.38800003 C 39.577705,0.3879577 39.620345,0.3799394 39.66733,0.3798969 C 39.761299,0.37981196 39.898375,0.38497757 40.079738,0.38489043 C 40.442465,0.38471616 40.958435,0.36597441 41.635025,0.36579398 C 42.988205,0.36543343 44.924536,0.36769096 47.243637,0.36732989 C 51.881836,0.3666079 58.080165,0.37007662 64.263881,0.36955056 C 70.447596,0.36902487 76.622338,0.36207092 81.260538,0.3620036 C 83.579638,0.36197031 85.515969,0.36340928 86.86915,0.36353951 C 87.545738,0.36360485 88.075529,0.37768478 88.438256,0.37779754 C 88.619619,0.37785377 88.756695,0.38272255 88.850664,0.38279107 C 88.897649,0.38282534 88.940289,0.37465001 88.964546,0.37468794 C 88.976675,0.37470691 88.981326,0.38443339 88.988134,0.38445558 C 88.988134,0.38445558 89.481294,0.58744147 89.483457,0.58957601 C 89.488287,0.59437294 89.498453,0.5907821 89.507044,0.59934366 C 89.524226,0.61646676 89.548604,0.65239468 89.581856,0.68558791 C 89.648362,0.75197433 89.748748,0.84544209 89.877053,0.97362359 C 90.133663,1.2299869 90.518299,1.5945831 90.996847,2.0728765 C 91.953945,3.0294642 93.300802,4.3876388 94.940908,6.0272346 C 98.221121,9.3064268 102.60674,13.686571 106.97966,18.058746 C 111.35258,22.430921 115.71506,26.800835 118.99482,30.08049 C 120.63469,31.720318 122.00571,33.087681 122.96247,34.044615 C 123.44084,34.523083 123.81609,34.910889 124.0725,35.167455 C 124.20069,35.295738 124.3013,35.388996 124.36769,35.455492 C 124.40088,35.488739 124.42538,35.524556 124.44251,35.541736 C 124.45107,35.550325 124.46129,35.546674 124.46609,35.551504 C 124.46609,35.551504 124.67336,36.048781 124.67338,36.05182 C 124.6734,36.058627 124.66359,36.063279 124.66361,36.075407 C 124.66366,36.099665 124.67167,36.142306 124.67171,36.18929 C 124.6718,36.283259 124.66663,36.420335 124.66672,36.601699 C 124.6669,36.964425 124.67586,37.503982 124.67604,38.180572 C 124.67641,39.533752 124.67415,41.470083 124.67451,43.789183 C 124.67523,48.427383 124.68153,54.602124 124.68206,60.785841 C 124.68259,66.969558 124.67977,73.167886 124.67983,77.806086 C 124.67988,80.125187 124.6882,82.037931 124.68807,83.39111 C 124.68801,84.067699 124.67392,84.59749 124.67381,84.960216 C 124.67376,85.14158 124.66889,85.278655 124.66882,85.372625 C 124.66879,85.41961 124.67695,85.462248 124.67692,85.486507 C 124.67691,85.498636 124.66718,85.503287 124.66715,85.510094 L 124.60688,85.789085 C 124.60688,85.789085 124.46417,86.003254 124.46204,86.005418 C 124.45724,86.010249 124.46083,86.020414 124.45226,86.029004 C 124.43514,86.046187 124.39922,86.070565 124.36602,86.103816 C 124.29963,86.170323 124.20617,86.27071 124.07799,86.399014 C 123.82162,86.655624 123.45702,87.04026 122.97874,87.518808 C 122.02214,88.475905 120.65421,89.84635 119.0146,91.486455 C 115.73541,94.766669 111.36504,99.128698 106.99287,103.50161 C 102.62068,107.87453 98.241005,112.26062 94.961351,115.54036 C 93.321522,117.18025 91.954159,118.55127 90.997226,119.50801 C 90.518758,119.98639 90.140718,120.33805 89.884153,120.59445 C 89.755871,120.72265 89.662611,120.82326 89.596117,120.88965 C 89.562869,120.92285 89.527051,120.94734 89.509873,120.96446 C 89.501283,120.97303 89.504935,120.98325 89.500105,120.98805 C 89.497693,120.99045 89.492502,121.0095 89.490338,121.01163 C 89.490338,121.01163 89.002829,121.19531 88.999789,121.19534 C 88.992983,121.19535 88.978561,121.20914 88.966434,121.20915 C 88.942176,121.2092 88.909302,121.19364 88.862319,121.19367 C 88.768349,121.19376 88.621506,121.21217 88.440143,121.21227 C 88.077415,121.21244 87.547627,121.19782 86.871037,121.198 C 85.517855,121.19837 83.581527,121.19611 81.262426,121.19647 C 76.624226,121.19719 70.449485,121.20349 64.265768,121.20402 C 58.08205,121.20455 51.883724,121.20173 47.245523,121.2018 C 44.926421,121.20184 43.013678,121.21016 41.660499,121.21003 C 40.983909,121.20996 40.444352,121.21948 40.081625,121.21936 C 39.90026,121.2193 39.763186,121.21444 39.669217,121.21436 C 39.622231,121.21433 39.589361,121.19892 39.565102,121.19888 C 39.552972,121.19886 39.538555,121.21272 39.531748,121.2127 C 39.531748,121.2127 39.038587,121.00972 39.036423,121.00758 C 39.031592,121.00278 39.031195,120.98278 39.022605,120.97422 C 39.005422,120.9571 38.971276,120.94476 38.938025,120.91157 C 38.871518,120.84519 38.771132,120.75172 38.642827,120.62353 C 38.386217,120.36717 38.011349,119.97898 37.532801,119.50069 C 36.575704,118.54411 35.205259,117.17617 33.565154,115.53657 C 30.28494,112.25737 25.922911,107.887 21.549992,103.51482 C 17.177074,99.142645 12.790994,94.762965 9.5112436,91.483311 C 7.8713701,89.84348 6.5003451,88.476123 5.5435959,87.519186 C 5.0652216,87.040716 4.7037939,86.686269 4.4473882,86.429701 C 4.3191855,86.301416 4.228355,86.184576 4.161959,86.118078 C 4.1287595,86.084833 4.0945045,86.072601 4.0773793,86.05542 C 4.0688152,86.046834 4.0683595,86.026892 4.0635602,86.022066 C 4.061162,86.019649 4.0421067,86.014464 4.0399733,86.012299 C 4.0399733,86.012299 3.8465237,85.548377 3.8465044,85.545336 C 3.8464851,85.542295 3.8562848,85.525149 3.8562721,85.521749 C 3.8562499,85.51494 3.8424729,85.500525 3.8424529,85.488395 C 3.842409,85.464139 3.8579783,85.431266 3.8579365,85.384279 C 3.8578501,85.290313 3.8394305,85.143466 3.8393432,84.962103 C 3.8391687,84.599378 3.8440144,84.093173 3.8438336,83.416583 C 3.8434722,82.063406 3.8457294,80.127076 3.8453696,77.807973 C 3.8446474,73.169774 3.8481159,66.971444 3.8475902,60.787728 C 3.8470645,54.604013 3.8401106,48.429271 3.8400433,43.79107 C 3.8400099,41.47197 3.841449,39.53564 3.8415792,38.182459 C 3.8416445,37.50587 3.8321376,36.966312 3.8322503,36.603585 C 3.8323066,36.422222 3.8371753,36.285146 3.8372438,36.191178 C 3.8372782,36.144192 3.8526897,36.11132 3.8527276,36.087063 C 3.8527466,36.074934 3.8388862,36.060515 3.8389084,36.053708 C 3.8389084,36.053708 4.0418943,35.560547 4.0440288,35.558384 z M 5.2102744,36.345292 C 5.2102316,36.427632 5.2069825,36.499387 5.2069454,36.620231 C 5.206833,36.982762 5.2261071,37.498978 5.2260419,38.175517 C 5.2259114,39.528598 5.2244721,41.465055 5.224506,43.784128 C 5.2245731,48.422275 5.2217592,54.620683 5.2222852,60.804373 C 5.2228114,66.988064 5.2291099,73.162885 5.2298322,77.801031 C 5.2301948,80.1201 5.227936,82.056562 5.2282963,83.409643 C 5.2284753,84.086186 5.2138637,84.616218 5.2140383,84.978748 C 5.2140947,85.096505 5.2106543,85.172466 5.2107093,85.253687 C 5.2681104,85.311146 5.3242651,85.362421 5.4075072,85.445711 C 5.6637772,85.702135 6.0489603,86.066536 6.5273016,86.544964 C 7.4839812,87.501828 8.8550925,88.869284 10.49495,90.509089 C 13.77466,93.78871 18.137211,98.158671 22.510111,102.53084 C 26.883011,106.903 31.268685,111.28319 34.548859,114.56235 C 36.188947,116.20192 37.559478,117.56996 38.516506,118.52647 C 38.99502,119.00474 39.346476,119.38332 39.602947,119.63955 C 39.688438,119.72495 39.741482,119.77338 39.799745,119.83157 C 39.882084,119.83162 39.953841,119.83485 40.074683,119.8349 C 40.437214,119.83501 40.977016,119.82551 41.653557,119.82557 C 43.006635,119.8257 44.943096,119.82713 47.262168,119.8271 C 51.900312,119.82704 58.075134,119.82009 64.258826,119.81955 C 70.442519,119.81902 76.640924,119.8225 81.27907,119.82178 C 83.598143,119.82142 85.511015,119.8139 86.864095,119.81354 C 87.540634,119.81336 88.070671,119.82797 88.433201,119.8278 C 88.55559,119.82774 88.635025,119.8076 88.717908,119.80755 C 88.773332,119.75217 88.822056,119.71239 88.900164,119.63434 C 89.156591,119.37807 89.544572,119.00264 90.023004,118.52431 C 90.979867,117.56762 92.347322,116.19651 93.987129,114.55666 C 97.266749,111.27695 101.63671,106.9144 106.00887,102.5415 C 110.38104,98.168598 114.76122,93.782923 118.04039,90.50275 C 119.67996,88.862661 121.04799,87.49213 122.00451,86.535102 C 122.48277,86.056589 122.83777,85.695365 123.09399,85.438895 C 123.17941,85.353403 123.22783,85.300359 123.28602,85.242097 C 123.28606,85.159757 123.28931,85.088 123.28935,84.967158 C 123.28946,84.604627 123.30355,84.074593 123.30361,83.398052 C 123.30374,82.044973 123.30517,80.108512 123.30514,77.78944 C 123.30508,73.151296 123.29812,66.976472 123.2976,60.792783 C 123.29707,54.609093 123.30054,48.410685 123.29982,43.772539 C 123.29945,41.453465 123.29194,39.540593 123.29158,38.187514 C 123.2914,37.510974 123.28243,36.971172 123.28225,36.60864 C 123.2822,36.487797 123.28564,36.416043 123.28558,36.333701 C 123.22739,36.275447 123.17421,36.227153 123.08878,36.141677 C 122.83251,35.88525 122.4571,35.49727 121.97876,35.018838 C 121.02208,34.061974 119.67455,32.704288 118.03469,31.064479 C 114.75498,27.784863 110.36886,23.405126 105.99595,19.032968 C 101.62305,14.66081 97.260964,10.290378 93.98079,7.0112241 C 92.340702,5.371647 90.970169,4.0036152 90.013141,3.0470983 C 89.534628,2.5688398 89.149818,2.2040705 88.893347,1.9478453 C 88.807857,1.8624367 88.754814,1.8140051 88.696549,1.7558216 C 88.614209,1.7557787 88.542454,1.7525297 88.42161,1.7524925 C 88.059079,1.7523802 87.552631,1.7480674 86.876092,1.7480021 C 85.523011,1.7478718 83.586553,1.7464323 81.26748,1.7464662 C 76.629334,1.7465333 70.430926,1.7437194 64.247235,1.7442456 C 58.063544,1.7447716 51.888724,1.7510706 47.250578,1.7517926 C 44.931505,1.7521536 42.995047,1.7498959 41.641966,1.7502567 C 40.965426,1.750437 40.425624,1.7594113 40.063093,1.7595855 C 39.952667,1.7596384 39.890084,1.765972 39.811741,1.7660241 C 39.753104,1.8246003 39.682697,1.8665402 39.59613,1.9530544 C 39.339702,2.2093231 38.975309,2.5945089 38.496878,3.0728488 C 37.540014,4.0295287 36.182328,5.3770538 34.542519,7.0169097 C 31.262902,10.296621 26.883166,14.682756 22.511008,19.055658 C 18.13885,23.42856 13.768417,27.790645 10.489264,31.070819 C 8.8496867,32.710906 7.4816549,34.08144 6.5251379,35.038467 C 6.0468795,35.516981 5.6585234,35.892023 5.4022982,36.148494 C 5.3168896,36.233984 5.2684579,36.287027 5.2102744,36.345292 z "
       id="path3302" />
    <path
       sodipodi:type="star"
       style="fill:url(#radialGradient3413);fill-opacity:1;fill-rule:nonzero;stroke:none;stroke-width:9.95400047;stroke-linecap:round;stroke-linejoin:round;stroke-miterlimit:4;stroke-dasharray:none;stroke-dashoffset:4;stroke-opacity:1"
       id="path2287"
       sodipodi:sides="8"
       sodipodi:cx="58.022865"
       sodipodi:cy="39.602749"
       sodipodi:r1="79.128937"
       sodipodi:r2="73.105606"
       sodipodi:arg1="1.5707963"
       sodipodi:arg2="1.9634954"
       inkscape:flatsided="true"
       inkscape:rounded="0.00013834294"
       inkscape:randomized="0"
       d="M 58.022867,118.73169 C 58.014489,118.73169 2.0761835,95.561283 2.070259,95.555358 C 2.0643346,95.549434 -21.106071,39.611129 -21.106071,39.602751 C -21.106071,39.594373 2.0643316,-16.343933 2.070256,-16.349857 C 2.0761805,-16.355782 58.014485,-39.526188 58.022863,-39.526188 C 58.031242,-39.526188 113.96955,-16.355785 113.97547,-16.34986 C 113.9814,-16.343936 137.1518,39.594368 137.1518,39.602747 C 137.1518,39.611125 113.9814,95.549431 113.97547,95.555355 C 113.96955,95.56128 58.031246,118.73169 58.022867,118.73169 z "
       transform="matrix(-0.312564,0.754779,0.754779,0.312564,52.50212,4.617324)" />
    <path
       style="opacity:1;fill:url(#radialGradient1952);fill-opacity:1;fill-rule:nonzero;stroke:black;stroke-width:0.32471076;stroke-linecap:round;stroke-linejoin:round;stroke-miterlimit:4;stroke-dasharray:none;stroke-dashoffset:4;stroke-opacity:1"
       d="M 88.375117,21.176798 L 64.443972,45.107943 L 40.49073,21.154701 L 24.801798,36.843633 L 48.75504,60.796875 L 24.801798,84.750117 L 40.49073,100.43905 L 64.443972,76.485807 L 88.375117,100.41695 L 104.06405,84.72802 L 80.132904,60.796875 L 104.06405,36.86573 L 88.375117,21.176798 z "
       id="rect3358" />
    <path
       style="opacity:0.49590164;fill:url(#linearGradient3439);fill-opacity:1;fill-rule:nonzero;stroke:none;stroke-width:9.95400047;stroke-linecap:round;stroke-linejoin:round;stroke-miterlimit:4;stroke-dasharray:none;stroke-dashoffset:4;stroke-opacity:1"
       d="M 39.625151,1.055569 C 39.618758,1.0582175 4.2798175,36.423435 4.2771702,36.429827 C 4.2755981,36.433623 4.2798581,53.563984 4.281369,67.888345 C 44.448934,74.715144 89.668961,82.496114 125.01836,79.760772 C 125.01834,66.234726 125.02294,36.429646 125.02089,36.424694 C 125.01824,36.4183 89.653023,1.0793621 89.646632,1.0767146 C 89.640237,1.0740674 39.631542,1.0529205 39.625151,1.055569 z "
       id="path3246" />
    <path
       style="opacity:0.06147541;fill:url(#linearGradient3436);fill-opacity:1;fill-rule:nonzero;stroke:none;stroke-width:9.95400047;stroke-linecap:round;stroke-linejoin:round;stroke-miterlimit:4;stroke-dasharray:none;stroke-dashoffset:4;stroke-opacity:1"
       d="M 39.621465,1.0554726 C 39.615073,1.0581212 4.2777323,36.433632 4.275085,36.440023 C 4.273513,36.443819 4.2769091,50.606257 4.27842,64.930619 C 10.86841,66.05064 26.588301,67.170308 33.384381,68.291042 C 42.842602,38.193203 51.660854,16.882857 84.618085,1.0762588 C 72.198127,1.0696702 39.626651,1.0533235 39.621465,1.0554726 z M 103.41619,14.813973 C 81.366533,26.174649 68.690205,46.796266 63.913023,74.146348 C 85.5519,76.802273 106.62326,78.216949 125.01904,76.793479 C 125.01903,63.267432 125.02148,36.416098 125.01943,36.411146 C 125.01789,36.407433 113.41827,24.808265 103.41619,14.813973 z "
       id="path3265"
       sodipodi:nodetypes="cscccccccsc" />
    <path
       id="path3270"
       d="M 39.621465,1.0554726 C 39.615073,1.0581212 4.2777323,36.433632 4.275085,36.440023 C 4.273513,36.443819 4.2769091,50.606257 4.27842,64.930619 C 10.714156,65.915668 45.892451,12.559708 84.618085,1.0762588 C 72.198127,1.0696702 39.626651,1.0533235 39.621465,1.0554726 z M 103.41619,14.813973 C 81.366533,26.174649 83.1661,77.934333 125.01904,76.793479 C 125.01903,63.267432 125.02148,36.416098 125.01943,36.411146 C 125.01789,36.407433 113.41827,24.808265 103.41619,14.813973 z "
       style="opacity:0.06147541;fill:url(#linearGradient3433);fill-opacity:1;fill-rule:nonzero;stroke:none;stroke-width:9.95400047;stroke-linecap:round;stroke-linejoin:round;stroke-miterlimit:4;stroke-dasharray:none;stroke-dashoffset:4;stroke-opacity:1"
       sodipodi:nodetypes="cscccccsc" />
    <path
       style="opacity:0.27459017;fill:none;fill-opacity:0.75;fill-rule:evenodd;stroke:#000000;stroke-width:0.9909749px;stroke-linecap:round;stroke-linejoin:round;stroke-opacity:1"
       d="M 4.8446243,85.172384 L 39.71251,120.03288 L 88.782647,120.0728 L 123.58986,85.197635 L 123.58986,85.197635"
       id="path3272"
       sodipodi:nodetypes="ccccc" />
    <path
       sodipodi:nodetypes="ccccc"
       id="path3282"
       d="M 8.0168707,85.660605 L 40.600979,118.54437 L 88.283755,118.58747 L 120.32284,86.592488 L 120.32284,86.592488"
       style="opacity:0.27459017;fill:none;fill-opacity:0.75;fill-rule:evenodd;stroke:url(#linearGradient3429);stroke-width:3.96389961;stroke-linecap:round;stroke-linejoin:round;stroke-miterlimit:4;stroke-dasharray:none;stroke-opacity:1" />
    <path
       style="opacity:0.27459017;fill:none;fill-opacity:0.75;fill-rule:evenodd;stroke:url(#linearGradient3426);stroke-width:2.57653451;stroke-linecap:round;stroke-linejoin:round;stroke-miterlimit:4;stroke-dasharray:none;stroke-opacity:1"
       d="M 6.1335694,85.466724 L 40.206634,119.43715 L 88.285799,119.47935 L 121.90657,85.796078 L 121.90657,85.796078"
       id="path3292"
       sodipodi:nodetypes="ccccc" />
    <path
       style="opacity:0.46311472;fill:#ffffff;fill-opacity:1;fill-rule:evenodd;stroke:none;stroke-width:1px;stroke-linecap:butt;stroke-linejoin:miter;stroke-opacity:1"
       d="M 88.038389,0.78947357 C 88.631906,0.78947357 89.818941,1.6797494 89.818941,1.6797494 L 124.0451,35.609151 C 124.0451,35.609151 89.324343,2.976508 88.829746,2.976508 C 88.335148,2.976508 40.062413,2.976508 40.062413,2.976508 L 23.740689,16.418761 L 38.67754,1.3829908 C 39.031216,0.90872666 39.585115,0.71477337 40.260252,0.69055404 L 88.038389,0.78947357 z "
       id="path3328"
       sodipodi:nodetypes="cccsccccc" />
    <path
       sodipodi:nodetypes="cccsccccc"
       id="path3330"
       d="M 88.038389,0.78947357 C 88.631906,0.78947357 89.818941,1.6797494 89.818941,1.6797494 L 124.0451,35.609151 C 124.0451,35.609151 89.324343,3.976508 88.829746,3.976508 C 88.335148,3.976508 40.062413,3.976508 40.062413,3.976508 L 23.740689,16.418761 L 38.67754,1.3829908 C 39.031216,0.90872666 39.585115,0.71477337 40.260252,0.69055404 L 88.038389,0.78947357 z "
       style="fill:url(#linearGradient3401);fill-opacity:1;fill-rule:evenodd;stroke:none;stroke-width:1px;stroke-linecap:butt;stroke-linejoin:miter;stroke-opacity:1" />
    <path
       sodipodi:type="arc"
       style="opacity:0.79918033;fill:url(#radialGradient3397);fill-opacity:1;fill-rule:nonzero;stroke:none;stroke-width:1.38125002;stroke-linecap:round;stroke-linejoin:round;stroke-miterlimit:4;stroke-dasharray:none;stroke-dashoffset:4;stroke-opacity:1"
       id="path3340"
       sodipodi:cx="56.362732"
       sodipodi:cy="40.62645"
       sodipodi:rx="8.6015415"
       sodipodi:ry="2.0372071"
       d="M 64.964273 40.62645 A 8.6015415 2.0372071 0 1 1  47.76119,40.62645 A 8.6015415 2.0372071 0 1 1  64.964273 40.62645 z"
       transform="matrix(2.053335,2.070964,-0.331557,0.513117,4.256206,-118.2432)" />
  </g>
</svg>
