<?xml version="1.0" encoding="utf-8"?>
<!-- Generator: Adobe Illustrator 11 Build 197, SVG Export Plug-In . SVG Version: 6.0.0 Build 78)  -->
<!DOCTYPE svg PUBLIC "-//W3C//DTD SVG 1.0//EN"    "http://www.w3.org/TR/2001/REC-SVG-20010904/DTD/svg10.dtd" [
	<!ENTITY ns_flows "http://ns.adobe.com/Flows/1.0/">
	<!ENTITY ns_extend "http://ns.adobe.com/Extensibility/1.0/">
	<!ENTITY ns_ai "http://ns.adobe.com/AdobeIllustrator/10.0/">
	<!ENTITY ns_graphs "http://ns.adobe.com/Graphs/1.0/">
	<!ENTITY ns_vars "http://ns.adobe.com/Variables/1.0/">
	<!ENTITY ns_imrep "http://ns.adobe.com/ImageReplacement/1.0/">
	<!ENTITY ns_sfw "http://ns.adobe.com/SaveForWeb/1.0/">
	<!ENTITY ns_custom "http://ns.adobe.com/GenericCustomNamespace/1.0/">
	<!ENTITY ns_adobe_xpath "http://ns.adobe.com/XPath/1.0/">
	<!ENTITY ns_svg "http://www.w3.org/2000/svg">
	<!ENTITY ns_xlink "http://www.w3.org/1999/xlink">
]>
<svg 
	 xmlns:x="&ns_extend;" xmlns:i="&ns_ai;" xmlns:graph="&ns_graphs;" i:viewOrigin="36 120" i:rulerOrigin="0 0" i:pageBounds="0 128 128 0" i:viewBoxInterpretation="asCropBox"
	 xmlns="&ns_svg;" xmlns:xlink="&ns_xlink;" xmlns:a="http://ns.adobe.com/AdobeSVGViewerExtensions/3.0/" width="128" height="128"
	 viewBox="-35.5 -7.5 128 128" enable-background="new -35.5 -7.5 128 128" xml:space="preserve">
	<metadata>
		<variableSets  xmlns="&ns_vars;">
			<variableSet  locked="none" varSetName="binding1">
				<variables></variables>
				<v:sampleDataSets  xmlns="&ns_custom;" xmlns:v="&ns_vars;"></v:sampleDataSets>
			</variableSet>
		</variableSets>
		<sfw  xmlns="&ns_sfw;">
			<slices></slices>
			<sliceSourceBounds  y="7" x="36" height="113" width="54" bottomLeftOrigin="true"></sliceSourceBounds>
		</sfw>
<?xpacket begin='﻿' id='W5M0MpCehiHzreSzNTczkc9d'?><x:xmpmeta xmlns:x='adobe:ns:meta/' x:xmptk='XMP toolkit 3.0-29, framework 1.6'>
<rdf:RDF xmlns:rdf='http://www.w3.org/1999/02/22-rdf-syntax-ns#' xmlns:iX='http://ns.adobe.com/iX/1.0/'>

 <rdf:Description rdf:about='uuid:9c3a7f82-ee40-11da-b357-001451315092'
  xmlns:pdf='http://ns.adobe.com/pdf/1.3/'>
  <pdf:Producer>Adobe PDF library 6.66</pdf:Producer>
 </rdf:Description>

 <rdf:Description rdf:about='uuid:9c3a7f82-ee40-11da-b357-001451315092'
  xmlns:photoshop='http://ns.adobe.com/photoshop/1.0/'>
 </rdf:Description>

 <rdf:Description rdf:about='uuid:9c3a7f82-ee40-11da-b357-001451315092'
  xmlns:tiff='http://ns.adobe.com/tiff/1.0/'>
 </rdf:Description>

 <rdf:Description rdf:about='uuid:9c3a7f82-ee40-11da-b357-001451315092'
  xmlns:xap='http://ns.adobe.com/xap/1.0/'
  xmlns:xapGImg='http://ns.adobe.com/xap/1.0/g/img/'>
  <xap:CreatorTool>Illustrator</xap:CreatorTool>
  <xap:CreateDate>2006-05-28T13:53:04+02:00</xap:CreateDate>
  <xap:ModifyDate>2006-05-28T14:15:44Z</xap:ModifyDate>
  <xap:MetadataDate>2006-05-28T13:53:04+02:00</xap:MetadataDate>
  <xap:Rating>1</xap:Rating>
  <xap:Thumbnails>
   <rdf:Alt>
    <rdf:li rdf:parseType='Resource'>
     <xapGImg:format>JPEG</xapGImg:format>
     <xapGImg:width>124</xapGImg:width>
     <xapGImg:height>256</xapGImg:height>
     <xapGImg:image>/9j/4AAQSkZJRgABAgEASABIAAD/7QAsUGhvdG9zaG9wIDMuMAA4QklNA+0AAAAAABAASAAAAAEA&#xA;AQBIAAAAAQAB/+4ADkFkb2JlAGTAAAAAAf/bAIQABgQEBAUEBgUFBgkGBQYJCwgGBggLDAoKCwoK&#xA;DBAMDAwMDAwQDA4PEA8ODBMTFBQTExwbGxscHx8fHx8fHx8fHwEHBwcNDA0YEBAYGhURFRofHx8f&#xA;Hx8fHx8fHx8fHx8fHx8fHx8fHx8fHx8fHx8fHx8fHx8fHx8fHx8fHx8fHx8f/8AAEQgBAAB8AwER&#xA;AAIRAQMRAf/EAaIAAAAHAQEBAQEAAAAAAAAAAAQFAwIGAQAHCAkKCwEAAgIDAQEBAQEAAAAAAAAA&#xA;AQACAwQFBgcICQoLEAACAQMDAgQCBgcDBAIGAnMBAgMRBAAFIRIxQVEGE2EicYEUMpGhBxWxQiPB&#xA;UtHhMxZi8CRygvElQzRTkqKyY3PCNUQnk6OzNhdUZHTD0uIIJoMJChgZhJRFRqS0VtNVKBry4/PE&#xA;1OT0ZXWFlaW1xdXl9WZ2hpamtsbW5vY3R1dnd4eXp7fH1+f3OEhYaHiImKi4yNjo+Ck5SVlpeYmZ&#xA;qbnJ2en5KjpKWmp6ipqqusra6voRAAICAQIDBQUEBQYECAMDbQEAAhEDBCESMUEFURNhIgZxgZEy&#xA;obHwFMHR4SNCFVJicvEzJDRDghaSUyWiY7LCB3PSNeJEgxdUkwgJChgZJjZFGidkdFU38qOzwygp&#xA;0+PzhJSktMTU5PRldYWVpbXF1eX1RlZmdoaWprbG1ub2R1dnd4eXp7fH1+f3OEhYaHiImKi4yNjo&#xA;+DlJWWl5iZmpucnZ6fkqOkpaanqKmqq6ytrq+v/aAAwDAQACEQMRAD8A9U4q7FXYq7FXYqsklRBV&#xA;jiqSar5v0qwX97Oik7KKipPgPH6K4qk7+cr64J+q2UzIekjr6Y+6Ro2/4XDSrota1hjWURxg/wAp&#xA;5H/iI/XjSLREeragDX1I28Aag/qUfjjS2i4/MM8VPrMJRT+2N1+/p/w2BKa2mqWtyPgYE9x3+7FU&#xA;WCCKjpireKuxV2KuxV2KuxV2KoHUtVtrGFpJXChQSSSB069cVefXfmPWPMMrJph+racCQ98wryoe&#xA;kSH7X+s22GlV9O0O0tX5xRtNdN9u5lJklb/ZHp8hthQip5YLf+/mjiI34sw5f8CKnAhBSa5pqdJD&#xA;J/qq3/GwGNppSXzJpn+7DJF/rRsw+9OeK0mNjqdvMpezuElX9oIwYfJh/XChGJFDMwMB+rXI3FPs&#xA;Mfl2PywJTDT9cmhm+rXo4SdiehHSte49/vwJZDHIrryU1GKrsVdirsVdirsVQmoXsdrAzseg/wAx&#xA;iry65urjzZqUgZiuh2z0fiaeu678Qf5B/n7GlZL6NpY2YmuSILZABHGooSB0AAxQkN1rmpai5t7B&#xA;DBb/AMqbEjxZsC0r2Pku8nAeZjRtzTb8W3P3YpTaPyDFx+Lc/Nv7MVULnyFQExkg9gD/AM1D+OKs&#xA;c1PypeW0vqqrCVfszRVjlHyI6/jiqzTvNFzZyLb6wecDHil+opxPYSqP+JDCimax+hqEAhlarU5Q&#xA;Tr1G2xB/zriqI0XU57a5Nhdmjp9k9iD0I9j+BwJZOrBgCOhxVvFXYq7FWmYKpJ6DFXmn5gaxcXVx&#xA;Dotm1J7xvTLD9lOjtt93yrhCpto2mWlhYIKBLW1TavfjuzH9eKEhnkvPMWpfCCtqh4xqPD/mo4Es&#xA;30Xy7bWkK1Qch9w+X9cVTtUVR8Ipiq7FXYqoXFnBOhV1BB7HpirB/NXlFGR5I0BqKMD0Ps39cVYt&#xA;5Z1SbTL9dHumP1eQn6jI3VHB3jP09Mkgs41KFruyW7hFbq2qwA/aH7afSOnvgVOvL+pLd2inlU0G&#xA;/jtUH6RgSm2KuxV2KoLVbj0LR3HUDb59B+OKvL/L6HU/M1/qB+JYSLa2ruNzQkfd+OSQWQ+brhob&#xA;KDToPt3LUIH8q0/WxGAqnHlTRo7a1RyNyOv6z9OBLJMVdirsVdirsVU54VljKMAajviryj8wNBaH&#xA;lPDVXQh0YdQRup+e1MIVkXlDVf0hpsFwSOUyfvAO0ifC344UK2iP9R1q5shtGH5RDoOMnxqB8jUZ&#xA;FLMuQ48u1K4q3irsVY95wufR0+Rgfsgn/gVJ/XirEfy3gA01ZSN5ZZJCfkAv8MkhHamhuvNccfaC&#xA;JQB/lMf+b8iUs8to1jhVVFABsPYbDFVXFXYq7FXYq7FXYqxrzlZLNYuab0IH0io/EYqw38tpSkdz&#xA;bV2guTx+Tin/ABrkkJ/qreh5itZgf7yGhHvG/Kv44ClmPL/Rvw/HAqvirsVYn59J/R0n+q36hiqS&#xA;flyP9w8P/PT/AInkigouIf8AO43R8DAAPminIpZ1H/dr8hiq7FXYq7FXYq7FXYqlPmID6k30frxV&#xA;51+Xo/0zUf8AjPH+tsKCyLzIaatpoH8s1f8AgR/TAoZbU/Ua13/sxSry3UMX22A+dB+vFVL9JWf+&#xA;/F/4Jf64qxrzzIkmlu6GqlWofoGKpT+XYpo8P/PT/ieEoRUP/KYXf+tB/wAQGBLOY/7tfkMVXYq7&#xA;FXYq7FVOWaOMVc0GKqP6Ss/9+L/wS/1xVL9cnimsGaNgwBUGhB7+2KsA/L4f6XqH/GeP9bYUFP8A&#xA;zJ/x2NN/1Zv+I4Est/48fo/hirzv80dTv7SANbTNE/NRyU70IqcIVkSWkBspGKnkGABqa9vfFDG2&#xA;uZ5/LsplbkeLfgaYEph+XgppEP8Az0/4nkihXg/5TC8/1oP+IDIpZ1H/AHa/IYquxV2KuxV2KsM/&#xA;MW8ubbSbiSByjrG5UjsdgD9FcVQPk9Bd6DbXFyTLM8BZnYmpNTvhQo2lxMbq9hLH043CqPbrT8MC&#xA;Uu/L4f6Vf/8AGeP9bYUFPvMp/wBzWmjwWU/8LgUMt/48fo/hil5n+bQrbr/xkX/iOEKzGMf6BL/r&#xA;D+GKGHxf8o5L/qv+vAlN/wAvh/uJh/56f8TwlCrD/wAphef60H/EBgSzqP8Au1+QxVdirsVdirsV&#xA;YN+Zn/HGuv8AjE/6xiqn5FH/ADrVp/zDn9ZwoQVp/wAdHUP+Mg/jgShPy/H+k33/ABmj/W2FBTrz&#xA;L/x29N/1Jf1YEsu/48fo/hirzT82BWBf+Mi/8RwhWYxj/QJf9YfwxQw6L/lHJf8AVf8A4lgSnPkA&#xA;f7iYf+en/E8khfB/ymF5/rw/8RGRSzqP+7X5DFV2KuxV2KuxVg/5l/8AHIuf+MbfrGKrPI4/51u0&#xA;/wCYf+JwoQFp/wAdHUf+Mo/jgShvy/H+kX3/ABmj/W2FCceZT/uc04f5En6jill3/Hj9H8MCvNvz&#xA;VFYl/wBdf+I4QrMIx/oEn+sP4YoYbD/yjkn+q/8AxLAlO/II/wBxUX/PT/ieEobg/wCUwvP9eH/i&#xA;IwJZ1H/dr8hiq7FXYq7FXYqwf8yf+OTcf8Y2/WuKu8kj/nXbX/mH/icJQltr/wAdHUf+Mo/jgSoe&#xA;QB+/vf8AjNH+tsKE28zf8d7Tv+Mcn6jgSy7/AI8fo/hirzf80hWNf9df+I4QrMI/94ZP9YfwxQw2&#xA;H/lHJP8AVf8A4lgSnnkMf7i4v+en/E8KFtv/AMphef68P/ERgSzuP+7X5DFV2KuxV2KuxVhH5kf8&#xA;cuf/AFG/4kuKt+Sx/wA69a/8YP4nChLLb/jpaj/xlH8cCVHyAP315/xlj/W2SQmnmb/jvaf/AMY5&#xA;P1HAUsu/48fo/hgV5x+aAqq/66/8RwhWYx/7wyf6w/hihhcP/KOSf6r/APEsCU+8iD/cXF/z0/4n&#xA;hKFlv/ymF7/xki/4iMCWdR/3a/IYquxV2KuxV2KsJ/Mb/jmTf6h/4kuKrvJo/wCdftv+MH8ThKEq&#xA;tv8Ajpaj/wAZR/HAlT8gD95d/wDGWP8A42woTPzN/wAd7T/9ST9RwKy3/jx+j+GKXnX5mioX/XX/&#xA;AIjhCswjH+gyf6w/hihhUP8Ayjsn+q//ABLAlkHkYf7jIv8Anp/xLCUKNv8A8phe/wDGSL/iIwJZ&#xA;3H/dr8hiq7FXYq7FXYqwr8xP+OdL/qn/AIkuKr/J4/3AW3/GD+OFCUW//HT1H/jKP44ErfII+O7/&#xA;AOMsf8cKEx8z/wDHf0//AFJP+I4Est/48fo/hirzv8yxUr/rr/xHCFZhGP8AQZP9YfwxQwmD/lHZ&#xA;Pk//ABLAlkXkgf7jYv8AZ/8AEsJQh7f/AJTC8/4yRf8AERgSzuP+7X5DFV2KuxV2KuxVhX5h/wDH&#xA;Pl/1T/xJcVVfKI/3BW3/ABgP68KEnt/+OnqX/GUfxwJa8gj4rr/jJH/HChH+Z/8Ajv6f/qSf8RwK&#xA;y3/jx+j+GKXnv5kCrJ/rD/iOEKzCP/eKT/WH8MUMHg/5R2T5N/xLAlkvkkf7jYv9n/xLCUIS3/5S&#xA;+8/14f8AiIwJZ3H/AHa/IYquxV2KuxV2KsL/ADB/3gk+X/Gy4qr+Ux/uDt/+MP8AHChJIP8Ajqal&#xA;/wAZR/HAlvyEN7n/AIyR/wAcKEb5n/479h/qSf8AEcCWW/8AHj9H8MVeffmKKyJ/rD/iOEKzCMf6&#xA;FJ/rD+GKGDQf8o7J8m/4lgSyfyWP9x0f+z/4lhKEFbf8pfef68P/ABEYEs7j/u1+QxVdirsVdirs&#xA;VYZ+YH+8T/L/AI3XFUR5VFNEt/8AjD/HChIoP+OpqX/GUfxwJX+Qh/vR/wAZI/44UIvzP/x37D/V&#xA;k/4jgSy3/jx+j+GKsA/MMVlT/WH/ABHCFZfGP9Ck/wBYfwxQwWD/AJR6T5N/xLAllPk0f7j4/wDZ&#xA;/wDEsJQgLf8A5S+8/wBeH/iIwJZ3H/dr8hiq7FXYq7FXYqwzz9/vG3+f7a4qi/Kw/wBwsH/GH+OF&#xA;DH4f+OrqX/GUfxwJVfIY2n/14/44UIrzR/x37D/Vk/4hgSyz/jx+j+GKsB/MAVmT/WH/ABHCFZfH&#xA;/vFJ/rD+GKGCW/8Ayjz/ACb/AIlgSyvyeP8AQI/9n/xLCUJdbf8AKXXf+tD/AMQGBLO4/wC7X5DF&#xA;V2KuxV2KuxVhvn3/AHlP0f8AE1xVGeWB/uHg/wCMX8cKGPRf8dbU/wDjKP44Eq3kMfDP/rx/xwoR&#xA;Hmj/AI79h/qyf8QwJZZ/x4/R/DFWB+fRW4T/AFh/xHCFZdH/ALxSf6w/hihglv8A8o8/yb/iWBLL&#xA;PKA/0GP/AGf/ABLCUJZbf8pdd/60P/EBgSzuP+7X5DFV2KuxV2KuxVh3nv8A3m+kf8TXFUb5aFNI&#xA;h/4xfxwoY5F/x1tT/wCMo/UcCUR5DHwTf68f8cKFbzT/AMd+w/1Zf+I4Ess/48fo/hirBPPYrcp8&#xA;x/xHCFZdH/vFJ/rD+GKGB2//ACjz/Jv+JYEsu8pD/Qo/9n/xLCUJVa/8pbdf60H/ABAYEs7j/u1+&#xA;QxVdirsVdirsVYf55/uB8x/xNcVR/lwf7iYf+MX8cJQxmP8A46+p/wDGUfxwJRXkQfu5f9aP+OFC&#xA;p5p/479h/qy/8RwJZZ/x4/R/DFWDeeBW7j+f/GmEKy2P/eKT/WH8MUMCt/8AlHn+Tf8AEsCWX+Ux&#xA;/oaf7P8A4lhKEptv+Uuuv9aD/iAwJZ3H/dr8hiq7FXYq7FXYqxDzx/cr/rL/AMnFxVMPLwppcP8A&#xA;xi/jhKAxhP8Ajr6n/wAZh/HAlF+RR+5k/wBaP+OFC/zT/wAd6w/1Zf8AiOBLK/8Ajx+j+GKsI86i&#xA;t5H8/wDjTCFZZGP9Ck/1h/DFDAbb/lH3+Tf8SwJZh5WI+qIv+uPxrhKAlUSGPzdPy25+iw+gBf4Y&#xA;Es5j/u1+QxVdirsVdirsVYh52IKIvfkv/Jxf6YqmehIV0yKv++q/fuMKGKRMG1fVCP8Af1PuqMCU&#xA;d5FH7iT/AFo/44UN+av+O9p/+rL/AMRwJZX/AMeP0fwxVhPnP/e6Me//ABphCsqt256e5Hcq330x&#xA;QwvTLYy6LNF+0vNT7VJH6yMCU28n3tYOJPxLRqd/5W/VhQiPMVu1tqVtqUf2D+6dvAMeSH/gtvpw&#xA;JZPY3CT26Op2IqMVRGKuxV2KtMwVST2xVhWtM2o6rHbxmoDUr8q1P4k/RhCCyJ3is9Pkkb4Yo0r/&#xA;ALFBgVhGhq8ttc3kn2pZDIT7lgP64pTfyPHS2ZvEp+Ar/HChR80Py8x2SfyRyN99R/DAll3E/Uqd&#xA;+mKsP88QlZY5OyspJ9t1OKp35flE+nIvd4gv+yTbCUJNpcQi1a/sX2Ersy18JRzX7mGBKV28smla&#xA;0yMKRysWUe52ZcIQWar9WvbM281HhlX4SfA4ql9nPdaPP9XuqtAx/dTda/P3p1H0jAlkcF1DMgZG&#xA;BB6Gu2Kq2KrWkRep+jFUh1jWxT6vbfHI23w7/dTviq3RtJMFZZaG4k6/5I8MKEq876tVY9HtTWWU&#xA;j1adlrsD/rH8PngSpSwCw8vrGuzy/ZPTYDiPvZq4qnXla19GwjJFOVZKe3QfgMJQEhvX+uecGUbi&#xA;BFir7sa/8bnAlnPH/Rvor+OKpF5xsDcWTEDehH39P+GAxVKPJ+oExemT8aHmB+DDChG+Y7dra9t9&#xA;Uh+waJKw7Kxqrf7Fv14FUvMOlR6nZLdwij05GnZh/nQ4pSrQfMD20n1K++Eg0qfHChl6yRTwcWCz&#xA;QOOh3GKof9HLE3K0nkgr1Q/GPxI/GuBbb/3MjYSxEeJqD+AxW1N7LU5/hnuQqd1Qdf8AiOKoqy0y&#xA;3tz+6XlIesjbt9/bFUF5i8zWukwtBCRLfsNkG4Wvdv6d8VSDy3o9zeXbX96S0jnkzN13/ifwGKUw&#xA;1EnUtUjtYv7pCBUdAq9/4/dhCCyKWWGx06SZ/hijT/hVHbArE/J0El3fTX0g+OZ2kPh1PT/ZNiln&#xA;/EcePalMVQ9/brPbOh7gjFXnD+rpGtk0okjEgduXRh9OEILNrd7a+szBJRoJlPAnpvsQcVSyyll0&#xA;q7awuiTC391I3cePzHRvvwJUte8rRXi+tbijdRx6j5eI9sVY3Dfa5oz8TV4Qd61K/f2+nFU6tPPN&#xA;i4AuYniam7L8Qr8uuFCYR+bNAZeRuuA8GR6/cAcCqc/nXQYRWN5LluwjQqPvfj+rFUlvvOWs6hW3&#xA;0+H6tGdiU+J/pc0AxSq6H5TmlkFzdmpJ5cjuK+O/U++Kp/qd5FZW/wBUth+8bYgdd/4nFVXQ9KaB&#xA;fUl/3ol3f/JXwwoSbzxqpnki0a1NWYgzU7Dqqn/iR+jAlPvLGmra2SbUqBT5Dp/XFU8xV2KsW826&#xA;Et1A0iCjDevhTofo6HFUg8vay9vKbK8qrA038fEf5++FDLpktr63ENz84ph1U9jXFUHHNfaUwjuR&#xA;6tofsTLuKfw+WBKOMOmainL4Sx6kbEfPv9+KpVd+SLKUlkA38BT8VI/ViqBbyAvLY0Hhyb/mnFUR&#xA;b+QrZTVxX58j+sgYqnFvoumWSVIWi770oPo2XFUNe60Wb6vYqXkOwIGKrtN0gxyCe5PqXJ3A6hSf&#xA;44UO8x6/Bo9mUUh72Ufu4/4n2H44FY95W0ae7umvrurySHkxbrvv95/Vil6DGgRAo7YquxV2KrZE&#xA;V1KnFWE+Z/LBJNxbji67gjt7H2/ViqW6P5kltH+qX4Khdqnt/n92FDL7W8SWLlE4kibqvUfSDiqi&#xA;+nWjHnBytZOxjNV/4E0p9BwKuUarEfgnjlUdC4YN+A/jilv6/rA29AN7hx/E4qsa51yXYIkfuxr/&#xA;ABb9WKqf6LuJ2DXlyWH8ibD7z/TChMLSyhhXjAgQftN/U4FSjXfOFlpytb2RFze9Cw+wh9yP1DFL&#xA;H9I0W/1W9+uXxLux5Hn+FR+pcVeh2VnHaxBEFKYqicVdirsVdiq141daMMVYxrvlKC6UtGtGHSm1&#xA;Pkf4HFWJNa65o0pMBYov7ND091/piqY2XngCiXkJr0Lp+sjCik4t/NOiSiv1gR+0gKnFUWmtaQ3S&#xA;9g+mRF/WRirUuvaJCKyX0NP8hvUP3JywKlt3570iGotopLpx0J/dp+NW/DFKSXeu+Y9a/dRn0LY7&#xA;cI6olPdupxVNNC8mEMstwKt13H6genzOKs0tbOG3jCooFPDFURirsVdirsVdirsVdiqGuLC2nWjo&#xA;D8xiqSX/AJOsrgkhRX3Ffx2b8cVSW48g0PwMR7Bv+ah/HFUL/gS4/nP3r/XFVWHyFIT8bn/ggP1B&#xA;sVTay8jWkZBdQT3qK/i39MVT600e0t6FUHId+p+84qjlVVFAKDFW8VdirsVdir//2Q==</xapGImg:image>
    </rdf:li>
   </rdf:Alt>
  </xap:Thumbnails>
 </rdf:Description>

 <rdf:Description rdf:about='uuid:9c3a7f82-ee40-11da-b357-001451315092'
  xmlns:stRef='http://ns.adobe.com/xap/1.0/sType/ResourceRef#'
  xmlns:xapMM='http://ns.adobe.com/xap/1.0/mm/'>
  <xapMM:DocumentID>uuid:749E204FEFC411DA9064DAB41CCF8339</xapMM:DocumentID>
  <xapMM:InstanceID>uuid:26a751a1-ee39-11da-95ed-00112478973e</xapMM:InstanceID>
  <xapMM:Manager>AdobeARM</xapMM:Manager>
  <xapMM:DerivedFrom rdf:parseType='Resource'>
   <stRef:instanceID>uuid:cbd6ed1b-ee37-11da-a7f6-00112478973e</stRef:instanceID>
   <stRef:documentID>uuid:C89EA84CEF4011DA8369AD67D9F1B96A</stRef:documentID>
   <stRef:manager>AdobeARM</stRef:manager>
   <stRef:manageTo>http://192.168.0.2:3703/soap/Oxygen/documents/wip_konqueror.ai</stRef:manageTo>
  </xapMM:DerivedFrom>
 </rdf:Description>

 <rdf:Description rdf:about='uuid:9c3a7f82-ee40-11da-b357-001451315092'
  xmlns:dc='http://purl.org/dc/elements/1.1/'>
  <dc:format>image/svg+xml</dc:format>
  <dc:title>
   <rdf:Alt>
    <rdf:li xml:lang='x-default'>wip_konqueror</rdf:li>
   </rdf:Alt>
  </dc:title>
 </rdf:Description>

</rdf:RDF>
</x:xmpmeta>
                                                                                                                                                                                                                                                                                                                                                                                                                                                                                                                                                                                                                                                                                                                                                                                                                                                                                                                                                                                                                                                                                                                                                                                                                                                                                                                                                                                                                                                                                                                                                                                                                                                                                                                                                                                                                                                                                                                                                                                                                                                                                                                                <?xpacket end='w'?>
			</metadata>
		<g id="svg1307" xmlns:svg="http://www.w3.org/2000/svg" i:layer="yes" i:dimmedPercent="50" i:rgbTrio="#4F008000FFFF">
			<path i:knockout="Off" opacity="0.05" fill="#323232" d="M54,86V23C54,10.317,43.682,0,31,0C18.318,0,8,10.317,8,23
				c0,0,0,3.655,0,4.202C7.684,27.089,7.354,27,7,27H3c-1.654,0-3,1.346-3,3v56c0,14.888,12.112,27,27,27S54,100.888,54,86z M27,103
				c-5.3,0-9.982-2.488-13.103-6.302C17.312,99.965,21.914,102,27,102c5.086,0,9.688-2.035,13.102-5.302
				C36.982,100.512,32.3,103,27,103z M39,27c-1.654,0-3,1.346-3,3v53c0,4.963-4.037,9-9,9c-4.962,0-9-4.037-9-9V23
				c0-7.168,5.832-13,13-13s13,5.832,13,13c0,0,0,3.679,0,4.202C43.684,27.089,43.354,27,43,27H39z"/>
			<path i:knockout="Off" opacity="0.17" fill="#323232" d="M53,86V23c0-12.131-9.869-22-22-22S9,10.869,9,23v60
				c0,9.926,8.075,18,18,18c9.926,0,18-8.074,18-18V30c0-1.103-0.896-2-2-2h-4c-1.104,0-2,0.897-2,2v53c0,5.515-4.486,10-10,10
				c-5.514,0-10-4.486-10-10V23c0-7.72,6.28-14,14-14s14,6.28,14,14v63c0,9.926-8.074,18-18,18c-9.925,0-18-8.074-18-18V30
				c0-1.103-0.897-2-2-2H3c-1.103,0-2,0.897-2,2v56c0,14.336,11.663,26,26,26C41.336,112,53,100.337,53,86z"/>
			<path i:knockout="Off" opacity="0.23" fill="#323232" d="M52,86V23c0-11.579-9.42-21-21-21c-11.58,0-21,9.421-21,21v60
				c0,9.374,7.626,17,17,17s17-7.626,17-17V30c0-0.553-0.447-1-1-1h-4c-0.553,0-1,0.447-1,1v53c0,6.065-4.935,11-11,11
				s-11-4.935-11-11V23c0-8.271,6.729-15,15-15c8.271,0,15,6.729,15,15v63c0,10.477-8.523,19-19,19S8,96.477,8,86V30
				c0-0.553-0.447-1-1-1H3c-0.553,0-1,0.447-1,1v56c0,13.785,11.215,25,25,25S52,99.785,52,86z"/>
			
				<radialGradient id="XMLID_7_" cx="-185" cy="11" r="118.3596" fx="-185" fy="11" gradientTransform="matrix(-1 0 0 -1 -146 109)" gradientUnits="userSpaceOnUse">
				<stop  offset="0" style="stop-color:#F2F2F2"/>
				<stop  offset="1" style="stop-color:#C4C4C4"/>
				<a:midPointStop  offset="0" style="stop-color:#F2F2F2"/>
				<a:midPointStop  offset="0.5" style="stop-color:#F2F2F2"/>
				<a:midPointStop  offset="1" style="stop-color:#C4C4C4"/>
			</radialGradient>
			<path i:knockout="Off" fill="url(#XMLID_7_)" d="M27,109c13.255,0,24-10.745,24-24V22c0-11.046-8.954-20-20-20s-20,8.954-20,20
				v60c0,8.836,7.164,16,16,16c8.836,0,16-7.163,16-16V29h-4v53c0,6.617-5.383,12-12,12c-6.617,0-12-5.383-12-12V22
				c0-8.822,7.178-16,16-16s16,7.178,16,16v63c0,11.028-8.973,20-20,20c-11.028,0-20-8.973-20-20V29H3v56
				C3,98.255,13.745,109,27,109z"/>
			
				<linearGradient id="XMLID_8_" gradientUnits="userSpaceOnUse" x1="-174" y1="96" x2="-174" y2="6.0004" gradientTransform="matrix(-1 0 0 -1 -146 109)">
				<stop  offset="0" style="stop-color:#E8E8E8"/>
				<stop  offset="1" style="stop-color:#FFFFFF"/>
				<a:midPointStop  offset="0" style="stop-color:#E8E8E8"/>
				<a:midPointStop  offset="0.5" style="stop-color:#E8E8E8"/>
				<a:midPointStop  offset="1" style="stop-color:#FFFFFF"/>
			</linearGradient>
			<path i:knockout="Off" fill="url(#XMLID_8_)" d="M25,94c0.169,0,0.333-0.019,0.5-0.025C19.116,93.709,14,88.447,14,82l1-60
				c0-8.653,5.91-15.707,14.5-15.975C29.332,6.021,29.169,6,29,6c-8.822,0-16,7.178-16,16v60C13,88.617,18.383,94,25,94z M49,22v63
				c0,13.088-10.477,23.721-23.5,23.987C25.667,108.99,25.833,109,26,109c13.255,0,24-10.745,24-24l1-63c0-11.046-9.954-20-21-20
				c-0.169,0-0.332,0.021-0.5,0.025C40.312,2.293,49,11.123,49,22z M42,82V29h-1v53c0,8.668-6.896,15.708-15.5,15.975
				C25.667,97.98,25.831,98,26,98C34.836,98,42,90.837,42,82z M25,105c0.169,0,0.332-0.021,0.5-0.025C14.704,104.705,6,95.859,6,85
				V29H5v56C5,96.027,13.972,105,25,105z"/>
			
				<linearGradient id="XMLID_9_" gradientUnits="userSpaceOnUse" x1="-179.25" y1="18.6445" x2="-179.25" y2="78.7856" gradientTransform="matrix(-1 0 0 -1 -146 109)">
				<stop  offset="0" style="stop-color:#C4C4C4"/>
				<stop  offset="1" style="stop-color:#757575"/>
				<a:midPointStop  offset="0" style="stop-color:#C4C4C4"/>
				<a:midPointStop  offset="0.5" style="stop-color:#C4C4C4"/>
				<a:midPointStop  offset="1" style="stop-color:#757575"/>
			</linearGradient>
			<path i:knockout="Off" fill="url(#XMLID_9_)" d="M39.5,82V29h-1v53c0,6.448-5.116,11.709-11.5,11.975
				C27.167,93.981,27.331,94,27.5,94C34.117,94,39.5,88.617,39.5,82z"/>
			
				<linearGradient id="XMLID_10_" gradientUnits="userSpaceOnUse" x1="-183.25" y1="9.5508" x2="-183.25" y2="101.1498" gradientTransform="matrix(-1 0 0 -1 -146 109)">
				<stop  offset="0" style="stop-color:#C4C4C4"/>
				<stop  offset="1" style="stop-color:#757575"/>
				<a:midPointStop  offset="0" style="stop-color:#C4C4C4"/>
				<a:midPointStop  offset="0.5" style="stop-color:#C4C4C4"/>
				<a:midPointStop  offset="1" style="stop-color:#757575"/>
			</linearGradient>
			<path i:knockout="Off" fill="url(#XMLID_10_)" d="M46.5,22v63c0,10.859-8.705,19.706-19.5,19.975
				c0.168,0.004,0.331,0.025,0.5,0.025c11.027,0,20-8.972,20-20V22c0-8.822-7.178-16-16-16c-0.169,0-0.332,0.021-0.5,0.025
				C39.59,6.293,46.5,13.347,46.5,22z"/>
			
				<linearGradient id="XMLID_11_" gradientUnits="userSpaceOnUse" x1="-160.75" y1="4.4854" x2="-160.75" y2="78.505" gradientTransform="matrix(-1 0 0 -1 -146 109)">
				<stop  offset="0" style="stop-color:#C4C4C4"/>
				<stop  offset="1" style="stop-color:#757575"/>
				<a:midPointStop  offset="0" style="stop-color:#C4C4C4"/>
				<a:midPointStop  offset="0.5" style="stop-color:#C4C4C4"/>
				<a:midPointStop  offset="1" style="stop-color:#757575"/>
			</linearGradient>
			<path i:knockout="Off" fill="url(#XMLID_11_)" d="M26.5,109c0.167,0,0.333-0.01,0.5-0.013C13.977,108.721,3.5,98.088,3.5,85V29
				h-1v56C2.5,98.255,13.245,109,26.5,109z"/>
			
				<linearGradient id="XMLID_12_" gradientUnits="userSpaceOnUse" x1="-166.75" y1="16.3828" x2="-166.75" y2="105.2062" gradientTransform="matrix(-1 0 0 -1 -146 109)">
				<stop  offset="0" style="stop-color:#C4C4C4"/>
				<stop  offset="1" style="stop-color:#757575"/>
				<a:midPointStop  offset="0" style="stop-color:#C4C4C4"/>
				<a:midPointStop  offset="0.5" style="stop-color:#C4C4C4"/>
				<a:midPointStop  offset="1" style="stop-color:#757575"/>
			</linearGradient>
			<path i:knockout="Off" fill="url(#XMLID_12_)" d="M26.5,98c0.169,0,0.333-0.02,0.5-0.025C18.397,97.708,11.5,90.668,11.5,82V22
				c0-10.877,8.688-19.707,19.5-19.975C30.832,2.021,30.669,2,30.5,2c-11.046,0-20,8.954-20,20v60C10.5,90.836,17.664,98,26.5,98z"
				/>
		</g>
	</svg>
