<?xml version="1.0" encoding="UTF-8" standalone="no"?>
<!-- Created with Inkscape (http://www.inkscape.org/) -->
<svg
   xmlns:dc="http://purl.org/dc/elements/1.1/"
   xmlns:cc="http://web.resource.org/cc/"
   xmlns:rdf="http://www.w3.org/1999/02/22-rdf-syntax-ns#"
   xmlns:svg="http://www.w3.org/2000/svg"
   xmlns="http://www.w3.org/2000/svg"
   xmlns:xlink="http://www.w3.org/1999/xlink"
   xmlns:sodipodi="http://sodipodi.sourceforge.net/DTD/sodipodi-0.dtd"
   xmlns:inkscape="http://www.inkscape.org/namespaces/inkscape"
   width="128"
   height="128"
   id="svg1307"
   sodipodi:version="0.32"
   inkscape:version="0.44"
   version="1.0"
   sodipodi:docbase="/home/pinheiro/artwork/Oxygen/theme/svg/actions"
   sodipodi:docname="pen.svg"
   inkscape:export-filename="/home/pinheiro/Documents/pics/new oxygen/svg/pen.png"
   inkscape:export-xdpi="90"
   inkscape:export-ydpi="90">
  <defs
     id="defs1309">
    <linearGradient
       inkscape:collect="always"
       id="linearGradient2904">
      <stop
         style="stop-color:#000000;stop-opacity:1;"
         offset="0"
         id="stop2906" />
      <stop
         style="stop-color:#000000;stop-opacity:0;"
         offset="1"
         id="stop2908" />
    </linearGradient>
    <linearGradient
       inkscape:collect="always"
       id="linearGradient2594">
      <stop
         style="stop-color:#fafafa;stop-opacity:1;"
         offset="0"
         id="stop2596" />
      <stop
         style="stop-color:#fafafa;stop-opacity:0;"
         offset="1"
         id="stop2598" />
    </linearGradient>
    <linearGradient
       inkscape:collect="always"
       id="linearGradient2584">
      <stop
         style="stop-color:#000000;stop-opacity:1;"
         offset="0"
         id="stop2586" />
      <stop
         style="stop-color:#000000;stop-opacity:0;"
         offset="1"
         id="stop2588" />
    </linearGradient>
    <linearGradient
       inkscape:collect="always"
       id="linearGradient3969">
      <stop
         style="stop-color:#000000;stop-opacity:1;"
         offset="0"
         id="stop3971" />
      <stop
         style="stop-color:#000000;stop-opacity:0;"
         offset="1"
         id="stop3973" />
    </linearGradient>
    <linearGradient
       id="linearGradient3916">
      <stop
         id="stop3926"
         offset="0"
         style="stop-color:#ffffff;stop-opacity:1;" />
      <stop
         style="stop-color:#b9abb9;stop-opacity:1;"
         offset="0.3598901"
         id="stop3935" />
      <stop
         id="stop3928"
         offset="0.71978021"
         style="stop-color:#dfd9df;stop-opacity:1;" />
      <stop
         id="stop3930"
         offset="1"
         style="stop-color:#3a3a3a;stop-opacity:1;" />
    </linearGradient>
    <linearGradient
       id="linearGradient3877">
      <stop
         style="stop-color:#000000;stop-opacity:1;"
         offset="0"
         id="stop3879" />
      <stop
         id="stop3943"
         offset="0.25824177"
         style="stop-color:#000000;stop-opacity:0.49458483;" />
      <stop
         style="stop-color:#000000;stop-opacity:0;"
         offset="1"
         id="stop3881" />
    </linearGradient>
    <linearGradient
       inkscape:collect="always"
       id="linearGradient3794">
      <stop
         style="stop-color:#000000;stop-opacity:1;"
         offset="0"
         id="stop3796" />
      <stop
         style="stop-color:#000000;stop-opacity:0;"
         offset="1"
         id="stop3798" />
    </linearGradient>
    <linearGradient
       inkscape:collect="always"
       id="linearGradient3737">
      <stop
         style="stop-color:#000000;stop-opacity:1;"
         offset="0"
         id="stop3739" />
      <stop
         style="stop-color:#000000;stop-opacity:0;"
         offset="1"
         id="stop3741" />
    </linearGradient>
    <linearGradient
       inkscape:collect="always"
       id="linearGradient3725">
      <stop
         style="stop-color:#000000;stop-opacity:1;"
         offset="0"
         id="stop3727" />
      <stop
         style="stop-color:#000000;stop-opacity:0;"
         offset="1"
         id="stop3729" />
    </linearGradient>
    <linearGradient
       inkscape:collect="always"
       id="linearGradient2837">
      <stop
         style="stop-color:#000000;stop-opacity:1;"
         offset="0"
         id="stop2839" />
      <stop
         style="stop-color:#000000;stop-opacity:0;"
         offset="1"
         id="stop2841" />
    </linearGradient>
    <linearGradient
       inkscape:collect="always"
       id="linearGradient2816">
      <stop
         style="stop-color:#000000;stop-opacity:1;"
         offset="0"
         id="stop2818" />
      <stop
         style="stop-color:#000000;stop-opacity:0;"
         offset="1"
         id="stop2820" />
    </linearGradient>
    <linearGradient
       id="linearGradient2783">
      <stop
         style="stop-color:#323232;stop-opacity:1;"
         offset="0"
         id="stop2785" />
      <stop
         id="stop2787"
         offset="0.07692308"
         style="stop-color:#dfe1e1;stop-opacity:1;" />
      <stop
         style="stop-color:#b6b1b1;stop-opacity:1;"
         offset="0.26289096"
         id="stop2799" />
      <stop
         id="stop2789"
         offset="0.5"
         style="stop-color:#8d8282;stop-opacity:1;" />
      <stop
         style="stop-color:#ffffff;stop-opacity:1;"
         offset="0.78201604"
         id="stop2791" />
      <stop
         style="stop-color:#dfd9df;stop-opacity:1;"
         offset="0.9005897"
         id="stop2793" />
      <stop
         style="stop-color:#3a3a3a;stop-opacity:1;"
         offset="1"
         id="stop2795" />
    </linearGradient>
    <linearGradient
       inkscape:collect="always"
       id="linearGradient3291">
      <stop
         style="stop-color:#000000;stop-opacity:1;"
         offset="0"
         id="stop3293" />
      <stop
         style="stop-color:#000000;stop-opacity:0;"
         offset="1"
         id="stop3295" />
    </linearGradient>
    <radialGradient
       inkscape:collect="always"
       xlink:href="#linearGradient3291"
       id="radialGradient3297"
       cx="63.912209"
       cy="115.70919"
       fx="15.773271"
       fy="115.70919"
       r="63.912209"
       gradientTransform="matrix(1,0,0,0.197802,0,92.82166)"
       gradientUnits="userSpaceOnUse" />
    <linearGradient
       id="linearGradient2334">
      <stop
         id="stop2336"
         offset="0"
         style="stop-color:#323232;stop-opacity:1;" />
      <stop
         style="stop-color:#dfe1e1;stop-opacity:1;"
         offset="0.07692308"
         id="stop2346" />
      <stop
         style="stop-color:#e2dcdc;stop-opacity:1;"
         offset="0.5"
         id="stop2342" />
      <stop
         id="stop2348"
         offset="0.78201604"
         style="stop-color:#ffffff;stop-opacity:1;" />
      <stop
         id="stop2344"
         offset="0.9005897"
         style="stop-color:#dfd9df;stop-opacity:1;" />
      <stop
         id="stop2338"
         offset="1"
         style="stop-color:#3a3a3a;stop-opacity:1;" />
    </linearGradient>
    <linearGradient
       id="linearGradient2803">
      <stop
         id="stop2809"
         offset="0"
         style="stop-color:#e2dcdc;stop-opacity:1;" />
      <stop
         style="stop-color:#ffffff;stop-opacity:1;"
         offset="0.39074388"
         id="stop2811" />
      <stop
         style="stop-color:#dfd9df;stop-opacity:1;"
         offset="0.82692307"
         id="stop2813" />
      <stop
         style="stop-color:#c3c3c3;stop-opacity:1;"
         offset="1"
         id="stop2815" />
    </linearGradient>
    <linearGradient
       inkscape:collect="always"
       xlink:href="#linearGradient2334"
       id="linearGradient2766"
       gradientUnits="userSpaceOnUse"
       gradientTransform="matrix(0.577491,1.44816,-1.045249,0.603475,204.2967,164.9777)"
       x1="-52.71875"
       y1="182.0625"
       x2="-49.3125"
       y2="182.0625" />
    <linearGradient
       inkscape:collect="always"
       xlink:href="#linearGradient3794"
       id="linearGradient2768"
       gradientUnits="userSpaceOnUse"
       gradientTransform="matrix(0.603475,1.045249,-1.045249,0.603475,205.9786,145.2615)"
       x1="-52.533428"
       y1="212.26097"
       x2="-52.218658"
       y2="210.21022" />
    <radialGradient
       inkscape:collect="always"
       xlink:href="#linearGradient3916"
       id="radialGradient2770"
       gradientUnits="userSpaceOnUse"
       cx="-151.73438"
       cy="289.98047"
       fx="-151.62585"
       fy="290.38544"
       r="0.6328125" />
    <linearGradient
       inkscape:collect="always"
       xlink:href="#linearGradient2904"
       id="linearGradient2772"
       gradientUnits="userSpaceOnUse"
       x1="-151.52597"
       y1="289.93997"
       x2="-151.82185"
       y2="290.10934" />
    <linearGradient
       inkscape:collect="always"
       xlink:href="#linearGradient2783"
       id="linearGradient2774"
       gradientUnits="userSpaceOnUse"
       gradientTransform="matrix(0.912724,-6.053504e-16,2.816318e-16,0.424636,-6.403316,173.8027)"
       x1="190.03462"
       y1="90.22673"
       x2="208.77219"
       y2="90.22673" />
    <linearGradient
       inkscape:collect="always"
       xlink:href="#linearGradient2783"
       id="linearGradient2776"
       gradientUnits="userSpaceOnUse"
       gradientTransform="matrix(0.192457,0.327601,0.333345,-0.189141,-161.4249,355.0328)"
       x1="-161.94588"
       y1="164.39458"
       x2="-115.94351"
       y2="160.49312" />
    <linearGradient
       inkscape:collect="always"
       xlink:href="#linearGradient3877"
       id="linearGradient2778"
       gradientUnits="userSpaceOnUse"
       x1="-135.90878"
       y1="273.1312"
       x2="-134.63533"
       y2="274.5062" />
    <linearGradient
       inkscape:collect="always"
       xlink:href="#linearGradient3877"
       id="linearGradient2780"
       gradientUnits="userSpaceOnUse"
       gradientTransform="matrix(0.5,-0.866025,-0.866025,-0.5,175.1251,303.2683)"
       x1="-128.98389"
       y1="289.60529"
       x2="-129.63054"
       y2="280.78455" />
    <linearGradient
       inkscape:collect="always"
       xlink:href="#linearGradient2594"
       id="linearGradient2795"
       gradientUnits="userSpaceOnUse"
       gradientTransform="matrix(0.598243,0.598245,-0.598245,0.598243,251.5381,-2.932067)"
       x1="-113.99815"
       y1="261.99951"
       x2="-102.01393"
       y2="265.21066" />
    <linearGradient
       inkscape:collect="always"
       xlink:href="#linearGradient3877"
       id="linearGradient2798"
       gradientUnits="userSpaceOnUse"
       gradientTransform="matrix(0.817216,-0.218974,0.218974,0.817216,65.48189,-149.9699)"
       x1="-119.88942"
       y1="290.39322"
       x2="-133.02272"
       y2="277.25986" />
    <linearGradient
       inkscape:collect="always"
       xlink:href="#linearGradient3877"
       id="linearGradient2801"
       gradientUnits="userSpaceOnUse"
       gradientTransform="matrix(0.817216,-0.218974,0.218974,0.817216,65.47762,-149.9938)"
       x1="-119.93997"
       y1="274.45004"
       x2="-123.91203"
       y2="276.74332" />
    <linearGradient
       inkscape:collect="always"
       xlink:href="#linearGradient3877"
       id="linearGradient2804"
       gradientUnits="userSpaceOnUse"
       gradientTransform="matrix(0.218972,-0.817218,-0.817218,-0.218972,275.0757,59.5335)"
       x1="-135.90878"
       y1="273.1312"
       x2="-134.63533"
       y2="274.5062" />
    <linearGradient
       inkscape:collect="always"
       xlink:href="#linearGradient3877"
       id="linearGradient2807"
       gradientUnits="userSpaceOnUse"
       gradientTransform="matrix(0.817216,-0.218974,0.218974,0.817216,65.60485,-149.8856)"
       x1="-203.8418"
       y1="321.43585"
       x2="-120.47014"
       y2="273.30142" />
    <linearGradient
       inkscape:collect="always"
       xlink:href="#linearGradient2783"
       id="linearGradient2810"
       gradientUnits="userSpaceOnUse"
       gradientTransform="matrix(-0.225578,-0.229014,0.227562,-0.230999,-50.43563,113.7248)"
       x1="-162.56029"
       y1="167.36592"
       x2="-118.89805"
       y2="161.92447" />
    <linearGradient
       inkscape:collect="always"
       xlink:href="#linearGradient2803"
       id="linearGradient2823"
       gradientUnits="userSpaceOnUse"
       x1="22.22868"
       y1="-5.3515735"
       x2="27.94627"
       y2="-5.3515735"
       gradientTransform="matrix(0.979539,0,0,0.979539,-86.88986,88.27577)" />
    <linearGradient
       inkscape:collect="always"
       xlink:href="#linearGradient2837"
       id="linearGradient2826"
       gradientUnits="userSpaceOnUse"
       gradientTransform="matrix(1.247091,6.391275e-16,2.919498e-15,0.981737,144.3139,-227.2465)"
       x1="-71.804848"
       y1="128.92874"
       x2="-56.400097"
       y2="224.42052" />
    <linearGradient
       inkscape:collect="always"
       xlink:href="#linearGradient3969"
       id="linearGradient2832"
       gradientUnits="userSpaceOnUse"
       gradientTransform="matrix(0.846045,-1.860709e-16,1.860709e-16,0.846045,-236.597,-131.7297)"
       x1="98.411324"
       y1="185.68851"
       x2="166.32983"
       y2="155.59846" />
    <linearGradient
       inkscape:collect="always"
       xlink:href="#linearGradient3737"
       id="linearGradient2835"
       gradientUnits="userSpaceOnUse"
       gradientTransform="matrix(0.846045,-1.860709e-16,1.860709e-16,0.846045,-50.36109,-195.4067)"
       x1="-53.739216"
       y1="145.54308"
       x2="-53.739216"
       y2="146.01439" />
    <linearGradient
       inkscape:collect="always"
       xlink:href="#linearGradient3725"
       id="linearGradient2838"
       gradientUnits="userSpaceOnUse"
       gradientTransform="matrix(0.846045,-1.860709e-16,1.860709e-16,0.846045,-50.36109,-195.4067)"
       x1="-44.999382"
       y1="132.86296"
       x2="-45.039631"
       y2="137.0005" />
    <linearGradient
       inkscape:collect="always"
       xlink:href="#linearGradient2816"
       id="linearGradient2841"
       gradientUnits="userSpaceOnUse"
       gradientTransform="matrix(0.846045,-1.860709e-16,1.860709e-16,0.846045,-50.36109,-195.4067)"
       x1="-40.931931"
       y1="154.80533"
       x2="-44.212151"
       y2="142.56337" />
    <linearGradient
       inkscape:collect="always"
       xlink:href="#linearGradient2783"
       id="linearGradient2844"
       gradientUnits="userSpaceOnUse"
       gradientTransform="matrix(0.846045,-1.860709e-16,1.860709e-16,0.846045,-256.605,-81.72549)"
       x1="190.03462"
       y1="90.22673"
       x2="208.7153"
       y2="90.22673" />
    <linearGradient
       inkscape:collect="always"
       xlink:href="#linearGradient2584"
       id="linearGradient2847"
       gradientUnits="userSpaceOnUse"
       gradientTransform="matrix(0.846045,-1.860709e-16,1.860709e-16,0.846045,-236.597,-152.3837)"
       x1="254.01285"
       y1="282.73343"
       x2="183.3956"
       y2="212.11615" />
    <linearGradient
       inkscape:collect="always"
       xlink:href="#linearGradient2783"
       id="linearGradient2850"
       gradientUnits="userSpaceOnUse"
       gradientTransform="matrix(0.705792,-3.315894e-16,1.542688e-16,0.328364,-228.6959,-84.36606)"
       x1="190.03462"
       y1="90.22673"
       x2="207.94772"
       y2="90.22673" />
    <linearGradient
       inkscape:collect="always"
       xlink:href="#linearGradient2783"
       id="linearGradient2853"
       gradientUnits="userSpaceOnUse"
       gradientTransform="matrix(0.772206,-3.627912e-16,1.68785e-16,0.359262,-242.0146,-5.338632)"
       x1="190.03462"
       y1="90.22673"
       x2="207.94772"
       y2="90.22673" />
  </defs>
  <sodipodi:namedview
     id="base"
     pagecolor="#ffffff"
     bordercolor="#666666"
     borderopacity="1.0"
     inkscape:pageopacity="0.0"
     inkscape:pageshadow="2"
     inkscape:zoom="1.3621692"
     inkscape:cx="31.969816"
     inkscape:cy="20.118504"
     inkscape:current-layer="layer1"
     showgrid="true"
     inkscape:document-units="px"
     inkscape:grid-bbox="true"
     guidetolerance="0.1px"
     showguides="true"
     inkscape:guide-bbox="true"
     inkscape:window-width="1106"
     inkscape:window-height="958"
     inkscape:window-x="302"
     inkscape:window-y="118">
    <sodipodi:guide
       orientation="horizontal"
       position="32.487481"
       id="guide2204" />
  </sodipodi:namedview>
  <metadata
     id="metadata1312">
    <rdf:RDF>
      <cc:Work
         rdf:about="">
        <dc:format>image/svg+xml</dc:format>
        <dc:type
           rdf:resource="http://purl.org/dc/dcmitype/StillImage" />
        <cc:license
           rdf:resource="http://creativecommons.org/licenses/GPL/2.0/" />
        <dc:contributor>
          <cc:Agent>
            <dc:title>Oxygen team</dc:title>
          </cc:Agent>
        </dc:contributor>
      </cc:Work>
      <cc:License
         rdf:about="http://creativecommons.org/licenses/LGPL/2.1/">
        <cc:permits
           rdf:resource="http://web.resource.org/cc/Reproduction" />
        <cc:permits
           rdf:resource="http://web.resource.org/cc/Distribution" />
        <cc:requires
           rdf:resource="http://web.resource.org/cc/Notice" />
        <cc:permits
           rdf:resource="http://web.resource.org/cc/DerivativeWorks" />
        <cc:requires
           rdf:resource="http://web.resource.org/cc/ShareAlike" />
        <cc:requires
           rdf:resource="http://web.resource.org/cc/SourceCode" />
      </cc:License>
    </rdf:RDF>
  </metadata>
  <g
     id="layer1"
     inkscape:label="Layer 1"
     inkscape:groupmode="layer">
    <path
       sodipodi:nodetypes="ccc"
       id="path2276"
       d="M 50.892799,3.2812959 L 50.892799,0.48658747 L 50.892799,3.2812959 z "
       style="fill:#ffffff;fill-opacity:0.75688076;fill-rule:nonzero;stroke:none;stroke-width:0.5;stroke-linecap:round;stroke-linejoin:round;stroke-miterlimit:4;stroke-dasharray:none;stroke-dashoffset:4;stroke-opacity:1" />
    <path
       sodipodi:type="arc"
       style="opacity:0.38139535;fill:url(#radialGradient3297);fill-opacity:1;fill-rule:nonzero;stroke:none;stroke-width:0;stroke-linecap:round;stroke-linejoin:round;stroke-miterlimit:4;stroke-dasharray:none;stroke-dashoffset:4;stroke-opacity:1"
       id="path3289"
       sodipodi:cx="63.912209"
       sodipodi:cy="115.70919"
       sodipodi:rx="63.912209"
       sodipodi:ry="12.641975"
       d="M 127.82442 115.70919 A 63.912209 12.641975 0 1 1  0,115.70919 A 63.912209 12.641975 0 1 1  127.82442 115.70919 z"
       transform="matrix(1,0,0,0.39551,0,77.23588)" />
    <path
       sodipodi:nodetypes="ccc"
       id="path1987"
       d="M -21.591741,-220.6239 L -21.591741,-223.41861 L -21.591741,-220.6239 z "
       style="fill:#ffffff;fill-opacity:0.75688076;fill-rule:nonzero;stroke:none;stroke-width:0.5;stroke-linecap:round;stroke-linejoin:round;stroke-miterlimit:4;stroke-dasharray:none;stroke-dashoffset:4;stroke-opacity:1" />
    <path
       sodipodi:nodetypes="ccc"
       id="path1747"
       d="M 26.204559,-335.9479 L 26.204559,-338.74261 L 26.204559,-335.9479 z "
       style="fill:#ffffff;fill-opacity:0.75688076;fill-rule:nonzero;stroke:none;stroke-width:0.5;stroke-linecap:round;stroke-linejoin:round;stroke-miterlimit:4;stroke-dasharray:none;stroke-dashoffset:4;stroke-opacity:1" />
    <rect
       style="opacity:0.57786889;fill:#ffffff;fill-opacity:1;fill-rule:nonzero;stroke:none;stroke-width:3.63199997;stroke-linecap:round;stroke-linejoin:round;stroke-miterlimit:4;stroke-dasharray:none;stroke-dashoffset:4;stroke-opacity:1"
       id="rect1327"
       width="1"
       height="0"
       x="15.057414"
       y="-308.20486" />
    <rect
       ry="1.5715201"
       y="-1.3238357"
       x="-95.268616"
       height="56.80024"
       width="13.832608"
       id="rect3812"
       style="fill:url(#linearGradient2853);fill-opacity:1;fill-rule:nonzero;stroke:none;stroke-width:0.80000001;stroke-linecap:round;stroke-linejoin:round;stroke-miterlimit:4;stroke-dasharray:none;stroke-dashoffset:4;stroke-opacity:1"
       rx="1.5715201"
       transform="matrix(-0.707107,-0.707107,-0.707107,0.707107,0,0)" />
    <rect
       style="fill:url(#linearGradient2850);fill-opacity:1;fill-rule:nonzero;stroke:none;stroke-width:0.80000001;stroke-linecap:round;stroke-linejoin:round;stroke-miterlimit:4;stroke-dasharray:none;stroke-dashoffset:4;stroke-opacity:1"
       id="rect2810"
       width="12.642953"
       height="51.915211"
       x="-94.570763"
       y="-80.696533"
       ry="1.5715201"
       rx="1.5715201"
       transform="matrix(-0.707107,-0.707107,-0.707107,0.707107,0,0)" />
    <rect
       rx="1.5715201"
       style="fill:url(#linearGradient2847);fill-opacity:1;fill-rule:nonzero;stroke:none;stroke-width:0.80000001;stroke-linecap:round;stroke-linejoin:round;stroke-miterlimit:4;stroke-dasharray:none;stroke-dashoffset:4;stroke-opacity:1"
       id="rect1709"
       width="13.832608"
       height="56.80024"
       x="-95.268616"
       y="-1.3238357"
       ry="1.5715201"
       transform="matrix(-0.707107,-0.707107,-0.707107,0.707107,0,0)" />
    <rect
       y="-72.270515"
       x="-95.826942"
       height="113.90238"
       width="15.155313"
       id="rect2803"
       style="fill:url(#linearGradient2844);fill-opacity:1;fill-rule:nonzero;stroke:none;stroke-width:0.80000001;stroke-linecap:round;stroke-linejoin:round;stroke-miterlimit:4;stroke-dasharray:none;stroke-dashoffset:4;stroke-opacity:1"
       transform="matrix(-0.707107,-0.707107,-0.707107,0.707107,0,0)" />
    <rect
       style="fill:url(#linearGradient2841);fill-opacity:1;fill-rule:nonzero;stroke:none;stroke-width:0.80000001;stroke-linecap:round;stroke-linejoin:round;stroke-miterlimit:4;stroke-dasharray:none;stroke-dashoffset:4;stroke-opacity:1"
       id="rect2814"
       width="12.188831"
       height="6.9929328"
       x="-94.233086"
       y="-79.260315"
       transform="matrix(-0.707107,-0.707107,-0.707107,0.707107,0,0)" />
    <rect
       ry="1.5715201"
       y="-80.696533"
       x="-94.570763"
       height="2.8316047"
       width="12.642953"
       id="rect2848"
       style="fill:url(#linearGradient2838);fill-opacity:1;fill-rule:nonzero;stroke:none;stroke-width:0.80000001;stroke-linecap:round;stroke-linejoin:round;stroke-miterlimit:4;stroke-dasharray:none;stroke-dashoffset:4;stroke-opacity:1"
       rx="1.5715201"
       transform="matrix(-0.707107,-0.707107,-0.707107,0.707107,0,0)" />
    <rect
       style="opacity:0.25819672;fill:url(#linearGradient2835);fill-opacity:1;fill-rule:nonzero;stroke:none;stroke-width:0.80000001;stroke-linecap:round;stroke-linejoin:round;stroke-miterlimit:4;stroke-dasharray:none;stroke-dashoffset:4;stroke-opacity:1"
       id="rect3733"
       width="15.155313"
       height="1.5737327"
       x="-95.826942"
       y="-72.270515"
       transform="matrix(-0.707107,-0.707107,-0.707107,0.707107,0,0)" />
    <rect
       style="fill:url(#linearGradient2832);fill-opacity:1;fill-rule:nonzero;stroke:none;stroke-width:0.80000001;stroke-linecap:round;stroke-linejoin:round;stroke-miterlimit:4;stroke-dasharray:none;stroke-dashoffset:4;stroke-opacity:1"
       id="rect3967"
       width="14.677619"
       height="92.748161"
       x="-95.437614"
       y="-51.117054"
       transform="matrix(-0.707107,-0.707107,-0.707107,0.707107,0,0)" />
    <rect
       style="fill:url(#linearGradient2826);fill-opacity:1;fill-rule:nonzero;stroke:none;stroke-width:0.80000001;stroke-linecap:round;stroke-linejoin:round;stroke-miterlimit:4;stroke-dasharray:none;stroke-dashoffset:4;stroke-opacity:1"
       id="rect2824"
       width="4.1772237"
       height="56.155216"
       x="79.814896"
       y="-76.966949"
       transform="matrix(0.605754,0.795652,-0.715341,0.698775,0,0)" />
    <rect
       style="opacity:0.7786885;fill:url(#linearGradient2823);fill-opacity:1;fill-rule:nonzero;stroke:none;stroke-width:0.80000001;stroke-linecap:round;stroke-linejoin:round;stroke-miterlimit:4;stroke-dasharray:none;stroke-dashoffset:4;stroke-opacity:1"
       id="rect2892"
       width="5.6006055"
       height="1.4348657"
       x="-65.11599"
       y="82.316254"
       transform="matrix(-0.707107,0.707107,0.707107,0.707107,0,0)" />
    <g
       id="g3828"
       transform="matrix(0.817218,-0.218972,0.218972,0.817218,53.05252,-137.4677)">
      <path
         sodipodi:nodetypes="ccccsssssssssssssccssssssssssssssssssssscccccccssssssssssssssc"
         id="rect2826"
         d="M 13.86477,181.00757 L -45.518463,215.2925 L -45.499604,215.32517 L -45.728253,215.45717 C -45.74088,215.46446 -45.775242,215.48461 -45.793581,215.49489 C -45.801915,215.49981 -45.820246,215.50969 -45.826245,215.51375 C -45.83742,215.52044 -45.877496,215.54416 -45.891574,215.55147 C -45.895763,215.5539 -45.920635,215.56795 -45.924237,215.57032 C -45.946175,215.59282 -45.985519,215.64187 -46.003371,215.65957 C -46.010014,215.66646 -46.029521,215.67136 -46.036035,215.67843 C -46.182957,215.84486 -46.313983,216.09024 -46.370074,216.3068 C -46.383426,216.36341 -46.387395,216.43757 -46.392632,216.49404 C -46.391728,216.50864 -46.388684,216.56361 -46.387578,216.57822 C -46.386352,216.60014 -46.383087,216.64827 -46.382526,216.66241 C -46.381339,216.68121 -46.379519,216.72786 -46.377472,216.74659 C -46.376813,216.76123 -46.373296,216.81617 -46.372419,216.83078 C -46.366715,216.8585 -46.356234,216.92032 -46.348507,216.94763 C -46.341928,216.95879 -46.3176,217.00186 -46.31079,217.01297 L -45.175212,219.88505 C -45.169793,219.90337 -45.174474,219.94909 -45.170159,219.96923 C -45.168722,219.97596 -45.152871,219.99534 -45.1513,220.00191 C -45.149459,220.00811 -45.134678,220.02888 -45.132442,220.03457 C -45.129004,220.0404 -45.118096,220.06111 -45.113583,220.06723 C -45.092389,220.09245 -45.046964,220.12283 -45.024344,220.14637 C -45.019304,220.15186 -45.009636,220.17404 -45.005485,220.17903 C -44.999214,220.19059 -44.974179,220.23299 -44.967768,220.24436 C -44.955412,220.25246 -44.909867,220.28292 -44.897387,220.29083 C -44.895831,220.29373 -44.880066,220.32006 -44.878528,220.32349 C -44.865096,220.33329 -44.82203,220.36097 -44.808146,220.36995 C -44.798942,220.37231 -44.765855,220.38147 -44.756624,220.38376 C -44.73849,220.39345 -44.707381,220.41935 -44.686243,220.43023 C -44.68104,220.43263 -44.639764,220.44191 -44.634721,220.44404 C -44.626942,220.44666 -44.591047,220.45545 -44.583197,220.45784 C -44.575277,220.46003 -44.539665,220.46968 -44.531675,220.47165 C -44.523618,220.47339 -44.488266,220.48393 -44.480153,220.48546 C -44.471007,220.48799 -44.437785,220.49678 -44.428629,220.49927 C -44.414454,220.49847 -44.358716,220.49551 -44.344443,220.49421 C -44.327552,220.49411 -44.277271,220.49018 -44.260256,220.48915 C -44.247461,220.48804 -44.198153,220.48552 -44.17607,220.48411 C -44.134554,220.4748 -44.064223,220.45287 -44.026554,220.44133 C -44.019197,220.44112 -43.98341,220.45498 -43.975032,220.45514 L -43.844376,220.37971 C -43.835918,220.3751 -43.820137,220.36571 -43.811713,220.36084 L -42.897118,219.8328 L 16.260393,185.92505 L 13.86477,181.00757 z M -37.285044,213.10851 C -37.28253,213.1134 -37.301264,213.15428 -37.298851,213.16003 C -37.291882,213.17891 -37.267389,213.20738 -37.261133,213.22535 C -37.247256,213.26016 -37.226337,213.33748 -37.218363,213.37487 C -37.20701,213.4465 -37.194819,213.54772 -37.203203,213.62744 C -37.313083,214.39618 -38.286454,215.51585 -39.628733,216.29082 C -40.971019,217.0658 -42.286954,217.26785 -42.854083,216.88997 C -42.911006,216.84795 -42.993229,216.78718 -43.032562,216.7317 C -43.04967,216.69712 -43.063187,216.61263 -43.075333,216.58218 C -43.097444,216.50024 -43.112337,216.38113 -43.109351,216.29697 C -43.048828,215.52837 -42.084207,214.39853 -40.70268,213.60091 C -39.407502,212.85314 -38.108986,212.61476 -37.515047,212.93643 C -37.486469,212.95346 -37.450942,212.99569 -37.425807,213.01557 C -37.410572,213.02728 -37.371746,213.05041 -37.355426,213.06204 C -37.350216,213.06606 -37.341388,213.09045 -37.336568,213.0947 C -37.334617,213.09707 -37.28679,213.10605 -37.285044,213.10851 z "
         style="opacity:1;fill:url(#linearGradient2766);fill-opacity:1;fill-rule:nonzero;stroke:none;stroke-width:0.80000001;stroke-linecap:round;stroke-linejoin:round;stroke-miterlimit:4;stroke-dasharray:none;stroke-dashoffset:4;stroke-opacity:1" />
      <path
         sodipodi:nodetypes="ccccsssssssssssssccssssssssssssssssssssscccccc"
         style="opacity:1;fill:url(#linearGradient2768);fill-opacity:1;fill-rule:nonzero;stroke:none;stroke-width:0.80000001;stroke-linecap:round;stroke-linejoin:round;stroke-miterlimit:4;stroke-dasharray:none;stroke-dashoffset:4;stroke-opacity:1"
         d="M -45.714448,215.40565 L -45.518463,215.2925 L -45.499604,215.32517 L -45.728253,215.45717 C -45.74088,215.46446 -45.775242,215.48461 -45.793581,215.49489 C -45.801915,215.49981 -45.820246,215.50969 -45.826245,215.51375 C -45.83742,215.52044 -45.877496,215.54416 -45.891574,215.55147 C -45.895763,215.5539 -45.920635,215.56795 -45.924237,215.57032 C -45.946175,215.59282 -45.985519,215.64187 -46.003371,215.65957 C -46.010014,215.66646 -46.029521,215.67136 -46.036035,215.67843 C -46.182957,215.84486 -46.313983,216.09024 -46.370074,216.3068 C -46.383426,216.36341 -46.387395,216.43757 -46.392632,216.49404 C -46.391728,216.50864 -46.388684,216.56361 -46.387578,216.57822 C -46.386352,216.60014 -46.383087,216.64827 -46.382526,216.66241 C -46.381339,216.68121 -46.379519,216.72786 -46.377472,216.74659 C -46.376813,216.76123 -46.373296,216.81617 -46.372419,216.83078 C -46.366715,216.8585 -46.356234,216.92032 -46.348507,216.94763 C -46.341928,216.95879 -46.3176,217.00186 -46.31079,217.01297 L -45.175212,219.88505 C -45.169793,219.90337 -45.174474,219.94909 -45.170159,219.96923 C -45.168722,219.97596 -45.152871,219.99534 -45.1513,220.00191 C -45.149459,220.00811 -45.134678,220.02888 -45.132442,220.03457 C -45.129004,220.0404 -45.118096,220.06111 -45.113583,220.06723 C -45.092389,220.09245 -45.046964,220.12283 -45.024344,220.14637 C -45.019304,220.15186 -45.009636,220.17404 -45.005485,220.17903 C -44.999214,220.19059 -44.974179,220.23299 -44.967768,220.24436 C -44.955412,220.25246 -44.909867,220.28292 -44.897387,220.29083 C -44.895831,220.29373 -44.880066,220.32006 -44.878528,220.32349 C -44.865096,220.33329 -44.82203,220.36097 -44.808146,220.36995 C -44.798942,220.37231 -44.765855,220.38147 -44.756624,220.38376 C -44.73849,220.39345 -44.707381,220.41935 -44.686243,220.43023 C -44.68104,220.43263 -44.639764,220.44191 -44.634721,220.44404 C -44.626942,220.44666 -44.591047,220.45545 -44.583197,220.45784 C -44.575277,220.46003 -44.539665,220.46968 -44.531675,220.47165 C -44.523618,220.47339 -44.488266,220.48393 -44.480153,220.48546 C -44.471007,220.48799 -44.437785,220.49678 -44.428629,220.49927 C -44.414454,220.49847 -44.358716,220.49551 -44.344443,220.49421 C -44.327552,220.49411 -44.277271,220.49018 -44.260256,220.48915 C -44.247461,220.48804 -44.198153,220.48552 -44.17607,220.48411 C -44.134554,220.4748 -44.064223,220.45287 -44.026554,220.44133 C -44.019197,220.44112 -43.98341,220.45498 -43.975032,220.45514 L -43.844376,220.37971 C -43.835918,220.3751 -43.820137,220.36571 -43.811713,220.36084 L -42.897118,219.8328 L -43.746384,220.32312 L -45.714448,215.40565 z "
         id="path3792" />
    </g>
    <path
       sodipodi:type="arc"
       style="fill:url(#radialGradient2770);fill-opacity:1;fill-rule:nonzero;stroke:none;stroke-width:0.80000001;stroke-linecap:round;stroke-linejoin:round;stroke-miterlimit:4;stroke-dasharray:none;stroke-dashoffset:4;stroke-opacity:1"
       id="path3897"
       sodipodi:cx="-151.73438"
       sodipodi:cy="289.98047"
       sodipodi:rx="0.6328125"
       sodipodi:ry="0.6328125"
       d="M -151.10156 289.98047 A 0.6328125 0.6328125 0 1 1  -152.36719,289.98047 A 0.6328125 0.6328125 0 1 1  -151.10156 289.98047 z"
       transform="matrix(0.234987,-0.876987,-0.876987,-0.234987,293.9998,56.1983)" />
    <path
       transform="matrix(0.234987,-0.876987,-0.876987,-0.234987,293.9998,56.1983)"
       d="M -151.10156 289.98047 A 0.6328125 0.6328125 0 1 1  -152.36719,289.98047 A 0.6328125 0.6328125 0 1 1  -151.10156 289.98047 z"
       sodipodi:ry="0.6328125"
       sodipodi:rx="0.6328125"
       sodipodi:cy="289.98047"
       sodipodi:cx="-151.73438"
       id="path2902"
       style="fill:url(#linearGradient2772);fill-opacity:1;fill-rule:nonzero;stroke:none;stroke-width:0.80000001;stroke-linecap:round;stroke-linejoin:round;stroke-miterlimit:4;stroke-dasharray:none;stroke-dashoffset:4;stroke-opacity:1"
       sodipodi:type="arc" />
    <g
       id="g3953"
       transform="matrix(6.370089e-2,-0.237735,-0.237735,-6.370089e-2,81.1223,104.9701)">
      <rect
         ry="1.8574883"
         y="178.54808"
         x="167.04588"
         height="67.136131"
         width="16.349716"
         id="rect3945"
         style="opacity:1;fill:url(#linearGradient2774);fill-opacity:1;fill-rule:nonzero;stroke:none;stroke-width:0.80000001;stroke-linecap:round;stroke-linejoin:round;stroke-miterlimit:4;stroke-dasharray:none;stroke-dashoffset:4;stroke-opacity:1"
         rx="1.8574883"
         transform="matrix(0.5,0.866025,-0.866025,0.5,0,0)" />
      <path
         style="opacity:1;fill:url(#linearGradient2776);fill-opacity:1;fill-rule:nonzero;stroke:none;stroke-width:0.80000001;stroke-linecap:round;stroke-linejoin:round;stroke-miterlimit:4;stroke-dasharray:none;stroke-dashoffset:4;stroke-opacity:1"
         d="M -145.78378,283.42273 C -138.59591,276.69175 -128.85355,267.63505 -127.93118,266.7728 C -127.93073,266.77307 -119.8818,280.91965 -119.88534,280.92067 C -121.09278,281.27218 -133.74319,284.97064 -143.24776,287.73956 L -145.78378,283.42273 z "
         id="path3947"
         sodipodi:nodetypes="csscc" />
      <path
         sodipodi:nodetypes="csscc"
         id="path3949"
         d="M -145.78378,283.42273 C -138.59591,276.69175 -128.85355,267.63505 -127.93118,266.7728 C -127.93073,266.77307 -123.81603,278.06285 -123.81957,278.06387 C -125.02701,278.41538 -133.74319,284.97064 -143.24776,287.73956 L -145.78378,283.42273 z "
         style="opacity:1;fill:url(#linearGradient2778);fill-opacity:1;fill-rule:nonzero;stroke:none;stroke-width:0.80000001;stroke-linecap:round;stroke-linejoin:round;stroke-miterlimit:4;stroke-dasharray:none;stroke-dashoffset:4;stroke-opacity:1" />
      <path
         style="opacity:1;fill:url(#linearGradient2780);fill-opacity:1;fill-rule:nonzero;stroke:none;stroke-width:0.80000001;stroke-linecap:round;stroke-linejoin:round;stroke-miterlimit:4;stroke-dasharray:none;stroke-dashoffset:4;stroke-opacity:1"
         d="M -143.23729,287.75259 C -133.81415,284.8932 -122.67207,279.75187 -123.15491,278.5852 L -128.10201,266.63168 L -145.7849,283.42888 L -143.23729,287.75259 z "
         id="path3951"
         sodipodi:nodetypes="csccc" />
    </g>
    <path
       style="fill:url(#linearGradient2810);fill-opacity:1;fill-rule:nonzero;stroke:none;stroke-width:0.80000001;stroke-linecap:round;stroke-linejoin:round;stroke-miterlimit:4;stroke-dasharray:none;stroke-dashoffset:4;stroke-opacity:1"
       d="M 11.510224,116.62321 C 18.584846,112.22306 28.119431,106.2446 29.02605,105.67963 C 29.02593,105.6792 19.22759,96.003775 19.225974,96.006443 C 18.674317,96.91621 12.881794,106.44449 8.5377536,113.60547 L 11.510224,116.62321 z "
       id="path3836"
       sodipodi:nodetypes="csscc" />
    <path
       sodipodi:nodetypes="ccccc"
       id="path1701"
       d="M 8.5300349,113.65503 L 19.251363,96.122157 L 29.134771,105.73885 L 11.547779,116.6275 L 8.5300349,113.65503 z "
       style="opacity:0.72540989;fill:url(#linearGradient2807);fill-opacity:1;fill-rule:nonzero;stroke:none;stroke-width:0.80000001;stroke-linecap:round;stroke-linejoin:round;stroke-miterlimit:4;stroke-dasharray:none;stroke-dashoffset:4;stroke-opacity:1" />
    <path
       sodipodi:nodetypes="csscc"
       id="path3875"
       d="M 11.535261,116.60893 C 18.609883,112.20877 28.144464,106.23031 29.051083,105.66535 C 29.050964,105.66491 19.252627,95.989484 19.251011,95.992148 C 18.699354,96.901924 12.906831,106.43021 8.5627907,113.59119 L 11.535261,116.60893 z "
       style="fill:url(#linearGradient2804);fill-opacity:1;fill-rule:nonzero;stroke:none;stroke-width:0.80000001;stroke-linecap:round;stroke-linejoin:round;stroke-miterlimit:4;stroke-dasharray:none;stroke-dashoffset:4;stroke-opacity:1" />
    <path
       style="opacity:0.72540989;fill:url(#linearGradient2801);fill-opacity:1;fill-rule:nonzero;stroke:none;stroke-width:0.80000001;stroke-linecap:round;stroke-linejoin:round;stroke-miterlimit:4;stroke-dasharray:none;stroke-dashoffset:4;stroke-opacity:1"
       d="M 8.4027928,113.5468 L 19.124121,96.013934 L 29.007529,105.63062 L 11.420537,116.51927 L 8.4027928,113.5468 z "
       id="path1705"
       sodipodi:nodetypes="ccccc" />
    <path
       style="opacity:0.72540989;fill:url(#linearGradient2798);fill-opacity:1;fill-rule:nonzero;stroke:none;stroke-width:0.80000001;stroke-linecap:round;stroke-linejoin:round;stroke-miterlimit:4;stroke-dasharray:none;stroke-dashoffset:4;stroke-opacity:1"
       d="M 8.4978178,113.32879 L 19.249395,96.098376 L 28.991114,105.64617 L 11.485324,116.57348 L 8.4978178,113.32879 z "
       id="path3937"
       sodipodi:nodetypes="ccccc" />
    <path
       style="opacity:0.7786885;fill:url(#linearGradient2795);fill-opacity:1;fill-rule:nonzero;stroke:none;stroke-width:0.80000001;stroke-linecap:round;stroke-linejoin:round;stroke-miterlimit:4;stroke-dashoffset:4;stroke-opacity:1"
       d="M 28.173716,87.302841 L 34.021153,97.958849 L 29.148397,105.60782 L 19.508561,95.967974 L 28.173716,87.302841 z "
       id="rect2592"
       sodipodi:nodetypes="ccccc" />
    <rect
       style="opacity:0.52459011;fill:#e0e0e0;fill-opacity:1;fill-rule:nonzero;stroke:none;stroke-width:5.80000019;stroke-linecap:butt;stroke-linejoin:miter;stroke-miterlimit:4;stroke-dasharray:none;stroke-dashoffset:4;stroke-opacity:1"
       id="rect1851"
       width="26.387548"
       height="15.189734"
       x="6.7745705"
       y="80.599449"
       transform="matrix(-0.707107,0.707107,0.707107,0.707107,0,0)" />
  </g>
</svg>
