<?xml version="1.0" encoding="UTF-8" standalone="no"?>
<!-- Created with Inkscape (http://www.inkscape.org/) -->
<svg
   xmlns:dc="http://purl.org/dc/elements/1.1/"
   xmlns:cc="http://web.resource.org/cc/"
   xmlns:rdf="http://www.w3.org/1999/02/22-rdf-syntax-ns#"
   xmlns:svg="http://www.w3.org/2000/svg"
   xmlns="http://www.w3.org/2000/svg"
   xmlns:xlink="http://www.w3.org/1999/xlink"
   xmlns:sodipodi="http://sodipodi.sourceforge.net/DTD/sodipodi-0.dtd"
   xmlns:inkscape="http://www.inkscape.org/namespaces/inkscape"
   width="128"
   height="128"
   id="svg2"
   sodipodi:version="0.32"
   inkscape:version="0.45.1"
   version="1.0"
   sodipodi:docbase="/home/david/Oxygen/kdelibs/scalable/actions"
   sodipodi:docname="rss.svg"
   inkscape:output_extension="org.inkscape.output.svg.inkscape"
   inkscape:export-filename="/home/david/Oxygen/kdelibs/scalable/actions/rss.png"
   inkscape:export-xdpi="90"
   inkscape:export-ydpi="90">
  <defs
     id="defs4">
    <linearGradient
       inkscape:collect="always"
       id="linearGradient6674">
      <stop
         style="stop-color:#bf5e00;stop-opacity:1;"
         offset="0"
         id="stop6676" />
      <stop
         style="stop-color:#bf5e00;stop-opacity:0;"
         offset="1"
         id="stop6678" />
    </linearGradient>
    <linearGradient
       id="linearGradient6666"
       inkscape:collect="always">
      <stop
         id="stop6668"
         offset="0"
         style="stop-color:#ffbf00;stop-opacity:1" />
      <stop
         id="stop6670"
         offset="1"
         style="stop-color:#ff7e00;stop-opacity:1" />
    </linearGradient>
    <linearGradient
       inkscape:collect="always"
       id="linearGradient6643">
      <stop
         style="stop-color:#ffdfbf;stop-opacity:1;"
         offset="0"
         id="stop6645" />
      <stop
         style="stop-color:#ffdfbf;stop-opacity:0;"
         offset="1"
         id="stop6647" />
    </linearGradient>
    <linearGradient
       id="linearGradient6631">
      <stop
         style="stop-color:#703700;stop-opacity:1;"
         offset="0"
         id="stop6633" />
      <stop
         style="stop-color:#bf5e00;stop-opacity:0;"
         offset="1"
         id="stop6635" />
    </linearGradient>
    <linearGradient
       inkscape:collect="always"
       id="linearGradient6610">
      <stop
         style="stop-color:#ffbf80;stop-opacity:1;"
         offset="0"
         id="stop6612" />
      <stop
         style="stop-color:#ffbf80;stop-opacity:0;"
         offset="1"
         id="stop6614" />
    </linearGradient>
    <linearGradient
       inkscape:collect="always"
       id="linearGradient6559">
      <stop
         style="stop-color:#ffffff;stop-opacity:1;"
         offset="0"
         id="stop6561" />
      <stop
         style="stop-color:#ffffff;stop-opacity:0;"
         offset="1"
         id="stop6563" />
    </linearGradient>
    <linearGradient
       inkscape:collect="always"
       id="linearGradient6446">
      <stop
         style="stop-color:#ffffff;stop-opacity:1;"
         offset="0"
         id="stop6448" />
      <stop
         style="stop-color:#ffffff;stop-opacity:0;"
         offset="1"
         id="stop6450" />
    </linearGradient>
    <linearGradient
       inkscape:collect="always"
       id="linearGradient6404">
      <stop
         style="stop-color:#ed7500;stop-opacity:1;"
         offset="0"
         id="stop6406" />
      <stop
         style="stop-color:#ff7b07;stop-opacity:1"
         offset="1"
         id="stop6408" />
    </linearGradient>
    <linearGradient
       inkscape:collect="always"
       id="linearGradient9643">
      <stop
         style="stop-color:#ffaa00;stop-opacity:1;"
         offset="0"
         id="stop9645" />
      <stop
         style="stop-color:#ff7e00;stop-opacity:1"
         offset="1"
         id="stop9647" />
    </linearGradient>
    <radialGradient
       inkscape:collect="always"
       xlink:href="#linearGradient9643"
       id="radialGradient9651"
       cx="12.040753"
       cy="118.14538"
       fx="12.040753"
       fy="118.14538"
       r="42.559486"
       gradientUnits="userSpaceOnUse"
       spreadMethod="reflect"
       gradientTransform="matrix(1.7951011,0,0,1.7951011,-9.5736166,-93.937523)" />
    <radialGradient
       inkscape:collect="always"
       xlink:href="#linearGradient6666"
       id="radialGradient9692"
       gradientUnits="userSpaceOnUse"
       gradientTransform="matrix(1.1890799,0,0,1.1890799,-114.77413,-31.375729)"
       spreadMethod="pad"
       cx="42.700352"
       cy="103.5803"
       fx="42.700352"
       fy="103.5803"
       r="42.559486" />
    <linearGradient
       inkscape:collect="always"
       xlink:href="#linearGradient6404"
       id="linearGradient6410"
       x1="39.741936"
       y1="113.54839"
       x2="11.458064"
       y2="13.006452"
       gradientUnits="userSpaceOnUse" />
    <linearGradient
       inkscape:collect="always"
       xlink:href="#linearGradient6446"
       id="linearGradient6452"
       x1="21.094994"
       y1="21.101994"
       x2="13.96104"
       y2="28.235947"
       gradientUnits="userSpaceOnUse"
       spreadMethod="reflect"
       gradientTransform="translate(0.4129032,0.6193548)" />
    <filter
       inkscape:collect="always"
       id="filter6458">
      <feGaussianBlur
         inkscape:collect="always"
         stdDeviation="0.28444187"
         id="feGaussianBlur6460" />
    </filter>
    <linearGradient
       inkscape:collect="always"
       xlink:href="#linearGradient6446"
       id="linearGradient6464"
       gradientUnits="userSpaceOnUse"
       gradientTransform="translate(0.4129032,0.6193548)"
       spreadMethod="reflect"
       x1="21.094994"
       y1="21.101994"
       x2="13.96104"
       y2="28.235947" />
    <linearGradient
       inkscape:collect="always"
       xlink:href="#linearGradient6446"
       id="linearGradient6470"
       gradientUnits="userSpaceOnUse"
       gradientTransform="translate(0.4129032,0.6193548)"
       spreadMethod="reflect"
       x1="21.094994"
       y1="21.101994"
       x2="13.96104"
       y2="28.235947" />
    <linearGradient
       inkscape:collect="always"
       xlink:href="#linearGradient6446"
       id="linearGradient6472"
       gradientUnits="userSpaceOnUse"
       gradientTransform="translate(0.4129032,0.6193548)"
       spreadMethod="reflect"
       x1="21.094994"
       y1="21.101994"
       x2="13.96104"
       y2="28.235947" />
    <linearGradient
       inkscape:collect="always"
       xlink:href="#linearGradient6559"
       id="linearGradient6565"
       x1="100.10323"
       y1="46.5"
       x2="23.922581"
       y2="-14.816129"
       gradientUnits="userSpaceOnUse"
       gradientTransform="translate(0,4)" />
    <linearGradient
       inkscape:collect="always"
       xlink:href="#linearGradient6610"
       id="linearGradient6616"
       x1="59.225807"
       y1="20.283871"
       x2="59.225807"
       y2="117.32368"
       gradientUnits="userSpaceOnUse" />
    <linearGradient
       inkscape:collect="always"
       xlink:href="#linearGradient6631"
       id="linearGradient6637"
       x1="55.329033"
       y1="112"
       x2="55.329033"
       y2="74.913147"
       gradientUnits="userSpaceOnUse" />
    <linearGradient
       inkscape:collect="always"
       xlink:href="#linearGradient6643"
       id="linearGradient6649"
       x1="62.038712"
       y1="15.91371"
       x2="62.038712"
       y2="50.728985"
       gradientUnits="userSpaceOnUse" />
    <linearGradient
       inkscape:collect="always"
       xlink:href="#linearGradient6610"
       id="linearGradient6655"
       gradientUnits="userSpaceOnUse"
       x1="59.225807"
       y1="20.283871"
       x2="59.225807"
       y2="117.32368"
       gradientTransform="translate(0,1.6516129)" />
    <linearGradient
       inkscape:collect="always"
       xlink:href="#linearGradient6610"
       id="linearGradient6657"
       gradientUnits="userSpaceOnUse"
       x1="59.225807"
       y1="20.283871"
       x2="59.225807"
       y2="117.32368" />
    <filter
       inkscape:collect="always"
       x="-0.013205966"
       width="1.0264119"
       y="-0.13140636"
       height="1.2628127"
       id="filter6660">
      <feGaussianBlur
         inkscape:collect="always"
         stdDeviation="0.48421875"
         id="feGaussianBlur6662" />
    </filter>
    <linearGradient
       inkscape:collect="always"
       xlink:href="#linearGradient6674"
       id="linearGradient6680"
       x1="19.096775"
       y1="50.580647"
       x2="80.047699"
       y2="66.897575"
       gradientUnits="userSpaceOnUse" />
  </defs>
  <sodipodi:namedview
     id="base"
     pagecolor="#ffffff"
     bordercolor="#666666"
     borderopacity="1.0"
     gridtolerance="10000"
     guidetolerance="10"
     objecttolerance="10"
     inkscape:pageopacity="0.0"
     inkscape:pageshadow="2"
     inkscape:zoom="0.25"
     inkscape:cx="64"
     inkscape:cy="64"
     inkscape:document-units="px"
     inkscape:current-layer="layer1"
     width="128px"
     height="128px"
     gridempspacing="2"
     gridspacingx="4px"
     gridspacingy="4px"
     showgrid="false"
     borderlayer="true"
     inkscape:showpageshadow="false"
     showborder="false"
     inkscape:window-width="747"
     inkscape:window-height="732"
     inkscape:window-x="2"
     inkscape:window-y="0" />
  <metadata
     id="metadata7">
    <rdf:RDF>
      <cc:Work
         rdf:about="">
        <dc:format>image/svg+xml</dc:format>
        <dc:type
           rdf:resource="http://purl.org/dc/dcmitype/StillImage" />
      </cc:Work>
    </rdf:RDF>
  </metadata>
  <g
     inkscape:label="Layer 1"
     inkscape:groupmode="layer"
     id="layer1">
    <rect
       style="opacity:1;fill:url(#linearGradient6410);fill-opacity:1.0;stroke:none;stroke-width:3;stroke-linecap:round;stroke-linejoin:round;stroke-miterlimit:4;stroke-dasharray:none;stroke-opacity:1"
       id="rect8666"
       width="96"
       height="96"
       x="16"
       y="16"
       rx="10.083601"
       ry="10.083601" />
    <rect
       ry="10.083601"
       rx="10.083601"
       y="16"
       x="16"
       height="96"
       width="96"
       id="rect6672"
       style="opacity:0.08290155;fill:url(#linearGradient6680);fill-opacity:1.0;stroke:none;stroke-width:3;stroke-linecap:round;stroke-linejoin:round;stroke-miterlimit:4;stroke-dasharray:none;stroke-opacity:1" />
    <rect
       ry="7.2025723"
       rx="7.2025723"
       y="20"
       x="20"
       height="88"
       width="88"
       id="rect9639"
       style="opacity:1;fill:#ffdfbf;fill-opacity:1;stroke:none;stroke-width:3;stroke-linecap:round;stroke-linejoin:round;stroke-miterlimit:4;stroke-dasharray:none;stroke-opacity:1" />
    <rect
       style="opacity:1;fill:url(#radialGradient9692);fill-opacity:1.0;stroke:none;stroke-width:3;stroke-linecap:round;stroke-linejoin:round;stroke-miterlimit:4;stroke-dasharray:none;stroke-opacity:1"
       id="rect9641"
       width="86.770584"
       height="86.770584"
       x="-107.38529"
       y="20.614708"
       rx="7.0014315"
       ry="7.0014315"
       transform="scale(-1,1)" />
    <path
       style="opacity:1;fill:url(#linearGradient6616);fill-opacity:1.0;stroke:none;stroke-width:3;stroke-linecap:round;stroke-linejoin:round;stroke-miterlimit:4;stroke-dasharray:none;stroke-opacity:1"
       d="M 27.1875,20.283871 C 23.197275,20.283871 20,23.481146 20,27.471371 L 20,76.866459 C 23.511694,69.954716 44.107239,62.397647 65.270059,59.909547 C 83.051288,57.819019 104.22758,50.371051 108,43.971262 L 108,27.471371 C 108,23.481146 104.80273,20.283871 100.8125,20.283871 L 27.1875,20.283871 z "
       id="rect9679"
       sodipodi:nodetypes="cccscccc" />
    <path
       style="opacity:1;fill:#ffffff;fill-opacity:1;stroke:none;stroke-width:3;stroke-linecap:round;stroke-linejoin:round;stroke-miterlimit:4;stroke-dasharray:none;stroke-opacity:1"
       d="M 34 56 C 31.957574 56 29.955422 56.158013 28 56.46875 L 28 64.625 C 29.943029 64.229146 31.940621 64 34 64 C 50.560001 63.999998 64 77.440007 64 94 C 64 96.059378 63.770853 98.056971 63.375 100 L 71.53125 100 C 71.841987 98.044579 72 96.042425 72 94 C 72 73.024011 54.975995 55.999999 34 56 z M 34 72 C 31.896951 72 29.864011 72.291893 27.9375 72.84375 C 27.968224 73.081233 28 73.316385 28 73.5625 L 28 81.375 C 29.824806 80.503203 31.843952 80 34 80 C 41.727997 79.999997 48 86.272004 48 94 C 48 96.156046 47.496797 98.175194 46.625 100 L 55.15625 100 C 55.697492 98.090651 56 96.081982 56 94 C 56 81.856005 46.144 71.999999 34 72 z M 34 88 C 30.688 88 28 90.688003 28 94 C 28 97.311999 30.687999 100 34 100 C 37.312 100 39.999999 97.312001 40 94 C 40 90.688001 37.311999 87.999997 34 88 z "
       id="path9653" />
    <path
       style="opacity:0.77720207;fill:url(#linearGradient6452);fill-opacity:1;stroke:none;stroke-width:3;stroke-linecap:round;stroke-linejoin:round;stroke-miterlimit:4;stroke-dasharray:none;stroke-opacity:1;filter:url(#filter6458)"
       d="M 26.246568,16.978625 C 21.556393,16.978625 16.769225,20.633334 16.769225,26.464073 L 20.77674,25.639205 C 21.229113,23.50937 23.628704,21.368243 25.303345,21.03582 L 26.246568,16.978625 z "
       id="rect6433"
       sodipodi:nodetypes="ccccc" />
    <path
       sodipodi:nodetypes="ccccc"
       id="path6462"
       d="M 26.246568,16.978625 C 21.556393,16.978625 16.769225,20.633334 16.769225,26.464073 L 20.77674,25.639205 C 21.229113,23.50937 23.628704,21.368243 25.303345,21.03582 L 26.246568,16.978625 z "
       style="opacity:0.77720207;fill:url(#linearGradient6464);fill-opacity:1;stroke:none;stroke-width:3;stroke-linecap:round;stroke-linejoin:round;stroke-miterlimit:4;stroke-dasharray:none;stroke-opacity:1;filter:url(#filter6458)"
       transform="matrix(-1,0,0,1,127.86741,0)" />
    <path
       style="opacity:0.08290155;fill:url(#linearGradient6637);fill-opacity:1.0;stroke:none;stroke-width:3;stroke-linecap:round;stroke-linejoin:round;stroke-miterlimit:4;stroke-dasharray:none;stroke-opacity:1"
       d="M 16 97.875 L 16 101.90625 C 16 107.49256 20.507435 112 26.09375 112 L 101.90625 112 C 107.49256 112 112 107.49257 112 101.90625 L 112 97.875 C 112 103.46131 107.49256 107.96875 101.90625 107.96875 L 26.09375 107.96875 C 20.507435 107.96875 16 103.46131 16 97.875 z "
       id="rect6626" />
    <path
       sodipodi:nodetypes="ccccc"
       id="path6466"
       d="M 26.246568,16.978625 C 21.556393,16.978625 16.769225,20.633334 16.769225,26.464073 L 20.77674,25.639205 C 21.229113,23.50937 23.628704,21.368243 25.303345,21.03582 L 26.246568,16.978625 z "
       style="opacity:0.32642487;fill:url(#linearGradient6470);fill-opacity:1;stroke:none;stroke-width:3;stroke-linecap:round;stroke-linejoin:round;stroke-miterlimit:4;stroke-dasharray:none;stroke-opacity:1;filter:url(#filter6458)"
       transform="matrix(1,0,0,-1,0,128.08786)" />
    <path
       transform="matrix(-1,0,0,-1,127.86741,128.08786)"
       style="opacity:0.1761658;fill:url(#linearGradient6472);fill-opacity:1;stroke:none;stroke-width:3;stroke-linecap:round;stroke-linejoin:round;stroke-miterlimit:4;stroke-dasharray:none;stroke-opacity:1;filter:url(#filter6458)"
       d="M 26.246568,16.978625 C 21.556393,16.978625 16.769225,20.633334 16.769225,26.464073 L 20.77674,25.639205 C 21.229113,23.50937 23.628704,21.368243 25.303345,21.03582 L 26.246568,16.978625 z "
       id="path6468"
       sodipodi:nodetypes="ccccc" />
    <path
       style="opacity:1;fill:url(#linearGradient6565);fill-opacity:1;stroke:none;stroke-width:3;stroke-linecap:round;stroke-linejoin:round;stroke-miterlimit:4;stroke-dasharray:none;stroke-opacity:1"
       d="M 25.875,20.408871 C 22.512523,21.015142 20,23.92547 20,27.471371 L 20,76.875 C 20.255194,76.372724 20.601957,75.850649 21.03125,75.34375 L 21.03125,27.096371 C 21.03125,23.964613 23.060268,21.321293 25.875,20.408871 z M 102.125,20.408871 C 104.93973,21.321293 106.96875,23.964612 106.96875,27.096371 L 106.96875,43.3125 C 103.28483,49.562148 82.614072,56.833516 65.25,58.875 C 44.745124,61.285746 24.785177,68.54371 21.125,75.25 C 26.712235,68.812283 45.755283,62.201906 65.28125,59.90625 C 83.06248,57.815723 104.22758,50.368539 108,43.96875 L 108,27.471371 C 108,23.92547 105.48748,21.015142 102.125,20.408871 z "
       id="path6544"
       sodipodi:nodetypes="cccccccccscsccc" />
    <path
       id="path6639"
       d="M 16,30.03871 L 16,26.00746 C 16,20.42115 20.507435,15.91371 26.09375,15.91371 L 101.90625,15.91371 C 107.49256,15.91371 112,20.42114 112,26.00746 L 112,30.03871 C 112,24.4524 107.49256,19.94496 101.90625,19.94496 L 26.09375,19.94496 C 20.507435,19.94496 16,24.4524 16,30.03871 z "
       style="opacity:0.38860104;fill:url(#linearGradient6649);fill-opacity:1.0;stroke:none;stroke-width:3;stroke-linecap:round;stroke-linejoin:round;stroke-miterlimit:4;stroke-dasharray:none;stroke-opacity:1" />
    <path
       style="opacity:1;fill:#ffffff;fill-opacity:1;stroke:none;stroke-width:3;stroke-linecap:round;stroke-linejoin:round;stroke-miterlimit:4;stroke-dasharray:none;stroke-opacity:1;filter:url(#filter6660)"
       d="M 27.1875,20.28125 C 23.197275,20.28125 20,23.478525 20,27.46875 L 20,29.125 C 20,25.134775 23.197275,21.9375 27.1875,21.9375 L 100.8125,21.9375 C 104.80273,21.9375 108,25.134775 108,29.125 L 108,27.46875 C 108,23.478525 104.80273,20.28125 100.8125,20.28125 L 27.1875,20.28125 z "
       id="path6651"
       transform="matrix(0.9896076,0,0,1.035048,0.6651155,-1.175751)" />
  </g>
</svg>
