<?xml version="1.0" encoding="UTF-8" standalone="no"?>
<!-- Created with Inkscape (http://www.inkscape.org/) -->
<svg
   xmlns:dc="http://purl.org/dc/elements/1.1/"
   xmlns:cc="http://web.resource.org/cc/"
   xmlns:rdf="http://www.w3.org/1999/02/22-rdf-syntax-ns#"
   xmlns:svg="http://www.w3.org/2000/svg"
   xmlns="http://www.w3.org/2000/svg"
   xmlns:xlink="http://www.w3.org/1999/xlink"
   xmlns:sodipodi="http://inkscape.sourceforge.net/DTD/sodipodi-0.dtd"
   xmlns:inkscape="http://www.inkscape.org/namespaces/inkscape"
   width="128"
   height="128"
   id="svg1307"
   sodipodi:version="0.32"
   inkscape:version="0.43"
   version="1.0"
   sodipodi:docbase="/home/pinheiro/Documents/pics/new oxygen/svg"
   sodipodi:docname="spread.svg">
  <defs
     id="defs1309">
    <linearGradient
       inkscape:collect="always"
       id="linearGradient3163">
      <stop
         style="stop-color:#ffffff;stop-opacity:1;"
         offset="0"
         id="stop3165" />
      <stop
         style="stop-color:#ffffff;stop-opacity:0;"
         offset="1"
         id="stop3167" />
    </linearGradient>
    <linearGradient
       inkscape:collect="always"
       id="linearGradient2280">
      <stop
         style="stop-color:#000000;stop-opacity:1;"
         offset="0"
         id="stop2282" />
      <stop
         style="stop-color:#000000;stop-opacity:0;"
         offset="1"
         id="stop2284" />
    </linearGradient>
    <linearGradient
       inkscape:collect="always"
       id="linearGradient2272">
      <stop
         style="stop-color:#000000;stop-opacity:1;"
         offset="0"
         id="stop2274" />
      <stop
         style="stop-color:#000000;stop-opacity:0;"
         offset="1"
         id="stop2276" />
    </linearGradient>
    <linearGradient
       inkscape:collect="always"
       id="linearGradient2264">
      <stop
         style="stop-color:#000000;stop-opacity:1;"
         offset="0"
         id="stop2266" />
      <stop
         style="stop-color:#000000;stop-opacity:0;"
         offset="1"
         id="stop2268" />
    </linearGradient>
    <linearGradient
       inkscape:collect="always"
       id="linearGradient2353">
      <stop
         style="stop-color:#000000;stop-opacity:1;"
         offset="0"
         id="stop2355" />
      <stop
         style="stop-color:#000000;stop-opacity:0;"
         offset="1"
         id="stop2357" />
    </linearGradient>
    <linearGradient
       inkscape:collect="always"
       id="linearGradient2323">
      <stop
         style="stop-color:#ffffff;stop-opacity:1;"
         offset="0"
         id="stop2325" />
      <stop
         style="stop-color:#ffffff;stop-opacity:0;"
         offset="1"
         id="stop2327" />
    </linearGradient>
    <linearGradient
       inkscape:collect="always"
       id="linearGradient2313">
      <stop
         style="stop-color:#000000;stop-opacity:1;"
         offset="0"
         id="stop2315" />
      <stop
         style="stop-color:#000000;stop-opacity:0;"
         offset="1"
         id="stop2317" />
    </linearGradient>
    <linearGradient
       id="linearGradient2297">
      <stop
         style="stop-color:#000000;stop-opacity:1;"
         offset="0"
         id="stop2299" />
      <stop
         id="stop2307"
         offset="0.25"
         style="stop-color:#000000;stop-opacity:1;" />
      <stop
         id="stop2305"
         offset="0.5"
         style="stop-color:#ffffff;stop-opacity:1;" />
      <stop
         style="stop-color:#000000;stop-opacity:1;"
         offset="0.75"
         id="stop2309" />
      <stop
         style="stop-color:#000000;stop-opacity:1;"
         offset="1"
         id="stop2301" />
    </linearGradient>
    <linearGradient
       id="linearGradient3325">
      <stop
         id="stop3327"
         offset="0"
         style="stop-color:#ffffff;stop-opacity:1;" />
      <stop
         id="stop3329"
         offset="1"
         style="stop-color:#ffffff;stop-opacity:0;" />
    </linearGradient>
    <linearGradient
       id="linearGradient3311">
      <stop
         style="stop-color:#2d2d2d;stop-opacity:1;"
         offset="0"
         id="stop3313" />
      <stop
         id="stop3319"
         offset="0.5"
         style="stop-color:#000000;stop-opacity:1;" />
      <stop
         style="stop-color:#000000;stop-opacity:1;"
         offset="1"
         id="stop3315" />
    </linearGradient>
    <linearGradient
       id="linearGradient3303">
      <stop
         style="stop-color:#ffffff;stop-opacity:0.68345326;"
         offset="0"
         id="stop3305" />
      <stop
         style="stop-color:#ffffff;stop-opacity:0;"
         offset="1"
         id="stop3307" />
    </linearGradient>
    <linearGradient
       inkscape:collect="always"
       id="linearGradient3291">
      <stop
         style="stop-color:#000000;stop-opacity:1;"
         offset="0"
         id="stop3293" />
      <stop
         style="stop-color:#000000;stop-opacity:0;"
         offset="1"
         id="stop3295" />
    </linearGradient>
    <linearGradient
       id="linearGradient3273">
      <stop
         style="stop-color:#ffffff;stop-opacity:0.55035973;"
         offset="0"
         id="stop3275" />
      <stop
         style="stop-color:#ffffff;stop-opacity:0;"
         offset="1"
         id="stop3277" />
    </linearGradient>
    <linearGradient
       id="linearGradient3259">
      <stop
         id="stop3261"
         offset="0"
         style="stop-color:#ffffff;stop-opacity:0.55035973;" />
      <stop
         id="stop3263"
         offset="1"
         style="stop-color:#000000;stop-opacity:0;" />
    </linearGradient>
    <linearGradient
       id="linearGradient3251">
      <stop
         style="stop-color:#000000;stop-opacity:1;"
         offset="0"
         id="stop3253" />
      <stop
         style="stop-color:#131313;stop-opacity:0;"
         offset="1"
         id="stop3255" />
    </linearGradient>
    <linearGradient
       inkscape:collect="always"
       id="linearGradient3235">
      <stop
         style="stop-color:#ffffff;stop-opacity:1;"
         offset="0"
         id="stop3237" />
      <stop
         style="stop-color:#ffffff;stop-opacity:0;"
         offset="1"
         id="stop3239" />
    </linearGradient>
    <linearGradient
       id="linearGradient3225">
      <stop
         style="stop-color:#ffffff;stop-opacity:1;"
         offset="0"
         id="stop3227" />
      <stop
         style="stop-color:#aeaeae;stop-opacity:1;"
         offset="1"
         id="stop3229" />
    </linearGradient>
    <linearGradient
       inkscape:collect="always"
       id="linearGradient3217">
      <stop
         style="stop-color:#252525;stop-opacity:1;"
         offset="0"
         id="stop3219" />
      <stop
         style="stop-color:#252525;stop-opacity:0;"
         offset="1"
         id="stop3221" />
    </linearGradient>
    <linearGradient
       id="linearGradient3207">
      <stop
         style="stop-color:#ffffff;stop-opacity:1;"
         offset="0"
         id="stop3209" />
      <stop
         style="stop-color:#252525;stop-opacity:0;"
         offset="1"
         id="stop3211" />
    </linearGradient>
    <linearGradient
       id="linearGradient2257">
      <stop
         style="stop-color:#b4942a;stop-opacity:1;"
         offset="0"
         id="stop2259" />
      <stop
         style="stop-color:#e4dcc9;stop-opacity:1"
         offset="1"
         id="stop2261" />
    </linearGradient>
    <radialGradient
       inkscape:collect="always"
       xlink:href="#linearGradient3291"
       id="radialGradient3297"
       cx="63.912209"
       cy="115.70919"
       fx="14.046639"
       fy="115.70919"
       r="63.912209"
       gradientTransform="matrix(1,0,0,0.197802,0,92.82166)"
       gradientUnits="userSpaceOnUse" />
    <radialGradient
       inkscape:collect="always"
       xlink:href="#linearGradient2257"
       id="radialGradient1495"
       gradientUnits="userSpaceOnUse"
       gradientTransform="matrix(1.520175,8.839467e-2,-0.843351,13.788,109.1206,-1545.323)"
       cx="42.617531"
       cy="120.64188"
       fx="42.617531"
       fy="120.64188"
       r="3.406888" />
    <radialGradient
       inkscape:collect="always"
       xlink:href="#linearGradient3311"
       id="radialGradient1497"
       gradientUnits="userSpaceOnUse"
       gradientTransform="matrix(6.228741e-2,-3.825032e-4,4.90218e-3,0.798611,68.90433,5.49306)"
       cx="95.505852"
       cy="59.591507"
       fx="95.505852"
       fy="59.591507"
       r="47.746404" />
    <radialGradient
       inkscape:collect="always"
       xlink:href="#linearGradient3225"
       id="radialGradient1499"
       gradientUnits="userSpaceOnUse"
       gradientTransform="matrix(1.297068,-1.880044e-3,7.085819e-4,0.48867,6.806484,-3.45491)"
       cx="49.009884"
       cy="8.4953122"
       fx="47.370888"
       fy="6.7701697"
       r="3.9750405" />
    <linearGradient
       inkscape:collect="always"
       xlink:href="#linearGradient3217"
       id="linearGradient1501"
       gradientUnits="userSpaceOnUse"
       gradientTransform="matrix(1.29707,-4.963626e-16,4.758308e-16,1.29707,6.81152,-10.31269)"
       x1="48.914677"
       y1="2.9719031"
       x2="48.913002"
       y2="2.5548496" />
    <radialGradient
       inkscape:collect="always"
       xlink:href="#linearGradient3207"
       id="radialGradient1503"
       gradientUnits="userSpaceOnUse"
       gradientTransform="matrix(1.29707,-5.771317e-16,7.935686e-17,0.1578,6.81152,-7.300115)"
       cx="49.011971"
       cy="2.6743078"
       fx="49.011971"
       fy="2.6743078"
       r="1.7246193" />
    <linearGradient
       inkscape:collect="always"
       xlink:href="#linearGradient3235"
       id="linearGradient1505"
       gradientUnits="userSpaceOnUse"
       gradientTransform="matrix(1.297068,-1.880044e-3,1.880044e-3,1.297068,6.796523,-10.3225)"
       x1="48.498562"
       y1="0.81150496"
       x2="48.732723"
       y2="2.3657269" />
    <linearGradient
       inkscape:collect="always"
       xlink:href="#linearGradient3251"
       id="linearGradient1507"
       gradientUnits="userSpaceOnUse"
       gradientTransform="matrix(1.28993,-6.285547e-16,6.115022e-16,1.29707,7.14915,-10.31269)"
       x1="46.051746"
       y1="3.0999987"
       x2="46.051746"
       y2="2.395859" />
    <radialGradient
       inkscape:collect="always"
       xlink:href="#linearGradient3273"
       id="radialGradient1509"
       gradientUnits="userSpaceOnUse"
       gradientTransform="matrix(0.860164,-3.642354e-16,7.768539e-17,0.1578,24.50481,-7.300115)"
       cx="49.011971"
       cy="2.6743078"
       fx="49.011971"
       fy="2.6743078"
       r="1.7246193" />
    <linearGradient
       inkscape:collect="always"
       xlink:href="#linearGradient3251"
       id="linearGradient1511"
       gradientUnits="userSpaceOnUse"
       gradientTransform="matrix(1.279856,6.23645e-16,-6.115022e-16,1.29707,-133.1341,-10.31269)"
       x1="46.051746"
       y1="3.0999987"
       x2="46.051746"
       y2="2.395859" />
    <radialGradient
       inkscape:collect="always"
       xlink:href="#linearGradient3259"
       id="radialGradient1513"
       gradientUnits="userSpaceOnUse"
       gradientTransform="matrix(0.853446,4.707679e-16,-7.112965e-17,0.1578,-115.9141,-7.300115)"
       cx="49.011971"
       cy="2.6743078"
       fx="49.011971"
       fy="2.6743078"
       r="1.7246193" />
    <radialGradient
       inkscape:collect="always"
       xlink:href="#linearGradient3303"
       id="radialGradient1515"
       gradientUnits="userSpaceOnUse"
       gradientTransform="matrix(1,2.846887e-17,-1.293727e-18,2.608014e-2,-1.35544e-13,7.26766)"
       cx="34.677639"
       cy="7.4622769"
       fx="34.677639"
       fy="7.4622769"
       r="47.595197" />
    <radialGradient
       inkscape:collect="always"
       xlink:href="#linearGradient3325"
       id="radialGradient1517"
       gradientUnits="userSpaceOnUse"
       gradientTransform="matrix(-1.511766,-6.865741e-3,4.187271e-5,-9.110636e-3,87.10184,7.76835)"
       cx="34.677639"
       cy="7.4622769"
       fx="34.677639"
       fy="7.4622769"
       r="47.595196" />
    <linearGradient
       inkscape:collect="always"
       xlink:href="#linearGradient2297"
       id="linearGradient2303"
       x1="80.295174"
       y1="84.398148"
       x2="101.58611"
       y2="48.564369"
       gradientUnits="userSpaceOnUse"
       gradientTransform="matrix(-1.409263,0.327577,0.383588,1.396242,120.7202,-31.71015)" />
    <linearGradient
       inkscape:collect="always"
       xlink:href="#linearGradient2313"
       id="linearGradient2319"
       x1="122.89164"
       y1="61.163712"
       x2="49.499741"
       y2="39.112144"
       gradientUnits="userSpaceOnUse"
       gradientTransform="matrix(-1.409263,0.327577,0.383588,1.396242,120.4711,-31.71015)" />
    <linearGradient
       inkscape:collect="always"
       xlink:href="#linearGradient2323"
       id="linearGradient2329"
       x1="47.696983"
       y1="41.693619"
       x2="33.565952"
       y2="39.885399"
       gradientUnits="userSpaceOnUse" />
    <linearGradient
       inkscape:collect="always"
       xlink:href="#linearGradient2313"
       id="linearGradient2333"
       gradientUnits="userSpaceOnUse"
       x1="77.561714"
       y1="46.357456"
       x2="74.441887"
       y2="50.457649"
       gradientTransform="matrix(-1.409263,0.327577,0.383588,1.396242,120.7202,-31.71015)" />
    <linearGradient
       inkscape:collect="always"
       xlink:href="#linearGradient2297"
       id="linearGradient2349"
       x1="28.420765"
       y1="81.856094"
       x2="41.33519"
       y2="24.542152"
       gradientUnits="userSpaceOnUse" />
    <linearGradient
       inkscape:collect="always"
       xlink:href="#linearGradient2353"
       id="linearGradient2359"
       x1="40.531517"
       y1="41.280239"
       x2="2.7379644"
       y2="39.885399"
       gradientUnits="userSpaceOnUse" />
    <linearGradient
       inkscape:collect="always"
       xlink:href="#linearGradient2264"
       id="linearGradient2270"
       x1="73.50708"
       y1="112.57366"
       x2="42.45607"
       y2="58.791733"
       gradientUnits="userSpaceOnUse" />
    <linearGradient
       inkscape:collect="always"
       xlink:href="#linearGradient2272"
       id="linearGradient2278"
       x1="61.897827"
       y1="123.86658"
       x2="43.905754"
       y2="56.719242"
       gradientUnits="userSpaceOnUse" />
    <linearGradient
       inkscape:collect="always"
       xlink:href="#linearGradient2280"
       id="linearGradient2286"
       x1="95.394928"
       y1="101.33337"
       x2="50.71796"
       y2="56.280972"
       gradientUnits="userSpaceOnUse" />
    <linearGradient
       inkscape:collect="always"
       xlink:href="#linearGradient3163"
       id="linearGradient3169"
       x1="37.731487"
       y1="105.45984"
       x2="37.731487"
       y2="108.73013"
       gradientUnits="userSpaceOnUse"
       gradientTransform="matrix(1.065693,-1.14221e-16,-6.611506e-17,1.03248,35.47903,19.23006)" />
  </defs>
  <sodipodi:namedview
     id="base"
     pagecolor="#ffffff"
     bordercolor="#666666"
     borderopacity="1.0"
     inkscape:pageopacity="0.0"
     inkscape:pageshadow="2"
     inkscape:zoom="4.0152139"
     inkscape:cx="91.208193"
     inkscape:cy="41.627204"
     inkscape:current-layer="layer1"
     showgrid="false"
     inkscape:document-units="px"
     inkscape:grid-bbox="true"
     guidetolerance="0.1px"
     showguides="true"
     inkscape:guide-bbox="true"
     inkscape:window-width="1106"
     inkscape:window-height="958"
     inkscape:window-x="601"
     inkscape:window-y="25">
    <sodipodi:guide
       orientation="horizontal"
       position="32.487481"
       id="guide2204" />
  </sodipodi:namedview>
  <metadata
     id="metadata1312">
    <rdf:RDF>
      <cc:Work
         rdf:about="">
        <dc:format>image/svg+xml</dc:format>
        <dc:type
           rdf:resource="http://purl.org/dc/dcmitype/StillImage" />
        <cc:license
           rdf:resource="http://creativecommons.org/licenses/GPL/2.0/" />
        <dc:contributor>
          <cc:Agent>
            <dc:title>Oxygen team</dc:title>
          </cc:Agent>
        </dc:contributor>
      </cc:Work>
      <cc:License
         rdf:about="http://creativecommons.org/licenses/LGPL/2.1/">
        <cc:permits
           rdf:resource="http://web.resource.org/cc/Reproduction" />
        <cc:permits
           rdf:resource="http://web.resource.org/cc/Distribution" />
        <cc:requires
           rdf:resource="http://web.resource.org/cc/Notice" />
        <cc:permits
           rdf:resource="http://web.resource.org/cc/DerivativeWorks" />
        <cc:requires
           rdf:resource="http://web.resource.org/cc/ShareAlike" />
        <cc:requires
           rdf:resource="http://web.resource.org/cc/SourceCode" />
      </cc:License>
    </rdf:RDF>
  </metadata>
  <g
     id="layer1"
     inkscape:label="Layer 1"
     inkscape:groupmode="layer">
    <path
       style="fill:none;fill-opacity:1;fill-rule:evenodd;stroke:url(#linearGradient2278);stroke-width:4.17553473;stroke-linecap:butt;stroke-linejoin:miter;stroke-miterlimit:4;stroke-dasharray:none;stroke-opacity:0.08235294"
       d="M 74.18023,7.2841936 C 87.77779,5.1807505 106.87818,18.105366 117.53494,36.848366 C 127.96411,55.191124 126.57077,72.586957 114.75636,77.043188 L 114.76836,77.086819 L 114.59219,77.127767 L 114.11973,77.284007 L 13.504438,110.79093 L 13.34028,110.8755 L 13.164127,110.91645 C 13.093454,110.94716 13.030831,110.98582 12.955909,111.01127 L 12.735718,111.06245 C 12.71593,111.06746 12.667689,111.07826 12.647629,111.08293 C 10.081068,111.67951 6.3232784,109.24261 4.2558885,105.60652 C 2.6811168,102.83684 2.5900083,100.1792 3.7469395,98.808405 C 3.7647569,98.787312 3.7605855,98.775011 3.7789941,98.754534 L 3.8871504,98.636557 C 3.9133128,98.61092 3.9239778,98.553327 3.9512482,98.528819 L 4.0273396,98.464713 L 63.800737,14.013825 C 63.892076,13.864755 64.005377,13.717581 64.101195,13.572634 L 64.133247,13.518766 C 64.141285,13.506736 64.157001,13.476723 64.165298,13.464896 C 64.216267,13.394847 64.28783,13.309959 64.337549,13.239182 L 64.401653,13.131443 C 64.573573,12.890152 64.733378,12.682971 64.918398,12.454299 L 65.046608,12.238822 C 66.974295,9.9427084 69.636255,8.3404204 72.903085,7.5810607 C 73.223101,7.5066741 73.545156,7.4124623 73.871953,7.3558508 C 73.978335,7.3374239 74.073163,7.3007578 74.18023,7.2841936 z "
       id="path2363" />
    <path
       id="path2361"
       d="M 74.18023,7.2841936 C 87.77779,5.1807505 106.87818,18.105366 117.53494,36.848366 C 127.96411,55.191124 126.57077,72.586957 114.75636,77.043188 L 114.76836,77.086819 L 114.59219,77.127767 L 114.11973,77.284007 L 13.504438,110.79093 L 13.34028,110.8755 L 13.164127,110.91645 C 13.093454,110.94716 13.030831,110.98582 12.955909,111.01127 L 12.735718,111.06245 C 12.71593,111.06746 12.667689,111.07826 12.647629,111.08293 C 10.081068,111.67951 6.3232784,109.24261 4.2558885,105.60652 C 2.6811168,102.83684 2.5900083,100.1792 3.7469395,98.808405 C 3.7647569,98.787312 3.7605855,98.775011 3.7789941,98.754534 L 3.8871504,98.636557 C 3.9133128,98.61092 3.9239778,98.553327 3.9512482,98.528819 L 4.0273396,98.464713 L 63.800737,14.013825 C 63.892076,13.864755 64.005377,13.717581 64.101195,13.572634 L 64.133247,13.518766 C 64.141285,13.506736 64.157001,13.476723 64.165298,13.464896 C 64.216267,13.394847 64.28783,13.309959 64.337549,13.239182 L 64.401653,13.131443 C 64.573573,12.890152 64.733378,12.682971 64.918398,12.454299 L 65.046608,12.238822 C 66.974295,9.9427084 69.636255,8.3404204 72.903085,7.5810607 C 73.223101,7.5066741 73.545156,7.4124623 73.871953,7.3558508 C 73.978335,7.3374239 74.073163,7.3007578 74.18023,7.2841936 z "
       style="fill:none;fill-opacity:1;fill-rule:evenodd;stroke:url(#linearGradient2270);stroke-width:4.80819178;stroke-linecap:butt;stroke-linejoin:miter;stroke-miterlimit:4;stroke-dasharray:none;stroke-opacity:0.03658537;opacity:0.73770492" />
    <path
       style="fill:none;fill-opacity:1;fill-rule:evenodd;stroke:#000000;stroke-width:1.51837635;stroke-linecap:butt;stroke-linejoin:miter;stroke-miterlimit:4;stroke-dasharray:none;stroke-opacity:0.30081302"
       d="M 74.18023,7.2841936 C 87.77779,5.1807505 106.87818,18.105366 117.53494,36.848366 C 127.96411,55.191124 126.57077,72.586957 114.75636,77.043188 L 114.76836,77.086819 L 114.59219,77.127767 L 114.11973,77.284007 L 13.504438,110.79093 L 13.34028,110.8755 L 13.164127,110.91645 C 13.093454,110.94716 13.030831,110.98582 12.955909,111.01127 L 12.735718,111.06245 C 12.71593,111.06746 12.667689,111.07826 12.647629,111.08293 C 10.081068,111.67951 6.3232784,109.24261 4.2558885,105.60652 C 2.6811168,102.83684 2.5900083,100.1792 3.7469395,98.808405 C 3.7647569,98.787312 3.7605855,98.775011 3.7789941,98.754534 L 3.8871504,98.636557 C 3.9133128,98.61092 3.9239778,98.553327 3.9512482,98.528819 L 4.0273396,98.464713 L 63.800737,14.013825 C 63.892076,13.864755 64.005377,13.717581 64.101195,13.572634 L 64.133247,13.518766 C 64.141285,13.506736 64.157001,13.476723 64.165298,13.464896 C 64.216267,13.394847 64.28783,13.309959 64.337549,13.239182 L 64.401653,13.131443 C 64.573573,12.890152 64.733378,12.682971 64.918398,12.454299 L 65.046608,12.238822 C 66.974295,9.9427084 69.636255,8.3404204 72.903085,7.5810607 C 73.223101,7.5066741 73.545156,7.4124623 73.871953,7.3558508 C 73.978335,7.3374239 74.073163,7.3007578 74.18023,7.2841936 z "
       id="path2367" />
    <path
       id="path2365"
       d="M 74.18023,7.2841936 C 87.77779,5.1807505 106.87818,18.105366 117.53494,36.848366 C 127.96411,55.191124 126.57077,72.586957 114.75636,77.043188 L 114.76836,77.086819 L 114.59219,77.127767 L 114.11973,77.284007 L 13.504438,110.79093 L 13.34028,110.8755 L 13.164127,110.91645 C 13.093454,110.94716 13.030831,110.98582 12.955909,111.01127 L 12.735718,111.06245 C 12.71593,111.06746 12.667689,111.07826 12.647629,111.08293 C 10.081068,111.67951 6.3232784,109.24261 4.2558885,105.60652 C 2.6811168,102.83684 2.5900083,100.1792 3.7469395,98.808405 C 3.7647569,98.787312 3.7605855,98.775011 3.7789941,98.754534 L 3.8871504,98.636557 C 3.9133128,98.61092 3.9239778,98.553327 3.9512482,98.528819 L 4.0273396,98.464713 L 63.800737,14.013825 C 63.892076,13.864755 64.005377,13.717581 64.101195,13.572634 L 64.133247,13.518766 C 64.141285,13.506736 64.157001,13.476723 64.165298,13.464896 C 64.216267,13.394847 64.28783,13.309959 64.337549,13.239182 L 64.401653,13.131443 C 64.573573,12.890152 64.733378,12.682971 64.918398,12.454299 L 65.046608,12.238822 C 66.974295,9.9427084 69.636255,8.3404204 72.903085,7.5810607 C 73.223101,7.5066741 73.545156,7.4124623 73.871953,7.3558508 C 73.978335,7.3374239 74.073163,7.3007578 74.18023,7.2841936 z "
       style="fill:none;fill-opacity:1;fill-rule:evenodd;stroke:url(#linearGradient2286);stroke-width:2.91022134;stroke-linecap:butt;stroke-linejoin:miter;stroke-miterlimit:4;stroke-dasharray:none;stroke-opacity:0.2" />
    <path
       sodipodi:nodetypes="ccc"
       id="path2276"
       d="M 50.892799,3.2812959 L 50.892799,0.48658747 L 50.892799,3.2812959 z "
       style="fill:#ffffff;fill-opacity:0.75688076;fill-rule:nonzero;stroke:none;stroke-width:0.5;stroke-linecap:round;stroke-linejoin:round;stroke-miterlimit:4;stroke-dasharray:none;stroke-dashoffset:4;stroke-opacity:1" />
    <path
       sodipodi:type="arc"
       style="opacity:0.38139535;fill:url(#radialGradient3297);fill-opacity:1.0;fill-rule:nonzero;stroke:none;stroke-width:0;stroke-linecap:round;stroke-linejoin:round;stroke-miterlimit:4;stroke-dasharray:none;stroke-dashoffset:4;stroke-opacity:1"
       id="path3289"
       sodipodi:cx="63.912209"
       sodipodi:cy="115.70919"
       sodipodi:rx="63.912209"
       sodipodi:ry="12.641975"
       d="M 127.82442 115.70919 A 63.912209 12.641975 0 1 1  0,115.70919 A 63.912209 12.641975 0 1 1  127.82442 115.70919 z"
       transform="matrix(1,0,0,0.416667,0,74.87151)" />
    <path
       transform="matrix(-0.367075,8.532525e-2,0.194306,0.341744,12.28911,88.29647)"
       d="M 42.955868 39.885399 A 12.666473 19.275068 0 1 1  17.622921,39.885399 A 12.666473 19.275068 0 1 1  42.955868 39.885399 z"
       sodipodi:ry="19.275068"
       sodipodi:rx="12.666473"
       sodipodi:cy="39.885399"
       sodipodi:cx="30.289394"
       id="path2285"
       style="opacity:1;fill:#000000;fill-opacity:1;fill-rule:nonzero;stroke:none;stroke-width:1.15499997;stroke-linecap:round;stroke-linejoin:round;stroke-miterlimit:4;stroke-dasharray:none;stroke-dashoffset:4;stroke-opacity:1"
       sodipodi:type="arc" />
    <path
       style="fill:url(#linearGradient2303);fill-opacity:1;fill-rule:evenodd;stroke:#6a6a6a;stroke-width:0.12653135;stroke-linecap:butt;stroke-linejoin:miter;stroke-miterlimit:4;stroke-dasharray:none;stroke-opacity:1"
       d="M 74.18023,7.2841936 C 87.77779,5.1807505 106.87818,18.105366 117.53494,36.848366 C 127.96411,55.191124 126.57077,72.586957 114.75636,77.043188 L 114.76836,77.086819 L 114.59219,77.127767 L 114.11973,77.284007 L 13.504438,110.79093 L 13.34028,110.8755 L 13.164127,110.91645 C 13.093454,110.94716 13.030831,110.98582 12.955909,111.01127 L 12.735718,111.06245 C 12.71593,111.06746 12.667689,111.07826 12.647629,111.08293 C 10.081068,111.67951 6.3232784,109.24261 4.2558885,105.60652 C 2.6811168,102.83684 2.5900083,100.1792 3.7469395,98.808405 C 3.7647569,98.787312 3.7605855,98.775011 3.7789941,98.754534 L 3.8871504,98.636557 C 3.9133128,98.61092 3.9239778,98.553327 3.9512482,98.528819 L 4.0273396,98.464713 L 63.800737,14.013825 C 63.892076,13.864755 64.005377,13.717581 64.101195,13.572634 L 64.133247,13.518766 C 64.141285,13.506736 64.157001,13.476723 64.165298,13.464896 C 64.216267,13.394847 64.28783,13.309959 64.337549,13.239182 L 64.401653,13.131443 C 64.573573,12.890152 64.733378,12.682971 64.918398,12.454299 L 65.046608,12.238822 C 66.974295,9.9427084 69.636255,8.3404204 72.903085,7.5810607 C 73.223101,7.5066741 73.545156,7.4124623 73.871953,7.3558508 C 73.978335,7.3374239 74.073163,7.3007578 74.18023,7.2841936 z "
       id="path2289" />
    <path
       id="path2311"
       d="M 73.931177,7.2841936 C 87.528737,5.1807505 106.62913,18.105366 117.28589,36.848366 C 127.71506,55.191124 126.32172,72.586957 114.50731,77.043188 L 114.51931,77.086819 L 114.34314,77.127767 L 113.87068,77.284007 L 13.255385,110.79093 L 13.091227,110.8755 L 12.915074,110.91645 C 12.844401,110.94716 12.781778,110.98582 12.706856,111.01127 L 12.486665,111.06245 C 12.466877,111.06746 12.418636,111.07826 12.398576,111.08293 C 9.832015,111.67951 6.074226,109.24261 4.006836,105.60652 C 2.432064,102.83684 2.340956,100.1792 3.497887,98.808405 C 3.515704,98.787312 3.511533,98.775011 3.529941,98.754534 L 3.638098,98.636557 C 3.66426,98.61092 3.674925,98.553327 3.702195,98.528819 L 3.778287,98.464713 L 63.551684,14.013825 C 63.643023,13.864755 63.756324,13.717581 63.852142,13.572634 L 63.884194,13.518766 C 63.892232,13.506736 63.907948,13.476723 63.916245,13.464896 C 63.967214,13.394847 64.038777,13.309959 64.088496,13.239182 L 64.1526,13.131443 C 64.32452,12.890152 64.484325,12.682971 64.669345,12.454299 L 64.797555,12.238822 C 66.725242,9.9427084 69.387202,8.3404204 72.654032,7.5810607 C 72.974048,7.5066741 73.296103,7.4124623 73.6229,7.3558508 C 73.729282,7.3374239 73.82411,7.3007578 73.931177,7.2841936 z "
       style="fill:url(#linearGradient2319);fill-opacity:1;fill-rule:evenodd;stroke:#6a6a6a;stroke-width:0.12653135;stroke-linecap:butt;stroke-linejoin:miter;stroke-miterlimit:4;stroke-dasharray:none;stroke-opacity:1" />
    <path
       style="fill:url(#linearGradient2333);fill-opacity:1;fill-rule:evenodd;stroke:#6a6a6a;stroke-width:0.12653135;stroke-linecap:butt;stroke-linejoin:miter;stroke-miterlimit:4;stroke-dasharray:none;stroke-opacity:1"
       d="M 74.18023,7.2841936 C 87.77779,5.1807505 106.87818,18.105366 117.53494,36.848366 C 127.96411,55.191124 126.57077,72.586957 114.75636,77.043188 L 114.76836,77.086819 L 114.59219,77.127767 L 114.11973,77.284007 L 13.504438,110.79093 L 13.34028,110.8755 L 13.164127,110.91645 C 13.093454,110.94716 13.030831,110.98582 12.955909,111.01127 L 12.735718,111.06245 C 12.71593,111.06746 12.667689,111.07826 12.647629,111.08293 C 10.081068,111.67951 6.3232787,109.24261 4.2558887,105.60652 C 2.6811167,102.83684 2.5900087,100.1792 3.7469397,98.808405 C 3.7647567,98.787312 3.7605857,98.775011 3.7789937,98.754534 L 3.8871507,98.636557 C 3.9133127,98.61092 3.9239777,98.553327 3.9512477,98.528819 L 4.0273397,98.464713 L 63.800737,14.013825 C 63.892076,13.864755 64.005377,13.717581 64.101195,13.572634 L 64.133247,13.518766 C 64.141285,13.506736 64.157001,13.476723 64.165298,13.464896 C 64.216267,13.394847 64.28783,13.309959 64.337549,13.239182 L 64.401653,13.131443 C 64.573573,12.890152 64.733378,12.682971 64.918398,12.454299 L 65.046608,12.238822 C 66.974295,9.9427084 69.636255,8.3404204 72.903085,7.5810607 C 73.223101,7.5066741 73.545156,7.4124623 73.871953,7.3558508 C 73.978335,7.3374239 74.073163,7.3007578 74.18023,7.2841936 z "
       id="path2331" />
    <path
       sodipodi:type="arc"
       style="opacity:1;fill:#000000;fill-opacity:1;fill-rule:nonzero;stroke:none;stroke-width:1.15499997;stroke-linecap:round;stroke-linejoin:round;stroke-miterlimit:4;stroke-dasharray:none;stroke-dashoffset:4;stroke-opacity:1"
       id="path1410"
       sodipodi:cx="30.289394"
       sodipodi:cy="39.885399"
       sodipodi:rx="12.666473"
       sodipodi:ry="19.275068"
       d="M 42.955868 39.885399 A 12.666473 19.275068 0 1 1  17.622921,39.885399 A 12.666473 19.275068 0 1 1  42.955868 39.885399 z"
       transform="matrix(-1.952834,0.453928,1.033702,1.818069,110.7345,-43.65167)" />
    <path
       transform="matrix(-1.952834,0.453928,1.033702,1.818069,110.7345,-43.65167)"
       d="M 42.955868 39.885399 A 12.666473 19.275068 0 1 1  17.622921,39.885399 A 12.666473 19.275068 0 1 1  42.955868 39.885399 z"
       sodipodi:ry="19.275068"
       sodipodi:rx="12.666473"
       sodipodi:cy="39.885399"
       sodipodi:cx="30.289394"
       id="path2287"
       style="opacity:1;fill:url(#linearGradient2349);fill-opacity:1;fill-rule:nonzero;stroke:none;stroke-width:1.15499997;stroke-linecap:round;stroke-linejoin:round;stroke-miterlimit:4;stroke-dasharray:none;stroke-dashoffset:4;stroke-opacity:1"
       sodipodi:type="arc" />
    <path
       sodipodi:type="arc"
       style="opacity:1;fill:none;fill-opacity:1;fill-rule:nonzero;stroke:url(#linearGradient2329);stroke-width:0.25244448;stroke-linecap:round;stroke-linejoin:round;stroke-miterlimit:4;stroke-dasharray:none;stroke-dashoffset:4;stroke-opacity:1"
       id="path2321"
       sodipodi:cx="30.289394"
       sodipodi:cy="39.885399"
       sodipodi:rx="12.666473"
       sodipodi:ry="19.275068"
       d="M 42.955868 39.885399 A 12.666473 19.275068 0 1 1  17.622921,39.885399 A 12.666473 19.275068 0 1 1  42.955868 39.885399 z"
       transform="matrix(-1.952834,0.453928,1.033702,1.818069,109.0705,-42.24979)" />
    <path
       sodipodi:type="arc"
       style="opacity:1;fill:url(#linearGradient2359);fill-opacity:1;fill-rule:nonzero;stroke:none;stroke-width:1.15499997;stroke-linecap:round;stroke-linejoin:round;stroke-miterlimit:4;stroke-dasharray:none;stroke-dashoffset:4;stroke-opacity:1"
       id="path2351"
       sodipodi:cx="30.289394"
       sodipodi:cy="39.885399"
       sodipodi:rx="12.666473"
       sodipodi:ry="19.275068"
       d="M 42.955868 39.885399 A 12.666473 19.275068 0 1 1  17.622921,39.885399 A 12.666473 19.275068 0 1 1  42.955868 39.885399 z"
       transform="matrix(-1.929863,0.448588,1.021543,1.796683,109.9011,-41.97011)" />
    <path
       style="fill:none;fill-opacity:0.75;fill-rule:evenodd;stroke:#000000;stroke-width:4.20000124;stroke-linecap:round;stroke-linejoin:round;stroke-miterlimit:4;stroke-dasharray:none;stroke-opacity:1"
       d="M 59.694273,96.003905 L 61.629588,106.76512 L 36.071704,111.36149 L 34.13244,100.57832"
       id="path2369"
       sodipodi:nodetypes="cccc" />
    <rect
       style="opacity:0.49590167;fill:url(#linearGradient3169);fill-opacity:1;fill-rule:nonzero;stroke:none;stroke-width:4.19999981;stroke-linecap:round;stroke-linejoin:round;stroke-miterlimit:4;stroke-dasharray:none;stroke-dashoffset:4;stroke-opacity:0.30081302"
       id="rect2288"
       width="23.090984"
       height="2.5071306"
       x="75.755562"
       y="128.11597"
       rx="1.0134445"
       ry="1.88959"
       transform="matrix(0.984295,-0.176529,-0.292673,0.956213,0,0)" />
  </g>
</svg>
