<?xml version="1.0" encoding="UTF-8" standalone="no"?>
<!-- Created with Inkscape (http://www.inkscape.org/) -->
<svg
   xmlns:dc="http://purl.org/dc/elements/1.1/"
   xmlns:cc="http://web.resource.org/cc/"
   xmlns:rdf="http://www.w3.org/1999/02/22-rdf-syntax-ns#"
   xmlns:svg="http://www.w3.org/2000/svg"
   xmlns="http://www.w3.org/2000/svg"
   xmlns:sodipodi="http://inkscape.sourceforge.net/DTD/sodipodi-0.dtd"
   xmlns:inkscape="http://www.inkscape.org/namespaces/inkscape"
   width="128"
   height="128"
   id="svg1335"
   sodipodi:version="0.32"
   inkscape:version="0.43"
   version="1.0"
   sodipodi:docbase="/home/pinheiro/Documents/pics/new oxygen/svg/actions"
   sodipodi:docname="stamp.svg">
  <defs
     id="defs1337">
    <radialGradient
       cx="272.17599"
       cy="-157.978"
       r="174.63229"
       id="XMLID_10_"
       gradientUnits="userSpaceOnUse"
       gradientTransform="matrix(1,0,0,-1,-242,-204.9561)">
		<stop
   style="stop-color:#eeeeee;stop-opacity:1"
   offset="0.0056"
   id="stop18" />

		<stop
   style="stop-color:#efefef;stop-opacity:1"
   offset="0.0174"
   id="stop20" />

		<stop
   style="stop-color:#fbfbfb;stop-opacity:1"
   offset="0.2428"
   id="stop22" />

		<stop
   style="stop-color:#ffffff;stop-opacity:1"
   offset="0.46630001"
   id="stop24" />

		<stop
   style="stop-color:#fafafa;stop-opacity:1"
   offset="0.59890002"
   id="stop26" />

		<stop
   style="stop-color:#ecedee;stop-opacity:1"
   offset="0.75150001"
   id="stop28" />

		<stop
   style="stop-color:#f3f4f5;stop-opacity:1"
   offset="0.84280002"
   id="stop30" />

		<stop
   style="stop-color:#fcfcfc;stop-opacity:1"
   offset="1"
   id="stop32" />

	</radialGradient>
    <radialGradient
       cx="336.8938"
       cy="-319.7261"
       r="130.5231"
       id="XMLID_11_"
       gradientUnits="userSpaceOnUse"
       gradientTransform="matrix(0.999664,0,0,-0.999664,-231.2313,-204.8702)">
	<stop
   style="stop-color:#a4c0e4;stop-opacity:1"
   offset="0"
   id="stop37" />

	<stop
   style="stop-color:#6193cf;stop-opacity:1"
   offset="1"
   id="stop39" />

</radialGradient>
    <radialGradient
       cx="336.8938"
       cy="-319.7261"
       r="130.5231"
       id="XMLID_12_"
       gradientUnits="userSpaceOnUse"
       gradientTransform="matrix(0.999664,0,0,-0.999664,-231.2313,-204.8702)">
	<stop
   style="stop-color:#a4c0e4;stop-opacity:1"
   offset="0"
   id="stop44" />

	<stop
   style="stop-color:#6193cf;stop-opacity:1"
   offset="0.60360003"
   id="stop46" />

	<stop
   style="stop-color:#a4c0e4;stop-opacity:1"
   offset="1"
   id="stop48" />

</radialGradient>
  </defs>
  <sodipodi:namedview
     id="base"
     pagecolor="#ffffff"
     bordercolor="#666666"
     borderopacity="1.0"
     inkscape:pageopacity="0.0"
     inkscape:pageshadow="2"
     inkscape:zoom="3.3867007"
     inkscape:cx="62.296371"
     inkscape:cy="147.08985"
     inkscape:current-layer="layer1"
     showgrid="true"
     inkscape:document-units="px"
     inkscape:grid-bbox="true"
     inkscape:window-width="835"
     inkscape:window-height="540"
     inkscape:window-x="1079"
     inkscape:window-y="25" />
  <metadata
     id="metadata1340">
    <rdf:RDF>
      <cc:Work
         rdf:about="">
        <dc:format>image/svg+xml</dc:format>
        <dc:type
           rdf:resource="http://purl.org/dc/dcmitype/StillImage" />
      </cc:Work>
    </rdf:RDF>
  </metadata>
  <g
     id="layer1"
     inkscape:label="Layer 1"
     inkscape:groupmode="layer">
    <g
       transform="matrix(0.999664,0,0,0.999664,10.68741,1.698e-2)"
       style="opacity:0.3"
       id="g3">
	<path
   d="M 1.066,1.464 C 0.359,2.315 0,3.243 0,4.221 C 0,5.911 1.085,7.245 1.605,7.887 C 1.605,7.887 1.903,8.292 2.065,8.513 C 1.988,8.603 1.911,8.694 1.911,8.694 C 1.292,9.384 0.141,10.665 0.141,12.925 C 0.141,15.188 1.292,16.467 1.911,17.155 C 1.911,17.155 2.014,17.275 2.098,17.373 C 2.036,17.446 1.912,17.59 1.912,17.59 C 1.293,18.278 0.141,19.557 0.141,21.819 C 0.141,24.081 1.292,25.36 1.912,26.048 C 1.912,26.048 2.014,26.166 2.098,26.264 C 2.036,26.337 1.912,26.48 1.912,26.48 C 1.293,27.168 0.141,28.447 0.141,30.71 C 0.141,32.973 1.292,34.252 1.912,34.939 C 1.912,34.939 2.013,35.057 2.098,35.155 C 2.036,35.228 1.912,35.372 1.912,35.372 C 1.293,36.06 0.141,37.34 0.141,39.602 C 0.141,41.864 1.292,43.143 1.912,43.83 C 1.912,43.83 2.013,43.947 2.098,44.045 C 2.036,44.118 1.914,44.258 1.914,44.258 C 1.294,44.946 0.143,46.226 0.143,48.487 C 0.143,50.749 1.294,52.028 1.914,52.716 C 1.914,52.716 2.015,52.834 2.1,52.931 C 2.038,53.004 1.916,53.144 1.916,53.144 C 1.297,53.831 0.145,55.109 0.145,57.373 C 0.145,59.636 1.297,60.915 1.916,61.602 C 1.916,61.602 2.017,61.719 2.101,61.816 C 2.039,61.889 1.917,62.03 1.917,62.03 C 1.294,62.72 0.143,64 0.143,66.26 C 0.143,68.524 1.294,69.803 1.914,70.49 C 1.914,70.49 2.017,70.608 2.1,70.707 C 2.038,70.776 1.914,70.92 1.914,70.92 C 1.296,71.608 0.143,72.887 0.143,75.149 C 0.143,77.414 1.295,78.692 1.914,79.378 C 1.914,79.378 2.016,79.495 2.1,79.594 C 2.038,79.663 1.914,79.808 1.914,79.808 C 1.296,80.496 0.143,81.774 0.143,84.037 C 0.143,86.301 1.295,87.58 1.914,88.266 C 1.914,88.266 2.016,88.385 2.1,88.482 C 2.038,88.553 1.915,88.694 1.915,88.694 C 1.295,89.382 0.144,90.662 0.144,92.923 C 0.144,95.186 1.296,96.464 1.915,97.152 C 1.915,97.152 2.017,97.271 2.101,97.369 C 2.039,97.439 1.916,97.582 1.916,97.582 C 1.296,98.27 0.145,99.549 0.145,101.811 C 0.145,104.075 1.297,105.353 1.916,106.04 C 1.916,106.04 2.018,106.159 2.102,106.257 C 2.04,106.327 1.917,106.468 1.917,106.468 C 1.297,107.157 0.146,108.437 0.146,110.698 C 0.146,112.959 1.298,114.239 1.917,114.925 C 1.917,114.925 2.017,115.042 2.101,115.14 C 2.039,115.212 1.916,115.355 1.916,115.355 C 1.298,116.043 0.145,117.321 0.145,119.584 C 0.145,122.248 0.736,123.199 1.992,124.599 C 1.98,124.586 1.984,124.566 1.973,124.551 C 2.102,124.721 2.285,124.937 2.619,125.322 C 2.603,125.303 2.498,125.128 2.483,125.109 L 2.989,125.775 C 4.269,127.362 5.229,128.027 7.855,128.027 C 9.753,128.027 10.894,127.092 11.565,126.417 C 12.213,127.077 13.355,128.027 15.273,128.027 C 17.169,128.027 18.307,127.096 18.978,126.419 C 19.626,127.079 20.768,128.027 22.683,128.027 C 24.579,128.027 25.717,127.094 26.388,126.419 C 27.055,127.101 28.17,128.027 30.094,128.027 C 31.989,128.027 33.127,127.094 33.799,126.419 C 34.466,127.101 35.581,128.027 37.504,128.027 C 39.397,128.027 40.535,127.097 41.207,126.421 C 41.874,127.102 42.989,128.027 44.911,128.027 C 46.802,128.027 47.939,127.098 48.612,126.421 C 49.261,127.081 50.404,128.027 52.314,128.027 C 54.204,128.027 55.341,127.098 56.013,126.421 C 56.663,127.081 57.804,128.027 59.716,128.027 C 61.609,128.027 62.747,127.097 63.419,126.421 C 64.065,127.079 65.206,128.027 67.122,128.027 C 69.015,128.027 70.153,127.097 70.823,126.421 C 71.472,127.081 72.614,128.027 74.525,128.027 C 76.429,128.027 77.542,127.118 78.228,126.421 C 78.876,127.081 80.017,128.027 81.931,128.027 C 83.825,128.027 84.96,127.097 85.632,126.421 C 86.28,127.081 87.421,128.027 89.335,128.027 C 91.226,128.027 92.364,127.098 93.036,126.423 C 93.706,127.105 94.819,128.027 96.737,128.027 C 98.726,128.027 99.884,127.001 100.538,126.32 C 100.64,126.397 100.773,126.501 100.773,126.501 C 104.155,129.253 106.261,127.733 107.216,126.585 C 107.968,125.682 108.349,124.716 108.349,123.718 C 108.349,122.12 107.362,120.921 106.886,120.345 C 106.607,120.007 106.407,119.727 106.251,119.429 C 106.263,119.415 106.296,119.372 106.296,119.372 C 106.919,118.681 108.14,117.322 108.14,115.124 C 108.14,112.857 106.989,111.579 106.37,110.894 C 106.37,110.894 106.265,110.772 106.182,110.675 C 106.244,110.605 106.369,110.458 106.369,110.458 C 106.988,109.77 108.14,108.488 108.14,106.229 C 108.14,103.966 106.989,102.687 106.369,102 C 106.369,102 106.266,101.881 106.182,101.783 C 106.244,101.713 106.369,101.568 106.369,101.568 C 106.988,100.88 108.14,99.599 108.14,97.338 C 108.14,95.078 106.991,93.797 106.37,93.109 C 106.37,93.109 106.266,92.989 106.182,92.891 C 106.244,92.821 106.369,92.675 106.369,92.675 C 106.988,91.987 108.14,90.706 108.14,88.446 C 108.14,86.182 106.989,84.903 106.369,84.217 C 106.369,84.215 106.266,84.098 106.182,84 C 106.244,83.931 106.369,83.789 106.369,83.789 C 106.99,83.099 108.14,81.818 108.14,79.56 C 108.14,77.295 106.989,76.017 106.369,75.331 C 106.369,75.331 106.266,75.214 106.182,75.116 C 106.246,75.046 106.369,74.905 106.369,74.905 C 106.99,74.216 108.14,72.935 108.14,70.676 C 108.14,68.414 106.989,67.135 106.369,66.447 C 106.369,66.446 106.268,66.33 106.184,66.232 C 106.246,66.16 106.369,66.016 106.369,66.016 C 106.988,65.328 108.14,64.048 108.14,61.787 C 108.14,59.527 106.991,58.247 106.37,57.56 C 106.37,57.559 106.267,57.441 106.183,57.343 C 106.245,57.27 106.368,57.128 106.368,57.128 C 106.987,56.441 108.139,55.163 108.139,52.899 C 108.139,50.639 106.99,49.359 106.369,48.672 C 106.369,48.671 106.266,48.553 106.182,48.455 C 106.244,48.382 106.367,48.24 106.367,48.24 C 106.986,47.553 108.138,46.275 108.138,44.011 C 108.138,41.747 106.987,40.469 106.367,39.782 C 106.367,39.782 106.266,39.666 106.182,39.568 C 106.244,39.496 106.367,39.355 106.367,39.355 C 106.986,38.667 108.138,37.388 108.138,35.125 C 108.138,32.865 106.989,31.586 106.37,30.899 C 106.368,30.898 106.266,30.78 106.182,30.682 C 106.244,30.609 106.365,30.47 106.365,30.47 C 106.986,29.78 108.137,28.499 108.137,26.24 C 108.137,23.98 106.988,22.701 106.369,22.014 C 106.367,22.013 106.265,21.895 106.181,21.797 C 106.243,21.724 106.364,21.585 106.364,21.585 C 106.984,20.895 108.136,19.614 108.136,17.355 C 108.136,15.096 106.987,13.817 106.368,13.13 C 106.366,13.129 106.264,13.012 106.18,12.914 C 106.242,12.84 106.365,12.7 106.365,12.7 C 106.983,12.013 108.136,10.735 108.136,8.471 C 108.136,5.808 107.544,4.856 106.29,3.456 C 106.292,3.459 105.923,3.037 105.923,3.037 L 105.6,2.664 C 105.649,2.719 105.858,3.307 105.893,3.371 L 105.291,2.279 C 104.014,0.693 103.055,0.028 100.426,0.028 C 98.53,0.028 97.389,0.962 96.715,1.638 C 96.049,0.957 94.934,0.028 93.008,0.028 C 91.115,0.028 89.975,0.958 89.303,1.636 C 88.656,0.977 87.514,0.028 85.598,0.028 C 83.705,0.028 82.565,0.959 81.893,1.636 C 81.244,0.976 80.1,0.028 78.188,0.028 C 76.293,0.028 75.156,0.958 74.483,1.635 C 73.834,0.976 72.692,0.028 70.778,0.028 C 68.885,0.028 67.75,0.958 67.078,1.635 C 66.428,0.976 65.287,0.028 63.373,0.028 C 61.479,0.028 60.344,0.958 59.672,1.634 C 59.022,0.975 57.881,0.028 55.969,0.028 C 54.08,0.028 52.942,0.956 52.27,1.633 C 51.62,0.973 50.478,0.028 48.568,0.028 C 46.676,0.028 45.539,0.957 44.866,1.635 C 44.216,0.975 43.074,0.028 41.162,0.028 C 39.269,0.028 38.132,0.957 37.46,1.634 C 36.81,0.974 35.668,0.028 33.757,0.028 C 31.864,0.028 30.727,0.957 30.055,1.634 C 29.405,0.975 28.263,0.028 26.352,0.028 C 24.46,0.028 23.323,0.957 22.65,1.634 C 22.001,0.975 20.858,0.028 18.947,0.028 C 17.057,0.028 15.92,0.956 15.247,1.633 C 14.596,0.973 13.455,0.028 11.546,0.028 C 9.556,0.028 8.398,1.056 7.744,1.736 C 7.652,1.657 7.524,1.559 7.524,1.559 C 4.128,-1.202 2.021,0.315 1.066,1.464 z M 106.135,12.965 L 106.143,12.957 L 106.143,12.957 C 106.139,12.962 106.135,12.965 106.135,12.965 z M 2.142,17.322 C 2.147,17.316 2.149,17.314 2.149,17.314 L 2.142,17.322 L 2.142,17.322 z M 106.143,21.84 L 106.143,21.84 C 106.137,21.848 106.141,21.842 106.143,21.84 z M 2.142,26.213 C 2.148,26.206 2.144,26.211 2.142,26.213 L 2.142,26.213 z M 106.143,30.725 L 106.143,30.725 C 106.137,30.733 106.141,30.728 106.143,30.725 z M 2.142,35.105 C 2.147,35.099 2.149,35.097 2.149,35.097 L 2.142,35.105 L 2.142,35.105 z M 106.143,39.612 L 106.143,39.612 C 106.137,39.619 106.141,39.614 106.143,39.612 z M 106.143,48.499 L 106.143,48.499 C 106.137,48.506 106.141,48.5 106.143,48.499 z M 106.143,57.386 L 106.143,57.386 C 106.137,57.394 106.141,57.388 106.143,57.386 z M 2.142,61.766 C 2.148,61.758 2.144,61.764 2.142,61.766 L 2.142,61.766 z M 106.143,66.276 L 106.143,66.276 C 106.137,66.284 106.141,66.278 106.143,66.276 z "
   style="opacity:0.15"
   id="path5" />

	<path
   d="M 1.835,2.103 C 1.224,2.839 1,3.557 1,4.221 C 1,5.556 1.904,6.669 2.382,7.256 C 2.737,7.694 3.142,8.192 3.142,8.473 C 3.142,8.807 3.087,8.881 2.654,9.363 C 2.089,9.994 1.142,11.048 1.142,12.926 C 1.142,14.805 2.089,15.858 2.655,16.488 C 3.094,16.977 3.142,17.042 3.142,17.376 C 3.142,17.709 3.094,17.773 2.655,18.261 C 2.09,18.888 1.143,19.94 1.143,21.82 C 1.143,23.699 2.091,24.752 2.658,25.381 C 3.096,25.868 3.143,25.932 3.143,26.265 C 3.143,26.598 3.095,26.663 2.657,27.15 C 2.091,27.779 1.143,28.832 1.143,30.711 C 1.143,32.59 2.09,33.643 2.657,34.272 C 3.095,34.759 3.143,34.824 3.143,35.157 C 3.143,35.49 3.095,35.555 2.657,36.042 C 2.091,36.672 1.143,37.725 1.143,39.603 L 1.143,39.603 C 1.143,41.481 2.09,42.533 2.657,43.162 C 3.095,43.65 3.143,43.715 3.143,44.047 C 3.143,44.379 3.095,44.443 2.658,44.929 C 2.091,45.559 1.143,46.612 1.143,48.489 L 1.143,48.489 C 1.143,50.368 2.091,51.421 2.658,52.05 C 3.096,52.537 3.143,52.601 3.143,52.934 C 3.143,53.265 3.095,53.33 2.658,53.815 C 2.091,54.444 1.143,55.496 1.143,57.374 L 1.143,57.374 C 1.143,59.253 2.091,60.305 2.658,60.934 C 3.096,61.421 3.143,61.485 3.143,61.817 C 3.143,62.15 3.095,62.214 2.658,62.7 C 2.091,63.33 1.143,64.384 1.143,66.26 L 1.143,66.26 C 1.143,68.14 2.09,69.193 2.657,69.822 C 3.089,70.301 3.143,70.376 3.143,70.708 C 3.143,71.038 3.088,71.111 2.658,71.591 C 2.092,72.221 1.143,73.273 1.143,75.152 L 1.143,75.152 C 1.143,77.031 2.09,78.084 2.657,78.713 C 3.089,79.192 3.143,79.266 3.143,79.598 C 3.143,79.928 3.088,80.002 2.658,80.482 C 2.092,81.111 1.143,82.163 1.143,84.042 C 1.143,85.921 2.09,86.971 2.657,87.6 C 3.088,88.079 3.142,88.153 3.142,88.484 C 3.142,88.815 3.094,88.88 2.657,89.366 C 2.09,89.997 1.142,91.048 1.142,92.927 C 1.142,94.807 2.089,95.859 2.657,96.488 C 3.088,96.967 3.142,97.041 3.142,97.373 C 3.142,97.705 3.094,97.769 2.657,98.256 C 2.09,98.885 1.142,99.938 1.142,101.816 C 1.142,103.695 2.089,104.747 2.657,105.376 C 3.088,105.855 3.142,105.929 3.142,106.261 C 3.142,106.591 3.094,106.657 2.657,107.143 C 2.09,107.773 1.142,108.826 1.142,110.703 C 1.142,112.582 2.089,113.633 2.657,114.262 C 3.095,114.75 3.142,114.815 3.142,115.146 C 3.142,115.477 3.087,115.549 2.657,116.03 C 2.091,116.659 1.142,117.712 1.142,119.591 C 1.142,121.942 1.579,122.65 2.732,123.937 C 2.732,123.938 3.387,124.69 3.387,124.69 C 3.367,124.668 3.761,125.148 3.761,125.148 C 4.92,126.584 5.636,127.033 7.853,127.033 C 9.654,127.033 10.606,126.008 11.175,125.394 C 11.175,125.393 11.55,125.023 11.55,125.023 C 11.578,125.023 11.951,125.392 11.951,125.392 C 12.517,126.005 13.47,127.033 15.27,127.033 C 17.068,127.033 18.02,126.008 18.587,125.394 C 18.589,125.392 18.962,125.023 18.962,125.023 C 18.985,125.023 19.358,125.39 19.358,125.39 C 19.926,126.005 20.878,127.033 22.678,127.033 C 24.477,127.033 25.428,126.008 25.996,125.394 C 25.997,125.392 26.371,125.023 26.371,125.023 C 26.394,125.023 26.768,125.392 26.768,125.392 C 27.338,126.005 28.289,127.033 30.088,127.033 C 31.887,127.033 32.838,126.008 33.406,125.394 C 33.407,125.392 33.781,125.023 33.781,125.023 C 33.804,125.023 34.177,125.39 34.177,125.39 C 34.747,126.005 35.698,127.033 37.497,127.033 C 39.296,127.033 40.247,126.008 40.813,125.393 C 40.814,125.39 41.187,125.022 41.187,125.022 C 41.209,125.023 41.583,125.39 41.583,125.39 C 42.153,126.005 43.104,127.033 44.903,127.033 C 46.702,127.033 47.653,126.006 48.221,125.39 L 48.593,125.022 C 48.614,125.022 48.988,125.39 48.988,125.39 C 49.557,126.007 50.509,127.033 52.306,127.033 C 54.105,127.033 55.056,126.006 55.624,125.39 L 56,125.017 C 56.02,125.017 56.395,125.387 56.395,125.387 C 56.963,126 57.916,127.028 59.713,127.028 C 61.51,127.028 62.463,126.003 63.028,125.388 C 63.033,125.385 63.403,125.017 63.403,125.017 C 63.424,125.018 63.799,125.387 63.799,125.387 C 64.365,126 65.315,127.028 67.117,127.028 C 68.916,127.028 69.867,126.003 70.432,125.388 C 70.436,125.385 70.807,125.017 70.807,125.017 C 70.828,125.017 71.203,125.387 71.203,125.387 C 71.77,126 72.723,127.028 74.52,127.028 C 76.317,127.028 77.268,126.003 77.836,125.389 C 77.838,125.387 78.211,125.017 78.211,125.017 C 78.232,125.017 78.607,125.387 78.607,125.387 C 79.175,126 80.128,127.028 81.925,127.028 C 83.722,127.028 84.673,126.003 85.241,125.388 C 85.243,125.385 85.614,125.017 85.614,125.017 C 85.635,125.017 86.01,125.387 86.01,125.387 C 86.578,126 87.531,127.028 89.328,127.028 C 91.125,127.028 92.078,126.003 92.643,125.388 C 92.647,125.385 93.018,125.017 93.018,125.017 C 93.039,125.017 93.412,125.386 93.412,125.386 C 93.981,126 94.932,127.028 96.729,127.028 C 98.528,127.028 99.479,126.003 100.047,125.387 L 100.42,125.017 C 100.594,125.073 101.117,125.496 101.397,125.725 C 102.168,126.353 104.516,128.26 106.44,125.946 C 107.106,125.146 107.342,124.393 107.342,123.717 C 107.342,122.478 106.537,121.502 106.108,120.98 C 105.668,120.448 105.289,119.991 105.096,119.305 C 105.094,119.305 105.094,119.304 105.094,119.301 C 105.094,119.256 105.512,118.74 105.512,118.74 C 106.119,118.064 107.133,116.935 107.133,115.123 C 107.133,113.24 106.186,112.188 105.619,111.561 C 105.186,111.081 105.133,111.004 105.133,110.672 C 105.133,110.34 105.188,110.267 105.619,109.787 C 106.184,109.156 107.133,108.102 107.133,106.225 C 107.133,104.346 106.186,103.294 105.619,102.665 C 105.186,102.186 105.133,102.11 105.133,101.78 C 105.133,101.446 105.18,101.382 105.619,100.894 C 106.184,100.264 107.133,99.209 107.133,97.332 C 107.133,95.453 106.186,94.399 105.619,93.77 C 105.186,93.291 105.133,93.216 105.133,92.884 C 105.133,92.553 105.188,92.479 105.619,91.999 C 106.184,91.368 107.133,90.314 107.133,88.437 C 107.133,86.557 106.186,85.504 105.619,84.875 C 105.186,84.396 105.133,84.322 105.133,83.992 C 105.133,83.658 105.18,83.595 105.619,83.109 C 106.184,82.478 107.133,81.426 107.133,79.548 C 107.133,77.667 106.186,76.616 105.619,75.987 C 105.186,75.508 105.133,75.433 105.133,75.102 C 105.133,74.771 105.18,74.706 105.619,74.221 C 106.184,73.591 107.133,72.539 107.133,70.66 C 107.133,68.783 106.186,67.73 105.619,67.101 C 105.18,66.615 105.133,66.55 105.133,66.217 C 105.133,65.884 105.18,65.82 105.619,65.331 C 106.184,64.702 107.133,63.649 107.133,61.77 C 107.133,59.892 106.186,58.839 105.619,58.21 C 105.18,57.723 105.133,57.658 105.133,57.325 C 105.133,56.992 105.18,56.928 105.619,56.441 C 106.184,55.813 107.133,54.76 107.133,52.881 C 107.133,51.003 106.186,49.95 105.619,49.321 C 105.18,48.834 105.133,48.769 105.133,48.436 C 105.133,48.103 105.18,48.039 105.619,47.552 C 106.184,46.924 107.133,45.871 107.133,43.992 C 107.133,42.113 106.186,41.061 105.619,40.432 C 105.18,39.945 105.133,39.881 105.133,39.548 C 105.133,39.217 105.188,39.143 105.619,38.665 C 106.184,38.036 107.133,36.984 107.133,35.105 C 107.133,33.228 106.186,32.175 105.619,31.546 C 105.18,31.058 105.133,30.994 105.133,30.661 C 105.133,30.329 105.18,30.265 105.617,29.78 C 106.184,29.149 107.133,28.097 107.133,26.22 C 107.133,24.342 106.186,23.29 105.619,22.661 C 105.18,22.173 105.133,22.109 105.133,21.776 C 105.133,21.444 105.18,21.38 105.617,20.895 C 106.184,20.264 107.133,19.212 107.133,17.334 C 107.133,15.458 106.186,14.406 105.621,13.777 C 105.18,13.29 105.133,13.225 105.133,12.893 C 105.133,12.56 105.18,12.496 105.619,12.009 C 106.184,11.381 107.133,10.328 107.133,8.45 C 107.133,6.099 106.695,5.39 105.541,4.102 C 105.541,4.102 104.889,3.354 104.887,3.352 L 104.512,2.894 C 103.356,1.458 102.639,1.009 100.42,1.009 C 98.621,1.009 97.668,2.035 97.098,2.648 C 97.098,2.649 96.725,3.019 96.725,3.019 C 96.697,3.019 96.324,2.65 96.324,2.65 C 95.754,2.035 94.803,1.009 93.004,1.009 C 91.203,1.009 90.252,2.036 89.684,2.65 L 89.311,3.019 C 89.289,3.019 88.915,2.649 88.915,2.649 C 88.347,2.036 87.394,1.008 85.595,1.008 C 83.796,1.008 82.843,2.035 82.275,2.649 L 81.902,3.018 C 81.88,3.018 81.506,2.648 81.506,2.648 C 80.938,2.035 79.985,1.007 78.186,1.007 C 76.385,1.007 75.434,2.034 74.867,2.648 L 74.494,3.017 C 74.471,3.017 74.098,2.647 74.098,2.647 C 73.531,2.034 72.58,1.006 70.778,1.006 C 68.979,1.006 68.028,2.033 67.463,2.647 L 67.088,3.017 C 67.067,3.017 66.692,2.647 66.692,2.647 C 66.125,2.034 65.174,1.006 63.373,1.006 C 61.576,1.006 60.625,2.031 60.059,2.644 C 60.055,2.648 59.684,3.017 59.684,3.017 C 59.663,3.017 59.288,2.647 59.288,2.647 C 58.722,2.034 57.769,1.006 55.97,1.006 C 54.172,1.006 53.221,2.034 52.654,2.648 C 52.653,2.649 52.283,3.017 52.283,3.017 C 52.262,3.017 51.889,2.647 51.889,2.647 C 51.321,2.033 50.369,1.006 48.57,1.006 C 46.771,1.006 45.82,2.033 45.252,2.648 L 44.879,3.017 C 44.856,3.017 44.483,2.648 44.483,2.648 C 43.915,2.034 42.963,1.007 41.164,1.007 C 39.363,1.007 38.413,2.034 37.845,2.649 L 37.47,3.026 C 37.449,3.026 37.076,2.657 37.076,2.657 C 36.508,2.043 35.555,1.016 33.757,1.016 C 31.956,1.016 31.006,2.044 30.438,2.658 L 30.066,3.026 C 30.045,3.026 29.671,2.657 29.671,2.657 C 29.103,2.043 28.15,1.016 26.352,1.016 C 24.552,1.016 23.601,2.044 23.034,2.658 L 22.662,3.026 C 22.64,3.026 22.266,2.657 22.266,2.657 C 21.699,2.043 20.746,1.016 18.947,1.016 C 17.148,1.016 16.197,2.043 15.63,2.657 L 15.257,3.026 C 15.236,3.026 14.863,2.657 14.863,2.657 C 14.296,2.043 13.344,1.015 11.546,1.015 C 9.746,1.015 8.795,2.042 8.227,2.657 L 7.855,3.031 C 7.683,2.978 7.16,2.553 6.879,2.325 C 6.106,1.696 3.76,-0.212 1.835,2.103 z "
   style="opacity:0.2"
   id="path7" />

	<path
   d="M 2.604,2.742 L 2.604,2.742 C 1.29,4.324 2.458,5.765 3.158,6.625 C 3.664,7.248 4.141,7.837 4.141,8.473 C 4.141,9.203 3.861,9.515 3.397,10.031 C 2.868,10.621 2.141,11.429 2.141,12.926 C 2.141,14.422 2.868,15.229 3.397,15.819 C 3.861,16.335 4.141,16.646 4.141,17.375 C 4.141,18.103 3.861,18.414 3.398,18.929 C 2.868,19.518 2.141,20.325 2.141,21.821 C 2.141,23.316 2.868,24.123 3.398,24.712 C 3.861,25.227 4.141,25.538 4.141,26.266 C 4.141,26.994 3.861,27.305 3.397,27.82 C 2.868,28.409 2.141,29.217 2.141,30.712 C 2.141,32.207 2.868,33.014 3.397,33.604 C 3.861,34.119 4.141,34.43 4.141,35.158 C 4.141,35.886 3.861,36.197 3.397,36.712 C 2.868,37.302 2.141,38.109 2.141,39.604 C 2.141,41.099 2.869,41.906 3.398,42.495 C 3.861,43.01 4.141,43.321 4.141,44.048 C 4.141,44.775 3.861,45.085 3.398,45.599 C 2.869,46.188 2.141,46.995 2.141,48.49 C 2.141,49.985 2.868,50.792 3.398,51.381 C 3.861,51.896 4.141,52.207 4.141,52.935 C 4.141,53.661 3.861,53.972 3.398,54.486 C 2.869,55.075 2.141,55.882 2.141,57.376 C 2.141,58.871 2.869,59.678 3.398,60.267 C 3.861,60.782 4.141,61.093 4.141,61.819 C 4.141,62.547 3.861,62.857 3.398,63.372 C 2.869,63.961 2.141,64.768 2.141,66.263 C 2.141,67.758 2.868,68.565 3.398,69.155 C 3.861,69.671 4.141,69.981 4.141,70.71 C 4.141,71.437 3.861,71.747 3.398,72.263 C 2.869,72.852 2.141,73.659 2.141,75.154 C 2.141,76.649 2.868,77.457 3.397,78.045 C 3.861,78.561 4.141,78.871 4.141,79.6 C 4.141,80.327 3.861,80.637 3.398,81.153 C 2.869,81.743 2.141,82.549 2.141,84.044 C 2.141,85.54 2.869,86.347 3.398,86.936 C 3.861,87.451 4.141,87.761 4.141,88.489 C 4.141,89.217 3.861,89.526 3.398,90.041 C 2.869,90.631 2.141,91.437 2.141,92.933 C 2.141,94.429 2.869,95.235 3.398,95.824 C 3.861,96.339 4.141,96.65 4.141,97.378 C 4.141,98.106 3.861,98.415 3.398,98.931 C 2.869,99.52 2.141,100.327 2.141,101.821 C 2.141,103.316 2.869,104.123 3.398,104.713 C 3.861,105.228 4.141,105.539 4.141,106.266 C 4.141,106.993 3.861,107.303 3.398,107.818 C 2.869,108.407 2.141,109.214 2.141,110.708 C 2.141,112.202 2.869,113.009 3.398,113.599 C 3.861,114.114 4.141,114.423 4.141,115.151 C 4.141,115.879 3.861,116.189 3.398,116.704 C 2.869,117.293 2.141,118.1 2.141,119.596 C 2.141,121.68 2.484,122.168 3.476,123.275 L 4.141,124.038 L 4.536,124.518 C 5.528,125.748 5.954,126.038 7.853,126.038 C 9.217,126.038 9.925,125.275 10.442,124.72 C 10.891,124.236 11.092,124.038 11.565,124.038 C 12.037,124.038 12.236,124.234 12.685,124.718 C 13.202,125.277 13.909,126.038 15.271,126.038 C 16.634,126.038 17.341,125.274 17.857,124.718 C 18.305,124.236 18.505,124.038 18.976,124.038 C 19.448,124.038 19.647,124.234 20.095,124.718 C 20.611,125.277 21.318,126.038 22.681,126.038 C 24.044,126.038 24.751,125.274 25.267,124.718 C 25.715,124.236 25.915,124.038 26.386,124.038 C 26.857,124.038 27.057,124.234 27.505,124.718 C 28.021,125.276 28.728,126.038 30.091,126.038 C 31.454,126.038 32.161,125.274 32.677,124.718 C 33.125,124.236 33.325,124.038 33.796,124.038 C 34.266,124.038 34.467,124.234 34.914,124.718 C 35.43,125.276 36.137,126.038 37.5,126.038 C 38.862,126.038 39.568,125.274 40.085,124.718 C 40.532,124.236 40.731,124.038 41.202,124.038 C 41.672,124.038 41.873,124.234 42.319,124.718 C 42.836,125.276 43.543,126.038 44.906,126.038 C 46.267,126.038 46.974,125.274 47.49,124.718 C 47.936,124.236 48.136,124.038 48.606,124.038 C 49.077,124.038 49.276,124.234 49.724,124.718 C 50.241,125.276 50.948,126.038 52.309,126.038 C 53.671,126.038 54.377,125.274 54.892,124.718 C 55.338,124.236 55.539,124.038 56.008,124.038 C 56.477,124.038 56.678,124.234 57.125,124.718 C 57.641,125.276 58.348,126.038 59.711,126.038 C 61.074,126.038 61.778,125.274 62.297,124.718 C 62.742,124.236 62.943,124.038 63.412,124.038 C 63.883,124.038 64.084,124.234 64.531,124.718 C 65.047,125.277 65.754,126.038 67.117,126.038 C 68.479,126.038 69.184,125.274 69.703,124.718 C 70.147,124.236 70.349,124.038 70.817,124.038 C 71.289,124.038 71.488,124.234 71.936,124.718 C 72.453,125.276 73.16,126.038 74.52,126.038 C 75.883,126.038 76.588,125.274 77.104,124.718 C 77.553,124.236 77.752,124.038 78.223,124.038 C 78.692,124.038 78.893,124.234 79.34,124.718 C 79.856,125.276 80.563,126.038 81.926,126.038 C 83.287,126.038 83.994,125.274 84.51,124.718 C 84.957,124.236 85.156,124.038 85.627,124.038 C 86.096,124.038 86.297,124.234 86.744,124.718 C 87.26,125.276 87.967,126.038 89.33,126.038 C 90.692,126.038 91.397,125.274 91.916,124.718 C 92.36,124.236 92.562,124.038 93.031,124.038 C 93.502,124.038 93.701,124.234 94.147,124.718 C 94.664,125.276 95.369,126.038 96.731,126.038 C 98.092,126.038 98.799,125.274 99.315,124.718 C 99.764,124.236 99.963,124.038 100.434,124.038 C 100.897,124.038 101.5,124.527 102.033,124.96 C 102.852,125.628 104.383,126.871 105.674,125.317 C 107.035,123.678 106.014,122.443 105.338,121.626 C 104.869,121.06 104.385,120.474 104.137,119.587 C 103.975,119.011 104.174,118.751 104.774,118.083 C 105.348,117.442 106.137,116.565 106.137,115.134 C 106.137,113.64 105.41,112.83 104.881,112.241 C 104.416,111.723 104.137,111.413 104.137,110.682 C 104.137,109.955 104.416,109.643 104.879,109.129 C 105.41,108.539 106.137,107.733 106.137,106.236 C 106.137,104.742 105.41,103.933 104.879,103.345 C 104.416,102.829 104.137,102.519 104.137,101.79 C 104.137,101.062 104.416,100.753 104.879,100.236 C 105.41,99.646 106.137,98.839 106.137,97.342 C 106.137,95.845 105.41,95.039 104.879,94.449 C 104.416,93.934 104.137,93.623 104.137,92.895 C 104.137,92.167 104.416,91.856 104.879,91.341 C 105.41,90.751 106.137,89.945 106.137,88.448 C 106.137,86.951 105.41,86.145 104.879,85.555 C 104.416,85.041 104.137,84.73 104.137,84.002 C 104.137,83.274 104.416,82.965 104.879,82.449 C 105.41,81.86 106.137,81.053 106.137,79.559 C 106.137,78.064 105.41,77.255 104.879,76.667 C 104.416,76.151 104.137,75.841 104.137,75.113 C 104.137,74.387 104.416,74.077 104.879,73.562 C 105.41,72.973 106.137,72.166 106.137,70.672 C 106.137,69.178 105.41,68.371 104.879,67.781 C 104.416,67.266 104.137,66.957 104.137,66.228 C 104.137,65.499 104.416,65.19 104.879,64.675 C 105.41,64.085 106.137,63.278 106.137,61.783 C 106.137,60.288 105.41,59.481 104.879,58.892 C 104.416,58.377 104.137,58.066 104.137,57.339 C 104.137,56.612 104.416,56.301 104.879,55.786 C 105.41,55.197 106.137,54.39 106.137,52.895 C 106.137,51.4 105.41,50.593 104.879,50.004 C 104.416,49.489 104.137,49.178 104.137,48.451 C 104.137,47.724 104.416,47.413 104.879,46.898 C 105.41,46.309 106.137,45.502 106.137,44.007 C 106.137,42.512 105.41,41.705 104.879,41.116 C 104.416,40.601 104.137,40.29 104.137,39.563 C 104.137,38.836 104.416,38.525 104.879,38.011 C 105.41,37.422 106.137,36.615 106.137,35.12 C 106.137,33.625 105.41,32.819 104.879,32.229 C 104.416,31.714 104.137,31.403 104.137,30.676 C 104.137,29.949 104.416,29.639 104.879,29.125 C 105.41,28.536 106.137,27.729 106.137,26.235 C 106.137,24.74 105.41,23.933 104.879,23.344 C 104.416,22.829 104.137,22.518 104.137,21.791 C 104.137,21.064 104.416,20.754 104.879,20.24 C 105.41,19.651 106.137,18.844 106.137,17.349 C 106.137,15.855 105.41,15.049 104.879,14.459 C 104.416,13.945 104.137,13.634 104.137,12.908 C 104.137,12.181 104.416,11.87 104.879,11.355 C 105.41,10.766 106.137,9.959 106.137,8.465 C 106.137,6.38 105.793,5.891 104.801,4.784 L 104.137,4.023 L 103.742,3.541 C 102.75,2.311 102.324,2.023 100.424,2.023 C 99.061,2.023 98.352,2.786 97.834,3.343 C 97.387,3.827 97.186,4.023 96.713,4.023 C 96.24,4.023 96.041,3.827 95.592,3.343 C 95.076,2.786 94.369,2.023 93.006,2.023 C 91.643,2.023 90.936,2.786 90.42,3.343 C 89.973,3.826 89.772,4.023 89.301,4.023 C 88.83,4.023 88.631,3.827 88.182,3.343 C 87.666,2.786 86.959,2.023 85.596,2.023 C 84.233,2.023 83.526,2.786 83.01,3.343 C 82.563,3.826 82.363,4.023 81.891,4.023 C 81.42,4.023 81.221,3.827 80.772,3.344 C 80.256,2.786 79.549,2.023 78.186,2.023 C 76.824,2.023 76.117,2.786 75.6,3.343 C 75.151,3.826 74.953,4.023 74.481,4.023 C 74.01,4.023 73.811,3.827 73.362,3.344 C 72.846,2.786 72.139,2.023 70.776,2.023 C 69.416,2.023 68.709,2.786 68.192,3.343 C 67.746,3.826 67.545,4.023 67.076,4.023 C 66.604,4.023 66.406,3.827 65.957,3.344 C 65.44,2.786 64.733,2.023 63.371,2.023 C 62.01,2.023 61.303,2.787 60.787,3.344 C 60.34,3.827 60.141,4.023 59.67,4.023 C 59.201,4.023 59,3.827 58.553,3.344 C 58.037,2.786 57.33,2.023 55.967,2.023 C 54.605,2.023 53.9,2.787 53.384,3.344 C 52.938,3.827 52.738,4.023 52.269,4.023 C 51.799,4.023 51.599,3.827 51.151,3.344 C 50.635,2.786 49.928,2.023 48.566,2.023 C 47.205,2.023 46.498,2.786 45.981,3.344 C 45.535,3.827 45.335,4.023 44.863,4.023 C 44.392,4.023 44.192,3.827 43.746,3.343 C 43.229,2.786 42.522,2.023 41.16,2.023 C 39.797,2.023 39.091,2.786 38.575,3.344 C 38.128,3.827 37.928,4.023 37.458,4.023 C 36.987,4.023 36.788,3.827 36.341,3.344 C 35.825,2.786 35.118,2.023 33.756,2.023 C 32.394,2.023 31.687,2.786 31.171,3.344 C 30.724,3.827 30.524,4.023 30.054,4.023 C 29.584,4.023 29.384,3.827 28.936,3.344 C 28.42,2.786 27.713,2.023 26.351,2.023 C 24.99,2.023 24.283,2.786 23.767,3.344 C 23.32,3.827 23.121,4.023 22.65,4.023 C 22.18,4.023 21.98,3.827 21.533,3.344 C 21.016,2.786 20.309,2.023 18.947,2.023 C 17.586,2.023 16.879,2.787 16.363,3.344 C 15.917,3.827 15.717,4.023 15.247,4.023 C 14.776,4.023 14.578,3.827 14.131,3.344 C 13.615,2.787 12.909,2.023 11.547,2.023 C 10.184,2.023 9.478,2.786 8.962,3.344 C 8.514,3.824 8.314,4.021 7.844,4.021 C 7.38,4.021 6.778,3.531 6.246,3.1 C 5.425,2.431 3.896,1.188 2.604,2.742 z "
   style="opacity:0.25"
   id="path9" />

	<path
   d="M 104.911,124.661 C 103.728,126.083 102.292,123.02 100.441,123.02 C 98.589,123.02 98.589,125.02 96.738,125.02 C 94.888,125.02 94.888,123.02 93.038,123.02 C 91.188,123.02 91.187,125.02 89.337,125.02 C 87.485,125.02 87.484,123.02 85.634,123.02 C 83.784,123.02 83.782,125.02 81.933,125.02 C 80.081,125.02 80.081,123.02 78.23,123.02 C 76.379,123.02 76.378,125.02 74.527,125.02 C 72.676,125.02 72.675,123.02 70.825,123.02 C 68.975,123.02 68.974,125.02 67.124,125.02 C 65.272,125.02 65.271,123.02 63.419,123.02 C 61.568,123.02 61.568,125.02 59.718,125.02 C 57.868,125.02 57.866,123.02 56.015,123.02 C 54.165,123.02 54.165,125.02 52.316,125.02 C 50.465,125.02 50.465,123.02 48.613,123.02 C 46.762,123.02 46.762,125.02 44.913,125.02 C 43.06,125.02 43.06,123.02 41.209,123.02 C 39.358,123.02 39.357,125.02 37.507,125.02 C 35.654,125.02 35.654,123.02 33.803,123.02 C 31.95,123.02 31.95,125.02 30.097,125.02 C 28.244,125.02 28.244,123.02 26.391,123.02 C 24.538,123.02 24.538,125.02 22.685,125.02 C 20.833,125.02 20.833,123.02 18.98,123.02 C 17.127,123.02 17.127,125.02 15.275,125.02 C 13.423,125.02 13.422,123.02 11.569,123.02 C 9.714,123.02 9.714,125.02 7.857,125.02 C 6.002,125.02 6.103,124.803 4.913,123.377 C 3.488,121.674 3.145,121.799 3.145,119.578 C 3.145,117.355 5.145,117.355 5.145,115.135 C 5.145,112.915 3.145,112.914 3.145,110.694 C 3.145,108.474 5.145,108.473 5.145,106.253 C 5.145,104.033 3.145,104.032 3.145,101.811 C 3.145,99.59 5.145,99.589 5.145,97.369 C 5.145,95.149 3.145,95.147 3.145,92.926 C 3.145,90.705 5.145,90.705 5.145,88.485 C 5.145,86.262 3.145,86.262 3.145,84.042 C 3.145,81.822 5.145,81.82 5.145,79.6 C 5.145,77.376 3.145,77.376 3.145,75.156 C 3.145,72.936 5.145,72.934 5.145,70.713 C 5.145,68.49 3.145,68.49 3.145,66.269 C 3.145,64.047 5.145,64.047 5.145,61.825 C 5.145,59.604 3.145,59.604 3.145,57.382 C 3.145,55.162 5.145,55.162 5.145,52.942 C 5.145,50.719 3.145,50.719 3.145,48.497 C 3.145,46.276 5.145,46.276 5.145,44.055 C 5.145,41.833 3.145,41.833 3.145,39.611 C 3.145,37.388 5.145,37.388 5.145,35.165 C 5.145,32.942 3.145,32.942 3.145,30.719 C 3.145,28.496 5.145,28.496 5.145,26.273 C 5.145,24.05 3.145,24.05 3.145,21.828 C 3.145,19.605 5.145,19.605 5.145,17.383 C 5.145,15.158 3.145,15.158 3.145,12.934 C 3.145,10.708 5.145,10.708 5.145,8.481 C 5.145,6.255 1.954,5.101 3.376,3.39 C 4.56,1.967 5.996,5.029 7.847,5.029 C 9.698,5.029 9.698,3.029 11.55,3.029 C 13.401,3.029 13.401,5.029 15.251,5.029 C 17.101,5.029 17.102,3.029 18.952,3.029 C 20.804,3.029 20.804,5.029 22.654,5.029 C 24.506,5.029 24.506,3.029 26.356,3.029 C 28.209,3.029 28.209,5.029 30.059,5.029 C 31.911,5.029 31.911,3.029 33.761,3.029 C 35.613,3.029 35.613,5.029 37.464,5.029 C 39.315,5.029 39.315,3.029 41.167,3.029 C 43.019,3.029 43.019,5.029 44.871,5.029 C 46.723,5.029 46.723,3.029 48.574,3.029 C 50.425,3.029 50.425,5.029 52.276,5.029 C 54.126,5.029 54.126,3.029 55.974,3.029 C 57.827,3.029 57.827,5.029 59.677,5.029 C 61.527,5.029 61.529,3.029 63.378,3.029 C 65.232,3.029 65.232,5.029 67.083,5.029 C 68.934,5.029 68.935,3.029 70.784,3.029 C 72.638,3.029 72.638,5.029 74.488,5.029 C 76.34,5.029 76.341,3.029 78.193,3.029 C 80.047,3.029 80.047,5.029 81.898,5.029 C 83.752,5.029 83.752,3.029 85.603,3.029 C 87.457,3.029 87.457,5.029 89.308,5.029 C 91.162,5.029 91.162,3.029 93.013,3.029 C 94.867,3.029 94.867,5.029 96.72,5.029 C 98.575,5.029 98.575,3.029 100.431,3.029 C 102.288,3.029 102.187,3.246 103.376,4.67 C 104.8,6.375 105.144,6.25 105.144,8.471 C 105.144,10.692 103.144,10.692 103.144,12.914 C 103.144,15.135 105.144,15.135 105.144,17.355 C 105.144,19.576 103.144,19.576 103.144,21.797 C 103.144,24.019 105.144,24.019 105.144,26.241 C 105.144,28.462 103.144,28.462 103.144,30.682 C 103.144,32.904 105.144,32.904 105.144,35.126 C 105.144,37.348 103.144,37.348 103.144,39.569 C 103.144,41.791 105.144,41.791 105.144,44.012 C 105.144,46.233 103.144,46.234 103.144,48.455 C 103.144,50.677 105.144,50.677 105.144,52.899 C 105.144,55.121 103.144,55.121 103.144,57.342 C 103.144,59.564 105.144,59.564 105.144,61.786 C 105.144,64.009 103.144,64.009 103.144,66.231 C 103.144,68.454 105.144,68.454 105.144,70.672 C 105.144,72.893 103.144,72.894 103.144,75.112 C 103.144,77.334 105.144,77.334 105.144,79.556 C 105.144,81.777 103.144,81.777 103.144,83.997 C 103.144,86.217 105.144,86.22 105.144,88.441 C 105.144,90.662 103.144,90.665 103.144,92.885 C 103.144,95.108 105.144,95.109 105.144,97.332 C 105.144,99.555 103.144,99.556 103.144,101.777 C 103.144,104 105.144,104 105.144,106.221 C 105.144,108.444 103.144,108.444 103.144,110.665 C 103.144,112.892 105.144,112.892 105.144,115.116 C 105.144,117.343 102.581,117.693 103.181,119.837 C 103.915,122.465 106.334,122.948 104.911,124.661 z "
   id="path11" />

</g>
    <g
       transform="matrix(0.999664,0,0,0.999664,10.68741,1.698e-2)"
       id="g13">
	<path
   d="M 103.911,123.661 C 102.728,125.083 101.292,122.02 99.441,122.02 C 97.589,122.02 97.589,124.02 95.738,124.02 C 93.888,124.02 93.888,122.02 92.038,122.02 C 90.188,122.02 90.187,124.02 88.337,124.02 C 86.485,124.02 86.484,122.02 84.634,122.02 C 82.784,122.02 82.782,124.02 80.933,124.02 C 79.081,124.02 79.081,122.02 77.23,122.02 C 75.379,122.02 75.378,124.02 73.527,124.02 C 71.676,124.02 71.675,122.02 69.825,122.02 C 67.975,122.02 67.974,124.02 66.124,124.02 C 64.272,124.02 64.271,122.02 62.419,122.02 C 60.568,122.02 60.568,124.02 58.718,124.02 C 56.868,124.02 56.866,122.02 55.014,122.02 C 53.164,122.02 53.164,124.02 51.315,124.02 C 49.464,124.02 49.464,122.02 47.612,122.02 C 45.761,122.02 45.761,124.02 43.912,124.02 C 42.059,124.02 42.059,122.02 40.208,122.02 C 38.357,122.02 38.356,124.02 36.506,124.02 C 34.653,124.02 34.653,122.02 32.802,122.02 C 30.948,122.02 30.948,124.02 29.096,124.02 C 27.244,124.02 27.243,122.02 25.39,122.02 C 23.537,122.02 23.537,124.02 21.684,124.02 C 19.832,124.02 19.832,122.02 17.979,122.02 C 16.126,122.02 16.126,124.02 14.274,124.02 C 12.422,124.02 12.421,122.02 10.568,122.02 C 8.713,122.02 8.713,124.02 6.856,124.02 C 5.001,124.02 5.102,123.803 3.912,122.377 C 2.487,120.674 2.144,120.799 2.144,118.578 C 2.144,116.355 4.144,116.355 4.144,114.135 C 4.144,111.915 2.144,111.914 2.144,109.694 C 2.144,107.474 4.144,107.473 4.144,105.253 C 4.144,103.033 2.144,103.032 2.144,100.811 C 2.144,98.59 4.144,98.589 4.144,96.369 C 4.144,94.149 2.144,94.147 2.144,91.926 C 2.144,89.705 4.144,89.705 4.144,87.485 C 4.144,85.262 2.144,85.262 2.144,83.042 C 2.144,80.822 4.144,80.82 4.144,78.6 C 4.144,76.376 2.144,76.376 2.144,74.156 C 2.144,71.936 4.144,71.934 4.144,69.713 C 4.144,67.49 2.144,67.49 2.144,65.269 C 2.144,63.047 4.144,63.047 4.144,60.825 C 4.144,58.604 2.144,58.604 2.144,56.382 C 2.144,54.162 4.144,54.162 4.144,51.942 C 4.144,49.719 2.144,49.719 2.144,47.497 C 2.144,45.276 4.144,45.276 4.144,43.055 C 4.144,40.833 2.144,40.833 2.144,38.611 C 2.144,36.388 4.144,36.388 4.144,34.165 C 4.144,31.942 2.144,31.942 2.144,29.719 C 2.144,27.496 4.144,27.496 4.144,25.273 C 4.144,23.05 2.144,23.05 2.144,20.828 C 2.144,18.605 4.144,18.605 4.144,16.383 C 4.144,14.158 2.144,14.158 2.144,11.934 C 2.144,9.708 4.144,9.708 4.144,7.481 C 4.144,5.255 0.953,4.101 2.375,2.39 C 3.559,0.967 4.995,4.029 6.846,4.029 C 8.697,4.029 8.697,2.029 10.549,2.029 C 12.4,2.029 12.4,4.029 14.25,4.029 C 16.1,4.029 16.101,2.029 17.951,2.029 C 19.803,2.029 19.803,4.029 21.653,4.029 C 23.505,4.029 23.505,2.029 25.355,2.029 C 27.208,2.029 27.208,4.029 29.058,4.029 C 30.91,4.029 30.91,2.029 32.76,2.029 C 34.612,2.029 34.612,4.029 36.463,4.029 C 38.314,4.029 38.314,2.029 40.166,2.029 C 42.018,2.029 42.018,4.029 43.87,4.029 C 45.722,4.029 45.722,2.029 47.572,2.029 C 49.424,2.029 49.424,4.029 51.275,4.029 C 53.125,4.029 53.125,2.029 54.973,2.029 C 56.825,2.029 56.825,4.029 58.676,4.029 C 60.527,4.029 60.528,2.029 62.377,2.029 C 64.231,2.029 64.231,4.029 66.082,4.029 C 67.933,4.029 67.934,2.029 69.783,2.029 C 71.637,2.029 71.637,4.029 73.487,4.029 C 75.339,4.029 75.34,2.029 77.192,2.029 C 79.046,2.029 79.046,4.029 80.897,4.029 C 82.751,4.029 82.751,2.029 84.602,2.029 C 86.456,2.029 86.456,4.029 88.307,4.029 C 90.161,4.029 90.161,2.029 92.012,2.029 C 93.866,2.029 93.866,4.029 95.719,4.029 C 97.574,4.029 97.574,2.029 99.43,2.029 C 101.287,2.029 101.186,2.246 102.375,3.67 C 103.799,5.375 104.143,5.25 104.143,7.471 C 104.143,9.692 102.143,9.692 102.143,11.914 C 102.143,14.135 104.143,14.135 104.143,16.355 C 104.143,18.576 102.143,18.576 102.143,20.797 C 102.143,23.019 104.143,23.019 104.143,25.241 C 104.143,27.462 102.143,27.462 102.143,29.682 C 102.143,31.904 104.143,31.904 104.143,34.126 C 104.143,36.348 102.143,36.348 102.143,38.569 C 102.143,40.791 104.143,40.791 104.143,43.012 C 104.143,45.233 102.143,45.234 102.143,47.455 C 102.143,49.677 104.143,49.677 104.143,51.899 C 104.143,54.121 102.143,54.121 102.143,56.342 C 102.143,58.564 104.143,58.564 104.143,60.786 C 104.143,63.009 102.143,63.009 102.143,65.231 C 102.143,67.454 104.143,67.454 104.143,69.672 C 104.143,71.893 102.143,71.894 102.143,74.112 C 102.143,76.334 104.143,76.334 104.143,78.556 C 104.143,80.777 102.143,80.777 102.143,82.997 C 102.143,85.217 104.143,85.22 104.143,87.441 C 104.143,89.662 102.143,89.665 102.143,91.885 C 102.143,94.108 104.143,94.109 104.143,96.332 C 104.143,98.555 102.143,98.556 102.143,100.777 C 102.143,103 104.143,103 104.143,105.221 C 104.143,107.444 102.143,107.444 102.143,109.665 C 102.143,111.892 104.143,111.892 104.143,114.116 C 104.143,116.343 101.58,116.693 102.18,118.837 C 102.915,121.465 105.334,121.948 103.911,123.661 z "
   style="fill:#ffffff"
   id="path15" />

	
		<radialGradient
   cx="272.17599"
   cy="-157.978"
   r="174.63229"
   id="radialGradient1366"
   gradientUnits="userSpaceOnUse"
   gradientTransform="matrix(1,0,0,-1,-242,-204.9561)">
		<stop
   style="stop-color:#eeeeee;stop-opacity:1"
   offset="0.0056"
   id="stop1368" />

		<stop
   style="stop-color:#efefef;stop-opacity:1"
   offset="0.0174"
   id="stop1370" />

		<stop
   style="stop-color:#fbfbfb;stop-opacity:1"
   offset="0.2428"
   id="stop1372" />

		<stop
   style="stop-color:#ffffff;stop-opacity:1"
   offset="0.46630001"
   id="stop1374" />

		<stop
   style="stop-color:#fafafa;stop-opacity:1"
   offset="0.59890002"
   id="stop1376" />

		<stop
   style="stop-color:#ecedee;stop-opacity:1"
   offset="0.75150001"
   id="stop1378" />

		<stop
   style="stop-color:#f3f4f5;stop-opacity:1"
   offset="0.84280002"
   id="stop1380" />

		<stop
   style="stop-color:#fcfcfc;stop-opacity:1"
   offset="1"
   id="stop1382" />

	</radialGradient>

	<path
   d="M 3.192,2.969 C 3.192,2.969 3.194,2.969 3.192,2.969 z M 98.308,3.701 C 97.791,4.258 97.083,5.021 95.719,5.021 C 94.356,5.021 93.649,4.258 93.132,3.701 C 92.684,3.218 92.484,3.021 92.012,3.021 C 91.542,3.021 91.342,3.217 90.894,3.7 C 90.378,4.258 89.671,5.021 88.307,5.021 C 86.945,5.021 86.238,4.258 85.722,3.701 C 85.274,3.217 85.075,3.021 84.602,3.021 C 84.132,3.021 83.932,3.217 83.484,3.7 C 82.968,4.258 82.261,5.021 80.897,5.021 C 79.536,5.021 78.829,4.258 78.312,3.701 C 77.864,3.217 77.665,3.021 77.192,3.021 C 76.72,3.021 76.52,3.217 76.072,3.701 C 75.556,4.258 74.849,5.021 73.487,5.021 C 72.126,5.021 71.419,4.258 70.902,3.701 C 70.455,3.217 70.255,3.021 69.783,3.021 C 69.313,3.021 69.113,3.217 68.668,3.7 C 68.15,4.258 67.444,5.021 66.082,5.021 C 64.72,5.021 64.013,4.258 63.497,3.701 C 63.049,3.217 62.849,3.021 62.377,3.021 C 61.908,3.021 61.708,3.217 61.262,3.7 C 60.745,4.258 60.039,5.021 58.676,5.021 C 57.313,5.021 56.606,4.257 56.089,3.7 C 55.643,3.217 55.443,3.021 54.972,3.021 C 54.503,3.021 54.304,3.217 53.857,3.7 C 53.341,4.258 52.635,5.021 51.274,5.021 C 49.912,5.021 49.206,4.258 48.689,3.7 C 48.243,3.217 48.043,3.021 47.572,3.021 C 47.102,3.021 46.902,3.217 46.456,3.7 C 45.939,4.258 45.232,5.021 43.871,5.021 C 42.509,5.021 41.801,4.258 41.285,3.701 C 40.838,3.218 40.637,3.021 40.167,3.021 C 39.696,3.021 39.497,3.217 39.049,3.7 C 38.533,4.258 37.826,5.021 36.464,5.021 C 35.102,5.021 34.393,4.257 33.876,3.7 C 33.429,3.217 33.229,3.021 32.758,3.021 C 32.288,3.021 32.088,3.217 31.641,3.7 C 31.125,4.258 30.419,5.021 29.056,5.021 C 27.693,5.021 26.987,4.257 26.471,3.7 C 26.024,3.217 25.825,3.021 25.353,3.021 C 24.884,3.021 24.684,3.217 24.236,3.7 C 23.72,4.257 23.014,5.021 21.651,5.021 C 20.289,5.021 19.584,4.257 19.066,3.7 C 18.62,3.217 18.42,3.021 17.949,3.021 C 17.479,3.021 17.279,3.217 16.832,3.7 C 16.315,4.258 15.609,5.021 14.248,5.021 C 12.886,5.021 12.18,4.257 11.665,3.7 C 11.218,3.217 11.018,3.021 10.548,3.021 C 10.078,3.021 9.877,3.217 9.429,3.7 C 8.913,4.257 8.207,5.021 6.844,5.021 C 5.669,5.021 4.735,4.262 3.985,3.651 C 3.711,3.428 3.333,3.13 3.128,3.048 C 3.066,3.124 3.013,3.187 3.013,3.274 C 3.013,3.445 3.181,3.712 3.71,4.364 C 4.348,5.15 5.142,6.128 5.142,7.473 C 5.142,8.97 4.416,9.778 3.886,10.368 C 3.422,10.884 3.142,11.196 3.142,11.926 L 3.142,11.926 C 3.142,12.655 3.422,12.966 3.886,13.482 C 4.416,14.072 5.142,14.879 5.142,16.375 C 5.142,17.87 4.416,18.677 3.885,19.267 C 3.422,19.782 3.142,20.093 3.142,20.821 C 3.142,21.549 3.422,21.859 3.885,22.374 C 4.415,22.963 5.142,23.77 5.142,25.266 C 5.142,26.762 4.416,27.569 3.886,28.158 C 3.422,28.673 3.142,28.984 3.142,29.712 C 3.142,30.44 3.422,30.751 3.885,31.266 C 4.415,31.855 5.142,32.663 5.142,34.158 C 5.142,35.653 4.416,36.461 3.886,37.05 C 3.422,37.565 3.142,37.876 3.142,38.604 C 3.142,39.332 3.422,39.642 3.885,40.157 C 4.415,40.746 5.142,41.553 5.142,43.048 C 5.142,44.542 4.415,45.349 3.885,45.938 C 3.422,46.453 3.142,46.764 3.142,47.49 C 3.142,48.218 3.422,48.528 3.885,49.043 C 4.415,49.632 5.142,50.439 5.142,51.935 C 5.142,53.429 4.415,54.236 3.885,54.825 C 3.422,55.339 3.142,55.65 3.142,56.376 C 3.142,57.103 3.422,57.414 3.885,57.929 C 4.415,58.518 5.142,59.325 5.142,60.819 C 5.142,62.314 4.415,63.121 3.885,63.71 C 3.422,64.225 3.142,64.536 3.142,65.263 C 3.142,65.99 3.422,66.301 3.885,66.817 C 4.416,67.407 5.142,68.213 5.142,69.71 C 5.142,71.207 4.415,72.01 3.885,72.6 C 3.422,73.116 3.142,73.426 3.142,74.153 C 3.142,74.88 3.422,75.191 3.885,75.706 C 4.415,76.296 5.142,77.102 5.142,78.599 C 5.142,80.096 4.415,80.9 3.885,81.489 C 3.422,82 3.143,82.311 3.143,83.038 C 3.143,83.766 3.423,84.077 3.886,84.591 C 4.416,85.181 5.143,85.987 5.143,87.483 C 5.143,88.977 4.416,89.785 3.886,90.373 C 3.423,90.889 3.143,91.198 3.143,91.926 C 3.143,92.654 3.423,92.965 3.886,93.48 C 4.416,94.069 5.143,94.876 5.143,96.372 C 5.143,97.866 4.416,98.673 3.886,99.263 C 3.423,99.778 3.143,100.087 3.143,100.815 L 3.143,100.815 C 3.143,101.543 3.423,101.853 3.886,102.369 C 4.416,102.957 5.143,103.765 5.143,105.26 C 5.143,106.754 4.416,107.561 3.886,108.15 C 3.423,108.665 3.143,108.975 3.143,109.702 C 3.143,110.429 3.423,110.739 3.886,111.255 C 4.416,111.843 5.143,112.651 5.143,114.145 C 5.143,115.64 4.416,116.447 3.886,117.037 C 3.423,117.551 3.143,117.862 3.143,118.59 L 3.143,118.59 C 3.143,120.014 3.19,120.067 3.967,120.934 L 4.677,121.748 L 5.093,122.256 C 5.718,123.03 5.718,123.03 6.855,123.03 C 7.329,123.03 7.529,122.834 7.978,122.349 C 8.496,121.792 9.204,121.03 10.567,121.03 C 11.93,121.03 12.637,121.793 13.153,122.35 C 13.601,122.833 13.801,123.03 14.273,123.03 C 14.745,123.03 14.944,122.834 15.392,122.35 C 15.91,121.792 16.616,121.03 17.978,121.03 C 19.341,121.03 20.048,121.795 20.564,122.35 C 21.011,122.833 21.212,123.03 21.682,123.03 C 22.153,123.03 22.353,122.834 22.802,122.35 C 23.318,121.792 24.025,121.03 25.388,121.03 C 26.751,121.03 27.458,121.793 27.974,122.35 C 28.422,122.833 28.622,123.03 29.094,123.03 C 29.566,123.03 29.765,122.834 30.214,122.35 C 30.73,121.792 31.437,121.03 32.8,121.03 C 34.163,121.03 34.87,121.795 35.386,122.35 C 35.833,122.833 36.034,123.03 36.504,123.03 C 36.974,123.03 37.174,122.834 37.621,122.35 C 38.137,121.792 38.843,121.03 40.206,121.03 C 41.568,121.03 42.275,121.795 42.792,122.35 C 43.238,122.833 43.439,123.03 43.91,123.03 C 44.379,123.03 44.579,122.834 45.026,122.351 C 45.543,121.792 46.249,121.03 47.61,121.03 C 48.973,121.03 49.679,121.795 50.195,122.35 C 50.642,122.833 50.842,123.03 51.312,123.03 C 51.782,123.03 51.98,122.834 52.427,122.351 C 52.943,121.792 53.649,121.03 55.011,121.03 C 56.374,121.03 57.081,121.795 57.596,122.35 C 58.044,122.833 58.244,123.03 58.714,123.03 C 59.184,123.03 59.384,122.834 59.832,122.35 C 60.348,121.792 61.054,121.03 62.415,121.03 C 63.778,121.03 64.485,121.795 65.002,122.351 C 65.45,122.833 65.649,123.03 66.12,123.03 C 66.59,123.03 66.79,122.834 67.237,122.35 C 67.754,121.792 68.46,121.03 69.82,121.03 C 71.182,121.03 71.889,121.795 72.406,122.35 C 72.853,122.833 73.053,123.03 73.523,123.03 C 73.994,123.03 74.193,122.834 74.641,122.35 C 75.158,121.792 75.865,121.03 77.226,121.03 C 78.588,121.03 79.295,121.795 79.811,122.35 C 80.259,122.833 80.459,123.03 80.929,123.03 C 81.398,123.03 81.598,122.834 82.044,122.351 C 82.561,121.792 83.267,121.03 84.63,121.03 C 85.992,121.03 86.699,121.795 87.215,122.35 C 87.663,122.833 87.863,123.03 88.333,123.03 C 88.803,123.03 89.003,122.834 89.451,122.35 C 89.967,121.792 90.673,121.03 92.034,121.03 C 93.396,121.03 94.102,121.795 94.62,122.351 C 95.065,122.833 95.266,123.03 95.734,123.03 C 96.205,123.03 96.404,122.834 96.852,122.35 C 97.369,121.792 98.076,121.03 99.437,121.03 C 100.611,121.03 101.545,121.791 102.295,122.4 C 102.565,122.619 102.933,122.907 103.139,122.996 C 103.234,122.881 103.324,122.779 103.324,122.686 C 103.324,122.527 103.168,122.337 102.798,121.89 C 102.282,121.266 101.576,120.411 101.214,119.117 C 101.123,118.795 101.084,118.498 101.084,118.221 C 101.084,117.078 101.765,116.323 102.288,115.739 C 102.832,115.135 103.14,114.76 103.14,114.128 C 103.14,113.399 102.86,113.087 102.397,112.571 C 101.868,111.981 101.14,111.173 101.14,109.676 C 101.14,108.179 101.868,107.373 102.397,106.783 C 102.86,106.268 103.14,105.957 103.14,105.229 C 103.14,104.501 102.861,104.191 102.397,103.675 C 101.868,103.087 101.14,102.279 101.14,100.783 C 101.14,99.288 101.868,98.481 102.397,97.891 C 102.86,97.375 103.14,97.065 103.14,96.336 C 103.14,95.607 102.86,95.297 102.397,94.78 C 101.868,94.19 101.14,93.384 101.14,91.888 C 101.14,90.392 101.868,89.585 102.397,88.995 C 102.86,88.48 103.14,88.169 103.14,87.441 C 103.14,86.713 102.86,86.402 102.397,85.887 C 101.868,85.297 101.14,84.491 101.14,82.996 C 101.14,81.5 101.868,80.693 102.397,80.104 C 102.861,79.589 103.14,79.279 103.14,78.552 C 103.14,77.823 102.86,77.513 102.397,76.997 C 101.868,76.409 101.14,75.601 101.14,74.106 L 101.14,74.106 C 101.14,72.612 101.868,71.806 102.397,71.217 C 102.861,70.701 103.14,70.392 103.14,69.664 C 103.14,68.937 102.861,68.627 102.397,68.113 C 101.868,67.523 101.14,66.717 101.14,65.221 C 101.14,63.725 101.868,62.919 102.397,62.33 C 102.86,61.815 103.14,61.504 103.14,60.776 C 103.14,60.048 102.861,59.738 102.397,59.223 C 101.868,58.634 101.14,57.827 101.14,56.332 C 101.14,54.837 101.868,54.03 102.397,53.441 C 102.861,52.926 103.14,52.615 103.14,51.888 C 103.14,51.16 102.861,50.85 102.397,50.335 C 101.868,49.746 101.14,48.939 101.14,47.444 C 101.14,45.949 101.868,45.142 102.397,44.553 C 102.861,44.038 103.14,43.727 103.14,43 C 103.14,42.273 102.861,41.962 102.397,41.447 C 101.868,40.858 101.14,40.051 101.14,38.556 C 101.14,37.062 101.868,36.255 102.397,35.666 C 102.861,35.151 103.14,34.84 103.14,34.113 C 103.14,33.386 102.861,33.075 102.397,32.56 C 101.868,31.971 101.14,31.164 101.14,29.669 C 101.14,28.175 101.868,27.368 102.397,26.779 C 102.861,26.265 103.14,25.954 103.14,25.228 C 103.14,24.5 102.86,24.19 102.397,23.675 C 101.868,23.086 101.14,22.279 101.14,20.784 C 101.14,19.29 101.868,18.483 102.397,17.894 C 102.861,17.379 103.14,17.068 103.14,16.342 C 103.14,15.616 102.861,15.305 102.397,14.791 C 101.868,14.202 101.14,13.395 101.14,11.901 L 101.14,11.901 C 101.14,10.406 101.868,9.599 102.397,9.01 C 102.861,8.495 103.14,8.184 103.14,7.458 C 103.14,6.033 103.093,5.981 102.316,5.114 L 101.607,4.3 L 101.191,3.791 C 100.568,3.018 100.568,3.018 99.429,3.018 C 98.958,3.021 98.756,3.217 98.308,3.701 z "
   style="fill:url(#XMLID_10_)"
   id="path34" />

</g>
    <path
       d="M 23.825987,13.033605 C 23.825987,28.306471 23.825987,97.72714 23.825987,113 C 38.221148,113 89.404945,113 103.79911,113 C 103.79911,97.72914 103.79911,28.306471 103.79911,13.033605 C 89.403945,13.033605 38.220149,13.033605 23.825987,13.033605 z "
       style="fill:url(#XMLID_11_)"
       id="path41" />
    <path
       d="M 23.825987,13.033605 C 23.825987,28.306471 23.825987,97.72714 23.825987,113 C 38.221148,113 89.404945,113 103.79911,113 C 103.79911,97.72914 103.79911,28.306471 103.79911,13.033605 C 89.403945,13.033605 38.220149,13.033605 23.825987,13.033605 z "
       style="fill:url(#XMLID_12_)"
       id="path50" />
    <path
       d="M 23.825987,54.01983 L 23.825987,62.01714 C 51.938538,62.01714 74.808851,84.88745 74.808851,113 L 82.806163,113 C 82.806163,80.47794 56.347056,54.01983 23.825987,54.01983 z M 23.825987,74.01211 L 23.825987,82.00942 C 40.913243,82.00942 54.815571,95.91075 54.815571,112.99901 L 62.812883,112.99901 C 62.812883,91.50123 45.322761,74.01211 23.825987,74.01211 z M 23.825987,94.00539 L 23.825987,102.0027 C 29.888949,102.0027 34.822291,106.93704 34.822291,112.99901 L 42.819603,112.99901 C 42.819603,102.52553 34.298467,94.00539 23.825987,94.00539 z M 23.825987,34.026549 L 23.825987,42.023861 C 62.961833,42.023861 94.802131,73.86416 94.802131,113 L 102.79945,113 C 102.79945,69.45264 67.37235,34.026549 23.825987,34.026549 z M 88.242335,13.033605 L 71.965806,13.033605 C 83.922787,18.815661 94.690168,26.683017 103.79911,36.158832 L 103.79911,25.006581 C 98.958733,20.60506 93.755482,16.598407 88.242335,13.033605 z M 23.825987,14.033269 L 23.825987,22.030581 C 58.311396,22.030581 88.375291,41.318098 103.79911,69.67257 L 103.79911,54.77358 C 85.784162,30.097869 56.647955,14.033269 23.825987,14.033269 z "
       style="opacity:0.2;fill:#a4c0e4"
       id="path52" />
    <path
       d="M 39.820611,112.99901 L 47.817923,112.99901 C 47.817923,84.88745 70.689235,62.01614 98.800787,62.01614 C 100.48822,62.01614 102.15367,62.10311 103.79911,62.26406 L 103.79911,54.24575 C 102.15067,54.1068 100.48723,54.01883 98.800787,54.01883 C 66.278718,54.01983 39.820611,80.47794 39.820611,112.99901 z M 59.813891,112.99901 L 67.811203,112.99901 C 67.811203,95.91075 81.71253,82.00942 98.800787,82.00942 C 100.50122,82.00942 102.17066,82.15437 103.79911,82.41828 L 103.79911,74.343 C 102.16066,74.13307 100.49522,74.01211 98.800787,74.01211 C 77.302013,74.01211 59.813891,91.50123 59.813891,112.99901 z M 79.807171,112.99901 L 87.804483,112.99901 C 87.804483,106.93704 92.737824,102.0027 98.800787,102.0027 C 100.60119,102.0027 102.29762,102.44555 103.79911,103.21629 L 103.79911,94.69516 C 102.20365,94.2583 100.53221,94.00739 98.800787,94.00739 C 88.328307,94.00539 79.807171,102.52553 79.807171,112.99901 z M 23.825987,88.23733 L 23.825987,113 L 27.824643,113 C 27.824643,73.86416 59.66594,42.023861 98.800787,42.023861 C 100.48323,42.023861 102.14567,42.103834 103.79911,42.219795 L 103.79911,34.20149 C 102.14367,34.097525 100.48123,34.026549 98.800787,34.026549 C 63.903516,34.026549 34.240486,56.7879 23.825987,88.23733 z M 34.385438,13.033605 C 30.721669,15.402809 27.198853,17.968946 23.825987,20.714023 L 23.825987,31.274474 C 31.791309,23.960932 40.822274,17.791006 50.660967,13.033605 L 34.385438,13.033605 z M 98.800787,14.033269 C 68.861849,14.033269 41.987882,27.397777 23.825987,48.47069 L 23.825987,61.5423 C 40.243469,37.696315 67.726231,22.030581 98.800787,22.030581 C 100.47823,22.030581 102.14367,22.079564 103.79911,22.169534 L 103.79911,14.159227 C 102.14367,14.075255 100.47623,14.033269 98.800787,14.033269 z "
       style="opacity:0.1;fill:#ffffff"
       id="path54" />
    <g
       transform="matrix(0.999664,0,0,0.999664,10.68741,1.698e-2)"
       id="g56">
	<path
   d="M 74.647,39.288 L 74.647,33.857 L 65.379,33.857 L 65.379,32.108 L 74.276,19.344 L 77.19,19.344 L 77.19,31.77 L 79.983,31.77 L 79.983,33.856 L 77.19,33.856 L 77.19,39.287 L 74.647,39.288 L 74.647,39.288 z M 74.647,31.771 L 74.647,25.083 C 74.647,24.04 74.676,22.997 74.74,21.953 L 74.647,21.953 C 74.033,23.119 73.543,23.978 72.99,24.929 L 68.112,31.71 L 68.112,31.772 L 74.647,31.771 L 74.647,31.771 z "
   style="fill:#ffffff"
   id="path58" />

	<path
   d="M 83.354,34.903 L 83.387,34.903 C 83.588,34.618 83.856,34.25 84.09,33.983 L 86.483,31.188 L 88.242,31.188 L 85.11,34.519 L 88.676,39.289 L 86.885,39.289 L 84.106,35.39 L 83.354,36.244 L 83.354,39.29 L 81.881,39.29 L 81.881,27.405 L 83.354,27.405 L 83.354,34.903 L 83.354,34.903 z "
   style="fill:#ffffff"
   id="path60" />

</g>
  </g>
</svg>
