<?xml version="1.0" encoding="UTF-8" standalone="no"?>
<!-- Created with Inkscape (http://www.inkscape.org/) -->
<svg
   xmlns:dc="http://purl.org/dc/elements/1.1/"
   xmlns:cc="http://web.resource.org/cc/"
   xmlns:rdf="http://www.w3.org/1999/02/22-rdf-syntax-ns#"
   xmlns:svg="http://www.w3.org/2000/svg"
   xmlns="http://www.w3.org/2000/svg"
   xmlns:xlink="http://www.w3.org/1999/xlink"
   xmlns:sodipodi="http://sodipodi.sourceforge.net/DTD/sodipodi-0.dtd"
   xmlns:inkscape="http://www.inkscape.org/namespaces/inkscape"
   width="128"
   height="128"
   id="svg1307"
   sodipodi:version="0.32"
   inkscape:version="0.44"
   version="1.0"
   sodipodi:docbase="/home/pinheiro/artwork/Oxygen/theme/svg/actions"
   sodipodi:docname="underconstruction.svg">
  <defs
     id="defs1309">
    <linearGradient
       id="linearGradient3981">
      <stop
         style="stop-color:#664e00;stop-opacity:0.40569395;"
         offset="0"
         id="stop3983" />
      <stop
         id="stop3991"
         offset="0.1460177"
         style="stop-color:#6d5d00;stop-opacity:0;" />
      <stop
         id="stop3989"
         offset="0.5"
         style="stop-color:white;stop-opacity:0;" />
      <stop
         style="stop-color:#7a6300;stop-opacity:0;"
         offset="0.8761062"
         id="stop3993" />
      <stop
         style="stop-color:#7d6600;stop-opacity:0.51601422;"
         offset="1"
         id="stop3985" />
    </linearGradient>
    <linearGradient
       id="linearGradient3074">
      <stop
         style="stop-color:white;stop-opacity:0.73309606;"
         offset="0"
         id="stop3076" />
      <stop
         style="stop-color:white;stop-opacity:0;"
         offset="1"
         id="stop3078" />
    </linearGradient>
    <linearGradient
       id="linearGradient3058">
      <stop
         style="stop-color:#9a7600;stop-opacity:1;"
         offset="0"
         id="stop3060" />
      <stop
         id="stop3066"
         offset="0.09292036"
         style="stop-color:#e3ad00;stop-opacity:1;" />
      <stop
         style="stop-color:#ffcd2c;stop-opacity:1;"
         offset="0.5043171"
         id="stop3070" />
      <stop
         style="stop-color:#e3ad00;stop-opacity:1;"
         offset="0.91571385"
         id="stop3068" />
      <stop
         style="stop-color:#b98d00;stop-opacity:1;"
         offset="1"
         id="stop3062" />
    </linearGradient>
    <linearGradient
       id="linearGradient3291"
       inkscape:collect="always">
      <stop
         id="stop3293"
         offset="0"
         style="stop-color:#000000;stop-opacity:1;" />
      <stop
         id="stop3295"
         offset="1"
         style="stop-color:#000000;stop-opacity:0;" />
    </linearGradient>
    <radialGradient
       inkscape:collect="always"
       xlink:href="#linearGradient3291"
       id="radialGradient3616"
       gradientUnits="userSpaceOnUse"
       gradientTransform="matrix(1,0,0,0.197802,0,92.82166)"
       cx="63.912209"
       cy="115.70919"
       fx="64.958328"
       fy="124.28876"
       r="63.912209" />
    <linearGradient
       inkscape:collect="always"
       xlink:href="#linearGradient3058"
       id="linearGradient4081"
       gradientUnits="userSpaceOnUse"
       x1="16.154255"
       y1="45.876884"
       x2="16.841965"
       y2="123.08778" />
    <linearGradient
       inkscape:collect="always"
       xlink:href="#linearGradient3058"
       id="linearGradient4083"
       gradientUnits="userSpaceOnUse"
       x1="16.154255"
       y1="45.876884"
       x2="16.841965"
       y2="123.08778" />
    <linearGradient
       inkscape:collect="always"
       xlink:href="#linearGradient3981"
       id="linearGradient4085"
       gradientUnits="userSpaceOnUse"
       x1="7.5175147"
       y1="86.317051"
       x2="21.274901"
       y2="86.317051" />
    <linearGradient
       inkscape:collect="always"
       xlink:href="#linearGradient3058"
       id="linearGradient4087"
       gradientUnits="userSpaceOnUse"
       x1="16.154255"
       y1="45.876884"
       x2="16.841965"
       y2="123.08778" />
    <linearGradient
       inkscape:collect="always"
       xlink:href="#linearGradient3058"
       id="linearGradient4089"
       gradientUnits="userSpaceOnUse"
       x1="16.154255"
       y1="45.876884"
       x2="16.841965"
       y2="123.08778" />
    <linearGradient
       inkscape:collect="always"
       xlink:href="#linearGradient3981"
       id="linearGradient4091"
       gradientUnits="userSpaceOnUse"
       x1="7.5175147"
       y1="86.317051"
       x2="21.274901"
       y2="86.317051" />
    <linearGradient
       inkscape:collect="always"
       xlink:href="#linearGradient3058"
       id="linearGradient4093"
       gradientUnits="userSpaceOnUse"
       gradientTransform="matrix(1.059482,0,0,1.059482,-3.759048,-7.319988)"
       x1="119.13187"
       y1="21.341961"
       x2="119.13187"
       y2="49.528854" />
    <radialGradient
       inkscape:collect="always"
       xlink:href="#linearGradient3074"
       id="radialGradient4095"
       gradientUnits="userSpaceOnUse"
       gradientTransform="matrix(2.149154,-1.412281e-2,1.77308e-3,0.260414,-72.15664,22.14452)"
       cx="62.803009"
       cy="-20.893486"
       fx="62.803009"
       fy="-20.893486"
       r="56.328854" />
    <linearGradient
       inkscape:collect="always"
       xlink:href="#linearGradient3058"
       id="linearGradient4097"
       gradientUnits="userSpaceOnUse"
       gradientTransform="matrix(1,0,0,1.000484,0.823877,0)"
       x1="16.154255"
       y1="45.876884"
       x2="16.841965"
       y2="123.08778" />
    <linearGradient
       inkscape:collect="always"
       xlink:href="#linearGradient3058"
       id="linearGradient4099"
       gradientUnits="userSpaceOnUse"
       gradientTransform="matrix(1,0,0,1.000484,0.823877,0)"
       x1="16.154255"
       y1="45.876884"
       x2="16.841965"
       y2="123.08778" />
    <linearGradient
       inkscape:collect="always"
       xlink:href="#linearGradient3981"
       id="linearGradient4101"
       gradientUnits="userSpaceOnUse"
       gradientTransform="matrix(1,0,0,1.000484,0.823877,0)"
       x1="7.5175147"
       y1="86.317051"
       x2="21.274901"
       y2="86.317051" />
    <linearGradient
       inkscape:collect="always"
       xlink:href="#linearGradient3058"
       id="linearGradient4103"
       gradientUnits="userSpaceOnUse"
       x1="16.154255"
       y1="45.876884"
       x2="16.841965"
       y2="123.08778" />
    <linearGradient
       inkscape:collect="always"
       xlink:href="#linearGradient3058"
       id="linearGradient4105"
       gradientUnits="userSpaceOnUse"
       x1="16.154255"
       y1="45.876884"
       x2="16.841965"
       y2="123.08778" />
    <linearGradient
       inkscape:collect="always"
       xlink:href="#linearGradient3981"
       id="linearGradient4107"
       gradientUnits="userSpaceOnUse"
       x1="7.5175147"
       y1="86.317051"
       x2="21.274901"
       y2="86.317051" />
  </defs>
  <sodipodi:namedview
     id="base"
     pagecolor="#ffffff"
     bordercolor="#666666"
     borderopacity="1.0"
     inkscape:pageopacity="0.0"
     inkscape:pageshadow="2"
     inkscape:zoom="0.81774253"
     inkscape:cx="5.6657635"
     inkscape:cy="343.56535"
     inkscape:current-layer="layer1"
     showgrid="true"
     inkscape:document-units="px"
     inkscape:grid-bbox="true"
     guidetolerance="0.1px"
     showguides="true"
     inkscape:guide-bbox="true"
     inkscape:window-width="1106"
     inkscape:window-height="1011"
     inkscape:window-x="186"
     inkscape:window-y="25">
    <sodipodi:guide
       orientation="horizontal"
       position="-210.71782"
       id="guide2204" />
    <sodipodi:guide
       orientation="vertical"
       position="-7.9985295"
       id="guide4054" />
  </sodipodi:namedview>
  <metadata
     id="metadata1312">
    <rdf:RDF>
      <cc:Work
         rdf:about="">
        <dc:format>image/svg+xml</dc:format>
        <dc:type
           rdf:resource="http://purl.org/dc/dcmitype/StillImage" />
        <cc:license
           rdf:resource="http://creativecommons.org/licenses/GPL/2.0/" />
        <dc:contributor>
          <cc:Agent>
            <dc:title>Oxygen team</dc:title>
          </cc:Agent>
        </dc:contributor>
      </cc:Work>
      <cc:License
         rdf:about="http://creativecommons.org/licenses/LGPL/2.1/">
        <cc:permits
           rdf:resource="http://web.resource.org/cc/Reproduction" />
        <cc:permits
           rdf:resource="http://web.resource.org/cc/Distribution" />
        <cc:requires
           rdf:resource="http://web.resource.org/cc/Notice" />
        <cc:permits
           rdf:resource="http://web.resource.org/cc/DerivativeWorks" />
        <cc:requires
           rdf:resource="http://web.resource.org/cc/ShareAlike" />
        <cc:requires
           rdf:resource="http://web.resource.org/cc/SourceCode" />
      </cc:License>
    </rdf:RDF>
  </metadata>
  <g
     id="layer1"
     inkscape:label="Layer 1"
     inkscape:groupmode="layer">
    <path
       sodipodi:type="arc"
       style="opacity:0.38139535;fill:url(#radialGradient3616);fill-opacity:1;fill-rule:nonzero;stroke:none;stroke-width:0;stroke-linecap:round;stroke-linejoin:round;stroke-miterlimit:4;stroke-dasharray:none;stroke-dashoffset:4;stroke-opacity:1"
       id="path3289"
       sodipodi:cx="63.912209"
       sodipodi:cy="115.70919"
       sodipodi:rx="63.912209"
       sodipodi:ry="12.641975"
       d="M 127.82442 115.70919 A 63.912209 12.641975 0 1 1  0,115.70919 A 63.912209 12.641975 0 1 1  127.82442 115.70919 z"
       transform="matrix(1,0,0,0.416667,0.310672,75.40153)" />
    <path
       sodipodi:nodetypes="ccc"
       id="path2276"
       d="M 50.892799,3.2812959 L 50.892799,0.48658747 L 50.892799,3.2812959 z "
       style="fill:#ffffff;fill-opacity:0.75688076;fill-rule:nonzero;stroke:none;stroke-width:0.5;stroke-linecap:round;stroke-linejoin:round;stroke-miterlimit:4;stroke-dasharray:none;stroke-dashoffset:4;stroke-opacity:1" />
    <path
       sodipodi:nodetypes="ccc"
       id="path3206"
       d="M -68.609401,-83.348954 L -68.609401,-86.143663 L -68.609401,-83.348954 z "
       style="fill:white;fill-opacity:0.75688076;fill-rule:nonzero;stroke:none;stroke-width:0.5;stroke-linecap:round;stroke-linejoin:round;stroke-miterlimit:4;stroke-dasharray:none;stroke-dashoffset:4;stroke-opacity:1" />
    <g
       id="layer4"
       inkscape:label="box"
       style="display:inline"
       transform="translate(114.3422,61.23268)" />
    <g
       id="layer5"
       inkscape:label="zip_app"
       style="display:inline"
       transform="translate(114.3422,61.23268)" />
    <path
       sodipodi:nodetypes="ccc"
       id="path3534"
       d="M -60.519401,-58.414084 L -60.519401,-61.208793 L -60.519401,-58.414084 z "
       style="fill:white;fill-opacity:0.75688076;fill-rule:nonzero;stroke:none;stroke-width:0.5;stroke-linecap:round;stroke-linejoin:round;stroke-miterlimit:4;stroke-dasharray:none;stroke-dashoffset:4;stroke-opacity:1" />
    <g
       id="g4056"
       transform="matrix(1.01518,0,0,1.019483,-0.219403,-2.458849)">
      <g
         id="g4028"
         transform="matrix(-0.932176,0,-6.167466e-2,1.006619,129.5021,-5.025243)">
        <rect
           style="opacity:1;fill:url(#linearGradient4081);fill-opacity:1;stroke:none;stroke-width:2.7650001;stroke-linecap:round;stroke-linejoin:round;stroke-miterlimit:4;stroke-dasharray:none;stroke-dashoffset:4;stroke-opacity:1"
           id="rect4030"
           width="13.757386"
           height="73.541473"
           x="7.5175147"
           y="49.546314"
           rx="0.53885245"
           ry="0.45097709"
           transform="matrix(1,0,-2.078553e-2,0.999784,0,0)" />
        <rect
           transform="matrix(1,0,-2.078553e-2,0.999784,0,0)"
           ry="0.45097709"
           rx="0.53885245"
           y="49.546314"
           x="7.5175147"
           height="73.541473"
           width="13.757386"
           id="rect4032"
           style="opacity:1;fill:url(#linearGradient4083);fill-opacity:1;stroke:none;stroke-width:2.7650001;stroke-linecap:round;stroke-linejoin:round;stroke-miterlimit:4;stroke-dasharray:none;stroke-dashoffset:4;stroke-opacity:1" />
        <rect
           style="opacity:1;fill:url(#linearGradient4085);fill-opacity:1;stroke:none;stroke-width:2.7650001;stroke-linecap:round;stroke-linejoin:round;stroke-miterlimit:4;stroke-dasharray:none;stroke-dashoffset:4;stroke-opacity:1"
           id="rect4034"
           width="13.757386"
           height="73.541473"
           x="7.5175147"
           y="49.546314"
           rx="0.53885245"
           ry="0.45097709"
           transform="matrix(1,0,-2.078553e-2,0.999784,0,0)" />
      </g>
      <rect
         ry="0.45442933"
         rx="0.50230539"
         y="93.30854"
         x="12.405513"
         height="7.6724482"
         width="100.26414"
         id="rect4050"
         style="opacity:1;fill:#e3ad00;fill-opacity:1;stroke:none;stroke-width:2.7650001;stroke-linecap:round;stroke-linejoin:round;stroke-miterlimit:4;stroke-dasharray:none;stroke-dashoffset:4;stroke-opacity:1" />
      <g
         transform="matrix(0.932176,0,6.167466e-2,1.006619,-3.590293,-5.025243)"
         id="g4014">
        <rect
           transform="matrix(1,0,-2.078553e-2,0.999784,0,0)"
           ry="0.45097709"
           rx="0.53885245"
           y="49.546314"
           x="7.5175147"
           height="73.541473"
           width="13.757386"
           id="rect4016"
           style="opacity:1;fill:url(#linearGradient4087);fill-opacity:1;stroke:none;stroke-width:2.7650001;stroke-linecap:round;stroke-linejoin:round;stroke-miterlimit:4;stroke-dasharray:none;stroke-dashoffset:4;stroke-opacity:1" />
        <rect
           style="opacity:1;fill:url(#linearGradient4089);fill-opacity:1;stroke:none;stroke-width:2.7650001;stroke-linecap:round;stroke-linejoin:round;stroke-miterlimit:4;stroke-dasharray:none;stroke-dashoffset:4;stroke-opacity:1"
           id="rect4018"
           width="13.757386"
           height="73.541473"
           x="7.5175147"
           y="49.546314"
           rx="0.53885245"
           ry="0.45097709"
           transform="matrix(1,0,-2.078553e-2,0.999784,0,0)" />
        <rect
           transform="matrix(1,0,-2.078553e-2,0.999784,0,0)"
           ry="0.45097709"
           rx="0.53885245"
           y="49.546314"
           x="7.5175147"
           height="73.541473"
           width="13.757386"
           id="rect4020"
           style="opacity:1;fill:url(#linearGradient4091);fill-opacity:1;stroke:none;stroke-width:2.7650001;stroke-linecap:round;stroke-linejoin:round;stroke-miterlimit:4;stroke-dasharray:none;stroke-dashoffset:4;stroke-opacity:1" />
      </g>
      <path
         style="opacity:1;fill:#2e3436;fill-opacity:1;stroke:none;stroke-width:2.7650001;stroke-linecap:round;stroke-linejoin:round;stroke-miterlimit:4;stroke-dasharray:none;stroke-dashoffset:4;stroke-opacity:1"
         d="M 17.224273,93.308463 L 22.84233,100.98462 L 27.876332,100.98462 L 22.258274,93.308463 L 17.224273,93.308463 z M 27.06978,93.308463 L 32.687836,100.98462 L 37.721837,100.98462 L 32.10378,93.308463 L 27.06978,93.308463 z M 35.469052,93.308463 L 41.08711,100.98462 L 46.121111,100.98462 L 40.530867,93.308463 L 35.469052,93.308463 z M 45.342371,93.308463 L 50.960427,100.98462 L 55.994429,100.98462 L 50.376372,93.308463 L 45.342371,93.308463 z M 55.187876,93.308463 L 60.805934,100.98462 L 65.839935,100.98462 L 60.221878,93.308463 L 55.187876,93.308463 z M 63.587149,93.308463 L 69.205207,100.98462 L 74.239208,100.98462 L 68.621151,93.308463 L 63.587149,93.308463 z M 73.460467,93.308463 L 79.078524,100.98462 L 84.084714,100.98462 L 78.494469,93.308463 L 73.460467,93.308463 z M 83.305973,93.308463 L 88.92403,100.98462 L 93.958032,100.98462 L 88.339975,93.308463 L 83.305973,93.308463 z M 91.705247,93.308463 L 97.323302,100.98462 L 102.35731,100.98462 L 96.739251,93.308463 L 91.705247,93.308463 z M 101.57856,93.308463 L 107.16881,100.98462 L 112.2028,100.98462 L 106.61257,93.308463 L 101.57856,93.308463 z M 111.42407,93.308463 L 112.67562,95.005005 L 112.67562,93.725646 C 112.67562,93.497223 112.45423,93.308463 112.2028,93.308463 L 111.42407,93.308463 z M 12.524018,93.475337 C 12.465355,93.544803 12.412769,93.630935 12.412769,93.725646 L 12.412769,100.20588 L 12.969012,100.98462 L 18.003015,100.98462 L 12.524018,93.475337 z "
         id="path4052" />
      <rect
         style="opacity:1;fill:#e3ad00;fill-opacity:1;stroke:none;stroke-width:2.7650001;stroke-linecap:round;stroke-linejoin:round;stroke-miterlimit:4;stroke-dasharray:none;stroke-dashoffset:4;stroke-opacity:1"
         id="rect3042"
         width="118.21376"
         height="9.0459948"
         x="3.4301732"
         y="94.368011"
         rx="0.50230539"
         ry="0.45442933" />
      <path
         id="path3046"
         d="M 9.1116036,94.367946 L 15.735423,103.41832 L 21.670628,103.41832 L 15.046808,94.367946 L 9.1116036,94.367946 z M 20.719684,94.367946 L 27.343503,103.41832 L 33.278708,103.41832 L 26.654888,94.367946 L 20.719684,94.367946 z M 30.622623,94.367946 L 37.246442,103.41832 L 43.181647,103.41832 L 36.590618,94.367946 L 30.622623,94.367946 z M 42.263493,94.367946 L 48.887313,103.41832 L 54.822518,103.41832 L 48.198698,94.367946 L 42.263493,94.367946 z M 53.871574,94.367946 L 60.495394,103.41832 L 66.430599,103.41832 L 59.806779,94.367946 L 53.871574,94.367946 z M 63.774512,94.367946 L 70.398332,103.41832 L 76.333537,103.41832 L 69.709717,94.367946 L 63.774512,94.367946 z M 75.415383,94.367946 L 82.039203,103.41832 L 87.941617,103.41832 L 81.350588,94.367946 L 75.415383,94.367946 z M 87.023464,94.367946 L 93.647284,103.41832 L 99.582489,103.41832 L 92.958669,94.367946 L 87.023464,94.367946 z M 96.926402,94.367946 L 103.55022,103.41832 L 109.48543,103.41832 L 102.86161,94.367946 L 96.926402,94.367946 z M 108.56727,94.367946 L 115.1583,103.41832 L 121.0935,103.41832 L 114.50248,94.367946 L 108.56727,94.367946 z M 120.17535,94.367946 L 121.65096,96.368208 L 121.65096,94.859814 C 121.65096,94.590497 121.38993,94.367946 121.0935,94.367946 L 120.17535,94.367946 z M 3.5698933,94.564694 C 3.500729,94.646596 3.4387285,94.748147 3.4387285,94.859814 L 3.4387285,102.50016 L 4.0945522,103.41832 L 10.029757,103.41832 L 3.5698933,94.564694 z "
         style="opacity:1;fill:#2e3436;fill-opacity:1;stroke:none;stroke-width:2.7650001;stroke-linecap:round;stroke-linejoin:round;stroke-miterlimit:4;stroke-dasharray:none;stroke-dashoffset:4;stroke-opacity:1" />
      <rect
         ry="0.45442933"
         rx="0.50230539"
         y="15.291446"
         x="3.1002085"
         height="29.86352"
         width="119.35886"
         id="rect3030"
         style="opacity:1;fill:url(#linearGradient4093);fill-opacity:1;stroke:none;stroke-width:2.7650001;stroke-linecap:round;stroke-linejoin:round;stroke-miterlimit:4;stroke-dasharray:none;stroke-dashoffset:4;stroke-opacity:1" />
      <path
         id="rect3032"
         d="M 12.227387,15.248232 C 12.218219,15.299521 12.230325,15.342695 12.258118,15.380667 L 34.056362,45.112394 L 48.392484,45.112394 L 48.476445,45.046176 C 48.6045,44.945186 48.632332,44.806828 48.565159,44.715088 L 27.027033,15.248232 L 12.227387,15.248232 z M 41.296937,15.248232 C 41.287769,15.299521 41.299877,15.342695 41.327668,15.380667 L 63.125912,45.112394 L 77.462034,45.112394 L 77.545995,45.046176 C 77.674043,44.945186 77.701879,44.806839 77.63471,44.715088 L 56.096583,15.248232 L 41.296937,15.248232 z M 70.366487,15.248232 C 70.357319,15.299521 70.369427,15.342695 70.397219,15.380667 L 92.195462,45.112394 L 106.53158,45.112394 L 106.61555,45.046176 C 106.74359,44.945186 106.77143,44.806839 106.70426,44.715088 L 85.166133,15.248232 L 70.366487,15.248232 z "
         style="opacity:1;fill:#2e3436;fill-opacity:1;stroke:none;stroke-width:2.7650001;stroke-linecap:round;stroke-linejoin:round;stroke-miterlimit:4;stroke-dasharray:none;stroke-dashoffset:4;stroke-opacity:1" />
      <rect
         style="opacity:1;fill:url(#radialGradient4095);fill-opacity:1;stroke:none;stroke-width:2.7650001;stroke-linecap:round;stroke-linejoin:round;stroke-miterlimit:4;stroke-dasharray:none;stroke-dashoffset:4;stroke-opacity:1"
         id="rect3072"
         width="119.35886"
         height="29.338367"
         x="3.1002085"
         y="15.816598"
         rx="0.50230539"
         ry="0.45442933" />
      <g
         transform="matrix(1.059482,0,0,1.059482,-3.759048,-7.319988)"
         id="g3995">
        <rect
           style="opacity:1;fill:url(#linearGradient4097);fill-opacity:1;stroke:none;stroke-width:2.7650001;stroke-linecap:round;stroke-linejoin:round;stroke-miterlimit:4;stroke-dasharray:none;stroke-dashoffset:4;stroke-opacity:1"
           id="rect3026"
           width="13.757386"
           height="73.577057"
           x="8.3413916"
           y="49.570286"
           rx="0.47410452"
           ry="0.42861575"
           transform="matrix(1,0,-3.739586e-2,0.999301,0,0)" />
        <rect
           transform="matrix(1,0,-3.739586e-2,0.999301,0,0)"
           ry="0.42861575"
           rx="0.47410452"
           y="49.570286"
           x="8.3413916"
           height="73.577057"
           width="13.757386"
           id="rect3977"
           style="opacity:1;fill:url(#linearGradient4099);fill-opacity:1;stroke:none;stroke-width:2.7650001;stroke-linecap:round;stroke-linejoin:round;stroke-miterlimit:4;stroke-dasharray:none;stroke-dashoffset:4;stroke-opacity:1" />
        <rect
           style="opacity:1;fill:url(#linearGradient4101);fill-opacity:1;stroke:none;stroke-width:2.7650001;stroke-linecap:round;stroke-linejoin:round;stroke-miterlimit:4;stroke-dasharray:none;stroke-dashoffset:4;stroke-opacity:1"
           id="rect3979"
           width="13.757386"
           height="73.577057"
           x="8.3413916"
           y="49.570286"
           rx="0.47410452"
           ry="0.42861575"
           transform="matrix(1,0,-3.739586e-2,0.999301,0,0)" />
      </g>
      <g
         transform="matrix(-1.059482,0,3.083733e-2,1.059482,127.6575,-7.319988)"
         id="g4000">
        <rect
           transform="matrix(1,0,-2.078553e-2,0.999784,0,0)"
           ry="0.42880988"
           rx="0.47410452"
           y="49.546314"
           x="7.5175147"
           height="73.541473"
           width="13.757386"
           id="rect4002"
           style="opacity:1;fill:url(#linearGradient4103);fill-opacity:1;stroke:none;stroke-width:2.7650001;stroke-linecap:round;stroke-linejoin:round;stroke-miterlimit:4;stroke-dasharray:none;stroke-dashoffset:4;stroke-opacity:1" />
        <rect
           style="opacity:1;fill:url(#linearGradient4105);fill-opacity:1;stroke:none;stroke-width:2.7650001;stroke-linecap:round;stroke-linejoin:round;stroke-miterlimit:4;stroke-dasharray:none;stroke-dashoffset:4;stroke-opacity:1"
           id="rect4004"
           width="13.757386"
           height="73.541473"
           x="7.5175147"
           y="49.546314"
           rx="0.47410452"
           ry="0.42880988"
           transform="matrix(1,0,-2.078553e-2,0.999784,0,0)" />
        <rect
           transform="matrix(1,0,-2.078553e-2,0.999784,0,0)"
           ry="0.42880988"
           rx="0.47410452"
           y="49.546314"
           x="7.5175147"
           height="73.541473"
           width="13.757386"
           id="rect4006"
           style="opacity:1;fill:url(#linearGradient4107);fill-opacity:1;stroke:none;stroke-width:2.7650001;stroke-linecap:round;stroke-linejoin:round;stroke-miterlimit:4;stroke-dasharray:none;stroke-dashoffset:4;stroke-opacity:1" />
      </g>
    </g>
  </g>
</svg>
