<?xml version="1.0" encoding="UTF-8" standalone="no"?>
<!-- Created with Inkscape (http://www.inkscape.org/) -->
<svg
   xmlns:dc="http://purl.org/dc/elements/1.1/"
   xmlns:cc="http://web.resource.org/cc/"
   xmlns:rdf="http://www.w3.org/1999/02/22-rdf-syntax-ns#"
   xmlns:svg="http://www.w3.org/2000/svg"
   xmlns="http://www.w3.org/2000/svg"
   xmlns:xlink="http://www.w3.org/1999/xlink"
   xmlns:sodipodi="http://sodipodi.sourceforge.net/DTD/sodipodi-0.dtd"
   xmlns:inkscape="http://www.inkscape.org/namespaces/inkscape"
   width="128"
   height="128"
   id="svg1307"
   sodipodi:version="0.32"
   inkscape:version="0.44"
   version="1.0"
   sodipodi:docbase="/home/pinheiro/artwork/Oxygen/theme/svg/actions"
   sodipodi:docname="viewmagfit.svg"
   inkscape:export-filename="/home/pinheiro/Documents/pics/new oxygen/svg/viewmag.png"
   inkscape:export-xdpi="33.75"
   inkscape:export-ydpi="33.75">
  <defs
     id="defs1309">
    <linearGradient
       inkscape:collect="always"
       id="linearGradient4171">
      <stop
         style="stop-color:#000000;stop-opacity:1;"
         offset="0"
         id="stop4173" />
      <stop
         style="stop-color:#000000;stop-opacity:0;"
         offset="1"
         id="stop4175" />
    </linearGradient>
    <linearGradient
       id="linearGradient5176">
      <stop
         style="stop-color:#ffffff;stop-opacity:1;"
         offset="0"
         id="stop5178" />
      <stop
         style="stop-color:#ffffff;stop-opacity:0;"
         offset="1"
         id="stop5180" />
    </linearGradient>
    <linearGradient
       inkscape:collect="always"
       id="linearGradient5111">
      <stop
         style="stop-color:#ffffff;stop-opacity:1;"
         offset="0"
         id="stop5113" />
      <stop
         style="stop-color:#ffffff;stop-opacity:0;"
         offset="1"
         id="stop5115" />
    </linearGradient>
    <linearGradient
       id="linearGradient3319">
      <stop
         style="stop-color:#000000;stop-opacity:0;"
         offset="0"
         id="stop3321" />
      <stop
         id="stop2287"
         offset="0.86263734"
         style="stop-color:#000000;stop-opacity:0;" />
      <stop
         style="stop-color:#000000;stop-opacity:0.27797833;"
         offset="1"
         id="stop3323" />
    </linearGradient>
    <linearGradient
       inkscape:collect="always"
       id="linearGradient3201">
      <stop
         style="stop-color:#ffffff;stop-opacity:1;"
         offset="0"
         id="stop3203" />
      <stop
         style="stop-color:#ffffff;stop-opacity:0;"
         offset="1"
         id="stop3205" />
    </linearGradient>
    <linearGradient
       inkscape:collect="always"
       id="linearGradient2288">
      <stop
         style="stop-color:#ffffff;stop-opacity:1;"
         offset="0"
         id="stop2290" />
      <stop
         style="stop-color:#ffffff;stop-opacity:0;"
         offset="1"
         id="stop2292" />
    </linearGradient>
    <linearGradient
       inkscape:collect="always"
       id="linearGradient3291">
      <stop
         style="stop-color:#000000;stop-opacity:1;"
         offset="0"
         id="stop3293" />
      <stop
         style="stop-color:#000000;stop-opacity:0;"
         offset="1"
         id="stop3295" />
    </linearGradient>
    <linearGradient
       id="linearGradient3225">
      <stop
         style="stop-color:#ffffff;stop-opacity:1;"
         offset="0"
         id="stop3227" />
      <stop
         style="stop-color:#aeaeae;stop-opacity:1;"
         offset="1"
         id="stop3229" />
    </linearGradient>
    <radialGradient
       r="30.543081"
       fy="12.71858"
       fx="40.478764"
       cy="27.809845"
       cx="40.478767"
       gradientTransform="matrix(1.589275,-0.425844,0.243887,0.910199,-37.92457,18.68237)"
       gradientUnits="userSpaceOnUse"
       id="radialGradient2939"
       xlink:href="#linearGradient5176"
       inkscape:collect="always" />
    <radialGradient
       gradientUnits="userSpaceOnUse"
       gradientTransform="matrix(0.879535,-1.048023,9.848034,8.264801,-574.5999,-511.3324)"
       r="3.3125"
       fy="69.914368"
       fx="-24.225885"
       cy="69.921875"
       cx="-22.1875"
       id="radialGradient2925"
       xlink:href="#linearGradient2919"
       inkscape:collect="always" />
    <linearGradient
       gradientUnits="userSpaceOnUse"
       y2="69.203728"
       x2="11.559948"
       y1="39.786095"
       x1="34.583656"
       id="linearGradient2901"
       xlink:href="#linearGradient2895"
       inkscape:collect="always" />
    <radialGradient
       r="6.9319901"
       fy="73.295685"
       fx="0.90558416"
       cy="74.833298"
       cx="3.953125"
       gradientTransform="matrix(0.414436,-0.58126,5.854653,5.01666,-343.1032,-285.4254)"
       gradientUnits="userSpaceOnUse"
       id="radialGradient2869"
       xlink:href="#linearGradient2856"
       inkscape:collect="always" />
    <linearGradient
       gradientUnits="userSpaceOnUse"
       y2="51.819294"
       x2="18.120522"
       y1="-5.6775899"
       x1="95.512604"
       id="linearGradient2852"
       xlink:href="#linearGradient2846"
       inkscape:collect="always" />
    <radialGradient
       r="30.543081"
       fy="12.71858"
       fx="40.478764"
       cy="27.809845"
       cx="40.478767"
       gradientTransform="matrix(1.645338,6.483662e-7,-3.939298e-7,0.942307,-30.75688,0.257555)"
       gradientUnits="userSpaceOnUse"
       id="radialGradient2860"
       xlink:href="#linearGradient5176"
       inkscape:collect="always" />
    <linearGradient
       gradientUnits="userSpaceOnUse"
       y2="15.465893"
       x2="91.968735"
       y1="96.533218"
       x1="37.55431"
       id="linearGradient2843"
       xlink:href="#linearGradient2845"
       inkscape:collect="always" />
    <linearGradient
       gradientUnits="userSpaceOnUse"
       y2="59.958351"
       x2="74.892326"
       y1="79.657753"
       x1="55.834988"
       id="linearGradient2835"
       xlink:href="#linearGradient2875"
       inkscape:collect="always" />
    <linearGradient
       id="linearGradient2845">
      <stop
         style="stop-color:#6a6a6a;stop-opacity:1;"
         offset="0"
         id="stop2847" />
      <stop
         id="stop2855"
         offset="0.06762566"
         style="stop-color:#898989;stop-opacity:1;" />
      <stop
         style="stop-color:#a3a3a3;stop-opacity:1;"
         offset="0.11523812"
         id="stop2857" />
      <stop
         id="stop2853"
         offset="0.12610619"
         style="stop-color:#a8a8a8;stop-opacity:1;" />
      <stop
         id="stop2851"
         offset="0.5"
         style="stop-color:#e7e7e7;stop-opacity:1;" />
      <stop
         style="stop-color:#aeaeae;stop-opacity:1;"
         offset="1"
         id="stop2849" />
    </linearGradient>
    <linearGradient
       id="linearGradient2875">
      <stop
         style="stop-color:black;stop-opacity:1;"
         offset="0"
         id="stop2877" />
      <stop
         style="stop-color:#c9c9c9;stop-opacity:1;"
         offset="1"
         id="stop2879" />
    </linearGradient>
    <linearGradient
       id="linearGradient2846"
       inkscape:collect="always">
      <stop
         id="stop2848"
         offset="0"
         style="stop-color:#2c72c7;stop-opacity:1;" />
      <stop
         id="stop2850"
         offset="1"
         style="stop-color:#2c72c7;stop-opacity:0;" />
    </linearGradient>
    <linearGradient
       id="linearGradient2856">
      <stop
         id="stop2858"
         offset="0"
         style="stop-color:black;stop-opacity:1;" />
      <stop
         style="stop-color:black;stop-opacity:0.23843417;"
         offset="0.66371679"
         id="stop2864" />
      <stop
         id="stop2860"
         offset="1"
         style="stop-color:black;stop-opacity:0;" />
    </linearGradient>
    <linearGradient
       id="linearGradient2895">
      <stop
         id="stop2897"
         offset="0"
         style="stop-color:#99bbe4;stop-opacity:1;" />
      <stop
         id="stop2899"
         offset="1"
         style="stop-color:white;stop-opacity:1;" />
    </linearGradient>
    <linearGradient
       id="linearGradient2919"
       inkscape:collect="always">
      <stop
         id="stop2921"
         offset="0"
         style="stop-color:white;stop-opacity:1;" />
      <stop
         id="stop2923"
         offset="1"
         style="stop-color:white;stop-opacity:0;" />
    </linearGradient>
    <radialGradient
       inkscape:collect="always"
       xlink:href="#linearGradient3291"
       id="radialGradient2229"
       gradientUnits="userSpaceOnUse"
       gradientTransform="matrix(1,0,0,0.197802,0,92.82166)"
       cx="63.912209"
       cy="115.70919"
       fx="98.520187"
       fy="119.62119"
       r="63.912209" />
    <radialGradient
       inkscape:collect="always"
       xlink:href="#linearGradient3319"
       id="radialGradient2231"
       gradientUnits="userSpaceOnUse"
       gradientTransform="matrix(0.993088,2.250037e-2,-2.180165e-2,0.952313,1.715624,0.815028)"
       cx="39.126225"
       cy="44.269405"
       fx="39.12624"
       fy="44.269413"
       r="34.469492" />
    <radialGradient
       inkscape:collect="always"
       xlink:href="#linearGradient2288"
       id="radialGradient2233"
       gradientUnits="userSpaceOnUse"
       gradientTransform="matrix(0.599945,-0.725801,7.847448,6.600672,-444.8151,-313.0422)"
       cx="49.157429"
       cy="62.380642"
       fx="45.900455"
       fy="62.298256"
       r="8.3332365" />
    <radialGradient
       inkscape:collect="always"
       xlink:href="#linearGradient2288"
       id="radialGradient2235"
       gradientUnits="userSpaceOnUse"
       gradientTransform="matrix(0.599945,-0.725801,7.847448,6.600672,-444.8151,-313.0422)"
       cx="32.489605"
       cy="69.225014"
       fx="29.738691"
       fy="69.225014"
       r="8.3332365" />
    <radialGradient
       inkscape:collect="always"
       xlink:href="#linearGradient3201"
       id="radialGradient2237"
       gradientUnits="userSpaceOnUse"
       gradientTransform="matrix(1,0,0,0.350763,0,33.62806)"
       cx="53.82272"
       cy="51.796238"
       fx="53.363365"
       fy="53.704475"
       r="5.2844129" />
    <radialGradient
       inkscape:collect="always"
       xlink:href="#linearGradient3201"
       id="radialGradient2239"
       gradientUnits="userSpaceOnUse"
       gradientTransform="matrix(1,0,0,0.350763,0,33.62806)"
       cx="53.82272"
       cy="51.796238"
       fx="53.363365"
       fy="53.704475"
       r="5.2844129" />
    <linearGradient
       inkscape:collect="always"
       xlink:href="#linearGradient3225"
       id="linearGradient2241"
       gradientUnits="userSpaceOnUse"
       gradientTransform="matrix(-0.342816,0.414732,0.409438,0.344388,68.74377,42.51885)"
       spreadMethod="reflect"
       x1="28.071711"
       y1="20.204628"
       x2="40.198689"
       y2="20.20463" />
    <linearGradient
       inkscape:collect="always"
       xlink:href="#linearGradient5111"
       id="linearGradient2243"
       gradientUnits="userSpaceOnUse"
       x1="34.841892"
       y1="-7.142458"
       x2="35.561386"
       y2="11.415728" />
    <linearGradient
       inkscape:collect="always"
       xlink:href="#linearGradient5111"
       id="linearGradient2245"
       gradientUnits="userSpaceOnUse"
       x1="34.841892"
       y1="-7.142458"
       x2="35.561386"
       y2="11.415728" />
    <linearGradient
       inkscape:collect="always"
       xlink:href="#linearGradient5111"
       id="linearGradient2247"
       gradientUnits="userSpaceOnUse"
       x1="34.841892"
       y1="-7.142458"
       x2="35.561386"
       y2="11.415728" />
    <linearGradient
       inkscape:collect="always"
       xlink:href="#linearGradient5111"
       id="linearGradient2249"
       gradientUnits="userSpaceOnUse"
       x1="34.841892"
       y1="-7.142458"
       x2="35.561386"
       y2="11.415728" />
    <linearGradient
       inkscape:collect="always"
       xlink:href="#linearGradient5111"
       id="linearGradient2251"
       gradientUnits="userSpaceOnUse"
       x1="34.841892"
       y1="-7.142458"
       x2="35.561386"
       y2="11.415728" />
    <linearGradient
       inkscape:collect="always"
       xlink:href="#linearGradient5111"
       id="linearGradient2253"
       gradientUnits="userSpaceOnUse"
       x1="34.841892"
       y1="-7.142458"
       x2="35.561386"
       y2="11.415728" />
    <linearGradient
       inkscape:collect="always"
       xlink:href="#linearGradient4171"
       id="linearGradient2255"
       gradientUnits="userSpaceOnUse"
       gradientTransform="matrix(1.004983,0,0,1.005797,-3.514071e-3,-9.765696e-2)"
       x1="67.515175"
       y1="86.706062"
       x2="63.401665"
       y2="61.357201" />
    <linearGradient
       y2="13.0004"
       x2="3.0004"
       y1="111.001"
       x1="101.001"
       gradientUnits="userSpaceOnUse"
       id="XMLID_8_">
      <stop
         id="stop24"
         style="stop-color:#FFFFFF"
         offset="0" />
      <stop
         id="stop26"
         style="stop-color:#E0F0FF"
         offset="0.5" />
      <stop
         id="stop28"
         style="stop-color:#FFFFFF"
         offset="1" />
    </linearGradient>
    <linearGradient
       inkscape:collect="always"
       xlink:href="#XMLID_8_"
       id="linearGradient2616"
       gradientUnits="userSpaceOnUse"
       x1="101.001"
       y1="111.001"
       x2="3.0004"
       y2="13.0004" />
    <radialGradient
       inkscape:collect="always"
       xlink:href="#linearGradient3291"
       id="radialGradient2618"
       gradientUnits="userSpaceOnUse"
       gradientTransform="matrix(1,0,0,0.197802,0,92.82166)"
       cx="63.912209"
       cy="115.70919"
       fx="63.912209"
       fy="115.7093"
       r="63.912209" />
  </defs>
  <sodipodi:namedview
     id="base"
     pagecolor="#ffffff"
     bordercolor="#666666"
     borderopacity="1.0"
     inkscape:pageopacity="0.0"
     inkscape:pageshadow="2"
     inkscape:zoom="3.7216076"
     inkscape:cx="61.038197"
     inkscape:cy="1.2163978"
     inkscape:current-layer="layer1"
     showgrid="true"
     inkscape:document-units="px"
     inkscape:grid-bbox="true"
     guidetolerance="0.1px"
     showguides="true"
     inkscape:guide-bbox="true"
     inkscape:window-width="1106"
     inkscape:window-height="902"
     inkscape:window-x="75"
     inkscape:window-y="25">
    <sodipodi:guide
       orientation="horizontal"
       position="32.487481"
       id="guide2204" />
  </sodipodi:namedview>
  <metadata
     id="metadata1312">
    <rdf:RDF>
      <cc:Work
         rdf:about="">
        <dc:format>image/svg+xml</dc:format>
        <dc:type
           rdf:resource="http://purl.org/dc/dcmitype/StillImage" />
        <cc:license
           rdf:resource="http://creativecommons.org/licenses/GPL/2.0/" />
        <dc:contributor>
          <cc:Agent>
            <dc:title>Oxygen team</dc:title>
          </cc:Agent>
        </dc:contributor>
      </cc:Work>
      <cc:License
         rdf:about="http://creativecommons.org/licenses/LGPL/2.1/">
        <cc:permits
           rdf:resource="http://web.resource.org/cc/Reproduction" />
        <cc:permits
           rdf:resource="http://web.resource.org/cc/Distribution" />
        <cc:requires
           rdf:resource="http://web.resource.org/cc/Notice" />
        <cc:permits
           rdf:resource="http://web.resource.org/cc/DerivativeWorks" />
        <cc:requires
           rdf:resource="http://web.resource.org/cc/ShareAlike" />
        <cc:requires
           rdf:resource="http://web.resource.org/cc/SourceCode" />
      </cc:License>
    </rdf:RDF>
  </metadata>
  <g
     id="layer1"
     inkscape:label="Layer 1"
     inkscape:groupmode="layer">
    <g
       id="g11"
       transform="matrix(0.493364,0,0,0.493364,10.17038,64.12013)">
      <path
         d="M 4,1.3572476e-14 C 1.794,1.3572476e-14 -2.471981e-15,1.794 -2.471981e-15,4 L -2.471981e-15,120 C -2.471981e-15,122.206 1.794,124 4,124 L 100,124 C 102.206,124 104,122.206 104,120 L 104,4 C 104,1.794 102.206,1.3572476e-14 100,1.3572476e-14 L 92.030883,1.3572476e-14 C 68.517705,-5.3168404 44.499716,-8.8668407 16.934058,1.3572476e-14 L 4,1.3572476e-14 z "
         id="path13"
         style="opacity:0.1"
         sodipodi:nodetypes="ccccccccccc" />
      <path
         d="M 4,1 C 2.346,1 1,2.346 1,4 L 1,120 C 1,121.654 2.346,123 4,123 L 100,123 C 101.654,123 103,121.654 103,120 L 103,4 C 103,2.346 101.654,1 100,1 L 90.875547,1 C 67.294552,-3.0869767 43.538259,-6.5019766 16.934058,1 L 4,1 z "
         id="path15"
         style="opacity:0.15"
         sodipodi:nodetypes="ccccccccccc" />
      <path
         d="M 4,2 C 2.897,2 2,2.897 2,4 L 2,120 C 2,121.103 2.897,122 4,122 L 100,122 C 101.103,122 102,121.103 102,120 L 102,4 C 102,2.897 101.103,2 100,2 L 91.068103,2 C 68.135579,-2.0711302 45.118687,-5.9735262 16.163835,2 L 4,2 z "
         id="path17"
         style="opacity:0.2"
         sodipodi:nodetypes="ccccccccccc" />
      <path
         d="M 4,3 C 3.448,3 3,3.448 3,4 L 3,120 C 3,120.553 3.448,121 4,121 L 100,121 C 100.553,121 101,120.553 101,120 L 101,4 C 101,3.448 100.553,3 100,3 L 88.949988,3 C 66.331677,-2.5148507 43.46144,-4.754655 19.822398,3 L 4,3 z "
         id="path19"
         style="opacity:0.25"
         sodipodi:nodetypes="ccccccccccc" />
      <path
         style="fill:white"
         d="M 4,4 L 20.785178,4 C 42.956794,-2.6588242 64.331586,-0.55258808 85.483982,4 L 100,4 L 100,120 L 4,120 L 4,4 z "
         id="rect21"
         sodipodi:nodetypes="ccccccc" />
      <linearGradient
         id="linearGradient2081"
         gradientUnits="userSpaceOnUse"
         x1="101.001"
         y1="111.001"
         x2="3.0004001"
         y2="13.0004">
        <stop
           offset="0"
           style="stop-color:#FFFFFF"
           id="stop2083" />
        <stop
           offset="0.5"
           style="stop-color:#E0F0FF"
           id="stop2085" />
        <stop
           offset="1"
           style="stop-color:#FFFFFF"
           id="stop2087" />
      </linearGradient>
      <path
         d="M 8,8 C 8,15.191 8,108.809 8,116 C 14.887,116 89.113,116 96,116 C 96,108.809 96,15.191 96,8 C 89.113,8 14.887,8 8,8 z "
         id="path30"
         style="fill:url(#linearGradient2616)" />
    </g>
    <path
       sodipodi:nodetypes="ccc"
       id="path2276"
       d="M 50.892799,3.2812959 L 50.892799,0.48658747 L 50.892799,3.2812959 z "
       style="fill:#ffffff;fill-opacity:0.75688076;fill-rule:nonzero;stroke:none;stroke-width:0.5;stroke-linecap:round;stroke-linejoin:round;stroke-miterlimit:4;stroke-dasharray:none;stroke-dashoffset:4;stroke-opacity:1" />
    <path
       sodipodi:nodetypes="ccc"
       id="path1623"
       d="M 51.068382,2.3716909 L 51.068382,-0.42301753 L 51.068382,2.3716909 z "
       style="fill:#ffffff;fill-opacity:0.75688076;fill-rule:nonzero;stroke:none;stroke-width:0.5;stroke-linecap:round;stroke-linejoin:round;stroke-miterlimit:4;stroke-dasharray:none;stroke-dashoffset:4;stroke-opacity:1" />
    <path
       sodipodi:nodetypes="ccc"
       id="path1833"
       d="M 29.804041,76.378928 L 29.804041,75.325754 L 29.804041,76.378928 z "
       style="fill:#ffffff;fill-opacity:0.75688076;fill-rule:nonzero;stroke:none;stroke-width:0.5;stroke-linecap:round;stroke-linejoin:round;stroke-miterlimit:4;stroke-dasharray:none;stroke-dashoffset:4;stroke-opacity:1" />
    <g
       inkscape:label="Layer 1"
       id="g2199"
       transform="translate(0,-0.351205)">
      <path
         style="fill:white;fill-opacity:0.75688076;fill-rule:nonzero;stroke:none;stroke-width:0.5;stroke-linecap:round;stroke-linejoin:round;stroke-miterlimit:4;stroke-dasharray:none;stroke-dashoffset:4;stroke-opacity:1"
         d="M 50.892799,3.2812959 L 50.892799,0.48658747 L 50.892799,3.2812959 z "
         id="path2201"
         sodipodi:nodetypes="ccc" />
      <path
         transform="matrix(1,0,0,0.416667,0,74.87151)"
         d="M 127.82442 115.70919 A 63.912209 12.641975 0 1 1  0,115.70919 A 63.912209 12.641975 0 1 1  127.82442 115.70919 z"
         sodipodi:ry="12.641975"
         sodipodi:rx="63.912209"
         sodipodi:cy="115.70919"
         sodipodi:cx="63.912209"
         id="path3289"
         style="opacity:0.38139535;fill:url(#radialGradient2229);fill-opacity:1;fill-rule:nonzero;stroke:none;stroke-width:0;stroke-linecap:round;stroke-linejoin:round;stroke-miterlimit:4;stroke-dasharray:none;stroke-dashoffset:4;stroke-opacity:1"
         sodipodi:type="arc" />
      <g
         transform="matrix(0.999321,3.684953e-2,-3.684953e-2,0.999321,2.209985,-2.314469)"
         id="g2941">
        <path
           sodipodi:type="arc"
           style="opacity:1;fill:url(#linearGradient2852);fill-opacity:1;fill-rule:nonzero;stroke:none;stroke-width:0.25;stroke-linecap:round;stroke-linejoin:round;stroke-miterlimit:4;stroke-dasharray:none;stroke-dashoffset:4;stroke-opacity:0.05963302"
           id="path5115"
           sodipodi:cx="42.559193"
           sodipodi:cy="38.36776"
           sodipodi:rx="28.050377"
           sodipodi:ry="27.244333"
           d="M 70.60957 38.36776 A 28.050377 27.244333 0 1 1  14.508816,38.36776 A 28.050377 27.244333 0 1 1  70.60957 38.36776 z"
           transform="matrix(1.18732,0,0,1.29535,-14.09924,-11.99062)" />
        <path
           style="opacity:1;fill:url(#linearGradient2901);fill-opacity:1;stroke:none;stroke-width:3.86199999;stroke-linecap:round;stroke-linejoin:round;stroke-miterlimit:4;stroke-dasharray:none;stroke-dashoffset:4;stroke-opacity:1"
           d="M 13.824281,36.429523 C 6.855227,52.797544 16.512954,67.360121 35.382088,68.935827 C 35.766756,68.96795 36.158098,68.97975 36.544458,68.999617 C 36.856174,69.036451 37.15658,69.084015 37.475666,69.110656 C 38.943241,69.233207 40.429452,69.228808 41.91768,69.132101 C 41.741628,69.121253 41.567619,69.119505 41.392076,69.104847 C 41.116583,69.081847 40.859458,69.036517 40.590561,69.004629 C 40.90985,68.990193 41.22679,68.988705 41.546292,68.96795 C 41.302221,68.952914 41.060259,68.943998 40.81689,68.923676 C 39.914556,68.848323 39.047461,68.731462 38.19687,68.588379 C 35.515876,67.959944 33.240095,66.867866 31.478066,65.397743 C 23.640509,61.651021 20.398305,53.478658 24.205803,44.536097 C 27.195804,37.513571 33.844264,31.643128 41.586699,28.362745 C 32.871886,31.520939 25.222474,37.912487 21.923662,45.660311 C 19.513252,51.321572 19.862619,56.685885 22.378222,60.859911 C 15.015873,54.958272 12.546077,45.289602 16.985528,34.862796 C 21.130836,25.12683 30.34032,16.990569 41.074363,12.442675 C 28.992224,16.821167 18.397725,25.688009 13.824281,36.429523 z "
           id="path2882" />
        <path
           sodipodi:type="arc"
           style="opacity:0.63369966;fill:url(#radialGradient2231);fill-opacity:1;fill-rule:nonzero;stroke:black;stroke-width:1.89091504;stroke-linecap:round;stroke-linejoin:round;stroke-miterlimit:4;stroke-dasharray:none;stroke-dashoffset:4;stroke-opacity:1"
           id="path3308"
           sodipodi:cx="36.920532"
           sodipodi:cy="37.277058"
           sodipodi:rx="31.704992"
           sodipodi:ry="31.979494"
           d="M 68.625525 37.277058 A 31.704992 31.979494 0 1 1  5.2155399,37.277058 A 31.704992 31.979494 0 1 1  68.625525 37.277058 z"
           transform="matrix(1.035645,0,0,1.041085,-2.533403,-1.633486)" />
        <path
           style="fill:url(#linearGradient2835);fill-opacity:1;fill-rule:nonzero;stroke:none;stroke-width:5.90653419;stroke-linecap:round;stroke-linejoin:round;stroke-miterlimit:4;stroke-dashoffset:4;stroke-opacity:1"
           d="M 65.410315,71.272552 C 69.221041,67.835403 72.304767,64.101053 74.762595,59.95835 C 96.813641,77.690206 109.68023,88.975887 127.78463,103.67589 C 124.65929,108.38421 120.97163,112.28948 117.37647,116 C 99.967194,100.45942 92.843681,95.976808 65.410315,71.272552 z "
           id="rect1410"
           sodipodi:nodetypes="ccccc" />
        <path
           style="opacity:1;fill:url(#radialGradient2869);fill-opacity:1;stroke:none;stroke-width:3.86199999;stroke-linecap:round;stroke-linejoin:round;stroke-miterlimit:4;stroke-dasharray:none;stroke-dashoffset:4;stroke-opacity:1"
           d="M 72.571426,63.299637 L 69.09295,67.544334 C 73.117319,73.655243 81.916592,82.768363 94.230157,93.524446 C 104.30904,102.32851 113.4606,108.99889 120.11617,112.95654 C 122.32009,110.83407 123.60534,109.2329 125.10047,107.37893 C 120.18263,101.20149 111.79987,92.888171 101.64035,84.013677 C 89.409288,73.329655 79.026257,66.370765 72.571426,63.299637 z "
           id="path2854"
           sodipodi:nodetypes="ccsccsc" />
        <path
           sodipodi:nodetypes="ccccc"
           id="path2286"
           d="M 66.035232,71.254442 C 69.148791,68.167788 72.125149,64.520972 74.673886,60.80357 C 91.992866,74.531402 110.12428,90.356001 126.59551,103.80396 C 123.33959,108.4524 122.22258,110.67875 117.50623,115.22 C 100.33426,99.889992 82.535529,85.972185 66.035232,71.254442 z "
           style="opacity:0.73260073;fill:url(#radialGradient2233);fill-opacity:1;fill-rule:nonzero;stroke:none;stroke-width:5.90653419;stroke-linecap:round;stroke-linejoin:round;stroke-miterlimit:4;stroke-dashoffset:4;stroke-opacity:1" />
        <path
           style="opacity:0.74418604;fill:url(#radialGradient2235);fill-opacity:1;fill-rule:nonzero;stroke:none;stroke-width:5.90653419;stroke-linecap:round;stroke-linejoin:round;stroke-miterlimit:4;stroke-dashoffset:4;stroke-opacity:1"
           d="M 67.958465,71.906335 L 75.66851,67.609417 C 92.98749,81.337249 108.085,92.329919 125.81856,105.11295 C 123.46423,110.41965 121.76762,110.75617 117.50623,115.22 C 100.60002,100.02298 84.458762,86.624078 67.958465,71.906335 z "
           id="path2296"
           sodipodi:nodetypes="ccccc" />
        <path
           style="fill:#5c5c5c;fill-opacity:1;fill-rule:nonzero;stroke:none;stroke-width:5.90653419;stroke-linecap:round;stroke-linejoin:round;stroke-miterlimit:4;stroke-dashoffset:4;stroke-opacity:1"
           d="M 74.605239,59.836566 C 70.794514,63.273717 67.703807,67.016511 65.245977,71.159214 L 65.427518,71.311912 C 69.238245,67.874762 72.32895,64.131967 74.78678,59.989264 L 74.605239,59.836566 z "
           id="path2300" />
        <path
           sodipodi:type="arc"
           style="fill:url(#radialGradient2237);fill-opacity:1;fill-rule:nonzero;stroke:none;stroke-width:3.80500007;stroke-linecap:round;stroke-linejoin:round;stroke-miterlimit:4;stroke-dasharray:none;stroke-dashoffset:4;stroke-opacity:1"
           id="path3199"
           sodipodi:cx="53.82272"
           sodipodi:cy="51.796238"
           sodipodi:rx="5.2844129"
           sodipodi:ry="1.8535739"
           d="M 59.107132 51.796238 A 5.2844129 1.8535739 0 1 1  48.538307,51.796238 A 5.2844129 1.8535739 0 1 1  59.107132 51.796238 z"
           transform="matrix(0.653439,-0.815976,0.1947,0.156846,26.55488,100.1601)" />
        <path
           transform="matrix(0.641671,-0.825268,0.197734,0.153001,79.26186,143.7704)"
           d="M 59.107132 51.796238 A 5.2844129 1.8535739 0 1 1  48.538307,51.796238 A 5.2844129 1.8535739 0 1 1  59.107132 51.796238 z"
           sodipodi:ry="1.8535739"
           sodipodi:rx="5.2844129"
           sodipodi:cy="51.796238"
           sodipodi:cx="53.82272"
           id="path3209"
           style="opacity:0.65116278;fill:url(#radialGradient2239);fill-opacity:1;fill-rule:nonzero;stroke:none;stroke-width:3.80500007;stroke-linecap:round;stroke-linejoin:round;stroke-miterlimit:4;stroke-dasharray:none;stroke-dashoffset:4;stroke-opacity:1"
           sodipodi:type="arc" />
        <path
           style="fill:url(#linearGradient2241);fill-opacity:1;fill-rule:nonzero;stroke:none;stroke-width:3.80500007;stroke-linecap:round;stroke-linejoin:round;stroke-miterlimit:4;stroke-dashoffset:4;stroke-opacity:1"
           d="M 66.123842,56.086367 C 64.069508,58.783154 62.172488,61.097671 60.305192,63.162458 L 67.049288,68.922794 C 69.381066,66.587428 71.509371,64.361179 73.057931,61.959021 L 66.123842,56.086367 z "
           id="rect3213"
           sodipodi:nodetypes="ccccc" />
        <path
           sodipodi:type="arc"
           style="fill:none;fill-opacity:1;fill-rule:nonzero;stroke:url(#linearGradient2843);stroke-width:4.0492754;stroke-linecap:round;stroke-linejoin:round;stroke-miterlimit:4;stroke-dasharray:none;stroke-dashoffset:4;stroke-opacity:1"
           id="path3284"
           sodipodi:cx="56.987404"
           sodipodi:cy="54.891689"
           sodipodi:rx="38.931992"
           sodipodi:ry="38.931992"
           d="M 95.919395 54.891689 A 38.931992 38.931992 0 1 1  18.055412,54.891689 A 38.931992 38.931992 0 1 1  95.919395 54.891689 z"
           transform="matrix(0.870939,0,0,0.873078,-13.95966,-10.01398)" />
        <g
           transform="matrix(-1.022404,0,0,-1.335515,74.39073,71.63952)"
           id="g5150">
          <path
             style="fill:none;fill-opacity:0.75;fill-rule:evenodd;stroke:url(#linearGradient2243);stroke-width:0.414;stroke-linecap:butt;stroke-linejoin:miter;stroke-miterlimit:4;stroke-dasharray:none;stroke-opacity:1"
             d="M 9.622763,14.273311 C 16.523861,6.0826761 26.348399,1.7526092 37.116371,1.7526092 C 47.884343,1.7526092 58.408877,7.2008324 64.413597,14.980124 C 64.413597,14.980124 64.413597,14.980124 64.413597,14.980124"
             id="path5152"
             sodipodi:nodetypes="czcc" />
          <path
             sodipodi:nodetypes="czcc"
             id="path5154"
             d="M 9.622763,14.573311 C 16.523861,6.3826761 26.348399,2.0526092 37.116371,2.0526092 C 47.884343,2.0526092 58.408877,7.5008324 64.413597,15.280124 C 64.413597,15.280124 64.413597,15.280124 64.413597,15.280124"
             style="fill:none;fill-opacity:0.75;fill-rule:evenodd;stroke:url(#linearGradient2245);stroke-width:0.91399997;stroke-linecap:butt;stroke-linejoin:miter;stroke-miterlimit:4;stroke-dasharray:none;stroke-opacity:1" />
          <path
             style="fill:none;fill-opacity:0.75;fill-rule:evenodd;stroke:url(#linearGradient2247);stroke-width:0.61400002;stroke-linecap:butt;stroke-linejoin:miter;stroke-miterlimit:4;stroke-dasharray:none;stroke-opacity:1"
             d="M 9.622763,14.473311 C 16.523861,6.2826761 26.348399,1.9526092 37.116371,1.9526092 C 47.884343,1.9526092 58.408877,7.4008324 64.413597,15.180124 C 64.413597,15.180124 64.413597,15.180124 64.413597,15.180124"
             id="path5156"
             sodipodi:nodetypes="czcc" />
        </g>
        <path
           style="opacity:0.83255813;fill:url(#radialGradient2860);fill-opacity:1;fill-rule:nonzero;stroke:none;stroke-width:0.24223065;stroke-linecap:round;stroke-linejoin:round;stroke-miterlimit:4;stroke-dashoffset:4;stroke-opacity:0.05963302"
           d="M 64.60349,26.463047 C 65.324485,29.076649 65.038731,31.617934 63.937218,33.966803 C 60.520819,41.251941 49.257116,46.686116 35.84434,46.686116 C 22.548909,46.686116 11.416391,41.837406 7.8434234,34.671831 C 6.6010317,32.180218 6.2726583,29.408475 7.0851914,26.463047 C 10.219343,15.101767 21.767842,6.2399763 35.84434,6.2399763 C 50.102377,6.2399763 61.659404,15.790754 64.60349,26.463047 z "
           id="path5174"
           sodipodi:nodetypes="cszszzz" />
        <g
           id="g5127"
           transform="matrix(1.021021,4.779554e-2,-4.758109e-2,1.107478,1.447477,-1.862297)"
           style="opacity:0.77209299">
          <path
             sodipodi:nodetypes="czcc"
             id="path5109"
             d="M 9.622763,14.273311 C 16.523861,6.0826761 26.348399,1.7526092 37.116371,1.7526092 C 47.884343,1.7526092 58.408877,7.2008324 64.413597,14.980124 C 64.413597,14.980124 64.413597,14.980124 64.413597,14.980124"
             style="fill:none;fill-opacity:0.75;fill-rule:evenodd;stroke:url(#linearGradient2249);stroke-width:0.414;stroke-linecap:butt;stroke-linejoin:miter;stroke-miterlimit:4;stroke-dasharray:none;stroke-opacity:1" />
          <path
             style="fill:none;fill-opacity:0.75;fill-rule:evenodd;stroke:url(#linearGradient2251);stroke-width:0.91399997;stroke-linecap:butt;stroke-linejoin:miter;stroke-miterlimit:4;stroke-dasharray:none;stroke-opacity:1"
             d="M 9.622763,14.573311 C 16.523861,6.3826761 26.348399,2.0526092 37.116371,2.0526092 C 47.884343,2.0526092 58.408877,7.5008324 64.413597,15.280124 C 64.413597,15.280124 64.413597,15.280124 64.413597,15.280124"
             id="path5119"
             sodipodi:nodetypes="czcc" />
          <path
             sodipodi:nodetypes="czcc"
             id="path5123"
             d="M 9.622763,14.473311 C 16.523861,6.2826761 26.348399,1.9526092 37.116371,1.9526092 C 47.884343,1.9526092 58.408877,7.4008324 64.413597,15.180124 C 64.413597,15.180124 64.413597,15.180124 64.413597,15.180124"
             style="fill:none;fill-opacity:0.75;fill-rule:evenodd;stroke:url(#linearGradient2253);stroke-width:0.61400002;stroke-linecap:butt;stroke-linejoin:miter;stroke-miterlimit:4;stroke-dasharray:none;stroke-opacity:1" />
        </g>
        <path
           sodipodi:nodetypes="ccccc"
           id="path3296"
           d="M 66.409045,57.227181 C 64.354711,59.923968 62.561402,61.512513 60.694106,63.5773 L 67.049288,68.922794 C 69.381066,66.587428 71.509371,64.361179 73.057931,61.959021 L 66.409045,57.227181 z "
           style="fill:url(#linearGradient2255);fill-opacity:1;fill-rule:nonzero;stroke:none;stroke-width:3.80500007;stroke-linecap:round;stroke-linejoin:round;stroke-miterlimit:4;stroke-dashoffset:4;stroke-opacity:1" />
        <path
           style="opacity:1;fill:url(#radialGradient2925);fill-opacity:1;stroke:none;stroke-width:3.86199999;stroke-linecap:round;stroke-linejoin:round;stroke-miterlimit:4;stroke-dasharray:none;stroke-dashoffset:4;stroke-opacity:1"
           d="M 67,70.04363 C 72.290402,76.081124 82.181407,85.407798 93.972056,95.302906 C 103.08899,102.95414 111.7494,110.0035 118.34986,114.51855 L 122.94249,109.74786 C 117.35079,104.03083 108.91592,96.010985 99.798986,88.359752 C 88.008336,78.464646 77.07959,70.374504 70.215805,66.211795 L 67,70.04363 z "
           id="path2906"
           sodipodi:nodetypes="csccscc" />
        <path
           style="opacity:0.83255813;fill:url(#radialGradient2939);fill-opacity:1;fill-rule:nonzero;stroke:none;stroke-width:0.24223065;stroke-linecap:round;stroke-linejoin:round;stroke-miterlimit:4;stroke-dashoffset:4;stroke-opacity:0.05963302"
           d="M 35.642836,6.1428357 C 33.122207,6.1805317 30.537625,6.5446637 27.955336,7.2365857 C 14.358483,10.879852 5.5109287,22.420005 5.4240857,34.205336 C 5.4015727,37.2607 6.4229007,39.838926 8.2678357,41.924086 C 8.3880297,42.05993 8.5158307,42.198809 8.6428357,42.330336 C 8.2000027,40.954615 7.9759517,39.44724 7.9865857,37.830336 C 8.0718537,24.866423 16.761439,12.181693 30.111586,8.1740857 C 40.253326,5.1296167 50.327819,8.2241517 57.049086,14.392836 C 51.836702,9.3213037 44.070817,6.0167947 35.642836,6.1428357 z "
           id="path2927" />
      </g>
    </g>
    <path
       sodipodi:type="arc"
       style="opacity:0.38139535;fill:url(#radialGradient2618);fill-opacity:1;fill-rule:nonzero;stroke:none;stroke-width:0;stroke-linecap:round;stroke-linejoin:round;stroke-miterlimit:4;stroke-dasharray:none;stroke-dashoffset:4;stroke-opacity:1"
       id="path1563"
       sodipodi:cx="63.912209"
       sodipodi:cy="115.70919"
       sodipodi:rx="63.912209"
       sodipodi:ry="12.641975"
       d="M 127.82442 115.70919 A 63.912209 12.641975 0 1 1  0,115.70919 A 63.912209 12.641975 0 1 1  127.82442 115.70919 z"
       transform="matrix(0.451064,0,0,0.184846,6.492225,104.2747)" />
  </g>
</svg>
