<?xml version="1.0" encoding="UTF-8" standalone="no"?>
<!-- Created with Inkscape (http://www.inkscape.org/) -->
<svg
   xmlns:dc="http://purl.org/dc/elements/1.1/"
   xmlns:cc="http://web.resource.org/cc/"
   xmlns:rdf="http://www.w3.org/1999/02/22-rdf-syntax-ns#"
   xmlns:svg="http://www.w3.org/2000/svg"
   xmlns="http://www.w3.org/2000/svg"
   xmlns:xlink="http://www.w3.org/1999/xlink"
   xmlns:sodipodi="http://sodipodi.sourceforge.net/DTD/sodipodi-0.dtd"
   xmlns:inkscape="http://www.inkscape.org/namespaces/inkscape"
   width="128"
   height="128"
   id="svg1307"
   sodipodi:version="0.32"
   inkscape:version="0.45"
   version="1.0"
   sodipodi:docbase="/home/pinheiro/artwork/Oxygen/theme/svg/actions"
   sodipodi:docname="world.svg"
   inkscape:output_extension="org.inkscape.output.svg.inkscape"
   sodipodi:modified="true">
  <defs
     id="defs1309">
    <linearGradient
       id="linearGradient4157">
      <stop
         id="stop4159"
         offset="0"
         style="stop-color:#ffffff;stop-opacity:1;" />
      <stop
         id="stop4161"
         offset="1"
         style="stop-color:#a3a3a3;stop-opacity:1;" />
    </linearGradient>
    <linearGradient
       id="linearGradient3175">
      <stop
         style="stop-color:#ffffff;stop-opacity:1;"
         offset="0"
         id="stop3177" />
      <stop
         style="stop-color:#bebebe;stop-opacity:1;"
         offset="1"
         id="stop3179" />
    </linearGradient>
    <linearGradient
       inkscape:collect="always"
       id="linearGradient3291">
      <stop
         style="stop-color:#000000;stop-opacity:1;"
         offset="0"
         id="stop3293" />
      <stop
         style="stop-color:#000000;stop-opacity:0;"
         offset="1"
         id="stop3295" />
    </linearGradient>
    <radialGradient
       inkscape:collect="always"
       xlink:href="#linearGradient3291"
       id="radialGradient3297"
       cx="63.912209"
       cy="115.70919"
       fx="64.086494"
       fy="118.07164"
       r="63.912209"
       gradientTransform="matrix(1,0,0,0.197802,0,92.82166)"
       gradientUnits="userSpaceOnUse" />
    <radialGradient
       inkscape:collect="always"
       xlink:href="#linearGradient4157"
       id="radialGradient2187"
       gradientUnits="userSpaceOnUse"
       gradientTransform="matrix(0.6070527,7.4029987e-5,-7.224142e-5,0.5924692,292.60346,2.7706458)"
       cx="-384.55103"
       cy="106.33506"
       fx="-335.45837"
       fy="43.704659"
       r="97.124817" />
    <radialGradient
       inkscape:collect="always"
       xlink:href="#linearGradient3175"
       id="radialGradient3186"
       cx="71.179642"
       cy="59.005695"
       fx="37.877705"
       fy="91.950981"
       r="55.257881"
       gradientUnits="userSpaceOnUse"
       gradientTransform="matrix(0.9999855,-5.3762664e-3,5.3763439e-3,1,-0.3162062,0.3826806)" />
    <radialGradient
       inkscape:collect="always"
       xlink:href="#linearGradient3175"
       id="radialGradient4167"
       gradientUnits="userSpaceOnUse"
       gradientTransform="matrix(0.9999855,-5.3762664e-3,5.3763439e-3,1,-0.3162062,0.3826806)"
       cx="71.179642"
       cy="59.005695"
       fx="37.877705"
       fy="91.950981"
       r="55.257881" />
    <radialGradient
       inkscape:collect="always"
       xlink:href="#linearGradient4157"
       id="radialGradient4169"
       gradientUnits="userSpaceOnUse"
       gradientTransform="matrix(0.6070527,7.4029987e-5,-7.224142e-5,0.5924692,292.60346,2.7706458)"
       cx="-384.55103"
       cy="106.33506"
       fx="-335.45837"
       fy="43.704659"
       r="97.124817" />
  </defs>
  <sodipodi:namedview
     id="base"
     pagecolor="#ffffff"
     bordercolor="#666666"
     borderopacity="1.0"
     inkscape:pageopacity="0.0"
     inkscape:pageshadow="2"
     inkscape:zoom="4.5299566"
     inkscape:cx="75.362994"
     inkscape:cy="61.370258"
     inkscape:current-layer="layer1"
     showgrid="false"
     inkscape:document-units="px"
     inkscape:grid-bbox="true"
     guidetolerance="0.1px"
     showguides="true"
     inkscape:guide-bbox="true"
     inkscape:window-width="1106"
     inkscape:window-height="958"
     inkscape:window-x="601"
     inkscape:window-y="25" />
  <metadata
     id="metadata1312">
    <rdf:RDF>
      <cc:Work
         rdf:about="">
        <dc:format>image/svg+xml</dc:format>
        <dc:type
           rdf:resource="http://purl.org/dc/dcmitype/StillImage" />
        <cc:license
           rdf:resource="http://creativecommons.org/licenses/GPL/2.0/" />
        <dc:contributor>
          <cc:Agent>
            <dc:title>Oxygen team</dc:title>
          </cc:Agent>
        </dc:contributor>
      </cc:Work>
      <cc:License
         rdf:about="http://creativecommons.org/licenses/LGPL/2.1/">
        <cc:permits
           rdf:resource="http://web.resource.org/cc/Reproduction" />
        <cc:permits
           rdf:resource="http://web.resource.org/cc/Distribution" />
        <cc:requires
           rdf:resource="http://web.resource.org/cc/Notice" />
        <cc:permits
           rdf:resource="http://web.resource.org/cc/DerivativeWorks" />
        <cc:requires
           rdf:resource="http://web.resource.org/cc/ShareAlike" />
        <cc:requires
           rdf:resource="http://web.resource.org/cc/SourceCode" />
      </cc:License>
    </rdf:RDF>
  </metadata>
  <g
     id="layer1"
     inkscape:label="Layer 1"
     inkscape:groupmode="layer">
    <path
       sodipodi:nodetypes="ccc"
       id="path2276"
       d="M 50.892799,3.2812959 L 50.892799,0.48658747 L 50.892799,3.2812959 z "
       style="fill:#ffffff;fill-opacity:0.75688076;fill-rule:nonzero;stroke:none;stroke-width:0.5;stroke-linecap:round;stroke-linejoin:round;stroke-miterlimit:4;stroke-dasharray:none;stroke-dashoffset:4;stroke-opacity:1" />
    <path
       sodipodi:type="arc"
       style="opacity:0.38139535;fill:url(#radialGradient3297);fill-opacity:1.0;fill-rule:nonzero;stroke:none;stroke-width:0;stroke-linecap:round;stroke-linejoin:round;stroke-miterlimit:4;stroke-dasharray:none;stroke-dashoffset:4;stroke-opacity:1"
       id="path3289"
       sodipodi:cx="63.912209"
       sodipodi:cy="115.70919"
       sodipodi:rx="63.912209"
       sodipodi:ry="12.641975"
       d="M 127.82442 115.70919 A 63.912209 12.641975 0 1 1  0,115.70919 A 63.912209 12.641975 0 1 1  127.82442 115.70919 z"
       transform="matrix(1,0,0,0.416667,0,74.87151)" />
    <g
       id="g4163"
       transform="matrix(1.0402232,0,0,1.0402232,-2.5365789,-4.8242269)">
      <path
         transform="matrix(1.0428576,0,0,1.0428576,-11.167561,0.7759522)"
         d="M 126.43752 59.005695 A 55.257881 55.257881 0 1 1  15.921761,59.005695 A 55.257881 55.257881 0 1 1  126.43752 59.005695 z"
         sodipodi:ry="55.257881"
         sodipodi:rx="55.257881"
         sodipodi:cy="59.005695"
         sodipodi:cx="71.179642"
         id="path2196"
         style="opacity:0.59706936;fill:url(#radialGradient4167);fill-opacity:1;stroke:none;stroke-width:2.20000005;stroke-linecap:round;stroke-linejoin:round;stroke-miterlimit:4;stroke-dasharray:none;stroke-dashoffset:0;stroke-opacity:1"
         sodipodi:type="arc" />
      <path
         style="fill:url(#radialGradient4169);fill-opacity:1;fill-rule:evenodd;stroke:none;stroke-width:1px;stroke-linecap:butt;stroke-linejoin:miter;stroke-opacity:1"
         d="M 46.410297,7.2359424 C 26.503847,13.296653 11.178877,29.910323 6.9686367,50.552227 L 8.6149967,55.718389 L 9.3388267,53.121115 L 10.687137,50.623191 L 11.836747,50.623191 L 12.148987,49.785818 L 12.461227,48.636205 L 12.574777,44.889318 C 12.574777,44.889318 13.194147,43.432574 13.610847,43.015874 C 13.614097,43.012618 13.621817,43.005024 13.625037,43.001682 C 13.628167,42.998307 13.636137,42.99095 13.639237,42.987489 C 14.024827,42.541537 14.135977,41.454672 14.135977,41.454672 L 14.760457,39.268988 L 16.520357,37.594243 L 17.570627,37.807134 L 19.032477,37.282002 L 21.104617,36.558172 L 22.367777,38.020025 L 22.992257,38.119374 L 23.616737,37.182653 L 24.965047,38.119374 L 25.901767,39.155446 L 26.214007,38.119374 L 27.051377,37.182653 L 27.462977,35.820149 L 27.775217,34.883427 L 28.924827,35.096318 L 29.648657,37.381351 L 28.711927,39.680577 L 27.988107,41.65337 L 29.762197,44.364186 L 30.698927,41.142431 L 30.273137,39.155446 L 33.608437,36.969761 L 33.097497,35.62145 C 33.097497,35.62145 34.648757,35.299844 35.169637,35.195667 C 35.184897,35.192615 35.208397,35.18548 35.226407,35.181475 C 35.227677,35.181506 35.239157,35.181375 35.240607,35.181475 C 35.260557,35.174063 35.291947,35.163154 35.311567,35.153089 C 35.331117,35.142511 35.363337,35.123591 35.382527,35.110511 C 35.803207,34.812077 36.140197,33.929261 36.319247,33.123525 C 36.527597,32.185945 35.694777,31.03719 35.694767,31.037191 C 35.694767,31.037191 37.351077,27.800107 37.170817,26.935485 C 37.170957,26.93054 37.170737,26.911966 37.170817,26.907099 C 37.168307,26.902124 37.159187,26.883609 37.156617,26.878714 C 37.156667,26.877468 37.156467,26.865934 37.156617,26.864521 C 37.127327,26.796156 37.090237,26.736907 37.057277,26.694208 C 37.052317,26.689209 37.033877,26.67066 37.028887,26.665822 C 37.026037,26.66291 37.017567,26.654385 37.014697,26.65163 C 36.995667,26.634557 36.964757,26.607061 36.943727,26.594859 C 36.942247,26.59495 36.930817,26.59483 36.929537,26.594859 C 36.924637,26.592384 36.906187,26.58328 36.901157,26.580666 C 36.899857,26.580675 36.888537,26.580598 36.886967,26.580666 C 36.885517,26.580739 36.874037,26.580658 36.872767,26.580666 C 36.862737,26.577383 36.840347,26.56916 36.830187,26.566473 C 36.828767,26.566338 36.818867,26.566444 36.815997,26.566473 C 36.814437,26.566411 36.803097,26.566474 36.801797,26.566473 C 36.796677,26.569145 36.778257,26.57826 36.773417,26.580666 C 36.771807,26.580718 36.761047,26.580727 36.759227,26.580666 C 36.757237,26.58053 36.746987,26.580762 36.745037,26.580666 C 36.743197,26.580659 36.732477,26.580531 36.730837,26.580666 C 36.436247,26.658737 36.056887,27.044914 35.595417,27.176761 C 34.866187,27.385113 32.989067,28.321546 32.572367,28.425724 C 32.155657,28.5299 29.861557,28.851506 29.861547,28.851506 C 29.861547,28.851506 30.272847,27.905703 30.585377,27.489002 C 30.897907,27.072299 31.630527,26.864805 32.047227,26.552281 C 32.463927,26.239753 33.196837,25.303318 33.196847,25.303318 L 34.545157,22.592502 C 34.545157,22.592502 36.427397,21.131221 37.156617,20.506167 C 37.885847,19.881113 39.342307,20.931952 39.342307,20.93195 L 40.690617,21.868671 C 40.690617,21.868671 40.598557,23.794388 40.264837,24.28144 C 40.247847,24.304694 40.216197,24.333132 40.193877,24.352403 C 40.190327,24.355204 40.182947,24.364295 40.179677,24.366596 C 40.174797,24.369038 40.158707,24.376947 40.151297,24.380789 C 40.149947,24.382249 40.138327,24.393714 40.137097,24.394982 C 40.134417,24.397789 40.124637,24.407634 40.122907,24.409175 C 40.119437,24.412436 40.112237,24.419884 40.108717,24.423367 C 39.659057,24.889751 38.817177,27.077412 38.817177,27.077412 C 38.817177,27.077412 41.215457,25.928371 41.527997,25.303318 C 41.840517,24.678264 43.926567,23.529223 43.926567,23.529224 L 45.800007,23.216983 L 46.836077,23.955006 C 46.836077,23.955006 47.781887,24.049817 48.198587,23.841464 C 48.615277,23.633113 50.908827,22.904744 51.533877,22.904743 C 51.654017,22.904743 51.810777,22.937947 52.002247,22.989899 L 54.642097,22.365418 L 54.556937,20.619709 L 52.470607,20.93195 L 51.420337,21.031299 C 51.420337,21.031299 49.235227,21.244479 48.610177,20.93195 C 47.985117,20.619423 47.679137,20.506167 46.637387,20.506167 C 45.856057,20.506167 45.594287,20.632074 45.516157,20.690673 C 45.513147,20.693705 45.503437,20.703355 45.501967,20.704866 C 45.500307,20.706582 45.490687,20.716216 45.487767,20.719058 L 42.989847,20.406818 L 43.713677,19.257205 C 43.713677,19.257205 46.007787,19.16268 46.424497,19.058506 C 46.841197,18.954331 49.343087,18.850442 49.759787,18.746266 C 50.150447,18.648601 50.725667,17.989389 50.795857,17.908893 L 48.922417,17.696002 L 47.772797,17.185063 L 48.510827,15.609667 L 51.420337,14.048464 L 53.194427,13.111743 C 53.194427,13.111743 55.691787,12.383372 56.316837,12.175021 C 56.941897,11.96667 58.715417,12.288562 58.715417,12.288563 C 58.715417,12.288563 62.995937,12.804328 64.037697,12.700153 C 65.079457,12.595977 65.598897,10.613818 65.598897,10.613818 L 64.761527,8.8397236 L 62.575847,7.5907612 C 62.575847,7.5907612 60.485547,7.1837113 59.652137,7.3920627 C 58.818737,7.6004142 55.593007,8.2152429 55.593007,8.2152424 L 51.846127,9.0526149 L 48.723717,8.9532656 L 47.148317,9.0526149 L 46.424497,7.2359424 C 46.423237,7.2357821 46.411497,7.2359824 46.410297,7.2359424 z M 74.242287,9.3648555 L 71.630817,9.4642047 L 70.807637,10.202228 L 70.282507,10.400926 L 71.432127,12.175021 L 73.192027,12.075671 L 74.966117,12.700153 L 76.115737,13.949115 L 77.052457,14.885837 L 77.676937,15.921908 L 78.088527,17.383761 L 79.039437,17.497303 L 80.174857,17.596653 L 80.912877,18.746266 C 80.903597,18.752408 80.881487,18.767276 80.870307,18.774651 C 80.832567,18.800421 80.771607,18.844359 80.714187,18.902386 C 80.567297,19.054835 80.387747,19.321628 80.387747,19.682988 C 80.387747,20.308041 80.799337,21.244191 80.799337,21.244191 L 79.862617,22.280261 L 80.288407,23.529224 L 80.699987,24.054356 L 79.763267,24.267247 C 79.694817,24.326869 79.137107,24.834241 79.039437,25.615559 C 78.948287,26.344787 78.929117,26.440777 78.925897,26.452931 L 79.451027,27.489002 L 80.288407,28.113483 L 80.600637,28.425724 L 81.537367,28.737964 L 82.360547,29.263096 C 82.360547,29.263095 81.216047,29.882751 80.799337,29.986926 C 80.382637,30.091102 78.925897,30.100469 78.925897,30.100469 L 80.487097,32.073261 L 82.360547,33.009984 L 82.360547,34.060247 L 80.387747,33.435766 L 79.039437,34.159596 L 78.713007,34.784077 C 78.713007,34.784077 78.710527,36.139492 78.457537,36.614943 C 78.455157,36.619875 78.445767,36.63851 78.443347,36.643328 C 78.435867,36.65481 78.422837,36.675915 78.414957,36.685907 C 78.407517,36.693464 78.390727,36.710086 78.386577,36.714292 C 78.383757,36.716912 78.375247,36.726055 78.372377,36.728485 C 78.367457,36.730987 78.348967,36.740371 78.343987,36.742678 C 78.339407,36.745153 78.323047,36.753305 78.315607,36.75687 C 78.314247,36.756757 78.302647,36.756911 78.301417,36.75687 C 78.300737,36.757701 78.290447,36.767888 78.287227,36.771063 C 77.855047,36.901977 76.740217,37.906484 76.740217,37.906484 L 75.902837,40.092167 L 75.391897,40.404408 L 75.079657,41.554021 L 74.653877,42.277852 L 73.930047,42.590092 L 73.305567,41.454672 L 72.681087,40.830191 C 72.681087,40.830191 72.672777,40.814681 72.666897,40.801805 C 72.647317,40.761634 72.596977,40.68007 72.510767,40.617299 C 72.500847,40.610432 72.479167,40.595372 72.468187,40.588914 C 72.392657,40.546948 72.286177,40.51795 72.155947,40.51795 C 71.739257,40.51795 70.694097,40.305059 70.694097,40.305059 L 70.183157,39.680577 L 70.495397,37.594243 C 70.495397,37.594243 69.887147,36.914467 69.388367,36.856219 C 69.383307,36.85601 69.365727,36.85607 69.359987,36.856219 C 69.356367,36.856292 69.348757,36.856324 69.345787,36.856219 C 69.316077,36.855888 69.275107,36.865512 69.246437,36.870412 C 68.725557,36.97459 66.634967,37.906484 66.634967,37.906484 L 64.349937,40.092167 C 64.314377,40.142285 64.020137,40.575688 63.824807,41.454672 C 63.616457,42.392256 62.362957,43.640356 62.362957,43.640356 L 60.588857,44.676427 L 59.964377,46.13828 L 59.964377,48.323964 L 60.177267,49.161337 L 61.426227,49.686469 L 62.462307,48.224615 L 62.987437,48.536856 L 62.987437,49.885167 L 63.611917,50.935431 L 64.137047,51.758611 L 65.485367,51.44637 L 66.535627,50.821889 L 65.698257,49.473577 L 65.911147,47.075002 L 66.010497,45.41445 L 67.259447,44.051946 L 67.671047,42.490743 L 68.409067,41.866262 L 68.934197,42.703634 L 68.409067,43.427464 L 67.571697,44.988667 L 67.358807,45.82604 L 67.571697,46.237629 L 68.096827,47.174352 L 69.246437,47.486592 L 69.246437,48.011724 L 70.069617,48.224615 L 69.757377,49.161337 L 69.445137,49.885167 L 68.409067,49.686469 L 67.671047,50.72254 L 67.784587,52.070852 L 67.883937,52.908224 L 66.847867,53.007573 L 65.286657,52.908224 L 63.824807,53.007573 L 62.675197,51.971502 L 62.050717,50.935431 L 61.525577,50.098059 L 61.113987,51.247672 L 61.326887,52.383092 L 61.326887,53.220465 L 59.964377,53.646247 L 59.141197,53.646247 L 58.303827,55.3068 L 57.367107,55.61904 L 56.118137,57.180243 L 54.968527,57.705375 L 53.818917,57.804724 L 52.044827,57.279592 L 51.633237,58.116965 L 53.719567,58.854988 L 53.407327,60.2033 L 53.407327,61.551612 L 53.307977,62.800572 L 53.095087,63.637948 L 51.633237,62.388984 L 49.972687,61.764503 L 48.411477,61.452262 L 48.198587,61.863852 L 47.772797,63.75149 L 47.574107,64.475318 L 46.736737,65.199151 L 46.736737,65.82363 L 47.261867,66.561652 L 46.949627,67.186136 L 46.949627,67.597725 L 48.297937,67.909964 L 48.823067,68.633798 L 50.795857,69.158928 L 51.420337,69.158928 L 52.357067,68.435094 L 53.095087,67.909964 L 53.620217,67.186136 L 53.620217,66.448109 L 54.244697,65.511391 L 55.280767,65.099803 L 56.316837,64.886906 L 56.430377,63.325708 L 57.253567,63.112812 L 58.303827,63.75149 L 59.552787,63.325708 L 60.801747,63.013463 L 61.426227,64.063729 L 62.462307,65.199151 L 63.924157,66.13587 C 63.990837,66.138362 64.542817,66.169013 64.917647,66.504883 C 64.933337,66.51935 64.959377,66.546026 64.974417,66.561652 C 65.052447,66.645258 65.121847,66.754253 65.173117,66.873897 C 65.466107,67.557548 65.484247,68.063089 65.485367,68.122855 L 65.286657,69.27247 L 64.137047,69.27247 L 62.774547,69.27247 L 63.924157,70.209189 L 64.349937,70.833674 L 64.449287,71.770392 L 64.974417,70.620783 L 65.173117,69.684058 L 66.109837,69.27247 L 66.422077,68.321552 L 66.535627,67.498376 L 67.358807,67.597725 L 67.046557,66.661 L 65.485367,65.624933 L 64.137047,64.063729 L 62.675197,62.488333 L 63.512567,61.863852 L 64.449287,62.176092 C 64.449287,62.176097 64.869957,63.017719 65.286657,63.538599 C 65.703357,64.059474 66.947207,64.886906 66.947207,64.886906 L 67.883937,65.312693 L 67.983287,66.448109 L 68.621957,67.072594 L 69.558677,67.810615 C 69.558677,67.810615 69.558677,68.642874 69.558677,69.059579 C 69.558677,69.476285 69.662567,69.792489 69.870917,70.209189 C 70.066247,70.599842 70.625787,70.809321 70.694097,70.833674 C 70.694097,70.833674 71.274017,71.019883 71.574057,70.904635 C 71.581537,70.900933 71.598187,70.89245 71.602437,70.890442 C 71.608667,70.887281 71.623697,70.879928 71.630817,70.876248 C 71.633337,70.873704 71.642517,70.864622 71.645017,70.862061 C 71.647537,70.859522 71.656697,70.850423 71.659207,70.847867 C 71.666197,70.841044 71.680677,70.826495 71.687597,70.81948 C 71.688447,70.818537 71.698647,70.808372 71.701787,70.805287 C 71.704357,70.802795 71.713437,70.793608 71.715977,70.791093 C 71.718477,70.786494 71.727647,70.767911 71.730167,70.762706 C 71.730147,70.761414 71.730307,70.749898 71.730167,70.748518 C 71.732767,70.743634 71.741867,70.725097 71.744367,70.720131 C 71.848537,70.30342 72.052067,69.888158 71.843717,69.158928 C 71.635367,68.429698 71.630817,66.760355 71.630817,66.760355 L 72.567547,66.13587 L 73.930047,66.249412 L 74.767417,64.574666 L 74.341637,63.538599 L 74.653877,61.551612 L 75.079657,60.51554 L 76.427977,59.266578 L 78.088527,59.578819 L 79.451027,58.954337 C 79.451027,58.954337 80.379067,58.881821 80.770957,59.124651 C 80.788327,59.135955 80.812737,59.154553 80.827727,59.167229 C 80.841027,59.179133 80.869537,59.207627 80.884497,59.224 C 80.886967,59.228909 80.896337,59.247417 80.898687,59.252385 C 80.901257,59.254838 80.910347,59.264112 80.912877,59.266578 C 81.121237,59.683277 81.423827,60.302649 81.423827,60.302649 C 81.423827,60.302649 82.057377,60.520082 82.474087,60.728432 C 82.890787,60.936782 83.609507,61.452262 83.609507,61.452262 L 83.822397,63.013463 L 82.474087,63.538599 L 80.288407,63.850839 C 80.288407,63.850833 79.347427,63.75149 78.826547,63.75149 C 78.305677,63.75149 77.151797,64.262427 77.151797,64.262427 L 76.740217,65.000448 L 75.902837,65.724282 L 74.866767,66.036521 L 74.029397,66.348761 L 73.717157,67.384834 L 74.554527,68.960231 L 75.179007,69.896949 L 76.328627,70.407892 L 78.514307,70.209189 L 79.238137,69.783407 L 80.288407,69.58471 L 80.600637,69.471168 L 81.225117,70.209189 L 81.225117,71.770392 L 80.600637,72.707117 L 80.288407,73.956081 L 78.713007,74.26832 L 77.464037,74.26832 L 75.590597,74.679908 L 73.404917,74.58056 L 71.006347,74.26832 C 71.006347,74.26832 70.092307,74.013524 69.658027,74.211546 C 69.642737,74.218916 69.616547,74.2312 69.601257,74.239933 C 69.598797,74.242407 69.589517,74.251571 69.587067,74.254127 C 69.568337,74.270713 69.545887,74.29216 69.530297,74.310895 C 69.527757,74.313369 69.518617,74.322602 69.516097,74.325088 C 69.507707,74.337011 69.494907,74.354861 69.487717,74.367669 C 69.484817,74.373147 69.476147,74.390397 69.473527,74.396056 C 69.470927,74.39853 69.461907,74.407763 69.459337,74.410243 C 69.459417,74.415175 69.459167,74.433664 69.459337,74.43863 C 69.456727,74.443544 69.447657,74.462069 69.445137,74.467017 C 69.445207,74.468391 69.445117,74.479977 69.445137,74.481211 C 69.340957,75.106261 69.033547,76.042414 69.033547,76.042414 L 67.259447,76.241112 L 64.449287,74.992148 L 62.150067,73.956081 L 61.326887,73.530293 L 61.426227,71.458153 L 61.113987,69.996298 L 58.516717,69.996298 L 55.593007,69.684058 L 53.194427,69.783407 L 51.945477,70.308543 L 49.546897,69.896949 L 48.510827,69.27247 L 47.985687,70.521434 C 47.985687,70.521434 46.846027,70.615665 46.325137,71.032371 C 45.804257,71.449077 43.514977,73.118705 43.514977,73.118705 L 43.614327,74.481211 L 40.591267,74.58056 L 39.867437,76.354654 L 36.844377,78.228097 L 37.355317,80.002191 L 36.943727,82.287222 L 36.219907,83.536186 L 35.694767,85.93476 L 35.694767,87.495963 L 37.468857,89.681651 L 38.306237,91.356397 L 38.504937,91.867334 L 42.152467,95.514871 L 43.614327,95.940653 L 45.076177,96.040002 L 46.949627,96.252893 L 48.411477,96.976726 L 50.795857,96.976726 L 54.443397,96.877377 L 56.004597,98.850169 L 57.878047,98.949518 L 59.453437,99.474648 L 59.339897,101.66033 L 58.616067,103.22153 L 59.865027,104.15826 L 61.326887,105.73366 L 62.263607,106.98261 L 63.086787,108.43027 L 63.611917,109.57989 L 62.263607,110.82885 L 61.738467,112.60295 L 62.150067,113.22743 L 63.299677,113.95126 L 64.449287,114.57574 L 64.761527,115.93825 L 65.485367,116.87496 L 66.734317,117.08786 L 67.784587,117.81169 L 68.508417,118.43617 L 70.183157,118.33682 L 72.780437,117.49945 L 74.554527,117.49945 L 75.491247,117.81169 L 76.839567,116.56273 L 78.925897,116.25049 L 80.487097,114.57574 L 82.474087,113.63902 L 83.098567,111.97846 L 84.347527,111.25464 L 85.497147,109.67924 L 88.307307,108.95541 L 88.506007,107.08197 L 88.619547,104.99563 L 88.307307,102.28482 L 90.705887,98.22569 L 92.678677,96.565132 L 93.615397,94.478798 L 96.113317,92.491813 L 97.575177,90.61837 L 97.887417,87.808209 L 97.475827,86.034114 C 97.475827,86.034108 95.059897,87.679704 94.594697,88.177216 C 94.589067,88.18291 94.572067,88.2003 94.566307,88.205603 C 94.564637,88.207297 94.553597,88.218138 94.552117,88.219797 C 94.545827,88.229181 94.530967,88.25255 94.523727,88.262371 C 94.129617,88.708436 92.366437,89.795194 92.366437,89.795194 L 90.592337,88.744927 L 86.944807,85.835411 L 84.872657,83.223947 L 83.410807,81.137613 C 83.410807,81.137613 82.990137,80.929834 82.573437,80.513128 C 82.570307,80.510002 82.562377,80.502265 82.559237,80.49894 C 82.557837,80.49759 82.546287,80.485981 82.545057,80.484747 C 82.171887,80.022032 81.782607,78.211866 81.409627,77.773928 C 81.402237,77.766412 81.385937,77.750181 81.381247,77.745541 C 81.379687,77.744097 81.369817,77.7342 81.367047,77.731354 C 81.365677,77.729875 81.354127,77.718435 81.352857,77.71716 C 81.347757,77.71454 81.329157,77.705138 81.324477,77.702967 C 80.907767,77.494617 79.663927,76.354654 79.663927,76.354654 L 80.487097,75.304387 L 81.736067,75.730175 L 82.885677,77.490076 L 84.035287,78.852576 L 84.446877,80.002191 L 86.220967,80.10154 L 86.632567,81.563395 L 87.782177,82.386571 L 88.506007,83.323295 C 88.506007,83.32329 89.299287,83.728608 89.442727,84.132284 C 89.442707,84.133513 89.442857,84.145098 89.442727,84.146478 C 89.445347,84.148935 89.454327,84.158209 89.456917,84.160665 C 89.561097,84.577371 90.280107,85.721869 90.280107,85.721869 L 90.492997,87.595312 L 93.090267,87.396614 L 94.140527,85.721869 L 96.226867,84.061317 L 98.412547,81.662743 L 100.18664,78.951925 L 100.91048,76.865591 L 101.74785,74.168971 L 100.91048,73.118705 L 99.349267,73.218054 L 98.412547,72.494226 L 97.475827,73.842538 L 96.737797,75.10569 L 94.864357,74.992148 L 92.990917,73.218054 L 92.465787,71.969095 L 92.366437,70.620783 L 95.176597,71.032371 L 95.488847,71.770392 L 97.788067,71.969095 L 98.611247,70.833674 L 101.00983,70.720131 C 101.00983,70.720126 102.70941,70.223167 102.98262,69.811794 C 102.98641,69.804412 102.99437,69.788297 102.99681,69.783407 C 103.20517,69.366702 104.24577,67.810615 104.24577,67.810615 L 105.59408,67.498376 L 106.95659,68.534449 L 107.99266,68.122855 L 107.89331,69.371819 L 108.92938,68.960231 L 109.14227,67.186136 L 110.17834,69.58471 L 111.42731,71.458153 L 112.67627,73.118705 C 112.67627,73.118705 112.77958,74.367384 113.61299,74.679908 C 114.39431,74.972907 114.81312,75.356812 114.86195,75.403742 L 115.28774,73.530293 C 115.31566,73.469636 115.47271,73.152116 115.62836,73.019356 C 115.63729,73.013109 115.66015,72.998444 115.67094,72.990969 C 115.67221,72.989665 115.68365,72.978359 115.68513,72.976776 C 115.68639,72.976805 115.69782,72.976653 115.69932,72.976776 C 115.70059,72.975466 115.71201,72.96427 115.71352,72.962588 C 115.71479,72.962594 115.72621,72.962524 115.72771,72.962588 C 115.72898,72.962588 115.7404,72.962547 115.7419,72.962588 C 115.74402,72.962454 115.75399,72.962605 115.7561,72.962588 C 115.75715,72.962635 115.76726,72.962629 115.77029,72.962588 C 115.77155,72.962565 115.78296,72.962646 115.78448,72.962588 C 115.78702,72.965185 115.79615,72.97415 115.79867,72.976776 C 115.79995,72.976735 115.81135,72.976904 115.81287,72.976776 C 115.81529,72.979198 115.82465,72.988413 115.82706,72.990969 C 115.829,72.992628 115.83933,73.003358 115.84125,73.005163 C 115.84314,73.007264 115.85357,73.017109 115.85545,73.019356 C 115.85799,73.021842 115.8671,73.031023 115.86964,73.03355 C 115.87208,73.038434 115.88141,73.056895 115.88383,73.061937 C 115.88733,73.068352 115.89462,73.083233 115.89802,73.090318 C 115.90049,73.095068 115.90977,73.113785 115.91221,73.118705 C 116.09452,73.574475 116.04285,74.430812 116.02576,74.637328 L 116.5367,73.643835 L 116.94829,72.181986 L 115.91221,71.869741 L 115.28774,70.933022 L 114.86195,69.059579 L 114.7626,66.661 L 115.28774,63.637948 L 115.59997,60.10395 L 116.01156,57.705375 L 116.94829,59.578819 L 118.19725,61.352913 L 118.31079,61.551612 L 118.50949,59.79171 L 118.93527,58.429206 L 119.03462,57.080894 L 119.6591,56.555762 L 120.0565,55.87451 C 118.84772,44.607716 114.37634,34.305235 107.59526,25.956184 L 106.95659,26.864521 L 105.90633,24.891728 L 104.34512,23.841464 L 103.19551,23.742115 L 102.99681,22.06737 L 101.53496,20.719058 L 99.562157,19.881686 L 99.037027,19.470096 L 97.362287,18.944964 L 95.602387,18.434025 L 93.927637,17.908893 L 92.153547,16.546389 L 88.193767,15.510318 L 87.469937,14.672945 L 86.008077,13.423983 L 84.446877,12.799502 L 83.098567,11.649889 L 80.912877,10.514468 L 78.826547,10.088686 L 76.527327,9.5777468 L 74.242287,9.3648555 z M 54.968527,26.296811 L 51.548077,26.39616 C 51.521907,26.407781 51.420337,26.452931 51.420337,26.452931 C 51.420337,26.452931 48.615867,28.534153 47.574107,28.950856 C 46.532357,29.367558 45.487777,30.923647 45.487767,30.923649 C 45.487767,30.923649 43.406557,31.032366 42.989847,31.13654 C 42.984967,31.138933 42.966397,31.148076 42.961457,31.150732 C 42.957877,31.152581 42.940647,31.161083 42.933077,31.164925 C 42.931627,31.166483 42.920137,31.177833 42.918877,31.179118 C 42.898887,31.193542 42.869457,31.216564 42.847917,31.235889 C 42.844397,31.239223 42.837137,31.246639 42.833727,31.250082 C 42.400027,31.703828 41.661647,33.318949 41.116397,33.691235 C 41.079957,33.714852 41.037427,33.736484 41.002857,33.748006 C 41.001597,33.747974 40.990137,33.748125 40.988667,33.748006 C 40.981257,33.751254 40.969557,33.756953 40.960277,33.762199 C 40.947657,33.769743 40.928317,33.782514 40.917697,33.790585 C 40.916457,33.791838 40.904887,33.803329 40.903507,33.804778 C 40.377037,34.285474 40.279027,36.75687 40.279027,36.75687 L 41.315097,38.530964 L 41.627337,37.182653 L 43.926567,35.933691 L 46.424497,35.195667 C 46.424497,35.195667 50.066907,34.996969 50.483617,34.996969 C 50.486877,34.996969 50.494367,34.996883 50.497817,34.996969 C 50.955297,35.018887 52.882197,35.720799 52.882197,35.720799 L 56.004597,33.009984 C 56.004597,33.009984 54.963417,32.073834 55.380117,31.448781 C 55.796827,30.823725 57.466457,29.575336 57.466457,29.575337 L 57.991587,29.461795 L 58.090937,29.149554 L 54.968527,26.296811 z M 54.869177,47.387243 L 53.506677,47.486592 L 52.995737,49.473577 L 53.194427,50.623191 L 51.633237,50.509649 L 49.972687,51.44637 L 49.972687,52.808875 L 50.597157,53.745597 L 52.044827,53.844946 C 52.044827,53.84495 52.252597,53.012687 52.669297,52.595983 C 53.085997,52.179279 54.031807,51.971502 54.031807,51.971502 L 54.556937,52.496634 L 53.818917,52.908224 L 52.782847,53.844946 L 52.569957,55.20745 L 52.470607,55.61904 L 53.620217,55.718389 L 54.344047,55.61904 L 56.217487,55.831932 L 56.217487,54.582969 L 56.941327,54.270728 L 56.430377,53.334007 L 56.430377,51.559912 L 55.493667,50.935431 L 55.692357,49.473577 L 56.217487,48.749747 L 54.869177,47.387243 z M 34.857397,59.891059 L 33.821327,59.990409 L 34.758047,61.040672 L 34.857397,59.891059 z M 60.801747,63.950187 L 59.453437,65.82363 L 59.552787,67.810615 L 60.177267,68.534449 L 60.901097,68.009313 L 60.801747,66.13587 L 60.801747,63.950187 z M 96.013977,103.74667 L 94.552117,104.78274 L 92.465787,105.62011 L 91.642607,106.24459 L 90.592337,108.33093 L 89.769157,109.57989 L 91.018127,110.82885 L 93.090267,110.00567 L 94.552117,107.08197 L 95.801087,104.78274 L 96.013977,103.74667 z "
         id="path3156" />
    </g>
  </g>
</svg>
