<?xml version="1.0" encoding="UTF-8" standalone="no"?>
<!-- Created with Inkscape (http://www.inkscape.org/) -->
<svg
   xmlns:dc="http://purl.org/dc/elements/1.1/"
   xmlns:cc="http://web.resource.org/cc/"
   xmlns:rdf="http://www.w3.org/1999/02/22-rdf-syntax-ns#"
   xmlns:svg="http://www.w3.org/2000/svg"
   xmlns="http://www.w3.org/2000/svg"
   xmlns:xlink="http://www.w3.org/1999/xlink"
   xmlns:sodipodi="http://sodipodi.sourceforge.net/DTD/sodipodi-0.dtd"
   xmlns:inkscape="http://www.inkscape.org/namespaces/inkscape"
   width="88"
   height="88"
   id="svg2606"
   sodipodi:version="0.32"
   inkscape:version="0.45.1"
   version="1.0"
   sodipodi:docname="ascii.svg"
   inkscape:output_extension="org.inkscape.output.svg.inkscape"
   sodipodi:docbase="/home/david/Projects/Oxygen/oxygen/scalable/mimetypes/small/22x22"
   inkscape:export-filename="/home/david/Desktop/ascii.png"
   inkscape:export-xdpi="22.5"
   inkscape:export-ydpi="22.5">
  <defs
     id="defs2608">
    <linearGradient
       id="linearGradient10207">
      <stop
         style="stop-color:#a2a2a2;stop-opacity:1;"
         offset="0"
         id="stop10209" />
      <stop
         style="stop-color:#ffffff;stop-opacity:1;"
         offset="1"
         id="stop10211" />
    </linearGradient>
    <linearGradient
       id="XMLID_12_"
       gradientUnits="userSpaceOnUse"
       x1="96"
       y1="104"
       x2="88.000198"
       y2="96.000198">
      <stop
         offset="0"
         style="stop-color:#888A85"
         id="stop83" />
      <stop
         offset="0.0072"
         style="stop-color:#8C8E89"
         id="stop85" />
      <stop
         offset="0.0673"
         style="stop-color:#ABACA9"
         id="stop87" />
      <stop
         offset="0.1347"
         style="stop-color:#C5C6C4"
         id="stop89" />
      <stop
         offset="0.2652576"
         style="stop-color:#DBDBDA"
         id="stop91" />
      <stop
         offset="0.37646064"
         style="stop-color:#EBEBEB"
         id="stop93" />
      <stop
         offset="0.48740286"
         style="stop-color:#F7F7F6"
         id="stop95" />
      <stop
         offset="0.6324091"
         style="stop-color:#FDFDFD"
         id="stop97" />
      <stop
         offset="1"
         style="stop-color:#FFFFFF"
         id="stop99" />
    </linearGradient>
    <radialGradient
       id="XMLID_8_"
       cx="102"
       cy="112.3047"
       r="139.55859"
       gradientUnits="userSpaceOnUse">
      <stop
         offset="0"
         style="stop-color:#b7b8b9;stop-opacity:1;"
         id="stop41" />
      <stop
         offset="0.18851049"
         style="stop-color:#ECECEC"
         id="stop47" />
      <stop
         offset="0.25718147"
         style="stop-color:#FAFAFA"
         id="stop49" />
      <stop
         offset="0.30111277"
         style="stop-color:#FFFFFF"
         id="stop51" />
      <stop
         offset="0.5313"
         style="stop-color:#FAFAFA"
         id="stop53" />
      <stop
         offset="0.8449"
         style="stop-color:#EBECEC"
         id="stop55" />
      <stop
         offset="1"
         style="stop-color:#E1E2E3"
         id="stop57" />
    </radialGradient>
    <filter
       inkscape:collect="always"
       x="-0.19200002"
       width="1.3839999"
       y="-0.19199999"
       height="1.3839999"
       id="filter6697">
      <feGaussianBlur
         inkscape:collect="always"
         stdDeviation="1.9447689"
         id="feGaussianBlur6699" />
    </filter>
    <clipPath
       clipPathUnits="userSpaceOnUse"
       id="clipPath7084">
      <path
         style="fill:#000000;fill-opacity:1;fill-rule:evenodd;stroke:none;stroke-width:1px;stroke-linecap:butt;stroke-linejoin:miter;stroke-opacity:1"
         d="M 72,88 L 40,120 L 32,120 L 32,80 L 72,80 L 72,88 z "
         id="path7086" />
    </clipPath>
    <radialGradient
       inkscape:collect="always"
       xlink:href="#XMLID_8_"
       id="radialGradient9437"
       gradientUnits="userSpaceOnUse"
       gradientTransform="matrix(0.6351383,0,0,0.6434884,7.5309699,1.1646966)"
       cx="102"
       cy="112.3047"
       r="139.55859" />
    <linearGradient
       inkscape:collect="always"
       xlink:href="#linearGradient10207"
       id="linearGradient10213"
       x1="98.617439"
       y1="106.41443"
       x2="91.228737"
       y2="99.254974"
       gradientUnits="userSpaceOnUse"
       gradientTransform="matrix(0.670413,0,0,0.6744031,5.2733923,-0.8863014)" />
    <linearGradient
       gradientUnits="userSpaceOnUse"
       y2="99.254974"
       x2="91.228737"
       y1="106.41443"
       x1="98.617439"
       id="linearGradient2285"
       xlink:href="#linearGradient10207"
       inkscape:collect="always" />
    <radialGradient
       r="139.55859"
       cy="112.3047"
       cx="102"
       gradientTransform="matrix(0.9361702,0,0,0.9428661,4.085106,3.7642086)"
       gradientUnits="userSpaceOnUse"
       id="radialGradient2283"
       xlink:href="#XMLID_8_"
       inkscape:collect="always" />
    <clipPath
       id="clipPath2279"
       clipPathUnits="userSpaceOnUse">
      <path
         id="path2281"
         d="M 72,88 L 40,120 L 32,120 L 32,80 L 72,80 L 72,88 z"
         style="fill:#000000;fill-opacity:1;fill-rule:evenodd;stroke:none;stroke-width:1px;stroke-linecap:butt;stroke-linejoin:miter;stroke-opacity:1" />
    </clipPath>
    <radialGradient
       gradientUnits="userSpaceOnUse"
       r="139.55859"
       cy="112.3047"
       cx="102"
       id="radialGradient2259">
      <stop
         id="stop2261"
         style="stop-color:#b7b8b9;stop-opacity:1;"
         offset="0" />
      <stop
         id="stop2263"
         style="stop-color:#ECECEC"
         offset="0.18851049" />
      <stop
         id="stop2265"
         style="stop-color:#FAFAFA"
         offset="0.25718147" />
      <stop
         id="stop2267"
         style="stop-color:#FFFFFF"
         offset="0.30111277" />
      <stop
         id="stop2269"
         style="stop-color:#FAFAFA"
         offset="0.5313" />
      <stop
         id="stop2271"
         style="stop-color:#EBECEC"
         offset="0.8449" />
      <stop
         id="stop2273"
         style="stop-color:#E1E2E3"
         offset="1" />
    </radialGradient>
    <linearGradient
       y2="96.000198"
       x2="88.000198"
       y1="104"
       x1="96"
       gradientUnits="userSpaceOnUse"
       id="linearGradient2239">
      <stop
         id="stop2241"
         style="stop-color:#888A85"
         offset="0" />
      <stop
         id="stop2243"
         style="stop-color:#8C8E89"
         offset="0.0072" />
      <stop
         id="stop2245"
         style="stop-color:#ABACA9"
         offset="0.0673" />
      <stop
         id="stop2247"
         style="stop-color:#C5C6C4"
         offset="0.1347" />
      <stop
         id="stop2249"
         style="stop-color:#DBDBDA"
         offset="0.2652576" />
      <stop
         id="stop2251"
         style="stop-color:#EBEBEB"
         offset="0.37646064" />
      <stop
         id="stop2253"
         style="stop-color:#F7F7F6"
         offset="0.48740286" />
      <stop
         id="stop2255"
         style="stop-color:#FDFDFD"
         offset="0.6324091" />
      <stop
         id="stop2257"
         style="stop-color:#FFFFFF"
         offset="1" />
    </linearGradient>
    <linearGradient
       id="linearGradient2233">
      <stop
         id="stop2235"
         offset="0"
         style="stop-color:#a2a2a2;stop-opacity:1;" />
      <stop
         id="stop2237"
         offset="1"
         style="stop-color:#ffffff;stop-opacity:1;" />
    </linearGradient>
    <radialGradient
       inkscape:collect="always"
       xlink:href="#XMLID_8_"
       id="radialGradient2306"
       gradientUnits="userSpaceOnUse"
       gradientTransform="matrix(0.6351383,0,0,0.6434884,7.5309699,1.1646966)"
       cx="102"
       cy="112.3047"
       r="139.55859" />
    <linearGradient
       inkscape:collect="always"
       xlink:href="#linearGradient10207"
       id="linearGradient2308"
       gradientUnits="userSpaceOnUse"
       gradientTransform="matrix(0.670413,0,0,0.6744031,5.2733923,-0.8863014)"
       x1="98.617439"
       y1="106.41443"
       x2="91.228737"
       y2="99.254974" />
    <linearGradient
       inkscape:collect="always"
       xlink:href="#linearGradient10207"
       id="linearGradient2311"
       gradientUnits="userSpaceOnUse"
       gradientTransform="matrix(0.670413,0,0,0.6744031,2.2733923,-178.8863)"
       x1="98.617439"
       y1="106.41443"
       x2="91.228737"
       y2="99.254974" />
    <radialGradient
       inkscape:collect="always"
       xlink:href="#XMLID_8_"
       id="radialGradient2316"
       gradientUnits="userSpaceOnUse"
       gradientTransform="matrix(0.6351383,0,0,0.6434884,4.5309699,-176.8353)"
       cx="102"
       cy="112.3047"
       r="139.55859" />
  </defs>
  <sodipodi:namedview
     id="base"
     pagecolor="#ffffff"
     bordercolor="#666666"
     borderopacity="1.0"
     inkscape:pageopacity="0.0"
     inkscape:pageshadow="2"
     inkscape:zoom="1"
     inkscape:cx="44"
     inkscape:cy="44"
     inkscape:document-units="px"
     inkscape:current-layer="layer1"
     width="88px"
     height="88px"
     gridspacingx="4px"
     gridspacingy="4px"
     gridempspacing="2"
     showgrid="false"
     inkscape:grid-points="true"
     showguides="true"
     inkscape:guide-bbox="true"
     inkscape:window-width="743"
     inkscape:window-height="741"
     inkscape:window-x="0"
     inkscape:window-y="0"
     showborder="true" />
  <metadata
     id="metadata2611">
    <rdf:RDF>
      <cc:Work
         rdf:about="">
        <dc:format>image/svg+xml</dc:format>
        <dc:type
           rdf:resource="http://purl.org/dc/dcmitype/StillImage" />
      </cc:Work>
    </rdf:RDF>
  </metadata>
  <g
     inkscape:label="Livello 1"
     inkscape:groupmode="layer"
     id="layer1">
    <path
       style="opacity:0.1;fill:none;fill-opacity:1;stroke:#000000;stroke-width:8;stroke-linejoin:round;stroke-miterlimit:4;stroke-dasharray:none;stroke-opacity:1"
       d="M 16,8 L 16,80.04207 C 16,80.04207 58.33418,80.04207 58.33418,80.04207 L 80.359648,57.885514 L 80.359647,8 L 16,8 z "
       id="path3176"
       sodipodi:nodetypes="cccccc" />
    <path
       sodipodi:nodetypes="cccccc"
       id="path3174"
       d="M 16,8 L 16,80.04207 C 16,80.04207 58.33418,80.04207 58.33418,80.04207 L 80.359648,57.885514 L 80.359647,8 L 16,8 z "
       style="opacity:0.15;fill:none;fill-opacity:1;stroke:#000000;stroke-width:6;stroke-linejoin:round;stroke-miterlimit:4;stroke-dasharray:none;stroke-opacity:1" />
    <path
       style="opacity:0.2;fill:none;fill-opacity:1;stroke:#000000;stroke-width:4;stroke-linejoin:round;stroke-miterlimit:4;stroke-dasharray:none;stroke-opacity:1"
       d="M 16,8 L 16,80.04207 C 16,80.04207 58.33418,80.04207 58.33418,80.04207 L 80.359648,57.885514 L 80.359647,8 L 16,8 z "
       id="path3172"
       sodipodi:nodetypes="cccccc" />
    <path
       sodipodi:nodetypes="cccccc"
       id="path2789"
       d="M 16,8 L 16,80.04207 C 16,80.04207 58.33418,80.04207 58.33418,80.04207 L 80.359648,57.885514 L 80.359647,8 L 16,8 z "
       style="opacity:0.25;fill:none;fill-opacity:1;stroke:#000000;stroke-width:2;stroke-linejoin:round;stroke-miterlimit:4;stroke-dasharray:none;stroke-opacity:1" />
    <path
       style="fill:#ffffff;fill-opacity:1"
       d="M 16,8 L 16,80.042074 C 16,80.042074 58.334178,80.042074 58.334178,80.042074 L 80.359645,57.885517 L 80.359644,8 L 16,8 z "
       id="path34"
       sodipodi:nodetypes="cccccc" />
    <path
       style="fill:url(#radialGradient9437);fill-opacity:1"
       d="M 18.963459,10.867203 C 18.613498,10.867203 18.328322,11.15613 18.328322,11.510691 L 18.328322,77.096323 C 18.328322,77.451527 18.613498,77.739807 18.963459,77.739807 L 56.545864,77.739807 C 56.712905,77.739807 59.881864,77.815849 60,77.695521 C 60,77.695521 72.936722,65.425863 77.845227,60 C 77.95865,59.874622 78.031324,56.141124 78.031324,55.971887 L 78.031324,11.510691 C 78.031324,11.15613 77.746784,10.867203 77.396186,10.867203 L 18.963459,10.867203 z "
       id="path59"
       sodipodi:nodetypes="ccccccscccc" />
    <path
       d="M 41.879531,115.98249 C 41.879531,115.98249 66.18914,91.672876 66.18914,91.672876 C 66.18914,91.672876 56.836,94.586 46.586,94.586 C 46.586,104.836 41.879531,115.98249 41.879531,115.98249 z "
       id="path5540"
       style="opacity:0.4;fill:#000000;fill-opacity:1;filter:url(#filter6697)"
       sodipodi:nodetypes="cccc"
       clip-path="url(#clipPath7084)"
       transform="matrix(0.670413,0,0,0.6744031,32.089911,-0.8863014)" />
    <path
       style="fill:url(#linearGradient10213);fill-opacity:1"
       id="path14523"
       d="M 58.351328,80.042074 C 58.351328,80.042074 66.338628,73.356041 70.0259,69.646824 C 73.713171,65.937607 80.359645,57.902768 80.359645,57.902768 C 80.359645,57.902768 71.141467,63.856399 64.269734,63.856399 C 64.269734,70.769031 58.351328,80.042074 58.351328,80.042074 z "
       sodipodi:nodetypes="csccc" />
    <path
       d="M 23.837285,13.140974 L 24.446997,13.140974 L 24.446997,15.263657 L 24.383924,16.420596 L 23.900358,16.420596 L 23.837285,15.263657 L 23.837285,13.140974 z M 23.837285,17.156241 L 24.446997,17.156241 L 24.446997,17.979387 L 23.837285,17.979387 L 23.837285,17.156241 z M 28.675938,13.140974 L 28.675938,14.939583 L 28.153328,14.939583 L 28.153328,13.140974 L 28.675938,13.140974 z M 27.525595,13.140974 L 27.525595,14.939583 L 27.002983,14.939583 L 27.002983,13.140974 L 27.525595,13.140974 z M 31.742522,13.215512 L 31.430156,14.56042 L 32.166015,14.56042 L 32.481384,13.215512 L 32.961946,13.215512 L 32.646578,14.56042 L 33.379434,14.56042 L 33.379434,15.059492 L 32.535449,15.059492 L 32.283152,16.141893 L 33.034031,16.141893 L 33.034031,16.637726 L 32.166015,16.637726 L 31.853651,17.979387 L 31.373089,17.979387 L 31.688458,16.637726 L 30.949595,16.637726 L 30.634226,17.979387 L 30.156668,17.979387 L 30.469034,16.637726 L 29.694129,16.637726 L 29.694129,16.141893 L 30.58617,16.141893 L 30.838466,15.059492 L 30.039531,15.059492 L 30.039531,14.56042 L 30.949595,14.56042 L 31.26196,13.215512 L 31.742522,13.215512 z M 32.054886,15.059492 L 31.319026,15.059492 L 31.066731,16.141893 L 31.805596,16.141893 L 32.054886,15.059492 z M 35.466874,16.099762 L 35.466874,17.506243 C 35.687129,17.499758 35.85933,17.433862 35.983476,17.308557 C 36.107618,17.183251 36.169691,17.012567 36.169695,16.79652 C 36.169691,16.595594 36.113627,16.439504 36.001497,16.328231 C 35.889365,16.216972 35.711155,16.140817 35.466874,16.099762 L 35.466874,16.099762 z M 35.166521,15.484026 L 35.166521,14.145604 C 34.958277,14.154253 34.795586,14.219066 34.678452,14.340044 C 34.561313,14.461035 34.502747,14.623076 34.502747,14.826159 C 34.502747,15.011964 34.55731,15.158876 34.666438,15.266897 C 34.775565,15.374924 34.942258,15.447298 35.166521,15.484026 L 35.166521,15.484026 z M 35.466874,18.954843 L 35.166521,18.954843 L 35.163519,17.979387 C 34.959278,17.96858 34.756542,17.938338 34.555308,17.888645 C 34.354072,17.838953 34.155341,17.769818 33.959113,17.681241 L 33.959113,17.097905 C 34.159344,17.231861 34.36108,17.334484 34.564319,17.405776 C 34.767555,17.477076 34.968288,17.514886 35.166521,17.519201 L 35.166521,16.034947 C 34.766053,15.967977 34.464701,15.836185 34.262466,15.639581 C 34.060229,15.442976 33.95911,15.182641 33.959113,14.858566 C 33.95911,14.519371 34.064734,14.248768 34.275981,14.04676 C 34.487227,13.844759 34.784073,13.728637 35.166521,13.698381 L 35.166521,12.936809 L 35.466874,12.936809 L 35.469876,13.698381 C 35.62806,13.709187 35.788247,13.730795 35.950438,13.763201 C 36.112625,13.795608 36.277818,13.839897 36.446017,13.896068 L 36.446017,14.456714 C 36.275815,14.363815 36.11012,14.291982 35.948937,14.241207 C 35.787746,14.190441 35.627059,14.160732 35.466874,14.152082 L 35.466874,15.54884 C 35.879353,15.615817 36.19372,15.754086 36.409975,15.963655 C 36.626224,16.173224 36.734349,16.44436 36.734353,16.777077 C 36.734349,17.109795 36.617715,17.387416 36.384446,17.609942 C 36.151169,17.832475 35.846313,17.953459 35.469876,17.972902 L 35.466874,18.954843 z M 39.17921,16.945597 C 39.179209,17.114109 39.23177,17.255625 39.336895,17.37013 C 39.442015,17.484636 39.572668,17.541889 39.728853,17.541889 C 39.88303,17.541889 40.013683,17.484095 40.12081,17.368508 C 40.227932,17.25292 40.281494,17.111952 40.281498,16.945597 C 40.281494,16.779241 40.227432,16.637726 40.119308,16.521056 C 40.011179,16.404393 39.881027,16.346064 39.728853,16.346058 C 39.572668,16.346064 39.442015,16.403311 39.336895,16.517817 C 39.23177,16.632322 39.179209,16.774913 39.17921,16.945597 L 39.17921,16.945597 z M 38.773736,16.945597 C 38.773735,16.653929 38.865843,16.408173 39.050059,16.208329 C 39.234273,16.008485 39.460538,15.90856 39.728853,15.90856 C 39.857,15.90856 39.978641,15.934488 40.093779,15.986337 C 40.20891,16.038194 40.31253,16.113807 40.404642,16.213192 C 40.496746,16.314733 40.567829,16.428157 40.617892,16.553463 C 40.667946,16.678775 40.692976,16.809485 40.692978,16.945597 C 40.692976,17.232936 40.599866,17.477076 40.413652,17.678001 C 40.227432,17.87892 39.999165,17.979387 39.728853,17.979387 C 39.456533,17.979387 39.229266,17.880544 39.047056,17.682857 C 38.86484,17.485177 38.773735,17.239422 38.773736,16.945597 L 38.773736,16.945597 z M 37.452193,16.472446 L 37.34707,16.161335 L 40.476727,14.806709 L 40.599871,15.117821 L 37.452193,16.472446 z M 37.593358,14.375697 C 37.593356,14.54638 37.645919,14.688431 37.751042,14.801847 C 37.856163,14.915278 37.987818,14.971989 38.146004,14.971989 C 38.300182,14.971989 38.431336,14.914202 38.539463,14.798608 C 38.647588,14.683027 38.701652,14.542059 38.701654,14.375697 C 38.701652,14.209342 38.647588,14.068374 38.539463,13.95278 C 38.431336,13.837199 38.300182,13.779405 38.146004,13.779405 C 37.991822,13.779405 37.861168,13.836657 37.754045,13.951163 C 37.646919,14.065669 37.593356,14.207185 37.593358,14.375697 L 37.593358,14.375697 z M 37.187884,14.375697 C 37.187884,14.084036 37.27999,13.83828 37.464207,13.63843 C 37.64842,13.438593 37.875687,13.338668 38.146004,13.338661 C 38.274153,13.338668 38.396796,13.364595 38.513932,13.416438 C 38.631069,13.468294 38.734689,13.542833 38.824796,13.640053 C 38.9149,13.73728 38.984481,13.84908 39.03354,13.975468 C 39.082596,14.101856 39.107124,14.23527 39.107128,14.375697 C 39.107124,14.665201 39.014015,14.909881 38.8278,15.109718 C 38.641581,15.309569 38.414316,15.409494 38.146004,15.409488 C 37.875687,15.409494 37.64842,15.31011 37.464207,15.111342 C 37.27999,14.91258 37.187884,14.667365 37.187884,14.375697 L 37.187884,14.375697 z M 42.43201,15.040043 L 43.68147,16.851609 C 43.759558,16.745753 43.817628,16.611798 43.855674,16.449764 C 43.893716,16.28773 43.912738,16.094365 43.91274,15.869667 C 43.912738,15.80054 43.909735,15.690355 43.90373,15.539115 L 43.900728,15.516432 L 44.393303,15.516432 L 44.393303,15.64282 C 44.393299,15.990659 44.356257,16.295831 44.282172,16.558325 C 44.208082,16.820825 44.095953,17.047138 43.945781,17.237258 L 44.456377,17.979387 L 43.816628,17.979387 L 43.582354,17.626146 C 43.416157,17.777379 43.239951,17.889727 43.053738,17.963184 C 42.867518,18.03664 42.668285,18.073368 42.456039,18.073368 C 42.023533,18.073368 41.666116,17.928079 41.383786,17.637493 C 41.101455,17.3469 40.960292,16.981243 40.960292,16.540505 C 40.960292,16.244516 41.029371,15.970134 41.167534,15.717358 C 41.305693,15.464584 41.513938,15.230169 41.792264,15.014121 C 41.692146,14.858566 41.61806,14.70625 41.570005,14.557174 C 41.521947,14.408104 41.497918,14.25687 41.49792,14.103472 C 41.497918,13.779405 41.597536,13.52339 41.79677,13.335421 C 41.996001,13.14746 42.268819,13.053485 42.615225,13.053478 C 42.745373,13.053485 42.876028,13.066449 43.007183,13.09237 C 43.138334,13.118298 43.273992,13.156108 43.414159,13.205794 L 43.414159,13.798847 C 43.296018,13.714591 43.174376,13.652476 43.049232,13.612501 C 42.924083,13.572541 42.79243,13.552557 42.654271,13.55255 C 42.460041,13.552557 42.306864,13.601708 42.194734,13.700004 C 42.0826,13.798307 42.026535,13.930639 42.026537,14.096993 C 42.026535,14.224463 42.05557,14.357877 42.113639,14.497223 C 42.171705,14.636581 42.277829,14.817516 42.43201,15.040043 L 42.43201,15.040043 z M 42.038552,15.377081 C 41.854335,15.5348 41.716674,15.701696 41.62557,15.877777 C 41.534462,16.053856 41.48891,16.241277 41.48891,16.440039 C 41.48891,16.766278 41.589026,17.036872 41.78926,17.251845 C 41.989492,17.46681 42.244791,17.574296 42.555155,17.574296 C 42.63925,17.574296 42.727354,17.561331 42.819464,17.535404 C 42.911571,17.509483 43.001674,17.471673 43.08978,17.42198 C 43.14384,17.389574 43.188393,17.360947 43.223435,17.336101 C 43.258473,17.311254 43.292013,17.284792 43.324054,17.256707 L 42.038552,15.377081 z M 46.597878,13.140974 L 46.597878,14.939583 L 46.075267,14.939583 L 46.075267,13.140974 L 46.597878,13.140974 z M 50.847844,12.943294 C 50.581529,13.435887 50.382799,13.926858 50.251647,14.416206 C 50.120493,14.905559 50.054915,15.398687 50.054918,15.895596 C 50.054915,16.390353 50.120493,16.882941 50.251647,17.37337 C 50.382799,17.8638 50.581529,18.357468 50.847844,18.854377 L 50.367284,18.854377 C 50.064927,18.34019 49.839665,17.839495 49.691492,17.352304 C 49.543318,16.865114 49.469232,16.379546 49.469232,15.895596 C 49.469232,15.413809 49.543318,14.928783 49.691492,14.440511 C 49.839665,13.952245 50.064927,13.453173 50.367284,12.943294 L 50.847844,12.943294 z M 52.935284,12.943294 L 53.415845,12.943294 C 53.718196,13.453173 53.943457,13.952245 54.091634,14.440511 C 54.239805,14.928783 54.313889,15.413809 54.313895,15.895596 C 54.313889,16.38171 54.239805,16.868894 54.091634,17.357167 C 53.943457,17.845439 53.718196,18.344511 53.415845,18.854377 L 52.935284,18.854377 C 53.201594,18.353147 53.400324,17.857321 53.531479,17.366891 C 53.662631,16.876462 53.728209,16.386032 53.728209,15.895596 C 53.728209,15.403009 53.662631,14.911498 53.531479,14.421068 C 53.400324,13.930639 53.201594,13.438051 52.935284,12.943294 L 52.935284,12.943294 z M 58.795128,13.938199 L 57.719872,14.566899 L 58.795128,15.198843 L 58.62393,15.516432 L 57.614748,14.858566 L 57.614748,16.080318 L 57.269346,16.080318 L 57.269346,14.858566 L 56.260168,15.516432 L 56.088967,15.198843 L 57.164225,14.566899 L 56.088967,13.938199 L 56.260168,13.617364 L 57.269346,14.275231 L 57.269346,13.053478 L 57.614748,13.053478 L 57.614748,14.275231 L 58.62393,13.617364 L 58.795128,13.938199 z M 61.393169,14.184489 L 61.393169,15.623378 L 62.729723,15.623378 L 62.729723,16.1743 L 61.393169,16.1743 L 61.393169,17.613181 L 60.88858,17.613181 L 60.88858,16.1743 L 59.555017,16.1743 L 59.555017,15.623378 L 60.88858,15.623378 L 60.88858,14.184489 L 61.393169,14.184489 z M 64.498801,16.997446 L 65.255674,16.997446 L 65.255674,17.668277 L 64.66398,18.909472 L 64.201442,18.909472 L 64.498801,17.668277 L 64.498801,16.997446 z M 67.760606,15.895596 L 69.325431,15.895596 L 69.325431,16.427075 L 67.760606,16.427075 L 67.760606,15.895596 z M 71.860394,16.990961 L 72.61728,16.990961 L 72.61728,17.979387 L 71.860394,17.979387 L 71.860394,16.990961 z M 76.762133,13.140974 L 77.332798,13.140974 L 74.97204,18.595122 L 74.398363,18.595122 L 76.762133,13.140974 z M 20.037847,23.845106 C 20.037845,23.726286 20.07639,23.623655 20.153481,23.537235 C 20.23057,23.450828 20.323176,23.407614 20.431305,23.407601 C 20.543435,23.407614 20.639547,23.450828 20.719642,23.537235 C 20.799734,23.623655 20.83978,23.726286 20.839782,23.845106 C 20.83978,23.966097 20.800235,24.06872 20.721144,24.152977 C 20.64205,24.23724 20.545437,24.279365 20.431305,24.279365 C 20.319173,24.279365 20.225564,24.238315 20.150477,24.156216 C 20.075388,24.074117 20.037845,23.970419 20.037847,23.845106 L 20.037847,23.845106 z M 20.437312,21.868266 C 20.15498,21.868266 19.944234,22.032457 19.805073,22.360853 C 19.66591,22.689255 19.596329,23.189403 19.596331,23.861315 C 19.596329,24.531064 19.66591,25.030137 19.805073,25.358532 C 19.944234,25.686922 20.15498,25.85112 20.437312,25.85112 C 20.721641,25.85112 20.93339,25.686922 21.072554,25.358532 C 21.211714,25.030137 21.281296,24.531064 21.281298,23.861315 C 21.281296,23.189403 21.211714,22.689255 21.072554,22.360853 C 20.93339,22.032457 20.721641,21.868266 20.437312,21.868266 L 20.437312,21.868266 z M 20.437312,21.349751 C 20.915869,21.349751 21.277793,21.561477 21.523083,21.984929 C 21.768363,22.408388 21.891007,23.033847 21.891011,23.861315 C 21.891007,24.686619 21.768363,25.310997 21.523083,25.734457 C 21.277793,26.157908 20.915869,26.369635 20.437312,26.369635 C 19.958753,26.369635 19.59733,26.157908 19.353046,25.734457 C 19.10876,25.310997 18.986617,24.686619 18.986618,23.861315 C 18.986617,23.033847 19.10876,22.408388 19.353046,21.984929 C 19.59733,21.561477 19.958753,21.349751 20.437312,21.349751 L 20.437312,21.349751 z M 23.098422,25.724732 L 24.041525,25.724732 L 24.041525,22.027061 L 23.026337,22.273358 L 23.026337,21.677052 L 24.035517,21.437247 L 24.642225,21.437247 L 24.642225,25.724732 L 25.573314,25.724732 L 25.573314,26.275653 L 23.098422,26.275653 L 23.098422,25.724732 z M 27.108107,25.724732 L 29.168514,25.724732 L 29.168514,26.275653 L 26.444331,26.275653 L 26.444331,25.724732 C 26.818768,25.299116 27.14615,24.923191 27.426479,24.59696 C 27.706804,24.270728 27.900029,24.040628 28.006155,23.906673 C 28.206389,23.643098 28.341545,23.429756 28.411629,23.266633 C 28.48171,23.103524 28.516751,22.936621 28.516754,22.765944 C 28.516751,22.49589 28.443164,22.284164 28.295995,22.130766 C 28.148821,21.977368 27.947085,21.900673 27.690788,21.900666 C 27.508574,21.900673 27.317351,21.936319 27.117117,22.007618 C 26.916884,22.078917 26.704635,22.186937 26.480373,22.331685 L 26.480373,21.67058 C 26.686614,21.564717 26.889349,21.484782 27.088583,21.430761 C 27.287815,21.376754 27.484546,21.349751 27.678774,21.349751 C 28.117283,21.349751 28.470195,21.475597 28.73751,21.727291 C 29.00482,21.978999 29.138476,22.309004 29.13848,22.717334 C 29.138476,22.924739 29.093924,23.132144 29.004822,23.339555 C 28.915715,23.546959 28.771047,23.775971 28.570816,24.026589 C 28.458681,24.167023 28.295992,24.361464 28.082746,24.609917 C 27.869495,24.858372 27.544615,25.229974 27.108107,25.724732 L 27.108107,25.724732 z M 32.018845,23.686311 C 32.313185,23.770568 32.538448,23.920185 32.694634,24.135157 C 32.850813,24.350122 32.928906,24.61856 32.928908,24.940471 C 32.928906,25.385536 32.790242,25.73499 32.512922,25.988855 C 32.235594,26.242705 31.851647,26.369635 31.361076,26.369635 C 31.154832,26.369635 30.944587,26.349116 30.730339,26.308067 C 30.516088,26.267017 30.305841,26.207601 30.099602,26.129823 L 30.099602,25.478428 C 30.30384,25.59294 30.505075,25.678272 30.703308,25.734457 C 30.901538,25.790627 31.098769,25.818713 31.294999,25.818713 C 31.627385,25.818713 31.882682,25.737696 32.060893,25.575655 C 32.239099,25.413628 32.328203,25.180289 32.328205,24.875657 C 32.328203,24.594796 32.239099,24.371729 32.060893,24.206449 C 31.882682,24.041176 31.641401,23.958536 31.337047,23.958536 L 30.874507,23.958536 L 30.874507,23.420572 L 31.337047,23.420572 C 31.615371,23.420572 31.832625,23.354683 31.988809,23.222892 C 32.144989,23.091094 32.223081,22.907454 32.223084,22.671964 C 32.223081,22.423516 32.150496,22.232849 32.005329,22.09997 C 31.860157,21.96711 31.653415,21.900673 31.385105,21.900666 C 31.206894,21.900673 31.022679,21.92228 30.832456,21.96548 C 30.642234,22.008693 30.443002,22.073507 30.234762,22.159927 L 30.234762,21.557156 C 30.477043,21.488028 30.692794,21.436172 30.882016,21.401594 C 31.071236,21.36703 31.238933,21.349751 31.385105,21.349751 C 31.821611,21.349751 32.170517,21.468038 32.431827,21.704603 C 32.693128,21.941182 32.823782,22.254997 32.823785,22.646035 C 32.823782,22.911781 32.755202,23.133232 32.618044,23.310387 C 32.480881,23.487549 32.281149,23.612862 32.018845,23.686311 L 32.018845,23.686311 z M 35.596024,22.033533 L 34.181371,24.590475 L 35.596024,24.590475 L 35.596024,22.033533 z M 35.496907,21.437247 L 36.199729,21.437247 L 36.199729,24.590475 L 36.797427,24.590475 L 36.797427,25.12196 L 36.199729,25.12196 L 36.199729,26.275653 L 35.596024,26.275653 L 35.596024,25.12196 L 33.694803,25.12196 L 33.694803,24.502979 L 35.496907,21.437247 z M 37.710493,21.437247 L 39.981146,21.437247 L 39.981146,21.988175 L 38.263141,21.988175 L 38.263141,23.177521 C 38.349239,23.142951 38.43584,23.11757 38.522944,23.10136 C 38.610044,23.085157 38.697645,23.077061 38.785751,23.077054 C 39.250292,23.077061 39.618723,23.225049 39.891041,23.521031 C 40.163357,23.81702 40.299516,24.217797 40.29952,24.723341 C 40.299516,25.23322 40.156849,25.635065 39.87152,25.928897 C 39.586183,26.222722 39.196229,26.369635 38.701654,26.369635 C 38.463371,26.369635 38.245618,26.352349 38.048389,26.317785 C 37.851158,26.283214 37.674451,26.231364 37.518269,26.16223 L 37.518269,25.497878 C 37.702485,25.605898 37.887701,25.68638 38.073919,25.739312 C 38.260134,25.792244 38.450357,25.818713 38.644585,25.818713 C 38.978975,25.818713 39.236777,25.72365 39.417989,25.533524 C 39.599198,25.343398 39.689806,25.073337 39.689807,24.723341 C 39.689806,24.377666 39.596195,24.108688 39.408979,23.916398 C 39.221757,23.724121 38.960953,23.627976 38.626566,23.627976 C 38.464373,23.627976 38.30619,23.647967 38.152009,23.687927 C 37.997828,23.727901 37.850657,23.787853 37.710493,23.867788 L 37.710493,21.437247 z M 43.765569,21.544185 L 43.765569,22.146963 C 43.63942,22.067035 43.505262,22.005995 43.3631,21.963863 C 43.220931,21.921739 43.072757,21.900673 42.91858,21.900666 C 42.534129,21.900673 42.242788,22.056769 42.044558,22.368955 C 41.846326,22.681147 41.747209,23.140793 41.747211,23.747892 C 41.843322,23.531838 41.976479,23.366023 42.146678,23.250436 C 42.316875,23.134848 42.512102,23.077061 42.732361,23.077054 C 43.164865,23.077061 43.499756,23.220187 43.737036,23.506451 C 43.974308,23.792722 44.092947,24.198354 44.09295,24.723341 C 44.092947,25.246177 43.970806,25.651276 43.726523,25.938615 C 43.482235,26.225968 43.138834,26.369635 42.69632,26.369635 C 42.17571,26.369635 41.794265,26.168167 41.551983,25.76524 C 41.3097,25.362313 41.188557,24.727662 41.188557,23.861315 C 41.188557,23.044648 41.334228,22.421886 41.62557,21.993031 C 41.916907,21.564182 42.338898,21.349751 42.891549,21.349751 C 43.039718,21.349751 43.187893,21.366495 43.336067,21.399977 C 43.484238,21.433467 43.627404,21.481542 43.765569,21.544185 L 43.765569,21.544185 z M 42.684306,23.589091 C 42.426003,23.589091 42.222765,23.689558 42.074593,23.890484 C 41.926419,24.091402 41.852332,24.369024 41.852334,24.723341 C 41.852332,25.077664 41.926419,25.355286 42.074593,25.556212 C 42.222765,25.757138 42.426003,25.857605 42.684306,25.857605 C 42.952617,25.857605 43.154854,25.762001 43.291015,25.570792 C 43.427171,25.379591 43.495251,25.097108 43.495253,24.723341 C 43.495251,24.347417 43.427171,24.064399 43.291015,23.874273 C 43.154854,23.684154 42.952617,23.589091 42.684306,23.589091 L 42.684306,23.589091 z M 44.906904,21.437247 L 47.730203,21.437247 L 47.730203,21.71595 L 46.126327,26.275653 L 45.492587,26.275653 L 47.054411,21.988175 L 44.906904,21.988175 L 44.906904,21.437247 z M 50.039901,23.977978 C 49.769581,23.977978 49.560837,24.059544 49.413669,24.222653 C 49.266495,24.385769 49.192911,24.616403 49.192911,24.914543 C 49.192911,25.212695 49.267497,25.444412 49.416671,25.609678 C 49.565845,25.774958 49.773588,25.857605 50.039901,25.857605 C 50.312216,25.857605 50.521959,25.77604 50.669137,25.612931 C 50.816304,25.449808 50.889891,25.217017 50.889894,24.914543 C 50.889891,24.61856 50.815302,24.388467 50.666131,24.224269 C 50.516956,24.060071 50.308213,23.977978 50.039901,23.977978 L 50.039901,23.977978 z M 49.511281,23.705754 C 49.252978,23.634462 49.051243,23.501595 48.906076,23.307148 C 48.760903,23.1127 48.68832,22.878292 48.68832,22.603903 C 48.68832,22.219344 48.809463,21.914178 49.051746,21.688406 C 49.294028,21.462641 49.623413,21.349751 50.039901,21.349751 C 50.458386,21.349751 50.788771,21.462641 51.031058,21.688406 C 51.273337,21.914178 51.394478,22.219344 51.394481,22.603903 C 51.394478,22.878292 51.321894,23.1127 51.176729,23.307148 C 51.031557,23.501595 50.829821,23.634462 50.571519,23.705754 C 50.871868,23.777052 51.101638,23.920719 51.260827,24.136773 C 51.420009,24.352827 51.499602,24.632606 51.499606,24.976123 C 51.499602,25.412539 51.370454,25.753899 51.112153,26.000196 C 50.853848,26.246486 50.49643,26.369635 50.039901,26.369635 C 49.583365,26.369635 49.226448,26.247027 48.96915,26.001812 C 48.711849,25.756598 48.5832,25.416861 48.5832,24.982609 C 48.5832,24.636921 48.66279,24.355519 48.821976,24.13839 C 48.981161,23.921267 49.210931,23.777052 49.511281,23.705754 L 49.511281,23.705754 z M 49.292025,22.665478 C 49.292025,22.924739 49.356102,23.122425 49.48425,23.258531 C 49.6124,23.394643 49.797616,23.462709 50.039901,23.462697 C 50.284184,23.462709 50.470401,23.394643 50.598551,23.258531 C 50.7267,23.122425 50.790777,22.924739 50.790777,22.665478 C 50.790777,22.401909 50.727201,22.200977 50.600055,22.0627 C 50.472902,21.924443 50.286186,21.855302 50.039901,21.855295 C 49.797616,21.855302 49.6124,21.924978 49.48425,22.064329 C 49.356102,22.203682 49.292025,22.404059 49.292025,22.665478 L 49.292025,22.665478 z M 53.680153,24.130288 C 53.938452,24.130288 54.141191,24.029835 54.288363,23.828902 C 54.435534,23.627976 54.509118,23.350361 54.509122,22.996037 C 54.509118,22.64172 54.435534,22.364099 54.288363,22.163167 C 54.141191,21.962248 53.938452,21.861787 53.680153,21.861781 C 53.41184,21.861787 53.209601,21.957391 53.073444,22.148592 C 52.937282,22.339788 52.869204,22.622278 52.869206,22.996037 C 52.869204,23.371962 52.936782,23.654987 53.071944,23.845106 C 53.207098,24.035232 53.409837,24.130288 53.680153,24.130288 L 53.680153,24.130288 z M 52.598889,26.175187 L 52.598889,25.572409 C 52.725035,25.652358 52.859194,25.713384 53.001358,25.755522 C 53.143524,25.79764 53.291698,25.818713 53.44588,25.818713 C 53.830326,25.818713 54.121167,25.66261 54.318398,25.350424 C 54.515627,25.038232 54.614243,24.578586 54.614245,23.971494 C 54.520131,24.187547 54.387979,24.353361 54.21778,24.468942 C 54.047581,24.58453 53.852353,24.64233 53.632097,24.64233 C 53.199589,24.64233 52.864699,24.498651 52.627423,24.211311 C 52.390146,23.923972 52.271507,23.516717 52.271507,22.989553 C 52.271507,22.46888 52.39315,22.065405 52.636434,21.779141 C 52.879717,21.492883 53.223619,21.349751 53.668139,21.349751 C 54.188744,21.349751 54.570191,21.551759 54.812475,21.955762 C 55.054757,22.359777 55.175898,22.994962 55.1759,23.861315 C 55.175898,24.67582 55.030227,25.297492 54.73889,25.726354 C 54.447547,26.15521 54.024553,26.369635 53.469908,26.369635 C 53.323734,26.369635 53.176564,26.352896 53.028389,26.319408 C 52.880216,26.285919 52.737051,26.237843 52.598889,26.175187 L 52.598889,26.175187 z M 57.0591,22.830758 L 57.815986,22.830758 L 57.815986,23.812693 L 57.0591,23.812693 L 57.0591,22.830758 z M 57.0591,25.287233 L 57.815986,25.287233 L 57.815986,26.275653 L 57.0591,26.275653 L 57.0591,25.287233 z M 60.798468,25.293712 L 61.555353,25.293712 L 61.555353,25.964543 L 60.963665,27.205745 L 60.501123,27.205745 L 60.798468,25.964543 L 60.798468,25.293712 z M 60.759425,22.830758 L 61.516308,22.830758 L 61.516308,23.812693 L 60.759425,23.812693 L 60.759425,22.830758 z M 66.43005,23.161311 L 63.877072,24.198341 L 66.43005,25.22566 L 66.43005,25.818713 L 63.255337,24.464087 L 63.255337,23.926123 L 66.43005,22.571504 L 66.43005,23.161311 z M 66.955668,24.577511 L 70.130382,24.577511 L 70.130382,25.134918 L 66.955668,25.134918 L 66.955668,24.577511 z M 66.955668,23.261778 L 70.130382,23.261778 L 70.130382,23.812693 L 66.955668,23.812693 L 66.955668,23.261778 z M 70.655988,23.161311 L 70.655988,22.571504 L 73.83071,23.926123 L 73.83071,24.464087 L 70.655988,25.818713 L 70.655988,25.22566 L 73.208984,24.198341 L 70.655988,23.161311 z M 76.146404,24.976123 L 75.57574,24.976123 L 75.57574,24.477051 C 75.575733,24.265318 75.606269,24.085458 75.66735,23.93747 C 75.728416,23.789483 75.843049,23.626901 76.011247,23.449739 L 76.281569,23.161311 C 76.405705,23.033847 76.491305,22.922588 76.538365,22.827519 C 76.585419,22.732462 76.60895,22.631996 76.60895,22.526133 C 76.60895,22.333849 76.543367,22.178294 76.412218,22.059461 C 76.281061,21.94064 76.106357,21.881231 75.888105,21.881224 C 75.731916,21.881231 75.564726,21.918499 75.386516,21.993031 C 75.208305,22.067569 75.021091,22.178294 74.82486,22.3252 L 74.82486,21.71595 C 75.013083,21.592802 75.202801,21.500985 75.394016,21.440479 C 75.585251,21.38 75.784988,21.349751 75.993241,21.349751 C 76.365665,21.349751 76.662502,21.453451 76.883765,21.660855 C 77.105029,21.868266 77.215661,22.145881 77.215661,22.493719 C 77.215661,22.657924 77.182113,22.81078 77.115041,22.952283 C 77.047963,23.093799 76.920306,23.263935 76.732091,23.462697 L 76.467781,23.741406 C 76.329618,23.883998 76.241521,24.000668 76.203471,24.091402 C 76.165433,24.182144 76.146404,24.29341 76.146404,24.425195 L 76.146404,24.577511 L 76.146404,24.976123 z M 75.554714,25.452514 L 76.164438,25.452514 L 76.164438,26.275653 L 75.554714,26.275653 L 75.554714,25.452514 z M 21.704793,32.805724 C 21.70479,32.527027 21.640714,32.303953 21.51257,32.136517 C 21.384417,31.969079 21.213216,31.885363 20.998969,31.885357 C 20.784717,31.885363 20.613016,31.969079 20.483867,32.136517 C 20.354715,32.303953 20.29014,32.527027 20.290141,32.805724 C 20.29014,33.086592 20.354715,33.310741 20.483867,33.478177 C 20.613016,33.645615 20.784717,33.729331 20.998969,33.729331 C 21.213216,33.729331 21.384417,33.645615 21.51257,33.478177 C 21.640714,33.310741 21.70479,33.086592 21.704793,32.805724 L 21.704793,32.805724 z M 22.125285,34.134421 L 21.692781,34.134421 L 21.692781,33.774701 C 21.618691,33.910813 21.516071,34.015594 21.38492,34.08905 C 21.253763,34.162507 21.106091,34.199235 20.941902,34.199235 C 20.619523,34.199235 20.352711,34.068526 20.141467,33.807108 C 19.93022,33.545689 19.824596,33.211898 19.824597,32.805724 C 19.824596,32.399557 19.93022,32.065758 20.141467,31.80434 C 20.352711,31.542915 20.619523,31.412207 20.941902,31.412207 C 21.102087,31.412207 21.249259,31.450023 21.383418,31.525637 C 21.517571,31.601257 21.620693,31.704963 21.692781,31.836747 L 21.692781,31.632575 C 21.692777,31.295543 21.604675,31.0244 21.428469,30.81916 C 21.252262,30.613913 21.01899,30.511295 20.728653,30.511282 C 20.236076,30.511295 19.844118,30.718159 19.552779,31.131886 C 19.261437,31.545621 19.115767,32.105726 19.115767,32.812209 C 19.115767,33.523008 19.280961,34.08905 19.611349,34.510346 C 19.941732,34.93164 20.381245,35.142284 20.929888,35.142284 C 21.038011,35.142284 21.146138,35.131491 21.254268,35.109883 C 21.36239,35.088277 21.473519,35.054788 21.587657,35.009418 L 21.731825,35.446922 C 21.605675,35.50093 21.481028,35.540904 21.357888,35.566818 C 21.234742,35.592746 21.115102,35.60571 20.998969,35.605717 C 20.284132,35.60571 19.716969,35.354016 19.297479,34.850616 C 18.877991,34.347236 18.668246,33.667763 18.668246,32.812209 C 18.668246,31.969613 18.856465,31.298782 19.232905,30.79971 C 19.609345,30.300638 20.113933,30.051109 20.746675,30.051102 C 21.16516,30.051109 21.49955,30.194775 21.749847,30.482121 C 22.000134,30.769474 22.125281,31.155116 22.125285,31.639061 L 22.125285,34.134421 z M 24.137635,30.310362 L 23.497888,32.786282 L 24.777383,32.786282 L 24.137635,30.310362 z M 23.771208,29.733513 L 24.507067,29.733513 L 25.879669,34.571919 L 25.251938,34.571919 L 24.921552,33.311281 L 23.350716,33.311281 L 23.026337,34.571919 L 22.398605,34.571919 L 23.771208,29.733513 z M 27.096092,32.261281 L 27.096092,34.033962 L 27.813932,34.033962 C 28.166342,34.033962 28.417634,33.967525 28.56781,33.834652 C 28.717985,33.701786 28.793073,33.483034 28.793075,33.178409 C 28.793073,32.862977 28.713978,32.63126 28.555798,32.483273 C 28.397611,32.335284 28.150322,32.261281 27.813932,32.261281 L 27.096092,32.261281 z M 27.096092,30.271477 L 27.096092,31.729802 L 27.801917,31.729802 C 28.094257,31.729802 28.306003,31.66931 28.437159,31.548319 C 28.568311,31.427341 28.633887,31.231805 28.633889,30.961744 C 28.633887,30.717611 28.569312,30.541539 28.440162,30.433511 C 28.31101,30.325491 28.098259,30.271477 27.801917,30.271477 L 27.096092,30.271477 z M 26.486381,29.733513 L 27.813932,29.733513 C 28.272465,29.733513 28.625878,29.840458 28.874169,30.054348 C 29.122457,30.268238 29.246602,30.570699 29.246606,30.961744 C 29.246602,31.257733 29.181025,31.491072 29.049875,31.661742 C 28.91872,31.832433 28.72199,31.939371 28.459685,31.982584 C 28.754028,32.030112 28.984796,32.165677 29.151994,32.389292 C 29.319185,32.612906 29.402785,32.897541 29.402788,33.243229 C 29.402785,33.681809 29.269629,34.012889 29.003322,34.236504 C 28.737007,34.460118 28.340543,34.571919 27.813932,34.571919 L 26.486381,34.571919 L 26.486381,29.733513 z M 32.910886,34.400155 C 32.756702,34.488738 32.598519,34.555175 32.436332,34.599471 C 32.274141,34.64376 32.101939,34.665907 31.919727,34.665907 C 31.345054,34.665907 30.899036,34.446613 30.581665,34.008033 C 30.264293,33.569461 30.105608,32.952636 30.105608,32.157576 C 30.105608,31.366836 30.265294,30.750559 30.584669,30.308746 C 30.90404,29.866927 31.34906,29.646017 31.919727,29.64601 C 32.101939,29.646017 32.274141,29.668158 32.436332,29.71244 C 32.598519,29.756736 32.756702,29.823173 32.910886,29.911757 L 32.910886,30.582587 C 32.76271,30.450803 32.603524,30.350337 32.433328,30.281195 C 32.263128,30.212067 32.091928,30.177497 31.919727,30.177497 C 31.525264,30.177497 31.229922,30.341688 31.033693,30.670083 C 30.837463,30.998486 30.739349,31.494305 30.739349,32.157576 C 30.739349,32.818688 30.837463,33.313439 31.033693,33.641835 C 31.229922,33.970223 31.525264,34.134421 31.919727,34.134421 C 32.095933,34.134421 32.268633,34.099857 32.437834,34.030716 C 32.607029,33.961588 32.764712,33.861121 32.910886,33.729331 L 32.910886,34.400155 z M 34.697974,34.033962 C 35.208568,34.033962 35.564986,33.898391 35.767223,33.627241 C 35.969458,33.356105 36.070575,32.866217 36.070579,32.157576 C 36.070575,31.442463 35.969959,30.949328 35.768726,30.678185 C 35.567489,30.407048 35.210572,30.271477 34.697974,30.271477 L 34.409637,30.271477 L 34.409637,34.033962 L 34.697974,34.033962 z M 34.709989,29.733513 C 35.394787,29.733513 35.899376,29.930124 36.223757,30.32332 C 36.548133,30.716536 36.710321,31.32795 36.710325,32.157576 C 36.710321,32.982886 36.548133,33.591602 36.223757,33.983729 C 35.899376,34.375856 35.394787,34.571919 34.709989,34.571919 L 33.799926,34.571919 L 33.799926,29.733513 L 34.709989,29.733513 z M 37.680459,29.733513 L 40.341568,29.733513 L 40.341568,30.284435 L 38.287168,30.284435 L 38.287168,31.716838 L 40.251464,31.716838 L 40.251464,32.267767 L 38.287168,32.267767 L 38.287168,34.020998 L 40.398636,34.020998 L 40.398636,34.571919 L 37.680459,34.571919 L 37.680459,29.733513 z M 41.48891,29.733513 L 44.128993,29.733513 L 44.128993,30.284435 L 42.098622,30.284435 L 42.098622,31.710359 L 43.939772,31.710359 L 43.939772,32.261281 L 42.098622,32.261281 L 42.098622,34.571919 L 41.48891,34.571919 L 41.48891,29.733513 z M 47.805289,34.173307 C 47.643097,34.335354 47.460385,34.457955 47.257147,34.54113 C 47.053909,34.62431 46.834151,34.665907 46.597878,34.665907 C 46.029212,34.665907 45.586695,34.446073 45.270327,34.006417 C 44.953958,33.566748 44.795772,32.950472 44.795772,32.157576 C 44.795772,31.366836 44.95596,30.750559 45.276334,30.308746 C 45.596708,29.866927 46.042226,29.646017 46.612895,29.64601 C 46.801113,29.646017 46.981325,29.674644 47.153529,29.73189 C 47.325726,29.789149 47.491919,29.876105 47.65211,29.992767 L 47.65211,30.663598 C 47.489918,30.49725 47.323723,30.374635 47.153529,30.295775 C 46.983325,30.216922 46.803116,30.177497 46.612895,30.177497 C 46.218433,30.177497 45.922588,30.342235 45.725359,30.6717 C 45.528128,31.001177 45.429512,31.496469 45.429514,32.157576 C 45.429512,32.829488 45.525125,33.326944 45.716348,33.649936 C 45.90757,33.972929 46.201413,34.134421 46.597878,34.134421 C 46.732033,34.134421 46.849671,34.117677 46.950791,34.084188 C 47.051905,34.050706 47.143515,33.998316 47.225612,33.927017 L 47.225612,32.62748 L 46.573849,32.62748 L 46.573849,32.089522 L 47.805289,32.089522 L 47.805289,34.173307 z M 48.601219,29.733513 L 49.210931,29.733513 L 49.210931,31.716838 L 50.871871,31.716838 L 50.871871,29.733513 L 51.481586,29.733513 L 51.481586,34.571919 L 50.871871,34.571919 L 50.871871,32.267767 L 49.210931,32.267767 L 49.210931,34.571919 L 48.601219,34.571919 L 48.601219,29.733513 z M 52.493765,29.733513 L 54.983676,29.733513 L 54.983676,30.284435 L 54.043576,30.284435 L 54.043576,34.020998 L 54.983676,34.020998 L 54.983676,34.571919 L 52.493765,34.571919 L 52.493765,34.020998 L 53.433865,34.020998 L 53.433865,30.284435 L 52.493765,30.284435 L 52.493765,29.733513 z M 55.917767,34.374239 L 55.917767,33.609421 C 56.099981,33.784426 56.288201,33.915675 56.482428,34.003171 C 56.676654,34.090674 56.877887,34.134421 57.086133,34.134421 C 57.372464,34.134421 57.572199,34.053939 57.685335,33.892994 C 57.798464,33.732035 57.855028,33.432266 57.855031,32.993686 L 57.855031,30.284435 L 56.710695,30.284435 L 56.710695,29.733513 L 58.461741,29.733513 L 58.461741,32.993686 C 58.461738,33.602943 58.356113,34.033962 58.14487,34.28673 C 57.933621,34.539513 57.580707,34.665907 57.086133,34.665907 C 56.893906,34.665907 56.702683,34.642136 56.512462,34.594602 C 56.322238,34.547074 56.124009,34.473618 55.917767,34.374239 L 55.917767,34.374239 z M 59.702188,29.733513 L 60.311903,29.733513 L 60.311903,31.885357 L 62.207114,29.733513 L 62.918944,29.733513 L 61.173911,31.710359 L 62.970006,34.571919 L 62.23715,34.571919 L 60.774444,32.147851 L 60.311903,32.679336 L 60.311903,34.571919 L 59.702188,34.571919 L 59.702188,29.733513 z M 63.636783,29.733513 L 64.246497,29.733513 L 64.246497,34.020998 L 66.412033,34.020998 L 66.412033,34.571919 L 63.636783,34.571919 L 63.636783,29.733513 z M 66.949661,29.733513 L 67.760606,29.733513 L 68.535512,32.196461 L 69.316426,29.733513 L 70.130382,29.733513 L 70.130382,34.571919 L 69.56871,34.571919 L 69.56871,30.297406 L 68.769782,32.847855 L 68.310247,32.847855 L 67.508308,30.297406 L 67.508308,34.571919 L 66.949661,34.571919 L 66.949661,29.733513 z M 70.809165,29.733513 L 71.578063,29.733513 L 73.091846,33.716373 L 73.091846,29.733513 L 73.67752,29.733513 L 73.67752,34.571919 L 72.90862,34.571919 L 71.394844,30.589066 L 71.394844,34.571919 L 70.809165,34.571919 L 70.809165,29.733513 z M 76.810182,32.157576 C 76.81017,31.446784 76.742597,30.939068 76.607446,30.63443 C 76.472283,30.329805 76.250525,30.177497 75.942172,30.177497 C 75.635805,30.177497 75.415048,30.329805 75.279891,30.63443 C 75.144741,30.939068 75.077162,31.446784 75.077162,32.157576 C 75.077162,32.866217 75.144741,33.372849 75.279891,33.677481 C 75.415048,33.982105 75.635805,34.134421 75.942172,34.134421 C 76.250525,34.134421 76.472283,33.982654 76.607446,33.679103 C 76.742597,33.375554 76.81017,32.86838 76.810182,32.157576 L 76.810182,32.157576 z M 77.443918,32.157576 C 77.443918,33.000171 77.320282,33.62887 77.07299,34.043687 C 76.825698,34.458496 76.448752,34.665907 75.942172,34.665907 C 75.43558,34.665907 75.059142,34.459571 74.812845,34.046925 C 74.566561,33.634274 74.443406,33.004493 74.443406,32.157576 C 74.443406,31.312829 74.567062,30.683054 74.814341,30.268225 C 75.06164,29.853429 75.43757,29.646017 75.942172,29.64601 C 76.448752,29.646017 76.825698,29.853429 77.07299,30.268225 C 77.320282,30.683054 77.443918,31.312829 77.443918,32.157576 L 77.443918,32.157576 z M 19.785552,38.567737 L 19.785552,40.385795 L 20.488373,40.385795 C 20.768698,40.385795 20.987452,40.305853 21.144639,40.145977 C 21.30182,39.986101 21.380411,39.762486 21.380415,39.475147 C 21.380411,39.1878 21.302322,38.964733 21.146141,38.805939 C 20.989956,38.647137 20.7707,38.567744 20.488373,38.567737 L 19.785552,38.567737 z M 19.178843,38.029779 L 20.488373,38.029779 C 20.988955,38.029786 21.368398,38.152394 21.626703,38.397601 C 21.885,38.642816 22.014152,39.002003 22.014155,39.475147 C 22.014152,39.952611 21.885501,40.313421 21.628204,40.557547 C 21.370901,40.80168 20.990955,40.923753 20.488373,40.923753 L 19.785552,40.923753 L 19.785552,42.868185 L 19.178843,42.868185 L 19.178843,38.029779 z M 24.254773,42.955688 C 24.240755,42.955688 24.220731,42.95677 24.194704,42.958927 C 24.16867,42.961091 24.147645,42.962167 24.131629,42.962167 C 23.631043,42.962167 23.257107,42.754755 23.009817,42.339946 C 22.762528,41.925136 22.638884,41.29643 22.638884,40.453848 C 22.638884,39.609101 22.762528,38.979313 23.009817,38.564498 C 23.257107,38.149688 23.633046,37.942277 24.137635,37.942277 C 24.644226,37.942277 25.021166,38.149688 25.268457,38.564498 C 25.515744,38.979313 25.639388,39.609101 25.639392,40.453848 C 25.639388,41.089026 25.570807,41.600521 25.43365,41.988334 C 25.296487,42.37614 25.088745,42.647817 24.810422,42.803372 L 25.411123,43.419114 L 24.957594,43.743182 L 24.254773,42.955688 z M 25.005649,40.453848 C 25.005647,39.743043 24.938068,39.235335 24.802914,38.930703 C 24.667753,38.626078 24.445994,38.473763 24.137635,38.473756 C 23.831276,38.473763 23.610519,38.626078 23.475362,38.930703 C 23.340203,39.235335 23.272624,39.743043 23.272625,40.453848 C 23.272624,41.162489 23.340203,41.669115 23.475362,41.973747 C 23.610519,42.278378 23.831276,42.430687 24.137635,42.430687 C 24.445994,42.430687 24.667753,42.278913 24.802914,41.975364 C 24.938068,41.67182 25.005647,41.164647 25.005649,40.453848 L 25.005649,40.453848 z M 28.270466,40.583475 C 28.426646,40.626688 28.559799,40.70824 28.669932,40.828149 C 28.780057,40.948052 28.917217,41.187328 29.081412,41.545974 L 29.691124,42.868185 L 29.039363,42.868185 L 28.504739,41.64644 C 28.350557,41.298595 28.211894,41.074445 28.088753,40.973979 C 27.965606,40.873526 27.804919,40.823286 27.606689,40.823286 L 27.027013,40.823286 L 27.027013,42.868185 L 26.4173,42.868185 L 26.4173,38.029779 L 27.666759,38.029779 C 28.159332,38.029786 28.536773,38.149688 28.799083,38.389499 C 29.061386,38.629318 29.192538,38.976074 29.192542,39.429776 C 29.192538,39.749529 29.111945,40.010412 28.95076,40.212407 C 28.789568,40.414415 28.562803,40.538105 28.270466,40.583475 L 28.270466,40.583475 z M 27.027013,38.567737 L 27.027013,40.285329 L 27.690788,40.285329 C 27.981124,40.285329 28.197377,40.215112 28.339546,40.074671 C 28.48171,39.934258 28.552792,39.719279 28.552794,39.429776 C 28.552792,39.151079 28.477203,38.93773 28.32603,38.789728 C 28.174851,38.641741 27.955094,38.567744 27.666759,38.567737 L 27.027013,38.567737 z M 32.727673,38.195059 L 32.727673,38.859404 C 32.543454,38.731941 32.358738,38.635796 32.173526,38.570983 C 31.988307,38.506169 31.801588,38.473763 31.613371,38.473756 C 31.327033,38.473763 31.100769,38.545596 30.934578,38.689262 C 30.768382,38.832942 30.685286,39.026848 30.685286,39.270981 C 30.685286,39.484864 30.739848,39.647987 30.848977,39.760328 C 30.958103,39.872677 31.161841,39.966658 31.460193,40.042271 L 31.778564,40.120049 C 32.199051,40.225918 32.505409,40.392274 32.697638,40.619115 C 32.889858,40.845976 32.985971,41.154928 32.985975,41.545974 C 32.985971,42.006153 32.853816,42.357231 32.589511,42.599207 C 32.325198,42.841182 31.94075,42.962167 31.436163,42.962167 C 31.225916,42.962167 31.01467,42.937868 30.802424,42.889258 C 30.590174,42.840635 30.376926,42.767726 30.162677,42.670499 L 30.162677,41.973747 C 30.392944,42.131466 30.610698,42.247054 30.815938,42.320503 C 31.021177,42.393966 31.227918,42.430687 31.436163,42.430687 C 31.742521,42.430687 31.980798,42.356697 32.150999,42.208696 C 32.321195,42.060708 32.406294,41.853844 32.406296,41.588098 C 32.406294,41.346123 32.347725,41.161407 32.230592,41.033931 C 32.113454,40.906467 31.909716,40.808166 31.619377,40.73903 L 31.294999,40.658007 C 30.878511,40.556472 30.576158,40.403074 30.387938,40.197833 C 30.199718,39.992586 30.105608,39.717115 30.105608,39.37144 C 30.105608,38.939346 30.240267,38.59313 30.509581,38.332781 C 30.778895,38.072452 31.136812,37.942277 31.583335,37.942277 C 31.755535,37.942277 31.936746,37.963349 32.12697,38.005474 C 32.317191,38.047612 32.517425,38.110796 32.727673,38.195059 L 32.727673,38.195059 z M 33.52961,38.029779 L 36.950606,38.029779 L 36.950606,38.580707 L 35.547969,38.580707 L 35.547969,42.868185 L 34.938255,42.868185 L 34.938255,38.580707 L 33.52961,38.580707 L 33.52961,38.029779 z M 37.530285,41.011249 L 37.530285,38.029779 L 38.139996,38.029779 L 38.139996,41.309402 C 38.139995,41.544898 38.146002,41.71287 38.158017,41.81333 C 38.17003,41.913796 38.191055,41.991033 38.221091,42.045046 C 38.285165,42.172516 38.377772,42.268654 38.498915,42.333474 C 38.620056,42.398281 38.766726,42.430687 38.93893,42.430687 C 39.113131,42.430687 39.260304,42.398281 39.380444,42.333474 C 39.500584,42.268654 39.593692,42.172516 39.659771,42.045046 C 39.689806,41.991033 39.710829,41.914337 39.722845,41.814946 C 39.734857,41.715568 39.740863,41.549206 39.740867,41.315874 L 39.740867,41.011249 L 39.740867,38.029779 L 40.347576,38.029779 L 40.347576,41.011249 C 40.347572,41.505999 40.319039,41.857624 40.261976,42.066105 C 40.204906,42.274598 40.106289,42.446898 39.96613,42.583004 C 39.833972,42.710473 39.682796,42.80553 39.5126,42.868185 C 39.342398,42.930842 39.151177,42.962167 38.93893,42.962167 C 38.728683,42.962167 38.53846,42.930842 38.368262,42.868185 C 38.198063,42.80553 38.045885,42.710473 37.911729,42.583004 C 37.773567,42.449055 37.675452,42.275674 37.617387,42.062865 C 37.559317,41.850064 37.530283,41.499521 37.530285,41.011249 L 37.530285,41.011249 z M 42.639253,42.317264 L 43.693485,38.029779 L 44.321218,38.029779 L 43.008685,42.868185 L 42.272825,42.868185 L 40.960292,38.029779 L 41.588025,38.029779 L 42.639253,42.317264 z M 44.489414,38.029779 L 45.081104,38.029779 L 45.510608,41.957543 L 46.021204,39.358477 L 46.654945,39.358477 L 47.17155,41.964022 L 47.60105,38.029779 L 48.19274,38.029779 L 47.522958,42.868185 L 46.949289,42.868185 L 46.339575,39.993661 L 45.732868,42.868185 L 45.159198,42.868185 L 44.489414,38.029779 z M 48.448039,38.029779 L 49.099801,38.029779 L 50.084953,39.85431 L 51.088125,38.029779 L 51.739888,38.029779 L 50.397318,40.304771 L 51.836,42.868185 L 51.184238,42.868185 L 50.084953,40.784401 L 48.898568,42.868185 L 48.243802,42.868185 L 49.745557,40.304771 L 48.448039,38.029779 z M 52.001194,38.029779 L 52.646948,38.029779 L 53.740222,40.16542 L 54.830497,38.029779 L 55.482258,38.029779 L 54.043576,40.696905 L 54.043576,42.868185 L 53.433865,42.868185 L 53.433865,40.696905 L 52.001194,38.029779 z M 56.125009,38.029779 L 59.03541,38.029779 L 59.03541,38.528852 L 56.692672,42.317264 L 59.101489,42.317264 L 59.101489,42.868185 L 56.058933,42.868185 L 56.058933,42.369113 L 58.338595,38.580707 L 56.125009,38.580707 L 56.125009,38.029779 z M 60.681333,37.825608 L 61.954826,37.825608 L 61.954826,38.28904 L 61.233976,38.28904 L 61.233976,43.279762 L 61.954826,43.279762 L 61.954826,43.743182 L 60.681333,43.743182 L 60.681333,37.825608 z M 63.871064,38.029779 L 66.231817,43.483928 L 65.661149,43.483928 L 63.297387,38.029779 L 63.871064,38.029779 z M 69.004064,37.825608 L 69.004064,43.743182 L 67.730568,43.743182 L 67.730568,43.279762 L 68.451411,43.279762 L 68.451411,38.28904 L 67.730568,38.28904 L 67.730568,37.825608 L 69.004064,37.825608 z M 72.509153,38.029779 L 73.878752,39.834866 L 73.344134,39.834866 L 72.241843,38.554779 L 71.142563,39.834866 L 70.607929,39.834866 L 71.977538,38.029779 L 72.509153,38.029779 z M 77.167599,44.174201 L 77.167599,44.433462 L 74.092008,44.433462 L 74.092008,44.174201 L 77.167599,44.174201 z M 20.019825,45.85614 L 20.863811,47.074651 L 20.401271,47.074651 L 19.42513,45.85614 L 20.019825,45.85614 z M 24.395938,49.339922 L 24.212724,49.339922 C 23.890346,49.339922 23.647562,49.400958 23.484372,49.52303 C 23.32118,49.645091 23.239586,49.827112 23.239586,50.069093 C 23.239586,50.287297 23.300657,50.456891 23.4228,50.577886 C 23.544942,50.698871 23.714141,50.759364 23.930394,50.759364 C 24.234748,50.759364 24.474026,50.645396 24.648232,50.417469 C 24.822434,50.189533 24.910535,49.874644 24.912541,49.472792 L 24.912541,49.339922 L 24.395938,49.339922 z M 25.46819,49.093628 L 25.46819,51.164456 L 24.912541,51.164456 L 24.912541,50.626495 C 24.794402,50.842537 24.645728,51.001877 24.46652,51.104505 C 24.287309,51.207122 24.069554,51.258437 23.813258,51.258437 C 23.470856,51.258437 23.197537,51.154191 22.993299,50.945708 C 22.789059,50.737216 22.68694,50.457976 22.68694,50.107979 C 22.68694,49.703966 22.812586,49.397179 23.06388,49.187612 C 23.315174,48.978043 23.684104,48.873263 24.170674,48.873253 L 24.912541,48.873253 L 24.912541,48.779281 C 24.910535,48.489778 24.842457,48.279668 24.708303,48.148951 C 24.574144,48.018244 24.359894,47.952895 24.065552,47.952895 C 23.877331,47.952895 23.687109,47.982059 23.494884,48.040391 C 23.30266,48.098733 23.115441,48.184069 22.933229,48.296408 L 22.933229,47.700116 C 23.137466,47.615857 23.333196,47.55267 23.520415,47.510535 C 23.707632,47.46841 23.889345,47.447339 24.065552,47.447339 C 24.343875,47.447339 24.581653,47.491634 24.778886,47.580207 C 24.976113,47.668789 25.135799,47.801658 25.257945,47.978822 C 25.334031,48.086849 25.388094,48.22025 25.420134,48.379047 C 25.452168,48.537845 25.468187,48.776046 25.46819,49.093628 L 25.46819,49.093628 z M 28.745018,49.352892 C 28.745016,48.890545 28.676937,48.541625 28.540781,48.30613 C 28.404618,48.070644 28.203385,47.952895 27.937075,47.952895 C 27.668759,47.952895 27.465522,48.071186 27.327363,48.307748 C 27.1892,48.544328 27.12012,48.892707 27.120121,49.352892 C 27.12012,49.810915 27.1892,50.15875 27.327363,50.396398 C 27.465522,50.634056 27.668759,50.752879 27.937075,50.752879 C 28.203385,50.752879 28.404618,50.635132 28.540781,50.399645 C 28.676937,50.164149 28.745016,49.815229 28.745018,49.352892 L 28.745018,49.352892 z M 27.120121,47.998257 C 27.208222,47.821102 27.329866,47.684995 27.485049,47.589929 C 27.640228,47.494871 27.819937,47.447339 28.024176,47.447339 C 28.428646,47.447339 28.747018,47.615325 28.979292,47.951276 C 29.211561,48.287229 29.327697,48.750116 29.327699,49.339922 C 29.327697,49.938385 29.211061,50.407748 28.977791,50.748024 C 28.744515,51.088298 28.424643,51.258437 28.018169,51.258437 C 27.817934,51.258437 27.641227,51.211446 27.48805,51.117465 C 27.33487,51.023483 27.212228,50.886835 27.120121,50.707509 L 27.120121,51.164456 L 26.567475,51.164456 L 26.567475,46.12188 L 27.120121,46.12188 L 27.120121,47.998257 z M 32.874844,50.979739 C 32.72667,51.072636 32.57399,51.142306 32.416809,51.188764 C 32.259623,51.235212 32.098935,51.258437 31.934746,51.258437 C 31.414136,51.258437 31.007161,51.089917 30.71382,50.752879 C 30.420476,50.415851 30.273805,49.949182 30.273805,49.352892 C 30.273805,48.756591 30.420476,48.289934 30.71382,47.952895 C 31.007161,47.615857 31.414136,47.447339 31.934746,47.447339 C 32.096934,47.447339 32.255119,47.470028 32.409301,47.515392 C 32.563478,47.560764 32.718659,47.630987 32.874844,47.726045 L 32.874844,48.351501 C 32.728671,48.211072 32.581999,48.10953 32.43483,48.046876 C 32.287655,47.984221 32.120961,47.952895 31.934746,47.952895 C 31.588339,47.952895 31.322028,48.07388 31.135813,48.315851 C 30.949595,48.55783 30.856485,48.903506 30.856486,49.352892 C 30.856485,49.800108 30.950095,50.145248 31.137314,50.388304 C 31.324531,50.631351 31.590342,50.752879 31.934746,50.752879 C 32.126968,50.752879 32.29917,50.721019 32.451349,50.65728 C 32.603524,50.593549 32.744688,50.494704 32.874844,50.360758 L 32.874844,50.979739 z M 35.965456,47.998257 L 35.965456,46.12188 L 36.518101,46.12188 L 36.518101,51.164456 L 35.965456,51.164456 L 35.965456,50.707509 C 35.873345,50.886835 35.750701,51.023483 35.597524,51.117465 C 35.444345,51.211446 35.267638,51.258437 35.067406,51.258437 C 34.66093,51.258437 34.341057,51.088298 34.107784,50.748024 C 33.874511,50.407748 33.757876,49.938385 33.757876,49.339922 C 33.757876,48.750116 33.875013,48.287229 34.109287,47.951276 C 34.34356,47.615325 34.662932,47.447339 35.067406,47.447339 C 35.269641,47.447339 35.447848,47.494329 35.60203,47.58831 C 35.756209,47.682291 35.87735,47.818941 35.965456,47.998257 L 35.965456,47.998257 z M 34.340557,49.352892 C 34.340556,49.815229 34.408635,50.164149 34.544795,50.399645 C 34.680953,50.635132 34.882189,50.752879 35.1485,50.752879 C 35.41481,50.752879 35.617547,50.634056 35.756712,50.396398 C 35.895872,50.15875 35.965454,49.810915 35.965456,49.352892 C 35.965454,48.892707 35.895872,48.544328 35.756712,48.307748 C 35.617547,48.071186 35.41481,47.952895 35.1485,47.952895 C 34.882189,47.952895 34.680953,48.070644 34.544795,48.30613 C 34.408635,48.541625 34.340556,48.890545 34.340557,49.352892 L 34.340557,49.352892 z M 40.428671,49.200569 L 40.428671,49.492235 L 38.034872,49.492235 L 38.034872,49.511679 C 38.034872,49.907059 38.130484,50.212759 38.321708,50.428811 C 38.51293,50.644853 38.782746,50.752879 39.131154,50.752879 C 39.307359,50.752879 39.491573,50.722639 39.6838,50.662146 C 39.876021,50.601652 40.081261,50.509832 40.29952,50.386686 L 40.29952,50.979739 C 40.08927,51.072636 39.886534,51.142306 39.691308,51.188764 C 39.496078,51.235212 39.307359,51.258437 39.125146,51.258437 C 38.602537,51.258437 38.194058,51.089374 37.899715,50.751261 C 37.605371,50.413147 37.4582,49.947021 37.4582,49.352892 C 37.4582,48.773874 37.602366,48.311537 37.890706,47.965854 C 38.17904,47.62018 38.56349,47.447339 39.044052,47.447339 C 39.47255,47.447339 39.810446,47.603974 40.057737,47.917245 C 40.305023,48.230516 40.428666,48.658296 40.428671,49.200569 L 40.428671,49.200569 z M 39.876024,49.025577 C 39.868012,48.675579 39.791424,48.409299 39.646257,48.226735 C 39.501084,48.044171 39.29234,47.952895 39.020025,47.952895 C 38.753711,47.952895 38.534456,48.047952 38.362255,48.238076 C 38.190054,48.4282 38.087933,48.691786 38.055898,49.028814 L 39.876024,49.025577 z M 43.981821,46.12188 L 43.981821,46.617714 L 43.354088,46.617714 C 43.155854,46.617714 43.018192,46.661466 42.941106,46.748963 C 42.864014,46.836469 42.825468,46.991476 42.82547,47.214005 L 42.82547,47.534835 L 43.981821,47.534835 L 43.981821,47.998257 L 42.82547,47.998257 L 42.82547,51.164456 L 42.272825,51.164456 L 42.272825,47.998257 L 41.374776,47.998257 L 41.374776,47.534835 L 42.272825,47.534835 L 42.272825,47.282057 C 42.272823,46.884536 42.357421,46.591794 42.526621,46.403822 C 42.695818,46.215867 42.959624,46.121887 43.318046,46.12188 L 43.981821,46.12188 z M 47.066425,49.320479 C 47.066423,48.873263 46.998844,48.533522 46.863688,48.301274 C 46.728529,48.069024 46.5318,47.952895 46.2735,47.952895 C 46.003182,47.952895 45.796941,48.069024 45.654775,48.301274 C 45.51261,48.533522 45.441525,48.873263 45.441527,49.320479 C 45.441525,49.767704 45.51311,50.108522 45.656279,50.342932 C 45.799443,50.577343 46.007186,50.694549 46.279506,50.694549 C 46.533801,50.694549 46.728529,50.576802 46.863688,50.341305 C 46.998844,50.105818 47.066423,49.765543 47.066425,49.320479 L 47.066425,49.320479 z M 47.619069,50.931122 C 47.619067,51.475563 47.49993,51.888216 47.261654,52.169083 C 47.023373,52.449942 46.672965,52.59037 46.210425,52.59037 C 46.058246,52.59037 45.89906,52.575251 45.732868,52.545008 C 45.566674,52.514758 45.400479,52.470471 45.234286,52.412139 L 45.234286,51.822325 C 45.430513,51.921705 45.608722,51.995165 45.768911,52.042689 C 45.929095,52.090222 46.076268,52.113991 46.210425,52.113991 C 46.508772,52.113991 46.726027,52.026493 46.862186,51.851489 C 46.998342,51.676486 47.066423,51.398865 47.066425,51.018617 L 47.066425,50.992698 L 47.066425,50.587608 C 46.97832,50.790691 46.85818,50.941929 46.706005,51.041309 C 46.553825,51.140688 46.368608,51.190383 46.150355,51.190383 C 45.757894,51.190383 45.44453,51.020779 45.210257,50.681589 C 44.975983,50.342391 44.858846,49.88869 44.858846,49.320479 C 44.858846,48.750116 44.975983,48.295331 45.210257,47.956133 C 45.44453,47.616943 45.757894,47.447339 46.150355,47.447339 C 46.366606,47.447339 46.549821,47.493795 46.699998,47.586692 C 46.850171,47.679597 46.972312,47.823264 47.066425,48.0177 L 47.066425,47.547804 L 47.619069,47.547804 L 47.619069,50.931122 z M 51.346426,48.915389 L 51.346426,51.164456 L 50.790777,51.164456 L 50.790777,48.915389 C 50.790777,48.589159 50.737714,48.349348 50.631592,48.195951 C 50.525464,48.042554 50.35927,47.965854 50.133011,47.965854 C 49.874704,47.965854 49.675973,48.064701 49.536812,48.262386 C 49.397648,48.46007 49.328066,48.743633 49.328069,49.113072 L 49.328069,51.164456 L 48.775423,51.164456 L 48.775423,46.12188 L 49.328069,46.12188 L 49.328069,48.07928 C 49.426182,47.871882 49.559336,47.714704 49.727535,47.607754 C 49.895731,47.500814 50.094962,47.447339 50.325235,47.447339 C 50.667633,47.447339 50.923428,47.568866 51.09263,47.811923 C 51.261827,48.054979 51.346423,48.422799 51.346426,48.915389 L 51.346426,48.915389 z M 52.658961,47.534835 L 54.073614,47.534835 L 54.073614,50.701032 L 55.169892,50.701032 L 55.169892,51.164456 L 52.424685,51.164456 L 52.424685,50.701032 L 53.520968,50.701032 L 53.520968,47.998257 L 52.658961,47.998257 L 52.658961,47.534835 z M 53.520968,46.12188 L 54.073614,46.12188 L 54.073614,46.876967 L 53.520968,46.876967 L 53.520968,46.12188 z M 57.39249,51.22927 L 57.39249,47.998257 L 56.440379,47.998257 L 56.440379,47.534835 L 57.945138,47.534835 L 57.945138,51.22927 C 57.945135,51.650569 57.855528,51.97518 57.676322,52.203105 C 57.49711,52.431041 57.242314,52.545008 56.911929,52.545008 L 56.149039,52.545008 L 56.149039,52.039452 L 56.851859,52.039452 C 57.032066,52.039452 57.167225,51.971932 57.25733,51.836902 C 57.347436,51.701873 57.39249,51.49933 57.39249,51.22927 L 57.39249,51.22927 z M 57.39249,46.12188 L 57.945138,46.12188 L 57.945138,46.876967 L 57.39249,46.876967 L 57.39249,46.12188 z M 59.999536,46.12188 L 60.570205,46.12188 L 60.570205,49.041782 L 62.020902,47.534835 L 62.69368,47.534835 L 61.369136,48.902429 L 62.900929,51.164456 L 62.225136,51.164456 L 60.981688,49.291314 L 60.570205,49.709363 L 60.570205,51.164456 L 59.999536,51.164456 L 59.999536,46.12188 z M 64.910277,49.848717 C 64.910277,50.116625 64.955831,50.318623 65.046932,50.454738 C 65.138032,50.590845 65.27269,50.658898 65.450909,50.658898 L 66.096666,50.658898 L 66.096666,51.164456 L 65.396844,51.164456 C 65.066458,51.164456 64.810659,51.049945 64.629443,50.820942 C 64.448239,50.591931 64.357631,50.267853 64.357631,49.848717 L 64.357631,46.552898 L 63.47159,46.552898 L 63.47159,46.086228 L 64.910277,46.086228 L 64.910277,49.848717 z M 68.721729,47.904284 C 68.789808,47.748725 68.876407,47.633683 68.981533,47.559146 C 69.086653,47.484607 69.213298,47.447339 69.361474,47.447339 C 69.631788,47.447339 69.822506,47.56023 69.933647,47.785994 C 70.044774,48.011769 70.100339,48.436846 70.100345,49.061227 L 70.100345,51.164456 L 69.595744,51.164456 L 69.595744,49.087145 C 69.595744,48.575113 69.569211,48.256987 69.516152,48.132755 C 69.463085,48.008531 69.366482,47.94641 69.226312,47.94641 C 69.066135,47.94641 68.956506,48.012844 68.897432,48.145714 C 68.838359,48.278593 68.808828,48.592397 68.808835,49.087145 L 68.808835,51.164456 L 68.304241,51.164456 L 68.304241,49.087145 C 68.304233,48.568638 68.275702,48.248883 68.21864,48.127888 C 68.161572,48.006912 68.058956,47.94641 67.910779,47.94641 C 67.764608,47.94641 67.662991,48.012844 67.605922,48.145714 C 67.548853,48.278593 67.520322,48.592397 67.520322,49.087145 L 67.520322,51.164456 L 67.018744,51.164456 L 67.018744,47.534835 L 67.520322,47.534835 L 67.520322,47.845945 C 67.586395,47.716324 67.668992,47.617476 67.768111,47.549423 C 67.867229,47.48137 67.979863,47.447339 68.106015,47.447339 C 68.258187,47.447339 68.384832,47.485149 68.485949,47.560764 C 68.587068,47.636387 68.66566,47.750888 68.721729,47.904284 L 68.721729,47.904284 z M 73.548373,48.915389 L 73.548373,51.164456 L 72.992716,51.164456 L 72.992716,48.915389 C 72.992716,48.589159 72.939658,48.349348 72.833541,48.195951 C 72.727411,48.042554 72.561209,47.965854 72.334956,47.965854 C 72.076649,47.965854 71.877919,48.064701 71.738755,48.262386 C 71.599584,48.46007 71.530009,48.743633 71.530009,49.113072 L 71.530009,51.164456 L 70.97737,51.164456 L 70.97737,47.534835 L 71.530009,47.534835 L 71.530009,48.07928 C 71.628123,47.871882 71.761283,47.714704 71.929476,47.607754 C 72.097681,47.500814 72.296898,47.447339 72.527173,47.447339 C 72.869574,47.447339 73.125375,47.568866 73.294569,47.811923 C 73.46377,48.054979 73.548366,48.422799 73.548373,48.915389 L 73.548373,48.915389 z M 75.942172,47.952895 C 75.661846,47.952895 75.449586,48.070644 75.305425,48.30613 C 75.161258,48.541625 75.089177,48.890545 75.089177,49.352892 C 75.089177,49.813068 75.161258,50.161455 75.305425,50.398018 C 75.449586,50.634597 75.661846,50.752879 75.942172,50.752879 C 76.224496,50.752879 76.437745,50.634597 76.581913,50.398018 C 76.726087,50.161455 76.798167,49.813068 76.798167,49.352892 C 76.798167,48.890545 76.726087,48.541625 76.581913,48.30613 C 76.437745,48.070644 76.224496,47.952895 75.942172,47.952895 L 75.942172,47.952895 z M 75.942172,47.447339 C 76.408705,47.447339 76.765633,47.610458 77.012932,47.936689 C 77.26021,48.262929 77.383853,48.734997 77.383853,49.352892 C 77.383853,49.972949 77.260711,50.445551 77.014427,50.770704 C 76.768138,51.095858 76.410715,51.258437 75.942172,51.258437 C 75.475621,51.258437 75.119206,51.095858 74.872923,50.770704 C 74.626626,50.445551 74.503491,49.972949 74.503491,49.352892 C 74.503491,48.734997 74.626626,48.262929 74.872923,47.936689 C 75.119206,47.610458 75.475621,47.447339 75.942172,47.447339 L 75.942172,47.447339 z M 19.713466,59.003779 L 19.713466,60.84127 L 19.157819,60.84127 L 19.157819,55.831106 L 19.713466,55.831106 L 19.713466,56.294528 C 19.805573,56.115212 19.928217,55.978562 20.081397,55.884581 C 20.234574,55.7906 20.41128,55.743609 20.611515,55.743609 C 21.017988,55.743609 21.33686,55.913204 21.568135,56.252403 C 21.7994,56.591601 21.915038,57.061509 21.915039,57.662122 C 21.915038,58.251927 21.798901,58.714817 21.566633,59.05077 C 21.334358,59.386722 21.015986,59.554707 20.611515,59.554707 C 20.407274,59.554707 20.228567,59.507717 20.07539,59.413735 C 19.922209,59.319753 19.801568,59.183095 19.713466,59.003779 L 19.713466,59.003779 z M 21.335361,57.649154 C 21.33536,57.186808 21.26778,56.837895 21.132624,56.602401 C 20.997464,56.366904 20.79673,56.249165 20.530421,56.249156 C 20.262107,56.249165 20.058869,56.367446 19.920709,56.604018 C 19.782547,56.84059 19.713466,57.188969 19.713466,57.649154 C 19.713466,58.107176 19.782547,58.455011 19.920709,58.692669 C 20.058869,58.930327 20.262107,59.04915 20.530421,59.04915 C 20.79673,59.04915 20.997464,58.931402 21.132624,58.695906 C 21.26778,58.46042 21.33536,58.111499 21.335361,57.649154 L 21.335361,57.649154 z M 23.28464,57.662122 C 23.28464,58.124458 23.352217,58.47338 23.487376,58.708875 C 23.622533,58.944361 23.823268,59.06211 24.08958,59.06211 C 24.355889,59.06211 24.557624,58.94383 24.694787,58.707257 C 24.831945,58.470684 24.900526,58.122306 24.900528,57.662122 C 24.900526,57.201938 24.831945,56.853559 24.694787,56.616978 C 24.557624,56.380415 24.355889,56.262124 24.08958,56.262124 C 23.823268,56.262124 23.622533,56.379873 23.487376,56.61536 C 23.352217,56.850856 23.28464,57.199777 23.28464,57.662122 L 23.28464,57.662122 z M 24.900528,59.010263 C 24.81042,59.189579 24.688777,59.327314 24.535602,59.423456 C 24.38242,59.5196 24.204713,59.567666 24.002478,59.567666 C 23.600007,59.567666 23.282136,59.39969 23.048864,59.063728 C 22.815591,58.727776 22.698955,58.264897 22.698955,57.675081 C 22.698955,57.074468 22.815091,56.604562 23.047361,56.265363 C 23.279632,55.926172 23.598004,55.756569 24.002478,55.756569 C 24.202711,55.756569 24.379417,55.803558 24.532598,55.89754 C 24.685774,55.991522 24.808415,56.12817 24.900528,56.307497 L 24.900528,55.844065 L 25.456177,55.844065 L 25.456177,60.854237 L 24.900528,60.854237 L 24.900528,59.010263 z M 29.45685,56.579718 C 29.33871,56.480338 29.218568,56.407962 29.096429,56.362581 C 28.974284,56.317219 28.840126,56.294528 28.693959,56.294528 C 28.349555,56.294528 28.086248,56.4112 27.904037,56.644525 C 27.721823,56.87787 27.630715,57.214897 27.630716,57.655637 L 27.630716,59.460725 L 27.075068,59.460725 L 27.075068,55.831106 L 27.630716,55.831106 L 27.630716,56.540822 C 27.722823,56.28373 27.864489,56.086589 28.055712,55.949397 C 28.246936,55.812204 28.473699,55.743609 28.736008,55.743609 C 28.872163,55.743609 28.999313,55.761978 29.117454,55.798702 C 29.23559,55.835429 29.348721,55.892684 29.45685,55.97046 L 29.45685,56.579718 z M 32.610535,55.957499 L 32.610535,56.540822 C 32.452348,56.441441 32.293162,56.366904 32.132977,56.317219 C 31.972786,56.267524 31.809599,56.242681 31.643405,56.242681 C 31.393113,56.242681 31.206394,56.286434 31.083251,56.373931 C 30.960106,56.461428 30.898535,56.594839 30.898536,56.774157 C 30.898535,56.93619 30.944587,57.057185 31.036697,57.137121 C 31.128803,57.217057 31.358071,57.294843 31.724501,57.370457 L 31.94676,57.415819 C 32.221079,57.471998 32.428821,57.584337 32.569987,57.752856 C 32.71115,57.921375 32.781732,58.140665 32.781736,58.410726 C 32.781732,58.769367 32.663595,59.049693 32.427323,59.251691 C 32.191043,59.453698 31.86266,59.554707 31.442171,59.554707 C 31.275974,59.554707 31.101771,59.535796 30.91956,59.497995 C 30.737346,59.460183 30.540116,59.40347 30.327868,59.327856 L 30.327868,58.712113 C 30.534108,58.826623 30.731339,58.912501 30.91956,58.969756 C 31.107778,59.027003 31.285987,59.055635 31.454183,59.055635 C 31.698469,59.055635 31.887689,59.002159 32.021849,58.895218 C 32.156002,58.788269 32.223081,58.638661 32.223084,58.446375 C 32.223081,58.169829 31.977793,57.97863 31.487225,57.872766 L 31.463195,57.866282 L 31.255953,57.82091 C 30.93758,57.753942 30.705309,57.64106 30.559139,57.482253 C 30.412966,57.323466 30.339882,57.10687 30.339882,56.832488 C 30.339882,56.484652 30.44901,56.216219 30.667265,56.027171 C 30.885519,55.838133 31.196883,55.743609 31.601356,55.743609 C 31.781566,55.743609 31.954768,55.761434 32.120965,55.797075 C 32.287154,55.832724 32.450345,55.8862 32.610535,55.957499 L 32.610535,55.957499 z M 35.232601,54.800549 L 35.232601,55.831106 L 36.488065,55.831106 L 36.488065,56.294528 L 35.232601,56.294528 L 35.232601,58.264888 C 35.232597,58.532797 35.279654,58.719674 35.373764,58.825536 C 35.467873,58.931402 35.632064,58.984335 35.86634,58.984335 L 36.488065,58.984335 L 36.488065,59.460725 L 35.812277,59.460725 C 35.397789,59.460725 35.105449,59.371058 34.935253,59.191742 C 34.765052,59.012424 34.679952,58.703477 34.679954,58.264888 L 34.679954,56.294528 L 33.781905,56.294528 L 33.781905,55.831106 L 34.679954,55.831106 L 34.679954,54.800549 L 35.232601,54.800549 z M 37.674451,58.086657 L 37.674451,55.837581 L 38.227099,55.837581 L 38.227099,58.086657 C 38.227097,58.412888 38.28066,58.652705 38.387786,58.806094 C 38.49491,58.959493 38.660603,59.036182 38.884867,59.036182 C 39.145169,59.036182 39.344401,58.937344 39.482564,58.739659 C 39.620724,58.541975 39.689806,58.258412 39.689807,57.888972 L 39.689807,55.837581 L 40.245456,55.837581 L 40.245456,59.460725 L 39.689807,59.460725 L 39.689807,58.916282 C 39.591692,59.125848 39.458035,59.284647 39.288839,59.392663 C 39.119638,59.500689 38.921908,59.554707 38.695646,59.554707 C 38.351243,59.554707 38.094943,59.433179 37.926746,59.190123 C 37.758549,58.947065 37.674451,58.579244 37.674451,58.086657 L 37.674451,58.086657 z M 41.089443,55.831106 L 41.663112,55.831106 L 42.639253,58.877394 L 43.618397,55.831106 L 44.192067,55.831106 L 42.996671,59.460725 L 42.284839,59.460725 L 41.089443,55.831106 z M 44.489414,55.831106 L 45.036054,55.831106 L 45.621737,58.763969 L 46.1023,56.890827 L 46.573849,56.890827 L 47.060419,58.763969 L 47.646103,55.831106 L 48.19274,55.831106 L 47.405822,59.460725 L 46.877203,59.460725 L 46.339575,57.470912 L 45.804952,59.460725 L 45.276334,59.460725 L 44.489414,55.831106 z M 51.547662,55.831106 L 50.343253,57.568132 L 51.664798,59.460725 L 51.025052,59.460725 L 50.039901,58.005633 L 49.057751,59.460725 L 48.418007,59.460725 L 49.739549,57.568132 L 48.535142,55.831106 L 49.147857,55.831106 L 50.039901,57.143606 L 50.925934,55.831106 L 51.547662,55.831106 z M 54.467073,58.294064 C 54.374963,58.54684 54.257825,58.879555 54.115663,59.292207 C 53.917427,59.862569 53.784273,60.210404 53.716197,60.335722 C 53.624085,60.504232 53.508952,60.630625 53.37079,60.714885 C 53.232629,60.799145 53.071442,60.84127 52.887226,60.84127 L 52.442709,60.84127 L 52.442709,60.342197 L 52.77009,60.342197 C 52.932278,60.342197 53.059426,60.291426 53.151534,60.189885 C 53.243642,60.088343 53.360778,59.825844 53.502947,59.402385 L 52.202426,55.831106 L 52.78811,55.831106 L 53.785277,58.669988 L 54.767423,55.831106 L 55.353109,55.831106 L 54.467073,58.294064 z M 56.272182,55.824623 L 58.714036,55.824623 L 58.714036,56.369066 L 56.78278,58.974614 L 58.714036,58.974614 L 58.714036,59.460725 L 56.200097,59.460725 L 56.200097,58.909798 L 58.131354,56.301012 L 56.272182,56.301012 L 56.272182,55.824623 z M 62.33026,60.076459 L 62.33026,60.543129 L 62.138032,60.543129 C 61.639454,60.543129 61.30556,60.463183 61.136364,60.30331 C 60.967169,60.143437 60.882571,59.824757 60.882571,59.347291 L 60.882571,58.57276 C 60.882571,58.246529 60.829005,58.020756 60.721881,57.895447 C 60.614754,57.770138 60.421028,57.707484 60.140702,57.707484 L 59.954484,57.707484 L 59.954484,57.244062 L 60.140702,57.244062 C 60.423032,57.244062 60.617258,57.182494 60.723384,57.059338 C 60.829508,56.93619 60.882571,56.712588 60.882571,56.388509 L 60.882571,55.61073 C 60.882571,55.133273 60.967169,54.815136 61.136364,54.65634 C 61.30556,54.497553 61.639454,54.418149 62.138032,54.418149 L 62.33026,54.418149 L 62.33026,54.881571 L 62.120015,54.881571 C 61.839688,54.881571 61.656974,54.928572 61.571876,55.022542 C 61.486775,55.116526 61.444221,55.316914 61.444221,55.623699 L 61.444221,56.427397 C 61.444221,56.766597 61.398668,57.012899 61.307563,57.166289 C 61.216458,57.319685 61.060775,57.423389 60.84052,57.477397 C 61.062778,57.535728 61.218958,57.641594 61.309069,57.79499 C 61.399166,57.948379 61.444221,58.193597 61.444221,58.530635 L 61.444221,59.334331 C 61.444221,59.643279 61.486775,59.844212 61.571876,59.937107 C 61.656974,60.030013 61.839688,60.076459 62.120015,60.076459 L 62.33026,60.076459 z M 65.099493,54.388983 L 65.099493,61.025994 L 64.582889,61.025994 L 64.582889,54.388983 L 65.099493,54.388983 z M 67.35513,60.076459 L 67.55937,60.076459 C 67.841703,60.076459 68.025916,60.028927 68.112022,59.933869 C 68.198115,59.838803 68.241164,59.638966 68.241164,59.334331 L 68.241164,58.530635 C 68.241164,58.193597 68.286218,57.948379 68.37632,57.79499 C 68.466423,57.641594 68.622611,57.535728 68.844872,57.477397 C 68.624615,57.423389 68.468922,57.319685 68.377826,57.166289 C 68.286718,57.012899 68.241164,56.766597 68.241164,56.427397 L 68.241164,55.623699 C 68.241164,55.319075 68.198115,55.119229 68.112022,55.024162 C 68.025916,54.929104 67.841703,54.881571 67.55937,54.881571 L 67.35513,54.881571 L 67.35513,54.418149 L 67.541342,54.418149 C 68.039935,54.418149 68.373318,54.497553 68.541513,54.65634 C 68.709715,54.815136 68.793811,55.133273 68.793817,55.61073 L 68.793817,56.388509 C 68.793811,56.712588 68.847376,56.93619 68.9545,57.059338 C 69.061624,57.182494 69.256347,57.244062 69.538676,57.244062 L 69.730906,57.244062 L 69.730906,57.707484 L 69.538676,57.707484 C 69.256347,57.707484 69.061624,57.770138 68.9545,57.895447 C 68.847376,58.020756 68.793811,58.246529 68.793817,58.57276 L 68.793817,59.347291 C 68.793811,59.824757 68.709715,60.143437 68.541513,60.30331 C 68.373318,60.463183 68.039935,60.543129 67.541342,60.543129 L 67.35513,60.543129 L 67.35513,60.076459 z M 73.83071,56.932953 L 73.83071,57.496841 C 73.680518,57.62431 73.533853,57.717749 73.390681,57.777165 C 73.247515,57.836584 73.096842,57.866282 72.938662,57.866282 C 72.758448,57.866282 72.555204,57.811187 72.328938,57.701009 C 72.284883,57.679404 72.251855,57.664274 72.229834,57.655637 C 72.075647,57.584337 71.947001,57.535728 71.843877,57.5098 C 71.740758,57.48388 71.638135,57.470912 71.536013,57.470912 C 71.377825,57.470912 71.228162,57.502783 71.086999,57.566511 C 70.945829,57.630252 70.802159,57.730176 70.655988,57.866282 L 70.655988,57.302394 C 70.812168,57.172772 70.963352,57.078791 71.109523,57.020449 C 71.255685,56.962118 71.41187,56.932953 71.578063,56.932953 C 71.684194,56.932953 71.787311,56.944836 71.887424,56.968603 C 71.987543,56.992369 72.111695,57.037741 72.259863,57.10471 C 72.283888,57.115517 72.316929,57.131722 72.358981,57.153318 C 72.591252,57.272152 72.800499,57.331568 72.986718,57.331559 C 73.126878,57.331568 73.265535,57.298622 73.402696,57.232721 C 73.539851,57.16683 73.682521,57.066908 73.83071,56.932953 L 73.83071,56.932953 z "
       id="use1878" />
  </g>
</svg>
