<?xml version="1.0" encoding="UTF-8" standalone="no"?>
<!-- Created with Inkscape (http://www.inkscape.org/) -->
<svg
   xmlns:dc="http://purl.org/dc/elements/1.1/"
   xmlns:cc="http://web.resource.org/cc/"
   xmlns:rdf="http://www.w3.org/1999/02/22-rdf-syntax-ns#"
   xmlns:svg="http://www.w3.org/2000/svg"
   xmlns="http://www.w3.org/2000/svg"
   xmlns:xlink="http://www.w3.org/1999/xlink"
   xmlns:sodipodi="http://sodipodi.sourceforge.net/DTD/sodipodi-0.dtd"
   xmlns:inkscape="http://www.inkscape.org/namespaces/inkscape"
   width="88"
   height="88"
   id="svg2606"
   sodipodi:version="0.32"
   inkscape:version="0.45.1"
   version="1.0"
   sodipodi:docname="application-x-kgetlist.svg"
   inkscape:output_extension="org.inkscape.output.svg.inkscape"
   sodipodi:docbase="/home/david/Projects/Oxygen/oxygen/scalable/mimetypes/small/22x22"
   inkscape:export-filename="/home/david/Desktop/application-x-kget-list.png"
   inkscape:export-xdpi="22.5"
   inkscape:export-ydpi="22.5">
  <defs
     id="defs2608">
    <linearGradient
       id="linearGradient10207">
      <stop
         style="stop-color:#a2a2a2;stop-opacity:1;"
         offset="0"
         id="stop10209" />
      <stop
         style="stop-color:#ffffff;stop-opacity:1;"
         offset="1"
         id="stop10211" />
    </linearGradient>
    <linearGradient
       id="XMLID_12_"
       gradientUnits="userSpaceOnUse"
       x1="96"
       y1="104"
       x2="88.000198"
       y2="96.000198">
      <stop
         offset="0"
         style="stop-color:#888A85"
         id="stop83" />
      <stop
         offset="0.0072"
         style="stop-color:#8C8E89"
         id="stop85" />
      <stop
         offset="0.0673"
         style="stop-color:#ABACA9"
         id="stop87" />
      <stop
         offset="0.1347"
         style="stop-color:#C5C6C4"
         id="stop89" />
      <stop
         offset="0.2652576"
         style="stop-color:#DBDBDA"
         id="stop91" />
      <stop
         offset="0.37646064"
         style="stop-color:#EBEBEB"
         id="stop93" />
      <stop
         offset="0.48740286"
         style="stop-color:#F7F7F6"
         id="stop95" />
      <stop
         offset="0.6324091"
         style="stop-color:#FDFDFD"
         id="stop97" />
      <stop
         offset="1"
         style="stop-color:#FFFFFF"
         id="stop99" />
    </linearGradient>
    <radialGradient
       id="XMLID_8_"
       cx="102"
       cy="112.3047"
       r="139.55859"
       gradientUnits="userSpaceOnUse">
      <stop
         offset="0"
         style="stop-color:#b7b8b9;stop-opacity:1;"
         id="stop41" />
      <stop
         offset="0.18851049"
         style="stop-color:#ECECEC"
         id="stop47" />
      <stop
         offset="0.25718147"
         style="stop-color:#FAFAFA"
         id="stop49" />
      <stop
         offset="0.30111277"
         style="stop-color:#FFFFFF"
         id="stop51" />
      <stop
         offset="0.5313"
         style="stop-color:#FAFAFA"
         id="stop53" />
      <stop
         offset="0.8449"
         style="stop-color:#EBECEC"
         id="stop55" />
      <stop
         offset="1"
         style="stop-color:#E1E2E3"
         id="stop57" />
    </radialGradient>
    <filter
       inkscape:collect="always"
       x="-0.19200002"
       width="1.3839999"
       y="-0.19199999"
       height="1.3839999"
       id="filter6697">
      <feGaussianBlur
         inkscape:collect="always"
         stdDeviation="1.9447689"
         id="feGaussianBlur6699" />
    </filter>
    <clipPath
       clipPathUnits="userSpaceOnUse"
       id="clipPath7084">
      <path
         style="fill:#000000;fill-opacity:1;fill-rule:evenodd;stroke:none;stroke-width:1px;stroke-linecap:butt;stroke-linejoin:miter;stroke-opacity:1"
         d="M 72,88 L 40,120 L 32,120 L 32,80 L 72,80 L 72,88 z "
         id="path7086" />
    </clipPath>
    <radialGradient
       inkscape:collect="always"
       xlink:href="#XMLID_8_"
       id="radialGradient9437"
       gradientUnits="userSpaceOnUse"
       gradientTransform="matrix(0.6351383,0,0,0.6434884,7.5309699,1.1646966)"
       cx="102"
       cy="112.3047"
       r="139.55859" />
    <linearGradient
       inkscape:collect="always"
       xlink:href="#linearGradient10207"
       id="linearGradient10213"
       x1="98.617439"
       y1="106.41443"
       x2="91.228737"
       y2="99.254974"
       gradientUnits="userSpaceOnUse"
       gradientTransform="matrix(0.670413,0,0,0.6744031,5.2733923,-0.8863014)" />
    <linearGradient
       y2="677.06049"
       x2="538.77338"
       y1="675.48541"
       x1="538.77338"
       gradientTransform="matrix(0.6024737,0,0,0.6890756,-188.17076,-522.43699)"
       gradientUnits="userSpaceOnUse"
       id="linearGradient9628"
       xlink:href="#XMLID_16_"
       inkscape:collect="always" />
    <radialGradient
       r="126.0234"
       fy="651.10352"
       fx="538.77338"
       cy="651.10352"
       cx="538.77338"
       gradientTransform="matrix(0.6015648,0,0,0.7971009,-187.68106,-594.06594)"
       gradientUnits="userSpaceOnUse"
       id="radialGradient9626"
       xlink:href="#XMLID_15_"
       inkscape:collect="always" />
    <linearGradient
       y2="789.12207"
       x2="538.77338"
       y1="677.87701"
       x1="538.77338"
       gradientTransform="matrix(0.6024737,0,0,0.6890756,-188.17074,-522.43699)"
       gradientUnits="userSpaceOnUse"
       id="linearGradient9624"
       xlink:href="#XMLID_14_"
       inkscape:collect="always" />
    <radialGradient
       r="121.5466"
       cy="792.99609"
       cx="538.77252"
       gradientTransform="matrix(0.6024737,0,0,0.6890756,-188.17076,-522.43699)"
       gradientUnits="userSpaceOnUse"
       id="radialGradient9622"
       xlink:href="#XMLID_13_"
       inkscape:collect="always" />
    <linearGradient
       y2="736.62341"
       x2="497.81451"
       y1="732.4082"
       x1="497.81451"
       gradientTransform="translate(-484,-674)"
       gradientUnits="userSpaceOnUse"
       id="linearGradient9620"
       xlink:href="#XMLID_12_"
       inkscape:collect="always" />
    <linearGradient
       y2="736.55688"
       x2="579.72852"
       y1="732.41022"
       x1="579.72852"
       gradientTransform="translate(-484,-674)"
       gradientUnits="userSpaceOnUse"
       id="linearGradient9618"
       xlink:href="#XMLID_11_"
       inkscape:collect="always" />
    <linearGradient
       y2="678.3681"
       x2="538.77338"
       y1="674"
       x1="538.77338"
       gradientTransform="translate(-484,-674)"
       gradientUnits="userSpaceOnUse"
       id="linearGradient9616"
       xlink:href="#XMLID_10_"
       inkscape:collect="always" />
    <linearGradient
       y2="674"
       x2="538.77338"
       y1="793"
       x1="538.77338"
       gradientTransform="matrix(0.6024737,0,0,0.6890756,-188.17076,-522.43699)"
       gradientUnits="userSpaceOnUse"
       id="linearGradient9614"
       xlink:href="#XMLID_9_"
       inkscape:collect="always" />
    <linearGradient
       gradientUnits="userSpaceOnUse"
       y2="99.254974"
       x2="91.228737"
       y1="106.41443"
       x1="98.617439"
       id="linearGradient2450"
       xlink:href="#linearGradient10207"
       inkscape:collect="always" />
    <radialGradient
       r="139.55859"
       cy="112.3047"
       cx="102"
       gradientTransform="matrix(1,0,0,0.9996653,2e-6,3.0160848e-3)"
       gradientUnits="userSpaceOnUse"
       id="radialGradient2448"
       xlink:href="#XMLID_8_"
       inkscape:collect="always" />
    <clipPath
       id="clipPath2444"
       clipPathUnits="userSpaceOnUse">
      <path
         id="path2446"
         d="M 72,88 L 40,120 L 32,120 L 32,80 L 72,80 L 72,88 z"
         style="fill:#000000;fill-opacity:1;fill-rule:evenodd;stroke:none;stroke-width:1px;stroke-linecap:butt;stroke-linejoin:miter;stroke-opacity:1" />
    </clipPath>
    <radialGradient
       gradientUnits="userSpaceOnUse"
       r="139.55859"
       cy="112.3047"
       cx="102"
       id="radialGradient2424">
      <stop
         id="stop2426"
         style="stop-color:#b7b8b9;stop-opacity:1;"
         offset="0" />
      <stop
         id="stop2428"
         style="stop-color:#ECECEC"
         offset="0.18851049" />
      <stop
         id="stop2430"
         style="stop-color:#FAFAFA"
         offset="0.25718147" />
      <stop
         id="stop2432"
         style="stop-color:#FFFFFF"
         offset="0.30111277" />
      <stop
         id="stop2434"
         style="stop-color:#FAFAFA"
         offset="0.5313" />
      <stop
         id="stop2436"
         style="stop-color:#EBECEC"
         offset="0.8449" />
      <stop
         id="stop2438"
         style="stop-color:#E1E2E3"
         offset="1" />
    </radialGradient>
    <linearGradient
       y2="96.000198"
       x2="88.000198"
       y1="104"
       x1="96"
       gradientUnits="userSpaceOnUse"
       id="linearGradient2404">
      <stop
         id="stop2406"
         style="stop-color:#888A85"
         offset="0" />
      <stop
         id="stop2408"
         style="stop-color:#8C8E89"
         offset="0.0072" />
      <stop
         id="stop2410"
         style="stop-color:#ABACA9"
         offset="0.0673" />
      <stop
         id="stop2412"
         style="stop-color:#C5C6C4"
         offset="0.1347" />
      <stop
         id="stop2414"
         style="stop-color:#DBDBDA"
         offset="0.2652576" />
      <stop
         id="stop2416"
         style="stop-color:#EBEBEB"
         offset="0.37646064" />
      <stop
         id="stop2418"
         style="stop-color:#F7F7F6"
         offset="0.48740286" />
      <stop
         id="stop2420"
         style="stop-color:#FDFDFD"
         offset="0.6324091" />
      <stop
         id="stop2422"
         style="stop-color:#FFFFFF"
         offset="1" />
    </linearGradient>
    <linearGradient
       id="linearGradient2398">
      <stop
         id="stop2400"
         offset="0"
         style="stop-color:#a2a2a2;stop-opacity:1;" />
      <stop
         id="stop2402"
         offset="1"
         style="stop-color:#ffffff;stop-opacity:1;" />
    </linearGradient>
    <linearGradient
       gradientTransform="translate(-484,-674)"
       y2="677.06049"
       x2="538.77338"
       y1="675.48541"
       x1="538.77338"
       gradientUnits="userSpaceOnUse"
       id="XMLID_16_">
      <stop
         id="stop146"
         style="stop-color:#FFFFFF"
         offset="0" />
      <stop
         id="stop148"
         style="stop-color:#00BF00"
         offset="1" />
    </linearGradient>
    <radialGradient
       gradientUnits="userSpaceOnUse"
       gradientTransform="translate(-484,-674)"
       r="126.0234"
       cy="651.10352"
       cx="538.77338"
       id="XMLID_15_">
      <stop
         id="stop137"
         style="stop-color:#CCEAAC"
         offset="0" />
      <stop
         id="stop139"
         style="stop-color:#3BA42A"
         offset="0.5393" />
      <stop
         id="stop141"
         style="stop-color:#91E851"
         offset="1" />
    </radialGradient>
    <linearGradient
       gradientTransform="translate(-484,-674)"
       y2="789.12207"
       x2="538.77338"
       y1="677.87701"
       x1="538.77338"
       gradientUnits="userSpaceOnUse"
       id="XMLID_14_">
      <stop
         id="stop122"
         style="stop-color:#1E7D27"
         offset="0.0056" />
      <stop
         id="stop124"
         style="stop-color:#3BA42A"
         offset="0.1348" />
      <stop
         id="stop126"
         style="stop-color:#B8E57F"
         offset="0.4831" />
      <stop
         id="stop128"
         style="stop-color:#A9E66E"
         offset="0.6299" />
      <stop
         id="stop130"
         style="stop-color:#97E859"
         offset="0.8528" />
      <stop
         id="stop132"
         style="stop-color:#91E851"
         offset="1" />
    </linearGradient>
    <radialGradient
       gradientUnits="userSpaceOnUse"
       gradientTransform="translate(-484,-674)"
       r="121.5466"
       cy="792.99609"
       cx="538.77252"
       id="XMLID_13_">
      <stop
         id="stop9505"
         style="stop-color:#FFFAB3"
         offset="0" />
      <stop
         id="stop9507"
         style="stop-color:#DFEE9F"
         offset="0.0494" />
      <stop
         id="stop9509"
         style="stop-color:#C3E48D"
         offset="0.1049" />
      <stop
         id="stop9511"
         style="stop-color:#AEDC80"
         offset="0.1605" />
      <stop
         id="stop9513"
         style="stop-color:#A2D879"
         offset="0.2156" />
      <stop
         id="stop9515"
         style="stop-color:#9ED676"
         offset="0.2697" />
      <stop
         id="stop9517"
         style="stop-color:#3BA42A"
         offset="0.3989" />
      <stop
         id="stop9519"
         style="stop-color:#3BA42A"
         offset="0.3995" />
      <stop
         id="stop9521"
         style="stop-color:#258426"
         offset="0.4484" />
      <stop
         id="stop101"
         style="stop-color:#166D24"
         offset="0.4956" />
      <stop
         id="stop103"
         style="stop-color:#0C5F23"
         offset="0.54" />
      <stop
         id="stop105"
         style="stop-color:#095A22"
         offset="0.5787" />
      <stop
         id="stop107"
         style="stop-color:#166727"
         offset="0.5948" />
      <stop
         id="stop109"
         style="stop-color:#388B33"
         offset="0.6456" />
      <stop
         id="stop111"
         style="stop-color:#51A53C"
         offset="0.6932" />
      <stop
         id="stop113"
         style="stop-color:#61B542"
         offset="0.7359" />
      <stop
         id="stop115"
         style="stop-color:#66BA44"
         offset="0.7697" />
      <stop
         id="stop117"
         style="stop-color:#095A22"
         offset="1" />
    </radialGradient>
    <linearGradient
       gradientTransform="translate(-484,-674)"
       y2="678.3681"
       x2="538.77338"
       y1="674"
       x1="538.77338"
       gradientUnits="userSpaceOnUse"
       id="XMLID_10_">
      <stop
         id="stop54"
         style="stop-color:#094422"
         offset="0" />
      <stop
         id="stop56"
         style="stop-color:#9ED676"
         offset="1" />
    </linearGradient>
    <linearGradient
       gradientTransform="translate(-484,-674)"
       y2="736.55688"
       x2="579.72852"
       y1="732.41022"
       x1="579.72852"
       gradientUnits="userSpaceOnUse"
       id="XMLID_11_">
      <stop
         id="stop61"
         style="stop-color:#094422"
         offset="0" />
      <stop
         id="stop63"
         style="stop-color:#9ED676"
         offset="1" />
    </linearGradient>
    <linearGradient
       gradientTransform="translate(-484,-674)"
       y2="674"
       x2="538.77338"
       y1="793"
       x1="538.77338"
       gradientUnits="userSpaceOnUse"
       id="XMLID_9_">
      <stop
         id="stop7"
         style="stop-color:#094422"
         offset="0" />
      <stop
         id="stop9"
         style="stop-color:#095A22"
         offset="0.1124" />
      <stop
         id="stop11"
         style="stop-color:#1E7D27"
         offset="0.4045" />
      <stop
         id="stop13"
         style="stop-color:#217F29"
         offset="0.4231" />
      <stop
         id="stop15"
         style="stop-color:#2A8531"
         offset="0.4369" />
      <stop
         id="stop17"
         style="stop-color:#3A8F3D"
         offset="0.4491" />
      <stop
         id="stop19"
         style="stop-color:#519D4E"
         offset="0.4605" />
      <stop
         id="stop21"
         style="stop-color:#6EAF64"
         offset="0.4712" />
      <stop
         id="stop23"
         style="stop-color:#92C680"
         offset="0.4814" />
      <stop
         id="stop25"
         style="stop-color:#BCE0A0"
         offset="0.4911" />
      <stop
         id="stop27"
         style="stop-color:#CCEAAC"
         offset="0.4944" />
      <stop
         id="stop29"
         style="stop-color:#A4CD90"
         offset="0.5124" />
      <stop
         id="stop31"
         style="stop-color:#80B276"
         offset="0.5326" />
      <stop
         id="stop33"
         style="stop-color:#609A5F"
         offset="0.5552" />
      <stop
         id="stop35"
         style="stop-color:#44864C"
         offset="0.5803" />
      <stop
         id="stop37"
         style="stop-color:#2E763C"
         offset="0.6086" />
      <stop
         id="stop39"
         style="stop-color:#1D6931"
         offset="0.6416" />
      <stop
         id="stop9560"
         style="stop-color:#126028"
         offset="0.6825" />
      <stop
         id="stop43"
         style="stop-color:#0B5B23"
         offset="0.7398" />
      <stop
         id="stop45"
         style="stop-color:#095A22"
         offset="0.8989" />
      <stop
         id="stop9564"
         style="stop-color:#9ED676"
         offset="1" />
    </linearGradient>
    <radialGradient
       r="61.056499"
       fy="76.883453"
       fx="61.056499"
       cy="76.883453"
       cx="61.056499"
       gradientTransform="matrix(0.3930786,0,0,6.5513144e-2,40,98.96312)"
       gradientUnits="userSpaceOnUse"
       id="radialGradient4545"
       xlink:href="#linearGradient3291"
       inkscape:collect="always" />
    <linearGradient
       id="linearGradient3291">
      <stop
         id="stop3293"
         offset="0"
         style="stop-color:black;stop-opacity:1" />
      <stop
         id="stop3295"
         offset="1"
         style="stop-color:black;stop-opacity:0" />
    </linearGradient>
    <radialGradient
       inkscape:collect="always"
       xlink:href="#XMLID_8_"
       id="radialGradient2506"
       gradientUnits="userSpaceOnUse"
       gradientTransform="matrix(0.6351383,0,0,0.6434884,7.5309699,1.1646966)"
       cx="102"
       cy="112.3047"
       r="139.55859" />
    <linearGradient
       inkscape:collect="always"
       xlink:href="#linearGradient10207"
       id="linearGradient2508"
       gradientUnits="userSpaceOnUse"
       gradientTransform="matrix(0.670413,0,0,0.6744031,5.2733923,-0.8863014)"
       x1="98.617439"
       y1="106.41443"
       x2="91.228737"
       y2="99.254974" />
    <radialGradient
       inkscape:collect="always"
       xlink:href="#linearGradient3291"
       id="radialGradient2535"
       gradientUnits="userSpaceOnUse"
       gradientTransform="matrix(0.3930786,0,0,6.5513144e-2,-96,-55.03688)"
       cx="61.056499"
       cy="76.883453"
       fx="61.056499"
       fy="76.883453"
       r="61.056499" />
    <linearGradient
       inkscape:collect="always"
       xlink:href="#linearGradient10207"
       id="linearGradient2538"
       gradientUnits="userSpaceOnUse"
       gradientTransform="matrix(0.670413,0,0,0.6744031,-130.72661,-154.8863)"
       x1="98.617439"
       y1="106.41443"
       x2="91.228737"
       y2="99.254974" />
    <radialGradient
       inkscape:collect="always"
       xlink:href="#XMLID_8_"
       id="radialGradient2542"
       gradientUnits="userSpaceOnUse"
       gradientTransform="matrix(0.6351383,0,0,0.6434884,-128.46903,-152.8353)"
       cx="102"
       cy="112.3047"
       r="139.55859" />
  </defs>
  <sodipodi:namedview
     id="base"
     pagecolor="#ffffff"
     bordercolor="#666666"
     borderopacity="1.0"
     inkscape:pageopacity="0.0"
     inkscape:pageshadow="2"
     inkscape:zoom="1"
     inkscape:cx="44"
     inkscape:cy="44"
     inkscape:document-units="px"
     inkscape:current-layer="layer1"
     width="88px"
     height="88px"
     gridspacingx="4px"
     gridspacingy="4px"
     gridempspacing="2"
     showgrid="true"
     inkscape:grid-points="true"
     showguides="true"
     inkscape:guide-bbox="true"
     inkscape:window-width="743"
     inkscape:window-height="741"
     inkscape:window-x="0"
     inkscape:window-y="0"
     showborder="true" />
  <metadata
     id="metadata2611">
    <rdf:RDF>
      <cc:Work
         rdf:about="">
        <dc:format>image/svg+xml</dc:format>
        <dc:type
           rdf:resource="http://purl.org/dc/dcmitype/StillImage" />
      </cc:Work>
    </rdf:RDF>
  </metadata>
  <g
     inkscape:label="Livello 1"
     inkscape:groupmode="layer"
     id="layer1">
    <path
       style="opacity:0.1;fill:none;fill-opacity:1;stroke:#000000;stroke-width:8;stroke-linejoin:round;stroke-miterlimit:4;stroke-dasharray:none;stroke-opacity:1"
       d="M 16,8 L 16,80.04207 C 16,80.04207 58.33418,80.04207 58.33418,80.04207 L 80.359648,57.885514 L 80.359647,8 L 16,8 z "
       id="path3176"
       sodipodi:nodetypes="cccccc" />
    <path
       sodipodi:nodetypes="cccccc"
       id="path3174"
       d="M 16,8 L 16,80.04207 C 16,80.04207 58.33418,80.04207 58.33418,80.04207 L 80.359648,57.885514 L 80.359647,8 L 16,8 z "
       style="opacity:0.15;fill:none;fill-opacity:1;stroke:#000000;stroke-width:6;stroke-linejoin:round;stroke-miterlimit:4;stroke-dasharray:none;stroke-opacity:1" />
    <path
       style="opacity:0.2;fill:none;fill-opacity:1;stroke:#000000;stroke-width:4;stroke-linejoin:round;stroke-miterlimit:4;stroke-dasharray:none;stroke-opacity:1"
       d="M 16,8 L 16,80.04207 C 16,80.04207 58.33418,80.04207 58.33418,80.04207 L 80.359648,57.885514 L 80.359647,8 L 16,8 z "
       id="path3172"
       sodipodi:nodetypes="cccccc" />
    <path
       sodipodi:nodetypes="cccccc"
       id="path2789"
       d="M 16,8 L 16,80.04207 C 16,80.04207 58.33418,80.04207 58.33418,80.04207 L 80.359648,57.885514 L 80.359647,8 L 16,8 z "
       style="opacity:0.25;fill:none;fill-opacity:1;stroke:#000000;stroke-width:2;stroke-linejoin:round;stroke-miterlimit:4;stroke-dasharray:none;stroke-opacity:1" />
    <path
       style="fill:#ffffff;fill-opacity:1"
       d="M 16,8 L 16,80.042074 C 16,80.042074 58.334178,80.042074 58.334178,80.042074 L 80.359645,57.885517 L 80.359644,8 L 16,8 z "
       id="path34"
       sodipodi:nodetypes="cccccc" />
    <path
       style="fill:url(#radialGradient9437);fill-opacity:1"
       d="M 18.963459,10.867203 C 18.613498,10.867203 18.328322,11.15613 18.328322,11.510691 L 18.328322,77.096323 C 18.328322,77.451527 18.613498,77.739807 18.963459,77.739807 L 56.545864,77.739807 C 56.712905,77.739807 59.881864,77.815849 60,77.695521 C 60,77.695521 72.936722,65.425863 77.845227,60 C 77.95865,59.874622 78.031324,56.141124 78.031324,55.971887 L 78.031324,11.510691 C 78.031324,11.15613 77.746784,10.867203 77.396186,10.867203 L 18.963459,10.867203 z "
       id="path59"
       sodipodi:nodetypes="ccccccscccc" />
    <path
       d="M 41.879531,115.98249 C 41.879531,115.98249 66.18914,91.672876 66.18914,91.672876 C 66.18914,91.672876 56.836,94.586 46.586,94.586 C 46.586,104.836 41.879531,115.98249 41.879531,115.98249 z "
       id="path5540"
       style="opacity:0.4;fill:#000000;fill-opacity:1;filter:url(#filter6697)"
       sodipodi:nodetypes="cccc"
       clip-path="url(#clipPath7084)"
       transform="matrix(0.670413,0,0,0.6744031,32.089911,-0.8863014)" />
    <path
       style="fill:url(#linearGradient10213);fill-opacity:1"
       id="path14523"
       d="M 58.351328,80.042074 C 58.351328,80.042074 66.338628,73.356041 70.0259,69.646824 C 73.713171,65.937607 80.359645,57.902768 80.359645,57.902768 C 80.359645,57.902768 71.141467,63.856399 64.269734,63.856399 C 64.269734,70.769031 58.351328,80.042074 58.351328,80.042074 z "
       sodipodi:nodetypes="csccc" />
    <g
       id="g2553"
       transform="matrix(0.6628438,0,0,0.6628438,95.849779,102.49081)">
      <path
         d="M -48,-50.00001 C -48,-47.79086 -58.745173,-46 -72.000003,-46 C -85.254834,-46 -96,-47.79086 -96,-50.00001 C -96,-52.20914 -85.254834,-54 -72.000003,-54 C -58.745173,-54 -48,-52.20914 -48,-50.00001 L -48,-50.00001 z "
         style="opacity:0.3;fill:url(#radialGradient2535);fill-opacity:1;fill-rule:nonzero;stroke:none;stroke-width:0;stroke-linecap:round;stroke-linejoin:round;stroke-miterlimit:4;stroke-dasharray:none;stroke-dashoffset:4;stroke-opacity:1"
         id="path4543" />
      <g
         transform="matrix(1,0,0,0.9756098,-208.4265,-73.414634)"
         id="g9589">
        <path
           style="fill:url(#linearGradient9614)"
           d="M 122.40803,-58 C 121.11995,-58 120.07225,-56.801009 120.07225,-55.327765 C 120.07225,-55.327765 120.07225,-20.243475 120.07225,-17.752469 C 118.07565,-17.752469 105.76289,-17.752469 105.76289,-17.752469 C 104.82364,-17.752469 103.98018,-17.113701 103.61327,-16.125567 C 103.61266,-16.122801 103.4265,-15.080231 103.4265,-15.080231 C 103.4265,-14.384954 103.65845,-13.726198 104.08019,-13.22662 L 134.74308,23.18138 C 135.18048,23.70094 135.7944,24 136.42579,24 C 137.05778,24 137.6705,23.70094 138.1085,23.18138 L 168.772,-13.22662 C 169.42327,-14.000449 169.60703,-15.136741 169.23953,-16.125567 C 168.87081,-17.115074 168.02735,-17.751777 167.08929,-17.751777 C 167.08929,-17.751777 154.77654,-17.751777 152.77994,-17.751777 C 152.77994,-20.243475 152.77994,-55.327076 152.77994,-55.327076 C 152.77933,-56.801009 151.73164,-58 150.44355,-58 L 122.40803,-58 z "
           id="path49" />
        <g
           id="g51"
           transform="matrix(0.6024737,0,0,0.6890756,103.4265,-58)">
          <linearGradient
             id="linearGradient9265"
             gradientUnits="userSpaceOnUse"
             x1="538.77338"
             y1="674"
             x2="538.77338"
             y2="678.3681"
             gradientTransform="translate(-484,-674)">
            <stop
               offset="0"
               style="stop-color:#094422"
               id="stop9267" />
            <stop
               offset="1"
               style="stop-color:#9ED676"
               id="stop9269" />
          </linearGradient>
          <path
             style="fill:url(#linearGradient9616)"
             d="M 31.506,0.486 L 78.04,0.486 C 80.18,0.486 81.918,2.225 81.918,4.363 C 81.918,4.051 81.918,3.878 81.918,3.878 C 81.917,1.74 80.178,0 78.04,0 L 31.506,0 C 29.368,0 27.629,1.74 27.629,3.878 C 27.629,3.878 27.629,4.051 27.629,4.363 C 27.629,2.225 29.368,0.486 31.506,0.486 z "
             id="path58" />
          <linearGradient
             id="linearGradient9272"
             gradientUnits="userSpaceOnUse"
             x1="579.72852"
             y1="732.41022"
             x2="579.72852"
             y2="736.55688"
             gradientTransform="translate(-484,-674)">
            <stop
               offset="0"
               style="stop-color:#094422"
               id="stop9274" />
            <stop
               offset="1"
               style="stop-color:#9ED676"
               id="stop9276" />
          </linearGradient>
          <path
             style="fill:url(#linearGradient9618)"
             d="M 81.917,58.894 C 85.23,58.894 105.668,58.894 105.668,58.894 C 107.227,58.894 108.625,59.82 109.236,61.255 C 109.415,61.675 109.506,62.111 109.531,62.551 C 109.572,61.954 109.48,61.344 109.236,60.77 C 108.625,59.335 107.224,58.411 105.668,58.411 C 105.668,58.411 85.23,58.411 81.917,58.411 C 81.917,58.616 81.917,58.779 81.917,58.894 z "
             id="path65" />
          <linearGradient
             id="linearGradient9279"
             gradientUnits="userSpaceOnUse"
             x1="497.81451"
             y1="732.4082"
             x2="497.81451"
             y2="736.62341"
             gradientTransform="translate(-484,-674)">
            <stop
               offset="0"
               style="stop-color:#094422"
               id="stop9281" />
            <stop
               offset="1"
               style="stop-color:#9ED676"
               id="stop9283" />
          </linearGradient>
          <path
             style="fill:url(#linearGradient9620)"
             d="M 0.309,61.256 C 0.918,59.821 2.319,58.894 3.877,58.894 C 3.877,58.894 24.314,58.894 27.628,58.894 C 27.628,58.779 27.628,58.616 27.628,58.408 C 24.314,58.408 3.877,58.408 3.877,58.408 C 2.318,58.408 0.918,59.335 0.309,60.769 C 0.309,60.773 0,62.286 0,62.286 C 0,62.398 0.022,62.507 0.032,62.616 C 0.109,62.239 0.309,61.258 0.309,61.256 z "
             id="path72" />
        </g>
        <path
           style="opacity:0.5;fill:#ffffff"
           enable-background="new    "
           d="M 152.77933,-15.331057 C 154.77534,-15.331057 167.08869,-15.331057 167.08869,-15.331057 C 168.02794,-15.331057 168.87021,-14.692971 169.23832,-13.704155 C 169.2594,-13.646273 169.27387,-13.585625 169.29193,-13.527062 C 169.48051,-14.144468 169.47147,-14.830788 169.23832,-15.457162 C 168.87021,-16.445977 168.02614,-17.084064 167.08869,-17.084064 C 167.08869,-17.084064 154.77534,-17.084064 152.77933,-17.084064 C 152.77933,-16.201364 152.77933,-15.589458 152.77933,-15.331057 z "
           id="path74" />
        <path
           style="opacity:0.5;fill:#ffffff"
           enable-background="new    "
           d="M 103.61266,-13.703464 C 103.97957,-14.693662 104.82364,-15.331057 105.76229,-15.331057 C 105.76229,-15.331057 118.07504,-15.331057 120.07164,-15.331057 C 120.07164,-15.589458 120.07164,-16.201364 120.07164,-17.084064 C 118.07504,-17.084064 105.76229,-17.084064 105.76229,-17.084064 C 104.82304,-17.084064 103.97957,-16.445296 103.61266,-15.45647 C 103.61266,-15.454406 103.4265,-14.411826 103.4265,-14.411826 C 103.4265,-14.091416 103.48072,-13.783399 103.57471,-13.490541 C 103.597,-13.613189 103.61266,-13.702772 103.61266,-13.703464 z "
           id="path76" />
        <path
           style="fill:#ffffff"
           d="M 167.08869,-17.084064 C 167.08869,-17.084064 155.12718,-17.084064 152.19494,-17.084064 C 151.87201,-17.084064 151.60994,-17.383123 151.60994,-17.752469 L 151.60994,-17.084064 C 151.60994,-16.887684 151.60994,-16.196534 151.60994,-15.999462 C 152.68415,-15.999462 167.08688,-15.999462 167.08688,-15.999462 C 167.6014,-15.999462 168.08217,-16.490774 168.51174,-16.214449 C 168.19122,-16.745037 167.67008,-17.084064 167.08869,-17.084064 z "
           id="path78" />
        <path
           style="fill:#ffffff"
           d="M 120.65604,-17.084064 C 117.72381,-17.084064 105.76229,-17.084064 105.76229,-17.084064 C 105.1809,-17.084064 104.66037,-16.745728 104.33744,-16.213768 C 104.7664,-16.489392 105.24778,-15.998771 105.76229,-15.998771 C 105.76229,-15.998771 120.16563,-15.998771 121.23984,-15.998771 C 121.23984,-16.195853 121.23984,-16.886992 121.23984,-17.083372 L 121.23984,-17.751777 C 121.24044,-17.383123 120.97897,-17.084064 120.65604,-17.084064 z "
           id="path80" />
        <path
           style="fill:url(#radialGradient9622)"
           d="M 122.40803,-56.663883 C 121.76339,-56.663883 121.24044,-56.065765 121.24044,-55.327765 C 121.24044,-55.327765 121.24044,-18.913558 121.24044,-16.415659 C 119.22035,-16.415659 105.76289,-16.415659 105.76289,-16.415659 C 105.29477,-16.415659 104.87123,-16.095238 104.68808,-15.602553 C 104.62542,-15.434417 104.5947,-15.256633 104.5947,-15.078859 C 104.5947,-14.741204 104.70796,-14.404251 104.92124,-14.151362 L 135.58414,22.25664 C 135.80464,22.51918 136.10829,22.66733 136.42519,22.66733 C 136.74209,22.66733 137.04634,22.51918 137.26624,22.25664 L 167.92975,-14.151362 C 168.25448,-14.538622 168.34485,-15.109177 168.16351,-15.601181 C 167.97915,-16.093865 167.55682,-16.414286 167.08869,-16.414286 C 167.08869,-16.414286 153.63063,-16.414286 151.61174,-16.414286 C 151.61174,-18.912186 151.61174,-55.327076 151.61174,-55.327076 C 151.61174,-56.065076 151.08819,-56.663193 150.44415,-56.663193 L 122.40803,-56.663883 L 122.40803,-56.663883 z "
           id="path119" />
        <path
           style="fill:url(#linearGradient9624)"
           d="M 149.66237,-15.080231 L 149.66237,-55.327765 L 123.18921,-55.327765 L 123.18921,-15.080231 L 105.76229,-15.080231 L 136.42579,21.32776 L 167.08869,-15.080231 L 149.66237,-15.080231 z "
           id="polygon134"
           sodipodi:nodetypes="cccccccc" />
        <path
           style="fill:url(#radialGradient9626)"
           d="M 126.33071,-52.106113 C 126.33071,-46.18585 126.33071,-13.208265 126.33071,-13.208265 C 126.33071,-11.263404 125.14137,-9.68748 123.67415,-9.68748 C 123.67415,-9.68748 119.09054,-9.68748 114.77933,-9.68748 C 120.46129,-1.871013 133.66077,16.28485 136.4264,20.08959 C 139.19202,16.28485 152.39204,-1.871013 158.07347,-9.68748 C 153.7617,-9.68748 149.17863,-9.68748 149.17863,-9.68748 C 147.71087,-9.68748 146.52153,-11.263404 146.52153,-13.208265 C 146.52153,-13.208265 146.52153,-46.18585 146.52153,-52.106113 C 142.75237,-52.106113 130.09878,-52.106113 126.33071,-52.106113 z "
           id="path143" />
        <path
           style="fill:url(#linearGradient9628)"
           d="M 122.40803,-56.976034 C 121.80556,-56.976034 121.29949,-56.604621 120.98379,-56.073345 C 121.41155,-56.354488 121.88027,-55.89074 122.40803,-55.89074 L 150.44355,-55.89074 C 150.97131,-55.89074 151.43944,-56.354488 151.8678,-56.073345 C 151.5521,-56.604621 151.04602,-56.976034 150.44355,-56.976034 L 122.40803,-56.976034 L 122.40803,-56.976034 z "
           id="path150" />
        <path
           style="fill:#ffffff"
           d="M 137.26745,21.62407 C 137.04754,21.86318 136.74269,21.99617 136.42579,21.99617 C 136.10889,21.99617 135.80464,21.86318 135.58414,21.62407 L 129.83112,15.424454 L 135.58414,22.25526 C 135.80464,22.51711 136.10829,22.66526 136.42519,22.66526 C 136.74209,22.66526 137.04634,22.51711 137.26624,22.25526 L 143.01806,15.425837 L 137.26745,21.62407 z "
           id="path152" />
      </g>
    </g>
  </g>
</svg>
