<?xml version="1.0" encoding="UTF-8" standalone="no"?>
<!-- Created with Inkscape (http://www.inkscape.org/) -->
<svg
   xmlns:dc="http://purl.org/dc/elements/1.1/"
   xmlns:cc="http://web.resource.org/cc/"
   xmlns:rdf="http://www.w3.org/1999/02/22-rdf-syntax-ns#"
   xmlns:svg="http://www.w3.org/2000/svg"
   xmlns="http://www.w3.org/2000/svg"
   xmlns:xlink="http://www.w3.org/1999/xlink"
   xmlns:sodipodi="http://sodipodi.sourceforge.net/DTD/sodipodi-0.dtd"
   xmlns:inkscape="http://www.inkscape.org/namespaces/inkscape"
   id="svg2"
   sodipodi:version="0.32"
   inkscape:version="0.45.1"
   width="128"
   height="128"
   version="1.0"
   sodipodi:docbase="/home/david/Desktop"
   sodipodi:docname="mouse.svg"
   inkscape:output_extension="org.inkscape.output.svg.inkscape"
   inkscape:export-filename="/home/david/Desktop/mouse.png"
   inkscape:export-xdpi="11.25"
   inkscape:export-ydpi="11.25">
  <metadata
     id="metadata7">
    <rdf:RDF>
      <cc:Work
         rdf:about="">
        <dc:format>image/svg+xml</dc:format>
        <dc:type
           rdf:resource="http://purl.org/dc/dcmitype/StillImage" />
      </cc:Work>
    </rdf:RDF>
  </metadata>
  <defs
     id="defs5">
    <linearGradient
       inkscape:collect="always"
       id="linearGradient4788">
      <stop
         style="stop-color:#ffffff;stop-opacity:1;"
         offset="0"
         id="stop4790" />
      <stop
         style="stop-color:#ffffff;stop-opacity:0;"
         offset="1"
         id="stop4792" />
    </linearGradient>
    <linearGradient
       inkscape:collect="always"
       id="linearGradient4706">
      <stop
         style="stop-color:#000000;stop-opacity:1;"
         offset="0"
         id="stop4708" />
      <stop
         style="stop-color:#000000;stop-opacity:0;"
         offset="1"
         id="stop4710" />
    </linearGradient>
    <linearGradient
       inkscape:collect="always"
       id="linearGradient4464">
      <stop
         style="stop-color:#000000;stop-opacity:1;"
         offset="0"
         id="stop4466" />
      <stop
         style="stop-color:#000000;stop-opacity:0;"
         offset="1"
         id="stop4468" />
    </linearGradient>
    <linearGradient
       id="linearGradient4153">
      <stop
         style="stop-color:#5e0000;stop-opacity:1;"
         offset="0"
         id="stop4155" />
      <stop
         style="stop-color:#ff0101;stop-opacity:0.52158272;"
         offset="1"
         id="stop4157" />
    </linearGradient>
    <linearGradient
       inkscape:collect="always"
       id="linearGradient4143">
      <stop
         style="stop-color:#ffffff;stop-opacity:1;"
         offset="0"
         id="stop4145" />
      <stop
         style="stop-color:#ffffff;stop-opacity:0;"
         offset="1"
         id="stop4147" />
    </linearGradient>
    <linearGradient
       id="linearGradient4132">
      <stop
         style="stop-color:#bababa;stop-opacity:1;"
         offset="0"
         id="stop4134" />
      <stop
         id="stop4140"
         offset="0.07881773"
         style="stop-color:#e7e7e7;stop-opacity:1;" />
      <stop
         style="stop-color:#bababa;stop-opacity:1;"
         offset="1"
         id="stop4136" />
    </linearGradient>
    <linearGradient
       id="linearGradient4033">
      <stop
         style="stop-color:#000000;stop-opacity:1;"
         offset="0"
         id="stop4035" />
      <stop
         style="stop-color:#707070;stop-opacity:1;"
         offset="1"
         id="stop4037" />
    </linearGradient>
    <linearGradient
       id="linearGradient4023">
      <stop
         style="stop-color:#a1a1a1;stop-opacity:1;"
         offset="0"
         id="stop4025" />
      <stop
         style="stop-color:#a1a1a1;stop-opacity:0;"
         offset="1"
         id="stop4027" />
    </linearGradient>
    <linearGradient
       id="linearGradient4013">
      <stop
         style="stop-color:#b30000;stop-opacity:1;"
         offset="0"
         id="stop4015" />
      <stop
         style="stop-color:#ff6868;stop-opacity:1;"
         offset="1"
         id="stop4017" />
    </linearGradient>
    <linearGradient
       inkscape:collect="always"
       id="linearGradient4005">
      <stop
         style="stop-color:#ffffff;stop-opacity:1;"
         offset="0"
         id="stop4007" />
      <stop
         style="stop-color:#ffffff;stop-opacity:0;"
         offset="1"
         id="stop4009" />
    </linearGradient>
    <linearGradient
       inkscape:collect="always"
       id="linearGradient3924">
      <stop
         style="stop-color:#a60000;stop-opacity:1;"
         offset="0"
         id="stop3926" />
      <stop
         style="stop-color:#a60000;stop-opacity:0;"
         offset="1"
         id="stop3928" />
    </linearGradient>
    <linearGradient
       id="linearGradient3724">
      <stop
         style="stop-color:#ebebeb;stop-opacity:1;"
         offset="0"
         id="stop3726" />
      <stop
         style="stop-color:#bebebe;stop-opacity:1;"
         offset="1"
         id="stop3728" />
    </linearGradient>
    <linearGradient
       id="linearGradient3659">
      <stop
         style="stop-color:#000000;stop-opacity:1;"
         offset="0"
         id="stop3661" />
      <stop
         style="stop-color:#000000;stop-opacity:0;"
         offset="1"
         id="stop3663" />
    </linearGradient>
    <linearGradient
       inkscape:collect="always"
       id="linearGradient3609">
      <stop
         style="stop-color:#ffffff;stop-opacity:1;"
         offset="0"
         id="stop3611" />
      <stop
         style="stop-color:#ffffff;stop-opacity:0;"
         offset="1"
         id="stop3613" />
    </linearGradient>
    <linearGradient
       inkscape:collect="always"
       id="linearGradient3271">
      <stop
         style="stop-color:#ffffff;stop-opacity:1;"
         offset="0"
         id="stop3273" />
      <stop
         style="stop-color:#ffffff;stop-opacity:0;"
         offset="1"
         id="stop3275" />
    </linearGradient>
    <linearGradient
       inkscape:collect="always"
       id="linearGradient3191">
      <stop
         style="stop-color:#ffffff;stop-opacity:1;"
         offset="0"
         id="stop3193" />
      <stop
         style="stop-color:#ffffff;stop-opacity:0;"
         offset="1"
         id="stop3195" />
    </linearGradient>
    <linearGradient
       id="linearGradient3174">
      <stop
         style="stop-color:#929292;stop-opacity:1;"
         offset="0"
         id="stop3176" />
      <stop
         id="stop3182"
         offset="0.5"
         style="stop-color:#cfcfcf;stop-opacity:1;" />
      <stop
         style="stop-color:#ededed;stop-opacity:1;"
         offset="1"
         id="stop3178" />
    </linearGradient>
    <filter
       inkscape:collect="always"
       x="-0.20527753"
       width="1.4105551"
       y="-0.12170215"
       height="1.2434043"
       id="filter3247">
      <feGaussianBlur
         inkscape:collect="always"
         stdDeviation="3.5084449"
         id="feGaussianBlur3249" />
    </filter>
    <filter
       inkscape:collect="always"
       x="-0.17721891"
       width="1.3544378"
       y="-0.10307059"
       height="1.2061412"
       id="filter3331">
      <feGaussianBlur
         inkscape:collect="always"
         stdDeviation="2.5103085"
         id="feGaussianBlur3333" />
    </filter>
    <filter
       inkscape:collect="always"
       x="-0.26529971"
       width="1.5305994"
       y="-0.099487387"
       height="1.1989748"
       id="filter3996">
      <feGaussianBlur
         inkscape:collect="always"
         stdDeviation="0.51816347"
         id="feGaussianBlur3998" />
    </filter>
    <filter
       inkscape:collect="always"
       id="filter4118">
      <feGaussianBlur
         inkscape:collect="always"
         stdDeviation="0.43767556"
         id="feGaussianBlur4120" />
    </filter>
    <filter
       inkscape:collect="always"
       x="-0.1392204"
       width="1.2784408"
       y="-0.094187284"
       height="1.1883746"
       id="filter4460">
      <feGaussianBlur
         inkscape:collect="always"
         stdDeviation="3.6645101"
         id="feGaussianBlur4462" />
    </filter>
    <linearGradient
       inkscape:collect="always"
       xlink:href="#linearGradient4464"
       id="linearGradient4470"
       x1="55.583"
       y1="-21.655199"
       x2="57.817451"
       y2="134.06604"
       gradientUnits="userSpaceOnUse" />
    <radialGradient
       inkscape:collect="always"
       xlink:href="#linearGradient3724"
       id="radialGradient4474"
       gradientUnits="userSpaceOnUse"
       gradientTransform="matrix(2.0622874,0,0,1.552683,-732.26605,-71.351733)"
       cx="638.35217"
       cy="328.974"
       fx="638.35217"
       fy="328.974"
       r="48.713684" />
    <radialGradient
       inkscape:collect="always"
       xlink:href="#linearGradient3174"
       id="radialGradient4476"
       gradientUnits="userSpaceOnUse"
       gradientTransform="matrix(1.0899726,0.3461582,-0.6577745,1.6165723,124.79688,-322.13982)"
       spreadMethod="reflect"
       cx="662.27393"
       cy="362.62781"
       fx="654.18811"
       fy="358.18716"
       r="41.154457" />
    <radialGradient
       inkscape:collect="always"
       xlink:href="#linearGradient3191"
       id="radialGradient4478"
       gradientUnits="userSpaceOnUse"
       gradientTransform="matrix(1.6222571,0,0,1.6867206,-416.97891,-211.16658)"
       cx="661.93762"
       cy="307.5"
       fx="665.26593"
       fy="307.79102"
       r="20.509474" />
    <radialGradient
       inkscape:collect="always"
       xlink:href="#linearGradient3271"
       id="radialGradient4480"
       gradientUnits="userSpaceOnUse"
       gradientTransform="matrix(1.521149,-2.329701,1.1206283,0.7317002,-824.3171,1713.5552)"
       cx="687.64062"
       cy="415.79688"
       fx="687.64062"
       fy="415.79688"
       r="13.484375" />
    <linearGradient
       inkscape:collect="always"
       xlink:href="#linearGradient3609"
       id="linearGradient4482"
       gradientUnits="userSpaceOnUse"
       x1="648.69159"
       y1="360.4375"
       x2="629.51672"
       y2="427.24884"
       gradientTransform="matrix(0.8193108,0,0,0.682203,-492.14095,-181.49029)" />
    <linearGradient
       inkscape:collect="always"
       xlink:href="#linearGradient3609"
       id="linearGradient4486"
       gradientUnits="userSpaceOnUse"
       x1="715.67871"
       y1="359.76755"
       x2="745.875"
       y2="372.26755" />
    <radialGradient
       inkscape:collect="always"
       xlink:href="#linearGradient3924"
       id="radialGradient4488"
       gradientUnits="userSpaceOnUse"
       gradientTransform="matrix(1,0,0,2.6666667,0,-552.11405)"
       cx="678.125"
       cy="331.26843"
       fx="678.125"
       fy="331.26843"
       r="2.34375" />
    <linearGradient
       inkscape:collect="always"
       xlink:href="#linearGradient4013"
       id="linearGradient4490"
       gradientUnits="userSpaceOnUse"
       gradientTransform="matrix(1.0003626,0,0,0.8837839,-54.384085,167.43803)"
       x1="678.125"
       y1="332.23517"
       x2="678.125"
       y2="337.06891" />
    <linearGradient
       inkscape:collect="always"
       xlink:href="#linearGradient4005"
       id="linearGradient4492"
       gradientUnits="userSpaceOnUse"
       gradientTransform="matrix(1.0003626,0,0,0.8837839,-54.384085,167.43803)"
       x1="678.125"
       y1="324.57254"
       x2="678.125"
       y2="329.88965" />
    <radialGradient
       inkscape:collect="always"
       xlink:href="#linearGradient4023"
       id="radialGradient4494"
       gradientUnits="userSpaceOnUse"
       gradientTransform="matrix(0.4134398,0.1496785,-0.3059647,0.6596314,486.81409,176.4277)"
       cx="714.64557"
       cy="388.30331"
       fx="714.64557"
       fy="388.30331"
       r="41.154457" />
    <linearGradient
       inkscape:collect="always"
       xlink:href="#linearGradient4132"
       id="linearGradient4496"
       gradientUnits="userSpaceOnUse"
       gradientTransform="matrix(1.1024114,0,0,1.1515208,35.91827,83.694093)"
       x1="533.92084"
       y1="291.82483"
       x2="533.92084"
       y2="324.81561" />
    <radialGradient
       inkscape:collect="always"
       xlink:href="#linearGradient4033"
       id="radialGradient4498"
       gradientUnits="userSpaceOnUse"
       gradientTransform="matrix(0.4421415,8.1214782e-8,0,1.2817579,387.6719,55.617143)"
       cx="534.98535"
       cy="300.16165"
       fx="534.98535"
       fy="305.79822"
       r="8.984375" />
    <radialGradient
       inkscape:collect="always"
       xlink:href="#linearGradient4143"
       id="radialGradient4500"
       gradientUnits="userSpaceOnUse"
       gradientTransform="matrix(1,5.5151709e-7,-1.9999999e-6,2.728522,5.9478135e-4,-514.04656)"
       cx="564.46094"
       cy="297.39062"
       fx="564.46094"
       fy="297.39062"
       r="6.25" />
    <linearGradient
       inkscape:collect="always"
       xlink:href="#linearGradient4706"
       id="linearGradient4712"
       x1="652.41931"
       y1="578.07654"
       x2="614.42944"
       y2="427.27396"
       gradientUnits="userSpaceOnUse" />
    <linearGradient
       inkscape:collect="always"
       xlink:href="#linearGradient4706"
       id="linearGradient4716"
       gradientUnits="userSpaceOnUse"
       x1="652.41931"
       y1="578.07654"
       x2="614.42944"
       y2="427.27396"
       gradientTransform="translate(-246.10391,0)" />
    <linearGradient
       inkscape:collect="always"
       xlink:href="#linearGradient4706"
       id="linearGradient4720"
       gradientUnits="userSpaceOnUse"
       gradientTransform="matrix(0.9799285,0,0,0.9799285,-233.56244,6.0295256)"
       x1="652.41931"
       y1="578.07654"
       x2="614.42944"
       y2="427.27396" />
    <linearGradient
       inkscape:collect="always"
       xlink:href="#linearGradient4706"
       id="linearGradient4723"
       gradientUnits="userSpaceOnUse"
       gradientTransform="matrix(0.802575,0,0,0.7564181,-636.97162,-306.08337)"
       x1="652.41931"
       y1="578.07654"
       x2="614.42944"
       y2="427.27396" />
    <linearGradient
       inkscape:collect="always"
       xlink:href="#linearGradient4706"
       id="linearGradient4726"
       gradientUnits="userSpaceOnUse"
       gradientTransform="matrix(0.8190138,0,0,0.7719115,-647.24326,-310.73763)"
       x1="652.41931"
       y1="578.07654"
       x2="614.42944"
       y2="427.27396" />
    <radialGradient
       inkscape:collect="always"
       xlink:href="#linearGradient4033"
       id="radialGradient4733"
       gradientUnits="userSpaceOnUse"
       gradientTransform="matrix(0.4321639,6.2690624e-8,0,0.9894037,-167.30117,-267.80612)"
       cx="534.98535"
       cy="300.16165"
       fx="534.98535"
       fy="305.79822"
       r="8.984375" />
    <linearGradient
       inkscape:collect="always"
       xlink:href="#linearGradient4132"
       id="linearGradient4736"
       gradientUnits="userSpaceOnUse"
       gradientTransform="matrix(1.0775339,0,0,0.8888721,-511.117,-246.1332)"
       x1="533.92084"
       y1="291.82483"
       x2="533.92084"
       y2="324.81561" />
    <radialGradient
       inkscape:collect="always"
       xlink:href="#linearGradient4023"
       id="radialGradient4739"
       gradientUnits="userSpaceOnUse"
       gradientTransform="matrix(0.3386129,0.1155386,-0.2505893,0.5091771,-13.973302,-174.55106)"
       cx="714.64557"
       cy="388.30331"
       fx="714.64557"
       fy="388.30331"
       r="41.154457" />
    <linearGradient
       inkscape:collect="always"
       xlink:href="#linearGradient4005"
       id="linearGradient4742"
       gradientUnits="userSpaceOnUse"
       gradientTransform="matrix(1.1961165,0,0,0.682203,-747.50971,-176.32538)"
       x1="678.125"
       y1="324.57254"
       x2="678.125"
       y2="329.88965" />
    <linearGradient
       inkscape:collect="always"
       xlink:href="#linearGradient4013"
       id="linearGradient4745"
       gradientUnits="userSpaceOnUse"
       gradientTransform="matrix(1.1961165,0,0,0.682203,-747.50971,-176.32538)"
       x1="678.125"
       y1="332.23517"
       x2="678.125"
       y2="337.06891" />
    <radialGradient
       inkscape:collect="always"
       xlink:href="#linearGradient3174"
       id="radialGradient4755"
       gradientUnits="userSpaceOnUse"
       gradientTransform="matrix(0.8927026,0.2672035,-0.5387264,1.2478507,-343.47039,-559.40106)"
       spreadMethod="reflect"
       cx="662.27393"
       cy="362.62781"
       fx="654.18811"
       fy="358.18716"
       r="41.154457" />
    <radialGradient
       inkscape:collect="always"
       xlink:href="#linearGradient3724"
       id="radialGradient4758"
       gradientUnits="userSpaceOnUse"
       gradientTransform="matrix(1.7314128,0,0,1.2060099,-1074.4134,-368.48793)"
       cx="624.6618"
       cy="310.81683"
       fx="624.6618"
       fy="310.81683"
       r="48.713684" />
    <linearGradient
       inkscape:collect="always"
       xlink:href="#linearGradient4788"
       id="linearGradient4794"
       x1="90.417191"
       y1="120.44122"
       x2="22.365082"
       y2="74.392487"
       gradientUnits="userSpaceOnUse" />
    <filter
       inkscape:collect="always"
       id="filter4824">
      <feGaussianBlur
         inkscape:collect="always"
         stdDeviation="0.8693574"
         id="feGaussianBlur4826" />
    </filter>
    <radialGradient
       inkscape:collect="always"
       xlink:href="#linearGradient3174"
       id="radialGradient3280"
       gradientUnits="userSpaceOnUse"
       gradientTransform="matrix(0.8418999,0.2672035,-0.5080681,1.2478507,-318.10829,-559.40106)"
       spreadMethod="reflect"
       cx="662.27393"
       cy="362.62781"
       fx="590.89435"
       fy="397.11447"
       r="41.154457" />
  </defs>
  <sodipodi:namedview
     inkscape:window-height="678"
     inkscape:window-width="743"
     inkscape:pageshadow="2"
     inkscape:pageopacity="0.0"
     guidetolerance="10.0"
     gridtolerance="10.0"
     objecttolerance="10.0"
     borderopacity="1.0"
     bordercolor="#666666"
     pagecolor="#ffffff"
     id="base"
     showguides="true"
     inkscape:guide-bbox="true"
     width="128px"
     height="128px"
     inkscape:zoom="0.125"
     inkscape:cx="64"
     inkscape:cy="64"
     inkscape:window-x="21"
     inkscape:window-y="11"
     inkscape:current-layer="svg2"
     showborder="false"
     showgrid="false"
     gridspacingx="2px"
     gridspacingy="2px"
     gridempspacing="4" />
  <path
     style="opacity:0.1;fill:#000000;fill-opacity:1;fill-rule:evenodd;stroke:none;stroke-width:1px;stroke-linecap:butt;stroke-linejoin:miter;stroke-opacity:1"
     d="M 49.958272,-0.34060137 C 45.338828,-0.33523668 40.450031,-0.01934697 35.271293,0.69567354 C 14.33134,20.985845 15.912975,42.829047 24.477251,65.151977 C 15.637016,102.5061 36.431739,118.19242 52.039969,124.13429 C 72.609967,131.96503 121.25938,111.31939 108.32281,77.932702 C 100.52455,57.807022 108.74531,21.956653 92.928006,7.857485 C 83.977401,4.9713976 74.921586,2.2075996 64.851694,0.74173024 L 64.851694,7.9495985 C 64.851666,8.3503724 64.421215,8.6865049 63.907954,8.6865049 C 63.394699,8.6865198 62.993704,8.3503724 62.993704,7.9495985 L 62.993704,0.46539028 C 58.840032,-0.065013032 54.534145,-0.34591449 49.958272,-0.34060137 z "
     id="path3248"
     sodipodi:nodetypes="cccsscccsccc" />
  <path
     sodipodi:nodetypes="cccsscccsccc"
     id="path3246"
     d="M 50.552641,-0.34060137 C 45.978564,-0.33523668 41.13778,-0.01934697 36.009902,0.69567354 C 15.275599,20.985845 16.841701,42.829047 25.321867,65.151977 C 16.568452,102.5061 37.158951,118.19242 52.613894,124.13429 C 72.981875,131.96503 121.15351,111.31939 108.34398,77.932702 C 100.62231,57.807022 108.76234,21.956653 93.100372,7.857485 C 84.23767,4.9713976 75.270792,2.2075996 65.299796,0.74173024 L 65.299796,7.9495985 C 65.299768,8.3503724 64.873544,8.6865049 64.365324,8.6865049 C 63.85711,8.6865198 63.460053,8.3503724 63.460053,7.9495985 L 63.460053,0.46539028 C 59.347174,-0.065013032 55.083575,-0.34591449 50.552641,-0.34060137 z "
     style="opacity:0.1;fill:#000000;fill-opacity:1;fill-rule:evenodd;stroke:none;stroke-width:1px;stroke-linecap:butt;stroke-linejoin:miter;stroke-opacity:1" />
  <path
     style="opacity:0.1;fill:#000000;fill-opacity:1;fill-rule:evenodd;stroke:none;stroke-width:1px;stroke-linecap:butt;stroke-linejoin:miter;stroke-opacity:1"
     d="M 50.845549,-0.34060217 C 46.364482,-0.33529545 41.622131,-0.022819114 36.598527,0.68447522 C 16.285841,20.7554 17.820099,42.362573 26.127825,64.44429 C 17.552404,101.39478 37.72421,116.9116 52.864888,122.78926 C 72.818701,130.53539 120.0108,110.11284 107.46174,77.086912 C 99.897083,57.178702 107.8716,21.715718 92.528102,7.7688991 C 83.845616,4.9139975 75.061074,2.180064 65.292831,0.73003424 L 65.292831,7.8600171 C 65.292803,8.2564605 64.875247,8.5889609 64.37736,8.5889609 C 63.879481,8.5889756 63.490498,8.2564605 63.490498,7.8600171 L 63.490498,0.45668027 C 59.461251,-0.067991727 55.284349,-0.34585788 50.845549,-0.34060217 z "
     id="path3269"
     sodipodi:nodetypes="cccsscccsccc" />
  <path
     sodipodi:nodetypes="cccsscccsccc"
     id="path3267"
     d="M 51.209757,-0.34060217 C 46.844341,-0.33529545 42.224386,-0.022819114 37.330435,0.68447522 C 17.541998,20.7554 19.036657,42.362573 27.12997,64.44429 C 18.775871,101.39478 38.427065,116.9116 53.176978,122.78926 C 72.615805,130.53539 118.58992,110.11284 106.36474,77.086912 C 98.99532,57.178702 106.76402,21.715718 91.816528,7.7688991 C 83.358128,4.9139975 74.800306,2.180064 65.284171,0.73003424 L 65.284171,7.8600171 C 65.284143,8.2564605 64.877364,8.5889609 64.392326,8.5889609 C 63.907297,8.5889756 63.528353,8.2564605 63.528353,7.8600171 L 63.528353,0.45668027 C 59.603098,-0.067991727 55.533997,-0.34585788 51.209757,-0.34060217 z "
     style="opacity:0.15;fill:#000000;fill-opacity:1;fill-rule:evenodd;stroke:none;stroke-width:1px;stroke-linecap:butt;stroke-linejoin:miter;stroke-opacity:1" />
  <path
     style="opacity:0.2;fill:#000000;fill-opacity:1;fill-rule:evenodd;stroke:none;stroke-width:1px;stroke-linecap:butt;stroke-linejoin:miter;stroke-opacity:1"
     d="M 51.428282,0.651047 C 47.132257,0.65626937 42.585738,0.96377871 37.769581,1.6598302 C 18.295691,21.411715 19.766592,42.67543 27.731257,64.406145 C 19.509952,100.76928 38.848779,116.03946 53.364232,121.82368 C 72.494068,129.44669 117.7374,109.34876 105.70655,76.847804 C 98.454264,57.256048 106.09948,22.356768 91.389584,8.6316429 C 83.065636,5.8221217 74.643845,3.1316457 65.278974,1.704665 L 65.278974,8.7213126 C 65.278947,9.1114543 64.878634,9.4386694 64.401306,9.4386694 C 63.923987,9.4386838 63.551066,9.1114543 63.551066,8.7213126 L 63.551066,1.4356562 C 59.688205,0.91932414 55.683785,0.64587484 51.428282,0.651047 z "
     id="path3265"
     sodipodi:nodetypes="cccsscccsccc" />
  <path
     style="fill:url(#linearGradient4470);fill-opacity:1;fill-rule:evenodd;stroke:none;stroke-width:0.90459329px;stroke-linecap:butt;stroke-linejoin:miter;stroke-opacity:1;filter:url(#filter4460)"
     d="M 38.734741,25.565866 C 39.04376,43.221386 37.681279,58.727265 35.477494,77.037223 C 38.250377,95.434346 53.443594,102.10118 71.521771,100.08354 C 81.645092,98.953707 97.562439,90.163991 98.442454,80.035554 C 98.917277,74.570627 92.080878,52.359148 90.446903,40.557523 C 88.812928,28.755898 89.072668,34.560861 87.448572,30.563086 C 85.824476,26.565311 93.070444,30.110667 83.950519,24.566423 C 58.614571,11.221905 72.129123,21.908754 38.734741,25.565866 z "
     id="path4306"
     sodipodi:nodetypes="ccsszzcc"
     transform="matrix(1.1376038,0,0,1.2462221,-8.2290181,-2.623161)" />
  <path
     sodipodi:nodetypes="cccsscccsccc"
     id="path3346"
     d="M 51.646807,1.6426962 C 47.420173,1.6478341 42.94709,1.9503766 38.208725,2.6351852 C 19.049384,22.068032 20.496527,42.988287 28.332545,64.367999 C 20.244032,100.14378 39.270491,115.16731 53.551487,120.85811 C 72.372331,128.35799 116.88488,108.58469 105.04834,76.608697 C 97.913209,57.333393 105.43493,22.997819 90.96264,9.4943867 C 82.773143,6.7302458 74.487384,4.0832275 65.273777,2.6792957 L 65.273777,9.582608 C 65.273751,9.9664482 64.879905,10.288378 64.410286,10.288378 C 63.940676,10.288392 63.573779,9.9664482 63.573779,9.582608 L 63.573779,2.4146321 C 59.773312,1.90664 55.833574,1.6376076 51.646807,1.6426962 z "
     style="opacity:0.25;fill:#000000;fill-opacity:1;fill-rule:evenodd;stroke:none;stroke-width:1px;stroke-linecap:butt;stroke-linejoin:miter;stroke-opacity:1" />
  <path
     style="fill:url(#radialGradient4758);fill-opacity:1;fill-rule:evenodd;stroke:none;stroke-width:1px;stroke-linecap:butt;stroke-linejoin:miter;stroke-opacity:1"
     d="M 52.011031,3.2954456 C 47.900052,3.30044 43.549363,3.5947028 38.940652,4.2607768 C 20.305556,23.161893 21.713102,43.509717 29.334706,64.304422 C 21.467515,99.101292 39.973361,113.71374 53.863595,119.24882 C 72.169449,126.54348 115.46402,107.31123 103.95137,76.210186 C 97.011466,57.462302 104.32738,24.066236 90.251087,10.932289 C 82.285669,8.2437831 74.22663,5.6691992 65.265131,4.3036832 L 65.265131,49.45976 C 65.265105,49.833101 64.88204,50.146223 64.425269,50.146223 C 63.968507,50.146238 63.611652,49.833101 63.611652,49.45976 L 63.611652,4.0462605 C 59.915172,3.5521692 56.083238,3.290498 52.011031,3.2954456 z "
     id="path2183"
     sodipodi:nodetypes="cccsscccsccc" />
  <path
     style="fill:url(#radialGradient3280);fill-opacity:1;fill-rule:evenodd;stroke:none;stroke-width:1px;stroke-linecap:butt;stroke-linejoin:miter;stroke-opacity:1"
     d="M 56.216104,3.6638537 C 54.291024,3.6663856 52.288906,3.7353173 50.251943,3.8983604 C 36.709235,18.19772 33.71578,46.581292 47.958033,65.467172 C 61.924128,83.986873 75.543684,100.86767 63.967099,120.29923 C 76.583889,121.34811 94.574201,113.76393 102.19085,100.21689 C 80.517529,64.489677 103.12948,33.803285 87.630565,9.9102774 C 81.51007,7.7508086 75.244416,5.8143914 68.410033,4.6871614 L 68.410033,38.426208 C 68.41001,38.797235 68.057584,39.108416 67.63735,39.108416 C 67.217123,39.108431 66.888812,38.797235 66.888812,38.426208 L 66.888812,4.4313345 C 63.496473,3.9411861 59.956064,3.6589444 56.216104,3.6638537 z "
     id="path2181"
     sodipodi:nodetypes="ccscccccsccc" />
  <path
     style="fill:url(#radialGradient4478);fill-opacity:1;fill-rule:evenodd;stroke:none;stroke-width:1px;stroke-linecap:butt;stroke-linejoin:miter;stroke-opacity:1;filter:url(#filter3247)"
     d="M 654.9375,272.90625 C 642.51571,288.71462 637.42356,315.13722 643.03125,338.84375 C 646.53266,340.9256 650.44331,342.09375 654.5625,342.09375 C 664.12743,342.09375 672.52105,335.82135 677.375,326.34375 L 677.375,288.625 C 672.58072,279.29398 664.33101,273.0716 654.9375,272.90625 z M 679.34375,293.21875 L 679.34375,321.8125 C 680.90561,317.45016 681.78126,312.60475 681.78125,307.5 C 681.78125,302.40299 680.90212,297.57628 679.34375,293.21875 z "
     id="path3184"
     transform="matrix(0.8193108,0,0,0.682203,-490.22208,-181.49029)" />
  <path
     style="opacity:0.42322094;fill:url(#radialGradient4480);fill-opacity:1;stroke:none;stroke-width:10;stroke-linecap:round;stroke-linejoin:round;stroke-miterlimit:4;stroke-dasharray:none;stroke-dashoffset:1.08779998;stroke-opacity:1;filter:url(#filter3331)"
     d="M 677.15625,397.75 C 676.13449,397.75 675.14445,397.81251 674.15625,397.90625 C 679.11008,409.62037 681.04694,421.43309 677.15625,433.84375 C 690.37603,433.84375 698.37906,425.38933 701.125,415.8125 C 721.05709,346.29674 693.96373,384.74458 677.15625,397.75 z "
     id="path3251"
     sodipodi:nodetypes="cccsc"
     transform="matrix(0.8193108,0,0,0.682203,-500.22208,-181.49029)" />
  <path
     style="opacity:1;fill:url(#linearGradient4482);fill-opacity:1;stroke:none;stroke-width:10;stroke-linecap:round;stroke-linejoin:round;stroke-miterlimit:4;stroke-dashoffset:1.08779998;stroke-opacity:1"
     d="M 29.375976,64.401254 C 27.071239,74.847235 27.124912,83.454358 28.684683,90.538156 C 33.974817,98.932685 39.526385,105.64692 43.688312,104.07562 C 49.963307,101.70656 36.841315,83.739703 31.910719,70.391849 C 31.078021,68.137605 30.238211,66.149965 29.375976,64.401254 z "
     id="path3603" />
  <path
     id="path3653"
     d="M 663.5625,271.40625 C 661.07108,271.40996 663.16407,271.511 660.52786,271.75 C 643.00103,292.71057 639.12694,334.31633 657.55911,362 C 675.63387,389.1469 693.26015,413.89144 678.27786,442.375 C 694.60637,443.91248 713.20513,432.79529 723.0625,412.9375 C 695.01313,360.56715 724.27727,315.58582 704.21875,280.5625 C 696.29767,277.39707 688.18873,274.55859 679.34375,272.90625 L 679.34375,338.65625 C 679.34372,339.20011 678.88761,339.65625 678.34375,339.65625 C 677.7999,339.65627 677.375,339.20011 677.375,338.65625 L 677.375,272.53125 C 672.98467,271.81277 668.40271,271.39905 663.5625,271.40625 z "
     style="fill:none;fill-opacity:1;fill-rule:evenodd;stroke:#000000;stroke-width:2.67515434;stroke-linecap:butt;stroke-linejoin:miter;stroke-miterlimit:4;stroke-dasharray:none;stroke-opacity:1;opacity:0.59444444"
     transform="matrix(0.8193108,0,0,0.682203,-490.22208,-181.49029)"
     sodipodi:nodetypes="ccscccccsccc" />
  <path
     style="opacity:0.72222222;fill:url(#linearGradient4486);fill-opacity:1;stroke:none;stroke-width:0.30000001;stroke-linecap:round;stroke-linejoin:round;stroke-miterlimit:4;stroke-dasharray:none;stroke-dashoffset:1.08779998;stroke-opacity:1"
     d="M 720.3125,325.125 C 718.6655,332.34264 717.27151,341.78654 716.4375,352.1875 C 714.59337,375.18556 716.22493,394.09602 720.09375,394.40625 C 722.14233,394.57052 724.39321,389.45477 726.34375,381.21875 C 726.06877,380.0328 725.77267,378.83607 725.40625,377.625 C 721.12916,363.48849 721.38045,343.64312 720.3125,325.125 z "
     id="path3667"
     transform="matrix(0.8193108,0,0,0.682203,-490.22208,-181.49029)" />
  <rect
     ry="2.0935948"
     rx="1.4340618"
     y="325.01843"
     x="675.78125"
     height="12.5"
     width="4.6875"
     id="rect3734"
     style="fill:url(#radialGradient4488);fill-opacity:1;stroke:none;stroke-width:0.30000001;stroke-linecap:round;stroke-linejoin:round;stroke-miterlimit:4;stroke-dasharray:none;stroke-dashoffset:1.08779998;stroke-opacity:1;filter:url(#filter3996)"
     transform="matrix(2.3922329,0,0,0.8527536,-1558.6262,-233.82006)" />
  <rect
     style="fill:url(#linearGradient4745);fill-opacity:1;stroke:none;stroke-width:0.30000001;stroke-linecap:round;stroke-linejoin:round;stroke-miterlimit:4;stroke-dasharray:none;stroke-dashoffset:1.08779998;stroke-opacity:1"
     id="rect3732"
     width="5.6067958"
     height="8.5275364"
     x="60.803364"
     y="45.403156"
     rx="1.2626953"
     ry="1.0513892" />
  <path
     style="fill:url(#linearGradient4742);fill-opacity:1;stroke:none;stroke-width:0.30000001;stroke-linecap:round;stroke-linejoin:round;stroke-miterlimit:4;stroke-dasharray:none;stroke-dashoffset:1.08779998;stroke-opacity:1"
     d="M 62.859208,45.966184 C 62.046705,45.966184 61.364066,46.334201 61.364066,46.797626 L 61.364066,47.842246 C 62.771576,47.783318 64.28427,47.812906 65.849504,47.906199 L 65.849504,46.797626 C 65.849504,46.334209 65.166852,45.966184 64.354362,45.966184 L 62.859208,45.966184 z "
     id="rect4000" />
  <rect
     style="fill:#000000;fill-opacity:1;stroke:url(#linearGradient4736);stroke-width:0.71668303;stroke-linecap:round;stroke-linejoin:round;stroke-miterlimit:4;stroke-dasharray:none;stroke-dashoffset:1.08779998;stroke-opacity:1"
     id="rect4122"
     width="14.881477"
     height="24.551855"
     x="56.760181"
     y="14.10623"
     rx="6.2347636"
     ry="8.3840542" />
  <path
     style="fill:url(#radialGradient4733);fill-opacity:1;stroke:none;stroke-width:0.30000001;stroke-linecap:round;stroke-linejoin:round;stroke-miterlimit:4;stroke-dashoffset:1.08779998;stroke-opacity:1"
     d="M 69.900038,26.770083 C 69.900038,35.194316 67.370225,37.076838 64.25314,37.076838 C 61.136036,37.076838 58.606222,34.728305 58.606222,26.770083 C 58.606222,19.038741 61.136036,16.463312 64.25314,16.463312 C 67.370225,16.463312 69.900038,18.57239 69.900038,26.770083 z "
     id="path4031"
     sodipodi:nodetypes="cszsz" />
  <path
     style="opacity:0.4644195;fill:url(#radialGradient4500);fill-opacity:1;stroke:none;stroke-width:0.30000001;stroke-linecap:round;stroke-linejoin:round;stroke-miterlimit:4;stroke-dasharray:none;stroke-dashoffset:1.08779998;stroke-opacity:1;filter:url(#filter4118)"
     d="M 570.71095,290.65625 C 567.26095,290.65625 564.46097,294.97228 564.46095,301.44104 C 564.46095,302.04162 564.4769,303.54866 564.52345,304.125 C 564.9783,298.49364 567.58126,294.15625 570.71095,294.15625 C 573.84066,294.15624 576.41237,298.49364 576.8672,304.125 C 576.91375,303.54866 576.96095,302.04162 576.96095,301.44104 C 576.96095,294.97229 574.16097,290.65624 570.71095,290.65625 z "
     id="path4041"
     transform="matrix(0.9035051,0,0,0.8795109,-451.38702,-239.16073)"
     sodipodi:nodetypes="cscscsc" />
  <path
     style="opacity:0.43445692;fill:url(#linearGradient4794);fill-opacity:1;fill-rule:evenodd;stroke:none;stroke-width:1px;stroke-linecap:butt;stroke-linejoin:miter;stroke-opacity:1;filter:url(#filter4824)"
     d="M 31.312501,64.28125 C 23.637831,98.862413 41.699691,113.40548 55.250001,118.90625 C 72.756681,126.01312 113.66547,107.77756 104.6875,77.9375 C 109.82333,105.29761 71.999161,121.64805 55.468751,114.9375 C 29.495301,105.7268 29.335161,71.820085 31.312501,64.28125 z "
     id="path4714"
     sodipodi:nodetypes="csccc" />
</svg>
