<?xml version="1.0" encoding="utf-8"?>
<!-- Generator: Adobe Illustrator 12.0.0, SVG Export Plug-In . SVG Version: 6.00 Build 51448)  -->
<!DOCTYPE svg PUBLIC "-//W3C//DTD SVG 1.1//EN" "http://www.w3.org/Graphics/SVG/1.1/DTD/svg11.dtd" [
	<!ENTITY ns_extend "http://ns.adobe.com/Extensibility/1.0/">
	<!ENTITY ns_ai "http://ns.adobe.com/AdobeIllustrator/10.0/">
	<!ENTITY ns_graphs "http://ns.adobe.com/Graphs/1.0/">
	<!ENTITY ns_vars "http://ns.adobe.com/Variables/1.0/">
	<!ENTITY ns_imrep "http://ns.adobe.com/ImageReplacement/1.0/">
	<!ENTITY ns_sfw "http://ns.adobe.com/SaveForWeb/1.0/">
	<!ENTITY ns_custom "http://ns.adobe.com/GenericCustomNamespace/1.0/">
	<!ENTITY ns_adobe_xpath "http://ns.adobe.com/XPath/1.0/">
	<!ENTITY ns_svg "http://www.w3.org/2000/svg">
	<!ENTITY ns_xlink "http://www.w3.org/1999/xlink">
]>
<svg  version="1.1"
	 id="layer1" xmlns:x="&ns_extend;" xmlns:i="&ns_ai;" xmlns:graph="&ns_graphs;" xmlns:rdf="http://www.w3.org/1999/02/22-rdf-syntax-ns#" xmlns:cc="http://web.resource.org/cc/" xmlns:dc="http://purl.org/dc/elements/1.1/" xmlns:sodipodi="http://inkscape.sourceforge.net/DTD/sodipodi-0.dtd" xmlns:svg="http://www.w3.org/2000/svg" xmlns:inkscape="http://www.inkscape.org/namespaces/inkscape" sodipodi:version="0.32" sodipodi:docbase="/home/pinheiro/Documents/pics/new oxygen/svg/devices" inkscape:version="0.43" sodipodi:docname="digicam.svg" inkscape:label="Layer 1" inkscape:groupmode="layer"
	 xmlns="&ns_svg;" xmlns:xlink="&ns_xlink;" width="128" height="128" viewBox="0 0 128 128"
	 overflow="visible" enable-background="new 0 0 128 128" xml:space="preserve">
<metadata  id="metadata1687">
	<rdf:RDF>
		<cc:Work  rdf:about="">
			<dc:format>image/svg+xml</dc:format>
			<dc:type  rdf:resource="http://purl.org/dc/dcmitype/StillImage"></dc:type>
		</cc:Work>
	</rdf:RDF>
	<sfw  xmlns="&ns_sfw;">
		<slices>
			<slice  x="0" y="0" height="128" width="128" sliceID="1654167827"></slice>
		</slices>
		<sliceSourceBounds  x="0" y="0" height="128" width="128" bottomLeftOrigin="true"></sliceSourceBounds>
	</sfw>
</metadata>
<rect id="_x3C_Sezione_x3E_" x="-0.5" y="-0.5" fill="none" width="128" height="128"/>
<g>
	<path opacity="0.15" d="M3.543,82.391c-0.885,0-1.72,0.388-2.291,1.062c-0.57,0.674-0.813,1.56-0.668,2.43l0.151,0.908
		c1.233,6.968,9.895,12.018,20.596,12.018c7.76,0,14.427-2.612,18.021-6.986c0.877,0,80.784,0,80.784,0
		c3.435,0,6.27-2.865,6.32-6.388v-0.001c0-0.825-0.307-1.583-0.862-2.147c-0.561-0.569-1.34-0.896-2.138-0.896H3.543z"/>
	<path opacity="0.2" d="M3.543,83.391c-0.59,0-1.146,0.258-1.527,0.708c-0.38,0.449-0.542,1.04-0.446,1.62l0.151,0.908
		c1.148,6.483,9.395,11.182,19.61,11.182c7.663,0,14.308-2.674,17.578-6.986c0.923,0,81.228,0,81.228,0
		c2.891,0,5.277-2.424,5.32-5.402v-0.001c0-0.557-0.204-1.055-0.575-1.432c-0.373-0.379-0.893-0.597-1.425-0.597H3.543z"/>
	<path opacity="0.25" d="M3.543,84.391c-0.294,0-0.573,0.129-0.763,0.354s-0.271,0.521-0.223,0.811l0.151,0.908
		c1.062,5.999,8.894,10.346,18.624,10.346c7.597,0,14.197-2.734,17.111-6.986c0.98,0,81.694,0,81.694,0
		c2.347,0,4.285-1.981,4.32-4.417c0-0.005,0-0.01,0-0.015c0-0.263-0.104-0.515-0.288-0.702c-0.188-0.19-0.444-0.298-0.712-0.298
		H3.543z"/>
	<path id="path14_2_" opacity="0.3" d="M3.543,85.391c0,0,0.117,0.7,0.151,0.908c0.961,5.426,8.517,9.51,17.637,9.51
		c7.589,0,14.098-2.79,16.615-6.986c1.155,0,82.19,0,82.19,0c1.804,0,3.293-1.539,3.32-3.432H3.543z"/>
	
		<linearGradient id="path14_1_" gradientUnits="userSpaceOnUse" x1="255.2764" y1="-141.4414" x2="267.6216" y2="-213.6143" gradientTransform="matrix(1.1643 0 0 -1.1643 -241.8622 -169.1094)">
		<stop  offset="0" style="stop-color:#F2F2F2"/>
		<stop  offset="0.4228" style="stop-color:#D4D4D4"/>
		<stop  offset="1" style="stop-color:#A6A6A6"/>
	</linearGradient>
	<path id="path14" fill="url(#path14_1_)" d="M126.682,4.895c-0.002,0-0.777-2.329-0.777-2.329
		c-0.572-1.718-2.375-3.065-4.104-3.065H5.2c-1.755,0-3.521,1.318-4.104,3.067L0.321,4.895C-0.021,5.915-0.5,10.214-0.5,11.147
		c0,0.019,1.094,72.243,1.094,72.243s0.123,0.7,0.159,0.908c1.008,5.426,8.936,9.51,18.505,9.51c7.962,0,14.792-2.79,17.432-6.986
		c1.212,0,86.232,0,86.232,0c1.893,0,3.455-1.539,3.484-3.432c0,0,1.094-72.226,1.094-72.244
		C127.5,10.213,127.021,5.915,126.682,4.895z"/>
	
		<linearGradient id="path35_1_" gradientUnits="userSpaceOnUse" x1="211.2725" y1="-188.8164" x2="280.2719" y2="-188.8164" gradientTransform="matrix(1.1643 0 0 -1.1643 -241.8622 -169.1094)">
		<stop  offset="0" style="stop-color:#DEDEDE"/>
		<stop  offset="0.0858" style="stop-color:#D4D4D4"/>
		<stop  offset="0.2291" style="stop-color:#BBBBBB"/>
		<stop  offset="0.4111" style="stop-color:#919191"/>
		<stop  offset="0.4607" style="stop-color:#858585"/>
		<stop  offset="0.5942" style="stop-color:#A2A2A2"/>
		<stop  offset="0.7562" style="stop-color:#BEBEBE"/>
		<stop  offset="0.897" style="stop-color:#D0D0D0"/>
		<stop  offset="1" style="stop-color:#D6D6D6"/>
	</linearGradient>
	<path id="path35" fill="url(#path35_1_)" d="M124.045,8.814H2.958c-1.284,0-2.313,1.064-2.294,2.372l1.095,72.187
		c0.003,0.23,0.051,0.449,0.119,0.66c0.844,4.83,8.3,8.611,17.38,8.611c8.03,0,14.777-2.961,16.817-6.986h86.847
		c1.262,0,2.302-1.025,2.32-2.287l1.094-72.186C126.357,9.879,125.328,8.814,124.045,8.814z"/>
	
		<radialGradient id="path46_1_" cx="309.9346" cy="-216.0156" r="97.6767" gradientTransform="matrix(1.1643 0 0 -1.1643 -241.8622 -169.1094)" gradientUnits="userSpaceOnUse">
		<stop  offset="0" style="stop-color:#E8E8E8"/>
		<stop  offset="0.2145" style="stop-color:#DFDFDF"/>
		<stop  offset="0.5725" style="stop-color:#C5C5C5"/>
		<stop  offset="1" style="stop-color:#9E9E9E"/>
	</radialGradient>
	<path id="path46" fill="url(#path46_1_)" d="M124.045,8.814h-87.1v76.844h85.977c1.262,0,2.302-1.025,2.32-2.287l1.094-72.186
		C126.357,9.879,125.328,8.814,124.045,8.814z"/>
	<linearGradient id="XMLID_1_" gradientUnits="userSpaceOnUse" x1="63.8477" y1="33.3579" x2="105.0699" y2="74.5802">
		<stop  offset="0" style="stop-color:#888A85"/>
		<stop  offset="1" style="stop-color:#FFFFFF"/>
	</linearGradient>
	<path fill="url(#XMLID_1_)" d="M54.508,53.969c0,16.193,13.436,29.368,29.951,29.368c16.514,0,29.949-13.175,29.949-29.368
		c0-16.194-13.436-29.368-29.949-29.368C67.944,24.601,54.508,37.774,54.508,53.969z"/>
	
		<linearGradient id="XMLID_2_" gradientUnits="userSpaceOnUse" x1="48.6636" y1="99.584" x2="96.586" y2="66.0284" gradientTransform="matrix(-0.7071 0.7071 -0.7071 -0.7071 194.3632 61.1684)">
		<stop  offset="0" style="stop-color:#888A85"/>
		<stop  offset="0.497" style="stop-color:#EEEEEE"/>
		<stop  offset="1" style="stop-color:#8F8F8F"/>
	</linearGradient>
	<path fill="url(#XMLID_2_)" d="M105.282,33.145c-11.256-11.256-29.755-11.071-41.238,0.412
		c-11.482,11.482-11.667,29.981-0.411,41.237c11.255,11.255,29.754,11.071,41.237-0.411C116.353,62.899,116.538,44.4,105.282,33.145
		z"/>
	
		<radialGradient id="path53_1_" cx="273.2715" cy="-173.0996" r="40.3113" gradientTransform="matrix(1.1643 0 0 -1.1643 -241.8622 -169.1094)" gradientUnits="userSpaceOnUse">
		<stop  offset="0" style="stop-color:#888A85"/>
		<stop  offset="1" style="stop-color:#8F8F8F"/>
	</radialGradient>
	<path id="path53" fill="url(#path53_1_)" d="M60.008,53.969c0,13.161,10.968,23.868,24.451,23.868
		c13.48,0,24.449-10.707,24.449-23.868S97.939,30.101,84.459,30.101C70.977,30.101,60.008,40.808,60.008,53.969z"/>
	
		<radialGradient id="ellipse60_1_" cx="275.2705" cy="-174.1001" r="35.7362" gradientTransform="matrix(1.1643 0 0 -1.1643 -241.8622 -169.1094)" gradientUnits="userSpaceOnUse">
		<stop  offset="0" style="stop-color:#FFFFFF"/>
		<stop  offset="0.5621" style="stop-color:#888888"/>
		<stop  offset="1" style="stop-color:#BBBBBB"/>
	</radialGradient>
	
		<ellipse id="ellipse60" sodipodi:ry="19.5" sodipodi:rx="20" sodipodi:cx="72.970001" sodipodi:cy="48.5" fill="url(#ellipse60_1_)" cx="84.459" cy="53.968" rx="23.285" ry="22.704">
	</ellipse>
	
		<radialGradient id="ellipse67_1_" cx="262.5039" cy="-165.5479" r="5.4975" gradientTransform="matrix(1.1643 0 0 -1.1643 -241.8622 -169.1094)" gradientUnits="userSpaceOnUse">
		<stop  offset="0.2485" style="stop-color:#FFFFFF"/>
		<stop  offset="1" style="stop-color:#A3A3A3"/>
	</radialGradient>
	
		<ellipse id="ellipse67" sodipodi:ry="3" sodipodi:rx="3.0769999" sodipodi:cx="55.971001" sodipodi:cy="26" fill="url(#ellipse67_1_)" cx="64.666" cy="26.772" rx="3.583" ry="3.493">
	</ellipse>
	
		<radialGradient id="ellipse74_1_" cx="263.2734" cy="-169.2402" r="4.1216" gradientTransform="matrix(1.1643 0 0 -1.1643 -241.8622 -169.1094)" gradientUnits="userSpaceOnUse">
		<stop  offset="0" style="stop-color:#2E3436"/>
		<stop  offset="1" style="stop-color:#555753"/>
	</radialGradient>
	
		<ellipse id="ellipse74" sodipodi:ry="2" sodipodi:rx="2.0769999" sodipodi:cx="55.971001" sodipodi:cy="26" fill="url(#ellipse74_1_)" cx="64.666" cy="26.772" rx="2.419" ry="2.329">
	</ellipse>
	<g>
		
			<radialGradient id="ellipse81_1_" cx="277.4834" cy="-155.895" r="12.3761" gradientTransform="matrix(1.1643 0 0 -1.1643 -241.8622 -169.1094)" gradientUnits="userSpaceOnUse">
			<stop  offset="0" style="stop-color:#FFFFFF"/>
			<stop  offset="1" style="stop-color:#A3A3A3"/>
		</radialGradient>
		
			<ellipse id="ellipse81" sodipodi:ry="4.5" sodipodi:rx="4.6160002" sodipodi:cx="48.507999" sodipodi:cy="35.5" fill="url(#ellipse81_1_)" cx="83.228" cy="19.458" rx="8.066" ry="7.864">
		</ellipse>
		
			<radialGradient id="path88_1_" cx="279.9072" cy="-164.2095" r="8.0842" gradientTransform="matrix(1.1643 0 0 -1.1643 -241.8622 -169.1094)" gradientUnits="userSpaceOnUse">
			<stop  offset="0" style="stop-color:#2E3436"/>
			<stop  offset="1" style="stop-color:#555753"/>
		</radialGradient>
		<path id="path88" fill="url(#path88_1_)" d="M76.91,19.458c0,3.372,2.834,6.116,6.319,6.116s6.32-2.744,6.32-6.116
			c0-3.373-2.838-6.117-6.322-6.117S76.91,16.085,76.91,19.458z"/>
	</g>
	
		<radialGradient id="path95_1_" cx="274.2725" cy="-176.2393" r="30.4626" gradientTransform="matrix(1.1643 0 0 -1.1643 -241.8622 -169.1094)" gradientUnits="userSpaceOnUse">
		<stop  offset="0" style="stop-color:#BBBBBB"/>
		<stop  offset="1" style="stop-color:#555555"/>
	</radialGradient>
	<path id="path95" fill="url(#path95_1_)" d="M63.501,55.297c0,11.233,9.401,20.375,20.958,20.375
		c11.555,0,20.957-9.142,20.957-20.375c0-11.235-9.402-20.375-20.957-20.375C72.902,34.922,63.501,44.062,63.501,55.297z"/>
	
		<radialGradient id="path102_1_" cx="274.8682" cy="-173.0049" r="38.6712" gradientTransform="matrix(1.1643 0 0 -1.1643 -241.8622 -169.1094)" gradientUnits="userSpaceOnUse">
		<stop  offset="0" style="stop-color:#FFFFFF"/>
		<stop  offset="0.0886" style="stop-color:#EBEBEB"/>
		<stop  offset="0.2702" style="stop-color:#B7B7B7"/>
		<stop  offset="0.5266" style="stop-color:#656565"/>
		<stop  offset="0.574" style="stop-color:#555555"/>
		<stop  offset="0.6124" style="stop-color:#676767"/>
		<stop  offset="0.7014" style="stop-color:#8B8B8B"/>
		<stop  offset="0.7846" style="stop-color:#A6A6A6"/>
		<stop  offset="0.859" style="stop-color:#B5B5B5"/>
		<stop  offset="0.9172" style="stop-color:#BBBBBB"/>
	</radialGradient>
	<path id="path102" fill="url(#path102_1_)" d="M64.666,55.879c0,10.914,8.879,19.793,19.793,19.793s19.793-8.879,19.793-19.793
		s-8.879-19.793-19.793-19.793S64.666,44.965,64.666,55.879z"/>
	
		<radialGradient id="path109_1_" cx="277.2715" cy="-181.2402" r="12.1655" gradientTransform="matrix(1.1643 0 0 -1.1643 -241.8622 -169.1094)" gradientUnits="userSpaceOnUse">
		<stop  offset="0" style="stop-color:#888888"/>
		<stop  offset="1" style="stop-color:#888888"/>
	</radialGradient>
	<path id="path109" fill="url(#path109_1_)" d="M65.83,58.79c0,9.951,8.357,18.047,18.629,18.047s18.628-8.096,18.628-18.047
		S94.73,40.743,84.459,40.743S65.83,48.839,65.83,58.79z"/>
	
		<linearGradient id="path116_1_" gradientUnits="userSpaceOnUse" x1="265.2725" y1="-195.7393" x2="295.2725" y2="-195.7393" gradientTransform="matrix(1.1643 0 0 -1.1643 -241.8622 -169.1094)">
		<stop  offset="0" style="stop-color:#FFFFFF"/>
		<stop  offset="1" style="stop-color:#EEEEEC"/>
	</linearGradient>
	<path id="path116" fill="url(#path116_1_)" d="M66.994,58.79c0,9.31,7.834,16.882,17.465,16.882
		c9.629,0,17.464-7.572,17.464-16.882c0-9.309-7.835-16.883-17.464-16.883C74.828,41.907,66.994,49.481,66.994,58.79z"/>
	
		<linearGradient id="path123_1_" gradientUnits="userSpaceOnUse" x1="280.2725" y1="-209.2397" x2="280.2725" y2="-182.2402" gradientTransform="matrix(1.1643 0 0 -1.1643 -241.8622 -169.1094)">
		<stop  offset="0" style="stop-color:#E8E8E8"/>
		<stop  offset="0.5" style="stop-color:#9E9E9E"/>
		<stop  offset="1" style="stop-color:#E8E8E8"/>
	</linearGradient>
	<path id="path123" fill="url(#path123_1_)" d="M68.158,58.79c0,8.667,7.312,15.718,16.301,15.718s16.3-7.051,16.3-15.718
		s-7.312-15.718-16.3-15.718S68.158,50.123,68.158,58.79z"/>
	<linearGradient id="XMLID_3_" gradientUnits="userSpaceOnUse" x1="70.5166" y1="58.79" x2="97.5621" y2="58.79">
		<stop  offset="0" style="stop-color:#1C1C1C"/>
		<stop  offset="0.5" style="stop-color:#555753"/>
		<stop  offset="1" style="stop-color:#1C1C1C"/>
	</linearGradient>
	<path fill="url(#XMLID_3_)" d="M96.801,58.79c0-6.461-5.52-11.718-12.301-11.718c-6.783,0-12.301,5.257-12.301,11.718
		S77.717,70.508,84.5,70.508C91.281,70.508,96.801,65.251,96.801,58.79z"/>
	
		<radialGradient id="path130_1_" cx="218.9131" cy="-164.1924" r="9.8404" gradientTransform="matrix(1.1922 0 0 -1.1643 -242.2271 -169.1094)" gradientUnits="userSpaceOnUse">
		<stop  offset="0" style="stop-color:#FFFFFF"/>
		<stop  offset="1" style="stop-color:#CFCFCF"/>
	</radialGradient>
	<path id="path130" fill="url(#path130_1_)" d="M18.573,22.786c9.877,0,17.883-4.691,17.883-10.479c0-0.801-0.168-1.579-0.459-2.329
		H3.074c-1.315,0-2.384,1.045-2.384,2.329C0.69,18.095,8.696,22.786,18.573,22.786z"/>
	
		<radialGradient id="path137_1_" cx="219.5283" cy="-163.8896" r="15.7828" gradientTransform="matrix(1.1922 0 0 -1.1643 -242.2271 -169.1094)" gradientUnits="userSpaceOnUse">
		<stop  offset="0" style="stop-color:#FFFFFF"/>
		<stop  offset="1" style="stop-color:#CFCFCF"/>
	</radialGradient>
	<path id="path137" fill="url(#path137_1_)" d="M18.573,21.622c9.877,0,17.883-4.691,17.883-10.479c0-0.802-0.168-1.579-0.459-2.329
		H3.074c-1.315,0-2.384,1.045-2.384,2.329C0.69,16.931,8.696,21.622,18.573,21.622z"/>
	
		<radialGradient id="ellipse144_1_" cx="262.1934" cy="-156.0205" r="16.7441" gradientTransform="matrix(0.9703 0 0 -1.1643 -237.9304 -169.1094)" gradientUnits="userSpaceOnUse">
		<stop  offset="0" style="stop-color:#555753"/>
		<stop  offset="1" style="stop-color:#BABDB6"/>
	</radialGradient>
	
		<ellipse id="ellipse144" sodipodi:ry="4.0929999" sodipodi:rx="5.8470001" sodipodi:cx="15.75" sodipodi:cy="14.127" fill="url(#ellipse144_1_)" cx="17.837" cy="15.948" rx="6.808" ry="4.766">
	</ellipse>
	
		<radialGradient id="path159_1_" cx="222.333" cy="-155.8984" r="6.1823" gradientTransform="matrix(1.1643 0 0 -1.1643 -241.8622 -169.1094)" gradientUnits="userSpaceOnUse">
		<stop  offset="0" style="stop-color:#FFFFFF"/>
		<stop  offset="0.2609" style="stop-color:#FCFCFC"/>
		<stop  offset="0.4736" style="stop-color:#F2F2F2"/>
		<stop  offset="0.6693" style="stop-color:#E1E1E1"/>
		<stop  offset="0.8538" style="stop-color:#C9C9C9"/>
		<stop  offset="1" style="stop-color:#EEEEEC"/>
	</radialGradient>
	<path id="path159" fill="url(#path159_1_)" d="M12.193,15.948c0,1.951,2.584,3.602,5.644,3.602c3.059,0,5.644-1.65,5.644-3.602
		c0-1.952-2.585-3.602-5.644-3.602C14.778,12.347,12.193,13.997,12.193,15.948z"/>
	
		<linearGradient id="path170_1_" gradientUnits="userSpaceOnUse" x1="262.2715" y1="-151.6182" x2="262.2715" y2="-146.0948" gradientTransform="matrix(1.1643 0 0 -1.1643 -241.8622 -169.1094)">
		<stop  offset="0" style="stop-color:#FFFFFF"/>
		<stop  offset="0.4912" style="stop-color:#D7D7D7"/>
		<stop  offset="0.8791" style="stop-color:#E1E1E1"/>
		<stop  offset="1" style="stop-color:#E6E6E6"/>
	</linearGradient>
	<path id="path170" fill="url(#path170_1_)" d="M124.801,2.935c-0.42-1.261-1.762-2.271-3-2.271H5.2
		c-1.237,0-2.579,1.01-2.999,2.271L1.425,5.263C0.988,6.573,1.672,7.65,2.958,7.65h121.087c1.285,0,1.969-1.077,1.531-2.388
		L124.801,2.935z"/>
	
		<linearGradient id="path179_1_" gradientUnits="userSpaceOnUse" x1="301.1719" y1="-146.6709" x2="301.1719" y2="-150.4074" gradientTransform="matrix(1.1643 0 0 -1.1643 -241.8622 -169.1094)">
		<stop  offset="0" style="stop-color:#FFFFFF"/>
		<stop  offset="1" style="stop-color:#888A85"/>
	</linearGradient>
	<path id="path179" fill="url(#path179_1_)" d="M112.84,1.957c-0.672-0.852-2.304-1.246-3.933-1.246
		c-1.553,0-3.107,0.358-3.831,1.126c-1.329,0.447-2.271,1.177-2.271,2.223c0,1.897,3.104,2.763,5.987,2.763s5.987-0.865,5.987-2.763
		C114.777,3.103,113.99,2.41,112.84,1.957z"/>
	
		<radialGradient id="ellipse186_1_" cx="297.6113" cy="-148.7324" r="9.4934" gradientTransform="matrix(1.1643 0 0 -1.1643 -241.8622 -169.1094)" gradientUnits="userSpaceOnUse">
		<stop  offset="0" style="stop-color:#FFFFFF"/>
		<stop  offset="1" style="stop-color:#A3A3A3"/>
	</radialGradient>
	
		<ellipse id="ellipse186" sodipodi:ry="1.582" sodipodi:rx="4.3509998" sodipodi:cx="93.869003" sodipodi:cy="3.9159999" fill="url(#ellipse186_1_)" cx="108.791" cy="4.06" rx="5.066" ry="1.842">
	</ellipse>
	
		<linearGradient id="ellipse193_1_" gradientUnits="userSpaceOnUse" x1="303.0947" y1="-148.209" x2="299.4452" y2="-147.1663" gradientTransform="matrix(1.1643 0 0 -1.1643 -241.8622 -169.1094)">
		<stop  offset="0" style="stop-color:#888A85"/>
		<stop  offset="1" style="stop-color:#F2F2F2"/>
	</linearGradient>
	
		<ellipse id="ellipse193" sodipodi:ry="1.043" sodipodi:rx="2.8670001" sodipodi:cx="93.968002" sodipodi:cy="2.8729999" fill="url(#ellipse193_1_)" cx="108.906" cy="2.845" rx="3.338" ry="1.214">
	</ellipse>
	
		<linearGradient id="XMLID_4_" gradientUnits="userSpaceOnUse" x1="93.0791" y1="-1.3066" x2="93.0791" y2="3.9238" gradientTransform="matrix(1 0 0 0.8726 0 3.3236)">
		<stop  offset="0" style="stop-color:#FFFFFF"/>
		<stop  offset="1" style="stop-color:#888A85"/>
	</linearGradient>
	<path fill="url(#XMLID_4_)" d="M88.504,4.465c0,1.408,1.753,2.282,4.575,2.282s4.575-0.874,4.575-2.282
		c0-1.407-1.753-2.281-4.575-2.281S88.504,3.058,88.504,4.465z"/>
	
		<radialGradient id="path200_1_" cx="286.1631" cy="-149.8325" r="4.5766" gradientTransform="matrix(1.1643 0 0 -1.1643 -241.8622 -169.1094)" gradientUnits="userSpaceOnUse">
		<stop  offset="0" style="stop-color:#FFFFFF"/>
		<stop  offset="1" style="stop-color:#CFCFCF"/>
	</radialGradient>
	<path id="path200" fill="url(#path200_1_)" d="M89.452,4.132c0,1.115,1.796,1.615,3.575,1.615s3.576-0.5,3.576-1.615
		s-1.797-1.615-3.576-1.615S89.452,3.017,89.452,4.132z"/>
	
		<radialGradient id="ellipse207_1_" cx="287.0537" cy="-148.5967" r="2.825" gradientTransform="matrix(1.1643 0 0 -1.1643 -241.8622 -169.1094)" gradientUnits="userSpaceOnUse">
		<stop  offset="0" style="stop-color:#FFFFFF"/>
		<stop  offset="1" style="stop-color:#CFCFCF"/>
	</radialGradient>
	
		<ellipse id="ellipse207" sodipodi:ry="0.88700002" sodipodi:rx="2.5710001" sodipodi:cx="80.330002" sodipodi:cy="3.9779999" fill="url(#ellipse207_1_)" cx="93.027" cy="4.131" rx="2.994" ry="1.033">
	</ellipse>
	
		<linearGradient id="XMLID_5_" gradientUnits="userSpaceOnUse" x1="80.2461" y1="-1.3066" x2="80.2461" y2="3.9238" gradientTransform="matrix(1 0 0 0.8726 0 3.3236)">
		<stop  offset="0" style="stop-color:#FFFFFF"/>
		<stop  offset="1" style="stop-color:#888A85"/>
	</linearGradient>
	<path fill="url(#XMLID_5_)" d="M75.671,4.465c0,1.408,1.753,2.282,4.575,2.282s4.575-0.874,4.575-2.282
		c0-1.407-1.753-2.281-4.575-2.281S75.671,3.058,75.671,4.465z"/>
	
		<radialGradient id="path214_1_" cx="275.1621" cy="-149.8325" r="4.5773" gradientTransform="matrix(1.1643 0 0 -1.1643 -241.8622 -169.1094)" gradientUnits="userSpaceOnUse">
		<stop  offset="0" style="stop-color:#FFFFFF"/>
		<stop  offset="1" style="stop-color:#CFCFCF"/>
	</radialGradient>
	<path id="path214" fill="url(#path214_1_)" d="M76.645,4.132c0,1.115,1.797,1.615,3.576,1.615s3.575-0.5,3.575-1.615
		S82,2.517,80.221,2.517S76.645,3.017,76.645,4.132z"/>
	
		<radialGradient id="ellipse221_1_" cx="276.0527" cy="-148.5967" r="2.8258" gradientTransform="matrix(1.1643 0 0 -1.1643 -241.8622 -169.1094)" gradientUnits="userSpaceOnUse">
		<stop  offset="0" style="stop-color:#FFFFFF"/>
		<stop  offset="1" style="stop-color:#CFCFCF"/>
	</radialGradient>
	
		<ellipse id="ellipse221" sodipodi:ry="0.88700002" sodipodi:rx="2.5710001" sodipodi:cx="69.330002" sodipodi:cy="3.9779999" fill="url(#ellipse221_1_)" cx="80.221" cy="4.131" rx="2.993" ry="1.033">
	</ellipse>
	
		<linearGradient id="XMLID_6_" gradientUnits="userSpaceOnUse" x1="67.4131" y1="-1.3066" x2="67.4131" y2="3.9238" gradientTransform="matrix(1 0 0 0.8726 0 3.3236)">
		<stop  offset="0" style="stop-color:#FFFFFF"/>
		<stop  offset="1" style="stop-color:#888A85"/>
	</linearGradient>
	<path fill="url(#XMLID_6_)" d="M62.838,4.465c0,1.408,1.753,2.282,4.575,2.282s4.575-0.874,4.575-2.282
		c0-1.407-1.753-2.281-4.575-2.281S62.838,3.058,62.838,4.465z"/>
	
		<radialGradient id="path228_1_" cx="264.1631" cy="-149.8325" r="4.5766" gradientTransform="matrix(1.1643 0 0 -1.1643 -241.8622 -169.1094)" gradientUnits="userSpaceOnUse">
		<stop  offset="0" style="stop-color:#FFFFFF"/>
		<stop  offset="1" style="stop-color:#CFCFCF"/>
	</radialGradient>
	<path id="path228" fill="url(#path228_1_)" d="M63.838,4.132c0,1.115,1.797,1.615,3.575,1.615c1.779,0,3.575-0.5,3.575-1.615
		s-1.796-1.615-3.575-1.615C65.635,2.517,63.838,3.017,63.838,4.132z"/>
	
		<radialGradient id="ellipse235_1_" cx="265.0537" cy="-148.5967" r="2.825" gradientTransform="matrix(1.1643 0 0 -1.1643 -241.8622 -169.1094)" gradientUnits="userSpaceOnUse">
		<stop  offset="0" style="stop-color:#FFFFFF"/>
		<stop  offset="1" style="stop-color:#CFCFCF"/>
	</radialGradient>
	
		<ellipse id="ellipse235" sodipodi:ry="0.88700002" sodipodi:rx="2.5710001" sodipodi:cx="58.330002" sodipodi:cy="3.9779999" fill="url(#ellipse235_1_)" cx="67.413" cy="4.131" rx="2.993" ry="1.033">
	</ellipse>
	
		<linearGradient id="path242_1_" gradientUnits="userSpaceOnUse" x1="301.582" y1="-165.314" x2="301.582" y2="-158.9273" gradientTransform="matrix(1.1643 0 0 -1.1643 -241.8622 -169.1094)">
		<stop  offset="0" style="stop-color:#FFFFFF"/>
		<stop  offset="1" style="stop-color:#A3A3A3"/>
	</linearGradient>
	<path id="path242_2_" fill="url(#path242_1_)" d="M99.955,12.584c-1.926,0-3.492,1.566-3.492,3.492v4.657
		c0,1.926,1.566,3.493,3.492,3.493h18.629c1.926,0,3.492-1.567,3.492-3.493v-4.657c0-1.926-1.566-3.492-3.492-3.492H99.955z"/>
	
		<linearGradient id="path242_3_" gradientUnits="userSpaceOnUse" x1="299.5811" y1="-155.9092" x2="302.5812" y2="-164.9095" gradientTransform="matrix(1.1643 0 0 -1.1643 -241.8622 -169.1094)">
		<stop  offset="0" style="stop-color:#FFFFFF"/>
		<stop  offset="1" style="stop-color:#BBBBBB"/>
	</linearGradient>
	<path id="path242" fill="url(#path242_3_)" d="M99.955,13.584c-1.926,0-3.492,1.566-3.492,3.492v4.657
		c0,1.926,1.566,3.493,3.492,3.493h18.629c1.926,0,3.492-1.567,3.492-3.493v-4.657c0-1.926-1.566-3.492-3.492-3.492H99.955z"/>
	
		<radialGradient id="path249_1_" cx="301.5225" cy="-161.8164" r="16.1803" gradientTransform="matrix(1.1643 0 0 -1.1643 -241.8622 -169.1094)" gradientUnits="userSpaceOnUse">
		<stop  offset="0" style="stop-color:#FFFFFF"/>
		<stop  offset="0.6686" style="stop-color:#80B3FF"/>
	</radialGradient>
	<path id="path249" fill="url(#path249_1_)" d="M120.843,21.622c0,1.285-1.044,2.328-2.329,2.328H99.885
		c-1.285,0-2.328-1.043-2.328-2.328v-4.657c0-1.285,1.043-2.329,2.328-2.329h18.629c1.285,0,2.329,1.044,2.329,2.329V21.622z"/>
	<g id="g251" opacity="0.69">
		
			<radialGradient id="path258_1_" cx="292.1406" cy="-161.7778" r="2.7553" gradientTransform="matrix(1.1643 0 0 -1.1643 -241.8622 -169.1094)" gradientUnits="userSpaceOnUse">
			<stop  offset="0" style="stop-color:#DDDDDD"/>
			<stop  offset="1" style="stop-color:#FFFFFF"/>
		</radialGradient>
		<path id="path258" fill="url(#path258_1_)" d="M97.557,16.919v4.657c0,0.972,0.596,1.803,1.44,2.151v-8.959
			C98.152,15.117,97.557,15.948,97.557,16.919z"/>
		
			<radialGradient id="path265_1_" cx="310.9033" cy="-161.7773" r="2.7549" gradientTransform="matrix(1.1643 0 0 -1.1643 -241.8622 -169.1094)" gradientUnits="userSpaceOnUse">
			<stop  offset="0" style="stop-color:#DDDDDD"/>
			<stop  offset="1" style="stop-color:#FFFFFF"/>
		</radialGradient>
		<path id="path265" fill="url(#path265_1_)" d="M119.402,14.769v8.958c0.846-0.349,1.439-1.179,1.439-2.15v-4.657
			C120.843,15.948,120.248,15.118,119.402,14.769z"/>
	</g>
	<path d="M77.417,52.82c-1.654,0-3,1.346-3,3v5.668c0,1.654,1.346,3,3,3h14.166c1.654,0,3-1.346,3-3V55.82c0-1.654-1.346-3-3-3
		H77.417z"/>
	<radialGradient id="XMLID_7_" cx="84.416" cy="58.7378" r="6.5837" gradientUnits="userSpaceOnUse">
		<stop  offset="0" style="stop-color:#00316E"/>
		<stop  offset="0.0169" style="stop-color:#002D79"/>
		<stop  offset="0.108" style="stop-color:#001AB2"/>
		<stop  offset="0.1861" style="stop-color:#000CDC"/>
		<stop  offset="0.2473" style="stop-color:#0003F6"/>
		<stop  offset="0.284" style="stop-color:#0000FF"/>
		<stop  offset="0.3781" style="stop-color:#0003F5"/>
		<stop  offset="0.5395" style="stop-color:#000DD9"/>
		<stop  offset="0.7487" style="stop-color:#001CAD"/>
		<stop  offset="0.9954" style="stop-color:#00316F"/>
		<stop  offset="1" style="stop-color:#00316E"/>
	</radialGradient>
	<circle fill="url(#XMLID_7_)" cx="84.417" cy="58.738" r="6.583"/>
	
		<linearGradient id="path274_1_" gradientUnits="userSpaceOnUse" x1="-114.5137" y1="381.9453" x2="-114.5137" y2="382.8071" gradientTransform="matrix(-1.1643 0 0 1.1643 -24.129 -426.2148)">
		<stop  offset="0" style="stop-color:#FFFFFF"/>
		<stop  offset="0.5229" style="stop-color:#F9F9F9"/>
		<stop  offset="1" style="stop-color:#EEEEEE"/>
	</linearGradient>
	<path id="path274" opacity="0.35" fill="url(#path274_1_)" enable-background="new    " d="M98.118,19.293
		c0-0.49,0.397-0.887,0.887-0.887h20.39c0.491,0,0.887,0.396,0.887,0.887l0,0c0,0.489-0.396,0.887-0.887,0.887h-20.39
		C98.516,20.18,98.118,19.782,98.118,19.293L98.118,19.293z"/>
	<g id="g276">
		<path id="path293" opacity="0.41" fill="#FFFFFF" enable-background="new    " d="M78.048,57.793
			c0.008,0.012,0.012,0.022,0.021,0.036c0.347,0.526,0.875,0.86,1.446,0.978l0.197-1.877L78.048,57.793z M79.392,54.353l0.745,1.286
			l0.613-1.229C80.314,54.256,79.845,54.234,79.392,54.353z M79.062,54.468c-0.115,0.052-0.227,0.108-0.337,0.181
			c-0.188,0.123-0.342,0.275-0.48,0.438l1.309,0.85L79.062,54.468z M82.123,57.397c0.093-0.246,0.146-0.499,0.157-0.76l-1.135,0.06
			L82.123,57.397z M81.593,54.935c-0.231-0.227-0.504-0.4-0.798-0.511l-0.367,1.372L81.593,54.935z M77.729,56.917
			c0.045,0.29,0.141,0.582,0.308,0.85l1.059-0.861L77.729,56.917z M81.845,55.228l-1.037,1.153l1.475,0.223
			c0.007-0.448-0.114-0.9-0.378-1.301C81.887,55.275,81.864,55.254,81.845,55.228z M78.215,55.123
			c-0.345,0.423-0.518,0.951-0.511,1.481l1.659-0.354L78.215,55.123z M80.354,57.234l0.253,1.531c0.22-0.061,0.439-0.148,0.641-0.28
			c0.303-0.199,0.538-0.46,0.711-0.753l-1.547-0.687L80.354,57.234z M79.843,58.847c0.247,0.013,0.496-0.009,0.738-0.074
			l-0.391-1.023L79.843,58.847z"/>
		<path id="path304" opacity="0.3" fill="#FFFFFF" enable-background="new    " d="M83.479,61.077
			c0.013,0.02,0.021,0.044,0.033,0.064c0.643,0.977,1.617,1.59,2.672,1.807l0.365-3.467L83.479,61.077z M85.958,54.724l1.374,2.374
			l1.132-2.271C87.666,54.547,86.793,54.503,85.958,54.724z M85.35,54.938c-0.214,0.096-0.424,0.198-0.625,0.331
			c-0.348,0.227-0.633,0.509-0.89,0.812l2.42,1.566L85.35,54.938z M91.001,60.345c0.173-0.449,0.271-0.921,0.287-1.401l-2.093,0.112
			L91.001,60.345z M90.023,55.798c-0.429-0.416-0.931-0.739-1.474-0.943l-0.676,2.531L90.023,55.798z M82.891,59.46
			c0.083,0.536,0.258,1.073,0.563,1.567l1.957-1.589L82.891,59.46z M90.489,56.338l-1.916,2.136l2.722,0.409
			c0.014-0.825-0.208-1.661-0.697-2.402C90.564,56.428,90.524,56.389,90.489,56.338z M83.783,56.145
			c-0.635,0.78-0.955,1.755-0.942,2.736l3.06-0.652L83.783,56.145z M87.733,60.047l0.469,2.829c0.409-0.115,0.81-0.275,1.184-0.521
			c0.557-0.367,0.995-0.848,1.313-1.385l-2.858-1.271L87.733,60.047z M86.79,63.024c0.456,0.026,0.917-0.017,1.365-0.137
			l-0.726-1.886L86.79,63.024z"/>
	</g>
	<path id="path311" fill="#D3D7CF" d="M41.95,17.877h-5.57v60.674h5.57c1.926,0,3.493-1.568,3.493-3.494V21.37
		C45.443,19.444,43.876,17.877,41.95,17.877z"/>
	
		<linearGradient id="path324_1_" gradientUnits="userSpaceOnUse" x1="245.6074" y1="-186.6558" x2="236.6647" y2="-186.6558" gradientTransform="matrix(1.1643 0 0 -1.1643 -241.8622 -169.1094)">
		<stop  offset="0" style="stop-color:#696969"/>
		<stop  offset="0.0542" style="stop-color:#626262"/>
		<stop  offset="0.4772" style="stop-color:#373737"/>
		<stop  offset="0.8066" style="stop-color:#1C1C1C"/>
		<stop  offset="1" style="stop-color:#121212"/>
	</linearGradient>
	<path id="path324" fill="url(#path324_1_)" d="M41.95,19.042h-5.57v58.344h5.57c1.285,0,2.329-1.043,2.329-2.329V21.37
		C44.279,20.085,43.235,19.042,41.95,19.042z"/>
	
		<linearGradient id="path331_1_" gradientUnits="userSpaceOnUse" x1="208.376" y1="-190.4307" x2="238.9912" y2="-190.4307" gradientTransform="matrix(1.1643 0 0 -1.1643 -241.8622 -169.1094)">
		<stop  offset="0" style="stop-color:#787878"/>
		<stop  offset="1" style="stop-color:#000000"/>
	</linearGradient>
	<path id="path331" fill="url(#path331_1_)" d="M18.609,27.443c-9.724,0-17.618-4.55-17.86-10.213l1.002,66.143l-0.035-2.294
		c2.494,4.024,9.062,6.907,16.796,6.907c9.877,0,17.883-4.69,17.883-10.479V18.054C35.466,23.329,27.859,27.443,18.609,27.443z"/>
	
		<linearGradient id="path360_1_" gradientUnits="userSpaceOnUse" x1="208.375" y1="-192.2285" x2="238.9907" y2="-192.2285" gradientTransform="matrix(1.1643 0 0 -1.1643 -241.8622 -169.1094)">
		<stop  offset="0" style="stop-color:#000000"/>
		<stop  offset="0.236" style="stop-color:#4D4D4D"/>
		<stop  offset="0.427" style="stop-color:#969696"/>
		<stop  offset="0.5169" style="stop-color:#D3D7CF"/>
		<stop  offset="0.618" style="stop-color:#BBBBBB"/>
		<stop  offset="0.736" style="stop-color:#575757"/>
		<stop  offset="1" style="stop-color:#000000"/>
	</linearGradient>
	<path id="path360" fill="url(#path360_1_)" d="M2.874,80.682c2.464,3.678,8.681,6.141,15.639,6.141
		c9.063,0,16.718-4.265,16.718-9.314c0,0,0-47.067,0-54.873c-3.264,3.582-9.495,5.973-16.622,5.973
		c-7.222,0-13.389-2.43-16.615-6.026C2.125,31.247,2.807,76.175,2.874,80.682z M1.717,79.914"/>
	<g id="g362" opacity="0.5">
		<path id="path364" fill="#FFFFFF" d="M115.156,14.657h-0.451c1.066,1.259,1.713,2.884,1.713,4.657
			c0,1.772-0.646,3.398-1.713,4.657h0.452c1.005-1.286,1.61-2.898,1.61-4.657C116.768,17.555,116.162,15.942,115.156,14.657z
			 M103.243,14.657c-1.006,1.285-1.611,2.898-1.611,4.657c0,1.758,0.605,3.371,1.61,4.657h0.451
			c-1.064-1.259-1.713-2.883-1.713-4.657s0.648-3.398,1.715-4.657H103.243z"/>
		<path id="path366" fill="#FFFFFF" d="M116.576,14.657h-0.412c0.896,1.333,1.418,2.935,1.418,4.657
			c0,1.722-0.521,3.322-1.416,4.657h0.412c0.852-1.349,1.354-2.942,1.354-4.657C117.932,17.601,117.43,16.007,116.576,14.657z
			 M101.822,14.657c-0.854,1.35-1.355,2.943-1.355,4.657s0.502,3.308,1.355,4.657h0.412c-0.895-1.333-1.418-2.936-1.418-4.657
			c0-1.723,0.523-3.324,1.418-4.657H101.822z"/>
		<path id="path368" fill="#FFFFFF" d="M117.931,14.657h-0.405c0.774,1.38,1.222,2.965,1.222,4.657c0,1.691-0.447,3.277-1.222,4.657
			h0.405c0.743-1.388,1.165-2.973,1.165-4.657S118.672,16.045,117.931,14.657z M100.469,14.657
			c-0.743,1.388-1.166,2.973-1.166,4.657s0.423,3.27,1.166,4.657h0.405c-0.774-1.38-1.222-2.966-1.222-4.657
			c0-1.692,0.447-3.277,1.222-4.657H100.469z"/>
		<path id="path370" fill="#FFFFFF" d="M113.842,14.924l-0.262,0.261c1.027,1.08,1.674,2.522,1.674,4.13
			c0,1.625-0.658,3.085-1.709,4.17l0.26,0.26c1.108-1.15,1.799-2.706,1.799-4.43C115.604,17.609,114.928,16.07,113.842,14.924z
			 M104.918,15.077l-0.259-0.26c-1.146,1.157-1.864,2.74-1.864,4.497c0,1.775,0.73,3.375,1.9,4.534l0.263-0.262
			c-1.11-1.093-1.813-2.595-1.813-4.272C103.146,17.656,103.83,16.168,104.918,15.077z"/>
		<path id="path372" fill="#FFFFFF" d="M113.006,15.76l-0.249,0.248c0.818,0.868,1.331,2.022,1.331,3.308
			c0,1.304-0.525,2.476-1.366,3.348l0.247,0.246c0.902-0.935,1.469-2.19,1.469-3.594C114.438,17.933,113.886,16.691,113.006,15.76z
			 M105.726,15.886l-0.243-0.244c-0.947,0.942-1.545,2.231-1.545,3.674c0,1.461,0.611,2.765,1.582,3.711l0.24-0.241
			c-0.908-0.882-1.476-2.106-1.476-3.47C104.285,17.971,104.841,16.765,105.726,15.886z"/>
		<path id="path374" fill="#FFFFFF" d="M112.203,16.562l-0.248,0.248c0.597,0.66,0.969,1.526,0.969,2.484
			c0,0.987-0.393,1.881-1.021,2.548l0.248,0.248c0.692-0.73,1.123-1.71,1.123-2.796C113.273,18.238,112.861,17.286,112.203,16.562z
			 M106.537,16.695l-0.248-0.248c-0.72,0.735-1.166,1.738-1.166,2.847c0,1.139,0.47,2.166,1.223,2.906l0.25-0.248
			c-0.691-0.678-1.123-1.617-1.123-2.658C105.473,18.282,105.881,17.367,106.537,16.695z"/>
		<path id="path376" fill="#FFFFFF" d="M111.381,17.385l-0.248,0.248c0.385,0.448,0.627,1.024,0.627,1.661
			c0,0.666-0.263,1.27-0.681,1.725l0.247,0.248c0.482-0.52,0.783-1.208,0.783-1.973C112.109,18.56,111.828,17.897,111.381,17.385z
			 M107.36,17.519l-0.248-0.248c-0.509,0.524-0.825,1.236-0.825,2.023c0,0.817,0.34,1.554,0.882,2.083l0.248-0.248
			c-0.479-0.465-0.78-1.115-0.78-1.835C106.637,18.604,106.914,17.979,107.36,17.519z"/>
		<path id="path378" fill="#FFFFFF" d="M110.557,18.208l-0.262,0.261c0.176,0.234,0.301,0.51,0.301,0.824
			c0,0.345-0.139,0.651-0.348,0.895l0.256,0.255c0.271-0.308,0.441-0.707,0.441-1.149C110.945,18.881,110.796,18.507,110.557,18.208
			z M108.186,18.345l-0.25-0.251c-0.299,0.313-0.483,0.735-0.483,1.2c0,0.496,0.21,0.942,0.54,1.26l0.252-0.25
			c-0.27-0.255-0.443-0.61-0.443-1.01C107.801,18.926,107.95,18.595,108.186,18.345z"/>
	</g>
	<g>
		<g>
			<path fill="#555753" d="M75.603,48.822c-0.092,0.079-0.234,0.036-0.395-0.147c-0.156-0.18-0.176-0.334-0.082-0.416
				c0.093-0.081,0.235-0.028,0.388,0.146C75.69,48.606,75.689,48.746,75.603,48.822L75.603,48.822z M75.56,48.764
				c0.069-0.061-0.016-0.194-0.108-0.303c-0.09-0.101-0.213-0.204-0.283-0.144c-0.07,0.062,0.015,0.199,0.104,0.302
				C75.363,48.725,75.488,48.826,75.56,48.764L75.56,48.764z"/>
			<path fill="#555753" d="M76.179,48.336l-0.158-0.097c-0.037-0.021-0.07-0.042-0.114-0.07l-0.002,0.002
				c0.018,0.048,0.033,0.089,0.046,0.128l0.058,0.173l-0.066,0.051l-0.111-0.38l-0.332-0.187l0.066-0.054l0.155,0.091
				c0.031,0.018,0.062,0.036,0.104,0.063l0.002-0.002c-0.018-0.05-0.029-0.081-0.042-0.116l-0.056-0.165l0.064-0.052l0.108,0.362
				l0.346,0.198L76.179,48.336z"/>
			<path fill="#555753" d="M76.133,47.469l0.425,0.584l-0.066,0.048l-0.424-0.583L76.133,47.469z"/>
			<path fill="#555753" d="M76.436,47.257l0.067-0.046l0.19,0.283h0.002c-0.003-0.034-0.006-0.065-0.011-0.097l-0.03-0.288
				l0.076-0.05l0.024,0.354l0.379,0.243l-0.073,0.049l-0.316-0.206l0.005,0.08l0.155,0.23l-0.068,0.045L76.436,47.257z"/>
			<path fill="#555753" d="M77.507,47.437c-0.104,0.062-0.237-0.006-0.363-0.215c-0.123-0.204-0.114-0.36-0.007-0.424
				c0.105-0.064,0.237,0.013,0.355,0.21c0.139,0.23,0.113,0.368,0.015,0.427V47.437z M77.474,47.37
				c0.079-0.047,0.02-0.194-0.053-0.315c-0.07-0.116-0.174-0.239-0.253-0.191s-0.021,0.197,0.05,0.314
				C77.289,47.299,77.394,47.419,77.474,47.37L77.474,47.37z"/>
			<path fill="#555753" d="M77.623,46.538c0.026-0.024,0.062-0.048,0.098-0.068c0.062-0.032,0.118-0.045,0.168-0.03
				c0.049,0.016,0.084,0.051,0.11,0.101c0.044,0.082,0.034,0.154-0.014,0.219v0.001c0.056-0.011,0.104,0.022,0.162,0.099
				c0.062,0.077,0.103,0.126,0.122,0.141l-0.072,0.039c-0.021-0.014-0.065-0.066-0.119-0.139c-0.061-0.08-0.105-0.098-0.167-0.064
				l-0.028,0.016l0.146,0.276l-0.072,0.039L77.623,46.538z M77.852,46.793l0.031-0.016c0.07-0.037,0.088-0.112,0.048-0.188
				c-0.039-0.072-0.095-0.104-0.174-0.062c-0.013,0.008-0.026,0.017-0.035,0.024L77.852,46.793z"/>
			<path fill="#555753" d="M78.585,46.047l0.075-0.033l0.263,0.597l0.187-0.082l0.027,0.062l-0.261,0.116L78.585,46.047z"/>
			<path fill="#555753" d="M79.534,46.063l-0.168,0.064l0.099,0.252l0.191-0.074l0.025,0.067l-0.269,0.104l-0.262-0.671l0.257-0.101
				l0.026,0.067l-0.181,0.07l0.087,0.221l0.168-0.066L79.534,46.063z"/>
			<path fill="#555753" d="M79.971,46.268l-0.229-0.684l0.073-0.023l0.233,0.277c0.054,0.065,0.118,0.144,0.167,0.21l0.001-0.001
				c-0.042-0.105-0.074-0.192-0.113-0.311l-0.082-0.245l0.07-0.023l0.229,0.684l-0.073,0.024l-0.239-0.286
				c-0.052-0.06-0.107-0.127-0.16-0.204h-0.003c0.038,0.09,0.068,0.176,0.117,0.323l0.079,0.235L79.971,46.268z"/>
			<path fill="#555753" d="M80.607,45.965c0.028,0.008,0.073,0.009,0.108,0c0.072-0.021,0.101-0.079,0.082-0.149
				c-0.018-0.064-0.065-0.093-0.133-0.119c-0.063-0.022-0.158-0.066-0.184-0.156c-0.029-0.105,0.023-0.203,0.132-0.233
				c0.043-0.013,0.085-0.008,0.104-0.001v0.072c-0.021-0.007-0.053-0.011-0.088,0c-0.069,0.019-0.086,0.079-0.072,0.127
				c0.019,0.068,0.062,0.086,0.141,0.114c0.101,0.035,0.155,0.088,0.178,0.166c0.033,0.12-0.031,0.219-0.141,0.25
				c-0.049,0.013-0.103,0.011-0.126,0.001L80.607,45.965z"/>
			<path fill="#555753" d="M81.999,45.115h-0.002L81.894,45.2l-0.026-0.06l0.13-0.11l0.066-0.011l0.118,0.686l-0.08,0.014
				L81.999,45.115z"/>
			<path fill="#555753" d="M82.56,45.647l-0.007-0.053l0.048-0.086c0.069-0.124,0.149-0.268,0.134-0.396
				c-0.01-0.077-0.049-0.12-0.113-0.111c-0.05,0.006-0.079,0.036-0.095,0.051l-0.027-0.06c0.022-0.024,0.066-0.056,0.129-0.063
				c0.114-0.014,0.175,0.064,0.188,0.169c0.016,0.13-0.054,0.266-0.125,0.393l-0.039,0.069v0.002l0.23-0.028l0.009,0.072
				L82.56,45.647z"/>
			<path fill="#555753" d="M83.179,45.191c-0.004-0.062-0.009-0.093-0.013-0.135l0.072-0.004l0.008,0.062h0.003
				c0.02-0.043,0.056-0.076,0.11-0.079c0.049-0.004,0.092,0.017,0.113,0.071h0.002c0.013-0.027,0.03-0.049,0.048-0.062
				c0.02-0.015,0.043-0.022,0.069-0.024c0.071-0.004,0.128,0.042,0.137,0.175l0.023,0.343l-0.082,0.005l-0.022-0.324
				c-0.004-0.067-0.018-0.131-0.079-0.128c-0.035,0.002-0.062,0.033-0.071,0.083c-0.002,0.013-0.001,0.029,0,0.046l0.021,0.334
				l-0.082,0.004l-0.022-0.338c-0.004-0.058-0.018-0.117-0.079-0.113c-0.032,0.002-0.064,0.034-0.07,0.089
				c-0.002,0.014-0.002,0.028-0.001,0.044l0.022,0.33l-0.083,0.004L83.179,45.191z"/>
			<path fill="#555753" d="M84.098,45.139c0.002-0.062-0.001-0.093-0.001-0.135l0.073,0.002l0.002,0.063h0.002
				c0.023-0.042,0.062-0.072,0.116-0.07c0.05,0.001,0.091,0.023,0.109,0.08h0.002c0.013-0.025,0.033-0.047,0.051-0.059
				c0.021-0.012,0.046-0.019,0.072-0.018c0.07,0.001,0.124,0.052,0.122,0.185l-0.006,0.344l-0.082-0.002l0.006-0.325
				c0.001-0.067-0.008-0.132-0.07-0.134c-0.034,0-0.064,0.028-0.077,0.077c-0.004,0.013-0.004,0.029-0.004,0.046l-0.005,0.334
				l-0.083-0.001l0.006-0.34c0-0.058-0.008-0.119-0.069-0.119c-0.034-0.001-0.068,0.026-0.078,0.083
				c-0.002,0.012-0.003,0.027-0.003,0.044l-0.007,0.328h-0.081L84.098,45.139z"/>
			<path fill="#555753" d="M85.185,45.239l-0.004,0.062l-0.233-0.012l0.004-0.063L85.185,45.239z"/>
			<path fill="#555753" d="M85.668,45.59l0.018-0.192l-0.229-0.021l0.005-0.056l0.267-0.424l0.08,0.008l-0.04,0.434l0.073,0.007
				l-0.005,0.067l-0.075-0.008l-0.018,0.192L85.668,45.59z M85.692,45.332l0.019-0.196c0.004-0.048,0.012-0.09,0.019-0.136h-0.004
				c-0.028,0.053-0.046,0.083-0.07,0.125l-0.115,0.189v0.002L85.692,45.332z"/>
			<path fill="#555753" d="M86.236,45.666c-0.107-0.016-0.153-0.152-0.122-0.376c0.033-0.233,0.119-0.344,0.231-0.329
				c0.11,0.017,0.151,0.157,0.119,0.376C86.43,45.589,86.337,45.679,86.236,45.666L86.236,45.666z M86.252,45.597
				c0.066,0.01,0.107-0.104,0.132-0.27c0.022-0.161,0.014-0.287-0.053-0.297c-0.065-0.009-0.111,0.104-0.135,0.27
				C86.172,45.466,86.184,45.587,86.252,45.597L86.252,45.597z"/>
			<path fill="#555753" d="M86.845,45.766c-0.107-0.021-0.146-0.158-0.104-0.381c0.043-0.231,0.134-0.339,0.245-0.317
				c0.11,0.021,0.144,0.163,0.103,0.381C87.041,45.696,86.942,45.784,86.845,45.766L86.845,45.766z M86.862,45.696
				c0.065,0.014,0.114-0.099,0.145-0.263c0.029-0.159,0.026-0.285-0.038-0.298c-0.066-0.013-0.117,0.098-0.147,0.263
				c-0.033,0.165-0.026,0.286,0.039,0.298H86.862z"/>
			<path fill="#555753" d="M87.427,45.483c0.015-0.06,0.019-0.09,0.027-0.13l0.07,0.018l-0.011,0.062h0.002
				c0.032-0.035,0.077-0.055,0.13-0.042c0.047,0.013,0.081,0.044,0.087,0.104h0.002c0.02-0.021,0.043-0.037,0.063-0.045
				c0.023-0.008,0.048-0.008,0.074-0.001c0.067,0.018,0.108,0.079,0.076,0.208l-0.082,0.332l-0.08-0.02l0.078-0.315
				c0.018-0.064,0.022-0.131-0.036-0.146c-0.034-0.009-0.07,0.013-0.094,0.057c-0.006,0.012-0.01,0.027-0.015,0.044l-0.081,0.324
				l-0.079-0.02l0.083-0.331c0.013-0.055,0.019-0.116-0.04-0.131c-0.034-0.008-0.072,0.013-0.096,0.062
				c-0.006,0.014-0.01,0.026-0.015,0.042l-0.079,0.321l-0.08-0.021L87.427,45.483z"/>
			<path fill="#555753" d="M88.287,45.71c0.019-0.059,0.024-0.088,0.036-0.13l0.069,0.023l-0.016,0.062l0.003,0.001
				c0.033-0.033,0.08-0.051,0.132-0.033c0.046,0.015,0.079,0.048,0.08,0.107h0.002c0.021-0.02,0.044-0.034,0.066-0.04
				c0.023-0.006,0.048-0.005,0.073,0.003c0.068,0.021,0.104,0.086,0.063,0.213l-0.104,0.326l-0.079-0.024l0.101-0.311
				c0.02-0.063,0.03-0.13-0.029-0.147c-0.031-0.011-0.07,0.007-0.095,0.051c-0.008,0.011-0.013,0.026-0.018,0.043l-0.102,0.317
				l-0.079-0.023l0.104-0.326c0.017-0.053,0.026-0.114-0.032-0.133c-0.031-0.01-0.073,0.008-0.099,0.058
				c-0.007,0.012-0.012,0.025-0.017,0.04l-0.1,0.314l-0.079-0.026L88.287,45.71z"/>
			<path fill="#555753" d="M91.162,46.684l-0.001-0.003l-0.135,0.003l0.018-0.064l0.171-0.003l0.059,0.032l-0.34,0.607l-0.069-0.04
				L91.162,46.684z"/>
			<path fill="#555753" d="M91.318,47.492c-0.026-0.016-0.033-0.049-0.014-0.081c0.019-0.031,0.053-0.04,0.078-0.024
				c0.028,0.018,0.034,0.05,0.015,0.081C91.379,47.501,91.348,47.51,91.318,47.492L91.318,47.492z"/>
			<path fill="#555753" d="M91.679,47.604c0.011,0.021,0.033,0.057,0.066,0.079c0.061,0.04,0.13,0.023,0.178-0.049
				c0.05-0.074,0.032-0.151-0.037-0.197l-0.016-0.01l0.033-0.052l0.015,0.009c0.041,0.027,0.124,0.038,0.173-0.033
				c0.039-0.06,0.028-0.11-0.018-0.141c-0.027-0.02-0.062-0.022-0.091-0.021l0.021-0.06c0.031-0.005,0.081,0.006,0.125,0.035
				c0.081,0.055,0.089,0.144,0.039,0.218c-0.039,0.059-0.104,0.091-0.178,0.078l-0.001,0.003c0.043,0.048,0.062,0.127,0,0.22
				c-0.062,0.093-0.174,0.129-0.277,0.059c-0.039-0.023-0.072-0.063-0.085-0.094L91.679,47.604z"/>
			<path fill="#555753" d="M92.187,48.072c-0.024-0.018-0.027-0.051-0.007-0.079c0.02-0.028,0.055-0.035,0.079-0.018
				c0.025,0.018,0.028,0.051,0.007,0.08C92.245,48.084,92.215,48.092,92.187,48.072L92.187,48.072z M92.417,47.754
				c-0.024-0.018-0.028-0.051-0.008-0.079c0.021-0.029,0.055-0.035,0.079-0.018c0.026,0.02,0.029,0.052,0.008,0.081
				C92.476,47.767,92.445,47.775,92.417,47.754L92.417,47.754z"/>
			<path fill="#555753" d="M92.538,48.211c0.009,0.024,0.028,0.06,0.062,0.086c0.056,0.044,0.126,0.032,0.179-0.035
				c0.057-0.07,0.044-0.148-0.021-0.2l-0.016-0.011l0.038-0.05l0.013,0.01c0.039,0.031,0.122,0.049,0.176-0.02
				c0.043-0.057,0.036-0.107-0.007-0.141c-0.026-0.022-0.062-0.026-0.088-0.028l0.024-0.06c0.031,0,0.081,0.013,0.122,0.046
				c0.077,0.062,0.078,0.149,0.022,0.22c-0.044,0.056-0.11,0.082-0.184,0.066l-0.001,0.001c0.039,0.052,0.051,0.133-0.017,0.219
				c-0.07,0.088-0.185,0.116-0.283,0.037c-0.035-0.026-0.065-0.068-0.076-0.101L92.538,48.211z"/>
			<path fill="#555753" d="M93.006,48.717c-0.023-0.021-0.025-0.054-0.001-0.082s0.06-0.031,0.081-0.012
				c0.025,0.021,0.026,0.054,0.003,0.082C93.064,48.734,93.032,48.739,93.006,48.717L93.006,48.717z"/>
			<path fill="#555753" d="M93.28,48.945l0.038-0.04l0.096-0.02c0.14-0.027,0.299-0.058,0.388-0.154
				c0.053-0.057,0.06-0.114,0.012-0.158c-0.037-0.033-0.08-0.036-0.101-0.039l0.027-0.06c0.031,0.002,0.086,0.016,0.132,0.057
				c0.085,0.079,0.063,0.176-0.007,0.253c-0.089,0.097-0.238,0.132-0.38,0.158l-0.078,0.017l-0.001,0.001l0.169,0.157l-0.048,0.054
				L93.28,48.945z"/>
		</g>
		<g>
			<path fill="#555753" d="M91.199,70.345c0.103-0.062,0.236,0.008,0.361,0.215c0.122,0.206,0.114,0.36,0.007,0.425
				c-0.105,0.063-0.237-0.014-0.354-0.211C91.074,70.542,91.099,70.405,91.199,70.345L91.199,70.345z M91.231,70.41
				c-0.08,0.048-0.021,0.195,0.053,0.316c0.069,0.115,0.172,0.24,0.251,0.192c0.081-0.048,0.022-0.197-0.048-0.315
				C91.416,70.482,91.312,70.362,91.231,70.41L91.231,70.41z"/>
			<path fill="#555753" d="M90.541,70.724l0.14,0.122c0.032,0.028,0.062,0.055,0.099,0.09l0.003-0.001
				c-0.008-0.051-0.016-0.094-0.022-0.133l-0.026-0.181l0.075-0.04l0.044,0.395l0.292,0.243l-0.076,0.041l-0.136-0.116
				c-0.026-0.023-0.054-0.049-0.091-0.082H90.84c0.009,0.053,0.015,0.087,0.021,0.124l0.024,0.172l-0.073,0.04l-0.042-0.377
				l-0.306-0.256L90.541,70.724z"/>
			<path fill="#555753" d="M90.446,71.577l-0.314-0.649l0.075-0.035l0.314,0.648L90.446,71.577z"/>
			<path fill="#555753" d="M90.097,71.739l-0.074,0.032l-0.137-0.312h-0.002c-0.002,0.034-0.005,0.066-0.007,0.098l-0.021,0.288
				l-0.085,0.036l0.04-0.353l-0.331-0.307l0.081-0.035l0.275,0.259l0.009-0.079l-0.111-0.255l0.076-0.033L90.097,71.739z"/>
			<path fill="#555753" d="M89.078,71.37c0.112-0.042,0.232,0.049,0.319,0.275c0.083,0.223,0.049,0.375-0.068,0.42
				c-0.115,0.043-0.23-0.057-0.313-0.271C88.92,71.542,88.97,71.411,89.078,71.37L89.078,71.37z M89.099,71.441
				c-0.086,0.031-0.053,0.188-0.004,0.319c0.048,0.127,0.128,0.266,0.215,0.233c0.086-0.033,0.056-0.19,0.007-0.317
				C89.268,71.544,89.187,71.407,89.099,71.441L89.099,71.441z"/>
			<path fill="#555753" d="M88.814,72.228c-0.03,0.021-0.069,0.038-0.108,0.05c-0.068,0.022-0.123,0.024-0.171,0.001
				c-0.045-0.022-0.073-0.064-0.091-0.118c-0.027-0.088-0.006-0.157,0.053-0.213v-0.002c-0.056,0.001-0.098-0.039-0.142-0.124
				c-0.046-0.089-0.078-0.143-0.095-0.16l0.079-0.026c0.017,0.018,0.051,0.079,0.091,0.157c0.046,0.09,0.086,0.115,0.153,0.094
				l0.03-0.011l-0.095-0.298l0.077-0.025L88.814,72.228z M88.635,71.937l-0.033,0.011c-0.075,0.024-0.106,0.096-0.08,0.179
				c0.025,0.078,0.073,0.117,0.158,0.091c0.016-0.004,0.03-0.011,0.039-0.018L88.635,71.937z"/>
			<path fill="#555753" d="M87.764,72.546l-0.08,0.019l-0.151-0.633l-0.196,0.047l-0.017-0.068l0.276-0.065L87.764,72.546z"/>
			<path fill="#555753" d="M86.84,72.357l0.178-0.035l-0.052-0.266l-0.2,0.039l-0.015-0.07l0.282-0.055l0.138,0.709L86.9,72.731
				l-0.014-0.07l0.189-0.036l-0.045-0.234l-0.177,0.035L86.84,72.357z"/>
			<path fill="#555753" d="M86.454,72.076l0.103,0.713l-0.077,0.012l-0.179-0.315c-0.041-0.073-0.092-0.163-0.127-0.236
				l-0.002,0.001c0.021,0.111,0.039,0.202,0.057,0.326l0.037,0.255l-0.074,0.011l-0.103-0.713l0.077-0.011l0.185,0.323
				c0.04,0.067,0.083,0.145,0.12,0.229h0.003c-0.021-0.095-0.036-0.185-0.058-0.338l-0.035-0.246L86.454,72.076z"/>
			<path fill="#555753" d="M85.768,72.262c-0.026-0.013-0.07-0.022-0.106-0.02c-0.075,0.008-0.114,0.061-0.108,0.133
				c0.006,0.066,0.049,0.104,0.109,0.141c0.061,0.034,0.145,0.094,0.153,0.186c0.01,0.109-0.06,0.197-0.172,0.207
				c-0.046,0.004-0.086-0.007-0.104-0.018l0.013-0.071c0.021,0.011,0.051,0.02,0.088,0.017c0.07-0.007,0.098-0.062,0.094-0.112
				c-0.007-0.071-0.046-0.097-0.119-0.139c-0.092-0.053-0.136-0.115-0.144-0.194c-0.011-0.124,0.068-0.21,0.183-0.22
				c0.049-0.006,0.104,0.006,0.124,0.02L85.768,72.262z"/>
			<path fill="#555753" d="M83.943,72.543c0.003,0.095,0.006,0.201,0.002,0.283h0.004c0.018-0.081,0.039-0.166,0.063-0.25
				l0.093-0.336l0.054,0.001l0.077,0.325c0.023,0.093,0.042,0.182,0.057,0.265l0.003,0.001c0-0.084,0.007-0.186,0.013-0.287
				l0.021-0.305l0.073,0.001l-0.056,0.72l-0.091-0.001l-0.076-0.331c-0.023-0.096-0.041-0.167-0.054-0.249h-0.004
				c-0.016,0.082-0.033,0.15-0.057,0.247l-0.088,0.327l-0.093-0.001l-0.028-0.722l0.077,0.002L83.943,72.543z"/>
			<path fill="#555753" d="M83.26,72.312c0.002-0.04,0.005-0.085,0.002-0.117l0.073,0.005l0.002,0.055h0.003
				c0.026-0.038,0.063-0.059,0.107-0.056c0.069,0.006,0.119,0.067,0.112,0.156c-0.01,0.131-0.117,0.179-0.234,0.173l-0.001,0.015
				c-0.004,0.07,0.01,0.119,0.075,0.124c0.031,0.003,0.062-0.005,0.087-0.021l0.014,0.059c-0.024,0.015-0.071,0.029-0.123,0.026
				c-0.104-0.008-0.143-0.079-0.134-0.194L83.26,72.312z M83.328,72.468c0.042,0.003,0.143,0.002,0.15-0.11
				c0.005-0.069-0.026-0.095-0.057-0.097c-0.036-0.002-0.067,0.022-0.081,0.072c-0.003,0.011-0.004,0.021-0.006,0.03L83.328,72.468z
				"/>
			<path fill="#555753" d="M82.527,72.858l0.073-0.61c0.004-0.035,0.007-0.095,0.011-0.124l0.069,0.009l-0.001,0.063l0.003,0.001
				c0.021-0.034,0.062-0.066,0.116-0.06c0.087,0.01,0.139,0.111,0.119,0.281c-0.022,0.183-0.107,0.259-0.187,0.25
				c-0.039-0.005-0.073-0.026-0.087-0.073h-0.003l-0.032,0.274L82.527,72.858z M82.658,72.453c0,0.01-0.002,0.022-0.002,0.034
				c-0.002,0.054,0.025,0.104,0.064,0.108c0.067,0.008,0.103-0.083,0.114-0.187c0.014-0.108-0.004-0.199-0.063-0.205
				c-0.025-0.004-0.062,0.006-0.089,0.078c-0.005,0.01-0.006,0.021-0.008,0.033L82.658,72.453z"/>
			<path fill="#555753" d="M82.206,72.319c0.024-0.158-0.031-0.2-0.09-0.21c-0.036-0.007-0.065-0.002-0.088,0.004l-0.003-0.061
				c0.031-0.012,0.076-0.013,0.116-0.006c0.122,0.021,0.169,0.131,0.144,0.288c-0.029,0.164-0.114,0.257-0.218,0.239
				c-0.104-0.017-0.128-0.133-0.107-0.248c0.003-0.021,0.006-0.034,0.01-0.047L82.206,72.319z M82.035,72.353
				c-0.019,0.102,0.013,0.153,0.052,0.16c0.053,0.009,0.094-0.065,0.107-0.134L82.035,72.353z"/>
			<path fill="#555753" d="M81.157,72.464c0.026,0.006,0.041,0.032,0.033,0.063c-0.007,0.031-0.033,0.047-0.06,0.041
				c-0.028-0.008-0.042-0.032-0.035-0.063C81.104,72.473,81.127,72.458,81.157,72.464L81.157,72.464z M81.332,71.892l-0.119,0.503
				l-0.08-0.019l0.119-0.504L81.332,71.892z"/>
			<path fill="#555753" d="M80.822,72.161c-0.017,0.058-0.021,0.089-0.032,0.13l-0.069-0.021l0.013-0.061l-0.003-0.001
				c-0.032,0.035-0.079,0.051-0.132,0.036c-0.07-0.02-0.107-0.084-0.072-0.205l0.094-0.335l0.079,0.022l-0.09,0.321
				c-0.017,0.06-0.021,0.122,0.036,0.138c0.032,0.01,0.072-0.01,0.097-0.061c0.006-0.01,0.011-0.025,0.017-0.043l0.088-0.314
				l0.079,0.022L80.822,72.161z"/>
			<path fill="#555753" d="M79.623,72.138l0.242-0.679l0.076,0.027l-0.24,0.679L79.623,72.138z"/>
			<path fill="#555753" d="M79.219,71.897l0.044-0.113l-0.092-0.036l0.021-0.059l0.094,0.037l0.113-0.286
				c0.023-0.064,0.009-0.088-0.02-0.101c-0.013-0.004-0.022-0.008-0.031-0.009l0.02-0.061c0.016,0.001,0.035,0.005,0.06,0.015
				c0.03,0.012,0.055,0.03,0.063,0.06c0.011,0.029,0.008,0.065-0.019,0.133l-0.111,0.279l0.06,0.022l-0.023,0.059l-0.058-0.024
				l-0.033,0.083L79.219,71.897z"/>
			<path fill="#555753" d="M78.795,71.149c0.018-0.035,0.035-0.076,0.044-0.109l0.066,0.03l-0.018,0.052l0.004,0.003
				c0.037-0.028,0.079-0.034,0.119-0.017c0.063,0.027,0.09,0.102,0.052,0.185c-0.053,0.118-0.17,0.128-0.276,0.082l-0.007,0.015
				c-0.028,0.063-0.032,0.115,0.027,0.142c0.029,0.013,0.061,0.017,0.089,0.01l-0.007,0.061c-0.026,0.006-0.076,0.003-0.125-0.018
				c-0.095-0.043-0.106-0.122-0.06-0.229L78.795,71.149z M78.808,71.321c0.039,0.017,0.134,0.05,0.178-0.054
				c0.029-0.062,0.007-0.098-0.02-0.11c-0.033-0.014-0.071-0.001-0.101,0.041c-0.006,0.009-0.012,0.018-0.016,0.026L78.808,71.321z"
				/>
			<path fill="#555753" d="M78.221,71.568l-0.073-0.036l0.326-0.665l0.073,0.035L78.221,71.568z"/>
			<path fill="#555753" d="M77.896,71.154l0.08-0.295c0.012-0.04,0.023-0.071,0.032-0.104l-0.001-0.002
				c-0.02,0.024-0.046,0.055-0.07,0.083l-0.195,0.233l-0.072-0.038l0.232-0.253c0.09-0.099,0.18-0.192,0.271-0.233
				c0.055-0.023,0.099-0.025,0.119-0.024l-0.006,0.074c-0.027,0.003-0.062,0.009-0.096,0.024c-0.032,0.015-0.064,0.036-0.083,0.055
				c-0.01,0.008-0.013,0.014-0.017,0.021c-0.003,0.005-0.006,0.011-0.006,0.018l-0.112,0.482L77.896,71.154z"/>
		</g>
	</g>
	<linearGradient id="XMLID_8_" gradientUnits="userSpaceOnUse" x1="73.417" y1="58.6543" x2="95.583" y2="58.6543">
		<stop  offset="0" style="stop-color:#1C1C1C"/>
		<stop  offset="0.1202" style="stop-color:#3D3E3C"/>
		<stop  offset="0.288" style="stop-color:#666764"/>
		<stop  offset="0.4205" style="stop-color:#7F817C"/>
		<stop  offset="0.5" style="stop-color:#888A85"/>
		<stop  offset="0.5812" style="stop-color:#7E807B"/>
		<stop  offset="0.7203" style="stop-color:#636461"/>
		<stop  offset="0.8995" style="stop-color:#373837"/>
		<stop  offset="1" style="stop-color:#1C1C1C"/>
	</linearGradient>
	<path fill="url(#XMLID_8_)" d="M91.583,51.82H77.417c-2.209,0-4,1.791-4,4v5.668c0,2.209,1.791,4,4,4h14.166c2.209,0,4-1.791,4-4
		V55.82C95.583,53.611,93.792,51.82,91.583,51.82z M93.583,61.488c0,1.103-0.897,2-2,2H77.417c-1.103,0-2-0.897-2-2V55.82
		c0-1.103,0.897-2,2-2h14.166c1.103,0,2,0.897,2,2V61.488z"/>
</g>
<g>
	<path opacity="0.1" d="M60.894,94.197c0,18.363,14.94,33.303,33.303,33.303S127.5,112.561,127.5,94.197
		s-14.939-33.302-33.303-33.302S60.894,75.834,60.894,94.197z"/>
	<path opacity="0.15" d="M61.894,94.197c0,17.812,14.491,32.303,32.303,32.303c17.812,0,32.303-14.491,32.303-32.303
		c0-17.811-14.491-32.302-32.303-32.302C76.385,61.896,61.894,76.387,61.894,94.197z"/>
	
		<circle sodipodi:ry="8.0010004" sodipodi:rx="8.0010004" sodipodi:cx="143.99899" sodipodi:cy="-96.000999" opacity="0.2" cx="94.197" cy="94.198" r="31.302">
	</circle>
	
		<linearGradient id="XMLID_9_" gradientUnits="userSpaceOnUse" x1="8.668" y1="117.332" x2="52.9364" y2="73.0636" gradientTransform="matrix(-1 0 0 -1 127 188.3984)">
		<stop  offset="0" style="stop-color:#00D900"/>
		<stop  offset="0.5089" style="stop-color:#00BF00"/>
		<stop  offset="1" style="stop-color:#008C00"/>
	</linearGradient>
	
		<circle sodipodi:ry="8.0010004" sodipodi:rx="8.0010004" sodipodi:cx="143.99899" sodipodi:cy="-96.000999" fill="url(#XMLID_9_)" cx="96.197" cy="93.2" r="31.303">
	</circle>
	<path fill="#FFFFFF" d="M94.906,73.149l-3.873,12.529H78.551c-0.57,0-1.07,0.362-1.266,0.896c-0.021,0.137-0.057,0.35-0.08,0.489
		c0.011,0.406,0.201,0.796,0.525,1.043l10.156,7.759c0,0-3.867,12.507-3.881,12.556c-0.027,0.194-0.047,0.333-0.062,0.447
		c0.009,0.432,0.218,0.837,0.573,1.085c0.485,0.338,1.126,0.325,1.595-0.033c0,0-0.076,0.153-0.141,0.282
		c0.596-0.631,2.629-2.184,9.619-7.523l0.607-0.463l10.086,7.702c0.469,0.358,1.109,0.373,1.595,0.035
		c0.354-0.247,0.562-0.65,0.572-1.081c-0.022-0.145-0.062-0.408-0.077-0.502c-0.043-0.14-3.864-12.505-3.864-12.505l10.156-7.761
		c0.323-0.247,0.514-0.635,0.524-1.041c-0.022-0.138-0.057-0.342-0.08-0.487c-0.194-0.535-0.695-0.898-1.265-0.898h-12.483
		L97.49,73.149c-0.177-0.569-0.696-0.952-1.293-0.952S95.082,72.58,94.906,73.149z"/>
</g>
</svg>
