<?xml version="1.0" encoding="UTF-8" standalone="no"?>
<!-- Generator: Adobe Illustrator 12.0.0, SVG Export Plug-In . SVG Version: 6.00 Build 51448)  -->
<svg
   xmlns:ns="http://ns.adobe.com/SaveForWeb/1.0/"
   xmlns:dc="http://purl.org/dc/elements/1.1/"
   xmlns:cc="http://web.resource.org/cc/"
   xmlns:rdf="http://www.w3.org/1999/02/22-rdf-syntax-ns#"
   xmlns:svg="http://www.w3.org/2000/svg"
   xmlns="http://www.w3.org/2000/svg"
   xmlns:sodipodi="http://inkscape.sourceforge.net/DTD/sodipodi-0.dtd"
   xmlns:inkscape="http://www.inkscape.org/namespaces/inkscape"
   version="1.1"
   width="128"
   height="128"
   viewBox="0 0 128 128"
   overflow="visible"
   enable-background="new 0 0 128 128"
   xml:space="preserve"
   id="svg2"
   sodipodi:version="0.32"
   inkscape:version="0.43"
   sodipodi:docname="hdd_usb_mount.svg"
   sodipodi:docbase="/Users/David/Progetti/oxygen-svn/Oxygen/theme/svg/devices"><defs
   id="defs231" /><sodipodi:namedview
   inkscape:window-height="537"
   inkscape:window-width="739"
   inkscape:pageshadow="2"
   inkscape:pageopacity="0.0"
   borderopacity="1.0"
   bordercolor="#666666"
   pagecolor="#ffffff"
   id="base"
   inkscape:zoom="2.921875"
   inkscape:cx="64"
   inkscape:cy="64"
   inkscape:window-x="0"
   inkscape:window-y="22"
   inkscape:current-layer="svg2" />
<metadata
   id="metadata4">
	<ns:sfw>
		<ns:slices>
			<ns:slice
   x="0"
   y="0"
   height="128"
   width="128"
   sliceID="1654083792" />
		</ns:slices>
		<ns:sliceSourceBounds
   x="0"
   y="0"
   height="128"
   width="128"
   bottomLeftOrigin="true" />
		<ns:optimizationSettings>
			<ns:targetSettings
   fileFormat="PNG24Format"
   targetSettingsID="0">
				<ns:PNG24Format
   transparency="true"
   noMatteColor="false"
   interlaced="false"
   matteColor="#FFFFFF"
   filtered="false">
					</ns:PNG24Format>
			</ns:targetSettings>
		</ns:optimizationSettings>
	</ns:sfw>
<rdf:RDF><cc:Work
     rdf:about=""><dc:format>image/svg+xml</dc:format><dc:type
       rdf:resource="http://purl.org/dc/dcmitype/StillImage" /></cc:Work></rdf:RDF></metadata>
<g
   id="Livello_2">
</g>
<g
   id="Livello_1">
	<path
   opacity="0.1"
   fill="#555555"
   d="M19.2,3.5c-3.015,0-5.471,2.045-5.712,4.757l-8.467,94.827c0,0.003-0.011,0.311-0.011,0.311   c0,0.001,0.007,0.169,0.007,0.169c0.002,0.04,0.027,0.338,0.027,0.339c-0.004,0-0.044,12.8-0.044,12.8   c0,3.198,2.66,5.798,5.93,5.798H117.07c3.27,0,5.93-2.6,5.93-5.795v-12.872c0,0.013-0.022-0.153-0.022-0.14l0.012-0.394   l-0.009-0.188c0.001,0.001,0.001,0.001-8.469-94.855C114.273,5.545,111.818,3.5,108.8,3.5H19.2z"
   id="path8" />
	<path
   opacity="0.15"
   fill="#555555"
   d="M19.2,4.5c-2.494,0-4.521,1.654-4.716,3.846l-8.467,94.827   c-0.004,0.043-0.01,0.134-0.008,0.178l0.007,0.17l0.025,0.299L6,116.705c0,2.644,2.211,4.795,4.93,4.795H117.07   c2.718,0,4.93-2.151,4.93-4.795v-12.872c-0.04-0.021-0.016-0.327-0.016-0.327c0.003-0.041,0.008-0.117,0.006-0.159l-0.009-0.188   c0-0.001-8.466-94.813-8.466-94.813c-0.192-2.191-2.22-3.845-4.716-3.845H19.2z"
   id="path10" />
	<path
   opacity="0.2"
   fill="#555555"
   d="M19.2,5.5c-1.972,0-3.571,1.262-3.72,2.935l-8.467,94.827   c-0.002,0.029-0.004,0.06-0.004,0.089c0,0.028,0.001,0.056,0.003,0.084c0,0,0.013,0.155,0.025,0.301   C7.033,103.772,7,103.795,7,103.833v12.872c0,2.093,1.763,3.795,3.93,3.795H117.07c2.167,0,3.93-1.702,3.93-3.795v-12.872   c0-0.038-0.033-0.061-0.037-0.098c0.012-0.152,0.024-0.31,0.024-0.31c0.002-0.026,0.003-0.053,0.003-0.079   c0-0.029-0.001-0.06-0.004-0.089L112.52,8.434c-0.146-1.672-1.745-2.934-3.72-2.934H19.2z"
   id="path12" />
	<path
   opacity="0.25"
   fill="#555555"
   d="M19.2,6.5c-1.45,0-2.622,0.87-2.724,2.023l-8.467,94.827l0.061,0.726   C8.067,104.049,8,103.861,8,103.833v12.872c0,1.541,1.314,2.795,2.93,2.795H117.07c1.615,0,2.93-1.254,2.93-2.795v-12.872   c0,0.026-0.064,0.2-0.066,0.227l0.057-0.713l-8.467-94.824C111.423,7.371,110.252,6.5,108.8,6.5H19.2z"
   id="path14" />
	<path
   opacity="0.3"
   fill="#555555"
   enable-background="new    "
   d="M118.96,103.833c0.029-0.126,0.047-0.257,0.034-0.394   l-8.467-94.828C110.474,7.997,109.699,7.5,108.8,7.5H19.2c-0.9,0-1.673,0.497-1.728,1.112l-8.467,94.828   c-0.012,0.137,0.004,0.268,0.035,0.394H9v12.872c0,0.991,0.864,1.795,1.93,1.795H117.07c1.065,0,1.93-0.804,1.93-1.795v-12.872   H118.96z"
   id="path16" />
	<linearGradient
   id="XMLID_14_"
   gradientUnits="userSpaceOnUse"
   x1="64.0005"
   y1="116.5"
   x2="64.0005"
   y2="101.833">
		<stop
   offset="0"
   style="stop-color:#888888"
   id="stop19" />
		<stop
   offset="0.2792"
   style="stop-color:#656565"
   id="stop21" />
		<stop
   offset="0.565"
   style="stop-color:#494949"
   id="stop23" />
		<stop
   offset="0.815"
   style="stop-color:#383838"
   id="stop25" />
		<stop
   offset="1"
   style="stop-color:#323232"
   id="stop27" />
	</linearGradient>
	<path
   fill="url(#XMLID_14_)"
   d="M121,114.705c0,0.991-0.896,1.795-2,1.795H9c-1.104,0-2-0.804-2-1.795v-12.872h114V114.705z"
   id="path29" />
	<linearGradient
   id="XMLID_15_"
   gradientUnits="userSpaceOnUse"
   x1="64.0005"
   y1="116.5"
   x2="64.0005"
   y2="101.833">
		<stop
   offset="0"
   style="stop-color:#BBBBBB"
   id="stop32" />
		<stop
   offset="0.0954"
   style="stop-color:#9F9F9F"
   id="stop34" />
		<stop
   offset="0.18"
   style="stop-color:#8E8E8E"
   id="stop36" />
		<stop
   offset="0.2426"
   style="stop-color:#888888"
   id="stop38" />
		<stop
   offset="1"
   style="stop-color:#888888"
   id="stop40" />
	</linearGradient>
	<path
   fill="url(#XMLID_15_)"
   d="M121,114.705c0,0.991-0.896,1.795-2,1.795H9c-1.104,0-2-0.804-2-1.795v-12.872h114V114.705z"
   id="path42" />
	<linearGradient
   id="XMLID_16_"
   gradientUnits="userSpaceOnUse"
   x1="64.0005"
   y1="115.3184"
   x2="64.0005"
   y2="101.0146">
		<stop
   offset="0"
   style="stop-color:#DDDDDD"
   id="stop45" />
		<stop
   offset="0.2738"
   style="stop-color:#BBBBBB"
   id="stop47" />
		<stop
   offset="0.5617"
   style="stop-color:#9F9F9F"
   id="stop49" />
		<stop
   offset="0.8136"
   style="stop-color:#8E8E8E"
   id="stop51" />
		<stop
   offset="1"
   style="stop-color:#888888"
   id="stop53" />
	</linearGradient>
	<path
   fill="url(#XMLID_16_)"
   d="M118.996,113.586c-0.044,0.957-0.944,1.732-2.008,1.732H11.012c-1.064,0-1.963-0.775-2.009-1.732   l-0.589-12.571h111.172L118.996,113.586z"
   id="path55" />
	<linearGradient
   id="XMLID_17_"
   gradientUnits="userSpaceOnUse"
   x1="64.0005"
   y1="104.8545"
   x2="64.0005"
   y2="101.9785">
		<stop
   offset="0"
   style="stop-color:#DDDDDD"
   id="stop58" />
		<stop
   offset="0.525"
   style="stop-color:#FDFDFD"
   id="stop60" />
		<stop
   offset="0.5621"
   style="stop-color:#FFFFFF"
   id="stop62" />
	</linearGradient>
	<path
   fill="url(#XMLID_17_)"
   enable-background="new    "
   d="M7,101.979c0.738,1.269,1.89,2.876,2.792,2.876h108.417   c0.902,0,2.055-1.607,2.792-2.876H7z"
   id="path64" />
	<radialGradient
   id="XMLID_18_"
   cx="63"
   cy="124"
   r="161.9999"
   gradientUnits="userSpaceOnUse">
		<stop
   offset="0"
   style="stop-color:#888888"
   id="stop67" />
		<stop
   offset="0.0025"
   style="stop-color:#939393"
   id="stop69" />
		<stop
   offset="0.0125"
   style="stop-color:#BABABA"
   id="stop71" />
		<stop
   offset="0.0216"
   style="stop-color:#D7D7D7"
   id="stop73" />
		<stop
   offset="0.0296"
   style="stop-color:#E8E8E8"
   id="stop75" />
		<stop
   offset="0.0355"
   style="stop-color:#EEEEEE"
   id="stop77" />
		<stop
   offset="0.6154"
   style="stop-color:#BBBBBB"
   id="stop79" />
		<stop
   offset="0.6824"
   style="stop-color:#BFBFBF"
   id="stop81" />
		<stop
   offset="0.7492"
   style="stop-color:#CBCBCB"
   id="stop83" />
		<stop
   offset="0.8107"
   style="stop-color:#DDDDDD"
   id="stop85" />
	</radialGradient>
	<path
   fill="url(#XMLID_18_)"
   enable-background="new    "
   d="M17.571,5.5c-0.933,0-1.734,0.497-1.791,1.112l-8.775,94.828   C6.925,102.301,7.758,103,8.866,103h110.269c1.106,0,1.94-0.699,1.859-1.561L112.22,6.612c-0.057-0.615-0.858-1.112-1.791-1.112   H17.571z"
   id="path87" />
	<radialGradient
   id="XMLID_19_"
   cx="63"
   cy="124"
   r="162"
   gradientUnits="userSpaceOnUse">
		<stop
   offset="0"
   style="stop-color:#EEEEEC"
   id="stop90" />
		<stop
   offset="0.2777"
   style="stop-color:#FAFAF9"
   id="stop92" />
		<stop
   offset="0.5385"
   style="stop-color:#FFFFFF"
   id="stop94" />
		<stop
   offset="0.6335"
   style="stop-color:#FBFBFB"
   id="stop96" />
		<stop
   offset="0.7282"
   style="stop-color:#F1F1EF"
   id="stop98" />
		<stop
   offset="0.7456"
   style="stop-color:#EEEEEC"
   id="stop100" />
		<stop
   offset="0.8624"
   style="stop-color:#F2F2F0"
   id="stop102" />
		<stop
   offset="0.9787"
   style="stop-color:#FCFCFC"
   id="stop104" />
		<stop
   offset="1"
   style="stop-color:#FFFFFF"
   id="stop106" />
	</radialGradient>
	<path
   fill="url(#XMLID_19_)"
   d="M17.571,6.5c-0.458,0-0.764,0.193-0.814,0.273l0,0C16.757,6.908,8,101.531,8,101.531   C8,101.538,8,101.545,8,101.555c0,0.036,0.01,0.095,0.08,0.171C8.2,101.858,8.47,102,8.866,102h110.269   c0.396,0,0.665-0.142,0.786-0.274c0.087-0.096,0.08-0.163,0.077-0.192c0-0.002-8.774-94.829-8.774-94.829   c-0.031-0.011-0.336-0.204-0.795-0.204H17.571z"
   id="path108" />
	<linearGradient
   id="XMLID_20_"
   gradientUnits="userSpaceOnUse"
   x1="63.9995"
   y1="101.7217"
   x2="63.9995"
   y2="6.5005">
		<stop
   offset="0"
   style="stop-color:#DDDDDD"
   id="stop111" />
		<stop
   offset="0.3335"
   style="stop-color:#E3E3E3"
   id="stop113" />
		<stop
   offset="0.7789"
   style="stop-color:#F4F4F4"
   id="stop115" />
		<stop
   offset="1"
   style="stop-color:#FFFFFF"
   id="stop117" />
	</linearGradient>
	<path
   opacity="0.8"
   fill="url(#XMLID_20_)"
   d="M16.757,7.773c0.05-0.081,0.355-0.273,0.814-0.273h92.858   c0.459,0,0.764,0.193,0.795,0.204c0,0,7.854,84.872,8.699,94.018c0.083-0.093,0.078-0.159,0.075-0.188   c0-0.002-8.774-94.829-8.774-94.829c-0.031-0.011-0.336-0.204-0.795-0.204H17.571c-0.458,0-0.764,0.193-0.814,0.273   C16.757,6.908,8,101.531,8,101.531C8,101.538,8,101.545,8,101.555c0,0.035,0.012,0.092,0.076,0.165   C8.921,92.582,16.757,7.901,16.757,7.773z"
   id="path119" />
	<path
   fill="none"
   stroke="#000000"
   d="M30.604,42.854"
   id="path121" />
	<g
   id="g123">
		
			<linearGradient
   id="XMLID_21_"
   gradientUnits="userSpaceOnUse"
   x1="180.374"
   y1="-157.9634"
   x2="188.833"
   y2="-157.9634"
   gradientTransform="matrix(0 -1 1 0 182.9971 295.082)">
			<stop
   offset="0"
   style="stop-color:#DDDDDD"
   id="stop126" />
			<stop
   offset="0.2738"
   style="stop-color:#BBBBBB"
   id="stop128" />
			<stop
   offset="0.5617"
   style="stop-color:#9F9F9F"
   id="stop130" />
			<stop
   offset="0.8136"
   style="stop-color:#8E8E8E"
   id="stop132" />
			<stop
   offset="1"
   style="stop-color:#888888"
   id="stop134" />
		</linearGradient>
		<path
   fill="url(#XMLID_21_)"
   d="M25.034,114.708c2.331,0,4.229-1.897,4.229-4.229s-1.897-4.229-4.229-4.229    c-2.332,0-4.229,1.897-4.229,4.229S22.702,114.708,25.034,114.708z"
   id="path136" />
		<radialGradient
   id="XMLID_22_"
   cx="25.0366"
   cy="110.4785"
   r="3.0208"
   fx="25"
   fy="110"
   gradientUnits="userSpaceOnUse">
			<stop
   offset="0"
   style="stop-color:#F0FF80"
   id="stop139" />
			<stop
   offset="0.0509"
   style="stop-color:#EDFE77"
   id="stop141" />
			<stop
   offset="0.1338"
   style="stop-color:#E3FC5F"
   id="stop143" />
			<stop
   offset="0.2385"
   style="stop-color:#D4F937"
   id="stop145" />
			<stop
   offset="0.3599"
   style="stop-color:#BFF500"
   id="stop147" />
			<stop
   offset="0.3609"
   style="stop-color:#BFF500"
   id="stop149" />
			<stop
   offset="0.4825"
   style="stop-color:#BCF400"
   id="stop151" />
			<stop
   offset="0.555"
   style="stop-color:#B4F200"
   id="stop153" />
			<stop
   offset="0.6147"
   style="stop-color:#A6EE00"
   id="stop155" />
			<stop
   offset="0.6674"
   style="stop-color:#92E800"
   id="stop157" />
			<stop
   offset="0.7154"
   style="stop-color:#77E100"
   id="stop159" />
			<stop
   offset="0.7602"
   style="stop-color:#57D800"
   id="stop161" />
			<stop
   offset="0.8024"
   style="stop-color:#31CD00"
   id="stop163" />
			<stop
   offset="0.8414"
   style="stop-color:#06C100"
   id="stop165" />
			<stop
   offset="0.8462"
   style="stop-color:#00BF00"
   id="stop167" />
			<stop
   offset="1"
   style="stop-color:#008C00"
   id="stop169" />
		</radialGradient>
		<circle
   fill="url(#XMLID_22_)"
   cx="25.037"
   cy="110.479"
   r="3.021"
   id="circle171" />
	</g>
	<rect
   id="_x3C_Sezione_x3E_"
   fill="none"
   width="128"
   height="128" />
	<g
   id="g174">
		<linearGradient
   id="XMLID_23_"
   gradientUnits="userSpaceOnUse"
   x1="39.5"
   y1="98"
   x2="39.5"
   y2="9.0005">
			<stop
   offset="0"
   style="stop-color:#EEEEEE"
   id="stop177" />
			<stop
   offset="0.5089"
   style="stop-color:#BBBBBB"
   id="stop179" />
			<stop
   offset="1"
   style="stop-color:#DDDDDD"
   id="stop181" />
		</linearGradient>
		<path
   fill="url(#XMLID_23_)"
   d="M15.185,90.812C15.07,93.223,15.01,95.619,15,98h0.676c0.01-2.381,0.069-4.777,0.182-7.188    C18.039,43.97,39.515,9,64,9C39.173,9,17.396,43.97,15.185,90.812z"
   id="path183" />
		<linearGradient
   id="XMLID_24_"
   gradientUnits="userSpaceOnUse"
   x1="88.5"
   y1="98"
   x2="88.5"
   y2="9.0005">
			<stop
   offset="0"
   style="stop-color:#EEEEEE"
   id="stop186" />
			<stop
   offset="0.5089"
   style="stop-color:#BBBBBB"
   id="stop188" />
			<stop
   offset="1"
   style="stop-color:#DDDDDD"
   id="stop190" />
		</linearGradient>
		<path
   fill="url(#XMLID_24_)"
   d="M112.816,90.812C110.604,43.97,88.827,9,64,9c24.485,0,45.962,34.97,48.143,81.812    c0.112,2.41,0.172,4.807,0.182,7.188H113C112.99,95.619,112.93,93.223,112.816,90.812z"
   id="path192" />
	</g>
	<path
   fill="#BBBBBB"
   d="M87.606,35.569H73.498v10.863h4.391c-0.132,4.092-0.854,7.749-2.244,8.82   c-1.742,1.341-4.637,2.097-7.189,2.763c-0.325,0.084-0.65,0.17-0.974,0.257V29.036h7.054L64.66,16l-9.876,13.036h7.054v37.492   c-0.323-0.087-0.648-0.172-0.974-0.257c-2.553-0.667-5.447-1.422-7.189-2.764c-1.417-1.091-2.139-4.868-2.252-9.053   c3.421-0.837,5.9-3.301,5.9-6.211c0-3.6-3.79-6.518-8.465-6.518c-4.675,0-8.465,2.918-8.465,6.518c0,2.758,2.229,5.112,5.374,6.063   c0.086,4.46,0.869,9.927,3.917,12.275c2.674,2.059,6.386,3.027,9.369,3.806c0.931,0.243,2.123,0.556,2.785,0.802v9.154   c-3.285,0.896-5.643,3.303-5.643,6.14c0,3.6,3.79,6.518,8.465,6.518c4.674,0,8.465-2.918,8.465-6.518   c0-2.837-2.358-5.244-5.644-6.14V62.932c0.661-0.246,1.854-0.559,2.784-0.801c2.983-0.778,6.695-1.748,9.369-3.806   c2.961-2.281,3.785-7.507,3.909-11.893h4.062V35.569z"
   id="path194" />
	<path
   fill="#FFFFFF"
   d="M87.606,37.569H73.498v10.863h4.391c-0.132,4.092-0.854,7.749-2.244,8.82   c-1.742,1.341-4.637,2.097-7.189,2.763c-0.325,0.084-0.65,0.17-0.974,0.257V31.036h7.054L64.66,18l-9.876,13.036h7.054v37.492   c-0.323-0.087-0.648-0.172-0.974-0.257c-2.553-0.667-5.447-1.422-7.189-2.764c-1.417-1.091-2.139-4.868-2.252-9.053   c3.421-0.837,5.9-3.301,5.9-6.211c0-3.6-3.79-6.518-8.465-6.518c-4.675,0-8.465,2.918-8.465,6.518c0,2.758,2.229,5.112,5.374,6.063   c0.086,4.46,0.869,9.927,3.917,12.275c2.674,2.059,6.386,3.027,9.369,3.806c0.931,0.243,2.123,0.556,2.785,0.802v9.154   c-3.285,0.896-5.643,3.303-5.643,6.14c0,3.6,3.79,6.518,8.465,6.518c4.674,0,8.465-2.918,8.465-6.518   c0-2.837-2.358-5.244-5.644-6.14V64.932c0.661-0.246,1.854-0.559,2.784-0.801c2.983-0.778,6.695-1.748,9.369-3.806   c2.961-2.281,3.785-7.507,3.909-11.893h4.062V37.569z"
   id="path196" />
	<linearGradient
   id="XMLID_25_"
   gradientUnits="userSpaceOnUse"
   x1="64.0005"
   y1="94"
   x2="64.0005"
   y2="17.0005">
		<stop
   offset="0.3965"
   style="stop-color:#FFBF80"
   id="stop199" />
		<stop
   offset="0.4323"
   style="stop-color:#FDBA7D"
   id="stop201" />
		<stop
   offset="0.6024"
   style="stop-color:#F7A971"
   id="stop203" />
		<stop
   offset="0.7849"
   style="stop-color:#F39E6A"
   id="stop205" />
		<stop
   offset="1"
   style="stop-color:#F29B68"
   id="stop207" />
	</linearGradient>
	<path
   fill="url(#XMLID_25_)"
   d="M87.606,36.569H73.498v10.863h4.391c-0.132,4.092-0.854,7.749-2.244,8.82   c-1.742,1.341-4.637,2.097-7.189,2.763c-0.325,0.084-0.65,0.17-0.974,0.257V30.036h7.054L64.66,17l-9.876,13.036h7.054v37.492   c-0.323-0.087-0.648-0.172-0.974-0.257c-2.553-0.667-5.447-1.422-7.189-2.764c-1.417-1.091-2.139-4.868-2.252-9.053   c3.421-0.837,5.9-3.301,5.9-6.211c0-3.6-3.79-6.518-8.465-6.518c-4.675,0-8.465,2.918-8.465,6.518c0,2.758,2.229,5.112,5.374,6.063   c0.086,4.46,0.869,9.927,3.917,12.275c2.674,2.059,6.386,3.027,9.369,3.806c0.931,0.243,2.123,0.556,2.785,0.802v9.154   c-3.285,0.896-5.643,3.303-5.643,6.14c0,3.6,3.79,6.518,8.465,6.518c4.674,0,8.465-2.918,8.465-6.518   c0-2.837-2.358-5.244-5.644-6.14V63.932c0.661-0.246,1.854-0.559,2.784-0.801c2.983-0.778,6.695-1.748,9.369-3.806   c2.961-2.281,3.785-7.507,3.909-11.893h4.062V36.569z"
   id="path209" />
	<g
   id="g211">
		<path
   opacity="0.1"
   d="M61.394,94.697c0,18.363,14.94,33.303,33.303,33.303S128,113.061,128,94.697s-14.939-33.302-33.303-33.302    S61.394,76.334,61.394,94.697z"
   id="path213" />
		<path
   opacity="0.15"
   d="M62.394,94.697c0,17.812,14.491,32.303,32.303,32.303C112.509,127,127,112.509,127,94.697    c0-17.811-14.491-32.302-32.303-32.302C76.885,62.396,62.394,76.887,62.394,94.697z"
   id="path215" />
		
			<circle
   ry="8.0010004"
   rx="8.0010004"
   cx="94.697"
   cy="94.698"
   opacity="0.2"
   r="31.302"
   id="circle217">
		</circle>
		
			<linearGradient
   id="XMLID_26_"
   gradientUnits="userSpaceOnUse"
   x1="9.168"
   y1="117.832"
   x2="53.4365"
   y2="73.5635"
   gradientTransform="matrix(-1 0 0 -1 128 189.3984)">
			<stop
   offset="0"
   style="stop-color:#00D900"
   id="stop220" />
			<stop
   offset="0.5089"
   style="stop-color:#00BF00"
   id="stop222" />
			<stop
   offset="1"
   style="stop-color:#008C00"
   id="stop224" />
		</linearGradient>
		
			<circle
   ry="8.0010004"
   rx="8.0010004"
   cx="96.697"
   cy="93.7"
   fill="url(#XMLID_26_)"
   r="31.303"
   id="circle226">
		</circle>
		<path
   fill="#FFFFFF"
   d="M95.406,73.649l-3.873,12.529H79.051c-0.57,0-1.07,0.362-1.266,0.896c-0.021,0.137-0.057,0.35-0.08,0.489    c0.011,0.406,0.201,0.796,0.525,1.043l10.156,7.759c0,0-3.867,12.507-3.881,12.556c-0.027,0.194-0.047,0.333-0.062,0.447    c0.009,0.432,0.218,0.837,0.573,1.085c0.485,0.338,1.126,0.325,1.595-0.033c0,0-0.076,0.153-0.141,0.282    c0.596-0.631,2.629-2.184,9.619-7.523l0.607-0.463l10.086,7.702c0.469,0.358,1.109,0.373,1.595,0.035    c0.354-0.247,0.562-0.65,0.572-1.081c-0.022-0.145-0.062-0.408-0.077-0.502c-0.043-0.14-3.864-12.505-3.864-12.505l10.156-7.761    c0.323-0.247,0.514-0.635,0.524-1.041c-0.022-0.138-0.057-0.342-0.08-0.487c-0.194-0.535-0.695-0.898-1.265-0.898h-12.483    L97.99,73.649c-0.177-0.569-0.696-0.952-1.293-0.952S95.582,73.08,95.406,73.649z"
   id="path228" />
	</g>
</g>
</svg>