<?xml version="1.0" encoding="utf-8"?>
<!-- Generator: Adobe Illustrator 12.0.0, SVG Export Plug-In . SVG Version: 6.00 Build 51448)  -->
<!DOCTYPE svg PUBLIC "-//W3C//DTD SVG 1.1//EN" "http://www.w3.org/Graphics/SVG/1.1/DTD/svg11.dtd" [
	<!ENTITY ns_extend "http://ns.adobe.com/Extensibility/1.0/">
	<!ENTITY ns_ai "http://ns.adobe.com/AdobeIllustrator/10.0/">
	<!ENTITY ns_graphs "http://ns.adobe.com/Graphs/1.0/">
	<!ENTITY ns_vars "http://ns.adobe.com/Variables/1.0/">
	<!ENTITY ns_imrep "http://ns.adobe.com/ImageReplacement/1.0/">
	<!ENTITY ns_sfw "http://ns.adobe.com/SaveForWeb/1.0/">
	<!ENTITY ns_custom "http://ns.adobe.com/GenericCustomNamespace/1.0/">
	<!ENTITY ns_adobe_xpath "http://ns.adobe.com/XPath/1.0/">
	<!ENTITY ns_svg "http://www.w3.org/2000/svg">
	<!ENTITY ns_xlink "http://www.w3.org/1999/xlink">
]>
<svg  version="1.1"
	 id="svg1307" xmlns:x="&ns_extend;" xmlns:i="&ns_ai;" xmlns:graph="&ns_graphs;" xmlns:svg="http://www.w3.org/2000/svg"
	 xmlns="&ns_svg;" xmlns:xlink="&ns_xlink;" width="128" height="128" viewBox="-0.5 -19 128 128"
	 overflow="visible" enable-background="new -0.5 -19 128 128" xml:space="preserve">
<metadata>
	<sfw  xmlns="&ns_sfw;">
		<slices></slices>
		<sliceSourceBounds  x="1" y="24.5" height="84" width="124.001" bottomLeftOrigin="true"></sliceSourceBounds>
	</sfw>
	<x:xmpmeta  x:xmptk="XMP toolkit 3.0-29, framework 1.6" xmlns:x="adobe:ns:meta/">
		<rdf:RDF  xmlns:rdf="http://www.w3.org/1999/02/22-rdf-syntax-ns#" xmlns:iX="http://ns.adobe.com/iX/1.0/">
			<rdf:Description  rdf:about="uuid:3af0bcd6-eebc-11da-980f-001451315092" xmlns:pdf="http://ns.adobe.com/pdf/1.3/">
				<pdf:Producer>Adobe PDF library 6.66</pdf:Producer>
			</rdf:Description>
			<rdf:Description  rdf:about="uuid:3af0bcd6-eebc-11da-980f-001451315092" xmlns:photoshop="http://ns.adobe.com/photoshop/1.0/">
				</rdf:Description>
			<rdf:Description  rdf:about="uuid:3af0bcd6-eebc-11da-980f-001451315092" xmlns:tiff="http://ns.adobe.com/tiff/1.0/">
				</rdf:Description>
			
				<rdf:Description  rdf:about="uuid:3af0bcd6-eebc-11da-980f-001451315092" xmlns:xap="http://ns.adobe.com/xap/1.0/" xmlns:xapGImg="http://ns.adobe.com/xap/1.0/g/img/">
				<xap:CreatorTool>Illustrator</xap:CreatorTool>
				<xap:CreateDate>2006-05-28T18:16:25+02:00</xap:CreateDate>
				<xap:ModifyDate>2006-05-29T02:43:07Z</xap:ModifyDate>
				<xap:MetadataDate>2006-05-28T18:16:25+02:00</xap:MetadataDate>
				<xap:Rating>1</xap:Rating>
				<xap:Thumbnails>
					<rdf:Alt>
						<rdf:li  rdf:parseType="Resource">
							<xapGImg:format>JPEG</xapGImg:format>
							<xapGImg:width>256</xapGImg:width>
							<xapGImg:height>176</xapGImg:height>
							<xapGImg:image>/9j/4AAQSkZJRgABAgEASABIAAD/7QAsUGhvdG9zaG9wIDMuMAA4QklNA+0AAAAAABAASAAAAAEA
AQBIAAAAAQAB/+4ADkFkb2JlAGTAAAAAAf/bAIQABgQEBAUEBgUFBgkGBQYJCwgGBggLDAoKCwoK
DBAMDAwMDAwQDA4PEA8ODBMTFBQTExwbGxscHx8fHx8fHx8fHwEHBwcNDA0YEBAYGhURFRofHx8f
Hx8fHx8fHx8fHx8fHx8fHx8fHx8fHx8fHx8fHx8fHx8fHx8fHx8fHx8fHx8f/8AAEQgAsAEAAwER
AAIRAQMRAf/EAaIAAAAHAQEBAQEAAAAAAAAAAAQFAwIGAQAHCAkKCwEAAgIDAQEBAQEAAAAAAAAA
AQACAwQFBgcICQoLEAACAQMDAgQCBgcDBAIGAnMBAgMRBAAFIRIxQVEGE2EicYEUMpGhBxWxQiPB
UtHhMxZi8CRygvElQzRTkqKyY3PCNUQnk6OzNhdUZHTD0uIIJoMJChgZhJRFRqS0VtNVKBry4/PE
1OT0ZXWFlaW1xdXl9WZ2hpamtsbW5vY3R1dnd4eXp7fH1+f3OEhYaHiImKi4yNjo+Ck5SVlpeYmZ
qbnJ2en5KjpKWmp6ipqqusra6voRAAICAQIDBQUEBQYECAMDbQEAAhEDBCESMUEFURNhIgZxgZEy
obHwFMHR4SNCFVJicvEzJDRDghaSUyWiY7LCB3PSNeJEgxdUkwgJChgZJjZFGidkdFU38qOzwygp
0+PzhJSktMTU5PRldYWVpbXF1eX1RlZmdoaWprbG1ub2R1dnd4eXp7fH1+f3OEhYaHiImKi4yNjo
+DlJWWl5iZmpucnZ6fkqOkpaanqKmqq6ytrq+v/aAAwDAQACEQMRAD8A9QXt2lvESTvirzTzV+c/
lby1epbavfrbzSqXjjCSSMVBpUiOOUqPDl1xVJP+hlPy6/6u/wD073X/AFQxV3/Qyn5df9Xf/p3u
v+qGKu/6GU/Lr/q7/wDTvdf9UMVd/wBDKfl1/wBXf/p3uv8Aqhirv+hlPy6/6u//AE73X/VDFXf9
DKfl1/1d/wDp3uv+qGKu/wChlPy6/wCrv/073X/VDFXf9DKfl1/1d/8Ap3uv+qGKu/6GU/Lr/q7/
APTvdf8AVDFXf9DKfl1/1d/+ne6/6oYq7/oZT8uv+rv/ANO91/1QxV3/AEMp+XX/AFd/+ne6/wCq
GKu/6GU/Lr/q7/8ATvdf9UMVd/0Mp+XX/V3/AOne6/6oYq7/AKGU/Lr/AKu//Tvdf9UMVd/0Mp+X
X/V3/wCne6/6oYq7/oZT8uv+rv8A9O91/wBUMVd/0Mp+XX/V3/6d7r/qhirv+hlPy6/6u/8A073X
/VDFXf8AQyn5df8AV3/6d7r/AKoYq7/oZT8uv+rv/wBO91/1QxV3/Qyn5df9Xf8A6d7r/qhirv8A
oZT8uv8Aq7/9O91/1QxV3/Qyn5df9Xf/AKd7r/qhirv+hlPy6/6u/wD073X/AFQxV3/Qyn5df9Xf
/p3uv+qGKu/6GU/Lr/q7/wDTvdf9UMVd/wBDKfl1/wBXf/p3uv8Aqhiqd+Vfzn8reZb17bSL9bia
JQ8kZSSNgpNKgSRxFh48emKvS7K7S4iDA74qxLzlqM0ET0/zrT+LYq+I9U1Fda1S71LV5Jri9nlY
swIChQaKqjwAGKqEFppBsBNIspZpWApQUUdB1xVb9X0T/fc33jFXfV9E/wB9zfeMVd9X0T/fc33j
FXfV9E/33N94xV31fRP99zfeMVd9X0T/AH3N94xV31fRP99zfeMVd9X0T/fc33jFXfV9E/33N94x
V31fRP8Afc33jFXfV9E/33N94xV31fRP99zfeMVd9X0T/fc33jFXfV9E/wB9zfeMVd9X0T/fc33j
FXfV9E/33N94xV31fRP99zfeMVd9X0T/AH3N94xV31fRP99zfeMVd9X0T/fc33jFXfV9E/33N94x
V31fRP8Afc33jFXfV9E/33N94xV31fRP99zfeMVd9X0T/fc33jFXfV9E/wB9zfeMVd9X0T/fc33j
FUTpeopo2p2mpaRJNb3sEqlWJBUqTRlYeBBxV9ueTdRmniSp/wAxX+K4qhPPf9030frTFXw8Ptyf
8ZH/AOJHFVeP/jlR/wDGVsVUcVdirsVdirsVdirsVdirsVdirsVdirsVdirsVdirsVdirsVdirsV
dirsVR+k6DresStFpVhcX0i05i3jaTiD3YqDx+nFUdqvkXzjpUBuNQ0a7t7dRVpmiYxqP8pwCo+n
FUjVWbZQSQCTTwG5xVrFWj9uP/jIn/Ehir7h8if3S/T+t8Vd57/um+j9aYq+HV+1J/xkf/iRxVER
/wDHKj/4ytiqa+UPJ2t+a9WGm6TEGcDnNNIeMUSVpzdqH7gKnFWVf8q08nDUP0QfPNqNa5+j9X+q
Teh6tacPrPL0+u3zxVLrj8tptI84QeXfM9+ukx3Yra6okf1iB6mik1eEqpPwknoeopviqcx/kTr/
APjG40Se5EOl28P1l9caP916JqF+AuBz5Agrz2oT0xVJ/L3kfyxrnm6fy9B5lMaV4WF+9oPTuZF+
0qr6/wANf2Kn4vY0BVROh/k/rN95o1XRtQuBplpoys99qjpziCU5RsoLRiki/FuwotcVUfL/AOVl
95hub+fSb6MeXNPdkfXL1TbRuEFWKxhpDsN9z0606Yq3J5L/AC8UNEnnyFrsVHA6ddCGo/4uBYU9
6Yqs/LP8tR53utQgGpfUBYrG4f0fW5+oWHTnFT7OKqGr+Wvy+tdNnuNO85/pC9jWsFl+jbmD1Gr9
n1HYqv04qyPRvyLutY8n2uuWWrob+9gaa10t4QnNkJrGJjL1oOvD5064qkXkn8tJvMtr5glnvG02
bQI1eW3aD1GdiJSUNXj4FTDToeuKsKxV2KuxV2KuxV2KuxV2KuxV2Kso/LjyZJ5u802+llmjtFBn
vpV+0sCEcqV7sSFHhWuKvTPOn5vWflGRvKvkeyt4YtPJiuLpl5Isg2dUWo5MDszvWprt3xVIPL//
ADkN5vtLxf00kOp2LECZBGsMqr3KMnFa+zD7sVZh+Ylr5Msvy2vvMnlnSoeXmARRtexLT045XBck
E/u904Mq0+I74q+esVWt9qP/AIyJ/wASGKvuLyJ/dL9P63xV3nv+6b6P1pir4dX7Un/GR/8AiRxV
ER/8cqP/AIytir0L8k/P+k+U9YvItWrHY6kkatdKpcxPEWKkgVbgeZrQeGKrf+VZ+Wv0n9Z/xro/
6C9Tnz+sf6d6Va09Cn2+32vfFU68/wDmPQvzJ85aZptpqEGnaHpqyevq946W4YSMvqGNZShbZFCD
rWvQb4qymT8x/I2pXl5+Xs9z6Hlz6mtjba4bjZpI1oazE8eFAOLE0YjeqtirwrXdLbQ9altbe/gv
Vt3DW1/ZTJIjqDVHVo2bi3tWoOKvWPzR87w3/wCWWhRWmr29xqd/Ha/pyK3liaZiLfmyzIh5KBL1
BA32xVL/ACX5x8ral+Wd15C1i9/Qly3L6vqBQtFJWYTrzK9Dy+Fq0HHviqYeRvLvk/RecPmXUvKe
qaWeci3CTmW/5txCLRuKhAAdqVGKqv5Pa95U0zzp5wkOoWen6XPOf0aZZUgjaETylBH6hXYIRtiq
WebIvV8uX68/ICUj58tJNL74CGpB/lNSmKq2r+c4NN/KPyg2japANd069ila2ilRpowI7gN6kQJb
ieYVuQpvTvirLND88eRtV0LWtfF5a6Treq2Jt9U02aWOIvcQRyCOSMOVZ+QkIBHXYHcYq+b8Vdir
sVdirsVdirsVdirsVdir2b/nGd7ca5rSNT6wbaMx+PASHn+JXFXkGoRXcV/cxXnIXccrrch/teoG
Iete/LFVDFXtmlLND/zjbqRvq+jLKTZK23wm6jC0rX/doY/51xV4niq1vtR/8ZE/4kMVfcXkT+6X
6f1virvPf9030frTFXw6n2pP+Mj/APEjiqIj/wCOVH/xlbFVHFXYq7FXYq7FXYq7FXYq7FXYq7FX
Yq7FXYq7FXYq7FXYq7FXYq7FXYqn3kjzbeeVPMdtrFsvqCOqXEFaCSF9nSv4j3AxV7B5g/L7yj+Z
lfMflLVI7XUZgDe2sg2L0pWVAecT+JAIbr7lVKdI/wCcdZbSU3fmvWbW30yD45vqzMKqOzSzLEsY
96HFUm/N78xdK1aC08r+WlCeXtMK/vEBVJXjXigQHfggruftHfsDirzDFVr/AGo/+Mif8SGKvuLy
J/dL9P63xV3nv+6b6P1pir4cj6yf8ZH/AOJHFUTH/wAcqP8A4ytiqjirsVdirsVdirsVdirsVdir
sVdirsVdirsVdirsVdirsVdirsVdirsVdiq+GeaCQSQyNFIvR0JVh9IxVWu9S1G9p9cuprnj9n1p
GkptTbkT2xVDYq7FVknWP/jIn/Ehir7j8if3S/T+t8Vd57/um+j9aYq+HI+sn/GR/wDiRxVEx/8A
HKj/AOMrYqo4q7FXYq7FXYq7FXYq7FXYq7FXYq7FXYq7FXYq7FXYq7FXYq7FXYq7FXYq7FXYq7FX
Yqsk6x/8ZE/4kMVfcfkT+6X6f1virvPf9030frTFXw3F/uz/AIyP/wASOKoqP/jlR/8AGVsVUcVd
irsVdirsVdirsVdirsVdirsVdirsVdirsVdirsVdirsVdirsVdirsVdirsVdirsVU5f91/8AGRP+
JDFX3J5E/ul+n9b4q7z3/dN9H60xV8Nw/wC7P+Mj/wDEjiqKj/45Uf8AxlbFVHFXYq7FXYq7FXYq
7FXYq7FXYq7FXYq7FXYq7FXYq7FXYq7FXYq7FXYq7FXYq7FXYq7FVOb/AHX/AMZE/wCJDFX3J5E/
ul+n9b4q7z3/AHTfR+tMVfDcP+7P+Mj/APEjiqKj/wCOVH/xlbFVHFXYq7FXYq7FXYq7FXYq7FXY
q7FXYq7FXYq7FXYq7FXYq7FXYq7FXYq7FXYq7FXYq7FVOb/df/GRP+JDFX3J5E/ul+n9b4q7z3/d
N9H60xV8NQdJP+Mj/wDEjiqLj/45Uf8AxlbFVHFXYq7FXYq7FXYq7FXYq7FXYq7FXYq7FXYq7FXY
q7FXYq7FXYq7FXYq7FXYq7FXYq7FVKfpH/xkT/iQxV9y+RP7pfp/W+Ku89/3TfR+tMVfDVv0k/4y
Sf8AEjiqLj/45Uf/ABlbFVHFXYq7FXYq7FXYq7FXYq7FXYqyLyP5F1jzlqU+n6XLBDLbwmd3uWdU
4hlSg4JIa1fwxVryx5G1zzF5il0Cz9OC+gEhnNwWWOP0TxbkUVz9ohenXFUp1jTLjStWvdLuSrXF
jPJbSslShaJyhKlgp4mm1RiqExV2KuxV2KuxVOPLPlPWPMd1NBpyIEtYjPd3MziKGGJeryO3QYqs
1zQU0v0jHqljqaylgWsZHfgVps4kSJhWuxpQ+OKpVirsVdirsVdirsVdiqlcdI/+Mkf/ABIYq+5f
In90v0/rfFXee/7pvo/WmKvhm2+zJ/xkk/4kcVRkf/HKj/4ytiqjirsVdirsVdirsVdirsVdirsV
ejflbc3Gm+WPOmt27BJ7G1tViY9nkmJX8Y8VZ1dzaXompxeabGlPO+oaU9oimrpCJEuL3w3aQANX
xxVtzJpx/M10vbjTJBqFnIt7ZRmadPVcP8MfOItyD0PxbAnFUi/L97OTRfMUeqzyXNv5m1WPR5L+
4QrMXlhmaKZkJbi/qOrEFjTxxVGXmkaZa+Q4vKl9xjTQ9R0qTXpVYHjLfuxnqwP+645AlfbFV1/H
eTa1560jWbUReVdM02aXS4TEqQW8icPqjW5AAV3FT8P2j1xVOpeP1vToJLlLyzTyrHOfKhVmN0/F
wZV5qIVPiVbn8PTFWI23mJT+X0fnhomPmXTo38tw3RoQeaq6XPj6kcDsle5OKsI8i+ZfMWg3t3c6
XZ/pG2ni9DU7OSJpoZIZDSkgXpXcA/rxVlPnDS7TQNH0Xzt5cjuPLGpag8kLaPI5MiDiwaWEuA/p
kDeo/aWlMVZxf6tqU3/OQ+maVLcu+nWyvLb2rGqI7afISwHjirCybzSfy6i1byshXVZ9UuYtavoE
D3EIRm9GMPRmjRl4ttTfFWWeVo4LryR5UnmKv5pP6Yl0NbpR6T6h9YduUpP7Yp8IPf5DFXg+oy30
t/cyX5dr5pXN0Za8/V5Hnyr35dcVQ+KuxV2KqcqNI8ESAtJJNGkaDcsxYUAGKvuTyJ/dL9P63xV3
nv8Aum+j9aYq+Gbb7Mn/ABkk/wCJHFUZH/xyo/8AjK2KqOKuxV2KuxV2KuxV2KuxV2KuxVEwanqN
vaT2cF1NFZ3XH61bJIyxy8DVfUQHi3E9K4qta/vmW3RrmUpa72ql2IiJNf3Yr8O4rtiqYReb/NkN
xPcw63fx3N0VNzOl1MrymNeKeowarcV2FegxVCz65rVwrrcahczLJMLqQSTSMGnA4iZqk1kC7cuu
KrW1bVXjuomvZ2jvmV71DK5WZkPJWlFfjKk1BbFV1xrWs3FnHY3F/cTWUVPStZJXaJadOKElR92K
rl1/XVu4LxdRuheW0YgtrkTSCSOIAqI0flyVQGIoNsVUP0hqH1JrH6zL9ReT13tebekZacfUKV48
qbVpXFVTTdZ1jS5Gk0y+uLGRwA720rwsQK0qUK164qpXuoX9/Obi+uZbqc7Gad2kc/7JiTiqude1
w6kuqHUbk6mgAS+9aT1wAvAUlrz+z8PXpiqyx1fVtPmeawvbi0mk+3JBK8TN8yhBOKrn1zW39Dnq
Fy31WVp7Ws0h9KZ25tJHv8Ls/wARYb13xVDXNzc3VxJc3Mrz3EzF5ZpWLu7HcszNUkn3xVTxV2Ku
xVk/5WaKNY8+WwdecOmxm5KnoZCQkY+9q/Rir7M8oaaIoVI6U/z/AInFUs89/wB030frTFXwza/Z
k/4yyf8AEjiqMj/45Uf/ABlbFVHFUXpGk3+r6lb6bp8RnvLpxHDGO5PcnsANyewxVRu7d7a6mtnI
LwO0bFehKEqaV+WKsmn/ACr/ADCg09tQl0O4W2QFm+wZAAKkmIMZOn+TiqU+XvKvmHzHcvbaLYyX
ssYBk4UVUDGg5u5VFrTucVVPMfk3zP5aljj1vT5LP1a+k7cXjYjchZIyyEjwBxVJsVdirsVdirsV
dirsVdirsVdirsVdirsVdirsVdirsVdirsVdirsVep/846WyPrOuztu4a2QewCyN+JAxV9d6HCI7
UU7Cn8P4YqxHz3/dN9H60xV8M2v2ZP8AjLJ/xM4qjI/+OVH/AMZWxVRxV9L/AJGeQNP0fQYfMMrR
3OqapEHSVCGWGBtxGp/mNPj99u26r511v/jtX/8AzEzf8nDir3T8o7zzpYaffea/NmpSt5Xaz52y
zS+sSysKPHGpfgAqsvGgJJ6Yq8Zg826vpup6jeaFdS6Yl/I5ZYSFYRmQuqchuOPtir1nz1qF7cfk
Lo83mFzLrF3LE0Ekn941XkaNz3qbfqffFWE+cPyom8u+UdP8xLqP1sXYga4tPR9JoBcRl1Jb1H5D
kvHoMVd5s/KmXy75MsfMUmpCee5eCO40/wBHgYGnhM3Eyc25Fdh9kda4qnF5+SGnw6zH5ej81Qt5
kmiM0OnSWksaOgVm2nDOvRDtSuKvLru2mtbqa1mHGaB2ilUGtGQlWFR7jFVLFXYq7FXYq7FXYq7F
XYq7FXYq7FXYq7FXYq7FXYq7FXpv/OO1+kHmrWLBjRrmKG4jHtFyjY/fKuKvsPRZA1qKfP8AGv8A
HFWH+e/7pvo/WmKvhi0+xJ/xlk/4mcVRtrLCIjaz/DEzco5v5WP83tiq2e3kgfi4+TDoR7Yq9W/I
v8yf0NqI8uapLTSr5/8ARJXPwwXDdqnoknQ+Db9zirzjULWa78y3NrCKzXF48UYPdnlKj8Tir3T8
pPKfn/yve3z+Z5xa+W4bZl9Ca4SWHkCCHVQzCNVUNUmny8FWD/lx5A07zh551K8jQL5W0+7eUQ1o
ZI3kY28NOvEqvxe23fFU0/O7RfP2oyzaze2C2fljSQsVnEJomKpI6xiRkRj8TsV6dBQdq4qze5tL
fWtfuvI95RYZNE0uZOY3/wBDuWaTbb4mElKe3zxViHnfW18x/ll5h1RKyRr5kIibwijijiiP0xlf
vxV6FqlxrTfmbDYx+X430q4silz5jSF4rmHkr1VbwEAUIHwjffFXy/rdvbW2tX9vazm6tobmaOC5
JqZUWQhZK/5QFcVQWKuxV2KuxV2KuxV2KuxV2KuxV2KuxV2KuxV2KuxV2Kpn5Q19vLvnDStZ39BJ
Pq92B3im+Gv+xPxYq+5fKeopLAgBqKbfL/axVB+cNMnuI24j/MU/5pxV8n/mR+Vd/o95Pq2hQmS2
di93pyjcE7l4QP8AiP3eAVefQTxTx8ozUdGB6g+BGKouC6MaejKvq2/8v7S/6p/hiq57Wqerbt60
PiPtL/rDFVESyCT1Q59WvLnU8uVa1r1rXFUdeeYdfvbZbW81O6ubZdlgmnkkjFN9lZiMVa0zzBr2
krIul6ldWCzEGUWs8kIcrWnL02WtK98VV77zb5r1C1e0v9av7u0lp6lvPczSRtxIYckdipowBxVQ
n8wa9Pe/X59Supb7h6f1p55Gl4fy8y3Lj7VxVSTVNTTT301LyddOlf1ZbISOIGkFPjaMHgW+Eb07
Yqi7nzb5qurb6rdazfT21OPoS3MzpSlKcWYjpiqVYq7FXYq7FXYq7FXYq7FXYq7FXYq7FXYq7FXY
q7FXYq7FUPe/3cf/ABlj/wCJjFX3R5F/ul+n9b4qzq5to50KsN8VYT5j8ppMrEJWvt/n92Kvn78x
PyVjubiXUdJP1HUzUsQD6Up60kXx9xv41xV45f2+o6TdfU9Ztms7jojtvFJTujjY4qugkZLq3aNi
vORFYjupPQ4qq3oAu5afzYqoYq7FXYq7FXYq7FXYq7FXYq7FXYq7FXYq7FXYq7FXYq7FXYq7FXYq
7FXYq7FUPe/3cf8Axlj/AOJjFX3R5E/ul+n9b4q9BxVZLEki8WFcVY9rHlqG4ViFBrirzXzZ+W9j
fwSQXdqk8LfaSRQwr9Pf5/firyO6/wCcfbVbpms7q8tYg3JIUYMqEfy80Y/icVUm/IB3Ys2p3xY9
TVf+qeKtf9C/H/q5X33r/wBU8Vd/0L8f+rlffev/AFTxV3/Qvx/6uV996/8AVPFXf9C/H/q5X33r
/wBU8Vd/0L8f+rlffev/AFTxV3/Qvx/6uV996/8AVPFXf9C/H/q5X33r/wBU8Vd/0L8f+rlffev/
AFTxV3/Qvx/6uV996/8AVPFXf9C/H/q5X33r/wBU8Vd/0L8f+rlffev/AFTxV3/Qvx/6uV996/8A
VPFXf9C/H/q5X33r/wBU8Vd/0L8f+rlffev/AFTxV3/Qvx/6uV996/8AVPFXf9C/H/q5X33r/wBU
8Vd/0L8f+rlffev/AFTxV3/Qvx/6uV996/8AVPFXf9C/H/q5X33r/wBU8Vd/0L8f+rlffev/AFTx
V3/Qvx/6uV996/8AVPFXf9C/H/q5X33r/wBU8Vd/0L8f+rlffev/AFTxV3/Qvx/6uV996/8AVPFX
L/zj6vNC+oXrqrK3ElSDxNf994q+kfI8UiRqGUg+B/2R/jirP8VdirsVQ1xYQTDdRXFUsfyzasxP
Eb/L+zFVv+F7X+UYq7/C9r/KMVd/he1/lGKu/wAL2v8AKMVd/he1/lGKu/wva/yjFXf4Xtf5Rirv
8L2v8oxV3+F7X+UYq7/C9r/KMVd/he1/lGKu/wAL2v8AKMVd/he1/lGKu/wva/yjFXf4Xtf5Rirv
8L2v8oxV3+F7X+UYq7/C9r/KMVd/he1/lGKu/wAL2v8AKMVd/he1/lGKu/wva/yjFXf4Xtf5Rirv
8L2v8oxV3+F7X+UYq7/C9r/KMVR9hpUNr9kAe2Kv/9k=
								</xapGImg:image>
						</rdf:li>
					</rdf:Alt>
				</xap:Thumbnails>
			</rdf:Description>
			
				<rdf:Description  rdf:about="uuid:3af0bcd6-eebc-11da-980f-001451315092" xmlns:stRef="http://ns.adobe.com/xap/1.0/sType/ResourceRef#" xmlns:xapMM="http://ns.adobe.com/xap/1.0/mm/">
				<xapMM:DocumentID>uuid:749E204FEFC411DA9064DAB41CCF8339</xapMM:DocumentID>
				<xapMM:InstanceID>uuid:26a751a1-ee39-11da-95ed-00112478973e</xapMM:InstanceID>
				<xapMM:Manager>AdobeARM</xapMM:Manager>
				<xapMM:DerivedFrom  rdf:parseType="Resource">
					<stRef:instanceID>uuid:cbd6ed1b-ee37-11da-a7f6-00112478973e</stRef:instanceID>
					<stRef:documentID>uuid:C89EA84CEF4011DA8369AD67D9F1B96A</stRef:documentID>
					<stRef:manager>AdobeARM</stRef:manager>
					<stRef:manageTo>http://192.168.0.2:3703/soap/Oxygen/documents/wip_konqueror.ai</stRef:manageTo>
				</xapMM:DerivedFrom>
			</rdf:Description>
			<rdf:Description  xmlns:dc="http://purl.org/dc/elements/1.1/" rdf:about="uuid:3af0bcd6-eebc-11da-980f-001451315092">
				<dc:format>image/svg+xml</dc:format>
				<dc:title>
					<rdf:Alt>
						<rdf:li  xml:lang="x-default">wip_konqueror</rdf:li>
					</rdf:Alt>
				</dc:title>
			</rdf:Description>
		</rdf:RDF>
	</x:xmpmeta>
</metadata>
<path opacity="0.05" fill="#323232" enable-background="new    " d="M6,0C4.776,0,3.638,0.548,2.875,1.503L0.877,4.002
	C0.312,4.705,0,5.593,0,6.5v64.433c0,1.062,0.412,2.062,1.16,2.816c4.106,4.141,8.884,7.469,14.202,9.892
	c0.003,0.001,0.423,0.139,0.423,0.139c-0.007-0.001,0.811,0.177,0.811,0.177c0.007,0,0.425,0.044,0.425,0.044H120
	c2.206,0,4-1.794,4-4v-9.787l-0.06-0.481l-0.23-0.934c-0.001-0.002-0.175-0.457-0.175-0.457C122.518,66.408,122,64.356,122,62.25
	c0-2.107,0.518-4.159,1.539-6.1c-0.002,0.003,0.175-0.466,0.175-0.466l0.229-0.917c0-0.001,0.059-0.48,0.059-0.48V6.5
	c0-0.903-0.311-1.79-0.875-2.497c-0.022-0.029-0.067-0.02-0.093-0.046c-0.323-0.415-1.907-2.455-1.907-2.455
	C120.357,0.547,119.219,0,118,0H6z"/>
<path opacity="0.1" fill="#323232" enable-background="new    " d="M6,1C5.083,1,4.228,1.411,3.656,2.127L1.658,4.626
	C1.234,5.154,1,5.82,1,6.5v64.433c0,0.798,0.309,1.548,0.87,2.112c4.02,4.054,8.699,7.312,13.907,9.687
	c0.065,0.028,0.144,0.055,0.213,0.068l0.818,0.178C16.878,82.992,16.949,83,17.021,83H120c1.654,0,3-1.346,3-3v-9.787
	c0-0.081-0.01-0.162-0.029-0.24l-0.23-0.935c-0.021-0.078-0.048-0.154-0.086-0.227c-1.098-2.083-1.654-4.29-1.654-6.562
	s0.557-4.48,1.654-6.565c0.038-0.07,0.068-0.158,0.089-0.237l0.228-0.918c0.021-0.079,0.029-0.16,0.029-0.241V6.5
	c0-0.678-0.233-1.343-0.656-1.873c0.028,0.036,0.021,0.086,0.044,0.125c-0.228-0.353-0.758-1.018-2.044-2.625
	C119.768,1.41,118.914,1,118,1H6z"/>
<path opacity="0.15" fill="#323232" enable-background="new    " d="M6,2C5.389,2,4.819,2.274,4.438,2.751l-1.999,2.5
	C2.156,5.603,2,6.047,2,6.5v64.433c0,0.531,0.206,1.031,0.58,1.408c3.934,3.967,8.513,7.156,13.611,9.479
	c0.002,0,0.829,0.18,0.829,0.18H120c1.103,0,2-0.897,2-2v-9.787l-0.231-0.935C120.596,67.052,120,64.687,120,62.25
	s0.596-4.802,1.77-7.031c0-0.003,0.23-0.932,0.23-0.932V6.5c0-0.452-0.155-0.896-0.438-1.249l-2-2.5C119.179,2.273,118.609,2,118,2
	H6z"/>
<path opacity="0.2" fill="#323232" enable-background="new    " d="M6,3C5.696,3,5.409,3.138,5.219,3.375l-2,2.5
	C3.077,6.053,3,6.273,3,6.5v64.433c0,0.265,0.104,0.518,0.29,0.704c3.849,3.881,8.329,7.001,13.316,9.273
	c0.13,0.06,0.271,0.09,0.415,0.09H120c0.553,0,1-0.447,1-1v-9.787c0-0.162-0.039-0.322-0.115-0.466
	C119.634,67.372,119,64.85,119,62.25s0.634-5.122,1.885-7.497c0.076-0.144,0.115-0.304,0.115-0.466V6.5
	c0-0.227-0.077-0.447-0.219-0.625l-2-2.5C118.591,3.138,118.304,3,118,3H6z"/>
<path opacity="0.25" fill="#323232" enable-background="new    " d="M120,6.5L118,4H6L4,6.5v64.433
	C7.72,74.684,12.126,77.77,17.021,80H120v-9.787c-1.269-2.409-2-5.104-2-7.963s0.731-5.554,2-7.963V6.5z"/>
<linearGradient id="XMLID_26_" gradientUnits="userSpaceOnUse" x1="61" y1="34.501" x2="61" y2="103.5009" gradientTransform="matrix(1 0 0 -1 1 108.5)">
	<stop  offset="0" style="stop-color:#000000"/>
	<stop  offset="1" style="stop-color:#1F1F1F"/>
</linearGradient>
<path fill="url(#XMLID_26_)" d="M120,5.5L118,3H6L4,5.5v64.433C7.72,73.684,12.126,76.77,17.021,79H120v-9.787
	c-1.269-2.409-2-5.104-2-7.963s0.731-5.554,2-7.963V5.5z"/>
<path fill="#323232" d="M5,6c0,1.926,0,62.646,0,63.495c3.568,3.533,7.686,6.396,12.259,8.505c0.47,0,99.784,0,101.741,0
	c0-1.573,0-8.21,0-8.574c-1.318-2.593-2-5.34-2-8.176s0.682-5.583,2-8.176c0-0.412,0-45.165,0-47.074C117.052,6,6.949,6,5,6z"/>
<path fill="#212121" d="M8,6v60.933c2.952,2.978,6.342,5.524,10.06,7.567H18V78c0.265,0,0.602,0,1,0v-2.989V74.5V74
	c-3.891-2.082-6.931-4.406-10-7.5V6C8.645,6,8.312,6,8,6z"/>
<path fill="#545454" d="M9,6v60.933c2.952,2.978,6.342,5.524,10.06,7.567H19V78c0.297,0,0.632,0,1,0v-2.989V74.5V74
	c-3.891-2.082-6.931-4.406-10-7.5V6C9.651,6,9.316,6,9,6z"/>
<g enable-background="new    ">
	<path fill="#DDDDDD" d="M16.949,18.833c-2.232,0-3.556-1.057-3.556-2.401c0-1.414,1.458-2.471,3.679-2.471
		c2.322,0,3.59,1.085,3.59,2.387c0,1.554-1.492,2.485-3.702,2.485H16.949z M17.027,17.986c1.155,0,1.817-0.679,1.817-1.603
		c0-0.847-0.639-1.575-1.817-1.575c-1.178,0-1.84,0.714-1.84,1.596c0,0.889,0.684,1.582,1.829,1.582H17.027z"/>
</g>
<g enable-background="new    ">
	<path fill="#DDDDDD" d="M25.958,18.756l-0.685-0.854c-0.28-0.329-0.459-0.574-0.673-0.847h-0.022
		c-0.157,0.273-0.348,0.518-0.594,0.847l-0.617,0.854h-1.952l2.187-2.387l-2.109-2.331h1.963l0.662,0.861
		c0.225,0.287,0.393,0.518,0.572,0.784h0.022c0.179-0.301,0.325-0.511,0.516-0.784l0.639-0.861h1.952l-2.131,2.303l2.243,2.415
		H25.958z"/>
</g>
<g enable-background="new    ">
	<path fill="#DDDDDD" d="M31.344,18.756v-1.932l-2.389-2.786h1.963l0.763,1.134c0.236,0.343,0.404,0.595,0.583,0.903h0.022
		c0.168-0.294,0.348-0.567,0.572-0.903l0.763-1.134h1.918l-2.49,2.751v1.967H31.344z"/>
</g>
<g enable-background="new    ">
	<path fill="#DDDDDD" d="M42.691,18.539c-0.527,0.112-1.525,0.266-2.524,0.266c-1.379,0-2.378-0.217-3.073-0.63
		c-0.685-0.413-1.066-1.029-1.066-1.722c0.011-1.568,1.84-2.464,4.319-2.464c0.976,0,1.728,0.119,2.098,0.224l-0.359,0.861
		c-0.415-0.119-0.92-0.203-1.75-0.203c-1.425,0-2.513,0.504-2.513,1.526c0,0.98,0.987,1.547,2.389,1.547
		c0.381,0,0.696-0.028,0.83-0.063v-0.994h-1.167v-0.833h2.815V18.539z"/>
	<path fill="#DDDDDD" d="M48.525,16.761h-2.782v1.12h3.107v0.875h-4.812v-4.718h4.655v0.875h-2.95v0.98h2.782V16.761z"/>
</g>
<g enable-background="new    ">
	<path fill="#DDDDDD" d="M51.207,18.756v-4.718h1.997l1.57,1.729c0.449,0.497,0.886,1.085,1.234,1.617h0.022
		c-0.101-0.623-0.135-1.26-0.135-1.974v-1.372h1.571v4.718h-1.795l-1.615-1.82c-0.449-0.511-0.954-1.113-1.312-1.666h-0.045
		c0.056,0.63,0.079,1.295,0.079,2.065v1.421H51.207z"/>
</g>
<g enable-background="new    ">
	<path fill="#DDDDDD" d="M57.513,52.42c-0.051-0.607-0.103-1.344-0.09-1.936h-0.039c-0.167,0.592-0.397,1.239-0.603,1.76
		l-0.897,2.191h-0.936L54.103,52.3c-0.231-0.544-0.461-1.216-0.615-1.815h-0.039c-0.013,0.607-0.064,1.319-0.116,1.96L53.179,54.5
		h-1.192l0.577-5.392h1.449l0.833,2.184c0.269,0.696,0.487,1.264,0.654,1.872h0.025c0.154-0.608,0.346-1.168,0.603-1.872
		l0.808-2.184h1.475l0.513,5.392h-1.244L57.513,52.42z"/>
</g>
<g enable-background="new    ">
	<path fill="#DDDDDD" d="M62.583,52.658h-1.538v1.284h1.75V54.5h-2.779v-4.044h2.663v0.558h-1.634v1.11h1.538V52.658z"/>
	<path fill="#DDDDDD" d="M67.573,52.94c-0.039-0.456-0.077-1.009-0.067-1.452h-0.029c-0.125,0.443-0.298,0.93-0.452,1.319
		l-0.673,1.645h-0.702l-0.634-1.603c-0.174-0.407-0.347-0.912-0.462-1.361h-0.028c-0.01,0.456-0.049,0.989-0.087,1.47L64.323,54.5
		h-0.895l0.433-4.044h1.087l0.625,1.638c0.201,0.522,0.365,0.948,0.49,1.404h0.02c0.115-0.456,0.259-0.876,0.451-1.404l0.606-1.638
		h1.105l0.385,4.044h-0.933L67.573,52.94z"/>
	<path fill="#DDDDDD" d="M73.227,52.424c0,1.524-0.856,2.124-2,2.124c-1.289,0-1.933-0.857-1.933-2.076
		c0-1.212,0.73-2.063,2.028-2.063C72.688,50.408,73.227,51.338,73.227,52.424z M70.361,52.478c0,0.883,0.269,1.513,0.923,1.513
		c0.663,0,0.875-0.727,0.875-1.536c0-0.732-0.192-1.488-0.885-1.488C70.63,50.966,70.361,51.632,70.361,52.478z"/>
</g>
<g enable-background="new    ">
	<path fill="#DDDDDD" d="M74.063,50.516c0.355-0.054,0.808-0.078,1.24-0.078c0.663,0,1.221,0.072,1.605,0.295
		c0.356,0.216,0.49,0.485,0.49,0.821c0,0.468-0.365,0.834-1.019,1.021v0.012c0.451,0.102,0.692,0.372,0.817,0.852
		c0.144,0.492,0.298,0.925,0.403,1.062h-1.067c-0.086-0.114-0.221-0.51-0.336-0.984c-0.125-0.521-0.366-0.695-0.875-0.695h-0.24
		v1.68h-1.02V50.516z M75.083,52.328h0.269c0.615,0,1-0.3,1-0.714c0-0.396-0.25-0.666-0.923-0.672c-0.125,0-0.26,0.006-0.346,0.023
		V52.328z"/>
</g>
<g enable-background="new    ">
	<path fill="#DDDDDD" d="M79.073,54.5v-1.62l-1.423-2.424h1.096l0.5,0.984c0.135,0.27,0.279,0.581,0.404,0.888h0.019
		c0.097-0.307,0.231-0.606,0.375-0.906l0.462-0.966h1.067l-1.472,2.4V54.5H79.073z"/>
</g>
<g enable-background="new    ">
	<path fill="#DDDDDD" d="M83.599,53.588c0.32,0.12,0.884,0.216,1.333,0.216c0.846,0,1.308-0.312,1.308-0.752
		c0-0.432-0.423-0.68-1.128-0.983c-0.962-0.385-1.629-0.92-1.629-1.504c0-0.841,0.911-1.504,2.526-1.504
		c0.551,0,1.063,0.104,1.295,0.191l-0.257,0.736c-0.23-0.097-0.603-0.185-1.064-0.185c-0.781,0-1.153,0.328-1.153,0.656
		c0,0.416,0.346,0.608,1.23,0.96c1.09,0.448,1.525,0.968,1.525,1.544c0,0.968-1.103,1.584-2.653,1.584
		c-0.654,0-1.295-0.112-1.564-0.224L83.599,53.588z"/>
</g>
<g enable-background="new    ">
	<path fill="#DDDDDD" d="M89.18,51.044h-1.163v-0.588h3.365v0.588h-1.173V54.5H89.18V51.044z"/>
	<path fill="#DDDDDD" d="M93.103,50.456V54.5h-1.028v-4.044H93.103z"/>
	<path fill="#DDDDDD" d="M97.228,54.434c-0.192,0.061-0.528,0.103-0.952,0.103c-1.48,0-2.326-0.756-2.326-2.004
		c0-1.555,1.317-2.112,2.471-2.112c0.423,0,0.712,0.054,0.846,0.102l-0.191,0.54c-0.154-0.042-0.309-0.077-0.616-0.077
		c-0.701,0-1.423,0.401-1.423,1.506c0,1.086,0.654,1.476,1.433,1.476c0.24,0,0.481-0.03,0.635-0.072L97.228,54.434z"/>
	<path fill="#DDDDDD" d="M97.949,50.456h1.02v1.866h0.028c0.125-0.168,0.23-0.342,0.355-0.511l1.02-1.355h1.125l-1.51,1.746
		l1.548,2.298h-1.125l-1.115-1.8l-0.326,0.359v1.44h-1.02V50.456z"/>
</g>
<linearGradient id="XMLID_27_" gradientUnits="userSpaceOnUse" x1="61" y1="102.5" x2="61" y2="104" gradientTransform="matrix(1 0 0 -1 1 108.5)">
	<stop  offset="0" style="stop-color:#888888"/>
	<stop  offset="1" style="stop-color:#1F1F1F"/>
</linearGradient>
<polygon fill="url(#XMLID_27_)" points="117.5,4 6.5,4 5,6 119,6 "/>
<polygon fill="#DDDDDD" points="19.57,70 19.57,60.5 15.93,65.023 "/>
<g enable-background="new    ">
	<path fill="#DDDDDD" d="M23.102,68.264c0.364,0.21,0.868,0.351,1.358,0.351c0.882,0,1.372-0.546,1.372-1.316
		c0-1.008-0.77-1.441-1.708-1.441h-0.252v-1.345h0.182c0.672-0.014,1.54-0.294,1.54-1.176c0-0.658-0.42-1.05-1.064-1.05
		c-0.406,0-0.812,0.154-1.148,0.364l-0.238-1.387c0.378-0.237,1.12-0.476,1.876-0.476c1.596,0,2.394,1.036,2.394,2.198
		c0,0.91-0.504,1.666-1.302,2.044v0.027c0.882,0.294,1.554,1.078,1.554,2.311c0,1.386-1.064,2.744-3.038,2.744
		c-0.742,0-1.386-0.183-1.792-0.406L23.102,68.264z"/>
	<path fill="#DDDDDD" d="M28.8,70v-1.232l0.91-1.161c1.176-1.498,2.142-2.744,2.142-4.047c0-0.728-0.406-1.245-1.162-1.245
		c-0.574,0-1.036,0.252-1.372,0.462l-0.322-1.429c0.42-0.266,1.204-0.56,2.03-0.56c1.988,0,2.632,1.33,2.632,2.632
		c0,1.708-1.064,3.08-2.114,4.298l-0.546,0.63v0.028h2.786V70H28.8z"/>
</g>
<g enable-background="new    ">
	<path fill="#DDDDDD" d="M40.152,67.678c-0.027-0.729-0.054-1.61-0.054-2.493h-0.027c-0.189,0.774-0.441,1.639-0.675,2.35
		l-0.738,2.367h-1.071l-0.648-2.341c-0.198-0.72-0.405-1.584-0.549-2.376h-0.018c-0.036,0.819-0.063,1.756-0.108,2.512L36.156,70
		h-1.269l0.387-6.066h1.827l0.594,2.025c0.189,0.693,0.378,1.458,0.513,2.169h0.027c0.171-0.702,0.378-1.503,0.576-2.178
		l0.648-2.017h1.791L41.583,70h-1.341L40.152,67.678z"/>
	<path fill="#DDDDDD" d="M42.636,64.015c0.36-0.071,1.089-0.126,1.773-0.126c0.837,0,1.35,0.081,1.791,0.342
		c0.423,0.226,0.729,0.64,0.729,1.188c0,0.54-0.315,1.044-0.999,1.296v0.019c0.693,0.188,1.206,0.711,1.206,1.493
		c0,0.55-0.252,0.981-0.63,1.287c-0.441,0.352-1.179,0.549-2.385,0.549c-0.675,0-1.179-0.045-1.485-0.09V64.015z M43.995,66.337
		h0.45c0.72,0,1.107-0.297,1.107-0.747c0-0.459-0.351-0.702-0.972-0.702c-0.297,0-0.468,0.019-0.585,0.036V66.337z M43.995,69.028
		c0.135,0.018,0.297,0.018,0.531,0.018c0.621,0,1.17-0.243,1.17-0.873c0-0.612-0.549-0.854-1.233-0.854h-0.468V69.028z"/>
</g>
<polygon fill="#212121" points="9.5,4 9,4 8,6 9,6 "/>
<linearGradient id="XMLID_28_" gradientUnits="userSpaceOnUse" x1="8.4995" y1="102.5" x2="8.4995" y2="104.5" gradientTransform="matrix(1 0 0 -1 1 108.5)">
	<stop  offset="0" style="stop-color:#888888"/>
	<stop  offset="1" style="stop-color:#1F1F1F"/>
</linearGradient>
<polygon fill="url(#XMLID_28_)" points="9,6 10,6 10,4 9.5,4 "/>
<g>
	<g>
		<path fill="#DDDDDD" d="M111.298,11.697c-0.338,0.563-1.078,0.831-1.761,0.958c-1.12-1.045-2.62-1.685-4.272-1.685
			c-3.46,0-6.265,2.805-6.265,6.265s2.805,6.265,6.265,6.265s6.267-2.805,6.267-6.265c0-1.068-0.27-2.074-0.74-2.954
			C111.748,13.292,111.875,10.736,111.298,11.697z M105.265,21.835c-2.541,0-4.601-2.06-4.601-4.601s2.06-4.601,4.601-4.601
			c2.542,0,4.602,2.06,4.602,4.601S107.807,21.835,105.265,21.835z"/>
	</g>
</g>
</svg>
