<?xml version="1.0" encoding="UTF-8" standalone="no"?>
<!-- Created with Inkscape (http://www.inkscape.org/) -->
<svg
   xmlns:dc="http://purl.org/dc/elements/1.1/"
   xmlns:cc="http://web.resource.org/cc/"
   xmlns:rdf="http://www.w3.org/1999/02/22-rdf-syntax-ns#"
   xmlns:svg="http://www.w3.org/2000/svg"
   xmlns="http://www.w3.org/2000/svg"
   xmlns:xlink="http://www.w3.org/1999/xlink"
   xmlns:sodipodi="http://sodipodi.sourceforge.net/DTD/sodipodi-0.dtd"
   xmlns:inkscape="http://www.inkscape.org/namespaces/inkscape"
   width="128"
   height="128"
   id="svg2606"
   sodipodi:version="0.32"
   inkscape:version="0.45.1"
   version="1.0"
   sodipodi:docname="ascii.svg"
   inkscape:output_extension="org.inkscape.output.svg.inkscape"
   sodipodi:docbase="/home/david/sandbox/svg/mimetypes/small/16x16">
  <defs
     id="defs2608">
    <linearGradient
       id="linearGradient10207">
      <stop
         style="stop-color:#a2a2a2;stop-opacity:1;"
         offset="0"
         id="stop10209" />
      <stop
         style="stop-color:#ffffff;stop-opacity:1;"
         offset="1"
         id="stop10211" />
    </linearGradient>
    <linearGradient
       id="XMLID_12_"
       gradientUnits="userSpaceOnUse"
       x1="96"
       y1="104"
       x2="88.000198"
       y2="96.000198">
      <stop
         offset="0"
         style="stop-color:#888A85"
         id="stop83" />
      <stop
         offset="0.0072"
         style="stop-color:#8C8E89"
         id="stop85" />
      <stop
         offset="0.0673"
         style="stop-color:#ABACA9"
         id="stop87" />
      <stop
         offset="0.1347"
         style="stop-color:#C5C6C4"
         id="stop89" />
      <stop
         offset="0.2652576"
         style="stop-color:#DBDBDA"
         id="stop91" />
      <stop
         offset="0.37646064"
         style="stop-color:#EBEBEB"
         id="stop93" />
      <stop
         offset="0.48740286"
         style="stop-color:#F7F7F6"
         id="stop95" />
      <stop
         offset="0.6324091"
         style="stop-color:#FDFDFD"
         id="stop97" />
      <stop
         offset="1"
         style="stop-color:#FFFFFF"
         id="stop99" />
    </linearGradient>
    <radialGradient
       id="XMLID_8_"
       cx="102"
       cy="112.3047"
       r="139.55859"
       gradientUnits="userSpaceOnUse">
      <stop
         offset="0"
         style="stop-color:#b7b8b9;stop-opacity:1;"
         id="stop41" />
      <stop
         offset="0.18851049"
         style="stop-color:#ECECEC"
         id="stop47" />
      <stop
         offset="0.25718147"
         style="stop-color:#FAFAFA"
         id="stop49" />
      <stop
         offset="0.30111277"
         style="stop-color:#FFFFFF"
         id="stop51" />
      <stop
         offset="0.5313"
         style="stop-color:#FAFAFA"
         id="stop53" />
      <stop
         offset="0.8449"
         style="stop-color:#EBECEC"
         id="stop55" />
      <stop
         offset="1"
         style="stop-color:#E1E2E3"
         id="stop57" />
    </radialGradient>
    <filter
       inkscape:collect="always"
       x="-0.19200002"
       width="1.3839999"
       y="-0.19199999"
       height="1.3839999"
       id="filter6697">
      <feGaussianBlur
         inkscape:collect="always"
         stdDeviation="1.9447689"
         id="feGaussianBlur6699" />
    </filter>
    <clipPath
       clipPathUnits="userSpaceOnUse"
       id="clipPath7084">
      <path
         style="fill:#000000;fill-opacity:1;fill-rule:evenodd;stroke:none;stroke-width:1px;stroke-linecap:butt;stroke-linejoin:miter;stroke-opacity:1"
         d="M 72,88 L 40,120 L 32,120 L 32,80 L 72,80 L 72,88 z"
         id="path7086" />
    </clipPath>
    <radialGradient
       inkscape:collect="always"
       xlink:href="#XMLID_8_"
       id="radialGradient9437"
       gradientUnits="userSpaceOnUse"
       gradientTransform="matrix(0.9361702,0,0,0.9428661,4.085106,3.7642086)"
       cx="102"
       cy="112.3047"
       r="139.55859" />
    <linearGradient
       inkscape:collect="always"
       xlink:href="#linearGradient10207"
       id="linearGradient10213"
       x1="98.617439"
       y1="106.41443"
       x2="91.228737"
       y2="99.254974"
       gradientUnits="userSpaceOnUse" />
  </defs>
  <sodipodi:namedview
     id="base"
     pagecolor="#ffffff"
     bordercolor="#666666"
     borderopacity="1.0"
     inkscape:pageopacity="0.0"
     inkscape:pageshadow="2"
     inkscape:zoom="4"
     inkscape:cx="64"
     inkscape:cy="75.798844"
     inkscape:document-units="px"
     inkscape:current-layer="layer1"
     width="128px"
     height="128px"
     gridspacingx="4px"
     gridspacingy="4px"
     gridempspacing="2"
     showgrid="true"
     inkscape:grid-points="true"
     showguides="true"
     inkscape:guide-bbox="true"
     inkscape:window-width="1016"
     inkscape:window-height="692"
     inkscape:window-x="2"
     inkscape:window-y="2" />
  <metadata
     id="metadata2611">
    <rdf:RDF>
      <cc:Work
         rdf:about="">
        <dc:format>image/svg+xml</dc:format>
        <dc:type
           rdf:resource="http://purl.org/dc/dcmitype/StillImage" />
      </cc:Work>
    </rdf:RDF>
  </metadata>
  <g
     inkscape:label="Livello 1"
     inkscape:groupmode="layer"
     id="layer1">
    <path
       style="opacity:0.1;fill:none;fill-opacity:1;stroke:#000000;stroke-width:16;stroke-linejoin:round;stroke-miterlimit:4;stroke-dasharray:none;stroke-opacity:1"
       d="M 16.000001,8 L 16,120 C 16,120 79.146418,120 79.146418,120 L 112,87.14642 L 112,8 L 16.000001,8 z"
       id="path3176"
       sodipodi:nodetypes="cccccc" />
    <path
       sodipodi:nodetypes="cccccc"
       id="path3174"
       d="M 16.000001,8 L 16,120 C 16,120 79.146418,120 79.146418,120 L 112,87.14642 L 112,8 L 16.000001,8 z"
       style="opacity:0.15;fill:none;fill-opacity:1;stroke:#000000;stroke-width:12;stroke-linejoin:round;stroke-miterlimit:4;stroke-dasharray:none;stroke-opacity:1" />
    <path
       style="opacity:0.2;fill:none;fill-opacity:1;stroke:#000000;stroke-width:8;stroke-linejoin:round;stroke-miterlimit:4;stroke-dasharray:none;stroke-opacity:1"
       d="M 16.000001,8 L 16,120 C 16,120 79.146418,120 79.146418,120 L 112,87.14642 L 112,8 L 16.000001,8 z"
       id="path3172"
       sodipodi:nodetypes="cccccc" />
    <path
       sodipodi:nodetypes="cccccc"
       id="path2789"
       d="M 16.000001,8 L 16,120 C 16,120 79.146418,120 79.146418,120 L 112,87.14642 L 112,8 L 16.000001,8 z"
       style="opacity:0.25;fill:none;fill-opacity:1;stroke:#000000;stroke-width:4;stroke-linejoin:round;stroke-miterlimit:4;stroke-dasharray:none;stroke-opacity:1" />
    <path
       style="fill:#ffffff;fill-opacity:1"
       d="M 16.000001,8 L 16,120 C 16,120 79.146418,120 79.146418,120 L 112,87.14642 L 112,8 L 16.000001,8 z"
       id="path34"
       sodipodi:nodetypes="cccccc" />
    <path
       style="fill:url(#radialGradient9437);fill-opacity:1"
       d="M 20.93617,12.250003 C 20.42034,12.250003 20,12.673351 20,13.192869 L 20,115.02241 C 20,115.54287 20.42034,115.96527 20.93617,115.96527 L 76.331232,115.96527 C 76.577445,115.96527 78.917571,116.07669 79.0917,115.90038 L 107.7257,86.850213 C 107.90076,86.673896 108,84.317975 108,84.070002 L 108,13.192869 C 108,12.673351 107.5806,12.250003 107.06383,12.250003 L 20.93617,12.250003 z"
       id="path59"
       sodipodi:nodetypes="ccccccccccc" />
    <path
       d="M 27.739179,28.305683 L 28.652051,28.305683 L 28.652051,31.483797 L 28.557616,33.215989 L 27.833613,33.215989 L 27.739179,31.483797 L 27.739179,28.305683 z M 27.739179,34.31741 L 28.652051,34.31741 L 28.652051,35.549839 L 27.739179,35.549839 L 27.739179,34.31741 z M 34.983698,28.305683 L 34.983698,30.99859 L 34.201236,30.99859 L 34.201236,28.305683 L 34.983698,28.305683 z M 33.261383,28.305683 L 33.261383,30.99859 L 32.47892,30.99859 L 32.47892,28.305683 L 33.261383,28.305683 z M 39.575042,28.417285 L 39.107362,30.430896 L 40.209104,30.430896 L 40.68128,28.417285 L 41.400787,28.417285 L 40.928611,30.430896 L 42.025856,30.430896 L 42.025856,31.178117 L 40.762226,31.178117 L 40.384483,32.79871 L 41.508713,32.79871 L 41.508713,33.541078 L 40.209104,33.541078 L 39.741427,35.549839 L 39.021922,35.549839 L 39.494098,33.541078 L 38.387858,33.541078 L 37.915682,35.549839 L 37.200674,35.549839 L 37.668353,33.541078 L 36.508151,33.541078 L 36.508151,32.79871 L 37.843731,32.79871 L 38.221473,31.178117 L 37.025294,31.178117 L 37.025294,30.430896 L 38.387858,30.430896 L 38.855536,28.417285 L 39.575042,28.417285 z M 40.04272,31.178117 L 38.940977,31.178117 L 38.563237,32.79871 L 39.669477,32.79871 L 40.04272,31.178117 z M 45.151209,32.735634 L 45.151209,34.841436 C 45.48098,34.831733 45.738803,34.733074 45.924676,34.545458 C 46.110544,34.357846 46.20348,34.102304 46.203486,33.778829 C 46.20348,33.478004 46.119539,33.244296 45.951657,33.077704 C 45.783771,32.911119 45.516952,32.797096 45.151209,32.735634 L 45.151209,32.735634 z M 44.701516,31.813738 L 44.701516,29.80983 C 44.38973,29.822775 44.146146,29.919817 43.97077,30.100955 C 43.795388,30.282104 43.7077,30.524708 43.707701,30.828767 C 43.7077,31.106956 43.789393,31.326916 43.952782,31.488649 C 44.116169,31.650388 44.365746,31.758752 44.701516,31.813738 L 44.701516,31.813738 z M 45.151209,37.010311 L 44.701516,37.010311 L 44.697021,35.549839 C 44.391229,35.533665 44.087687,35.48838 43.786397,35.413981 C 43.485103,35.339583 43.187558,35.236072 42.893762,35.103448 L 42.893762,34.230072 C 43.193553,34.430628 43.495594,34.584277 43.799888,34.691022 C 44.104177,34.797768 44.404718,34.854376 44.701516,34.860843 L 44.701516,32.638593 C 44.101927,32.53832 43.650738,32.341001 43.347948,32.04664 C 43.045156,31.752283 42.893759,31.3625 42.893762,30.877287 C 42.893759,30.369441 43.0519,29.964294 43.368183,29.661842 C 43.684464,29.359402 44.128907,29.185536 44.701516,29.140244 L 44.701516,28.000004 L 45.151209,28.000004 L 45.155705,29.140244 C 45.39254,29.156423 45.632374,29.18877 45.87521,29.237286 C 46.118039,29.285812 46.36537,29.352123 46.6172,29.43622 L 46.6172,30.275631 C 46.36237,30.136541 46.11429,30.028988 45.872964,29.952967 C 45.631626,29.876957 45.391041,29.83248 45.151209,29.819534 L 45.151209,31.91078 C 45.768781,32.011059 46.239456,32.218082 46.563237,32.531847 C 46.88701,32.845616 47.048896,33.251574 47.048902,33.749717 C 47.048896,34.247866 46.874269,34.663528 46.525015,34.996701 C 46.175749,35.329879 45.719313,35.511023 45.155705,35.540134 L 45.151209,37.010311 z M 50.709386,34.002026 C 50.709384,34.254334 50.78808,34.466208 50.945476,34.637648 C 51.102863,34.809089 51.298478,34.894809 51.532322,34.894809 C 51.763158,34.894809 51.958774,34.808281 52.119168,34.635222 C 52.279553,34.462165 52.359747,34.251101 52.359752,34.002026 C 52.359747,33.752956 52.278804,33.54108 52.116918,33.366404 C 51.955026,33.191732 51.76016,33.104395 51.532322,33.104392 C 51.298478,33.104395 51.102863,33.190114 50.945476,33.361553 C 50.78808,33.532994 50.709384,33.746484 50.709386,34.002026 L 50.709386,34.002026 z M 50.102303,34.002026 C 50.102301,33.565341 50.240207,33.197394 50.51602,32.898178 C 50.791827,32.598969 51.130596,32.449364 51.532322,32.449361 C 51.724186,32.449364 51.906309,32.488182 52.078696,32.565811 C 52.251073,32.643446 52.406214,32.756662 52.544125,32.905455 C 52.682026,33.057491 52.788452,33.227314 52.863407,33.414924 C 52.938349,33.60254 52.975824,33.798241 52.975828,34.002026 C 52.975824,34.432244 52.836418,34.797768 52.557616,35.098596 C 52.278804,35.399424 51.937038,35.549839 51.532322,35.549839 C 51.124599,35.549839 50.784331,35.401851 50.511523,35.105874 C 50.238706,34.809896 50.102301,34.441947 50.102303,34.002026 L 50.102303,34.002026 z M 48.123664,33.293623 L 47.966273,32.827823 L 52.652052,30.799653 L 52.836426,31.265453 L 48.123664,33.293623 z M 48.335021,30.154327 C 48.335018,30.409876 48.413715,30.622557 48.571107,30.792374 C 48.728496,30.962203 48.925613,31.047114 49.162451,31.04711 C 49.39329,31.047114 49.589655,30.960586 49.751547,30.787524 C 49.913432,30.614471 49.994377,30.403407 49.99438,30.154327 C 49.994377,29.905261 49.913432,29.694195 49.751547,29.521131 C 49.589655,29.34808 49.39329,29.261552 49.162451,29.261545 C 48.931607,29.261552 48.735991,29.347271 48.575604,29.518705 C 48.415213,29.690152 48.335018,29.902025 48.335021,30.154327 L 48.335021,30.154327 z M 47.727938,30.154327 C 47.727938,29.717647 47.865841,29.349697 48.141652,29.05048 C 48.417461,28.751276 48.757728,28.601669 49.162451,28.601662 C 49.354318,28.601669 49.537941,28.640486 49.71332,28.718113 C 49.8887,28.795751 50.043842,28.90735 50.178752,29.052907 C 50.313657,29.198475 50.417835,29.365871 50.491288,29.555096 C 50.564734,29.744333 50.601458,29.944076 50.601463,30.154327 C 50.601458,30.587784 50.462054,30.954118 50.183248,31.253323 C 49.904438,31.55254 49.564173,31.702145 49.162451,31.702141 C 48.757728,31.702145 48.417461,31.553349 48.141652,31.255749 C 47.865841,30.95816 47.727938,30.591019 47.727938,30.154327 L 47.727938,30.154327 z M 55.579538,31.149003 L 57.450253,33.861314 C 57.567167,33.702816 57.654109,33.502264 57.711073,33.259657 C 57.76803,33.017057 57.796511,32.727548 57.796514,32.391135 C 57.796511,32.287628 57.792014,32.122658 57.783023,31.896223 L 57.778528,31.862259 L 58.51602,31.862259 L 58.51602,32.051491 C 58.516015,32.572284 58.460554,33.029188 58.349634,33.422203 C 58.238705,33.815222 58.070823,34.154059 57.845983,34.438712 L 58.610456,35.549839 L 57.652613,35.549839 L 57.301854,35.020963 C 57.053021,35.247392 56.789202,35.415598 56.510399,35.525578 C 56.231588,35.635559 55.933292,35.69055 55.615514,35.69055 C 54.967958,35.69055 54.432827,35.473015 54.010118,35.037945 C 53.587407,34.602875 53.376054,34.0554 53.376055,33.395516 C 53.376054,32.952362 53.479482,32.541553 53.686341,32.163088 C 53.893196,31.784629 54.204984,31.433662 54.621698,31.110187 C 54.4718,30.877292 54.360877,30.649244 54.288927,30.426043 C 54.216975,30.202855 54.180998,29.976424 54.181001,29.746753 C 54.180998,29.261552 54.330147,28.878238 54.628444,28.596812 C 54.926737,28.315395 55.335206,28.174688 55.85385,28.17468 C 56.048711,28.174688 56.244329,28.194095 56.440697,28.232906 C 56.637059,28.271729 56.840168,28.328336 57.050029,28.402727 L 57.050029,29.290658 C 56.873146,29.16451 56.691021,29.071513 56.503654,29.011663 C 56.316279,28.951828 56.119165,28.921908 55.912311,28.921899 C 55.621506,28.921908 55.392166,28.995498 55.224284,29.142668 C 55.056394,29.289855 54.972453,29.487981 54.972456,29.737049 C 54.972453,29.927902 55.015924,30.127646 55.102867,30.33628 C 55.189804,30.544926 55.348696,30.815833 55.579538,31.149003 L 55.579538,31.149003 z M 54.990444,31.65362 C 54.714632,31.889758 54.508524,32.139641 54.37212,32.403266 C 54.235712,32.666899 54.16751,32.947509 54.167511,33.245102 C 54.16751,33.733546 54.317406,34.138694 54.6172,34.460547 C 54.916992,34.782403 55.29923,34.943329 55.763912,34.943328 C 55.889821,34.943329 56.021733,34.923921 56.15964,34.885103 C 56.297544,34.846289 56.432449,34.789679 56.564362,34.715281 C 56.645302,34.666763 56.712007,34.623901 56.764474,34.586701 C 56.816934,34.549502 56.86715,34.509878 56.915121,34.467827 L 54.990444,31.65362 z M 61.81675,28.305683 L 61.81675,30.99859 L 61.034288,30.99859 L 61.034288,28.305683 L 61.81675,28.305683 z M 68.179878,28.00971 C 67.781145,28.747233 67.483603,29.482321 67.28724,30.214979 C 67.090873,30.947646 66.992689,31.685971 66.992694,32.429953 C 66.992689,33.170706 67.090873,33.90822 67.28724,34.642501 C 67.483603,35.376782 67.781145,36.115914 68.179878,36.859893 L 67.460374,36.859893 C 67.007679,36.090037 66.670414,35.340391 66.448565,34.610963 C 66.226717,33.881534 66.115794,33.154533 66.115794,32.429953 C 66.115794,31.708614 66.226717,30.98242 66.448565,30.251369 C 66.670414,29.520329 67.007679,28.77311 67.460374,28.00971 L 68.179878,28.00971 z M 71.305229,28.00971 L 72.024734,28.00971 C 72.47742,28.77311 72.814685,29.520329 73.036538,30.251369 C 73.258382,30.98242 73.369303,31.708614 73.369311,32.429953 C 73.369303,33.157767 73.258382,33.887194 73.036538,34.618241 C 72.814685,35.349287 72.47742,36.096505 72.024734,36.859893 L 71.305229,36.859893 C 71.703954,36.109445 72.001497,35.367076 72.197863,34.632797 C 72.394226,33.898517 72.492411,33.164237 72.492411,32.429953 C 72.492411,31.692441 72.394226,30.956541 72.197863,30.222257 C 72.001497,29.487981 71.703954,28.750467 71.305229,28.00971 L 71.305229,28.00971 z M 80.078695,29.499297 L 78.468802,30.4406 L 80.078695,31.386757 L 79.822374,31.862259 L 78.311408,30.877287 L 78.311408,32.706522 L 77.794265,32.706522 L 77.794265,30.877287 L 76.283306,31.862259 L 76.026981,31.386757 L 77.636877,30.4406 L 76.026981,29.499297 L 76.283306,29.018943 L 77.794265,30.003913 L 77.794265,28.17468 L 78.311408,28.17468 L 78.311408,30.003913 L 79.822374,29.018943 L 80.078695,29.499297 z M 83.968528,29.868055 L 83.968528,32.022378 L 85.969642,32.022378 L 85.969642,32.847231 L 83.968528,32.847231 L 83.968528,35.001554 L 83.213048,35.001554 L 83.213048,32.847231 L 81.216414,32.847231 L 81.216414,32.022378 L 83.213048,32.022378 L 83.213048,29.868055 L 83.968528,29.868055 z M 88.618336,34.079659 L 89.751541,34.079659 L 89.751541,35.084038 L 88.865647,36.942381 L 88.173126,36.942381 L 88.618336,35.084038 L 88.618336,34.079659 z M 93.501969,32.429953 L 95.844855,32.429953 L 95.844855,33.225692 L 93.501969,33.225692 L 93.501969,32.429953 z M 99.640247,34.069954 L 100.77347,34.069954 L 100.77347,35.549839 L 99.640247,35.549839 L 99.640247,34.069954 z M 106.97922,28.305683 L 107.83363,28.305683 L 104.29906,36.471735 L 103.44014,36.471735 L 106.97922,28.305683 z M 22.05059,44.332104 C 22.050587,44.154199 22.108298,44.000543 22.223721,43.871152 C 22.339139,43.741776 22.477792,43.67708 22.639684,43.677065 C 22.807567,43.67708 22.951466,43.741776 23.071388,43.871152 C 23.191302,44.000543 23.25126,44.154199 23.251263,44.332104 C 23.25126,44.513246 23.192053,44.6669 23.073635,44.793054 C 22.955215,44.91921 22.810564,44.982279 22.639684,44.982279 C 22.471797,44.982279 22.331644,44.920821 22.219223,44.797903 C 22.106798,44.674983 22.050587,44.519719 22.05059,44.332104 L 22.05059,44.332104 z M 22.648678,41.372337 C 22.225964,41.372337 21.910432,41.618173 21.702077,42.109848 C 21.49372,42.601536 21.389541,43.350366 21.389544,44.356368 C 21.389541,45.359134 21.49372,46.106352 21.702077,46.598026 C 21.910432,47.089702 22.225964,47.335538 22.648678,47.335538 C 23.07438,47.335538 23.391414,47.089702 23.599773,46.598026 C 23.808127,46.106352 23.912305,45.359134 23.912309,44.356368 C 23.912305,43.350366 23.808127,42.601536 23.599773,42.109848 C 23.391414,41.618173 23.07438,41.372337 22.648678,41.372337 L 22.648678,41.372337 z M 22.648678,40.596006 C 23.365182,40.596006 23.90706,40.913011 24.274313,41.547006 C 24.641551,42.181016 24.825176,43.117474 24.825182,44.356368 C 24.825176,45.592026 24.641551,46.526859 24.274313,47.160869 C 23.90706,47.794866 23.365182,48.11187 22.648678,48.11187 C 21.93217,48.11187 21.391041,47.794866 21.025295,47.160869 C 20.659545,46.526859 20.47667,45.592026 20.476671,44.356368 C 20.47667,43.117474 20.659545,42.181016 21.025295,41.547006 C 21.391041,40.913011 21.93217,40.596006 22.648678,40.596006 L 22.648678,40.596006 z M 26.632939,47.146314 L 28.04497,47.146314 L 28.04497,41.610088 L 26.525013,41.978846 L 26.525013,41.086054 L 28.035975,40.727007 L 28.944349,40.727007 L 28.944349,47.146314 L 30.338393,47.146314 L 30.338393,47.971158 L 26.632939,47.971158 L 26.632939,47.146314 z M 32.636313,47.146314 L 35.721191,47.146314 L 35.721191,47.971158 L 31.642495,47.971158 L 31.642495,47.146314 C 32.203108,46.509067 32.693271,45.946226 33.112985,45.457787 C 33.532692,44.96935 33.821993,44.624844 33.980886,44.424284 C 34.28068,44.029655 34.483038,43.710227 34.587969,43.466 C 34.692895,43.221789 34.74536,42.971903 34.745363,42.716357 C 34.74536,42.312031 34.635183,41.995027 34.41484,41.765357 C 34.194488,41.535686 33.892446,41.420865 33.508713,41.420852 C 33.235898,41.420865 32.949596,41.474227 32.649803,41.58098 C 32.350009,41.687731 32.032227,41.849455 31.696458,42.06618 L 31.696458,41.07636 C 32.005245,40.917858 32.308784,40.798176 32.607081,40.717299 C 32.905374,40.636435 33.199923,40.596006 33.490725,40.596006 C 34.14727,40.596006 34.675655,40.784432 35.075885,41.161271 C 35.476105,41.538125 35.676217,42.032222 35.676223,42.643578 C 35.676217,42.954111 35.609514,43.264642 35.476108,43.575176 C 35.342696,43.885708 35.126096,44.228589 34.826306,44.603816 C 34.658417,44.814084 34.414836,45.105198 34.09556,45.47719 C 33.776276,45.849182 33.28986,46.405551 32.636313,47.146314 L 32.636313,47.146314 z M 39.988758,44.09435 C 40.42945,44.220504 40.766718,44.444515 41.000562,44.766367 C 41.234395,45.088219 41.351317,45.490134 41.351321,45.9721 C 41.351317,46.638457 41.143708,47.161668 40.7285,47.541756 C 40.313278,47.921831 39.738426,48.11187 39.003934,48.11187 C 38.695143,48.11187 38.38036,48.081146 38.059584,48.019687 C 37.738803,47.958229 37.424018,47.869268 37.115233,47.752822 L 37.115233,46.777543 C 37.421021,46.94899 37.722314,47.076755 38.019112,47.160869 C 38.315906,47.244966 38.611203,47.287023 38.905002,47.287023 C 39.402657,47.287023 39.784893,47.165715 40.051713,46.923115 C 40.318527,46.680515 40.451935,46.331162 40.451937,45.875057 C 40.451935,45.454552 40.318527,45.120567 40.051713,44.873105 C 39.784893,44.625656 39.423643,44.501926 38.967958,44.501926 L 38.275434,44.501926 L 38.275434,43.696483 L 38.967958,43.696483 C 39.38467,43.696483 39.709945,43.597828 39.943788,43.400506 C 40.177624,43.203184 40.294544,42.928234 40.294548,42.575646 C 40.294544,42.203669 40.185868,41.918199 39.968522,41.719253 C 39.751167,41.520332 39.441629,41.420865 39.039911,41.420852 C 38.773091,41.420865 38.497281,41.453212 38.212476,41.517894 C 37.927671,41.582591 37.629378,41.679632 37.317596,41.809023 L 37.317596,40.906538 C 37.680344,40.803037 38.003371,40.725397 38.286677,40.673631 C 38.569981,40.62188 38.82106,40.596006 39.039911,40.596006 C 39.693456,40.596006 40.215845,40.773113 40.607083,41.127297 C 40.998308,41.481512 41.193925,41.951358 41.193929,42.536827 C 41.193925,42.934707 41.091245,43.266267 40.885889,43.531509 C 40.680527,43.796762 40.381484,43.984375 39.988758,44.09435 L 39.988758,44.09435 z M 45.344576,41.619784 L 43.226531,45.448079 L 45.344576,45.448079 L 45.344576,41.619784 z M 45.196176,40.727007 L 46.248454,40.727007 L 46.248454,45.448079 L 47.143338,45.448079 L 47.143338,46.243827 L 46.248454,46.243827 L 46.248454,47.971158 L 45.344576,47.971158 L 45.344576,46.243827 L 42.498033,46.243827 L 42.498033,45.317076 L 45.196176,40.727007 z M 48.510397,40.727007 L 51.91006,40.727007 L 51.91006,41.551867 L 49.337831,41.551867 L 49.337831,43.332576 C 49.466739,43.280824 49.5964,43.242816 49.726813,43.218552 C 49.857221,43.194287 49.988379,43.182169 50.120292,43.182156 C 50.815811,43.182169 51.367432,43.403742 51.775153,43.846888 C 52.182869,44.290047 52.386729,44.890099 52.386735,45.647012 C 52.386729,46.410412 52.173125,47.012062 51.745925,47.451985 C 51.318714,47.891907 50.734867,48.11187 49.99438,48.11187 C 49.63762,48.11187 49.311596,48.085994 49.016301,48.034242 C 48.721003,47.98248 48.456434,47.904853 48.222596,47.801337 L 48.222596,46.806655 C 48.498407,46.968394 48.775716,47.088889 49.054525,47.168141 C 49.333329,47.247392 49.618134,47.287023 49.908937,47.287023 C 50.409591,47.287023 50.795577,47.144688 51.066891,46.860031 C 51.3382,46.575373 51.473859,46.171034 51.473862,45.647012 C 51.473859,45.129463 51.333704,44.726736 51.053401,44.438841 C 50.773089,44.150962 50.382609,44.007015 49.881958,44.007015 C 49.63912,44.007015 49.402284,44.036941 49.171443,44.096774 C 48.940601,44.156623 48.720253,44.246379 48.510397,44.366063 L 48.510397,40.727007 z M 57.576166,40.887122 L 57.576166,41.789607 C 57.387293,41.669938 57.18643,41.578555 56.973582,41.51547 C 56.760724,41.4524 56.538875,41.420865 56.308038,41.420852 C 55.732432,41.420865 55.296231,41.65457 54.999438,42.12198 C 54.702641,42.589404 54.554241,43.277587 54.554244,44.186546 C 54.698143,43.86307 54.897508,43.614808 55.152333,43.441749 C 55.407155,43.268691 55.699453,43.182169 56.029229,43.182156 C 56.676782,43.182169 57.178186,43.396458 57.533445,43.825063 C 57.888695,44.253665 58.066323,44.860988 58.066328,45.647012 C 58.066323,46.429815 57.88345,47.036326 57.517706,47.46654 C 57.151954,47.896769 56.637808,48.11187 55.975267,48.11187 C 55.195801,48.11187 54.624694,47.810232 54.261945,47.206959 C 53.899194,46.603687 53.717818,45.653484 53.717818,44.356368 C 53.717818,43.133641 53.935919,42.201231 54.37212,41.559137 C 54.808316,40.917059 55.440129,40.596006 56.267567,40.596006 C 56.489409,40.596006 56.711258,40.621082 56.933108,40.671208 C 57.154952,40.721348 57.369303,40.793328 57.576166,40.887122 L 57.576166,40.887122 z M 55.957279,43.948793 C 55.570543,43.948793 55.266253,44.099211 55.044406,44.400035 C 54.822558,44.70086 54.711633,45.116518 54.711636,45.647012 C 54.711633,46.177507 54.822558,46.593167 55.044406,46.894004 C 55.266253,47.194827 55.570543,47.345247 55.957279,47.345247 C 56.359001,47.345247 56.661792,47.202113 56.865656,46.915829 C 57.069511,46.629562 57.171441,46.206619 57.171444,45.647012 C 57.171441,45.084171 57.069511,44.660428 56.865656,44.375771 C 56.661792,44.091115 56.359001,43.948793 55.957279,43.948793 L 55.957279,43.948793 z M 59.284993,40.727007 L 63.512087,40.727007 L 63.512087,41.144291 L 61.110737,47.971158 L 60.161888,47.971158 L 62.500279,41.551867 L 59.284993,41.551867 L 59.284993,40.727007 z M 66.970209,44.531038 C 66.565482,44.531038 66.252947,44.653158 66.032604,44.89737 C 65.812252,45.141595 65.702081,45.486898 65.702081,45.93328 C 65.702081,46.379676 65.813752,46.726605 66.037099,46.974053 C 66.260444,47.221514 66.571481,47.345247 66.970209,47.345247 C 67.377925,47.345247 67.691957,47.223125 67.912312,46.978915 C 68.132654,46.734689 68.242831,46.386148 68.242835,45.93328 C 68.242831,45.490134 68.131154,45.14563 67.907813,44.899793 C 67.684465,44.653955 67.371931,44.531038 66.970209,44.531038 L 66.970209,44.531038 z M 66.17875,44.123461 C 65.792015,44.016724 65.489973,43.81779 65.272625,43.526661 C 65.055272,43.235531 64.946598,42.884569 64.946598,42.473755 C 64.946598,41.897983 65.127975,41.441081 65.490726,41.103048 C 65.853475,40.765029 66.346637,40.596006 66.970209,40.596006 C 67.596773,40.596006 68.091432,40.765029 68.454188,41.103048 C 68.816933,41.441081 68.998307,41.897983 68.998312,42.473755 C 68.998307,42.884569 68.889634,43.235531 68.672289,43.526661 C 68.454935,43.81779 68.152891,44.016724 67.766158,44.123461 C 68.215846,44.230212 68.559861,44.445313 68.798203,44.768791 C 69.036533,45.092267 69.155701,45.511164 69.155707,46.025477 C 69.155701,46.67889 68.962337,47.18998 68.575605,47.558736 C 68.188867,47.927491 67.653733,48.11187 66.970209,48.11187 C 66.286675,48.11187 65.752293,47.928304 65.367062,47.561158 C 64.981826,47.194016 64.78921,46.685362 64.78921,46.035186 C 64.78921,45.51762 64.908374,45.096303 65.146711,44.771215 C 65.385045,44.446126 65.729061,44.230212 66.17875,44.123461 L 66.17875,44.123461 z M 65.850477,42.565937 C 65.850477,42.954111 65.946413,43.250088 66.138279,43.453868 C 66.330147,43.657664 66.607456,43.759567 66.970209,43.759552 C 67.335954,43.759567 67.614761,43.657664 67.806631,43.453868 C 67.998498,43.250088 68.094435,42.954111 68.094435,42.565937 C 68.094435,42.171321 67.999248,41.870484 67.808883,41.663452 C 67.618507,41.456448 67.338952,41.352934 66.970209,41.352921 C 66.607456,41.352934 66.330147,41.457248 66.138279,41.66589 C 65.946413,41.874533 65.850477,42.174542 65.850477,42.565937 L 65.850477,42.565937 z M 72.420461,44.759082 C 72.807191,44.759082 73.110735,44.608677 73.331084,44.30784 C 73.551431,44.007015 73.661602,43.591356 73.661608,43.060862 C 73.661602,42.530369 73.551431,42.114709 73.331084,41.813871 C 73.110735,41.513047 72.807191,41.362642 72.420461,41.36263 C 72.018737,41.362642 71.715943,41.505777 71.512085,41.792045 C 71.308221,42.078313 71.206294,42.501257 71.206297,43.060862 C 71.206294,43.623704 71.307473,44.047447 71.509839,44.332104 C 71.712195,44.616761 72.015739,44.759082 72.420461,44.759082 L 72.420461,44.759082 z M 70.801574,47.82074 L 70.801574,46.918255 C 70.990442,47.037951 71.191307,47.12932 71.404157,47.192405 C 71.61701,47.255473 71.838859,47.287023 72.069704,47.287023 C 72.645303,47.287023 73.080754,47.053305 73.376053,46.585894 C 73.671347,46.11847 73.818997,45.430285 73.819001,44.521329 C 73.678091,44.844806 73.480231,45.093067 73.225407,45.266124 C 72.970581,45.439183 72.678281,45.52572 72.348511,45.52572 C 71.700952,45.52572 71.199548,45.310604 70.844295,44.880389 C 70.489039,44.450175 70.311411,43.840429 70.311411,43.051155 C 70.311411,42.271586 70.493537,41.6675 70.857786,41.238897 C 71.222033,40.810308 71.736929,40.596006 72.402473,40.596006 C 73.181933,40.596006 73.753041,40.898455 74.115794,41.503338 C 74.478542,42.108238 74.659917,43.059252 74.659921,44.356368 C 74.659917,45.575858 74.441816,46.506644 74.005622,47.148736 C 73.569417,47.79083 72.936103,48.11187 72.105679,48.11187 C 71.886824,48.11187 71.666478,48.086807 71.444629,48.036666 C 71.222781,47.986526 71.008431,47.914546 70.801574,47.82074 L 70.801574,47.82074 z M 77.479482,42.8134 L 78.612704,42.8134 L 78.612704,44.283574 L 77.479482,44.283574 L 77.479482,42.8134 z M 77.479482,46.491275 L 78.612704,46.491275 L 78.612704,47.971158 L 77.479482,47.971158 L 77.479482,46.491275 z M 83.078132,46.500984 L 84.211353,46.500984 L 84.211353,47.50536 L 83.325467,49.363707 L 82.632941,49.363707 L 83.078132,47.50536 L 83.078132,46.500984 z M 83.019675,42.8134 L 84.152894,42.8134 L 84.152894,44.283574 L 83.019675,44.283574 L 83.019675,42.8134 z M 91.509837,43.308311 L 87.687472,44.860972 L 91.509837,46.399094 L 91.509837,47.287023 L 86.756599,45.258854 L 86.756599,44.453396 L 91.509837,42.425241 L 91.509837,43.308311 z M 92.296803,45.428675 L 97.050041,45.428675 L 97.050041,46.263229 L 92.296803,46.263229 L 92.296803,45.428675 z M 92.296803,43.458729 L 97.050041,43.458729 L 97.050041,44.283574 L 92.296803,44.283574 L 92.296803,43.458729 z M 97.836988,43.308311 L 97.836988,42.425241 L 102.59024,44.453396 L 102.59024,45.258854 L 97.836988,47.287023 L 97.836988,46.399094 L 101.65938,44.860972 L 97.836988,43.308311 z M 106.05734,46.025477 L 105.20293,46.025477 L 105.20293,45.278257 C 105.20292,44.961252 105.24864,44.691963 105.34009,44.47039 C 105.43152,44.248817 105.60315,44.005405 105.85498,43.740151 L 106.25971,43.308311 C 106.44557,43.117474 106.57373,42.950887 106.64419,42.808552 C 106.71464,42.666231 106.74987,42.515813 106.74987,42.357311 C 106.74987,42.069417 106.65168,41.836524 106.45532,41.658605 C 106.25895,41.480699 105.99738,41.391754 105.67061,41.391739 C 105.43676,41.391754 105.18644,41.447553 104.91962,41.559137 C 104.6528,41.670737 104.3725,41.836524 104.0787,42.056473 L 104.0787,41.144291 C 104.36051,40.959914 104.64456,40.82244 104.93085,40.731854 C 105.21717,40.641297 105.51622,40.596006 105.82802,40.596006 C 106.38562,40.596006 106.83005,40.751271 107.16133,41.061804 C 107.49261,41.372337 107.65825,41.787995 107.65825,42.308781 C 107.65825,42.554633 107.60802,42.783489 107.5076,42.995354 C 107.40717,43.207233 107.21604,43.461965 106.93424,43.759552 L 106.53851,44.176837 C 106.33165,44.390328 106.19975,44.56501 106.14278,44.70086 C 106.08583,44.836722 106.05734,45.003308 106.05734,45.200618 L 106.05734,45.428675 L 106.05734,46.025477 z M 105.17145,46.738736 L 106.08434,46.738736 L 106.08434,47.971158 L 105.17145,47.971158 L 105.17145,46.738736 z M 24.546373,57.748097 C 24.546369,57.330828 24.450433,56.996843 24.258572,56.746146 C 24.066699,56.495462 23.810376,56.370119 23.4896,56.370106 C 23.168818,56.370119 22.911744,56.495462 22.71838,56.746146 C 22.525011,56.996843 22.428328,57.330828 22.42833,57.748097 C 22.428328,58.168618 22.525011,58.504215 22.71838,58.75491 C 22.911744,59.005596 23.168818,59.130938 23.4896,59.130938 C 23.810376,59.130938 24.066699,59.005596 24.258572,58.75491 C 24.450433,58.504215 24.546369,58.168618 24.546373,57.748097 L 24.546373,57.748097 z M 25.175941,59.737448 L 24.528387,59.737448 L 24.528387,59.198871 C 24.417458,59.402664 24.263815,59.559542 24.067454,59.669516 C 23.871082,59.779504 23.649985,59.834491 23.404159,59.834491 C 22.921488,59.834491 22.522011,59.638793 22.205733,59.247385 C 21.889449,58.855989 21.731308,58.356232 21.731309,57.748097 C 21.731308,57.139978 21.889449,56.640207 22.205733,56.248811 C 22.522011,55.857403 22.921488,55.661705 23.404159,55.661705 C 23.643991,55.661705 23.864338,55.718318 24.065205,55.831527 C 24.266061,55.944751 24.420456,56.100018 24.528387,56.297326 L 24.528387,55.99164 C 24.528382,55.487035 24.396474,55.081073 24.132656,54.773776 C 23.868835,54.46648 23.519576,54.312837 23.084878,54.312823 C 22.347383,54.312837 21.760537,54.622557 21.324338,55.241999 C 20.888137,55.861451 20.670037,56.700055 20.670037,57.757806 C 20.670037,58.822031 20.917368,59.669516 21.41203,60.300291 C 21.906686,60.931063 22.564733,61.246442 23.386171,61.246442 C 23.548054,61.246442 23.709945,61.230275 23.871838,61.197928 C 24.033721,61.165581 24.200106,61.115441 24.370995,61.047509 L 24.586845,61.702547 C 24.397972,61.783409 24.211348,61.843258 24.02698,61.882062 C 23.842603,61.920883 23.663476,61.940287 23.4896,61.9403 C 22.419333,61.940287 21.570167,61.563447 20.942099,60.809755 C 20.314033,60.056077 20,59.038757 20,57.757806 C 20,56.49626 20.281805,55.491883 20.845417,54.744665 C 21.40903,53.997444 22.164509,53.623841 23.111862,53.623827 C 23.738425,53.623841 24.23908,53.838941 24.613828,54.269157 C 24.988563,54.699386 25.175935,55.276782 25.175941,56.001348 L 25.175941,59.737448 z M 28.188868,54.012 L 27.231027,57.718986 L 29.14671,57.718986 L 28.188868,54.012 z M 27.640247,53.148334 L 28.741988,53.148334 L 30.797074,60.392485 L 29.857222,60.392485 L 29.362562,58.505026 L 27.010679,58.505026 L 26.525013,60.392485 L 25.585161,60.392485 L 27.640247,53.148334 z M 32.618323,56.932946 L 32.618323,59.587042 L 33.693086,59.587042 C 34.22072,59.587042 34.59696,59.487575 34.821807,59.288628 C 35.046651,59.089695 35.159074,58.762183 35.159078,58.306092 C 35.159074,57.833822 35.040652,57.486892 34.803821,57.265319 C 34.56698,57.043748 34.196736,56.932946 33.693086,56.932946 L 32.618323,56.932946 z M 32.618323,53.953777 L 32.618323,56.137213 L 33.675098,56.137213 C 34.112794,56.137213 34.429825,56.046642 34.626193,55.865487 C 34.822556,55.684359 34.920737,55.391605 34.920741,54.987264 C 34.920737,54.621744 34.824055,54.358117 34.63069,54.196377 C 34.43732,54.034653 34.118787,53.953777 33.675098,53.953777 L 32.618323,53.953777 z M 31.705452,53.148334 L 33.693086,53.148334 C 34.37961,53.148334 34.908746,53.308447 35.280492,53.628688 C 35.652234,53.94893 35.838106,54.401783 35.838111,54.987264 C 35.838106,55.430424 35.739923,55.779777 35.543563,56.035309 C 35.347194,56.290867 35.052646,56.45098 34.65992,56.515677 C 35.100616,56.586845 35.446125,56.789813 35.696457,57.124609 C 35.946779,57.459406 36.071946,57.885572 36.07195,58.403136 C 36.071946,59.059785 35.872582,59.555494 35.473862,59.89029 C 35.075131,60.225087 34.481538,60.392485 33.693086,60.392485 L 31.705452,60.392485 L 31.705452,53.148334 z M 41.324339,60.135314 C 41.093491,60.267941 40.856656,60.367409 40.613827,60.433729 C 40.370991,60.500036 40.113168,60.533196 39.840358,60.533196 C 38.979947,60.533196 38.31216,60.204872 37.836987,59.548224 C 37.361811,58.891575 37.124225,57.96806 37.124225,56.777681 C 37.124225,55.593774 37.36331,54.671072 37.841484,54.009577 C 38.319652,53.34808 38.985944,53.017332 39.840358,53.017319 C 40.113168,53.017332 40.370991,53.050478 40.613827,53.116785 C 40.856656,53.183104 41.093491,53.282572 41.324339,53.4152 L 41.324339,54.419577 C 41.102486,54.222267 40.864151,54.071848 40.60933,53.968332 C 40.354502,53.864832 40.09818,53.813066 39.840358,53.813066 C 39.249761,53.813066 38.807568,54.058904 38.51377,54.550578 C 38.219971,55.042265 38.073073,55.784624 38.073074,56.777681 C 38.073073,57.767514 38.219971,58.508263 38.51377,58.999936 C 38.807568,59.49161 39.249761,59.737448 39.840358,59.737448 C 40.104175,59.737448 40.362746,59.685698 40.616076,59.582181 C 40.869398,59.47868 41.105484,59.32826 41.324339,59.130938 L 41.324339,60.135314 z M 43.999999,59.587042 C 44.76447,59.587042 45.298104,59.384061 45.600898,58.978095 C 45.903687,58.572144 46.055082,57.83867 46.055088,56.777681 C 46.055082,55.706997 45.904437,54.968674 45.603148,54.562709 C 45.301852,54.156759 44.76747,53.953777 43.999999,53.953777 L 43.568296,53.953777 L 43.568296,59.587042 L 43.999999,59.587042 z M 44.017987,53.148334 C 45.043279,53.148334 45.798759,53.4427 46.284428,54.031403 C 46.77009,54.620133 47.012921,55.535551 47.012927,56.777681 C 47.012921,58.013352 46.77009,58.924734 46.284428,59.511826 C 45.798759,60.098932 45.043279,60.392485 44.017987,60.392485 L 42.655425,60.392485 L 42.655425,53.148334 L 44.017987,53.148334 z M 48.465429,53.148334 L 52.44969,53.148334 L 52.44969,53.97318 L 49.373806,53.97318 L 49.373806,56.117795 L 52.314784,56.117795 L 52.314784,56.942655 L 49.373806,56.942655 L 49.373806,59.567626 L 52.535133,59.567626 L 52.535133,60.392485 L 48.465429,60.392485 L 48.465429,53.148334 z M 54.167511,53.148334 L 58.120292,53.148334 L 58.120292,53.97318 L 55.080383,53.97318 L 55.080383,56.108101 L 57.836986,56.108101 L 57.836986,56.932946 L 55.080383,56.932946 L 55.080383,60.392485 L 54.167511,60.392485 L 54.167511,53.148334 z M 63.624509,59.795671 C 63.381671,60.038287 63.108111,60.221851 62.803821,60.34638 C 62.499528,60.470925 62.170503,60.533196 61.81675,60.533196 C 60.965333,60.533196 60.30279,60.204058 59.829118,59.545799 C 59.355443,58.887525 59.118605,57.964823 59.118605,56.777681 C 59.118605,55.593774 59.358442,54.671072 59.83811,54.009577 C 60.317781,53.34808 60.984819,53.017332 61.839234,53.017319 C 62.121037,53.017332 62.390853,53.060187 62.648681,53.145896 C 62.906497,53.231635 63.155325,53.361824 63.395166,53.536492 L 63.395166,54.54087 C 63.152329,54.291809 62.903499,54.108231 62.648681,53.990158 C 62.393848,53.872103 62.124036,53.813066 61.839234,53.813066 C 61.248638,53.813066 60.805694,54.059717 60.510399,54.553001 C 60.215101,55.046301 60.067452,55.787859 60.067454,56.777681 C 60.067452,57.783682 60.210604,58.528479 60.496908,59.012069 C 60.783209,59.495659 61.223156,59.737448 61.81675,59.737448 C 62.017609,59.737448 62.193739,59.712385 62.345139,59.662245 C 62.496528,59.612106 62.633687,59.533667 62.756605,59.426915 L 62.756605,57.481234 L 61.780774,57.481234 L 61.780774,56.67579 L 63.624509,56.67579 L 63.624509,59.795671 z M 64.816189,53.148334 L 65.729061,53.148334 L 65.729061,56.117795 L 68.215851,56.117795 L 68.215851,53.148334 L 69.128726,53.148334 L 69.128726,60.392485 L 68.215851,60.392485 L 68.215851,56.942655 L 65.729061,56.942655 L 65.729061,60.392485 L 64.816189,60.392485 L 64.816189,53.148334 z M 70.644179,53.148334 L 74.372119,53.148334 L 74.372119,53.97318 L 72.964584,53.97318 L 72.964584,59.567626 L 74.372119,59.567626 L 74.372119,60.392485 L 70.644179,60.392485 L 70.644179,59.567626 L 72.051715,59.567626 L 72.051715,53.97318 L 70.644179,53.97318 L 70.644179,53.148334 z M 75.770658,60.096508 L 75.770658,58.951408 C 76.043471,59.213427 76.325277,59.409936 76.616078,59.540937 C 76.906877,59.671954 77.208166,59.737448 77.519957,59.737448 C 77.948657,59.737448 78.247704,59.616952 78.417092,59.375977 C 78.58647,59.134987 78.67116,58.686168 78.671164,58.02952 L 78.671164,53.97318 L 76.957843,53.97318 L 76.957843,53.148334 L 79.579541,53.148334 L 79.579541,58.02952 C 79.579537,58.941713 79.421393,59.587042 79.105117,59.965492 C 78.78883,60.343958 78.260442,60.533196 77.519957,60.533196 C 77.23215,60.533196 76.945848,60.497611 76.661044,60.426444 C 76.376239,60.355275 76.079447,60.245302 75.770658,60.096508 L 75.770658,60.096508 z M 81.436762,53.148334 L 82.349637,53.148334 L 82.349637,56.370106 L 85.187181,53.148334 L 86.252946,53.148334 L 83.640251,56.108101 L 86.329397,60.392485 L 85.232152,60.392485 L 83.042162,56.763123 L 82.349637,57.558873 L 82.349637,60.392485 L 81.436762,60.392485 L 81.436762,53.148334 z M 87.327708,53.148334 L 88.240583,53.148334 L 88.240583,59.567626 L 91.482862,59.567626 L 91.482862,60.392485 L 87.327708,60.392485 L 87.327708,53.148334 z M 92.287809,53.148334 L 93.501969,53.148334 L 94.662173,56.835904 L 95.831372,53.148334 L 97.050041,53.148334 L 97.050041,60.392485 L 96.209097,60.392485 L 96.209097,53.992597 L 95.012927,57.811182 L 94.324903,57.811182 L 93.124225,53.992597 L 93.124225,60.392485 L 92.287809,60.392485 L 92.287809,53.148334 z M 98.066328,53.148334 L 99.217537,53.148334 L 101.484,59.111535 L 101.484,53.148334 L 102.36088,53.148334 L 102.36088,60.392485 L 101.20967,60.392485 L 98.943217,54.429285 L 98.943217,60.392485 L 98.066328,60.392485 L 98.066328,53.148334 z M 107.05116,56.777681 C 107.05114,55.71347 106.94997,54.953307 106.74762,54.497202 C 106.54525,54.041111 106.21323,53.813066 105.75156,53.813066 C 105.29286,53.813066 104.96234,54.041111 104.75998,54.497202 C 104.55763,54.953307 104.45645,55.71347 104.45645,56.777681 C 104.45645,57.83867 104.55763,58.597208 104.75998,59.053313 C 104.96234,59.509402 105.29286,59.737448 105.75156,59.737448 C 106.21323,59.737448 106.54525,59.510215 106.74762,59.055737 C 106.94997,58.601256 107.05114,57.841906 107.05116,56.777681 L 107.05116,56.777681 z M 108,56.777681 C 108,58.039229 107.81489,58.980533 107.44464,59.601599 C 107.07439,60.222662 106.51002,60.533196 105.75156,60.533196 C 104.99308,60.533196 104.42947,60.224274 104.06071,59.606446 C 103.69197,58.988617 103.50758,58.0457 103.50758,56.777681 C 103.50758,55.512911 103.69272,54.569995 104.06295,53.948915 C 104.43321,53.327865 104.99606,53.017332 105.75156,53.017319 C 106.51002,53.017332 107.07439,53.327865 107.44464,53.948915 C 107.81489,54.569995 108,55.512911 108,56.777681 L 108,56.777681 z M 21.67285,66.375089 L 21.67285,69.097117 L 22.725127,69.097117 C 23.144835,69.097117 23.472357,68.977434 23.7077,68.738057 C 23.943035,68.498691 24.060703,68.163895 24.060708,67.73368 C 24.060703,67.303464 23.943786,66.969481 23.709949,66.731727 C 23.476105,66.493973 23.147832,66.375104 22.725127,66.375089 L 21.67285,66.375089 z M 20.764475,65.569646 L 22.725127,65.569646 C 23.474606,65.569661 24.042715,65.753227 24.429455,66.120357 C 24.816183,66.487501 25.00955,67.025281 25.009556,67.73368 C 25.00955,68.448551 24.816932,68.988756 24.431701,69.354274 C 24.046463,69.719794 23.477602,69.90256 22.725127,69.90256 L 21.67285,69.90256 L 21.67285,72.813797 L 20.764475,72.813797 L 20.764475,65.569646 z M 28.364249,72.944812 C 28.343261,72.944812 28.313281,72.946425 28.274312,72.949661 C 28.235334,72.952897 28.203855,72.954509 28.179876,72.954509 C 27.43039,72.954509 26.870525,72.643975 26.500279,72.022912 C 26.130032,71.401846 25.944911,70.46054 25.944911,69.199008 C 25.944911,67.934238 26.130032,66.991307 26.500279,66.370241 C 26.870525,65.749177 27.433387,65.438645 28.188868,65.438645 C 28.947345,65.438645 29.511706,65.749177 29.881956,66.370241 C 30.252197,66.991307 30.437319,67.934238 30.437325,69.199008 C 30.437319,70.150008 30.334639,70.915831 30.129285,71.496465 C 29.923922,72.077099 29.612887,72.483862 29.196177,72.716755 L 30.095557,73.638658 L 29.416525,74.123859 L 28.364249,72.944812 z M 29.488475,69.199008 C 29.488471,68.134782 29.387291,67.374632 29.184935,66.918528 C 28.98257,66.462439 28.650549,66.234393 28.188868,66.23438 C 27.730181,66.234393 27.39966,66.462439 27.197301,66.918528 C 26.994938,67.374632 26.893757,68.134782 26.89376,69.199008 C 26.893757,70.259996 26.994938,71.018535 27.197301,71.474625 C 27.39966,71.93073 27.730181,72.158774 28.188868,72.158774 C 28.650549,72.158774 28.98257,71.931528 29.184935,71.477049 C 29.387291,71.022582 29.488471,70.263232 29.488475,69.199008 L 29.488475,69.199008 z M 34.376617,69.393094 C 34.610452,69.457789 34.809812,69.579895 34.974704,69.759425 C 35.139587,69.938942 35.344945,70.297191 35.59078,70.834158 L 36.503653,72.813797 L 35.527824,72.813797 L 34.727375,70.984576 C 34.496531,70.463777 34.288922,70.128181 34.104553,69.977761 C 33.920174,69.827357 33.679591,69.752141 33.382798,69.752141 L 32.514897,69.752141 L 32.514897,72.813797 L 31.602024,72.813797 L 31.602024,65.569646 L 33.472737,65.569646 C 34.210225,65.569661 34.775337,65.749177 35.168072,66.108225 C 35.560797,66.467286 35.75716,66.98646 35.757166,67.665749 C 35.75716,68.14449 35.636495,68.535087 35.395166,68.837522 C 35.153827,69.139973 34.81431,69.325161 34.376617,69.393094 L 34.376617,69.393094 z M 32.514897,66.375089 L 32.514897,68.946697 L 33.508713,68.946697 C 33.94341,68.946697 34.267188,68.841572 34.480045,68.631303 C 34.692895,68.421066 34.79932,68.099199 34.799324,67.665749 C 34.79932,67.248478 34.686148,66.92905 34.459809,66.707463 C 34.23346,66.485889 33.904437,66.375104 33.472737,66.375089 L 32.514897,66.375089 z M 41.050028,65.817108 L 41.050028,66.811777 C 40.774212,66.620941 40.497652,66.476993 40.22035,66.37995 C 39.943036,66.282908 39.663477,66.234393 39.381675,66.23438 C 38.952966,66.234393 38.614199,66.341943 38.365374,66.557044 C 38.116543,66.772158 37.992129,67.062476 37.99213,67.427996 C 37.992129,67.748235 38.073821,67.992461 38.237211,68.160658 C 38.400597,68.328869 38.705637,68.469578 39.152334,68.58279 L 39.629006,68.699236 C 40.258567,68.857752 40.717252,69.106824 41.005059,69.446454 C 41.292855,69.786113 41.436757,70.248676 41.436762,70.834158 C 41.436757,71.523154 41.238892,72.048787 40.843169,72.411083 C 40.447436,72.773367 39.871833,72.954509 39.116357,72.954509 C 38.801571,72.954509 38.485289,72.918126 38.16751,72.845348 C 37.849726,72.772554 37.530447,72.663394 37.209669,72.517822 L 37.209669,71.474625 C 37.55443,71.710768 37.880454,71.883826 38.187745,71.9938 C 38.495032,72.103787 38.804568,72.158774 39.116357,72.158774 C 39.57504,72.158774 39.931793,72.047988 40.186621,71.826401 C 40.441442,71.604828 40.568854,71.295108 40.568858,70.897228 C 40.568854,70.534945 40.481163,70.258384 40.30579,70.067521 C 40.130408,69.876684 39.825368,69.729502 39.390668,69.625987 L 38.905002,69.504679 C 38.28143,69.352661 37.828741,69.122992 37.546935,68.815695 C 37.265128,68.5084 37.124225,68.095964 37.124225,67.578413 C 37.124225,66.931472 37.325839,66.413112 37.729061,66.023313 C 38.132283,65.633545 38.668163,65.438645 39.336705,65.438645 C 39.594526,65.438645 39.865838,65.470193 40.150646,65.533264 C 40.435447,65.596348 40.735241,65.690954 41.050028,65.817108 L 41.050028,65.817108 z M 42.250703,65.569646 L 47.37268,65.569646 L 47.37268,66.394506 L 45.272626,66.394506 L 45.272626,72.813797 L 44.359752,72.813797 L 44.359752,66.394506 L 42.250703,66.394506 L 42.250703,65.569646 z M 48.240586,70.033561 L 48.240586,65.569646 L 49.153456,65.569646 L 49.153456,70.479957 C 49.153455,70.832546 49.162448,71.084043 49.180438,71.234447 C 49.198424,71.384866 49.229902,71.500515 49.274874,71.581376 C 49.370806,71.772227 49.509459,71.916173 49.690837,72.013217 C 49.87221,72.110245 50.091808,72.158774 50.349635,72.158774 C 50.610452,72.158774 50.830802,72.110245 51.010678,72.013217 C 51.190553,71.916173 51.329956,71.772227 51.428892,71.581376 C 51.473859,71.500515 51.505336,71.385679 51.523327,71.236872 C 51.54131,71.088076 51.550304,70.839003 51.55031,70.489652 L 51.55031,70.033561 L 51.55031,65.569646 L 52.458685,65.569646 L 52.458685,70.033561 C 52.458679,70.774308 52.415959,71.300767 52.330524,71.612911 C 52.245077,71.925067 52.097426,72.183038 51.887578,72.38682 C 51.689708,72.57767 51.463364,72.71999 51.208543,72.813797 C 50.953715,72.907605 50.667414,72.954509 50.349635,72.954509 C 50.034849,72.954509 49.750045,72.907605 49.49522,72.813797 C 49.240395,72.71999 49.012551,72.57767 48.811691,72.38682 C 48.604833,72.186275 48.457934,71.926681 48.370996,71.608065 C 48.284052,71.289448 48.240583,70.764613 48.240586,70.033561 L 48.240586,70.033561 z M 55.889826,71.988952 L 57.46824,65.569646 L 58.408094,65.569646 L 56.442945,72.813797 L 55.341203,72.813797 L 53.376055,65.569646 L 54.315907,65.569646 L 55.889826,71.988952 z M 58.659921,65.569646 L 59.54581,65.569646 L 60.18887,71.450375 L 60.953343,67.558996 L 61.902193,67.558996 L 62.675662,71.460069 L 63.318718,65.569646 L 64.204607,65.569646 L 63.201797,72.813797 L 62.342889,72.813797 L 61.430015,68.51001 L 60.521641,72.813797 L 59.662733,72.813797 L 58.659921,65.569646 z M 64.586845,65.569646 L 65.562675,65.569646 L 67.037662,68.301369 L 68.53963,65.569646 L 69.51546,65.569646 L 67.505341,68.975809 L 69.659362,72.813797 L 68.683531,72.813797 L 67.037662,69.693917 L 65.261385,72.813797 L 64.281057,72.813797 L 66.529512,68.975809 L 64.586845,65.569646 z M 69.906693,65.569646 L 70.873527,65.569646 L 72.510398,68.767169 L 74.142778,65.569646 L 75.118605,65.569646 L 72.964584,69.562915 L 72.964584,72.813797 L 72.051715,72.813797 L 72.051715,69.562915 L 69.906693,65.569646 z M 76.080944,65.569646 L 80.438449,65.569646 L 80.438449,66.316866 L 76.930858,71.988952 L 80.537384,71.988952 L 80.537384,72.813797 L 75.982013,72.813797 L 75.982013,72.066578 L 79.395165,66.394506 L 76.080944,66.394506 L 76.080944,65.569646 z M 82.902755,65.263961 L 84.809451,65.263961 L 84.809451,65.957819 L 83.730182,65.957819 L 83.730182,73.430016 L 84.809451,73.430016 L 84.809451,74.123859 L 82.902755,74.123859 L 82.902755,65.263961 z M 87.678478,65.569646 L 91.213039,73.735701 L 90.358625,73.735701 L 86.819558,65.569646 L 87.678478,65.569646 z M 95.363697,65.263961 L 95.363697,74.123859 L 93.456998,74.123859 L 93.456998,73.430016 L 94.536255,73.430016 L 94.536255,65.957819 L 93.456998,65.957819 L 93.456998,65.263961 L 95.363697,65.263961 z M 100.61158,65.569646 L 102.66217,68.272257 L 101.86173,68.272257 L 100.21136,66.355688 L 98.565497,68.272257 L 97.765035,68.272257 L 99.815638,65.569646 L 100.61158,65.569646 z M 107.58629,74.769188 L 107.58629,75.157361 L 102.98146,75.157361 L 102.98146,74.769188 L 107.58629,74.769188 z M 22.023608,77.287422 L 23.287239,79.111797 L 22.594716,79.111797 L 21.13322,77.287422 L 22.023608,77.287422 z M 28.575604,82.503402 L 28.301292,82.503402 C 27.818622,82.503402 27.455122,82.594785 27.210791,82.777553 C 26.966456,82.960305 26.844292,83.232831 26.844292,83.595128 C 26.844292,83.921827 26.935729,84.175747 27.118604,84.356903 C 27.301477,84.538044 27.554804,84.628614 27.878582,84.628614 C 28.334266,84.628614 28.692519,84.457979 28.953344,84.116725 C 29.214161,83.775455 29.346068,83.303997 29.349071,82.702337 L 29.349071,82.503402 L 28.575604,82.503402 z M 30.180998,82.134646 L 30.180998,85.235126 L 29.349071,85.235126 L 29.349071,84.429681 C 29.172191,84.753143 28.949594,84.99171 28.681281,85.145366 C 28.412963,85.299007 28.086936,85.375835 27.703204,85.375835 C 27.190554,85.375835 26.781336,85.219756 26.475548,84.907612 C 26.169755,84.595455 26.016862,84.177372 26.016862,83.65335 C 26.016862,83.048453 26.204981,82.589126 26.581223,82.275359 C 26.957465,81.961589 27.509834,81.804711 28.238335,81.804696 L 29.349071,81.804696 L 29.349071,81.663999 C 29.346068,81.23055 29.24414,80.915969 29.043283,80.720258 C 28.842418,80.52456 28.521638,80.426719 28.080943,80.426719 C 27.799135,80.426719 27.514331,80.470384 27.22653,80.55772 C 26.938728,80.645069 26.65842,80.772837 26.385609,80.941032 L 26.385609,80.048254 C 26.691397,79.922099 26.984447,79.827494 27.264755,79.764409 C 27.54506,79.701339 27.817123,79.669791 28.080943,79.669791 C 28.497653,79.669791 28.85366,79.736111 29.14896,79.868724 C 29.444252,80.001351 29.683337,80.200285 29.866217,80.465538 C 29.980133,80.627278 30.061077,80.827008 30.109049,81.064762 C 30.157011,81.302516 30.180994,81.659155 30.180998,82.134646 L 30.180998,82.134646 z M 35.087125,82.52282 C 35.087123,81.830586 34.985193,81.308176 34.781338,80.955589 C 34.577473,80.603014 34.276183,80.426719 33.877459,80.426719 C 33.475731,80.426719 33.171441,80.603826 32.964587,80.958012 C 32.757727,81.312224 32.654299,81.833823 32.6543,82.52282 C 32.654299,83.20858 32.757727,83.729365 32.964587,84.085176 C 33.171441,84.441002 33.475731,84.618906 33.877459,84.618906 C 34.276183,84.618906 34.577473,84.442613 34.781338,84.090037 C 34.985193,83.737449 35.087123,83.215039 35.087125,82.52282 L 35.087125,82.52282 z M 32.6543,80.494635 C 32.786207,80.229396 32.968333,80.025614 33.200676,79.883279 C 33.433014,79.740958 33.702078,79.669791 34.007868,79.669791 C 34.613448,79.669791 35.09012,79.921303 35.437885,80.424295 C 35.785642,80.92729 35.959523,81.620333 35.959526,82.503402 C 35.959523,83.399431 35.784893,84.102169 35.435637,84.611636 C 35.086372,85.121102 34.607453,85.375835 33.998874,85.375835 C 33.699078,85.375835 33.43451,85.30548 33.205171,85.164769 C 32.975827,85.024059 32.792203,84.819466 32.6543,84.550977 L 32.6543,85.235126 L 31.826868,85.235126 L 31.826868,77.685288 L 32.6543,77.685288 L 32.6543,80.494635 z M 41.270376,84.958564 C 41.048526,85.097651 40.819932,85.201964 40.584596,85.271521 C 40.349255,85.341064 40.108671,85.375835 39.862844,85.375835 C 39.083377,85.375835 38.474047,85.123525 38.034851,84.618906 C 37.59565,84.114301 37.376053,83.415596 37.376053,82.52282 C 37.376053,81.630028 37.59565,80.931339 38.034851,80.426719 C 38.474047,79.922099 39.083377,79.669791 39.862844,79.669791 C 40.105674,79.669791 40.342511,79.703763 40.573356,79.771681 C 40.804192,79.839612 41.036533,79.944753 41.270376,80.087075 L 41.270376,81.023518 C 41.051523,80.813266 40.831923,80.661236 40.611578,80.567429 C 40.391226,80.473621 40.141648,80.426719 39.862844,80.426719 C 39.344198,80.426719 38.945471,80.60786 38.666667,80.970143 C 38.387858,81.332439 38.248452,81.849991 38.248453,82.52282 C 38.248452,83.1924 38.388607,83.70915 38.668914,84.073058 C 38.949219,84.436952 39.347196,84.618906 39.862844,84.618906 C 40.150643,84.618906 40.408466,84.571204 40.636312,84.475773 C 40.864151,84.380354 41.075504,84.232361 41.270376,84.031814 L 41.270376,84.958564 z M 45.897696,80.494635 L 45.897696,77.685288 L 46.725126,77.685288 L 46.725126,85.235126 L 45.897696,85.235126 L 45.897696,84.550977 C 45.759785,84.819466 45.576162,85.024059 45.346822,85.164769 C 45.117479,85.30548 44.85291,85.375835 44.55312,85.375835 C 43.944536,85.375835 43.465615,85.121102 43.116355,84.611636 C 42.767095,84.102169 42.592466,83.399431 42.592466,82.503402 C 42.592466,81.620333 42.767846,80.92729 43.118605,80.424295 C 43.469363,79.921303 43.947534,79.669791 44.55312,79.669791 C 44.855908,79.669791 45.122724,79.740146 45.353568,79.880856 C 45.584407,80.021567 45.765783,80.22616 45.897696,80.494635 L 45.897696,80.494635 z M 43.464868,82.52282 C 43.464866,83.215039 43.566796,83.737449 43.770656,84.090037 C 43.974515,84.442613 44.275808,84.618906 44.674535,84.618906 C 45.073258,84.618906 45.3768,84.441002 45.58516,84.085176 C 45.793513,83.729365 45.897693,83.20858 45.897696,82.52282 C 45.897693,81.833823 45.793513,81.312224 45.58516,80.958012 C 45.3768,80.603826 45.073258,80.426719 44.674535,80.426719 C 44.275808,80.426719 43.974515,80.603014 43.770656,80.955589 C 43.566796,81.308176 43.464866,81.830586 43.464868,82.52282 L 43.464868,82.52282 z M 52.580101,82.294759 L 52.580101,82.731447 L 48.996063,82.731447 L 48.996063,82.760559 C 48.996063,83.352528 49.139215,83.810227 49.42552,84.133705 C 49.71182,84.457168 50.115793,84.618906 50.637437,84.618906 C 50.901253,84.618906 51.177063,84.57363 51.464867,84.483058 C 51.752665,84.392486 52.059954,84.255012 52.386735,84.070635 L 52.386735,84.958564 C 52.071945,85.097651 51.768405,85.201964 51.476109,85.271521 C 51.183807,85.341064 50.901253,85.375835 50.628441,85.375835 C 49.84598,85.375835 49.234399,85.122712 48.793704,84.616483 C 48.353006,84.110252 48.13266,83.412361 48.13266,82.52282 C 48.13266,81.655904 48.348508,80.963685 48.780215,80.446121 C 49.211914,79.928572 49.787519,79.669791 50.507025,79.669791 C 51.148581,79.669791 51.654484,79.904308 52.024733,80.373343 C 52.394974,80.842378 52.580095,81.482859 52.580101,82.294759 L 52.580101,82.294759 z M 51.752669,82.032757 C 51.740674,81.508735 51.626004,81.110056 51.408657,80.836717 C 51.191302,80.56338 50.878767,80.426719 50.471052,80.426719 C 50.072322,80.426719 49.744049,80.569041 49.486227,80.853698 C 49.228403,81.138354 49.075507,81.532999 49.027543,82.037604 L 51.752669,82.032757 z M 57.899943,77.685288 L 57.899943,78.427661 L 56.960089,78.427661 C 56.66329,78.427661 56.45718,78.493168 56.341765,78.62417 C 56.226341,78.755186 56.168631,78.987265 56.168634,79.320439 L 56.168634,79.800792 L 57.899943,79.800792 L 57.899943,80.494635 L 56.168634,80.494635 L 56.168634,85.235126 L 55.341203,85.235126 L 55.341203,80.494635 L 53.996628,80.494635 L 53.996628,79.800792 L 55.341203,79.800792 L 55.341203,79.422328 C 55.3412,78.827152 55.467862,78.388854 55.721191,78.10742 C 55.974515,77.826013 56.369491,77.685301 56.906127,77.685288 L 57.899943,77.685288 z M 62.518268,82.474291 C 62.518264,81.804711 62.417083,81.296044 62.214726,80.948318 C 62.012364,80.600589 61.717816,80.426719 61.331086,80.426719 C 60.92636,80.426719 60.617573,80.600589 60.40472,80.948318 C 60.191868,81.296044 60.085439,81.804711 60.085441,82.474291 C 60.085439,83.143885 60.192616,83.654163 60.406971,84.005126 C 60.62132,84.35609 60.932356,84.531572 61.340079,84.531572 C 61.720813,84.531572 62.012364,84.355279 62.214726,84.002689 C 62.417083,83.650114 62.518264,83.140648 62.518268,82.474291 L 62.518268,82.474291 z M 63.345697,84.885774 C 63.345693,85.700922 63.16732,86.318753 62.810567,86.739272 C 62.453809,87.159779 61.929172,87.370031 61.236649,87.370031 C 61.008804,87.370031 60.770468,87.347393 60.521641,87.302114 C 60.272813,87.256822 60.023982,87.190516 59.775156,87.10318 L 59.775156,86.220099 C 60.06895,86.368893 60.335768,86.47888 60.575605,86.550033 C 60.815437,86.6212 61.035786,86.656786 61.236649,86.656786 C 61.683339,86.656786 62.008617,86.525783 62.212477,86.263764 C 62.416333,86.001747 62.518264,85.586088 62.518268,85.016774 L 62.518268,84.977967 L 62.518268,84.371459 C 62.386356,84.675518 62.206479,84.901954 61.97864,85.050747 C 61.750794,85.19954 61.473484,85.273944 61.146711,85.273944 C 60.559111,85.273944 60.089937,85.02001 59.73918,84.512169 C 59.38842,84.004315 59.213041,83.325026 59.213041,82.474291 C 59.213041,81.620333 59.38842,80.939421 59.73918,80.431567 C 60.089937,79.923725 60.559111,79.669791 61.146711,79.669791 C 61.470486,79.669791 61.7448,79.739346 61.969647,79.878433 C 62.194488,80.017533 62.37736,80.232633 62.518268,80.523747 L 62.518268,79.820209 L 63.345697,79.820209 L 63.345697,84.885774 z M 68.926363,81.867782 L 68.926363,85.235126 L 68.094435,85.235126 L 68.094435,81.867782 C 68.094435,81.379345 68.014988,81.020296 67.856101,80.790628 C 67.697203,80.560957 67.448375,80.446121 67.109616,80.446121 C 66.722874,80.446121 66.425331,80.594117 66.216976,80.890095 C 66.008618,81.18607 65.904437,81.610625 65.904442,82.163758 L 65.904442,85.235126 L 65.077011,85.235126 L 65.077011,77.685288 L 65.904442,77.685288 L 65.904442,80.615944 C 66.051339,80.305424 66.250699,80.070095 66.502529,79.909968 C 66.754355,79.749855 67.052648,79.669791 67.397417,79.669791 C 67.910061,79.669791 68.293042,79.851744 68.546374,80.215653 C 68.799699,80.579561 68.926359,81.130269 68.926363,81.867782 L 68.926363,81.867782 z M 70.891514,79.800792 L 73.009559,79.800792 L 73.009559,84.54128 L 74.650926,84.54128 L 74.650926,85.235126 L 70.540752,85.235126 L 70.540752,84.54128 L 72.182126,84.54128 L 72.182126,80.494635 L 70.891514,80.494635 L 70.891514,79.800792 z M 72.182126,77.685288 L 73.009559,77.685288 L 73.009559,78.815819 L 72.182126,78.815819 L 72.182126,77.685288 z M 77.97864,85.332168 L 77.97864,80.494635 L 76.553121,80.494635 L 76.553121,79.800792 L 78.806074,79.800792 L 78.806074,85.332168 C 78.806069,85.962942 78.671908,86.448956 78.403598,86.79021 C 78.135279,87.13148 77.753793,87.302114 77.259134,87.302114 L 76.116922,87.302114 L 76.116922,86.545187 L 77.169197,86.545187 C 77.439007,86.545187 77.641369,86.444094 77.776276,86.241925 C 77.911183,86.039756 77.97864,85.736506 77.97864,85.332168 L 77.97864,85.332168 z M 77.97864,77.685288 L 78.806074,77.685288 L 78.806074,78.815819 L 77.97864,78.815819 L 77.97864,77.685288 z M 81.881957,77.685288 L 82.736372,77.685288 L 82.736372,82.057021 L 84.908382,79.800792 L 85.915677,79.800792 L 83.932546,81.848379 L 86.225974,85.235126 L 85.214165,85.235126 L 83.352452,82.430624 L 82.736372,83.056535 L 82.736372,85.235126 L 81.881957,85.235126 L 81.881957,77.685288 z M 89.234407,83.265178 C 89.234407,83.666294 89.30261,83.96873 89.439008,84.172524 C 89.575406,84.376306 89.777017,84.478195 90.043849,84.478195 L 91.010689,84.478195 L 91.010689,85.235126 L 89.962902,85.235126 C 89.468243,85.235126 89.085255,85.063678 88.813935,84.720811 C 88.542635,84.377932 88.406975,83.892715 88.406975,83.265178 L 88.406975,78.330617 L 87.080378,78.330617 L 87.080378,77.631912 L 89.234407,77.631912 L 89.234407,83.265178 z M 94.940981,80.353938 C 95.04291,80.121033 95.172567,79.948789 95.329965,79.83719 C 95.487352,79.725589 95.676967,79.669791 95.898819,79.669791 C 96.303538,79.669791 96.589085,79.838813 96.755487,80.176832 C 96.921868,80.514865 97.005061,81.151299 97.00507,82.086133 L 97.00507,85.235126 L 96.249572,85.235126 L 96.249572,82.124938 C 96.249572,81.358315 96.209846,80.88201 96.130405,80.696008 C 96.050953,80.510018 95.906317,80.41701 95.696452,80.41701 C 95.456631,80.41701 95.292492,80.516476 95.204047,80.71541 C 95.115601,80.914359 95.071388,81.384193 95.071398,82.124938 L 95.071398,85.235126 L 94.31591,85.235126 L 94.31591,82.124938 C 94.315899,81.348621 94.273182,80.869878 94.187747,80.688722 C 94.102304,80.507595 93.948665,80.41701 93.726812,80.41701 C 93.507962,80.41701 93.355819,80.516476 93.270375,80.71541 C 93.18493,80.914359 93.142213,81.384193 93.142213,82.124938 L 93.142213,85.235126 L 92.391241,85.235126 L 92.391241,79.800792 L 93.142213,79.800792 L 93.142213,80.266592 C 93.241139,80.07252 93.364803,79.924524 93.513207,79.822633 C 93.661609,79.720743 93.830246,79.669791 94.019123,79.669791 C 94.246957,79.669791 94.436573,79.726402 94.587968,79.839612 C 94.739363,79.952837 94.857034,80.12427 94.940981,80.353938 L 94.940981,80.353938 z M 102.16752,81.867782 L 102.16752,85.235126 L 101.33558,85.235126 L 101.33558,81.867782 C 101.33558,81.379345 101.25614,81.020296 101.09726,80.790628 C 100.93836,80.560957 100.68952,80.446121 100.35077,80.446121 C 99.964027,80.446121 99.666487,80.594117 99.458127,80.890095 C 99.249757,81.18607 99.145588,81.610625 99.145588,82.163758 L 99.145588,85.235126 L 98.318168,85.235126 L 98.318168,79.800792 L 99.145588,79.800792 L 99.145588,80.615944 C 99.292487,80.305424 99.491857,80.070095 99.743678,79.909968 C 99.995517,79.749855 100.29379,79.669791 100.63856,79.669791 C 101.15121,79.669791 101.5342,79.851744 101.78752,80.215653 C 102.04085,80.579561 102.16751,81.130269 102.16752,81.867782 L 102.16752,81.867782 z M 105.75156,80.426719 C 105.33185,80.426719 105.01405,80.603014 104.79821,80.955589 C 104.58236,81.308176 104.47444,81.830586 104.47444,82.52282 C 104.47444,83.211803 104.58236,83.733415 104.79821,84.0876 C 105.01405,84.441812 105.33185,84.618906 105.75156,84.618906 C 106.17426,84.618906 106.49354,84.441812 106.70939,84.0876 C 106.92525,83.733415 107.03317,83.211803 107.03317,82.52282 C 107.03317,81.830586 106.92525,81.308176 106.70939,80.955589 C 106.49354,80.603014 106.17426,80.426719 105.75156,80.426719 L 105.75156,80.426719 z M 105.75156,79.669791 C 106.45006,79.669791 106.98446,79.914016 107.35472,80.402455 C 107.72495,80.890907 107.91007,81.597696 107.91007,82.52282 C 107.91007,83.45118 107.7257,84.158768 107.35696,84.645594 C 106.98821,85.132421 106.45307,85.375835 105.75156,85.375835 C 105.05303,85.375835 104.5194,85.132421 104.15066,84.645594 C 103.7819,84.158768 103.59754,83.45118 103.59754,82.52282 C 103.59754,81.597696 103.7819,80.890907 104.15066,80.402455 C 104.5194,79.914016 105.05303,79.669791 105.75156,79.669791 L 105.75156,79.669791 z M 21.564922,96.972302 L 21.564922,99.723427 L 20.732996,99.723427 L 20.732996,92.222119 L 21.564922,92.222119 L 21.564922,92.915962 C 21.702826,92.647487 21.88645,92.442893 22.115795,92.302183 C 22.345134,92.161472 22.609702,92.091117 22.909497,92.091117 C 23.518075,92.091117 23.995497,92.345037 24.341765,92.852893 C 24.68802,93.360746 24.861154,94.0643 24.861158,94.963549 C 24.861154,95.846617 24.687272,96.539664 24.339516,97.042658 C 23.991751,97.545651 23.515078,97.797162 22.909497,97.797162 C 22.603704,97.797162 22.336141,97.726807 22.106801,97.586097 C 21.877456,97.445384 21.696831,97.240778 21.564922,96.972302 L 21.564922,96.972302 z M 23.993253,94.944133 C 23.993251,94.2519 23.892069,93.729502 23.689712,93.376915 C 23.487348,93.024325 23.186805,92.848045 22.788082,92.848031 C 22.386357,92.848045 22.082066,93.025137 21.875209,93.379337 C 21.668352,93.733538 21.564922,94.255136 21.564922,94.944133 C 21.564922,95.629892 21.668352,96.150677 21.875209,96.506503 C 22.082066,96.862329 22.386357,97.040233 22.788082,97.040233 C 23.186805,97.040233 23.487348,96.863939 23.689712,96.51135 C 23.892069,96.158776 23.993251,95.636364 23.993253,94.944133 L 23.993253,94.944133 z M 26.911748,94.963549 C 26.911748,95.655768 27.012926,96.178179 27.215289,96.530767 C 27.417648,96.883342 27.718191,97.059637 28.116919,97.059637 C 28.515641,97.059637 28.817683,96.882545 29.023045,96.528344 C 29.228402,96.174144 29.331081,95.652545 29.331084,94.963549 C 29.331081,94.274554 29.228402,93.752954 29.023045,93.398741 C 28.817683,93.044555 28.515641,92.867447 28.116919,92.867447 C 27.718191,92.867447 27.417648,93.043743 27.215289,93.396318 C 27.012926,93.748907 26.911748,94.271318 26.911748,94.963549 L 26.911748,94.963549 z M 29.331084,96.98201 C 29.196173,97.250487 29.014048,97.456705 28.784711,97.600651 C 28.555364,97.744599 28.289298,97.816564 27.986508,97.816564 C 27.383921,97.816564 26.907998,97.565068 26.558739,97.06206 C 26.209479,96.559066 26.034849,95.866035 26.034849,94.982951 C 26.034849,94.083704 26.20873,93.380151 26.556491,92.872296 C 26.90425,92.364453 27.380922,92.11052 27.986508,92.11052 C 28.2863,92.11052 28.550867,92.180874 28.780213,92.321584 C 29.009551,92.462297 29.193173,92.666888 29.331084,92.93538 L 29.331084,92.241522 L 30.163013,92.241522 L 30.163013,99.742843 L 29.331084,99.742843 L 29.331084,96.98201 z M 36.152894,93.342955 C 35.976012,93.194161 35.796133,93.085798 35.613264,93.017853 C 35.430386,92.949936 35.229523,92.915962 35.010679,92.915962 C 34.495031,92.915962 34.100802,93.090647 33.827993,93.439985 C 33.555179,93.789352 33.418771,94.293956 33.418772,94.953841 L 33.418772,97.656451 L 32.586846,97.656451 L 32.586846,92.222119 L 33.418772,92.222119 L 33.418772,93.284719 C 33.556676,92.899796 33.768781,92.604633 34.055084,92.399226 C 34.341387,92.193819 34.680902,92.091117 35.073635,92.091117 C 35.27749,92.091117 35.46786,92.118619 35.644743,92.173603 C 35.821618,92.228592 35.991001,92.314315 36.152894,92.430762 L 36.152894,93.342955 z M 40.874648,92.411357 L 40.874648,93.284719 C 40.637806,93.135924 40.399471,93.024325 40.159639,92.949936 C 39.919799,92.875532 39.675471,92.838336 39.426644,92.838336 C 39.0519,92.838336 38.772342,92.903845 38.58797,93.034847 C 38.403595,93.165848 38.31141,93.365594 38.311411,93.634072 C 38.31141,93.876671 38.38036,94.057827 38.518268,94.177509 C 38.656171,94.297191 38.999435,94.413653 39.54806,94.526863 L 39.880831,94.594781 C 40.291546,94.678892 40.602581,94.847088 40.813937,95.099398 C 41.025291,95.351708 41.130967,95.680032 41.130973,96.084373 C 41.130967,96.621337 40.954089,97.041046 40.600338,97.343481 C 40.246577,97.645929 39.754915,97.797162 39.125351,97.797162 C 38.876518,97.797162 38.615699,97.768848 38.342889,97.712251 C 38.070074,97.655639 37.774778,97.570727 37.456997,97.457517 L 37.456997,96.535614 C 37.765783,96.707062 38.061081,96.83564 38.342889,96.921364 C 38.624692,97.007074 38.891509,97.049943 39.143337,97.049943 C 39.509085,97.049943 39.792388,96.969878 39.993255,96.809764 C 40.194112,96.649637 40.294544,96.425641 40.294548,96.137748 C 40.294544,95.723698 39.927294,95.437431 39.192807,95.27893 L 39.156829,95.269221 L 38.846543,95.201289 C 38.369869,95.101024 38.022109,94.932015 37.80326,94.694246 C 37.584407,94.456508 37.474984,94.132217 37.474984,93.721407 C 37.474984,93.20062 37.638373,92.798718 37.965148,92.515671 C 38.291922,92.23264 38.758101,92.091117 39.363686,92.091117 C 39.633499,92.091117 39.892821,92.117806 40.141653,92.171166 C 40.390476,92.224543 40.634808,92.304607 40.874648,92.411357 L 40.874648,92.411357 z M 44.800451,90.679151 L 44.800451,92.222119 L 46.680156,92.222119 L 46.680156,92.915962 L 44.800451,92.915962 L 44.800451,95.866021 C 44.800445,96.267139 44.8709,96.546935 45.011804,96.705435 C 45.152705,96.863939 45.398535,96.94319 45.749298,96.94319 L 46.680156,96.94319 L 46.680156,97.656451 L 45.668353,97.656451 C 45.047775,97.656451 44.610077,97.5222 44.355256,97.253723 C 44.100429,96.985246 43.973016,96.522684 43.973019,95.866021 L 43.973019,92.915962 L 42.628444,92.915962 L 42.628444,92.222119 L 43.973019,92.222119 L 43.973019,90.679151 L 44.800451,90.679151 z M 48.456434,95.59917 L 48.456434,92.231813 L 49.283868,92.231813 L 49.283868,95.59917 C 49.283866,96.087609 49.36406,96.446669 49.524452,96.676325 C 49.684839,96.905996 49.932918,97.020816 50.26869,97.020816 C 50.658419,97.020816 50.956714,96.872835 51.163574,96.576858 C 51.370429,96.280881 51.473859,95.856326 51.473862,95.303193 L 51.473862,92.231813 L 52.30579,92.231813 L 52.30579,97.656451 L 51.473862,97.656451 L 51.473862,96.8413 C 51.326961,97.155067 51.126848,97.392822 50.873524,97.554547 C 50.620195,97.716285 50.32415,97.797162 49.985385,97.797162 C 49.469738,97.797162 49.086002,97.615207 48.834175,97.2513 C 48.582347,96.88739 48.456434,96.336681 48.456434,95.59917 L 48.456434,95.59917 z M 53.569422,92.222119 L 54.42833,92.222119 L 55.889826,96.783077 L 57.355818,92.222119 L 58.214727,92.222119 L 56.424958,97.656451 L 55.35919,97.656451 L 53.569422,92.222119 z M 58.659921,92.222119 L 59.47836,92.222119 L 60.355255,96.613255 L 61.074761,93.808753 L 61.780774,93.808753 L 62.509276,96.613255 L 63.386172,92.222119 L 64.204607,92.222119 L 63.026418,97.656451 L 62.234961,97.656451 L 61.430015,94.677267 L 60.629567,97.656451 L 59.83811,97.656451 L 58.659921,92.222119 z M 69.227657,92.222119 L 67.424395,94.822826 L 69.403035,97.656451 L 68.445196,97.656451 L 66.970209,95.477861 L 65.499718,97.656451 L 64.541881,97.656451 L 66.520518,94.822826 L 64.717257,92.222119 L 65.634626,92.222119 L 66.970209,94.187218 L 68.296795,92.222119 L 69.227657,92.222119 z M 73.598652,95.909704 C 73.460743,96.288166 73.285362,96.786312 73.072515,97.404141 C 72.775712,98.2581 72.576351,98.778883 72.474426,98.966512 C 72.336516,99.218808 72.164135,99.408046 71.957278,99.534202 C 71.750419,99.660357 71.509087,99.723427 71.233277,99.723427 L 70.567737,99.723427 L 70.567737,98.976207 L 71.057899,98.976207 C 71.300729,98.976207 71.491097,98.900191 71.629003,98.748162 C 71.766909,98.596132 71.942287,98.203113 72.155144,97.569102 L 70.207982,92.222119 L 71.084879,92.222119 L 72.577855,96.472544 L 74.048342,92.222119 L 74.92524,92.222119 L 73.598652,95.909704 z M 76.301294,92.212412 L 79.957283,92.212412 L 79.957283,93.027562 L 77.065769,96.928635 L 79.957283,96.928635 L 79.957283,97.656451 L 76.193367,97.656451 L 76.193367,96.831592 L 79.084879,92.925671 L 76.301294,92.925671 L 76.301294,92.212412 z M 85.371557,98.578339 L 85.371557,99.277045 L 85.083751,99.277045 C 84.33727,99.277045 83.837358,99.157348 83.584035,98.917984 C 83.330713,98.678619 83.204051,98.201487 83.204051,97.486615 L 83.204051,96.326972 C 83.204051,95.838534 83.123851,95.500502 82.963464,95.312888 C 82.803071,95.125274 82.513021,95.031467 82.093312,95.031467 L 81.814504,95.031467 L 81.814504,94.337623 L 82.093312,94.337623 C 82.516021,94.337623 82.806821,94.245442 82.965714,94.06105 C 83.124605,93.876671 83.204051,93.541889 83.204051,93.056673 L 83.204051,91.892168 C 83.204051,91.177311 83.330713,90.700991 83.584035,90.463238 C 83.837358,90.2255 84.33727,90.106614 85.083751,90.106614 L 85.371557,90.106614 L 85.371557,90.800459 L 85.056775,90.800459 C 84.637064,90.800459 84.363501,90.870828 84.236092,91.011523 C 84.108677,91.152236 84.044965,91.452261 84.044965,91.911585 L 84.044965,93.114897 C 84.044965,93.622752 83.976762,93.991521 83.840357,94.221178 C 83.703953,94.450847 83.470861,94.606114 83.141092,94.686976 C 83.473861,94.774311 83.707697,94.932814 83.842612,95.162482 C 83.977507,95.392138 84.044965,95.759283 84.044965,96.263903 L 84.044965,97.467211 C 84.044965,97.929774 84.108677,98.230614 84.236092,98.369698 C 84.363501,98.508798 84.637064,98.578339 85.056775,98.578339 L 85.371557,98.578339 z M 89.517703,90.062947 L 89.517703,100 L 88.744235,100 L 88.744235,90.062947 L 89.517703,90.062947 z M 92.894884,98.578339 L 93.200676,98.578339 C 93.623389,98.578339 93.899197,98.507173 94.028117,98.364851 C 94.157017,98.222515 94.221471,97.923316 94.221471,97.467211 L 94.221471,96.263903 C 94.221471,95.759283 94.288927,95.392138 94.423829,95.162482 C 94.558733,94.932814 94.792579,94.774311 95.125353,94.686976 C 94.79558,94.606114 94.562473,94.450847 94.426083,94.221178 C 94.289675,93.991521 94.221471,93.622752 94.221471,93.114897 L 94.221471,91.911585 C 94.221471,91.455497 94.157017,91.156284 94.028117,91.013948 C 93.899197,90.871626 93.623389,90.800459 93.200676,90.800459 L 92.894884,90.800459 L 92.894884,90.106614 L 93.173683,90.106614 C 93.920186,90.106614 94.419333,90.2255 94.671158,90.463238 C 94.922994,90.700991 95.048903,91.177311 95.048913,91.892168 L 95.048913,93.056673 C 95.048903,93.541889 95.129102,93.876671 95.289491,94.06105 C 95.449879,94.245442 95.741421,94.337623 96.164128,94.337623 L 96.451939,94.337623 L 96.451939,95.031467 L 96.164128,95.031467 C 95.741421,95.031467 95.449879,95.125274 95.289491,95.312888 C 95.129102,95.500502 95.048903,95.838534 95.048913,96.326972 L 95.048913,97.486615 C 95.048903,98.201487 94.922994,98.678619 94.671158,98.917984 C 94.419333,99.157348 93.920186,99.277045 93.173683,99.277045 L 92.894884,99.277045 L 92.894884,98.578339 z M 102.59024,93.871824 L 102.59024,94.716088 C 102.36537,94.906937 102.14578,95.046835 101.93142,95.135794 C 101.71707,95.224756 101.49148,95.269221 101.25465,95.269221 C 100.98483,95.269221 100.68053,95.186732 100.34176,95.021772 C 100.2758,94.989424 100.22635,94.966771 100.19338,94.953841 C 99.962527,94.847088 99.769917,94.774311 99.615517,94.73549 C 99.461127,94.696683 99.307477,94.677267 99.154577,94.677267 C 98.917737,94.677267 98.693658,94.724984 98.482306,94.8204 C 98.270944,94.915834 98.055838,95.06544 97.836988,95.269221 L 97.836988,94.424958 C 98.070825,94.230886 98.297179,94.090175 98.516029,94.002825 C 98.734867,93.915491 98.968708,93.871824 99.217537,93.871824 C 99.376437,93.871824 99.530827,93.889616 99.680717,93.9252 C 99.830617,93.960784 100.0165,94.028715 100.23834,94.128982 C 100.27431,94.145162 100.32378,94.169425 100.38674,94.201759 C 100.7345,94.37968 101.04779,94.468638 101.3266,94.468625 C 101.53645,94.468638 101.74405,94.419312 101.94941,94.320643 C 102.15476,94.22199 102.36837,94.072384 102.59024,93.871824 L 102.59024,93.871824 z "
       id="use1878" />
    <path
       d="M 41.879531,115.98249 C 41.879531,115.98249 66.18914,91.672876 66.18914,91.672876 C 66.18914,91.672876 56.836,94.586 46.586,94.586 C 46.586,104.836 41.879531,115.98249 41.879531,115.98249 z"
       id="path5540"
       style="opacity:0.4;fill:#000000;fill-opacity:1;filter:url(#filter6697)"
       sodipodi:nodetypes="cccc"
       clip-path="url(#clipPath7084)"
       transform="translate(40,0)" />
    <path
       style="fill:url(#linearGradient10213);fill-opacity:1"
       id="path14523"
       d="M 79.172,120 C 79.172,120 91.086,110.086 96.586,104.586 C 102.086,99.086 112,87.172 112,87.172 C 112,87.172 98.25,96 88,96 C 88,106.25 79.172,120 79.172,120 z"
       sodipodi:nodetypes="csccc" />
  </g>
</svg>
