<?xml version="1.0" encoding="UTF-8" standalone="no"?>
<!-- Created with Inkscape (http://www.inkscape.org/) -->
<svg
   xmlns:dc="http://purl.org/dc/elements/1.1/"
   xmlns:cc="http://web.resource.org/cc/"
   xmlns:rdf="http://www.w3.org/1999/02/22-rdf-syntax-ns#"
   xmlns:svg="http://www.w3.org/2000/svg"
   xmlns="http://www.w3.org/2000/svg"
   xmlns:xlink="http://www.w3.org/1999/xlink"
   xmlns:sodipodi="http://sodipodi.sourceforge.net/DTD/sodipodi-0.dtd"
   xmlns:inkscape="http://www.inkscape.org/namespaces/inkscape"
   width="128"
   height="128"
   id="svg2606"
   sodipodi:version="0.32"
   inkscape:version="0.45.1"
   version="1.0"
   sodipodi:docname="application-x-trash.svg"
   inkscape:output_extension="org.inkscape.output.svg.inkscape"
   sodipodi:docbase="/home/david/sandbox">
  <defs
     id="defs2608">
    <linearGradient
       inkscape:collect="always"
       xlink:href="#linearGradient4680"
       id="linearGradient4689"
       gradientUnits="userSpaceOnUse"
       x1="1.851"
       y1="2.5823638"
       x2="5.5943169"
       y2="2.5823638" />
    <linearGradient
       inkscape:collect="always"
       xlink:href="#linearGradient4700"
       id="linearGradient4698"
       x1="8.3928595"
       y1="-1.8918487"
       x2="10.73"
       y2="3.8010001"
       gradientUnits="userSpaceOnUse" />
    <linearGradient
       inkscape:collect="always"
       xlink:href="#linearGradient4680"
       id="linearGradient4720"
       x1="6.6090002"
       y1="10.89"
       x2="2.5990694"
       y2="10.89"
       gradientUnits="userSpaceOnUse" />
    <linearGradient
       inkscape:collect="always"
       xlink:href="#linearGradient4700"
       id="linearGradient4712"
       x1="-0.61331987"
       y1="8.7617416"
       x2="3.2644036"
       y2="4.1526461"
       gradientUnits="userSpaceOnUse" />
    <linearGradient
       id="linearGradient4680">
      <stop
         style="stop-color:#00c03d;stop-opacity:1;"
         offset="0"
         id="stop4682" />
      <stop
         style="stop-color:#006e29;stop-opacity:1;"
         offset="1"
         id="stop4684" />
    </linearGradient>
    <linearGradient
       inkscape:collect="always"
       xlink:href="#linearGradient4680"
       id="linearGradient4734"
       x1="8.3030005"
       y1="5.3425255"
       x2="12.067251"
       y2="5.3425255"
       gradientUnits="userSpaceOnUse" />
    <linearGradient
       id="linearGradient4700">
      <stop
         id="stop4702"
         offset="0"
         style="stop-color:#aaff32;stop-opacity:1;" />
      <stop
         style="stop-color:#00a333;stop-opacity:1;"
         offset="0.407767"
         id="stop4722" />
      <stop
         id="stop4704"
         offset="1"
         style="stop-color:#34ec21;stop-opacity:1;" />
    </linearGradient>
    <linearGradient
       inkscape:collect="always"
       xlink:href="#linearGradient4700"
       id="linearGradient4742"
       x1="12.571813"
       y1="10.489394"
       x2="6.8239999"
       y2="10.607646"
       gradientUnits="userSpaceOnUse" />
    <linearGradient
       id="linearGradient10207">
      <stop
         style="stop-color:#a2a2a2;stop-opacity:1;"
         offset="0"
         id="stop10209" />
      <stop
         style="stop-color:#ffffff;stop-opacity:1;"
         offset="1"
         id="stop10211" />
    </linearGradient>
    <linearGradient
       id="XMLID_12_"
       gradientUnits="userSpaceOnUse"
       x1="96"
       y1="104"
       x2="88.000198"
       y2="96.000198">
      <stop
         offset="0"
         style="stop-color:#888A85"
         id="stop83" />
      <stop
         offset="0.0072"
         style="stop-color:#8C8E89"
         id="stop85" />
      <stop
         offset="0.0673"
         style="stop-color:#ABACA9"
         id="stop87" />
      <stop
         offset="0.1347"
         style="stop-color:#C5C6C4"
         id="stop89" />
      <stop
         offset="0.2652576"
         style="stop-color:#DBDBDA"
         id="stop91" />
      <stop
         offset="0.37646064"
         style="stop-color:#EBEBEB"
         id="stop93" />
      <stop
         offset="0.48740286"
         style="stop-color:#F7F7F6"
         id="stop95" />
      <stop
         offset="0.6324091"
         style="stop-color:#FDFDFD"
         id="stop97" />
      <stop
         offset="1"
         style="stop-color:#FFFFFF"
         id="stop99" />
    </linearGradient>
    <radialGradient
       id="XMLID_8_"
       cx="102"
       cy="112.3047"
       r="139.55859"
       gradientUnits="userSpaceOnUse">
      <stop
         offset="0"
         style="stop-color:#b7b8b9;stop-opacity:1;"
         id="stop41" />
      <stop
         offset="0.18851049"
         style="stop-color:#ECECEC"
         id="stop47" />
      <stop
         offset="0.25718147"
         style="stop-color:#FAFAFA"
         id="stop49" />
      <stop
         offset="0.30111277"
         style="stop-color:#FFFFFF"
         id="stop51" />
      <stop
         offset="0.5313"
         style="stop-color:#FAFAFA"
         id="stop53" />
      <stop
         offset="0.8449"
         style="stop-color:#EBECEC"
         id="stop55" />
      <stop
         offset="1"
         style="stop-color:#E1E2E3"
         id="stop57" />
    </radialGradient>
    <filter
       inkscape:collect="always"
       x="-0.19200002"
       width="1.3839999"
       y="-0.19199999"
       height="1.3839999"
       id="filter6697">
      <feGaussianBlur
         inkscape:collect="always"
         stdDeviation="1.9447689"
         id="feGaussianBlur6699" />
    </filter>
    <clipPath
       clipPathUnits="userSpaceOnUse"
       id="clipPath7084">
      <path
         style="fill:#000000;fill-opacity:1;fill-rule:evenodd;stroke:none;stroke-width:1px;stroke-linecap:butt;stroke-linejoin:miter;stroke-opacity:1"
         d="M 72,88 L 40,120 L 32,120 L 32,80 L 72,80 L 72,88 z"
         id="path7086" />
    </clipPath>
    <radialGradient
       inkscape:collect="always"
       xlink:href="#XMLID_8_"
       id="radialGradient9437"
       gradientUnits="userSpaceOnUse"
       gradientTransform="matrix(0.9361702,0,0,0.9428661,4.085106,3.7642086)"
       cx="102"
       cy="112.3047"
       r="139.55859" />
    <linearGradient
       inkscape:collect="always"
       xlink:href="#linearGradient10207"
       id="linearGradient10213"
       x1="98.617439"
       y1="106.41443"
       x2="91.228737"
       y2="99.254974"
       gradientUnits="userSpaceOnUse" />
  </defs>
  <sodipodi:namedview
     id="base"
     pagecolor="#ffffff"
     bordercolor="#666666"
     borderopacity="1.0"
     inkscape:pageopacity="0.0"
     inkscape:pageshadow="2"
     inkscape:zoom="4"
     inkscape:cx="64"
     inkscape:cy="75.798844"
     inkscape:document-units="px"
     inkscape:current-layer="layer1"
     width="128px"
     height="128px"
     gridspacingx="4px"
     gridspacingy="4px"
     gridempspacing="2"
     showgrid="true"
     inkscape:grid-points="true"
     showguides="true"
     inkscape:guide-bbox="true"
     inkscape:window-width="1016"
     inkscape:window-height="692"
     inkscape:window-x="0"
     inkscape:window-y="0" />
  <metadata
     id="metadata2611">
    <rdf:RDF>
      <cc:Work
         rdf:about="">
        <dc:format>image/svg+xml</dc:format>
        <dc:type
           rdf:resource="http://purl.org/dc/dcmitype/StillImage" />
      </cc:Work>
    </rdf:RDF>
  </metadata>
  <g
     inkscape:label="Livello 1"
     inkscape:groupmode="layer"
     id="layer1">
    <path
       style="opacity:0.1;fill:none;fill-opacity:1;stroke:#000000;stroke-width:16;stroke-linejoin:round;stroke-miterlimit:4;stroke-dasharray:none;stroke-opacity:1"
       d="M 16.000001,8 L 16,120 C 16,120 79.146418,120 79.146418,120 L 112,87.14642 L 112,8 L 16.000001,8 z"
       id="path3176"
       sodipodi:nodetypes="cccccc" />
    <path
       sodipodi:nodetypes="cccccc"
       id="path3174"
       d="M 16.000001,8 L 16,120 C 16,120 79.146418,120 79.146418,120 L 112,87.14642 L 112,8 L 16.000001,8 z"
       style="opacity:0.15;fill:none;fill-opacity:1;stroke:#000000;stroke-width:12;stroke-linejoin:round;stroke-miterlimit:4;stroke-dasharray:none;stroke-opacity:1" />
    <path
       style="opacity:0.2;fill:none;fill-opacity:1;stroke:#000000;stroke-width:8;stroke-linejoin:round;stroke-miterlimit:4;stroke-dasharray:none;stroke-opacity:1"
       d="M 16.000001,8 L 16,120 C 16,120 79.146418,120 79.146418,120 L 112,87.14642 L 112,8 L 16.000001,8 z"
       id="path3172"
       sodipodi:nodetypes="cccccc" />
    <path
       sodipodi:nodetypes="cccccc"
       id="path2789"
       d="M 16.000001,8 L 16,120 C 16,120 79.146418,120 79.146418,120 L 112,87.14642 L 112,8 L 16.000001,8 z"
       style="opacity:0.25;fill:none;fill-opacity:1;stroke:#000000;stroke-width:4;stroke-linejoin:round;stroke-miterlimit:4;stroke-dasharray:none;stroke-opacity:1" />
    <path
       style="fill:#ffffff;fill-opacity:1"
       d="M 16.000001,8 L 16,120 C 16,120 79.146418,120 79.146418,120 L 112,87.14642 L 112,8 L 16.000001,8 z"
       id="path34"
       sodipodi:nodetypes="cccccc" />
    <path
       style="fill:url(#radialGradient9437);fill-opacity:1"
       d="M 20.93617,12.250003 C 20.42034,12.250003 20,12.673351 20,13.192869 L 20,115.02241 C 20,115.54287 20.42034,115.96527 20.93617,115.96527 L 76.331232,115.96527 C 76.577445,115.96527 78.917571,116.07669 79.0917,115.90038 L 107.7257,86.850213 C 107.90076,86.673896 108,84.317975 108,84.070002 L 108,13.192869 C 108,12.673351 107.5806,12.250003 107.06383,12.250003 L 20.93617,12.250003 z"
       id="path59"
       sodipodi:nodetypes="ccccccccccc" />
    <path
       d="M 41.879531,115.98249 C 41.879531,115.98249 66.18914,91.672876 66.18914,91.672876 C 66.18914,91.672876 56.836,94.586 46.586,94.586 C 46.586,104.836 41.879531,115.98249 41.879531,115.98249 z"
       id="path5540"
       style="opacity:0.4;fill:#000000;fill-opacity:1;filter:url(#filter6697)"
       sodipodi:nodetypes="cccc"
       clip-path="url(#clipPath7084)"
       transform="translate(40,0)" />
    <path
       style="fill:url(#linearGradient10213);fill-opacity:1"
       id="path14523"
       d="M 79.172,120 C 79.172,120 91.086,110.086 96.586,104.586 C 102.086,99.086 112,87.172 112,87.172 C 112,87.172 98.25,96 88,96 C 88,106.25 79.172,120 79.172,120 z"
       sodipodi:nodetypes="csccc" />
    <g
       transform="matrix(5.966562,0,0,5.9796607,28,27.998906)"
       style="opacity:1"
       id="g4746">
      <path
         style="opacity:1;fill:url(#linearGradient4742);fill-opacity:1"
         id="path2664"
         d="M 12.023,7.318 C 12.023,7.318 11.402,8.032 10.988,8.032 C 10.574,8.032 8.176,8.032 8.176,8.032 L 8.176,6.691 L 6.824,9.359 L 8.176,12.041 L 8.176,10.655 L 9.602,10.655 C 9.602,10.655 10.791,10.991 12.023,7.318 z " />
      <path
         style="opacity:1;fill:url(#linearGradient4734);fill-opacity:1"
         id="path2666"
         d="M 8.303,4.499 L 10.57,3.19 L 11.916,5.553 C 11.916,5.553 12.455,6.601 11.498,7.277 C 10.57,7.935 9.723,6.894 9.723,6.894 L 8.303,4.499 z " />
      <g
         id="g2668">
        <path
           style="fill:url(#linearGradient4712);fill-opacity:1"
           id="path2670"
           d="M 2.16,10.071 C 2.16,10.071 1.885,9.23 2.058,8.815 C 2.234,8.404 3.468,6.383 3.468,6.383 L 4.628,7.057 L 2.998,4.544 L 0,4.373 L 1.197,5.068 L 0.486,6.302 C 0.486,6.302 -0.441,7.204 2.16,10.071 z " />
        <path
           style="fill:url(#linearGradient4720);fill-opacity:1"
           id="path2672"
           d="M 6.609,8.276 L 6.605,10.89 L 3.886,10.873 C 3.886,10.873 2.71,10.815 2.605,9.652 C 2.5,8.517 3.824,8.306 3.824,8.306 L 6.609,8.276 z " />
      </g>
      <g
         id="g4724">
        <path
           style="fill:url(#linearGradient4698);fill-opacity:1"
           id="path2676"
           d="M 4.719,0.155 C 4.719,0.155 5.657,0.377 5.852,0.699 C 6.049,1.018 7.254,3.135 7.254,3.135 L 6.092,3.801 L 9.082,3.648 L 10.73,1.142 L 9.527,1.832 L 8.82,0.595 C 8.82,0.595 8.668,-0.366 4.719,0.155 z " />
        <path
           style="fill:url(#linearGradient4689);fill-opacity:1"
           id="path2678"
           d="M 4.111,4.727 L 1.851,3.415 L 3.228,1.068 C 3.228,1.068 3.867,0.084 4.931,0.575 C 5.964,1.054 5.482,2.302 5.482,2.302 L 4.111,4.727 z " />
      </g>
    </g>
  </g>
</svg>
