<?xml version="1.0" encoding="UTF-8" standalone="no"?>
<!-- Created with Inkscape (http://www.inkscape.org/) -->
<svg
   xmlns:dc="http://purl.org/dc/elements/1.1/"
   xmlns:cc="http://web.resource.org/cc/"
   xmlns:rdf="http://www.w3.org/1999/02/22-rdf-syntax-ns#"
   xmlns:svg="http://www.w3.org/2000/svg"
   xmlns="http://www.w3.org/2000/svg"
   xmlns:xlink="http://www.w3.org/1999/xlink"
   xmlns:sodipodi="http://sodipodi.sourceforge.net/DTD/sodipodi-0.dtd"
   xmlns:inkscape="http://www.inkscape.org/namespaces/inkscape"
   width="128"
   height="128"
   id="svg2606"
   sodipodi:version="0.32"
   inkscape:version="0.45.1"
   version="1.0"
   sodipodi:docname="audio-ac3.svg"
   inkscape:output_extension="org.inkscape.output.svg.inkscape"
   sodipodi:docbase="/home/david/sandbox">
  <defs
     id="defs2608">
    <linearGradient
       inkscape:collect="always"
       xlink:href="#linearGradient8528"
       id="linearGradient24971"
       gradientUnits="userSpaceOnUse"
       x1="83.806137"
       y1="33.289322"
       x2="83.806137"
       y2="92.312012" />
    <linearGradient
       inkscape:collect="always"
       xlink:href="#linearGradient8528"
       id="linearGradient2697"
       gradientUnits="userSpaceOnUse"
       x1="83.806137"
       y1="33.289322"
       x2="83.806137"
       y2="92.312012" />
    <linearGradient
       inkscape:collect="always"
       xlink:href="#linearGradient8528"
       id="linearGradient24967"
       gradientUnits="userSpaceOnUse"
       x1="83.806137"
       y1="33.289322"
       x2="83.806137"
       y2="92.312012" />
    <linearGradient
       inkscape:collect="always"
       xlink:href="#linearGradient8528"
       id="linearGradient2695"
       gradientUnits="userSpaceOnUse"
       x1="83.806137"
       y1="33.289322"
       x2="83.806137"
       y2="92.312012" />
    <linearGradient
       id="linearGradient8528">
      <stop
         style="stop-color:#888888;stop-opacity:0.39215687;"
         offset="0"
         id="stop8530" />
      <stop
         id="stop8540"
         offset="0.5"
         style="stop-color:#888888;stop-opacity:1;" />
      <stop
         style="stop-color:#888888;stop-opacity:0.39215687;"
         offset="1"
         id="stop8532" />
    </linearGradient>
    <linearGradient
       inkscape:collect="always"
       xlink:href="#linearGradient8528"
       id="linearGradient2693"
       gradientUnits="userSpaceOnUse"
       x1="83.806137"
       y1="33.289322"
       x2="83.806137"
       y2="92.312012" />
    <filter
       inkscape:collect="always"
       id="filter6448">
      <feGaussianBlur
         inkscape:collect="always"
         stdDeviation="0.37043075"
         id="feGaussianBlur6450" />
    </filter>
    <radialGradient
       cx="54.212399"
       cy="18.0903"
       r="26.416201"
       id="XMLID_14_"
       gradientUnits="userSpaceOnUse">
      <stop
         style="stop-color:#f0ff80;stop-opacity:1"
         offset="0.33140001"
         id="stop74" />
      <stop
         style="stop-color:#00ff00;stop-opacity:0;"
         offset="0.67438829"
         id="stop3926" />
    </radialGradient>
    <radialGradient
       inkscape:collect="always"
       xlink:href="#XMLID_14_"
       id="radialGradient2445"
       gradientUnits="userSpaceOnUse"
       gradientTransform="matrix(0.624346,0,0,0.624346,45.032334,16.880096)"
       cx="54.212399"
       cy="18.0903"
       r="26.416201" />
    <linearGradient
       inkscape:collect="always"
       xlink:href="#XMLID_9_"
       id="linearGradient2443"
       gradientUnits="userSpaceOnUse"
       gradientTransform="matrix(0.4041764,0,0,0.4128295,54.624679,37.044141)"
       x1="54.103237"
       y1="32.580181"
       x2="32.584381"
       y2="31.295557" />
    <filter
       inkscape:collect="always"
       id="filter3619">
      <feGaussianBlur
         inkscape:collect="always"
         stdDeviation="0.69944247"
         id="feGaussianBlur3621" />
    </filter>
    <linearGradient
       y2="19.9497"
       x2="52.9131"
       y1="8.6162"
       x1="62.2461"
       gradientUnits="userSpaceOnUse"
       id="linearGradient5332">
      <stop
         id="stop5334"
         style="stop-color:#000000;stop-opacity:0;"
         offset="0" />
      <stop
         id="stop5336"
         style="stop-color:#07631a;stop-opacity:1;"
         offset="1" />
    </linearGradient>
    <linearGradient
       inkscape:collect="always"
       xlink:href="#linearGradient5332"
       id="linearGradient2441"
       gradientUnits="userSpaceOnUse"
       gradientTransform="matrix(1,0,0,-1,39.75779,128)"
       x1="22.025112"
       y1="29.212114"
       x2="21.785669"
       y2="7.9726162" />
    <filter
       inkscape:collect="always"
       x="-0.073310805"
       width="1.1466216"
       y="-0.13902832"
       height="1.2780566"
       id="filter2844">
      <feGaussianBlur
         inkscape:collect="always"
         stdDeviation="0.73249726"
         id="feGaussianBlur2846" />
    </filter>
    <linearGradient
       id="linearGradient2848">
      <stop
         style="stop-color:#c3ff6a;stop-opacity:1;"
         offset="0"
         id="stop2850" />
      <stop
         style="stop-color:#a6ff88;stop-opacity:0;"
         offset="1"
         id="stop2852" />
    </linearGradient>
    <radialGradient
       inkscape:collect="always"
       xlink:href="#linearGradient2848"
       id="radialGradient2439"
       gradientUnits="userSpaceOnUse"
       gradientTransform="matrix(1,-2.6486575e-2,1.3961697e-2,0.5271235,18.16764,52.58348)"
       cx="27.127048"
       cy="113.89391"
       fx="27.127048"
       fy="113.89391"
       r="11.990002" />
    <filter
       inkscape:collect="always"
       id="filter5558">
      <feGaussianBlur
         inkscape:collect="always"
         stdDeviation="0.61029092"
         id="feGaussianBlur5560" />
    </filter>
    <radialGradient
       gradientUnits="userSpaceOnUse"
       fy="88.667"
       fx="17.1172"
       r="14"
       cy="94"
       cx="19.7837"
       id="radialGradient4531">
      <stop
         id="stop4533"
         style="stop-color:#ffffff;stop-opacity:1;"
         offset="0" />
      <stop
         offset="0.5"
         style="stop-color:#ffffff;stop-opacity:0.70886075;"
         id="stop4537" />
      <stop
         id="stop4535"
         style="stop-color:#ffffff;stop-opacity:0;"
         offset="1" />
    </radialGradient>
    <radialGradient
       inkscape:collect="always"
       xlink:href="#radialGradient4531"
       id="radialGradient2437"
       gradientUnits="userSpaceOnUse"
       gradientTransform="matrix(0.6862309,-0.2788753,0.2607269,0.6833644,-6.7420546e-2,33.863485)"
       cx="22.501722"
       cy="91.356857"
       fx="19.835222"
       fy="86.023857"
       r="14" />
    <filter
       inkscape:collect="always"
       x="-0.12256312"
       width="1.2451262"
       y="-0.1775055"
       height="1.355011"
       id="filter6116">
      <feGaussianBlur
         inkscape:collect="always"
         stdDeviation="2.0368781"
         id="feGaussianBlur6118" />
    </filter>
    <linearGradient
       id="linearGradient4540">
      <stop
         style="stop-color:#008800;stop-opacity:1;"
         offset="0"
         id="stop4542" />
      <stop
         style="stop-color:#0aa800;stop-opacity:0.60759491;"
         offset="1"
         id="stop4544" />
    </linearGradient>
    <linearGradient
       inkscape:collect="always"
       xlink:href="#linearGradient4540"
       id="linearGradient2435"
       gradientUnits="userSpaceOnUse"
       x1="3.9885471"
       y1="100.01298"
       x2="43.874181"
       y2="100.01298" />
    <radialGradient
       id="XMLID_10_"
       cx="23.7837"
       cy="100"
       r="25.1951"
       gradientUnits="userSpaceOnUse"
       style="fill-opacity:1.0;fill:url(#linearGradient6728)">
      <stop
         offset="0"
         style="stop-color:#287f00;stop-opacity:1;"
         id="stop35" />
      <stop
         id="stop9094"
         style="stop-color:#3cf000;stop-opacity:1;"
         offset="0.5" />
      <stop
         offset="1"
         style="stop-color:#003a00;stop-opacity:1;"
         id="stop43" />
    </radialGradient>
    <linearGradient
       inkscape:collect="always"
       xlink:href="#XMLID_10_"
       id="linearGradient2433"
       gradientUnits="userSpaceOnUse"
       gradientTransform="matrix(0.6433337,0,0,0.5432152,37.044465,32.23032)"
       x1="0.1174117"
       y1="101.0003"
       x2="43.927124"
       y2="92.500053" />
    <linearGradient
       inkscape:collect="always"
       xlink:href="#XMLID_13_"
       id="linearGradient2431"
       gradientUnits="userSpaceOnUse"
       gradientTransform="matrix(0.2999999,0,0,0.3594536,55.551385,42.168438)"
       x1="44.117001"
       y1="88.249001"
       x2="44.117001"
       y2="83.652809" />
    <filter
       inkscape:collect="always"
       x="-0.558942"
       width="2.117884"
       y="-0.012263282"
       height="1.0245266"
       id="filter5551">
      <feGaussianBlur
         inkscape:collect="always"
         stdDeviation="0.465785"
         id="feGaussianBlur5553" />
    </filter>
    <linearGradient
       id="linearGradient4390">
      <stop
         style="stop-color:#00a208;stop-opacity:1;"
         offset="0"
         id="stop4392" />
      <stop
         id="stop4398"
         offset="0.5"
         style="stop-color:#dfffa8;stop-opacity:1;" />
      <stop
         style="stop-color:#8aff47;stop-opacity:0.63291138;"
         offset="1"
         id="stop4394" />
    </linearGradient>
    <linearGradient
       inkscape:collect="always"
       xlink:href="#linearGradient4390"
       id="linearGradient2429"
       gradientUnits="userSpaceOnUse"
       x1="44.142799"
       y1="3.4933131"
       x2="44.142799"
       y2="94.157005" />
    <linearGradient
       id="XMLID_9_"
       gradientUnits="userSpaceOnUse"
       x1="40.1172"
       y1="49"
       x2="48.1172"
       y2="49">
      <stop
         offset="0"
         style="stop-color:#008e00;stop-opacity:1;"
         id="stop16" />
      <stop
         offset="0.2294"
         style="stop-color:#008700"
         id="stop18" />
      <stop
         offset="0.5127"
         style="stop-color:#007800"
         id="stop20" />
      <stop
         offset="0.8231"
         style="stop-color:#005F00"
         id="stop22" />
      <stop
         offset="1"
         style="stop-color:#004D00"
         id="stop24" />
    </linearGradient>
    <linearGradient
       inkscape:collect="always"
       xlink:href="#XMLID_9_"
       id="linearGradient2427"
       gradientUnits="userSpaceOnUse"
       gradientTransform="matrix(0.2909091,0,0,0.3788517,55.916085,40.000001)"
       x1="40.1172"
       y1="49"
       x2="48.1172"
       y2="49" />
    <linearGradient
       id="XMLID_13_"
       gradientUnits="userSpaceOnUse"
       x1="62.2461"
       y1="8.6162"
       x2="52.9131"
       y2="19.9497">
      <stop
         offset="0"
         style="stop-color:#000000;stop-opacity:1;"
         id="stop88" />
      <stop
         offset="1"
         style="stop-color:#000000;stop-opacity:0;"
         id="stop104" />
    </linearGradient>
    <radialGradient
       inkscape:collect="always"
       xlink:href="#XMLID_13_"
       id="radialGradient2425"
       gradientUnits="userSpaceOnUse"
       gradientTransform="matrix(1,0,0,0.2670157,0,81.512404)"
       cx="45.43161"
       cy="111.20621"
       fx="45.43161"
       fy="111.20621"
       r="33.764351" />
    <linearGradient
       id="linearGradient10207">
      <stop
         style="stop-color:#a2a2a2;stop-opacity:1;"
         offset="0"
         id="stop10209" />
      <stop
         style="stop-color:#ffffff;stop-opacity:1;"
         offset="1"
         id="stop10211" />
    </linearGradient>
    <linearGradient
       id="XMLID_12_"
       gradientUnits="userSpaceOnUse"
       x1="96"
       y1="104"
       x2="88.000198"
       y2="96.000198">
      <stop
         offset="0"
         style="stop-color:#888A85"
         id="stop83" />
      <stop
         offset="0.0072"
         style="stop-color:#8C8E89"
         id="stop85" />
      <stop
         offset="0.0673"
         style="stop-color:#ABACA9"
         id="stop87" />
      <stop
         offset="0.1347"
         style="stop-color:#C5C6C4"
         id="stop89" />
      <stop
         offset="0.2652576"
         style="stop-color:#DBDBDA"
         id="stop91" />
      <stop
         offset="0.37646064"
         style="stop-color:#EBEBEB"
         id="stop93" />
      <stop
         offset="0.48740286"
         style="stop-color:#F7F7F6"
         id="stop95" />
      <stop
         offset="0.6324091"
         style="stop-color:#FDFDFD"
         id="stop97" />
      <stop
         offset="1"
         style="stop-color:#FFFFFF"
         id="stop99" />
    </linearGradient>
    <radialGradient
       id="XMLID_8_"
       cx="102"
       cy="112.3047"
       r="139.55859"
       gradientUnits="userSpaceOnUse">
      <stop
         offset="0"
         style="stop-color:#b7b8b9;stop-opacity:1;"
         id="stop41" />
      <stop
         offset="0.18851049"
         style="stop-color:#ECECEC"
         id="stop47" />
      <stop
         offset="0.25718147"
         style="stop-color:#FAFAFA"
         id="stop49" />
      <stop
         offset="0.30111277"
         style="stop-color:#FFFFFF"
         id="stop51" />
      <stop
         offset="0.5313"
         style="stop-color:#FAFAFA"
         id="stop53" />
      <stop
         offset="0.8449"
         style="stop-color:#EBECEC"
         id="stop55" />
      <stop
         offset="1"
         style="stop-color:#E1E2E3"
         id="stop57" />
    </radialGradient>
    <filter
       inkscape:collect="always"
       x="-0.19200002"
       width="1.3839999"
       y="-0.19199999"
       height="1.3839999"
       id="filter6697">
      <feGaussianBlur
         inkscape:collect="always"
         stdDeviation="1.9447689"
         id="feGaussianBlur6699" />
    </filter>
    <clipPath
       clipPathUnits="userSpaceOnUse"
       id="clipPath7084">
      <path
         style="fill:#000000;fill-opacity:1;fill-rule:evenodd;stroke:none;stroke-width:1px;stroke-linecap:butt;stroke-linejoin:miter;stroke-opacity:1"
         d="M 72,88 L 40,120 L 32,120 L 32,80 L 72,80 L 72,88 z"
         id="path7086" />
    </clipPath>
    <radialGradient
       inkscape:collect="always"
       xlink:href="#XMLID_8_"
       id="radialGradient9437"
       gradientUnits="userSpaceOnUse"
       gradientTransform="matrix(0.9361702,0,0,0.9428661,4.085106,3.7642086)"
       cx="102"
       cy="112.3047"
       r="139.55859" />
    <linearGradient
       inkscape:collect="always"
       xlink:href="#linearGradient10207"
       id="linearGradient10213"
       x1="98.617439"
       y1="106.41443"
       x2="91.228737"
       y2="99.254974"
       gradientUnits="userSpaceOnUse" />
  </defs>
  <sodipodi:namedview
     id="base"
     pagecolor="#ffffff"
     bordercolor="#666666"
     borderopacity="1.0"
     inkscape:pageopacity="0.0"
     inkscape:pageshadow="2"
     inkscape:zoom="4"
     inkscape:cx="64"
     inkscape:cy="75.798844"
     inkscape:document-units="px"
     inkscape:current-layer="g2731"
     width="128px"
     height="128px"
     gridspacingx="4px"
     gridspacingy="4px"
     gridempspacing="2"
     showgrid="true"
     inkscape:grid-points="true"
     showguides="true"
     inkscape:guide-bbox="true"
     inkscape:window-width="1016"
     inkscape:window-height="692"
     inkscape:window-x="0"
     inkscape:window-y="0" />
  <metadata
     id="metadata2611">
    <rdf:RDF>
      <cc:Work
         rdf:about="">
        <dc:format>image/svg+xml</dc:format>
        <dc:type
           rdf:resource="http://purl.org/dc/dcmitype/StillImage" />
      </cc:Work>
    </rdf:RDF>
  </metadata>
  <g
     inkscape:label="Livello 1"
     inkscape:groupmode="layer"
     id="layer1">
    <g
       id="g2485">
      <path
         sodipodi:nodetypes="cccccc"
         id="path3176"
         d="M 16.000001,8 L 16,120 C 16,120 79.146418,120 79.146418,120 L 112,87.14642 L 112,8 L 16.000001,8 z"
         style="opacity:0.1;fill:none;fill-opacity:1;stroke:#000000;stroke-width:16;stroke-linejoin:round;stroke-miterlimit:4;stroke-dasharray:none;stroke-opacity:1" />
      <path
         style="opacity:0.15;fill:none;fill-opacity:1;stroke:#000000;stroke-width:12;stroke-linejoin:round;stroke-miterlimit:4;stroke-dasharray:none;stroke-opacity:1"
         d="M 16.000001,8 L 16,120 C 16,120 79.146418,120 79.146418,120 L 112,87.14642 L 112,8 L 16.000001,8 z"
         id="path3174"
         sodipodi:nodetypes="cccccc" />
      <path
         sodipodi:nodetypes="cccccc"
         id="path3172"
         d="M 16.000001,8 L 16,120 C 16,120 79.146418,120 79.146418,120 L 112,87.14642 L 112,8 L 16.000001,8 z"
         style="opacity:0.2;fill:none;fill-opacity:1;stroke:#000000;stroke-width:8;stroke-linejoin:round;stroke-miterlimit:4;stroke-dasharray:none;stroke-opacity:1" />
      <path
         style="opacity:0.25;fill:none;fill-opacity:1;stroke:#000000;stroke-width:4;stroke-linejoin:round;stroke-miterlimit:4;stroke-dasharray:none;stroke-opacity:1"
         d="M 16.000001,8 L 16,120 C 16,120 79.146418,120 79.146418,120 L 112,87.14642 L 112,8 L 16.000001,8 z"
         id="path2789"
         sodipodi:nodetypes="cccccc" />
    </g>
    <path
       style="fill:#ffffff;fill-opacity:1"
       d="M 16.000001,8 L 16,120 C 16,120 79.146418,120 79.146418,120 L 112,87.14642 L 112,8 L 16.000001,8 z"
       id="path34"
       sodipodi:nodetypes="cccccc" />
    <path
       style="fill:url(#radialGradient9437);fill-opacity:1"
       d="M 20.93617,12.250003 C 20.42034,12.250003 20,12.673351 20,13.192869 L 20,115.02241 C 20,115.54287 20.42034,115.96527 20.93617,115.96527 L 76.331232,115.96527 C 76.577445,115.96527 78.917571,116.07669 79.0917,115.90038 L 107.7257,86.850213 C 107.90076,86.673896 108,84.317975 108,84.070002 L 108,13.192869 C 108,12.673351 107.5806,12.250003 107.06383,12.250003 L 20.93617,12.250003 z"
       id="path59"
       sodipodi:nodetypes="ccccccccccc" />
    <path
       d="M 41.879531,115.98249 C 41.879531,115.98249 66.18914,91.672876 66.18914,91.672876 C 66.18914,91.672876 56.836,94.586 46.586,94.586 C 46.586,104.836 41.879531,115.98249 41.879531,115.98249 z"
       id="path5540"
       style="opacity:0.4;fill:#000000;fill-opacity:1;filter:url(#filter6697)"
       sodipodi:nodetypes="cccc"
       clip-path="url(#clipPath7084)"
       transform="translate(40,0)" />
    <path
       style="fill:url(#linearGradient10213);fill-opacity:1"
       id="path14523"
       d="M 79.172,120 C 79.172,120 91.086,110.086 96.586,104.586 C 102.086,99.086 112,87.172 112,87.172 C 112,87.172 98.25,96 88,96 C 88,106.25 79.172,120 79.172,120 z"
       sodipodi:nodetypes="csccc" />
    <g
       id="g2731"
       transform="translate(1.5e-6,5.9999999e-7)">
      <g
         transform="matrix(1.3333335,0,0,1.3333335,-20.533345,-21.33334)"
         id="g2410">
        <path
           sodipodi:type="arc"
           style="opacity:0.6;fill:url(#radialGradient2425);fill-opacity:1;fill-rule:evenodd;stroke:none;stroke-width:4;stroke-linecap:round;stroke-linejoin:round;stroke-miterlimit:4;stroke-dasharray:none;stroke-opacity:1"
           id="path2268"
           sodipodi:cx="45.43161"
           sodipodi:cy="111.20621"
           sodipodi:rx="33.764351"
           sodipodi:ry="9.0156116"
           d="M 79.195961 111.20621 A 33.764351 9.0156116 0 1 1  11.667259,111.20621 A 33.764351 9.0156116 0 1 1  79.195961 111.20621 z"
           transform="matrix(0.3639341,0,0,-0.3036053,44.140371,119.0256)" />
        <g
           id="g25113"
           transform="translate(-1.1999992,0)">
          <path
             sodipodi:nodetypes="ccccc"
             id="polygon26"
             d="M 67.586485,40.000001 L 69.986485,40 L 69.986485,78.4 L 67.586485,76.369764 L 67.586485,40.000001 z "
             style="fill:url(#linearGradient2427)" />
          <path
             transform="matrix(0.6,0,0,-0.3952117,41.716285,77.631714)"
             style="opacity:0.7;fill:url(#linearGradient2429);fill-opacity:1;filter:url(#filter5551)"
             id="path28"
             d="M 43.117,3 C 43.117,8.489 43.117,89.342 43.117,93.657 C 43.93,93.861 44.122,93.909 45.117,94.157 C 45.117,87.29 45.117,8.41 45.117,3 C 44.18,3 44.055,3 43.117,3 z " />
          <path
             sodipodi:nodetypes="cscccc"
             style="opacity:0.3;fill:url(#linearGradient2431);fill-opacity:1"
             id="path30"
             d="M 69.986485,72.035405 C 69.472285,71.308949 68.861785,71.368293 68.160385,70.805749 C 67.971984,70.654778 67.779985,70.516029 67.586485,70.384829 L 67.586485,76.675986 L 69.986485,78.665816 L 69.986485,72.035405 z " />
          <g
             transform="matrix(0.6263725,-7.539096e-2,7.38366e-2,0.5955729,21.033533,31.284866)"
             id="g4907">
            <path
               style="fill:url(#linearGradient2433);fill-opacity:1"
               id="path45"
               d="M 37.422745,90.448873 C 39.094769,95.838112 47.227793,98.705202 55.587915,96.853383 C 63.948679,95.001015 69.368766,89.130492 67.697385,83.741249 C 66.02536,78.352554 57.892979,75.48492 49.532858,77.337284 C 41.172737,79.189648 35.750721,85.060176 37.422745,90.448873 z " />
            <path
               style="opacity:0.9;fill:url(#linearGradient2435);fill-opacity:1;filter:url(#filter6116)"
               id="path49"
               d="M 43.576,95.141 C 41.685,87.924 31.358,84.38 20.508,87.226 C 9.659,90.072 2.397,98.231 4.288,105.45 C 5.392,109.668 9.388,112.616 14.675,113.783 C 11.444,112.132 9.023,109.457 8.13,106.047 C 6.226,98.778 11.933,90.983 20.878,88.635 C 29.823,86.288 38.619,90.279 40.523,97.547 C 41.417,100.957 40.618,104.478 38.612,107.503 C 42.646,103.891 44.681,99.358 43.576,95.141 z "
               transform="matrix(0.686105,0,0,0.5432152,36.321363,32.23032)" />
            <path
               d="M 34.447549,87.550082 C 26.821174,91.714578 22.351297,97.864018 24.881162,100.7108 C 25.981924,101.94913 28.11253,102.24758 29.704981,102.27971 C 33.829576,102.36316 39.151934,100.85171 43.939512,98.237452 C 51.565138,94.073903 56.035552,87.922908 53.504726,85.076463 C 52.403963,83.838127 50.27336,83.539682 48.680904,83.507544 C 44.55556,83.425047 39.235126,84.935827 34.447549,87.550082 z "
               id="path70"
               style="opacity:0.8;fill:url(#radialGradient2437);fill-opacity:1;filter:url(#filter5558)"
               transform="matrix(0.7077814,0,0,0.6148065,20.645198,26.252134)" />
            <path
               d="M 46.87479,109 C 39.70279,110.882 34.28679,109.601 34.94979,112.134 C 35.22279,113.179 36.25179,113.966 37.06579,114.442 C 39.30679,115.753 43.49679,116.681 48.53679,115.359 C 55.70779,113.477 59.46279,108.399 58.79979,105.867 C 58.52679,104.821 57.49779,104.035 56.68379,103.558 C 54.44279,102.248 51.91379,107.678 46.87479,109 z "
               id="path72"
               style="opacity:0.6;fill:url(#radialGradient2439);fill-opacity:1;filter:url(#filter2844)"
               transform="matrix(0.7114081,0.1240747,-0.1849201,0.7638422,40.01216,0.650991)" />
            <path
               style="opacity:0.8;fill:url(#linearGradient2441);fill-opacity:1;filter:url(#filter3619)"
               d="M 87.84375,97.625 C 87.195821,106.01465 79.50551,114.10563 68.59375,116.96875 C 55.59875,120.37775 42.942749,115.1085 40.34375,105.1875 C 40.110816,104.29842 39.966685,103.39736 39.90625,102.5 C 39.798559,104.06171 39.937656,105.6375 40.34375,107.1875 C 42.942749,117.1085 55.59875,122.37775 68.59375,118.96875 C 80.371374,115.87844 88.376529,106.70048 87.84375,97.625 z "
               id="path2338"
               clip-path="none"
               transform="matrix(0.6181529,0,0,0.5432152,13.113494,32.23032)" />
          </g>
          <path
             sodipodi:nodetypes="ccccc"
             d="M 73.871152,46.90416 C 71.819556,44.453604 70.783652,41.46926 70.021376,40 L 69.986485,49.833136 C 83.867518,55.675911 74.901401,71.2 74.901401,71.2 C 85.155759,60.637758 75.759466,49.159448 73.871152,46.90416 z "
             style="fill:url(#linearGradient2443);fill-opacity:1"
             id="path29" />
          <path
             transform="matrix(0.6,0,0,0.6,29.186485,28)"
             d="M 73.283992,31.834433 C 70.159765,28.004069 69.501081,25.426769 68.767471,24.347899 C 68.767471,36.307872 72.659648,36.165521 69.085889,35.47874 C 75.426749,38.7397 80.299771,43.233118 82.158445,48 C 80.073753,40.152595 75.917481,35.062926 73.283992,31.834433 z "
             style="fill:url(#radialGradient2445);filter:url(#filter6448)"
             id="path90" />
        </g>
      </g>
      <g
         transform="matrix(0.7050322,0,0,0.727802,-15.380637,0.6812254)"
         id="use24931">
        <g
           id="g24935"
           transform="translate(76,24)"
           style="fill:url(#linearGradient2693);fill-opacity:1">
          <radialGradient
             gradientUnits="userSpaceOnUse"
             r="66.000099"
             cy="25"
             cx="60"
             id="radialGradient24937"
             style="fill-opacity:1.0;fill:url(#linearGradient8534)">
            <stop
               id="stop24939"
               style="stop-color:#77DE6C;fill-opacity:1.0;fill:url(#linearGradient8534)"
               offset="0" />
            <stop
               id="stop24941"
               style="stop-color:#0A8000;fill-opacity:1.0;fill:url(#linearGradient8534)"
               offset="1" />
          </radialGradient>
        </g>
        <g
           id="g24943"
           transform="translate(76,24)"
           style="opacity:0.8;fill:url(#linearGradient2695);fill-opacity:1">
          <radialGradient
             gradientUnits="userSpaceOnUse"
             r="66"
             cy="25"
             cx="60"
             id="radialGradient24945"
             style="fill-opacity:1.0;fill:url(#linearGradient8536)">
            <stop
               id="stop24947"
               style="stop-color:#77DE6C;fill-opacity:1.0;fill:url(#linearGradient8536)"
               offset="0" />
            <stop
               id="stop24949"
               style="stop-color:#0A8000;fill-opacity:1.0;fill:url(#linearGradient8536)"
               offset="1" />
          </radialGradient>
          <path
             style="fill:url(#linearGradient24967);fill-opacity:1"
             id="path24951"
             d="M 76.306,44.035 C 81.057,49.225 83.67,55.96 83.67,63 C 83.67,70.041 81.057,76.775 76.308,81.965 L 80.077,85.414 C 85.69,79.281 88.779,71.32 88.779,63 C 88.779,54.68 85.69,46.719 80.076,40.585 L 76.306,44.035 z " />
        </g>
        <g
           id="g24953"
           transform="translate(76,24)"
           style="opacity:0.6;fill:url(#linearGradient2697);fill-opacity:1">
          <radialGradient
             gradientUnits="userSpaceOnUse"
             r="65.999802"
             cy="25"
             cx="60"
             id="radialGradient24955"
             style="fill-opacity:1.0;fill:url(#linearGradient8538)">
            <stop
               id="stop24957"
               style="stop-color:#77DE6C;fill-opacity:1.0;fill:url(#linearGradient8538)"
               offset="0" />
            <stop
               id="stop24959"
               style="stop-color:#0A8000;fill-opacity:1.0;fill:url(#linearGradient8538)"
               offset="1" />
          </radialGradient>
          <path
             style="fill:url(#linearGradient24971);fill-opacity:1"
             id="path24961"
             d="M 83.849,37.137 C 90.323,44.215 93.89,53.399 93.89,63 C 93.89,72.602 90.324,81.785 83.847,88.861 L 87.618,92.312 C 94.958,84.291 99,73.881 99,63 C 99,52.119 94.958,41.709 87.619,33.688 L 83.849,37.137 z " />
        </g>
      </g>
      <use
         height="128"
         width="128"
         transform="matrix(-1,0,0,1,127.99999,0)"
         id="use24973"
         xlink:href="#use24931"
         y="0"
         x="0" />
      <use
         height="128"
         width="128"
         transform="matrix(0,1,-1,0,128,-7.9999979)"
         id="use25095"
         xlink:href="#use24973"
         y="0"
         x="0" />
      <use
         height="128"
         width="128"
         transform="matrix(1,0,0,-1,0,128)"
         id="use25097"
         xlink:href="#use25095"
         y="0"
         x="0" />
    </g>
  </g>
</svg>
