<?xml version="1.0" encoding="UTF-8" standalone="no"?>
<!-- Created with Inkscape (http://www.inkscape.org/) -->
<svg
   xmlns:dc="http://purl.org/dc/elements/1.1/"
   xmlns:cc="http://web.resource.org/cc/"
   xmlns:rdf="http://www.w3.org/1999/02/22-rdf-syntax-ns#"
   xmlns:svg="http://www.w3.org/2000/svg"
   xmlns="http://www.w3.org/2000/svg"
   xmlns:xlink="http://www.w3.org/1999/xlink"
   xmlns:sodipodi="http://sodipodi.sourceforge.net/DTD/sodipodi-0.dtd"
   xmlns:inkscape="http://www.inkscape.org/namespaces/inkscape"
   width="128"
   height="128"
   id="svg2606"
   sodipodi:version="0.32"
   inkscape:version="0.45.1"
   version="1.0"
   sodipodi:docname="text-x-csharp.svg"
   inkscape:output_extension="org.inkscape.output.svg.inkscape"
   sodipodi:docbase="/home/david/sandbox">
  <defs
     id="defs2608">
    <linearGradient
       id="linearGradient10207">
      <stop
         style="stop-color:#a2a2a2;stop-opacity:1;"
         offset="0"
         id="stop10209" />
      <stop
         style="stop-color:#ffffff;stop-opacity:1;"
         offset="1"
         id="stop10211" />
    </linearGradient>
    <radialGradient
       id="XMLID_8_"
       cx="102"
       cy="112.3047"
       r="139.55859"
       gradientUnits="userSpaceOnUse">
      <stop
         offset="0"
         style="stop-color:#b7b8b9;stop-opacity:1;"
         id="stop41" />
      <stop
         offset="0.18851049"
         style="stop-color:#ECECEC"
         id="stop47" />
      <stop
         offset="0.25718147"
         style="stop-color:#FAFAFA"
         id="stop49" />
      <stop
         offset="0.30111277"
         style="stop-color:#FFFFFF"
         id="stop51" />
      <stop
         offset="0.5313"
         style="stop-color:#FAFAFA"
         id="stop53" />
      <stop
         offset="0.8449"
         style="stop-color:#EBECEC"
         id="stop55" />
      <stop
         offset="1"
         style="stop-color:#E1E2E3"
         id="stop57" />
    </radialGradient>
    <filter
       inkscape:collect="always"
       x="-0.19200002"
       width="1.3839999"
       y="-0.19199999"
       height="1.3839999"
       id="filter6697">
      <feGaussianBlur
         inkscape:collect="always"
         stdDeviation="1.9447689"
         id="feGaussianBlur6699" />
    </filter>
    <clipPath
       clipPathUnits="userSpaceOnUse"
       id="clipPath7084">
      <path
         style="fill:#000000;fill-opacity:1;fill-rule:evenodd;stroke:none;stroke-width:1px;stroke-linecap:butt;stroke-linejoin:miter;stroke-opacity:1"
         d="M 72,88 L 40,120 L 32,120 L 32,80 L 72,80 L 72,88 z"
         id="path7086" />
    </clipPath>
    <radialGradient
       inkscape:collect="always"
       xlink:href="#XMLID_8_"
       id="radialGradient9437"
       gradientUnits="userSpaceOnUse"
       gradientTransform="matrix(0.9361702,0,0,0.9428661,4.085106,3.7642086)"
       cx="102"
       cy="112.3047"
       r="139.55859" />
    <linearGradient
       inkscape:collect="always"
       xlink:href="#linearGradient10207"
       id="linearGradient10213"
       x1="98.617439"
       y1="106.41443"
       x2="91.228737"
       y2="99.254974"
       gradientUnits="userSpaceOnUse" />
  </defs>
  <sodipodi:namedview
     id="base"
     pagecolor="#ffffff"
     bordercolor="#666666"
     borderopacity="1.0"
     inkscape:pageopacity="0.0"
     inkscape:pageshadow="2"
     inkscape:zoom="4"
     inkscape:cx="64"
     inkscape:cy="75.798844"
     inkscape:document-units="px"
     inkscape:current-layer="layer1"
     width="128px"
     height="128px"
     gridspacingx="4px"
     gridspacingy="4px"
     gridempspacing="2"
     showgrid="true"
     inkscape:grid-points="true"
     showguides="true"
     inkscape:guide-bbox="true"
     inkscape:window-width="1016"
     inkscape:window-height="692"
     inkscape:window-x="2"
     inkscape:window-y="2"
     gridtolerance="10000" />
  <metadata
     id="metadata2611">
    <rdf:RDF>
      <cc:Work
         rdf:about="">
        <dc:format>image/svg+xml</dc:format>
        <dc:type
           rdf:resource="http://purl.org/dc/dcmitype/StillImage" />
      </cc:Work>
    </rdf:RDF>
  </metadata>
  <g
     inkscape:label="Livello 1"
     inkscape:groupmode="layer"
     id="layer1">
    <g
       id="g2485">
      <path
         sodipodi:nodetypes="cccccc"
         id="path3176"
         d="M 16.000001,8 L 16,120 C 16,120 79.146418,120 79.146418,120 L 112,87.14642 L 112,8 L 16.000001,8 z"
         style="opacity:0.1;fill:none;fill-opacity:1;stroke:#000000;stroke-width:16;stroke-linejoin:round;stroke-miterlimit:4;stroke-dasharray:none;stroke-opacity:1" />
      <path
         style="opacity:0.15;fill:none;fill-opacity:1;stroke:#000000;stroke-width:12;stroke-linejoin:round;stroke-miterlimit:4;stroke-dasharray:none;stroke-opacity:1"
         d="M 16.000001,8 L 16,120 C 16,120 79.146418,120 79.146418,120 L 112,87.14642 L 112,8 L 16.000001,8 z"
         id="path3174"
         sodipodi:nodetypes="cccccc" />
      <path
         sodipodi:nodetypes="cccccc"
         id="path3172"
         d="M 16.000001,8 L 16,120 C 16,120 79.146418,120 79.146418,120 L 112,87.14642 L 112,8 L 16.000001,8 z"
         style="opacity:0.2;fill:none;fill-opacity:1;stroke:#000000;stroke-width:8;stroke-linejoin:round;stroke-miterlimit:4;stroke-dasharray:none;stroke-opacity:1" />
      <path
         style="opacity:0.25;fill:none;fill-opacity:1;stroke:#000000;stroke-width:4;stroke-linejoin:round;stroke-miterlimit:4;stroke-dasharray:none;stroke-opacity:1"
         d="M 16.000001,8 L 16,120 C 16,120 79.146418,120 79.146418,120 L 112,87.14642 L 112,8 L 16.000001,8 z"
         id="path2789"
         sodipodi:nodetypes="cccccc" />
    </g>
    <path
       style="fill:#ffffff;fill-opacity:1"
       d="M 16.000001,8 L 16,120 C 16,120 79.146418,120 79.146418,120 L 112,87.14642 L 112,8 L 16.000001,8 z"
       id="path34"
       sodipodi:nodetypes="cccccc" />
    <path
       style="fill:url(#radialGradient9437);fill-opacity:1"
       d="M 20.93617,12.250003 C 20.42034,12.250003 20,12.673351 20,13.192869 L 20,115.02241 C 20,115.54287 20.42034,115.96527 20.93617,115.96527 L 76.331232,115.96527 C 76.577445,115.96527 78.917571,116.07669 79.0917,115.90038 L 107.7257,86.850213 C 107.90076,86.673896 108,84.317975 108,84.070002 L 108,13.192869 C 108,12.673351 107.5806,12.250003 107.06383,12.250003 L 20.93617,12.250003 z"
       id="path59"
       sodipodi:nodetypes="ccccccccccc" />
    <path
       d="M 41.879531,115.98249 C 41.879531,115.98249 66.18914,91.672876 66.18914,91.672876 C 66.18914,91.672876 56.836,94.586 46.586,94.586 C 46.586,104.836 41.879531,115.98249 41.879531,115.98249 z"
       id="path5540"
       style="opacity:0.4;fill:#000000;fill-opacity:1;filter:url(#filter6697)"
       sodipodi:nodetypes="cccc"
       clip-path="url(#clipPath7084)"
       transform="translate(40,0)" />
    <path
       style="fill:url(#linearGradient10213);fill-opacity:1"
       id="path14523"
       d="M 79.172,120 C 79.172,120 91.086,110.086 96.586,104.586 C 102.086,99.086 112,87.172 112,87.172 C 112,87.172 98.25,96 88,96 C 88,106.25 79.172,120 79.172,120 z"
       sodipodi:nodetypes="csccc" />
    <path
       style="font-size:5.95348835px;font-style:italic;font-weight:bold;line-height:125%;fill:#8f6b32;fill-opacity:1;stroke:none;stroke-width:1px;stroke-linecap:butt;stroke-linejoin:miter;stroke-opacity:1;font-family:Bitstream Vera Sans"
       d="M 47.385119,88 C 43.700168,88 40.407721,87.465118 37.507768,86.395349 C 34.629586,85.325586 32.187507,83.779076 30.181521,81.755814 C 28.175518,79.732567 26.638316,77.267453 25.56991,74.360466 C 24.5233,71.43025 23.999998,68.127927 24,64.453488 C 23.999998,60.26747 24.5233,56.639566 25.56991,53.569768 C 26.638316,50.500036 28.164616,47.965154 30.148814,45.965117 C 32.154799,43.941903 34.59688,42.441906 37.475062,41.465115 C 40.375016,40.488418 43.667462,40.000046 47.352412,40 C 50.470398,40.000046 53.348564,40.244232 55.986918,40.732557 C 58.647004,41.19772 61.034573,41.732604 63.149632,42.337209 L 63.345871,53.569768 L 60.40229,53.569768 L 59.486509,46.802326 C 58.1128,45.802367 56.564696,45.034924 54.842192,44.499999 C 53.119619,43.941903 51.320766,43.662834 49.445627,43.66279 C 47.156148,43.662834 45.106543,44.023298 43.296812,44.744185 C 41.487033,45.441902 39.949832,46.60469 38.685201,48.232558 C 37.442339,49.860503 36.493852,51.988408 35.839739,54.616278 C 35.185594,57.244216 34.858531,60.4884 34.858544,64.348838 C 34.858531,67.744205 35.185594,70.697693 35.839739,73.209303 C 36.493852,75.720942 37.431437,77.802336 38.652493,79.453489 C 39.873516,81.104657 41.36711,82.348843 43.133279,83.186048 C 44.921208,84.000004 46.938104,84.406981 49.183974,84.406978 C 51.64783,84.406981 53.795552,84.058145 55.627147,83.360465 C 57.480476,82.662797 58.930461,81.837215 59.977106,80.883722 L 61.023712,73.209303 L 64,73.209303 L 63.803762,85.06977 C 62.866134,85.465118 61.754117,85.837211 60.467702,86.186048 C 59.203014,86.534886 57.840247,86.84884 56.379396,87.127907 C 54.940278,87.383721 53.446683,87.593023 51.89861,87.755816 C 50.350474,87.918606 48.845979,88 47.385119,88"
       id="path2329" />
    <path
       style="fill:#8f6b32;fill-opacity:1;fill-rule:evenodd;stroke:none;stroke-width:1px;stroke-linecap:butt;stroke-linejoin:miter;stroke-opacity:1"
       d="M 80,40 L 78.40625,48 L 68,48 L 68,56 L 76.78125,56 L 75.1875,64 L 68,64 L 68,72 L 73.59375,72 L 72,80 L 80,80 L 81.59375,72 L 89.59375,72 L 88,80 L 96,80 L 97.59375,72 L 108,72 L 108,64 L 99.1875,64 L 100.78125,56 L 108,56 L 108,48 L 102.40625,48 L 104,40 L 96,40 L 94.40625,48 L 86.40625,48 L 88,40 L 80,40 z M 84.78125,56 L 92.78125,56 L 91.1875,64 L 83.1875,64 L 84.78125,56 z "
       id="path3453" />
  </g>
</svg>
