<?xml version="1.0" encoding="UTF-8" standalone="no"?>
<!-- Created with Inkscape (http://www.inkscape.org/) -->
<svg
   xmlns:dc="http://purl.org/dc/elements/1.1/"
   xmlns:cc="http://web.resource.org/cc/"
   xmlns:rdf="http://www.w3.org/1999/02/22-rdf-syntax-ns#"
   xmlns:svg="http://www.w3.org/2000/svg"
   xmlns="http://www.w3.org/2000/svg"
   xmlns:xlink="http://www.w3.org/1999/xlink"
   xmlns:sodipodi="http://sodipodi.sourceforge.net/DTD/sodipodi-0.dtd"
   xmlns:inkscape="http://www.inkscape.org/namespaces/inkscape"
   width="128"
   height="128"
   id="svg2606"
   sodipodi:version="0.32"
   inkscape:version="0.45+devel"
   version="1.0"
   sodipodi:docname="vectorgfx.svg"
   inkscape:output_extension="org.inkscape.output.svg.inkscape"
   sodipodi:docbase="/home/david/svn/oxygen/scalable/mimetypes/small/16x16">
  <defs
     id="defs2608">
    <linearGradient
       id="XMLID_6_"
       gradientUnits="userSpaceOnUse"
       x1="95.695297"
       y1="67.5205"
       x2="43.148399"
       y2="67.5205">
      <stop
         offset="0"
         style="stop-color:#EDE0FF"
         id="stop4013" />
      <stop
         offset="0.48941913"
         style="stop-color:#8000FF"
         id="stop4015" />
    </linearGradient>
    <linearGradient
       inkscape:collect="always"
       xlink:href="#XMLID_6_"
       id="linearGradient2241"
       gradientUnits="userSpaceOnUse"
       gradientTransform="translate(72,0)"
       x1="19"
       y1="73.25"
       x2="-39.48962"
       y2="26.5" />
    <linearGradient
       id="linearGradient10207">
      <stop
         style="stop-color:#a2a2a2;stop-opacity:1;"
         offset="0"
         id="stop10209" />
      <stop
         style="stop-color:#ffffff;stop-opacity:1;"
         offset="1"
         id="stop10211" />
    </linearGradient>
    <linearGradient
       id="XMLID_12_"
       gradientUnits="userSpaceOnUse"
       x1="96"
       y1="104"
       x2="88.000198"
       y2="96.000198">
      <stop
         offset="0"
         style="stop-color:#888A85"
         id="stop83" />
      <stop
         offset="0.0072"
         style="stop-color:#8C8E89"
         id="stop85" />
      <stop
         offset="0.0673"
         style="stop-color:#ABACA9"
         id="stop87" />
      <stop
         offset="0.1347"
         style="stop-color:#C5C6C4"
         id="stop89" />
      <stop
         offset="0.2652576"
         style="stop-color:#DBDBDA"
         id="stop91" />
      <stop
         offset="0.37646064"
         style="stop-color:#EBEBEB"
         id="stop93" />
      <stop
         offset="0.48740286"
         style="stop-color:#F7F7F6"
         id="stop95" />
      <stop
         offset="0.6324091"
         style="stop-color:#FDFDFD"
         id="stop97" />
      <stop
         offset="1"
         style="stop-color:#FFFFFF"
         id="stop99" />
    </linearGradient>
    <radialGradient
       id="XMLID_8_"
       cx="102"
       cy="112.3047"
       r="139.55859"
       gradientUnits="userSpaceOnUse">
      <stop
         offset="0"
         style="stop-color:#b7b8b9;stop-opacity:1;"
         id="stop41" />
      <stop
         offset="0.18851049"
         style="stop-color:#ECECEC"
         id="stop47" />
      <stop
         offset="0.25718147"
         style="stop-color:#FAFAFA"
         id="stop49" />
      <stop
         offset="0.30111277"
         style="stop-color:#FFFFFF"
         id="stop51" />
      <stop
         offset="0.5313"
         style="stop-color:#FAFAFA"
         id="stop53" />
      <stop
         offset="0.8449"
         style="stop-color:#EBECEC"
         id="stop55" />
      <stop
         offset="1"
         style="stop-color:#E1E2E3"
         id="stop57" />
    </radialGradient>
    <filter
       inkscape:collect="always"
       x="-0.19200002"
       width="1.3839999"
       y="-0.19199999"
       height="1.3839999"
       id="filter6697">
      <feGaussianBlur
         inkscape:collect="always"
         stdDeviation="1.9447689"
         id="feGaussianBlur6699" />
    </filter>
    <clipPath
       clipPathUnits="userSpaceOnUse"
       id="clipPath7084">
      <path
         style="fill:#000000;fill-opacity:1;fill-rule:evenodd;stroke:none;stroke-width:1px;stroke-linecap:butt;stroke-linejoin:miter;stroke-opacity:1"
         d="M 72,88 L 40,120 L 32,120 L 32,80 L 72,80 L 72,88 z"
         id="path7086" />
    </clipPath>
    <radialGradient
       inkscape:collect="always"
       xlink:href="#XMLID_8_"
       id="radialGradient9437"
       gradientUnits="userSpaceOnUse"
       gradientTransform="matrix(0.9361702,0,0,0.9428661,4.085106,3.7642086)"
       cx="102"
       cy="112.3047"
       r="139.55859" />
    <linearGradient
       inkscape:collect="always"
       xlink:href="#linearGradient10207"
       id="linearGradient10213"
       x1="98.617439"
       y1="106.41443"
       x2="91.228737"
       y2="99.254974"
       gradientUnits="userSpaceOnUse" />
  </defs>
  <sodipodi:namedview
     id="base"
     pagecolor="#ffffff"
     bordercolor="#666666"
     borderopacity="1.0"
     inkscape:pageopacity="0.0"
     inkscape:pageshadow="2"
     inkscape:zoom="4"
     inkscape:cx="64"
     inkscape:cy="75.798844"
     inkscape:document-units="px"
     inkscape:current-layer="layer1"
     width="128px"
     height="128px"
     gridspacingx="4px"
     gridspacingy="4px"
     gridempspacing="2"
     showgrid="true"
     inkscape:grid-points="true"
     showguides="true"
     inkscape:guide-bbox="true"
     inkscape:window-width="1016"
     inkscape:window-height="692"
     inkscape:window-x="0"
     inkscape:window-y="0" />
  <metadata
     id="metadata2611">
    <rdf:RDF>
      <cc:Work
         rdf:about="">
        <dc:format>image/svg+xml</dc:format>
        <dc:type
           rdf:resource="http://purl.org/dc/dcmitype/StillImage" />
      </cc:Work>
    </rdf:RDF>
  </metadata>
  <g
     inkscape:label="Livello 1"
     inkscape:groupmode="layer"
     id="layer1">
    <path
       style="opacity:0.1;fill:none;fill-opacity:1;stroke:#000000;stroke-width:16;stroke-linejoin:round;stroke-miterlimit:4;stroke-dasharray:none;stroke-opacity:1"
       d="M 16.000001,8 L 16,120 C 16,120 79.146418,120 79.146418,120 L 112,87.14642 L 112,8 L 16.000001,8 z"
       id="path3176"
       sodipodi:nodetypes="cccccc" />
    <path
       sodipodi:nodetypes="cccccc"
       id="path3174"
       d="M 16.000001,8 L 16,120 C 16,120 79.146418,120 79.146418,120 L 112,87.14642 L 112,8 L 16.000001,8 z"
       style="opacity:0.15;fill:none;fill-opacity:1;stroke:#000000;stroke-width:12;stroke-linejoin:round;stroke-miterlimit:4;stroke-dasharray:none;stroke-opacity:1" />
    <path
       style="opacity:0.2;fill:none;fill-opacity:1;stroke:#000000;stroke-width:8;stroke-linejoin:round;stroke-miterlimit:4;stroke-dasharray:none;stroke-opacity:1"
       d="M 16.000001,8 L 16,120 C 16,120 79.146418,120 79.146418,120 L 112,87.14642 L 112,8 L 16.000001,8 z"
       id="path3172"
       sodipodi:nodetypes="cccccc" />
    <path
       sodipodi:nodetypes="cccccc"
       id="path2789"
       d="M 16.000001,8 L 16,120 C 16,120 79.146418,120 79.146418,120 L 112,87.14642 L 112,8 L 16.000001,8 z"
       style="opacity:0.25;fill:none;fill-opacity:1;stroke:#000000;stroke-width:4;stroke-linejoin:round;stroke-miterlimit:4;stroke-dasharray:none;stroke-opacity:1" />
    <path
       style="fill:#ffffff;fill-opacity:1"
       d="M 16.000001,8 L 16,120 C 16,120 79.146418,120 79.146418,120 L 112,87.14642 L 112,8 L 16.000001,8 z"
       id="path34"
       sodipodi:nodetypes="cccccc" />
    <path
       style="fill:url(#radialGradient9437);fill-opacity:1"
       d="M 20.93617,12.250003 C 20.42034,12.250003 20,12.673351 20,13.192869 L 20,115.02241 C 20,115.54287 20.42034,115.96527 20.93617,115.96527 L 76.331232,115.96527 C 76.577445,115.96527 78.917571,116.07669 79.0917,115.90038 L 107.7257,86.850213 C 107.90076,86.673896 108,84.317975 108,84.070002 L 108,13.192869 C 108,12.673351 107.5806,12.250003 107.06383,12.250003 L 20.93617,12.250003 z"
       id="path59"
       sodipodi:nodetypes="ccccccccccc" />
    <path
       d="M 41.879531,115.98249 C 41.879531,115.98249 66.18914,91.672876 66.18914,91.672876 C 66.18914,91.672876 56.836,94.586 46.586,94.586 C 46.586,104.836 41.879531,115.98249 41.879531,115.98249 z"
       id="path5540"
       style="opacity:0.4;fill:#000000;fill-opacity:1;filter:url(#filter6697)"
       sodipodi:nodetypes="cccc"
       clip-path="url(#clipPath7084)"
       transform="translate(40,0)" />
    <path
       style="fill:url(#linearGradient10213);fill-opacity:1"
       id="path14523"
       d="M 79.172,120 C 79.172,120 91.086,110.086 96.586,104.586 C 102.086,99.086 112,87.172 112,87.172 C 112,87.172 98.25,96 88,96 C 88,106.25 79.172,120 79.172,120 z"
       sodipodi:nodetypes="csccc" />
    <g
       id="g2264"
       transform="translate(-1,-2)">
      <path
         sodipodi:nodetypes="cssz"
         id="path2226"
         d="M 44,100 C 44,100 68,100 68,84 C 68,68 36,64 36,48 C 36,28 80,24 100,44"
         style="opacity:0.3;fill:url(#linearGradient2241);fill-opacity:1;fill-rule:evenodd;stroke:none;stroke-width:1px;stroke-linecap:butt;stroke-linejoin:miter;stroke-opacity:1" />
      <rect
         x="40.918003"
         y="98"
         enable-background="new    "
         width="6"
         height="6"
         id="rect4000"
         style="fill:#ffffff" />
      <path
         sodipodi:nodetypes="cc"
         id="path2227"
         d="M 28,68 L 44,20"
         style="fill:none;fill-rule:evenodd;stroke:#8e79a5;stroke-width:1.17241371;stroke-linecap:butt;stroke-linejoin:miter;stroke-miterlimit:4;stroke-dasharray:none;stroke-opacity:1" />
      <circle
         transform="matrix(1.5,0,0,1.5000002,-49.605999,-13.866003)"
         cx="62.403999"
         cy="23.243999"
         r="2"
         id="circle4008"
         sodipodi:cx="62.403999"
         sodipodi:cy="23.243999"
         sodipodi:rx="2"
         sodipodi:ry="2"
         style="fill:#644a9b" />
      <path
         sodipodi:nodetypes="csssc"
         id="circle4010"
         d="M 31,67 C 31,68.656 29.656,70 28,70 C 26.344,70 25,68.656 25,67 C 25,65.344 26.344,64 28,64 C 29.656,64 31,65.344 31,67 z"
         style="fill:#644a9b" />
      <path
         style="fill:none;fill-opacity:1;fill-rule:evenodd;stroke:#5a00b3;stroke-width:2;stroke-linecap:round;stroke-linejoin:miter;stroke-miterlimit:4;stroke-dasharray:none;stroke-opacity:1"
         d="M 44,100 C 44,100 68,100 68,84 C 68,68 36,64 36,48 C 36,28 80,24 100,44"
         id="path5122"
         sodipodi:nodetypes="cssz" />
      <g
         id="g2246">
        <path
           style="fill:#8000ff"
           d="M 94,38 L 94,50 L 106,50 L 106,38 L 94,38 z M 96,40 C 97.227197,39.999999 102.7728,40 104,40 C 104,41.227022 104,46.771382 104,48 C 102.7728,48 97.227197,48 96,48 C 96,46.77297 96,41.227025 96,40 z"
           id="path2225" />
        <path
           id="path2561"
           d="M 96,40 C 97.227197,39.999999 102.7728,40 104,40 C 104,41.227022 104,46.771382 104,48 C 102.7728,48 97.227197,48 96,48 C 96,46.77297 96,41.227025 96,40 z"
           style="opacity:0.8;fill:#e8b7d7;fill-opacity:1" />
      </g>
      <g
         transform="translate(-56,56)"
         id="g2250">
        <path
           id="path2252"
           d="M 94,38 L 94,50 L 106,50 L 106,38 L 94,38 z M 96,40 C 97.227197,39.999999 102.7728,40 104,40 C 104,41.227022 104,46.771382 104,48 C 102.7728,48 97.227197,48 96,48 C 96,46.77297 96,41.227025 96,40 z"
           style="fill:#8000ff" />
        <path
           style="opacity:0.8;fill:#e8b7d7;fill-opacity:1"
           d="M 96,40 C 97.227197,39.999999 102.7728,40 104,40 C 104,41.227022 104,46.771382 104,48 C 102.7728,48 97.227197,48 96,48 C 96,46.77297 96,41.227025 96,40 z"
           id="path2254" />
      </g>
      <g
         id="g2256"
         transform="translate(-64,0)">
        <path
           style="fill:#8000ff"
           d="M 94,38 L 94,50 L 106,50 L 106,38 L 94,38 z M 96,40 C 97.227197,39.999999 102.7728,40 104,40 C 104,41.227022 104,46.771382 104,48 C 102.7728,48 97.227197,48 96,48 C 96,46.77297 96,41.227025 96,40 z"
           id="path2258" />
        <path
           id="path2260"
           d="M 96,40 C 97.227197,39.999999 102.7728,40 104,40 C 104,41.227022 104,46.771382 104,48 C 102.7728,48 97.227197,48 96,48 C 96,46.77297 96,41.227025 96,40 z"
           style="opacity:0.8;fill:#8000ff;fill-opacity:1;stroke:none" />
      </g>
    </g>
  </g>
</svg>
