<?xml version="1.0" encoding="UTF-8" standalone="no"?>
<!-- Created with Inkscape (http://www.inkscape.org/) -->
<svg
   xmlns:dc="http://purl.org/dc/elements/1.1/"
   xmlns:cc="http://web.resource.org/cc/"
   xmlns:rdf="http://www.w3.org/1999/02/22-rdf-syntax-ns#"
   xmlns:svg="http://www.w3.org/2000/svg"
   xmlns="http://www.w3.org/2000/svg"
   xmlns:xlink="http://www.w3.org/1999/xlink"
   xmlns:sodipodi="http://sodipodi.sourceforge.net/DTD/sodipodi-0.dtd"
   xmlns:inkscape="http://www.inkscape.org/namespaces/inkscape"
   width="128"
   height="128"
   id="svg1307"
   sodipodi:version="0.32"
   inkscape:version="0.44"
   version="1.0"
   sodipodi:docbase="/home/pinheiro/artwork/Oxygen/theme/svg/apps"
   sodipodi:docname="kaffeine.svg">
  <defs
     id="defs1309">
    <linearGradient
       inkscape:collect="always"
       id="linearGradient2866">
      <stop
         style="stop-color:white;stop-opacity:1;"
         offset="0"
         id="stop2868" />
      <stop
         style="stop-color:white;stop-opacity:0;"
         offset="1"
         id="stop2870" />
    </linearGradient>
    <linearGradient
       inkscape:collect="always"
       id="linearGradient1970">
      <stop
         style="stop-color:#888a85;stop-opacity:1;"
         offset="0"
         id="stop1972" />
      <stop
         style="stop-color:#2e3436;stop-opacity:0"
         offset="1"
         id="stop1974" />
    </linearGradient>
    <linearGradient
       id="linearGradient4219">
      <stop
         id="stop4221"
         offset="0"
         style="stop-color:white;stop-opacity:0;" />
      <stop
         id="stop4223"
         offset="1"
         style="stop-color:white;stop-opacity:0.82310468;" />
    </linearGradient>
    <linearGradient
       inkscape:collect="always"
       id="linearGradient4207">
      <stop
         style="stop-color:black;stop-opacity:1;"
         offset="0"
         id="stop4209" />
      <stop
         style="stop-color:black;stop-opacity:0;"
         offset="1"
         id="stop4211" />
    </linearGradient>
    <linearGradient
       inkscape:collect="always"
       id="linearGradient3312">
      <stop
         style="stop-color:black;stop-opacity:1;"
         offset="0"
         id="stop3314" />
      <stop
         style="stop-color:black;stop-opacity:0;"
         offset="1"
         id="stop3316" />
    </linearGradient>
    <linearGradient
       inkscape:collect="always"
       id="linearGradient2982">
      <stop
         style="stop-color:black;stop-opacity:1;"
         offset="0"
         id="stop2984" />
      <stop
         style="stop-color:black;stop-opacity:0;"
         offset="1"
         id="stop2986" />
    </linearGradient>
    <linearGradient
       id="linearGradient2958">
      <stop
         id="stop2960"
         offset="0"
         style="stop-color:white;stop-opacity:0;" />
      <stop
         style="stop-color:white;stop-opacity:0;"
         offset="0.86263734"
         id="stop2962" />
      <stop
         id="stop2964"
         offset="1"
         style="stop-color:white;stop-opacity:1;" />
    </linearGradient>
    <linearGradient
       id="linearGradient2944">
      <stop
         style="stop-color:black;stop-opacity:0;"
         offset="0"
         id="stop2946" />
      <stop
         id="stop2952"
         offset="0.71978021"
         style="stop-color:black;stop-opacity:0;" />
      <stop
         style="stop-color:black;stop-opacity:1;"
         offset="1"
         id="stop2948" />
    </linearGradient>
    <linearGradient
       inkscape:collect="always"
       id="linearGradient2934">
      <stop
         style="stop-color:white;stop-opacity:1;"
         offset="0"
         id="stop2936" />
      <stop
         style="stop-color:white;stop-opacity:0;"
         offset="1"
         id="stop2938" />
    </linearGradient>
    <linearGradient
       id="linearGradient3972">
      <stop
         id="stop3974"
         offset="0"
         style="stop-color:#af4e4e;stop-opacity:1;" />
      <stop
         id="stop3976"
         offset="1"
         style="stop-color:#581f1f;stop-opacity:1;" />
    </linearGradient>
    <radialGradient
       inkscape:collect="always"
       xlink:href="#linearGradient2982"
       id="radialGradient3041"
       gradientUnits="userSpaceOnUse"
       gradientTransform="matrix(1,0,0,0.333333,0,67.60034)"
       cx="74.80101"
       cy="101.40051"
       fx="85.440811"
       fy="108.29221"
       r="27.566751" />
    <radialGradient
       inkscape:collect="always"
       xlink:href="#linearGradient3972"
       id="radialGradient3043"
       gradientUnits="userSpaceOnUse"
       gradientTransform="matrix(1.479354,-0.396391,0.480556,1.793457,-280.6978,-68.34466)"
       cx="198.04059"
       cy="131.16762"
       fx="199.9751"
       fy="121.32745"
       r="17.107521" />
    <radialGradient
       inkscape:collect="always"
       xlink:href="#linearGradient2934"
       id="radialGradient3045"
       gradientUnits="userSpaceOnUse"
       gradientTransform="matrix(0.350662,-0.241276,2.132065,3.09865,-288.3255,-289.002)"
       cx="202.2841"
       cy="130.64581"
       fx="202.2841"
       fy="130.64581"
       r="4.8849899" />
    <radialGradient
       inkscape:collect="always"
       xlink:href="#linearGradient2944"
       id="radialGradient3047"
       gradientUnits="userSpaceOnUse"
       gradientTransform="matrix(1.61937,-1.030727,1.33195,2.092614,-420.3521,18.4521)"
       cx="200.0015"
       cy="130.46106"
       fx="200.0015"
       fy="130.46106"
       r="17.107522" />
    <radialGradient
       inkscape:collect="always"
       xlink:href="#linearGradient2958"
       id="radialGradient3049"
       gradientUnits="userSpaceOnUse"
       gradientTransform="matrix(1.760746,-1.013955,1.320363,2.281062,-446.9517,-9.716203)"
       cx="193.3486"
       cy="131.29668"
       fx="193.3486"
       fy="131.29668"
       r="17.107521" />
    <radialGradient
       inkscape:collect="always"
       xlink:href="#linearGradient2934"
       id="radialGradient3051"
       gradientUnits="userSpaceOnUse"
       gradientTransform="matrix(1.250129,-0.884755,6.315423,8.923469,-1016.812,-919.8246)"
       cx="200.24985"
       cy="134.45642"
       fx="200.24985"
       fy="134.45642"
       r="4.8849899" />
    <radialGradient
       inkscape:collect="always"
       xlink:href="#linearGradient2934"
       id="radialGradient3053"
       gradientUnits="userSpaceOnUse"
       gradientTransform="matrix(1.479354,-0.396391,1.456982,5.437533,-409.4657,-548.9129)"
       cx="196.90475"
       cy="130.04858"
       fx="196.90475"
       fy="130.04858"
       r="4.8849899" />
    <radialGradient
       id="XMLID_5_"
       cx="57"
       cy="20"
       r="89.554398"
       gradientUnits="userSpaceOnUse">
      <stop
         offset="0.2071"
         style="stop-color:#4D94FF"
         id="stop3105" />
      <stop
         offset="0.3494"
         style="stop-color:#478DF8"
         id="stop3107" />
      <stop
         offset="0.5627"
         style="stop-color:#357BE3"
         id="stop3109" />
      <stop
         offset="0.8191"
         style="stop-color:#185EC2"
         id="stop3111" />
      <stop
         offset="1"
         style="stop-color:#0045A6"
         id="stop3113" />
    </radialGradient>
    <radialGradient
       inkscape:collect="always"
       xlink:href="#XMLID_5_"
       id="radialGradient3292"
       gradientUnits="userSpaceOnUse"
       cx="57"
       cy="20"
       r="89.554398" />
    <radialGradient
       inkscape:collect="always"
       xlink:href="#linearGradient3312"
       id="radialGradient3318"
       cx="81.086319"
       cy="86.384766"
       fx="81.086319"
       fy="86.384766"
       r="27.434785"
       gradientTransform="matrix(1.10297,4.164991e-2,-6.126163e-2,1.622327,-3.384896,-55.1006)"
       gradientUnits="userSpaceOnUse" />
    <linearGradient
       inkscape:collect="always"
       xlink:href="#linearGradient4207"
       id="linearGradient4213"
       x1="40.393475"
       y1="2.8862941"
       x2="40.393475"
       y2="0.89709473"
       gradientUnits="userSpaceOnUse"
       gradientTransform="translate(24.55896,41.44267)" />
    <linearGradient
       inkscape:collect="always"
       xlink:href="#linearGradient4219"
       id="linearGradient4217"
       gradientUnits="userSpaceOnUse"
       gradientTransform="translate(6.37636,25.48559)"
       x1="40.393475"
       y1="2.8862941"
       x2="40.393475"
       y2="0.89709473" />
    <linearGradient
       inkscape:collect="always"
       xlink:href="#linearGradient4219"
       id="linearGradient4241"
       gradientUnits="userSpaceOnUse"
       gradientTransform="matrix(0.281654,0,0,0.999999,80.70261,38.04008)"
       x1="40.393475"
       y1="2.8862941"
       x2="40.393475"
       y2="0.89709473" />
    <linearGradient
       inkscape:collect="always"
       xlink:href="#linearGradient4219"
       id="linearGradient4245"
       gradientUnits="userSpaceOnUse"
       gradientTransform="matrix(0.457249,0,0,0.999999,65.32128,38.22523)"
       x1="40.393475"
       y1="2.8862941"
       x2="40.393475"
       y2="0.89709473" />
    <linearGradient
       inkscape:collect="always"
       xlink:href="#linearGradient4219"
       id="linearGradient4249"
       gradientUnits="userSpaceOnUse"
       gradientTransform="matrix(0.588502,0,0,0.999999,53.82453,38.2915)"
       x1="40.393475"
       y1="2.8862941"
       x2="40.393475"
       y2="0.89709473" />
    <linearGradient
       inkscape:collect="always"
       xlink:href="#linearGradient4219"
       id="linearGradient4253"
       gradientUnits="userSpaceOnUse"
       gradientTransform="matrix(0.753456,0,0,0.999999,39.37599,38.34207)"
       x1="40.393475"
       y1="2.8862941"
       x2="40.393475"
       y2="0.89709473" />
    <linearGradient
       inkscape:collect="always"
       xlink:href="#linearGradient4219"
       id="linearGradient4257"
       gradientUnits="userSpaceOnUse"
       gradientTransform="matrix(0.820857,0,0,1,33.47228,38.35683)"
       x1="40.393475"
       y1="2.8862941"
       x2="40.393475"
       y2="0.89709473" />
    <linearGradient
       inkscape:collect="always"
       xlink:href="#linearGradient4219"
       id="linearGradient4261"
       gradientUnits="userSpaceOnUse"
       gradientTransform="matrix(0.128019,0,0,0.999999,94.16387,37.46133)"
       x1="40.393475"
       y1="2.8862941"
       x2="40.393475"
       y2="0.89709473" />
    <linearGradient
       inkscape:collect="always"
       xlink:href="#linearGradient1970"
       id="linearGradient1976"
       x1="35.375"
       y1="82.03125"
       x2="35.375"
       y2="84.04483"
       gradientUnits="userSpaceOnUse" />
    <radialGradient
       inkscape:collect="always"
       xlink:href="#linearGradient2866"
       id="radialGradient2872"
       cx="56.922096"
       cy="105.72437"
       fx="24.57196"
       fy="102.10045"
       r="43.487068"
       gradientTransform="matrix(1,0,0,2.439024e-2,0,103.1475)"
       gradientUnits="userSpaceOnUse" />
  </defs>
  <sodipodi:namedview
     id="base"
     pagecolor="#ffffff"
     bordercolor="#666666"
     borderopacity="1.0"
     inkscape:pageopacity="0.0"
     inkscape:pageshadow="2"
     inkscape:zoom="5.6568542"
     inkscape:cx="46.827335"
     inkscape:cy="64.084101"
     inkscape:current-layer="layer1"
     showgrid="false"
     inkscape:document-units="px"
     inkscape:grid-bbox="true"
     guidetolerance="0.1px"
     showguides="true"
     inkscape:guide-bbox="true"
     inkscape:window-width="1106"
     inkscape:window-height="958"
     inkscape:window-x="400"
     inkscape:window-y="104">
    <sodipodi:guide
       orientation="horizontal"
       position="272.76574"
       id="guide2204" />
  </sodipodi:namedview>
  <metadata
     id="metadata1312">
    <rdf:RDF>
      <cc:Work
         rdf:about="">
        <dc:format>image/svg+xml</dc:format>
        <dc:type
           rdf:resource="http://purl.org/dc/dcmitype/StillImage" />
        <cc:license
           rdf:resource="http://creativecommons.org/licenses/GPL/2.0/" />
        <dc:contributor>
          <cc:Agent>
            <dc:title>Oxygen team</dc:title>
          </cc:Agent>
        </dc:contributor>
      </cc:Work>
      <cc:License
         rdf:about="http://creativecommons.org/licenses/LGPL/2.1/">
        <cc:permits
           rdf:resource="http://web.resource.org/cc/Reproduction" />
        <cc:permits
           rdf:resource="http://web.resource.org/cc/Distribution" />
        <cc:requires
           rdf:resource="http://web.resource.org/cc/Notice" />
        <cc:permits
           rdf:resource="http://web.resource.org/cc/DerivativeWorks" />
        <cc:requires
           rdf:resource="http://web.resource.org/cc/ShareAlike" />
        <cc:requires
           rdf:resource="http://web.resource.org/cc/SourceCode" />
      </cc:License>
    </rdf:RDF>
  </metadata>
  <g
     id="layer1"
     inkscape:label="Layer 1"
     inkscape:groupmode="layer">
    <g
       id="g4233">
      <path
         id="path4225"
         d="M 4.75,113.25 L 102,113.25"
         style="fill:none;fill-opacity:0.75;fill-rule:evenodd;stroke:black;stroke-width:1px;stroke-linecap:round;stroke-linejoin:round;stroke-opacity:1;opacity:0.15983607" />
      <path
         style="fill:none;fill-opacity:0.75;fill-rule:evenodd;stroke:black;stroke-width:3;stroke-linecap:round;stroke-linejoin:round;stroke-opacity:1;opacity:0.15983607;stroke-miterlimit:4;stroke-dasharray:none"
         d="M 4.75,113.25 L 102,113.25"
         id="path4227" />
      <path
         id="path4229"
         d="M 4.75,113.25 L 102,113.25"
         style="fill:none;fill-opacity:0.75;fill-rule:evenodd;stroke:black;stroke-width:5;stroke-linecap:round;stroke-linejoin:round;stroke-opacity:1;opacity:0.15983607;stroke-miterlimit:4;stroke-dasharray:none" />
      <path
         style="fill:none;fill-opacity:0.75;fill-rule:evenodd;stroke:black;stroke-width:7;stroke-linecap:round;stroke-linejoin:round;stroke-opacity:1;opacity:0.15983607;stroke-miterlimit:4;stroke-dasharray:none"
         d="M 4.75,113.25 L 102,113.25"
         id="path4231" />
    </g>
    <g
       id="g3286"
       transform="matrix(1.163028,0.306451,0,1.163028,-7.050362,-27.9117)">
      <polygon
         inkscape:transform-center-y="-33.251454"
         inkscape:transform-center-x="-45.54193"
         transform="matrix(1.385475,-0.371237,0,1.385475,-36.74947,-4.142502)"
         id="polygon3115"
         points="45.674,51.455 94.758,38.302 91.996,28 31.129,44.061 33.744,53.438 33.744,98 96.871,98 96.871,51.455 45.674,51.455 "
         style="fill:url(#radialGradient3292)" />
      <path
         inkscape:transform-center-y="-44.294145"
         inkscape:transform-center-x="-53.06925"
         style="fill:white"
         d="M 31.528149,60.940478 L 40.0987,58.644006 L 34.778474,50.66772 L 26.213465,52.962708 L 31.528149,60.940478 M 69.829618,41.275794 L 61.264608,43.570782 L 66.584834,51.547068 L 75.152614,49.251338 L 69.829618,41.275794 M 52.304739,45.971571 L 43.734188,48.268044 L 49.057184,56.243587 L 57.622193,53.9486 L 52.304739,45.971571 M 87.355882,36.579646 L 78.788102,38.875376 L 84.105557,46.852405 L 92.683035,44.554076 L 87.355882,36.579646 z "
         id="path3119" />
      <path
         inkscape:transform-center-y="-33.266679"
         inkscape:transform-center-x="-11.901232"
         style="fill:white"
         d="M 16.264366,60.329479 C 16.264366,61.550083 17.167696,62.298651 18.283004,61.999805 C 19.392769,61.702443 20.296099,60.469783 20.296099,59.249179 C 20.296099,58.02719 19.392769,57.277235 18.283004,57.574597 C 17.167696,57.873442 16.264366,59.10749 16.264366,60.329479 z "
         id="path3121" />
      <path
         inkscape:transform-center-y="-66.252801"
         inkscape:transform-center-x="-49.52174"
         id="path3123"
         d="M 30.148215,45.465933 L 38.429202,41.030289 L 30.857579,35.35447 L 22.579363,39.789372 L 30.148215,45.465933 M 64.714442,17.209072 L 56.438997,21.643232 L 64.00785,27.32395 L 72.286066,22.884891 L 64.714442,17.209072 M 47.786703,26.282279 L 39.508487,30.719951 L 47.082882,36.395028 L 55.355556,31.96161 L 47.786703,26.282279 M 81.643567,8.13688 L 73.365351,12.573168 L 80.936974,18.251757 L 89.222117,13.809457 L 81.643567,8.13688 z "
         style="fill:white" />
    </g>
    <rect
       style="opacity:1;fill:white;fill-opacity:1;fill-rule:nonzero;stroke:none;stroke-width:0.1;stroke-linecap:round;stroke-linejoin:round;stroke-miterlimit:4;stroke-dasharray:none;stroke-dashoffset:4;stroke-opacity:1"
       id="rect3294"
       width="89.449005"
       height="22.98097"
       x="13.081475"
       y="82.038055" />
    <path
       sodipodi:nodetypes="ccc"
       id="path2276"
       d="M 50.892799,3.2812959 L 50.892799,0.48658747 L 50.892799,3.2812959 z "
       style="fill:#ffffff;fill-opacity:0.75688076;fill-rule:nonzero;stroke:none;stroke-width:0.5;stroke-linecap:round;stroke-linejoin:round;stroke-miterlimit:4;stroke-dasharray:none;stroke-dashoffset:4;stroke-opacity:1" />
    <path
       sodipodi:type="arc"
       style="opacity:1;fill:url(#radialGradient2872);fill-opacity:1;fill-rule:nonzero;stroke:none;stroke-width:7;stroke-linecap:round;stroke-linejoin:round;stroke-miterlimit:4;stroke-dasharray:none;stroke-dashoffset:4;stroke-opacity:1"
       id="path1978"
       sodipodi:cx="56.922096"
       sodipodi:cy="105.72614"
       sodipodi:rx="43.487068"
       sodipodi:ry="1.0606601"
       d="M 100.40916 105.72614 A 43.487068 1.0606601 0 1 1  13.435028,105.72614 A 43.487068 1.0606601 0 1 1  100.40916 105.72614 z"
       transform="translate(-0.53033,-0.53033)" />
    <path
       style="opacity:1;fill:url(#radialGradient3318);fill-opacity:1.0;fill-rule:nonzero;stroke:none;stroke-width:0.1;stroke-linecap:round;stroke-linejoin:round;stroke-miterlimit:4;stroke-dasharray:none;stroke-dashoffset:4;stroke-opacity:1"
       d="M 79.21875 49.5625 C 64.863359 50.136851 52.502661 63.913859 51 81.78125 C 49.9104 94.737128 54.809872 106.52489 62.9375 113.15625 L 93.84375 113.15625 C 99.195017 108.97682 103.44916 102.72429 105.71875 95.28125 L 105.71875 70.9375 C 102.05784 59.189774 93.149378 50.554788 82.09375 49.625 C 81.121376 49.543223 80.175776 49.52421 79.21875 49.5625 z "
       id="rect3308" />
    <path
       style="opacity:1;fill:url(#linearGradient1976);fill-opacity:1.0;fill-rule:nonzero;stroke:none;stroke-width:0.1;stroke-linecap:round;stroke-linejoin:round;stroke-miterlimit:4;stroke-dasharray:none;stroke-dashoffset:4;stroke-opacity:1"
       d="M 13.09375,82.03125 L 13.09375,84.75 L 102.53125,84.75 L 102.53125,82.03125 L 13.09375,82.03125 z "
       id="rect1956"
       sodipodi:nodetypes="ccccc" />
    <g
       id="g3026"
       transform="matrix(1.131764,0,0,1.131764,4.177936,-14.81593)">
      <path
         transform="matrix(1.19078,0,0,1.420579,-13.20277,-31.37693)"
         d="M 102.36776 101.40051 A 27.566751 9.1889172 0 1 1  47.234259,101.40051 A 27.566751 9.1889172 0 1 1  102.36776 101.40051 z"
         sodipodi:ry="9.1889172"
         sodipodi:rx="27.566751"
         sodipodi:cy="101.40051"
         sodipodi:cx="74.80101"
         id="path2980"
         style="opacity:1;fill:url(#radialGradient3041);fill-opacity:1;fill-rule:nonzero;stroke:none;stroke-width:0.1;stroke-linecap:round;stroke-linejoin:round;stroke-miterlimit:4;stroke-dasharray:none;stroke-dashoffset:4;stroke-opacity:1"
         sodipodi:type="arc" />
      <path
         sodipodi:nodetypes="csscsss"
         id="path2027"
         d="M 67.364221,57.769654 C 87.109742,54.550555 101.92162,74.002511 104.07189,98.416395 C 104.51821,103.4839 101.77392,110.85585 95.764338,113.6784 C 91.946132,115.47173 87.737214,113.37836 86.912985,112.98283 C 87.222939,114.28081 90.64466,115.92533 88.516233,117.15418 C 79.039306,122.62568 58.731541,120.79451 48.332337,88.813439 C 43.46092,73.82234 53.376021,60.058938 67.364221,57.769654 z "
         style="fill:url(#radialGradient3043);fill-opacity:1;fill-rule:evenodd;stroke:none;stroke-width:1px;stroke-linecap:butt;stroke-linejoin:miter;stroke-opacity:1" />
      <path
         sodipodi:nodetypes="cccccsccc"
         id="path2976"
         d="M 58.604454,64.218249 C 62.819146,70.265276 69.949523,79.265923 73.697217,85.975081 C 75.750431,90.548582 77.817459,95.943678 79.877885,100.94725 C 81.886072,105.52401 84.564706,108.93956 86.908284,112.93541 C 86.754578,113.43749 87.609423,114.16729 87.968615,114.44742 C 87.844927,114.98008 86.16904,112.76817 85.221031,111.44453 C 83.89265,109.58984 79.940955,104.74294 79.13492,102.59736 C 77.359175,97.651714 74.986023,92.243629 71.729479,86.845104 C 68.97603,81.633624 54.78859,63.255186 58.604454,64.218249 z "
         style="opacity:0.21311478;fill:url(#radialGradient3045);fill-opacity:1;fill-rule:evenodd;stroke:none;stroke-width:1px;stroke-linecap:butt;stroke-linejoin:miter;stroke-opacity:1" />
      <path
         style="fill:url(#radialGradient3047);fill-opacity:1;fill-rule:evenodd;stroke:none;stroke-width:1px;stroke-linecap:butt;stroke-linejoin:miter;stroke-opacity:1"
         d="M 67.364221,57.769654 C 87.109742,54.550555 101.92162,74.002511 104.07189,98.416395 C 104.51821,103.4839 101.77392,110.85585 95.764338,113.6784 C 91.946132,115.47173 87.737214,113.37836 86.912985,112.98283 C 87.222939,114.28081 90.64466,115.92533 88.516233,117.15418 C 79.039306,122.62568 58.731541,120.79451 48.332337,88.813439 C 43.46092,73.82234 53.376021,60.058938 67.364221,57.769654 z "
         id="path2942"
         sodipodi:nodetypes="csscsss" />
      <path
         sodipodi:nodetypes="csscsss"
         id="path2954"
         d="M 67.302133,58.116853 C 86.98722,54.915842 101.75376,74.258462 103.89745,98.535121 C 104.3424,103.57415 101.60651,110.90468 95.61532,113.71136 C 91.808799,115.4946 87.612761,113.413 86.79106,113.01967 C 87.100063,114.31038 90.511309,115.94563 88.389405,117.16758 C 78.941487,122.60833 58.695872,120.78745 48.328493,88.986151 C 43.471978,74.079302 53.356738,60.393273 67.302133,58.116853 z "
         style="fill:url(#radialGradient3049);fill-opacity:1;fill-rule:evenodd;stroke:none;stroke-width:1px;stroke-linecap:butt;stroke-linejoin:miter;stroke-opacity:1" />
      <path
         sodipodi:nodetypes="cccccsccc"
         id="path2924"
         d="M 61.192297,67.636724 C 65.406989,73.683751 69.949523,79.265923 73.697217,85.975081 C 75.750431,90.548582 77.817459,95.943678 79.877885,100.94725 C 81.886072,105.52401 84.564706,108.93956 86.908284,112.93541 C 89.744972,114.35326 93.367816,114.5786 95.124599,113.91943 C 95.000927,114.4521 88.046617,112.35545 87.098593,111.03181 C 85.770212,109.1771 81.296016,98.884725 81.433118,98.994215 C 79.657374,94.048581 78.548111,89.229359 75.291565,83.830833 C 71.256585,76.703459 62.59675,67.35342 61.192297,67.636724 z "
         style="opacity:0.10655739;fill:black;fill-opacity:1;fill-rule:evenodd;stroke:none;stroke-width:1px;stroke-linecap:butt;stroke-linejoin:miter;stroke-opacity:1" />
      <path
         style="opacity:0.20081967;fill:black;fill-opacity:1;fill-rule:evenodd;stroke:none;stroke-width:1px;stroke-linecap:butt;stroke-linejoin:miter;stroke-opacity:1"
         d="M 61.192297,67.636724 C 65.406989,73.683751 69.949523,79.265923 73.697217,85.975081 C 75.750431,90.548582 77.817459,95.943678 79.877885,100.94725 C 81.886072,105.52401 84.564706,108.93956 86.908284,112.93541 C 89.744972,114.35326 93.367816,114.5786 95.124599,113.91943 C 95.000927,114.4521 88.3311,113.23001 87.158905,112.10009 C 85.617532,110.6143 79.81108,100.16048 80.146579,99.926356 C 78.370834,94.980707 77.081645,90.164518 73.825101,84.766007 C 69.79012,77.638631 62.59675,67.35342 61.192297,67.636724 z "
         id="path2926"
         sodipodi:nodetypes="cccccsccc" />
      <path
         sodipodi:nodetypes="cccccsccc"
         id="path2928"
         d="M 61.946735,68.428669 C 66.161427,74.475679 69.949523,79.265923 73.697217,85.975081 C 75.750431,90.548582 77.817459,95.943678 79.877885,100.94725 C 81.886072,105.52401 84.564706,108.93956 86.908284,112.93541 C 89.744972,114.35326 93.367816,114.5786 95.124599,113.91943 C 95.000927,114.4521 88.707507,112.94842 87.535312,111.8185 C 85.993939,110.33272 80.226617,99.687666 80.562117,99.45354 C 78.77827,94.510064 77.305082,89.743176 74.240638,84.29319 C 70.205673,77.165814 63.351188,68.145349 61.946735,68.428669 z "
         style="opacity:0.20081967;fill:black;fill-opacity:1;fill-rule:evenodd;stroke:none;stroke-width:1px;stroke-linecap:butt;stroke-linejoin:miter;stroke-opacity:1" />
      <path
         style="opacity:0.10655739;fill:black;fill-opacity:1;fill-rule:evenodd;stroke:none;stroke-width:1px;stroke-linecap:butt;stroke-linejoin:miter;stroke-opacity:1"
         d="M 59.373195,65.232283 C 63.587903,71.279308 69.949523,79.265923 73.697217,85.975081 C 75.750431,90.548582 77.817459,95.943678 79.877885,100.94725 C 81.886072,105.52401 84.564706,108.93956 86.908284,112.93541 C 89.744972,114.35326 93.367816,114.5786 95.124599,113.91943 C 95.000927,114.4521 89.350509,111.82532 88.402485,110.50169 C 87.074119,108.64698 83.356366,100.84046 82.550332,98.69486 C 80.774572,93.749226 79.657742,88.480176 76.401197,83.081649 C 72.366232,75.954275 62.599553,65.003011 59.373195,65.232283 z "
         id="path2930"
         sodipodi:nodetypes="cccccsccc" />
      <path
         style="opacity:0.21311478;fill:url(#radialGradient3051);fill-opacity:1;fill-rule:evenodd;stroke:none;stroke-width:1px;stroke-linecap:butt;stroke-linejoin:miter;stroke-opacity:1"
         d="M 59.373195,65.232283 C 63.587903,71.279308 69.949523,79.265923 73.697217,85.975081 C 75.750431,90.548582 77.817459,95.943678 79.877885,100.94725 C 81.886072,105.52401 84.564706,108.93956 86.908284,112.93541 C 86.754578,113.43749 87.609423,114.16729 87.968615,114.44742 C 87.844927,114.98008 86.16904,112.76817 85.221031,111.44453 C 83.89265,109.58984 79.940955,104.74294 79.13492,102.59736 C 77.359175,97.651714 75.154661,92.198435 71.898102,86.799923 C 69.144652,81.588428 58.78199,66.522972 59.373195,65.232283 z "
         id="path2968"
         sodipodi:nodetypes="cccccsccc" />
      <path
         sodipodi:nodetypes="cccccsccc"
         id="path2932"
         d="M 59.373195,65.232283 C 63.587903,71.279308 69.949523,79.265923 73.697217,85.975081 C 75.750431,90.548582 77.817459,95.943678 79.877885,100.94725 C 81.886072,105.52401 84.564706,108.93956 86.908284,112.93541 C 86.754578,113.43749 87.609423,114.16729 87.968615,114.44742 C 87.844927,114.98008 86.16904,112.76817 85.221031,111.44453 C 83.89265,109.58984 80.126088,103.28749 79.320053,101.14191 C 77.544308,96.196275 75.753402,91.891483 72.496857,86.492957 C 69.743408,81.281478 58.78199,66.522972 59.373195,65.232283 z "
         style="opacity:0.73999999;fill:url(#radialGradient3053);fill-opacity:1;fill-rule:evenodd;stroke:none;stroke-width:1px;stroke-linecap:butt;stroke-linejoin:miter;stroke-opacity:1" />
      <path
         sodipodi:nodetypes="cccccsccc"
         id="path2972"
         d="M 59.373195,65.232283 C 63.587903,71.279308 69.949523,79.265923 73.697217,85.975081 C 75.750431,90.548582 77.817459,95.943678 79.877885,100.94725 C 81.886072,105.52401 84.564706,108.93956 86.908284,112.93541 C 89.744972,114.35326 93.367816,114.5786 95.124599,113.91943 C 95.000927,114.4521 88.278599,113.55849 87.33059,112.23486 C 86.002209,110.38014 81.19014,102.03089 80.384106,99.885311 C 78.608346,94.939662 77.000351,90.367049 73.743806,84.968522 C 69.708826,77.841147 62.136017,67.657598 59.373195,65.232283 z "
         style="opacity:0.10655739;fill:black;fill-opacity:1;fill-rule:evenodd;stroke:none;stroke-width:1px;stroke-linecap:butt;stroke-linejoin:miter;stroke-opacity:1" />
      <path
         sodipodi:nodetypes="cccccssc"
         id="path2974"
         d="M 59.004768,64.691986 C 63.21946,70.739012 69.949523,79.265923 73.697217,85.975081 C 75.750431,90.548582 77.817459,95.943678 79.877885,100.94725 C 81.886072,105.52401 84.564706,108.93956 86.908284,112.93541 C 89.744972,114.35326 93.367816,114.5786 95.124599,113.91943 C 95.000927,114.4521 89.202838,110.59969 86.742739,104.98192 C 82.722798,95.802255 79.462455,84.504894 74.31161,75.991047 C 70.073501,68.985843 57.810856,62.036662 59.004768,64.691986 z "
         style="opacity:0.10655739;fill:black;fill-opacity:1;fill-rule:evenodd;stroke:none;stroke-width:1px;stroke-linecap:butt;stroke-linejoin:miter;stroke-opacity:1" />
    </g>
    <rect
       style="opacity:1;fill:url(#linearGradient4213);fill-opacity:1;fill-rule:nonzero;stroke:none;stroke-width:0.1;stroke-linecap:round;stroke-linejoin:round;stroke-miterlimit:4;stroke-dasharray:none;stroke-dashoffset:4;stroke-opacity:1"
       id="rect3320"
       width="82.111977"
       height="1.0606602"
       x="12.538151"
       y="42.34024"
       transform="matrix(0.964818,-0.26292,0.26292,0.964818,0,0)" />
    <rect
       transform="matrix(0.966259,-0.257574,0.257574,0.966259,0,0)"
       y="26.383162"
       x="-5.6444516"
       height="2.5454848"
       width="99.663231"
       id="rect4215"
       style="opacity:1;fill:url(#linearGradient4217);fill-opacity:1;fill-rule:nonzero;stroke:none;stroke-width:0.1;stroke-linecap:round;stroke-linejoin:round;stroke-miterlimit:4;stroke-dasharray:none;stroke-dashoffset:4;stroke-opacity:1"
       ry="0.3604117" />
    <rect
       ry="0.36041167"
       style="opacity:0.27999998;fill:url(#linearGradient4241);fill-opacity:1;fill-rule:nonzero;stroke:none;stroke-width:0.1;stroke-linecap:round;stroke-linejoin:round;stroke-miterlimit:4;stroke-dasharray:none;stroke-dashoffset:4;stroke-opacity:1"
       id="rect4239"
       width="28.070618"
       height="2.5454845"
       x="77.316879"
       y="38.937641"
       transform="matrix(0.999997,-2.622869e-3,6.83583e-3,0.999977,0,0)" />
    <rect
       transform="matrix(0.99999,-4.38017e-3,6.60952e-3,0.999978,0,0)"
       y="39.122807"
       x="59.824772"
       height="2.5454838"
       width="45.570953"
       id="rect4243"
       style="opacity:0.27999998;fill:url(#linearGradient4245);fill-opacity:1;fill-rule:nonzero;stroke:none;stroke-width:0.1;stroke-linecap:round;stroke-linejoin:round;stroke-miterlimit:4;stroke-dasharray:none;stroke-dashoffset:4;stroke-opacity:1"
       ry="0.36041158" />
    <rect
       ry="0.36041167"
       style="opacity:0.27999998;fill:url(#linearGradient4249);fill-opacity:1;fill-rule:nonzero;stroke:none;stroke-width:0.1;stroke-linecap:round;stroke-linejoin:round;stroke-miterlimit:4;stroke-dasharray:none;stroke-dashoffset:4;stroke-opacity:1"
       id="rect4247"
       width="58.652092"
       height="2.5454845"
       x="46.750233"
       y="39.18906"
       transform="matrix(0.999987,-5.00882e-3,6.440359e-3,0.999979,0,0)" />
    <rect
       transform="matrix(0.999985,-5.488279e-3,6.227758e-3,0.999981,0,0)"
       y="39.239635"
       x="30.318815"
       height="2.5454879"
       width="75.09198"
       id="rect4251"
       style="opacity:0.27999998;fill:url(#linearGradient4253);fill-opacity:1;fill-rule:nonzero;stroke:none;stroke-width:0.1;stroke-linecap:round;stroke-linejoin:round;stroke-miterlimit:4;stroke-dasharray:none;stroke-dashoffset:4;stroke-opacity:1"
       ry="0.36041218" />
    <rect
       ry="0.36041185"
       style="opacity:0.27999998;fill:url(#linearGradient4257);fill-opacity:1;fill-rule:nonzero;stroke:none;stroke-width:0.1;stroke-linecap:round;stroke-linejoin:round;stroke-miterlimit:4;stroke-dasharray:none;stroke-dashoffset:4;stroke-opacity:1"
       id="rect4255"
       width="81.809319"
       height="2.5454855"
       x="23.6049"
       y="39.254398"
       transform="matrix(0.999984,-5.628735e-3,6.140894e-3,0.999981,0,0)" />
    <rect
       transform="matrix(0.999996,2.868917e-3,7.033847e-3,0.999975,0,0)"
       y="38.358898"
       x="92.624977"
       height="2.5454826"
       width="12.758819"
       id="rect4259"
       style="opacity:0.27999998;fill:url(#linearGradient4261);fill-opacity:1;fill-rule:nonzero;stroke:none;stroke-width:0.1;stroke-linecap:round;stroke-linejoin:round;stroke-miterlimit:4;stroke-dasharray:none;stroke-dashoffset:4;stroke-opacity:1"
       ry="0.36041144" />
  </g>
</svg>
