<?xml version="1.0" encoding="UTF-8" standalone="no"?>
<!-- Created with Inkscape (http://www.inkscape.org/) -->
<svg
   xmlns:dc="http://purl.org/dc/elements/1.1/"
   xmlns:cc="http://web.resource.org/cc/"
   xmlns:rdf="http://www.w3.org/1999/02/22-rdf-syntax-ns#"
   xmlns:svg="http://www.w3.org/2000/svg"
   xmlns="http://www.w3.org/2000/svg"
   xmlns:xlink="http://www.w3.org/1999/xlink"
   xmlns:sodipodi="http://sodipodi.sourceforge.net/DTD/sodipodi-0.dtd"
   xmlns:inkscape="http://www.inkscape.org/namespaces/inkscape"
   width="128"
   height="128"
   id="svg37105"
   sodipodi:version="0.32"
   inkscape:version="0.45+devel"
   version="1.0"
   sodipodi:docname="ascii.svg"
   inkscape:output_extension="org.inkscape.output.svg.inkscape">
  <defs
     id="defs37107">
    <linearGradient
       id="linearGradient2822">
      <stop
         style="stop-color:#2e3436;stop-opacity:1;"
         offset="0"
         id="stop2824" />
      <stop
         style="stop-color:#101213;stop-opacity:1;"
         offset="1"
         id="stop2826" />
    </linearGradient>
    <linearGradient
       id="linearGradient10207">
      <stop
         style="stop-color:#a2a2a2;stop-opacity:1;"
         offset="0"
         id="stop10209" />
      <stop
         style="stop-color:#ffffff;stop-opacity:1;"
         offset="1"
         id="stop10211" />
    </linearGradient>
    <linearGradient
       inkscape:collect="always"
       xlink:href="#linearGradient10207"
       id="linearGradient10213"
       x1="98.617439"
       y1="106.41443"
       x2="91.228737"
       y2="99.254974"
       gradientUnits="userSpaceOnUse"
       gradientTransform="translate(311,-456.5)" />
    <filter
       inkscape:collect="always"
       x="-0.19200002"
       width="1.3839999"
       y="-0.19199999"
       height="1.3839999"
       id="filter6697">
      <feGaussianBlur
         inkscape:collect="always"
         stdDeviation="1.9447689"
         id="feGaussianBlur6699" />
    </filter>
    <clipPath
       clipPathUnits="userSpaceOnUse"
       id="clipPath7084">
      <path
         style="fill:#000000;fill-opacity:1;fill-rule:evenodd;stroke:none;stroke-width:1px;stroke-linecap:butt;stroke-linejoin:miter;stroke-opacity:1"
         d="M 72,88 L 40,120 L 32,120 L 32,80 L 72,80 L 72,88 z"
         id="path7086" />
    </clipPath>
    <radialGradient
       id="XMLID_8_"
       cx="102"
       cy="112.3047"
       r="139.55859"
       gradientUnits="userSpaceOnUse">
      <stop
         offset="0"
         style="stop-color:#b7b8b9;stop-opacity:1;"
         id="stop41" />
      <stop
         offset="0.18851049"
         style="stop-color:#ECECEC"
         id="stop47" />
      <stop
         offset="0.25718147"
         style="stop-color:#FAFAFA"
         id="stop49" />
      <stop
         offset="0.30111277"
         style="stop-color:#FFFFFF"
         id="stop51" />
      <stop
         offset="0.5313"
         style="stop-color:#FAFAFA"
         id="stop53" />
      <stop
         offset="0.8449"
         style="stop-color:#EBECEC"
         id="stop55" />
      <stop
         offset="1"
         style="stop-color:#E1E2E3"
         id="stop57" />
    </radialGradient>
    <radialGradient
       inkscape:collect="always"
       xlink:href="#XMLID_8_"
       id="radialGradient9437"
       gradientUnits="userSpaceOnUse"
       gradientTransform="matrix(1,0,0,0.9996653,311,-456.49698)"
       cx="102"
       cy="112.3047"
       r="139.55859" />
    <filter
       inkscape:collect="always"
       id="filter2770">
      <feGaussianBlur
         inkscape:collect="always"
         stdDeviation="2.0786429"
         id="feGaussianBlur2772" />
    </filter>
    <linearGradient
       inkscape:collect="always"
       xlink:href="#linearGradient10207"
       id="linearGradient2232"
       gradientUnits="userSpaceOnUse"
       x1="98.617439"
       y1="106.41443"
       x2="91.228737"
       y2="99.254974" />
    <radialGradient
       inkscape:collect="always"
       xlink:href="#XMLID_8_"
       id="radialGradient2236"
       gradientUnits="userSpaceOnUse"
       gradientTransform="matrix(1,0,0,0.9996653,0,3.02e-3)"
       cx="102"
       cy="112.3047"
       r="139.55859" />
    <linearGradient
       inkscape:collect="always"
       xlink:href="#linearGradient2822"
       id="linearGradient2828"
       x1="65.803925"
       y1="46.838997"
       x2="116.78432"
       y2="117.22342"
       gradientUnits="userSpaceOnUse" />
    <linearGradient
       inkscape:collect="always"
       xlink:href="#linearGradient2822"
       id="linearGradient3098"
       gradientUnits="userSpaceOnUse"
       x1="65.803925"
       y1="46.838997"
       x2="116.78432"
       y2="117.22342"
       gradientTransform="matrix(1,0,0,1.078981,0,-3.5821746)" />
  </defs>
  <sodipodi:namedview
     id="base"
     pagecolor="#ffffff"
     bordercolor="#666666"
     borderopacity="1.0"
     inkscape:pageopacity="0.0"
     inkscape:pageshadow="2"
     inkscape:zoom="3.1875"
     inkscape:cx="64"
     inkscape:cy="70.25075"
     inkscape:document-units="px"
     inkscape:current-layer="layer1"
     height="128px"
     width="128px"
     inkscape:window-width="672"
     inkscape:window-height="612"
     inkscape:window-x="200"
     inkscape:window-y="361" />
  <metadata
     id="metadata37110">
    <rdf:RDF>
      <cc:Work
         rdf:about="">
        <dc:format>image/svg+xml</dc:format>
        <dc:type
           rdf:resource="http://purl.org/dc/dcmitype/StillImage" />
      </cc:Work>
    </rdf:RDF>
  </metadata>
  <g
     inkscape:label="Livello 1"
     inkscape:groupmode="layer"
     id="layer1">
    <path
       style="opacity:0.5;fill:#000000;fill-opacity:1;filter:url(#filter2770)"
       d="M 16,8 L 16,120 C 16,120 79.15625,120 79.15625,120 L 79.1875,120 C 79.187503,120 91.09375,110.09375 96.59375,104.59375 C 102.09375,99.09375 112,87.1875 112,87.1875 L 112,87.15625 L 112,8 L 16,8 z"
       id="path7865"
       sodipodi:nodetypes="csccscccc"
       transform="matrix(1.0416667,0,0,1.0267857,-2.66667,-1.21428)" />
    <path
       style="fill:#ffffff;fill-opacity:1"
       d="M 16,8 L 16,120 C 16,120 79.14642,120 79.14642,120 L 112,87.14642 L 112,8 L 16,8 z"
       id="path34"
       sodipodi:nodetypes="cccccc" />
    <path
       style="fill:url(#radialGradient2236);fill-opacity:1"
       d="M 18,9.00001 C 17.449,9.00001 17,9.44886 17,9.99967 L 17,117.96352 C 17,118.51533 17.449,118.96318 18,118.96318 L 77.172,118.96318 C 77.435,118.96318 79.93468,119.08131 80.12068,118.89438 L 110.707,88.09421 C 110.894,87.90727 111,85.40942 111,85.14651 L 111,9.99967 C 111,9.44886 110.552,9.00001 110,9.00001 L 18,9.00001 z"
       id="path59"
       sodipodi:nodetypes="ccccccccccc" />
    <path
       style="font-size:22px;opacity:0.8;fill:url(#linearGradient3098);fill-opacity:1;font-family:'Bitstream Vera Sans Mono'"
       d="M 27.73918,28.305681 L 28.652052,28.305681 L 28.652052,31.483795 L 28.557617,33.215987 L 27.833614,33.215987 L 27.73918,31.483795 L 27.73918,28.305681 z M 27.73918,34.317408 L 28.652052,34.317408 L 28.652052,35.549837 L 27.73918,35.549837 L 27.73918,34.317408 z M 34.983699,28.305681 L 34.983699,30.998588 L 34.201237,30.998588 L 34.201237,28.305681 L 34.983699,28.305681 z M 33.261384,28.305681 L 33.261384,30.998588 L 32.478921,30.998588 L 32.478921,28.305681 L 33.261384,28.305681 z M 39.575043,28.417283 L 39.107363,30.430894 L 40.209105,30.430894 L 40.681281,28.417283 L 41.400788,28.417283 L 40.928612,30.430894 L 42.025857,30.430894 L 42.025857,31.178115 L 40.762227,31.178115 L 40.384484,32.798708 L 41.508714,32.798708 L 41.508714,33.541076 L 40.209105,33.541076 L 39.741428,35.549837 L 39.021923,35.549837 L 39.494099,33.541076 L 38.387859,33.541076 L 37.915683,35.549837 L 37.200675,35.549837 L 37.668354,33.541076 L 36.508152,33.541076 L 36.508152,32.798708 L 37.843732,32.798708 L 38.221474,31.178115 L 37.025295,31.178115 L 37.025295,30.430894 L 38.387859,30.430894 L 38.855537,28.417283 L 39.575043,28.417283 z M 40.042721,31.178115 L 38.940978,31.178115 L 38.563238,32.798708 L 39.669478,32.798708 L 40.042721,31.178115 z M 45.15121,32.735632 L 45.15121,34.841434 C 45.480981,34.831731 45.738804,34.733072 45.924677,34.545456 C 46.110545,34.357844 46.203481,34.102302 46.203487,33.778827 C 46.203481,33.478002 46.11954,33.244294 45.951658,33.077702 C 45.783772,32.911117 45.516953,32.797094 45.15121,32.735632 L 45.15121,32.735632 z M 44.701517,31.813736 L 44.701517,29.809828 C 44.389731,29.822773 44.146147,29.919815 43.970771,30.100953 C 43.795389,30.282102 43.707701,30.524706 43.707702,30.828765 C 43.707701,31.106954 43.789394,31.326914 43.952783,31.488647 C 44.11617,31.650386 44.365747,31.75875 44.701517,31.813736 L 44.701517,31.813736 z M 45.15121,37.010309 L 44.701517,37.010309 L 44.697022,35.549837 C 44.39123,35.533663 44.087688,35.488378 43.786398,35.413979 C 43.485104,35.339581 43.187559,35.23607 42.893763,35.103446 L 42.893763,34.23007 C 43.193554,34.430626 43.495595,34.584275 43.799889,34.69102 C 44.104178,34.797766 44.404719,34.854374 44.701517,34.860841 L 44.701517,32.638591 C 44.101928,32.538318 43.650739,32.340999 43.347949,32.046638 C 43.045157,31.752281 42.89376,31.362498 42.893763,30.877285 C 42.89376,30.369439 43.051901,29.964292 43.368184,29.66184 C 43.684465,29.3594 44.128908,29.185534 44.701517,29.140242 L 44.701517,28.000002 L 45.15121,28.000002 L 45.155706,29.140242 C 45.392541,29.156421 45.632375,29.188768 45.875211,29.237284 C 46.11804,29.28581 46.365371,29.352121 46.617201,29.436218 L 46.617201,30.275629 C 46.362371,30.136539 46.114291,30.028986 45.872965,29.952965 C 45.631627,29.876955 45.391042,29.832478 45.15121,29.819532 L 45.15121,31.910778 C 45.768782,32.011057 46.239457,32.21808 46.563238,32.531845 C 46.887011,32.845614 47.048897,33.251572 47.048903,33.749715 C 47.048897,34.247864 46.87427,34.663526 46.525016,34.996699 C 46.17575,35.329877 45.719314,35.511021 45.155706,35.540132 L 45.15121,37.010309 z M 50.709387,34.002024 C 50.709385,34.254332 50.788081,34.466206 50.945477,34.637646 C 51.102864,34.809087 51.298479,34.894807 51.532323,34.894807 C 51.763159,34.894807 51.958775,34.808279 52.119169,34.63522 C 52.279554,34.462163 52.359748,34.251099 52.359753,34.002024 C 52.359748,33.752954 52.278805,33.541078 52.116919,33.366402 C 51.955027,33.19173 51.760161,33.104393 51.532323,33.10439 C 51.298479,33.104393 51.102864,33.190112 50.945477,33.361551 C 50.788081,33.532992 50.709385,33.746482 50.709387,34.002024 L 50.709387,34.002024 z M 50.102304,34.002024 C 50.102302,33.565339 50.240208,33.197392 50.516021,32.898176 C 50.791828,32.598967 51.130597,32.449362 51.532323,32.449359 C 51.724187,32.449362 51.90631,32.48818 52.078697,32.565809 C 52.251074,32.643444 52.406215,32.75666 52.544126,32.905453 C 52.682027,33.057489 52.788453,33.227312 52.863408,33.414922 C 52.93835,33.602538 52.975825,33.798239 52.975829,34.002024 C 52.975825,34.432242 52.836419,34.797766 52.557617,35.098594 C 52.278805,35.399422 51.937039,35.549837 51.532323,35.549837 C 51.1246,35.549837 50.784332,35.401849 50.511524,35.105872 C 50.238707,34.809894 50.102302,34.441945 50.102304,34.002024 L 50.102304,34.002024 z M 48.123665,33.293621 L 47.966274,32.827821 L 52.652053,30.799651 L 52.836427,31.265451 L 48.123665,33.293621 z M 48.335022,30.154325 C 48.335019,30.409874 48.413716,30.622555 48.571108,30.792372 C 48.728497,30.962201 48.925614,31.047112 49.162452,31.047108 C 49.393291,31.047112 49.589656,30.960584 49.751548,30.787522 C 49.913433,30.614469 49.994378,30.403405 49.994381,30.154325 C 49.994378,29.905259 49.913433,29.694193 49.751548,29.521129 C 49.589656,29.348078 49.393291,29.26155 49.162452,29.261543 C 48.931608,29.26155 48.735992,29.347269 48.575605,29.518703 C 48.415214,29.69015 48.335019,29.902023 48.335022,30.154325 L 48.335022,30.154325 z M 47.727939,30.154325 C 47.727939,29.717645 47.865842,29.349695 48.141653,29.050478 C 48.417462,28.751274 48.757729,28.601667 49.162452,28.60166 C 49.354319,28.601667 49.537942,28.640484 49.713321,28.718111 C 49.888701,28.795749 50.043843,28.907348 50.178753,29.052905 C 50.313658,29.198473 50.417836,29.365869 50.491289,29.555094 C 50.564735,29.744331 50.601459,29.944074 50.601464,30.154325 C 50.601459,30.587782 50.462055,30.954116 50.183249,31.253321 C 49.904439,31.552538 49.564174,31.702143 49.162452,31.702139 C 48.757729,31.702143 48.417462,31.553347 48.141653,31.255747 C 47.865842,30.958158 47.727939,30.591017 47.727939,30.154325 L 47.727939,30.154325 z M 55.579539,31.149001 L 57.450254,33.861312 C 57.567168,33.702814 57.65411,33.502262 57.711074,33.259655 C 57.768031,33.017055 57.796512,32.727546 57.796515,32.391133 C 57.796512,32.287626 57.792015,32.122656 57.783024,31.896221 L 57.778529,31.862257 L 58.516021,31.862257 L 58.516021,32.051489 C 58.516016,32.572282 58.460555,33.029186 58.349635,33.422201 C 58.238706,33.81522 58.070824,34.154057 57.845984,34.43871 L 58.610457,35.549837 L 57.652614,35.549837 L 57.301855,35.020961 C 57.053022,35.24739 56.789203,35.415596 56.5104,35.525576 C 56.231589,35.635557 55.933293,35.690548 55.615515,35.690548 C 54.967959,35.690548 54.432828,35.473013 54.010119,35.037943 C 53.587408,34.602873 53.376055,34.055398 53.376056,33.395514 C 53.376055,32.95236 53.479483,32.541551 53.686342,32.163086 C 53.893197,31.784627 54.204985,31.43366 54.621699,31.110185 C 54.471801,30.87729 54.360878,30.649242 54.288928,30.426041 C 54.216976,30.202853 54.180999,29.976422 54.181002,29.746751 C 54.180999,29.26155 54.330148,28.878236 54.628445,28.59681 C 54.926738,28.315393 55.335207,28.174686 55.853851,28.174678 C 56.048712,28.174686 56.24433,28.194093 56.440698,28.232904 C 56.63706,28.271727 56.840169,28.328334 57.05003,28.402725 L 57.05003,29.290656 C 56.873147,29.164508 56.691022,29.071511 56.503655,29.011661 C 56.31628,28.951826 56.119166,28.921906 55.912312,28.921897 C 55.621507,28.921906 55.392167,28.995496 55.224285,29.142666 C 55.056395,29.289853 54.972454,29.487979 54.972457,29.737047 C 54.972454,29.9279 55.015925,30.127644 55.102868,30.336278 C 55.189805,30.544924 55.348697,30.815831 55.579539,31.149001 L 55.579539,31.149001 z M 54.990445,31.653618 C 54.714633,31.889756 54.508525,32.139639 54.372121,32.403264 C 54.235713,32.666897 54.167511,32.947507 54.167512,33.2451 C 54.167511,33.733544 54.317407,34.138692 54.617201,34.460545 C 54.916993,34.782401 55.299231,34.943327 55.763913,34.943326 C 55.889822,34.943327 56.021734,34.923919 56.159641,34.885101 C 56.297545,34.846287 56.43245,34.789677 56.564363,34.715279 C 56.645303,34.666761 56.712008,34.623899 56.764475,34.586699 C 56.816935,34.5495 56.867151,34.509876 56.915122,34.467825 L 54.990445,31.653618 z M 61.816751,28.305681 L 61.816751,30.998588 L 61.034289,30.998588 L 61.034289,28.305681 L 61.816751,28.305681 z M 68.179879,28.009708 C 67.781146,28.747231 67.483604,29.482319 67.287241,30.214977 C 67.090874,30.947644 66.99269,31.685969 66.992695,32.429951 C 66.99269,33.170704 67.090874,33.908218 67.287241,34.642499 C 67.483604,35.37678 67.781146,36.115912 68.179879,36.859891 L 67.460375,36.859891 C 67.00768,36.090035 66.670415,35.340389 66.448566,34.610961 C 66.226718,33.881532 66.115795,33.154531 66.115795,32.429951 C 66.115795,31.708612 66.226718,30.982418 66.448566,30.251367 C 66.670415,29.520327 67.00768,28.773108 67.460375,28.009708 L 68.179879,28.009708 z M 71.30523,28.009708 L 72.024735,28.009708 C 72.477421,28.773108 72.814686,29.520327 73.036539,30.251367 C 73.258383,30.982418 73.369304,31.708612 73.369312,32.429951 C 73.369304,33.157765 73.258383,33.887192 73.036539,34.618239 C 72.814686,35.349285 72.477421,36.096503 72.024735,36.859891 L 71.30523,36.859891 C 71.703955,36.109443 72.001498,35.367074 72.197864,34.632795 C 72.394227,33.898515 72.492412,33.164235 72.492412,32.429951 C 72.492412,31.692439 72.394227,30.956539 72.197864,30.222255 C 72.001498,29.487979 71.703955,28.750465 71.30523,28.009708 L 71.30523,28.009708 z M 80.078696,29.499295 L 78.468803,30.440598 L 80.078696,31.386755 L 79.822375,31.862257 L 78.311409,30.877285 L 78.311409,32.70652 L 77.794266,32.70652 L 77.794266,30.877285 L 76.283307,31.862257 L 76.026982,31.386755 L 77.636878,30.440598 L 76.026982,29.499295 L 76.283307,29.018941 L 77.794266,30.003911 L 77.794266,28.174678 L 78.311409,28.174678 L 78.311409,30.003911 L 79.822375,29.018941 L 80.078696,29.499295 z M 83.968529,29.868053 L 83.968529,32.022376 L 85.969643,32.022376 L 85.969643,32.847229 L 83.968529,32.847229 L 83.968529,35.001552 L 83.213049,35.001552 L 83.213049,32.847229 L 81.216415,32.847229 L 81.216415,32.022376 L 83.213049,32.022376 L 83.213049,29.868053 L 83.968529,29.868053 z M 88.618337,34.079657 L 89.751542,34.079657 L 89.751542,35.084036 L 88.865648,36.942379 L 88.173127,36.942379 L 88.618337,35.084036 L 88.618337,34.079657 z M 93.50197,32.429951 L 95.844856,32.429951 L 95.844856,33.22569 L 93.50197,33.22569 L 93.50197,32.429951 z M 99.640248,34.069952 L 100.77347,34.069952 L 100.77347,35.549837 L 99.640248,35.549837 L 99.640248,34.069952 z M 106.97922,28.305681 L 107.83363,28.305681 L 104.29906,36.471733 L 103.44014,36.471733 L 106.97922,28.305681 z M 22.050591,44.332102 C 22.050588,44.154197 22.108299,44.000541 22.223722,43.87115 C 22.33914,43.741774 22.477793,43.677078 22.639685,43.677063 C 22.807568,43.677078 22.951467,43.741774 23.071389,43.87115 C 23.191303,44.000541 23.251261,44.154197 23.251264,44.332102 C 23.251261,44.513244 23.192054,44.666898 23.073636,44.793052 C 22.955216,44.919208 22.810565,44.982277 22.639685,44.982277 C 22.471798,44.982277 22.331645,44.920819 22.219224,44.797901 C 22.106799,44.674981 22.050588,44.519717 22.050591,44.332102 L 22.050591,44.332102 z M 22.648679,41.372335 C 22.225965,41.372335 21.910433,41.618171 21.702078,42.109846 C 21.493721,42.601534 21.389542,43.350364 21.389545,44.356366 C 21.389542,45.359132 21.493721,46.10635 21.702078,46.598024 C 21.910433,47.0897 22.225965,47.335536 22.648679,47.335536 C 23.074381,47.335536 23.391415,47.0897 23.599774,46.598024 C 23.808128,46.10635 23.912306,45.359132 23.91231,44.356366 C 23.912306,43.350364 23.808128,42.601534 23.599774,42.109846 C 23.391415,41.618171 23.074381,41.372335 22.648679,41.372335 L 22.648679,41.372335 z M 22.648679,40.596004 C 23.365183,40.596004 23.907061,40.913009 24.274314,41.547004 C 24.641552,42.181014 24.825177,43.117472 24.825183,44.356366 C 24.825177,45.592024 24.641552,46.526857 24.274314,47.160867 C 23.907061,47.794864 23.365183,48.111868 22.648679,48.111868 C 21.932171,48.111868 21.391042,47.794864 21.025296,47.160867 C 20.659546,46.526857 20.476671,45.592024 20.476672,44.356366 C 20.476671,43.117472 20.659546,42.181014 21.025296,41.547004 C 21.391042,40.913009 21.932171,40.596004 22.648679,40.596004 L 22.648679,40.596004 z M 26.63294,47.146312 L 28.044971,47.146312 L 28.044971,41.610086 L 26.525014,41.978844 L 26.525014,41.086052 L 28.035976,40.727005 L 28.94435,40.727005 L 28.94435,47.146312 L 30.338394,47.146312 L 30.338394,47.971156 L 26.63294,47.971156 L 26.63294,47.146312 z M 32.636314,47.146312 L 35.721192,47.146312 L 35.721192,47.971156 L 31.642496,47.971156 L 31.642496,47.146312 C 32.203109,46.509065 32.693272,45.946224 33.112986,45.457785 C 33.532693,44.969348 33.821994,44.624842 33.980887,44.424282 C 34.280681,44.029653 34.483039,43.710225 34.58797,43.465998 C 34.692896,43.221787 34.745361,42.971901 34.745364,42.716355 C 34.745361,42.312029 34.635184,41.995025 34.414841,41.765355 C 34.194489,41.535684 33.892447,41.420863 33.508714,41.42085 C 33.235899,41.420863 32.949597,41.474225 32.649804,41.580978 C 32.35001,41.687729 32.032228,41.849453 31.696459,42.066178 L 31.696459,41.076358 C 32.005246,40.917856 32.308785,40.798174 32.607082,40.717297 C 32.905375,40.636433 33.199924,40.596004 33.490726,40.596004 C 34.147271,40.596004 34.675656,40.78443 35.075886,41.161269 C 35.476106,41.538123 35.676218,42.03222 35.676224,42.643576 C 35.676218,42.954109 35.609515,43.26464 35.476109,43.575174 C 35.342697,43.885706 35.126097,44.228587 34.826307,44.603814 C 34.658418,44.814082 34.414837,45.105196 34.095561,45.477188 C 33.776277,45.84918 33.289861,46.405549 32.636314,47.146312 L 32.636314,47.146312 z M 39.988759,44.094348 C 40.429451,44.220502 40.766719,44.444513 41.000563,44.766365 C 41.234396,45.088217 41.351318,45.490132 41.351322,45.972098 C 41.351318,46.638455 41.143709,47.161666 40.728501,47.541754 C 40.313279,47.921829 39.738427,48.111868 39.003935,48.111868 C 38.695144,48.111868 38.380361,48.081144 38.059585,48.019685 C 37.738804,47.958227 37.424019,47.869266 37.115234,47.75282 L 37.115234,46.777541 C 37.421022,46.948988 37.722315,47.076753 38.019113,47.160867 C 38.315907,47.244964 38.611204,47.287021 38.905003,47.287021 C 39.402658,47.287021 39.784894,47.165713 40.051714,46.923113 C 40.318528,46.680513 40.451936,46.33116 40.451938,45.875055 C 40.451936,45.45455 40.318528,45.120565 40.051714,44.873103 C 39.784894,44.625654 39.423644,44.501924 38.967959,44.501924 L 38.275435,44.501924 L 38.275435,43.696481 L 38.967959,43.696481 C 39.384671,43.696481 39.709946,43.597826 39.943789,43.400504 C 40.177625,43.203182 40.294545,42.928232 40.294549,42.575644 C 40.294545,42.203667 40.185869,41.918197 39.968523,41.719251 C 39.751168,41.52033 39.44163,41.420863 39.039912,41.42085 C 38.773092,41.420863 38.497282,41.45321 38.212477,41.517892 C 37.927672,41.582589 37.629379,41.67963 37.317597,41.809021 L 37.317597,40.906536 C 37.680345,40.803035 38.003372,40.725395 38.286678,40.673629 C 38.569982,40.621878 38.821061,40.596004 39.039912,40.596004 C 39.693457,40.596004 40.215846,40.773111 40.607084,41.127295 C 40.998309,41.48151 41.193926,41.951356 41.19393,42.536825 C 41.193926,42.934705 41.091246,43.266265 40.88589,43.531507 C 40.680528,43.79676 40.381485,43.984373 39.988759,44.094348 L 39.988759,44.094348 z M 45.344577,41.619782 L 43.226532,45.448077 L 45.344577,45.448077 L 45.344577,41.619782 z M 45.196177,40.727005 L 46.248455,40.727005 L 46.248455,45.448077 L 47.143339,45.448077 L 47.143339,46.243825 L 46.248455,46.243825 L 46.248455,47.971156 L 45.344577,47.971156 L 45.344577,46.243825 L 42.498034,46.243825 L 42.498034,45.317074 L 45.196177,40.727005 z M 48.510398,40.727005 L 51.910061,40.727005 L 51.910061,41.551865 L 49.337832,41.551865 L 49.337832,43.332574 C 49.46674,43.280822 49.596401,43.242814 49.726814,43.21855 C 49.857222,43.194285 49.98838,43.182167 50.120293,43.182154 C 50.815812,43.182167 51.367433,43.40374 51.775154,43.846886 C 52.18287,44.290045 52.38673,44.890097 52.386736,45.64701 C 52.38673,46.41041 52.173126,47.01206 51.745926,47.451983 C 51.318715,47.891905 50.734868,48.111868 49.994381,48.111868 C 49.637621,48.111868 49.311597,48.085992 49.016302,48.03424 C 48.721004,47.982478 48.456435,47.904851 48.222597,47.801335 L 48.222597,46.806653 C 48.498408,46.968392 48.775717,47.088887 49.054526,47.168139 C 49.33333,47.24739 49.618135,47.287021 49.908938,47.287021 C 50.409592,47.287021 50.795578,47.144686 51.066892,46.860029 C 51.338201,46.575371 51.47386,46.171032 51.473863,45.64701 C 51.47386,45.129461 51.333705,44.726734 51.053402,44.438839 C 50.77309,44.15096 50.38261,44.007013 49.881959,44.007013 C 49.639121,44.007013 49.402285,44.036939 49.171444,44.096772 C 48.940602,44.156621 48.720254,44.246377 48.510398,44.366061 L 48.510398,40.727005 z M 57.576167,40.88712 L 57.576167,41.789605 C 57.387294,41.669936 57.186431,41.578553 56.973583,41.515468 C 56.760725,41.452398 56.538876,41.420863 56.308039,41.42085 C 55.732433,41.420863 55.296232,41.654568 54.999439,42.121978 C 54.702642,42.589402 54.554242,43.277585 54.554245,44.186544 C 54.698144,43.863068 54.897509,43.614806 55.152334,43.441747 C 55.407156,43.268689 55.699454,43.182167 56.02923,43.182154 C 56.676783,43.182167 57.178187,43.396456 57.533446,43.825061 C 57.888696,44.253663 58.066324,44.860986 58.066329,45.64701 C 58.066324,46.429813 57.883451,47.036324 57.517707,47.466538 C 57.151955,47.896767 56.637809,48.111868 55.975268,48.111868 C 55.195802,48.111868 54.624695,47.81023 54.261946,47.206957 C 53.899195,46.603685 53.717819,45.653482 53.717819,44.356366 C 53.717819,43.133639 53.93592,42.201229 54.372121,41.559135 C 54.808317,40.917057 55.44013,40.596004 56.267568,40.596004 C 56.48941,40.596004 56.711259,40.62108 56.933109,40.671206 C 57.154953,40.721346 57.369304,40.793326 57.576167,40.88712 L 57.576167,40.88712 z M 55.95728,43.948791 C 55.570544,43.948791 55.266254,44.099209 55.044407,44.400033 C 54.822559,44.700858 54.711634,45.116516 54.711637,45.64701 C 54.711634,46.177505 54.822559,46.593165 55.044407,46.894002 C 55.266254,47.194825 55.570544,47.345245 55.95728,47.345245 C 56.359002,47.345245 56.661793,47.202111 56.865657,46.915827 C 57.069512,46.62956 57.171442,46.206617 57.171445,45.64701 C 57.171442,45.084169 57.069512,44.660426 56.865657,44.375769 C 56.661793,44.091113 56.359002,43.948791 55.95728,43.948791 L 55.95728,43.948791 z M 59.284994,40.727005 L 63.512088,40.727005 L 63.512088,41.144289 L 61.110738,47.971156 L 60.161889,47.971156 L 62.50028,41.551865 L 59.284994,41.551865 L 59.284994,40.727005 z M 66.97021,44.531036 C 66.565483,44.531036 66.252948,44.653156 66.032605,44.897368 C 65.812253,45.141593 65.702082,45.486896 65.702082,45.933278 C 65.702082,46.379674 65.813753,46.726603 66.0371,46.974051 C 66.260445,47.221512 66.571482,47.345245 66.97021,47.345245 C 67.377926,47.345245 67.691958,47.223123 67.912313,46.978913 C 68.132655,46.734687 68.242832,46.386146 68.242836,45.933278 C 68.242832,45.490132 68.131155,45.145628 67.907814,44.899791 C 67.684466,44.653953 67.371932,44.531036 66.97021,44.531036 L 66.97021,44.531036 z M 66.178751,44.123459 C 65.792016,44.016722 65.489974,43.817788 65.272626,43.526659 C 65.055273,43.235529 64.946599,42.884567 64.946599,42.473753 C 64.946599,41.897981 65.127976,41.441079 65.490727,41.103046 C 65.853476,40.765027 66.346638,40.596004 66.97021,40.596004 C 67.596774,40.596004 68.091433,40.765027 68.454189,41.103046 C 68.816934,41.441079 68.998308,41.897981 68.998313,42.473753 C 68.998308,42.884567 68.889635,43.235529 68.67229,43.526659 C 68.454936,43.817788 68.152892,44.016722 67.766159,44.123459 C 68.215847,44.23021 68.559862,44.445311 68.798204,44.768789 C 69.036534,45.092265 69.155702,45.511162 69.155708,46.025475 C 69.155702,46.678888 68.962338,47.189978 68.575606,47.558734 C 68.188868,47.927489 67.653734,48.111868 66.97021,48.111868 C 66.286676,48.111868 65.752294,47.928302 65.367063,47.561156 C 64.981827,47.194014 64.789211,46.68536 64.789211,46.035184 C 64.789211,45.517618 64.908375,45.096301 65.146712,44.771213 C 65.385046,44.446124 65.729062,44.23021 66.178751,44.123459 L 66.178751,44.123459 z M 65.850478,42.565935 C 65.850478,42.954109 65.946414,43.250086 66.13828,43.453866 C 66.330148,43.657662 66.607457,43.759565 66.97021,43.75955 C 67.335955,43.759565 67.614762,43.657662 67.806632,43.453866 C 67.998499,43.250086 68.094436,42.954109 68.094436,42.565935 C 68.094436,42.171319 67.999249,41.870482 67.808884,41.66345 C 67.618508,41.456446 67.338953,41.352932 66.97021,41.352919 C 66.607457,41.352932 66.330148,41.457246 66.13828,41.665888 C 65.946414,41.874531 65.850478,42.17454 65.850478,42.565935 L 65.850478,42.565935 z M 72.420462,44.75908 C 72.807192,44.75908 73.110736,44.608675 73.331085,44.307838 C 73.551432,44.007013 73.661603,43.591354 73.661609,43.06086 C 73.661603,42.530367 73.551432,42.114707 73.331085,41.813869 C 73.110736,41.513045 72.807192,41.36264 72.420462,41.362628 C 72.018738,41.36264 71.715944,41.505775 71.512086,41.792043 C 71.308222,42.078311 71.206295,42.501255 71.206298,43.06086 C 71.206295,43.623702 71.307474,44.047445 71.50984,44.332102 C 71.712196,44.616759 72.01574,44.75908 72.420462,44.75908 L 72.420462,44.75908 z M 70.801575,47.820738 L 70.801575,46.918253 C 70.990443,47.037949 71.191308,47.129318 71.404158,47.192403 C 71.617011,47.255471 71.83886,47.287021 72.069705,47.287021 C 72.645304,47.287021 73.080755,47.053303 73.376054,46.585892 C 73.671348,46.118468 73.818998,45.430283 73.819002,44.521327 C 73.678092,44.844804 73.480232,45.093065 73.225408,45.266122 C 72.970582,45.439181 72.678282,45.525718 72.348512,45.525718 C 71.700953,45.525718 71.199549,45.310602 70.844296,44.880387 C 70.48904,44.450173 70.311412,43.840427 70.311412,43.051153 C 70.311412,42.271584 70.493538,41.667498 70.857787,41.238895 C 71.222034,40.810306 71.73693,40.596004 72.402474,40.596004 C 73.181934,40.596004 73.753042,40.898453 74.115795,41.503336 C 74.478543,42.108236 74.659918,43.05925 74.659922,44.356366 C 74.659918,45.575856 74.441817,46.506642 74.005623,47.148734 C 73.569418,47.790828 72.936104,48.111868 72.10568,48.111868 C 71.886825,48.111868 71.666479,48.086805 71.44463,48.036664 C 71.222782,47.986524 71.008432,47.914544 70.801575,47.820738 L 70.801575,47.820738 z M 77.479483,42.813398 L 78.612705,42.813398 L 78.612705,44.283572 L 77.479483,44.283572 L 77.479483,42.813398 z M 77.479483,46.491273 L 78.612705,46.491273 L 78.612705,47.971156 L 77.479483,47.971156 L 77.479483,46.491273 z M 83.078133,46.500982 L 84.211354,46.500982 L 84.211354,47.505358 L 83.325468,49.363705 L 82.632942,49.363705 L 83.078133,47.505358 L 83.078133,46.500982 z M 83.019676,42.813398 L 84.152895,42.813398 L 84.152895,44.283572 L 83.019676,44.283572 L 83.019676,42.813398 z M 91.509838,43.308309 L 87.687473,44.86097 L 91.509838,46.399092 L 91.509838,47.287021 L 86.7566,45.258852 L 86.7566,44.453394 L 91.509838,42.425239 L 91.509838,43.308309 z M 92.296804,45.428673 L 97.050042,45.428673 L 97.050042,46.263227 L 92.296804,46.263227 L 92.296804,45.428673 z M 92.296804,43.458727 L 97.050042,43.458727 L 97.050042,44.283572 L 92.296804,44.283572 L 92.296804,43.458727 z M 97.836989,43.308309 L 97.836989,42.425239 L 102.59024,44.453394 L 102.59024,45.258852 L 97.836989,47.287021 L 97.836989,46.399092 L 101.65938,44.86097 L 97.836989,43.308309 z M 106.05734,46.025475 L 105.20293,46.025475 L 105.20293,45.278255 C 105.20292,44.96125 105.24864,44.691961 105.34009,44.470388 C 105.43152,44.248815 105.60315,44.005403 105.85498,43.740149 L 106.25971,43.308309 C 106.44557,43.117472 106.57373,42.950885 106.64419,42.80855 C 106.71464,42.666229 106.74987,42.515811 106.74987,42.357309 C 106.74987,42.069415 106.65168,41.836522 106.45532,41.658603 C 106.25895,41.480697 105.99738,41.391752 105.67061,41.391737 C 105.43676,41.391752 105.18644,41.447551 104.91962,41.559135 C 104.6528,41.670735 104.3725,41.836522 104.0787,42.056471 L 104.0787,41.144289 C 104.36051,40.959912 104.64456,40.822438 104.93085,40.731852 C 105.21717,40.641295 105.51622,40.596004 105.82802,40.596004 C 106.38562,40.596004 106.83005,40.751269 107.16133,41.061802 C 107.49261,41.372335 107.65825,41.787993 107.65825,42.308779 C 107.65825,42.554631 107.60802,42.783487 107.5076,42.995352 C 107.40717,43.207231 107.21604,43.461963 106.93424,43.75955 L 106.53851,44.176835 C 106.33165,44.390326 106.19975,44.565008 106.14278,44.700858 C 106.08583,44.83672 106.05734,45.003306 106.05734,45.200616 L 106.05734,45.428673 L 106.05734,46.025475 z M 105.17145,46.738734 L 106.08434,46.738734 L 106.08434,47.971156 L 105.17145,47.971156 L 105.17145,46.738734 z M 24.546374,57.748095 C 24.54637,57.330826 24.450434,56.996841 24.258573,56.746144 C 24.0667,56.49546 23.810377,56.370117 23.489601,56.370104 C 23.168819,56.370117 22.911745,56.49546 22.718381,56.746144 C 22.525012,56.996841 22.428329,57.330826 22.428331,57.748095 C 22.428329,58.168616 22.525012,58.504213 22.718381,58.754908 C 22.911745,59.005594 23.168819,59.130936 23.489601,59.130936 C 23.810377,59.130936 24.0667,59.005594 24.258573,58.754908 C 24.450434,58.504213 24.54637,58.168616 24.546374,57.748095 L 24.546374,57.748095 z M 25.175942,59.737446 L 24.528388,59.737446 L 24.528388,59.198869 C 24.417459,59.402662 24.263816,59.55954 24.067455,59.669514 C 23.871083,59.779502 23.649986,59.834489 23.40416,59.834489 C 22.921489,59.834489 22.522012,59.638791 22.205734,59.247383 C 21.88945,58.855987 21.731309,58.35623 21.73131,57.748095 C 21.731309,57.139976 21.88945,56.640205 22.205734,56.248809 C 22.522012,55.857401 22.921489,55.661703 23.40416,55.661703 C 23.643992,55.661703 23.864339,55.718316 24.065206,55.831525 C 24.266062,55.944749 24.420457,56.100016 24.528388,56.297324 L 24.528388,55.991638 C 24.528383,55.487033 24.396475,55.081071 24.132657,54.773774 C 23.868836,54.466478 23.519577,54.312835 23.084879,54.312821 C 22.347384,54.312835 21.760538,54.622555 21.324339,55.241997 C 20.888138,55.861449 20.670038,56.700053 20.670038,57.757804 C 20.670038,58.822029 20.917369,59.669514 21.412031,60.300289 C 21.906687,60.931061 22.564734,61.24644 23.386172,61.24644 C 23.548055,61.24644 23.709946,61.230273 23.871839,61.197926 C 24.033722,61.165579 24.200107,61.115439 24.370996,61.047507 L 24.586846,61.702545 C 24.397973,61.783407 24.211349,61.843256 24.026981,61.88206 C 23.842604,61.920881 23.663477,61.940285 23.489601,61.940298 C 22.419334,61.940285 21.570168,61.563445 20.9421,60.809753 C 20.314034,60.056075 20.000001,59.038755 20.000001,57.757804 C 20.000001,56.496258 20.281806,55.491881 20.845418,54.744663 C 21.409031,53.997442 22.16451,53.623839 23.111863,53.623825 C 23.738426,53.623839 24.239081,53.838939 24.613829,54.269155 C 24.988564,54.699384 25.175936,55.27678 25.175942,56.001346 L 25.175942,59.737446 z M 28.188869,54.011998 L 27.231028,57.718984 L 29.146711,57.718984 L 28.188869,54.011998 z M 27.640248,53.148332 L 28.741989,53.148332 L 30.797075,60.392483 L 29.857223,60.392483 L 29.362563,58.505024 L 27.01068,58.505024 L 26.525014,60.392483 L 25.585162,60.392483 L 27.640248,53.148332 z M 32.618324,56.932944 L 32.618324,59.58704 L 33.693087,59.58704 C 34.220721,59.58704 34.596961,59.487573 34.821808,59.288626 C 35.046652,59.089693 35.159075,58.762181 35.159079,58.30609 C 35.159075,57.83382 35.040653,57.48689 34.803822,57.265317 C 34.566981,57.043746 34.196737,56.932944 33.693087,56.932944 L 32.618324,56.932944 z M 32.618324,53.953775 L 32.618324,56.137211 L 33.675099,56.137211 C 34.112795,56.137211 34.429826,56.04664 34.626194,55.865485 C 34.822557,55.684357 34.920738,55.391603 34.920742,54.987262 C 34.920738,54.621742 34.824056,54.358115 34.630691,54.196375 C 34.437321,54.034651 34.118788,53.953775 33.675099,53.953775 L 32.618324,53.953775 z M 31.705453,53.148332 L 33.693087,53.148332 C 34.379611,53.148332 34.908747,53.308445 35.280493,53.628686 C 35.652235,53.948928 35.838107,54.401781 35.838112,54.987262 C 35.838107,55.430422 35.739924,55.779775 35.543564,56.035307 C 35.347195,56.290865 35.052647,56.450978 34.659921,56.515675 C 35.100617,56.586843 35.446126,56.789811 35.696458,57.124607 C 35.94678,57.459404 36.071947,57.88557 36.071951,58.403134 C 36.071947,59.059783 35.872583,59.555492 35.473863,59.890288 C 35.075132,60.225085 34.481539,60.392483 33.693087,60.392483 L 31.705453,60.392483 L 31.705453,53.148332 z M 41.32434,60.135312 C 41.093492,60.267939 40.856657,60.367407 40.613828,60.433727 C 40.370992,60.500034 40.113169,60.533194 39.840359,60.533194 C 38.979948,60.533194 38.312161,60.20487 37.836988,59.548222 C 37.361812,58.891573 37.124226,57.968058 37.124226,56.777679 C 37.124226,55.593772 37.363311,54.67107 37.841485,54.009575 C 38.319653,53.348078 38.985945,53.01733 39.840359,53.017317 C 40.113169,53.01733 40.370992,53.050476 40.613828,53.116783 C 40.856657,53.183102 41.093492,53.28257 41.32434,53.415198 L 41.32434,54.419575 C 41.102487,54.222265 40.864152,54.071846 40.609331,53.96833 C 40.354503,53.86483 40.098181,53.813064 39.840359,53.813064 C 39.249762,53.813064 38.807569,54.058902 38.513771,54.550576 C 38.219972,55.042263 38.073074,55.784622 38.073075,56.777679 C 38.073074,57.767512 38.219972,58.508261 38.513771,58.999934 C 38.807569,59.491608 39.249762,59.737446 39.840359,59.737446 C 40.104176,59.737446 40.362747,59.685696 40.616077,59.582179 C 40.869399,59.478678 41.105485,59.328258 41.32434,59.130936 L 41.32434,60.135312 z M 44,59.58704 C 44.764471,59.58704 45.298105,59.384059 45.600899,58.978093 C 45.903688,58.572142 46.055083,57.838668 46.055089,56.777679 C 46.055083,55.706995 45.904438,54.968672 45.603149,54.562707 C 45.301853,54.156757 44.767471,53.953775 44,53.953775 L 43.568297,53.953775 L 43.568297,59.58704 L 44,59.58704 z M 44.017988,53.148332 C 45.04328,53.148332 45.79876,53.442698 46.284429,54.031401 C 46.770091,54.620131 47.012922,55.535549 47.012928,56.777679 C 47.012922,58.01335 46.770091,58.924732 46.284429,59.511824 C 45.79876,60.09893 45.04328,60.392483 44.017988,60.392483 L 42.655426,60.392483 L 42.655426,53.148332 L 44.017988,53.148332 z M 48.46543,53.148332 L 52.449691,53.148332 L 52.449691,53.973178 L 49.373807,53.973178 L 49.373807,56.117793 L 52.314785,56.117793 L 52.314785,56.942653 L 49.373807,56.942653 L 49.373807,59.567624 L 52.535134,59.567624 L 52.535134,60.392483 L 48.46543,60.392483 L 48.46543,53.148332 z M 54.167512,53.148332 L 58.120293,53.148332 L 58.120293,53.973178 L 55.080384,53.973178 L 55.080384,56.108099 L 57.836987,56.108099 L 57.836987,56.932944 L 55.080384,56.932944 L 55.080384,60.392483 L 54.167512,60.392483 L 54.167512,53.148332 z M 63.62451,59.795669 C 63.381672,60.038285 63.108112,60.221849 62.803822,60.346378 C 62.499529,60.470923 62.170504,60.533194 61.816751,60.533194 C 60.965334,60.533194 60.302791,60.204056 59.829119,59.545797 C 59.355444,58.887523 59.118606,57.964821 59.118606,56.777679 C 59.118606,55.593772 59.358443,54.67107 59.838111,54.009575 C 60.317782,53.348078 60.98482,53.01733 61.839235,53.017317 C 62.121038,53.01733 62.390854,53.060185 62.648682,53.145894 C 62.906498,53.231633 63.155326,53.361822 63.395167,53.53649 L 63.395167,54.540868 C 63.15233,54.291807 62.9035,54.108229 62.648682,53.990156 C 62.393849,53.872101 62.124037,53.813064 61.839235,53.813064 C 61.248639,53.813064 60.805695,54.059715 60.5104,54.552999 C 60.215102,55.046299 60.067453,55.787857 60.067455,56.777679 C 60.067453,57.78368 60.210605,58.528477 60.496909,59.012067 C 60.78321,59.495657 61.223157,59.737446 61.816751,59.737446 C 62.01761,59.737446 62.19374,59.712383 62.34514,59.662243 C 62.496529,59.612104 62.633688,59.533665 62.756606,59.426913 L 62.756606,57.481232 L 61.780775,57.481232 L 61.780775,56.675788 L 63.62451,56.675788 L 63.62451,59.795669 z M 64.81619,53.148332 L 65.729062,53.148332 L 65.729062,56.117793 L 68.215852,56.117793 L 68.215852,53.148332 L 69.128727,53.148332 L 69.128727,60.392483 L 68.215852,60.392483 L 68.215852,56.942653 L 65.729062,56.942653 L 65.729062,60.392483 L 64.81619,60.392483 L 64.81619,53.148332 z M 70.64418,53.148332 L 74.37212,53.148332 L 74.37212,53.973178 L 72.964585,53.973178 L 72.964585,59.567624 L 74.37212,59.567624 L 74.37212,60.392483 L 70.64418,60.392483 L 70.64418,59.567624 L 72.051716,59.567624 L 72.051716,53.973178 L 70.64418,53.973178 L 70.64418,53.148332 z M 75.770659,60.096506 L 75.770659,58.951406 C 76.043472,59.213425 76.325278,59.409934 76.616079,59.540935 C 76.906878,59.671952 77.208167,59.737446 77.519958,59.737446 C 77.948658,59.737446 78.247705,59.61695 78.417093,59.375975 C 78.586471,59.134985 78.671161,58.686166 78.671165,58.029518 L 78.671165,53.973178 L 76.957844,53.973178 L 76.957844,53.148332 L 79.579542,53.148332 L 79.579542,58.029518 C 79.579538,58.941711 79.421394,59.58704 79.105118,59.96549 C 78.788831,60.343956 78.260443,60.533194 77.519958,60.533194 C 77.232151,60.533194 76.945849,60.497609 76.661045,60.426442 C 76.37624,60.355273 76.079448,60.2453 75.770659,60.096506 L 75.770659,60.096506 z M 81.436763,53.148332 L 82.349638,53.148332 L 82.349638,56.370104 L 85.187182,53.148332 L 86.252947,53.148332 L 83.640252,56.108099 L 86.329398,60.392483 L 85.232153,60.392483 L 83.042163,56.763121 L 82.349638,57.558871 L 82.349638,60.392483 L 81.436763,60.392483 L 81.436763,53.148332 z M 87.327709,53.148332 L 88.240584,53.148332 L 88.240584,59.567624 L 91.482863,59.567624 L 91.482863,60.392483 L 87.327709,60.392483 L 87.327709,53.148332 z M 92.28781,53.148332 L 93.50197,53.148332 L 94.662174,56.835902 L 95.831373,53.148332 L 97.050042,53.148332 L 97.050042,60.392483 L 96.209098,60.392483 L 96.209098,53.992595 L 95.012928,57.81118 L 94.324904,57.81118 L 93.124226,53.992595 L 93.124226,60.392483 L 92.28781,60.392483 L 92.28781,53.148332 z M 98.066329,53.148332 L 99.217538,53.148332 L 101.484,59.111533 L 101.484,53.148332 L 102.36088,53.148332 L 102.36088,60.392483 L 101.20967,60.392483 L 98.943218,54.429283 L 98.943218,60.392483 L 98.066329,60.392483 L 98.066329,53.148332 z M 107.05116,56.777679 C 107.05114,55.713468 106.94997,54.953305 106.74762,54.4972 C 106.54525,54.041109 106.21323,53.813064 105.75156,53.813064 C 105.29286,53.813064 104.96234,54.041109 104.75998,54.4972 C 104.55763,54.953305 104.45645,55.713468 104.45645,56.777679 C 104.45645,57.838668 104.55763,58.597206 104.75998,59.053311 C 104.96234,59.5094 105.29286,59.737446 105.75156,59.737446 C 106.21323,59.737446 106.54525,59.510213 106.74762,59.055735 C 106.94997,58.601254 107.05114,57.841904 107.05116,56.777679 L 107.05116,56.777679 z M 108,56.777679 C 108,58.039227 107.81489,58.980531 107.44464,59.601597 C 107.07439,60.22266 106.51002,60.533194 105.75156,60.533194 C 104.99308,60.533194 104.42947,60.224272 104.06071,59.606444 C 103.69197,58.988615 103.50758,58.045698 103.50758,56.777679 C 103.50758,55.512909 103.69272,54.569993 104.06295,53.948913 C 104.43321,53.327863 104.99606,53.01733 105.75156,53.017317 C 106.51002,53.01733 107.07439,53.327863 107.44464,53.948913 C 107.81489,54.569993 108,55.512909 108,56.777679 L 108,56.777679 z M 21.672851,66.375087 L 21.672851,69.097115 L 22.725128,69.097115 C 23.144836,69.097115 23.472358,68.977432 23.707701,68.738055 C 23.943036,68.498689 24.060704,68.163893 24.060709,67.733678 C 24.060704,67.303462 23.943787,66.969479 23.70995,66.731725 C 23.476106,66.493971 23.147833,66.375102 22.725128,66.375087 L 21.672851,66.375087 z M 20.764476,65.569644 L 22.725128,65.569644 C 23.474607,65.569659 24.042716,65.753225 24.429456,66.120355 C 24.816184,66.487499 25.009551,67.025279 25.009557,67.733678 C 25.009551,68.448549 24.816933,68.988754 24.431702,69.354272 C 24.046464,69.719792 23.477603,69.902558 22.725128,69.902558 L 21.672851,69.902558 L 21.672851,72.813795 L 20.764476,72.813795 L 20.764476,65.569644 z M 28.36425,72.94481 C 28.343262,72.94481 28.313282,72.946423 28.274313,72.949659 C 28.235335,72.952895 28.203856,72.954507 28.179877,72.954507 C 27.430391,72.954507 26.870526,72.643973 26.50028,72.02291 C 26.130033,71.401844 25.944912,70.460538 25.944912,69.199006 C 25.944912,67.934236 26.130033,66.991305 26.50028,66.370239 C 26.870526,65.749175 27.433388,65.438643 28.188869,65.438643 C 28.947346,65.438643 29.511707,65.749175 29.881957,66.370239 C 30.252198,66.991305 30.43732,67.934236 30.437326,69.199006 C 30.43732,70.150006 30.33464,70.915829 30.129286,71.496463 C 29.923923,72.077097 29.612888,72.48386 29.196178,72.716753 L 30.095558,73.638656 L 29.416526,74.123857 L 28.36425,72.94481 z M 29.488476,69.199006 C 29.488472,68.13478 29.387292,67.37463 29.184936,66.918526 C 28.982571,66.462437 28.65055,66.234391 28.188869,66.234378 C 27.730182,66.234391 27.399661,66.462437 27.197302,66.918526 C 26.994939,67.37463 26.893758,68.13478 26.893761,69.199006 C 26.893758,70.259994 26.994939,71.018533 27.197302,71.474623 C 27.399661,71.930728 27.730182,72.158772 28.188869,72.158772 C 28.65055,72.158772 28.982571,71.931526 29.184936,71.477047 C 29.387292,71.02258 29.488472,70.26323 29.488476,69.199006 L 29.488476,69.199006 z M 34.376618,69.393092 C 34.610453,69.457787 34.809813,69.579893 34.974705,69.759423 C 35.139588,69.93894 35.344946,70.297189 35.590781,70.834156 L 36.503654,72.813795 L 35.527825,72.813795 L 34.727376,70.984574 C 34.496532,70.463775 34.288923,70.128179 34.104554,69.977759 C 33.920175,69.827355 33.679592,69.752139 33.382799,69.752139 L 32.514898,69.752139 L 32.514898,72.813795 L 31.602025,72.813795 L 31.602025,65.569644 L 33.472738,65.569644 C 34.210226,65.569659 34.775338,65.749175 35.168073,66.108223 C 35.560798,66.467284 35.757161,66.986458 35.757167,67.665747 C 35.757161,68.144488 35.636496,68.535085 35.395167,68.83752 C 35.153828,69.139971 34.814311,69.325159 34.376618,69.393092 L 34.376618,69.393092 z M 32.514898,66.375087 L 32.514898,68.946695 L 33.508714,68.946695 C 33.943411,68.946695 34.267189,68.84157 34.480046,68.631301 C 34.692896,68.421064 34.799321,68.099197 34.799325,67.665747 C 34.799321,67.248476 34.686149,66.929048 34.45981,66.707461 C 34.233461,66.485887 33.904438,66.375102 33.472738,66.375087 L 32.514898,66.375087 z M 41.050029,65.817106 L 41.050029,66.811775 C 40.774213,66.620939 40.497653,66.476991 40.220351,66.379948 C 39.943037,66.282906 39.663478,66.234391 39.381676,66.234378 C 38.952967,66.234391 38.6142,66.341941 38.365375,66.557042 C 38.116544,66.772156 37.99213,67.062474 37.992131,67.427994 C 37.99213,67.748233 38.073822,67.992459 38.237212,68.160656 C 38.400598,68.328867 38.705638,68.469576 39.152335,68.582788 L 39.629007,68.699234 C 40.258568,68.85775 40.717253,69.106822 41.00506,69.446452 C 41.292856,69.786111 41.436758,70.248674 41.436763,70.834156 C 41.436758,71.523152 41.238893,72.048785 40.84317,72.411081 C 40.447437,72.773365 39.871834,72.954507 39.116358,72.954507 C 38.801572,72.954507 38.48529,72.918124 38.167511,72.845346 C 37.849727,72.772552 37.530448,72.663392 37.20967,72.51782 L 37.20967,71.474623 C 37.554431,71.710766 37.880455,71.883824 38.187746,71.993798 C 38.495033,72.103785 38.804569,72.158772 39.116358,72.158772 C 39.575041,72.158772 39.931794,72.047986 40.186622,71.826399 C 40.441443,71.604826 40.568855,71.295106 40.568859,70.897226 C 40.568855,70.534943 40.481164,70.258382 40.305791,70.067519 C 40.130409,69.876682 39.825369,69.7295 39.390669,69.625985 L 38.905003,69.504677 C 38.281431,69.352659 37.828742,69.12299 37.546936,68.815693 C 37.265129,68.508398 37.124226,68.095962 37.124226,67.578411 C 37.124226,66.93147 37.32584,66.41311 37.729062,66.023311 C 38.132284,65.633543 38.668164,65.438643 39.336706,65.438643 C 39.594527,65.438643 39.865839,65.470191 40.150647,65.533262 C 40.435448,65.596346 40.735242,65.690952 41.050029,65.817106 L 41.050029,65.817106 z M 42.250704,65.569644 L 47.372681,65.569644 L 47.372681,66.394504 L 45.272627,66.394504 L 45.272627,72.813795 L 44.359753,72.813795 L 44.359753,66.394504 L 42.250704,66.394504 L 42.250704,65.569644 z M 48.240587,70.033559 L 48.240587,65.569644 L 49.153457,65.569644 L 49.153457,70.479955 C 49.153456,70.832544 49.162449,71.084041 49.180439,71.234445 C 49.198425,71.384864 49.229903,71.500513 49.274875,71.581374 C 49.370807,71.772225 49.50946,71.916171 49.690838,72.013215 C 49.872211,72.110243 50.091809,72.158772 50.349636,72.158772 C 50.610453,72.158772 50.830803,72.110243 51.010679,72.013215 C 51.190554,71.916171 51.329957,71.772225 51.428893,71.581374 C 51.47386,71.500513 51.505337,71.385677 51.523328,71.23687 C 51.541311,71.088074 51.550305,70.839001 51.550311,70.48965 L 51.550311,70.033559 L 51.550311,65.569644 L 52.458686,65.569644 L 52.458686,70.033559 C 52.45868,70.774306 52.41596,71.300765 52.330525,71.612909 C 52.245078,71.925065 52.097427,72.183036 51.887579,72.386818 C 51.689709,72.577668 51.463365,72.719988 51.208544,72.813795 C 50.953716,72.907603 50.667415,72.954507 50.349636,72.954507 C 50.03485,72.954507 49.750046,72.907603 49.495221,72.813795 C 49.240396,72.719988 49.012552,72.577668 48.811692,72.386818 C 48.604834,72.186273 48.457935,71.926679 48.370997,71.608063 C 48.284053,71.289446 48.240584,70.764611 48.240587,70.033559 L 48.240587,70.033559 z M 55.889827,71.98895 L 57.468241,65.569644 L 58.408095,65.569644 L 56.442946,72.813795 L 55.341204,72.813795 L 53.376056,65.569644 L 54.315908,65.569644 L 55.889827,71.98895 z M 58.659922,65.569644 L 59.545811,65.569644 L 60.188871,71.450373 L 60.953344,67.558994 L 61.902194,67.558994 L 62.675663,71.460067 L 63.318719,65.569644 L 64.204608,65.569644 L 63.201798,72.813795 L 62.34289,72.813795 L 61.430016,68.510008 L 60.521642,72.813795 L 59.662734,72.813795 L 58.659922,65.569644 z M 64.586846,65.569644 L 65.562676,65.569644 L 67.037663,68.301367 L 68.539631,65.569644 L 69.515461,65.569644 L 67.505342,68.975807 L 69.659363,72.813795 L 68.683532,72.813795 L 67.037663,69.693915 L 65.261386,72.813795 L 64.281058,72.813795 L 66.529513,68.975807 L 64.586846,65.569644 z M 69.906694,65.569644 L 70.873528,65.569644 L 72.510399,68.767167 L 74.142779,65.569644 L 75.118606,65.569644 L 72.964585,69.562913 L 72.964585,72.813795 L 72.051716,72.813795 L 72.051716,69.562913 L 69.906694,65.569644 z M 76.080945,65.569644 L 80.43845,65.569644 L 80.43845,66.316864 L 76.930859,71.98895 L 80.537385,71.98895 L 80.537385,72.813795 L 75.982014,72.813795 L 75.982014,72.066576 L 79.395166,66.394504 L 76.080945,66.394504 L 76.080945,65.569644 z M 82.902756,65.263959 L 84.809452,65.263959 L 84.809452,65.957817 L 83.730183,65.957817 L 83.730183,73.430014 L 84.809452,73.430014 L 84.809452,74.123857 L 82.902756,74.123857 L 82.902756,65.263959 z M 87.678479,65.569644 L 91.21304,73.735699 L 90.358626,73.735699 L 86.819559,65.569644 L 87.678479,65.569644 z M 95.363698,65.263959 L 95.363698,74.123857 L 93.456999,74.123857 L 93.456999,73.430014 L 94.536256,73.430014 L 94.536256,65.957817 L 93.456999,65.957817 L 93.456999,65.263959 L 95.363698,65.263959 z M 100.61158,65.569644 L 102.66217,68.272255 L 101.86173,68.272255 L 100.21136,66.355686 L 98.565498,68.272255 L 97.765036,68.272255 L 99.815639,65.569644 L 100.61158,65.569644 z M 107.58629,74.769186 L 107.58629,75.157359 L 102.98146,75.157359 L 102.98146,74.769186 L 107.58629,74.769186 z M 22.023609,77.28742 L 23.28724,79.111795 L 22.594717,79.111795 L 21.133221,77.28742 L 22.023609,77.28742 z M 28.575605,82.5034 L 28.301293,82.5034 C 27.818623,82.5034 27.455123,82.594783 27.210792,82.777551 C 26.966457,82.960303 26.844293,83.232829 26.844293,83.595126 C 26.844293,83.921825 26.93573,84.175745 27.118605,84.356901 C 27.301478,84.538042 27.554805,84.628612 27.878583,84.628612 C 28.334267,84.628612 28.69252,84.457977 28.953345,84.116723 C 29.214162,83.775453 29.346069,83.303995 29.349072,82.702335 L 29.349072,82.5034 L 28.575605,82.5034 z M 30.180999,82.134644 L 30.180999,85.235124 L 29.349072,85.235124 L 29.349072,84.429679 C 29.172192,84.753141 28.949595,84.991708 28.681282,85.145364 C 28.412964,85.299005 28.086937,85.375833 27.703205,85.375833 C 27.190555,85.375833 26.781337,85.219754 26.475549,84.90761 C 26.169756,84.595453 26.016863,84.17737 26.016863,83.653348 C 26.016863,83.048451 26.204982,82.589124 26.581224,82.275357 C 26.957466,81.961587 27.509835,81.804709 28.238336,81.804694 L 29.349072,81.804694 L 29.349072,81.663997 C 29.346069,81.230548 29.244141,80.915967 29.043284,80.720256 C 28.842419,80.524558 28.521639,80.426717 28.080944,80.426717 C 27.799136,80.426717 27.514332,80.470382 27.226531,80.557718 C 26.938729,80.645067 26.658421,80.772835 26.38561,80.94103 L 26.38561,80.048252 C 26.691398,79.922097 26.984448,79.827492 27.264756,79.764407 C 27.545061,79.701337 27.817124,79.669789 28.080944,79.669789 C 28.497654,79.669789 28.853661,79.736109 29.148961,79.868722 C 29.444253,80.001349 29.683338,80.200283 29.866218,80.465536 C 29.980134,80.627276 30.061078,80.827006 30.10905,81.06476 C 30.157012,81.302514 30.180995,81.659153 30.180999,82.134644 L 30.180999,82.134644 z M 35.087126,82.522818 C 35.087124,81.830584 34.985194,81.308174 34.781339,80.955587 C 34.577474,80.603012 34.276184,80.426717 33.87746,80.426717 C 33.475732,80.426717 33.171442,80.603824 32.964588,80.95801 C 32.757728,81.312222 32.6543,81.833821 32.654301,82.522818 C 32.6543,83.208578 32.757728,83.729363 32.964588,84.085174 C 33.171442,84.441 33.475732,84.618904 33.87746,84.618904 C 34.276184,84.618904 34.577474,84.442611 34.781339,84.090035 C 34.985194,83.737447 35.087124,83.215037 35.087126,82.522818 L 35.087126,82.522818 z M 32.654301,80.494633 C 32.786208,80.229394 32.968334,80.025612 33.200677,79.883277 C 33.433015,79.740956 33.702079,79.669789 34.007869,79.669789 C 34.613449,79.669789 35.090121,79.921301 35.437886,80.424293 C 35.785643,80.927288 35.959524,81.620331 35.959527,82.5034 C 35.959524,83.399429 35.784894,84.102167 35.435638,84.611634 C 35.086373,85.1211 34.607454,85.375833 33.998875,85.375833 C 33.699079,85.375833 33.434511,85.305478 33.205172,85.164767 C 32.975828,85.024057 32.792204,84.819464 32.654301,84.550975 L 32.654301,85.235124 L 31.826869,85.235124 L 31.826869,77.685286 L 32.654301,77.685286 L 32.654301,80.494633 z M 41.270377,84.958562 C 41.048527,85.097649 40.819933,85.201962 40.584597,85.271519 C 40.349256,85.341062 40.108672,85.375833 39.862845,85.375833 C 39.083378,85.375833 38.474048,85.123523 38.034852,84.618904 C 37.595651,84.114299 37.376054,83.415594 37.376054,82.522818 C 37.376054,81.630026 37.595651,80.931337 38.034852,80.426717 C 38.474048,79.922097 39.083378,79.669789 39.862845,79.669789 C 40.105675,79.669789 40.342512,79.703761 40.573357,79.771679 C 40.804193,79.83961 41.036534,79.944751 41.270377,80.087073 L 41.270377,81.023516 C 41.051524,80.813264 40.831924,80.661234 40.611579,80.567427 C 40.391227,80.473619 40.141649,80.426717 39.862845,80.426717 C 39.344199,80.426717 38.945472,80.607858 38.666668,80.970141 C 38.387859,81.332437 38.248453,81.849989 38.248454,82.522818 C 38.248453,83.192398 38.388608,83.709148 38.668915,84.073056 C 38.94922,84.43695 39.347197,84.618904 39.862845,84.618904 C 40.150644,84.618904 40.408467,84.571202 40.636313,84.475771 C 40.864152,84.380352 41.075505,84.232359 41.270377,84.031812 L 41.270377,84.958562 z M 45.897697,80.494633 L 45.897697,77.685286 L 46.725127,77.685286 L 46.725127,85.235124 L 45.897697,85.235124 L 45.897697,84.550975 C 45.759786,84.819464 45.576163,85.024057 45.346823,85.164767 C 45.11748,85.305478 44.852911,85.375833 44.553121,85.375833 C 43.944537,85.375833 43.465616,85.1211 43.116356,84.611634 C 42.767096,84.102167 42.592467,83.399429 42.592467,82.5034 C 42.592467,81.620331 42.767847,80.927288 43.118606,80.424293 C 43.469364,79.921301 43.947535,79.669789 44.553121,79.669789 C 44.855909,79.669789 45.122725,79.740144 45.353569,79.880854 C 45.584408,80.021565 45.765784,80.226158 45.897697,80.494633 L 45.897697,80.494633 z M 43.464869,82.522818 C 43.464867,83.215037 43.566797,83.737447 43.770657,84.090035 C 43.974516,84.442611 44.275809,84.618904 44.674536,84.618904 C 45.073259,84.618904 45.376801,84.441 45.585161,84.085174 C 45.793514,83.729363 45.897694,83.208578 45.897697,82.522818 C 45.897694,81.833821 45.793514,81.312222 45.585161,80.95801 C 45.376801,80.603824 45.073259,80.426717 44.674536,80.426717 C 44.275809,80.426717 43.974516,80.603012 43.770657,80.955587 C 43.566797,81.308174 43.464867,81.830584 43.464869,82.522818 L 43.464869,82.522818 z M 52.580102,82.294757 L 52.580102,82.731445 L 48.996064,82.731445 L 48.996064,82.760557 C 48.996064,83.352526 49.139216,83.810225 49.425521,84.133703 C 49.711821,84.457166 50.115794,84.618904 50.637438,84.618904 C 50.901254,84.618904 51.177064,84.573628 51.464868,84.483056 C 51.752666,84.392484 52.059955,84.25501 52.386736,84.070633 L 52.386736,84.958562 C 52.071946,85.097649 51.768406,85.201962 51.47611,85.271519 C 51.183808,85.341062 50.901254,85.375833 50.628442,85.375833 C 49.845981,85.375833 49.2344,85.12271 48.793705,84.616481 C 48.353007,84.11025 48.132661,83.412359 48.132661,82.522818 C 48.132661,81.655902 48.348509,80.963683 48.780216,80.446119 C 49.211915,79.92857 49.78752,79.669789 50.507026,79.669789 C 51.148582,79.669789 51.654485,79.904306 52.024734,80.373341 C 52.394975,80.842376 52.580096,81.482857 52.580102,82.294757 L 52.580102,82.294757 z M 51.75267,82.032755 C 51.740675,81.508733 51.626005,81.110054 51.408658,80.836715 C 51.191303,80.563378 50.878768,80.426717 50.471053,80.426717 C 50.072323,80.426717 49.74405,80.569039 49.486228,80.853696 C 49.228404,81.138352 49.075508,81.532997 49.027544,82.037602 L 51.75267,82.032755 z M 57.899944,77.685286 L 57.899944,78.427659 L 56.96009,78.427659 C 56.663291,78.427659 56.457181,78.493166 56.341766,78.624168 C 56.226342,78.755184 56.168632,78.987263 56.168635,79.320437 L 56.168635,79.80079 L 57.899944,79.80079 L 57.899944,80.494633 L 56.168635,80.494633 L 56.168635,85.235124 L 55.341204,85.235124 L 55.341204,80.494633 L 53.996629,80.494633 L 53.996629,79.80079 L 55.341204,79.80079 L 55.341204,79.422326 C 55.341201,78.82715 55.467863,78.388852 55.721192,78.107418 C 55.974516,77.826011 56.369492,77.685299 56.906128,77.685286 L 57.899944,77.685286 z M 62.518269,82.474289 C 62.518265,81.804709 62.417084,81.296042 62.214727,80.948316 C 62.012365,80.600587 61.717817,80.426717 61.331087,80.426717 C 60.926361,80.426717 60.617574,80.600587 60.404721,80.948316 C 60.191869,81.296042 60.08544,81.804709 60.085442,82.474289 C 60.08544,83.143883 60.192617,83.654161 60.406972,84.005124 C 60.621321,84.356088 60.932357,84.53157 61.34008,84.53157 C 61.720814,84.53157 62.012365,84.355277 62.214727,84.002687 C 62.417084,83.650112 62.518265,83.140646 62.518269,82.474289 L 62.518269,82.474289 z M 63.345698,84.885772 C 63.345694,85.70092 63.167321,86.318751 62.810568,86.73927 C 62.45381,87.159777 61.929173,87.370029 61.23665,87.370029 C 61.008805,87.370029 60.770469,87.347391 60.521642,87.302112 C 60.272814,87.25682 60.023983,87.190514 59.775157,87.103178 L 59.775157,86.220097 C 60.068951,86.368891 60.335769,86.478878 60.575606,86.550031 C 60.815438,86.621198 61.035787,86.656784 61.23665,86.656784 C 61.68334,86.656784 62.008618,86.525781 62.212478,86.263762 C 62.416334,86.001745 62.518265,85.586086 62.518269,85.016772 L 62.518269,84.977965 L 62.518269,84.371457 C 62.386357,84.675516 62.20648,84.901952 61.978641,85.050745 C 61.750795,85.199538 61.473485,85.273942 61.146712,85.273942 C 60.559112,85.273942 60.089938,85.020008 59.739181,84.512167 C 59.388421,84.004313 59.213042,83.325024 59.213042,82.474289 C 59.213042,81.620331 59.388421,80.939419 59.739181,80.431565 C 60.089938,79.923723 60.559112,79.669789 61.146712,79.669789 C 61.470487,79.669789 61.744801,79.739344 61.969648,79.878431 C 62.194489,80.017531 62.377361,80.232631 62.518269,80.523745 L 62.518269,79.820207 L 63.345698,79.820207 L 63.345698,84.885772 z M 68.926364,81.86778 L 68.926364,85.235124 L 68.094436,85.235124 L 68.094436,81.86778 C 68.094436,81.379343 68.014989,81.020294 67.856102,80.790626 C 67.697204,80.560955 67.448376,80.446119 67.109617,80.446119 C 66.722875,80.446119 66.425332,80.594115 66.216977,80.890093 C 66.008619,81.186068 65.904438,81.610623 65.904443,82.163756 L 65.904443,85.235124 L 65.077012,85.235124 L 65.077012,77.685286 L 65.904443,77.685286 L 65.904443,80.615942 C 66.05134,80.305422 66.2507,80.070093 66.50253,79.909966 C 66.754356,79.749853 67.052649,79.669789 67.397418,79.669789 C 67.910062,79.669789 68.293043,79.851742 68.546375,80.215651 C 68.7997,80.579559 68.92636,81.130267 68.926364,81.86778 L 68.926364,81.86778 z M 70.891515,79.80079 L 73.00956,79.80079 L 73.00956,84.541278 L 74.650927,84.541278 L 74.650927,85.235124 L 70.540753,85.235124 L 70.540753,84.541278 L 72.182127,84.541278 L 72.182127,80.494633 L 70.891515,80.494633 L 70.891515,79.80079 z M 72.182127,77.685286 L 73.00956,77.685286 L 73.00956,78.815817 L 72.182127,78.815817 L 72.182127,77.685286 z M 77.978641,85.332166 L 77.978641,80.494633 L 76.553122,80.494633 L 76.553122,79.80079 L 78.806075,79.80079 L 78.806075,85.332166 C 78.80607,85.96294 78.671909,86.448954 78.403599,86.790208 C 78.13528,87.131478 77.753794,87.302112 77.259135,87.302112 L 76.116923,87.302112 L 76.116923,86.545185 L 77.169198,86.545185 C 77.439008,86.545185 77.64137,86.444092 77.776277,86.241923 C 77.911184,86.039754 77.978641,85.736504 77.978641,85.332166 L 77.978641,85.332166 z M 77.978641,77.685286 L 78.806075,77.685286 L 78.806075,78.815817 L 77.978641,78.815817 L 77.978641,77.685286 z M 81.881958,77.685286 L 82.736373,77.685286 L 82.736373,82.057019 L 84.908383,79.80079 L 85.915678,79.80079 L 83.932547,81.848377 L 86.225975,85.235124 L 85.214166,85.235124 L 83.352453,82.430622 L 82.736373,83.056533 L 82.736373,85.235124 L 81.881958,85.235124 L 81.881958,77.685286 z M 89.234408,83.265176 C 89.234408,83.666292 89.302611,83.968728 89.439009,84.172522 C 89.575407,84.376304 89.777018,84.478193 90.04385,84.478193 L 91.01069,84.478193 L 91.01069,85.235124 L 89.962903,85.235124 C 89.468244,85.235124 89.085256,85.063676 88.813936,84.720809 C 88.542636,84.37793 88.406976,83.892713 88.406976,83.265176 L 88.406976,78.330615 L 87.080379,78.330615 L 87.080379,77.63191 L 89.234408,77.63191 L 89.234408,83.265176 z M 94.940982,80.353936 C 95.042911,80.121031 95.172568,79.948787 95.329966,79.837188 C 95.487353,79.725587 95.676968,79.669789 95.89882,79.669789 C 96.303539,79.669789 96.589086,79.838811 96.755488,80.17683 C 96.921869,80.514863 97.005062,81.151297 97.005071,82.086131 L 97.005071,85.235124 L 96.249573,85.235124 L 96.249573,82.124936 C 96.249573,81.358313 96.209847,80.882008 96.130406,80.696006 C 96.050954,80.510016 95.906318,80.417008 95.696453,80.417008 C 95.456632,80.417008 95.292493,80.516474 95.204048,80.715408 C 95.115602,80.914357 95.071389,81.384191 95.071399,82.124936 L 95.071399,85.235124 L 94.315911,85.235124 L 94.315911,82.124936 C 94.3159,81.348619 94.273183,80.869876 94.187748,80.68872 C 94.102305,80.507593 93.948666,80.417008 93.726813,80.417008 C 93.507963,80.417008 93.35582,80.516474 93.270376,80.715408 C 93.184931,80.914357 93.142214,81.384191 93.142214,82.124936 L 93.142214,85.235124 L 92.391242,85.235124 L 92.391242,79.80079 L 93.142214,79.80079 L 93.142214,80.26659 C 93.24114,80.072518 93.364804,79.924522 93.513208,79.822631 C 93.66161,79.720741 93.830247,79.669789 94.019124,79.669789 C 94.246958,79.669789 94.436574,79.7264 94.587969,79.83961 C 94.739364,79.952835 94.857035,80.124268 94.940982,80.353936 L 94.940982,80.353936 z M 102.16752,81.86778 L 102.16752,85.235124 L 101.33558,85.235124 L 101.33558,81.86778 C 101.33558,81.379343 101.25614,81.020294 101.09726,80.790626 C 100.93836,80.560955 100.68952,80.446119 100.35077,80.446119 C 99.964028,80.446119 99.666488,80.594115 99.458128,80.890093 C 99.249758,81.186068 99.145589,81.610623 99.145589,82.163756 L 99.145589,85.235124 L 98.318169,85.235124 L 98.318169,79.80079 L 99.145589,79.80079 L 99.145589,80.615942 C 99.292488,80.305422 99.491858,80.070093 99.743679,79.909966 C 99.995518,79.749853 100.29379,79.669789 100.63856,79.669789 C 101.15121,79.669789 101.5342,79.851742 101.78752,80.215651 C 102.04085,80.579559 102.16751,81.130267 102.16752,81.86778 L 102.16752,81.86778 z M 105.75156,80.426717 C 105.33185,80.426717 105.01405,80.603012 104.79821,80.955587 C 104.58236,81.308174 104.47444,81.830584 104.47444,82.522818 C 104.47444,83.211801 104.58236,83.733413 104.79821,84.087598 C 105.01405,84.44181 105.33185,84.618904 105.75156,84.618904 C 106.17426,84.618904 106.49354,84.44181 106.70939,84.087598 C 106.92525,83.733413 107.03317,83.211801 107.03317,82.522818 C 107.03317,81.830584 106.92525,81.308174 106.70939,80.955587 C 106.49354,80.603012 106.17426,80.426717 105.75156,80.426717 L 105.75156,80.426717 z M 105.75156,79.669789 C 106.45006,79.669789 106.98446,79.914014 107.35472,80.402453 C 107.72495,80.890905 107.91007,81.597694 107.91007,82.522818 C 107.91007,83.451178 107.7257,84.158766 107.35696,84.645592 C 106.98821,85.132419 106.45307,85.375833 105.75156,85.375833 C 105.05303,85.375833 104.5194,85.132419 104.15066,84.645592 C 103.7819,84.158766 103.59754,83.451178 103.59754,82.522818 C 103.59754,81.597694 103.7819,80.890905 104.15066,80.402453 C 104.5194,79.914014 105.05303,79.669789 105.75156,79.669789 L 105.75156,79.669789 z M 21.564923,96.9723 L 21.564923,99.723425 L 20.732997,99.723425 L 20.732997,92.222117 L 21.564923,92.222117 L 21.564923,92.91596 C 21.702827,92.647485 21.886451,92.442891 22.115796,92.302181 C 22.345135,92.16147 22.609703,92.091115 22.909498,92.091115 C 23.518076,92.091115 23.995498,92.345035 24.341766,92.852891 C 24.688021,93.360744 24.861155,94.064298 24.861159,94.963547 C 24.861155,95.846615 24.687273,96.539662 24.339517,97.042656 C 23.991752,97.545649 23.515079,97.79716 22.909498,97.79716 C 22.603705,97.79716 22.336142,97.726805 22.106802,97.586095 C 21.877457,97.445382 21.696832,97.240776 21.564923,96.9723 L 21.564923,96.9723 z M 23.993254,94.944131 C 23.993252,94.251898 23.89207,93.7295 23.689713,93.376913 C 23.487349,93.024323 23.186806,92.848043 22.788083,92.848029 C 22.386358,92.848043 22.082067,93.025135 21.87521,93.379335 C 21.668353,93.733536 21.564923,94.255134 21.564923,94.944131 C 21.564923,95.62989 21.668353,96.150675 21.87521,96.506501 C 22.082067,96.862327 22.386358,97.040231 22.788083,97.040231 C 23.186806,97.040231 23.487349,96.863937 23.689713,96.511348 C 23.89207,96.158774 23.993252,95.636362 23.993254,94.944131 L 23.993254,94.944131 z M 26.911749,94.963547 C 26.911749,95.655766 27.012927,96.178177 27.21529,96.530765 C 27.417649,96.88334 27.718192,97.059635 28.11692,97.059635 C 28.515642,97.059635 28.817684,96.882543 29.023046,96.528342 C 29.228403,96.174142 29.331082,95.652543 29.331085,94.963547 C 29.331082,94.274552 29.228403,93.752952 29.023046,93.398739 C 28.817684,93.044553 28.515642,92.867445 28.11692,92.867445 C 27.718192,92.867445 27.417649,93.043741 27.21529,93.396316 C 27.012927,93.748905 26.911749,94.271316 26.911749,94.963547 L 26.911749,94.963547 z M 29.331085,96.982008 C 29.196174,97.250485 29.014049,97.456703 28.784712,97.600649 C 28.555365,97.744597 28.289299,97.816562 27.986509,97.816562 C 27.383922,97.816562 26.907999,97.565066 26.55874,97.062058 C 26.20948,96.559064 26.03485,95.866033 26.03485,94.982949 C 26.03485,94.083702 26.208731,93.380149 26.556492,92.872294 C 26.904251,92.364451 27.380923,92.110518 27.986509,92.110518 C 28.286301,92.110518 28.550868,92.180872 28.780214,92.321582 C 29.009552,92.462295 29.193174,92.666886 29.331085,92.935378 L 29.331085,92.24152 L 30.163014,92.24152 L 30.163014,99.742841 L 29.331085,99.742841 L 29.331085,96.982008 z M 36.152895,93.342953 C 35.976013,93.194159 35.796134,93.085796 35.613265,93.017851 C 35.430387,92.949934 35.229524,92.91596 35.01068,92.91596 C 34.495032,92.91596 34.100803,93.090645 33.827994,93.439983 C 33.55518,93.78935 33.418772,94.293954 33.418773,94.953839 L 33.418773,97.656449 L 32.586847,97.656449 L 32.586847,92.222117 L 33.418773,92.222117 L 33.418773,93.284717 C 33.556677,92.899794 33.768782,92.604631 34.055085,92.399224 C 34.341388,92.193817 34.680903,92.091115 35.073636,92.091115 C 35.277491,92.091115 35.467861,92.118617 35.644744,92.173601 C 35.821619,92.22859 35.991002,92.314313 36.152895,92.43076 L 36.152895,93.342953 z M 40.874649,92.411355 L 40.874649,93.284717 C 40.637807,93.135922 40.399472,93.024323 40.15964,92.949934 C 39.9198,92.87553 39.675472,92.838334 39.426645,92.838334 C 39.051901,92.838334 38.772343,92.903843 38.587971,93.034845 C 38.403596,93.165846 38.311411,93.365592 38.311412,93.63407 C 38.311411,93.876669 38.380361,94.057825 38.518269,94.177507 C 38.656172,94.297189 38.999436,94.413651 39.548061,94.526861 L 39.880832,94.594779 C 40.291547,94.67889 40.602582,94.847086 40.813938,95.099396 C 41.025292,95.351706 41.130968,95.68003 41.130974,96.084371 C 41.130968,96.621335 40.95409,97.041044 40.600339,97.343479 C 40.246578,97.645927 39.754916,97.79716 39.125352,97.79716 C 38.876519,97.79716 38.6157,97.768846 38.34289,97.712249 C 38.070075,97.655637 37.774779,97.570725 37.456998,97.457515 L 37.456998,96.535612 C 37.765784,96.70706 38.061082,96.835638 38.34289,96.921362 C 38.624693,97.007072 38.89151,97.049941 39.143338,97.049941 C 39.509086,97.049941 39.792389,96.969876 39.993256,96.809762 C 40.194113,96.649635 40.294545,96.425639 40.294549,96.137746 C 40.294545,95.723696 39.927295,95.437429 39.192808,95.278928 L 39.15683,95.269219 L 38.846544,95.201287 C 38.36987,95.101022 38.02211,94.932013 37.803261,94.694244 C 37.584408,94.456506 37.474985,94.132215 37.474985,93.721405 C 37.474985,93.200618 37.638374,92.798716 37.965149,92.515669 C 38.291923,92.232638 38.758102,92.091115 39.363687,92.091115 C 39.6335,92.091115 39.892822,92.117804 40.141654,92.171164 C 40.390477,92.224541 40.634809,92.304605 40.874649,92.411355 L 40.874649,92.411355 z M 44.800452,90.679149 L 44.800452,92.222117 L 46.680157,92.222117 L 46.680157,92.91596 L 44.800452,92.91596 L 44.800452,95.866019 C 44.800446,96.267137 44.870901,96.546933 45.011805,96.705433 C 45.152706,96.863937 45.398536,96.943188 45.749299,96.943188 L 46.680157,96.943188 L 46.680157,97.656449 L 45.668354,97.656449 C 45.047776,97.656449 44.610078,97.522198 44.355257,97.253721 C 44.10043,96.985244 43.973017,96.522682 43.97302,95.866019 L 43.97302,92.91596 L 42.628445,92.91596 L 42.628445,92.222117 L 43.97302,92.222117 L 43.97302,90.679149 L 44.800452,90.679149 z M 48.456435,95.599168 L 48.456435,92.231811 L 49.283869,92.231811 L 49.283869,95.599168 C 49.283867,96.087607 49.364061,96.446667 49.524453,96.676323 C 49.68484,96.905994 49.932919,97.020814 50.268691,97.020814 C 50.65842,97.020814 50.956715,96.872833 51.163575,96.576856 C 51.37043,96.280879 51.47386,95.856324 51.473863,95.303191 L 51.473863,92.231811 L 52.305791,92.231811 L 52.305791,97.656449 L 51.473863,97.656449 L 51.473863,96.841298 C 51.326962,97.155065 51.126849,97.39282 50.873525,97.554545 C 50.620196,97.716283 50.324151,97.79716 49.985386,97.79716 C 49.469739,97.79716 49.086003,97.615205 48.834176,97.251298 C 48.582348,96.887388 48.456435,96.336679 48.456435,95.599168 L 48.456435,95.599168 z M 53.569423,92.222117 L 54.428331,92.222117 L 55.889827,96.783075 L 57.355819,92.222117 L 58.214728,92.222117 L 56.424959,97.656449 L 55.359191,97.656449 L 53.569423,92.222117 z M 58.659922,92.222117 L 59.478361,92.222117 L 60.355256,96.613253 L 61.074762,93.808751 L 61.780775,93.808751 L 62.509277,96.613253 L 63.386173,92.222117 L 64.204608,92.222117 L 63.026419,97.656449 L 62.234962,97.656449 L 61.430016,94.677265 L 60.629568,97.656449 L 59.838111,97.656449 L 58.659922,92.222117 z M 69.227658,92.222117 L 67.424396,94.822824 L 69.403036,97.656449 L 68.445197,97.656449 L 66.97021,95.477859 L 65.499719,97.656449 L 64.541882,97.656449 L 66.520519,94.822824 L 64.717258,92.222117 L 65.634627,92.222117 L 66.97021,94.187216 L 68.296796,92.222117 L 69.227658,92.222117 z M 73.598653,95.909702 C 73.460744,96.288164 73.285363,96.78631 73.072516,97.404139 C 72.775713,98.258098 72.576352,98.778881 72.474427,98.96651 C 72.336517,99.218806 72.164136,99.408044 71.957279,99.5342 C 71.75042,99.660355 71.509088,99.723425 71.233278,99.723425 L 70.567738,99.723425 L 70.567738,98.976205 L 71.0579,98.976205 C 71.30073,98.976205 71.491098,98.900189 71.629004,98.74816 C 71.76691,98.59613 71.942288,98.203111 72.155145,97.5691 L 70.207983,92.222117 L 71.08488,92.222117 L 72.577856,96.472542 L 74.048343,92.222117 L 74.925241,92.222117 L 73.598653,95.909702 z M 76.301295,92.21241 L 79.957284,92.21241 L 79.957284,93.02756 L 77.06577,96.928633 L 79.957284,96.928633 L 79.957284,97.656449 L 76.193368,97.656449 L 76.193368,96.83159 L 79.08488,92.925669 L 76.301295,92.925669 L 76.301295,92.21241 z M 85.371558,98.578337 L 85.371558,99.277043 L 85.083752,99.277043 C 84.337271,99.277043 83.837359,99.157346 83.584036,98.917982 C 83.330714,98.678617 83.204052,98.201485 83.204052,97.486613 L 83.204052,96.32697 C 83.204052,95.838532 83.123852,95.5005 82.963465,95.312886 C 82.803072,95.125272 82.513022,95.031465 82.093313,95.031465 L 81.814505,95.031465 L 81.814505,94.337621 L 82.093313,94.337621 C 82.516022,94.337621 82.806822,94.24544 82.965715,94.061048 C 83.124606,93.876669 83.204052,93.541887 83.204052,93.056671 L 83.204052,91.892166 C 83.204052,91.177309 83.330714,90.700989 83.584036,90.463236 C 83.837359,90.225498 84.337271,90.106612 85.083752,90.106612 L 85.371558,90.106612 L 85.371558,90.800457 L 85.056776,90.800457 C 84.637065,90.800457 84.363502,90.870826 84.236093,91.011521 C 84.108678,91.152234 84.044966,91.452259 84.044966,91.911583 L 84.044966,93.114895 C 84.044966,93.62275 83.976763,93.991519 83.840358,94.221176 C 83.703954,94.450845 83.470862,94.606112 83.141093,94.686974 C 83.473862,94.774309 83.707698,94.932812 83.842613,95.16248 C 83.977508,95.392136 84.044966,95.759281 84.044966,96.263901 L 84.044966,97.467209 C 84.044966,97.929772 84.108678,98.230612 84.236093,98.369696 C 84.363502,98.508796 84.637065,98.578337 85.056776,98.578337 L 85.371558,98.578337 z M 89.517704,90.062945 L 89.517704,99.999998 L 88.744236,99.999998 L 88.744236,90.062945 L 89.517704,90.062945 z M 92.894885,98.578337 L 93.200677,98.578337 C 93.62339,98.578337 93.899198,98.507171 94.028118,98.364849 C 94.157018,98.222513 94.221472,97.923314 94.221472,97.467209 L 94.221472,96.263901 C 94.221472,95.759281 94.288928,95.392136 94.42383,95.16248 C 94.558734,94.932812 94.79258,94.774309 95.125354,94.686974 C 94.795581,94.606112 94.562474,94.450845 94.426084,94.221176 C 94.289676,93.991519 94.221472,93.62275 94.221472,93.114895 L 94.221472,91.911583 C 94.221472,91.455495 94.157018,91.156282 94.028118,91.013946 C 93.899198,90.871624 93.62339,90.800457 93.200677,90.800457 L 92.894885,90.800457 L 92.894885,90.106612 L 93.173684,90.106612 C 93.920187,90.106612 94.419334,90.225498 94.671159,90.463236 C 94.922995,90.700989 95.048904,91.177309 95.048914,91.892166 L 95.048914,93.056671 C 95.048904,93.541887 95.129103,93.876669 95.289492,94.061048 C 95.44988,94.24544 95.741422,94.337621 96.164129,94.337621 L 96.45194,94.337621 L 96.45194,95.031465 L 96.164129,95.031465 C 95.741422,95.031465 95.44988,95.125272 95.289492,95.312886 C 95.129103,95.5005 95.048904,95.838532 95.048914,96.32697 L 95.048914,97.486613 C 95.048904,98.201485 94.922995,98.678617 94.671159,98.917982 C 94.419334,99.157346 93.920187,99.277043 93.173684,99.277043 L 92.894885,99.277043 L 92.894885,98.578337 z M 102.59024,93.871822 L 102.59024,94.716086 C 102.36537,94.906935 102.14578,95.046833 101.93142,95.135792 C 101.71707,95.224754 101.49148,95.269219 101.25465,95.269219 C 100.98483,95.269219 100.68053,95.18673 100.34176,95.02177 C 100.2758,94.989422 100.22635,94.966769 100.19338,94.953839 C 99.962528,94.847086 99.769918,94.774309 99.615518,94.735488 C 99.461128,94.696681 99.307478,94.677265 99.154578,94.677265 C 98.917738,94.677265 98.693659,94.724982 98.482307,94.820398 C 98.270945,94.915832 98.055839,95.065438 97.836989,95.269219 L 97.836989,94.424956 C 98.070826,94.230884 98.29718,94.090173 98.51603,94.002823 C 98.734868,93.915489 98.968709,93.871822 99.217538,93.871822 C 99.376438,93.871822 99.530828,93.889614 99.680718,93.925198 C 99.830618,93.960782 100.0165,94.028713 100.23834,94.12898 C 100.27431,94.14516 100.32378,94.169423 100.38674,94.201757 C 100.7345,94.379678 101.04779,94.468636 101.3266,94.468623 C 101.53645,94.468636 101.74405,94.41931 101.94941,94.320641 C 102.15476,94.221988 102.36837,94.072382 102.59024,93.871822 L 102.59024,93.871822 z"
       id="use1878" />
    <path
       d="M 41.879531,115.98249 C 41.879531,115.98249 66.18914,91.672876 66.18914,91.672876 C 66.18914,91.672876 56.836,94.586 46.586,94.586 C 46.586,104.836 41.879531,115.98249 41.879531,115.98249 z"
       id="path5540"
       style="opacity:0.4;fill:#000000;fill-opacity:1;filter:url(#filter6697)"
       sodipodi:nodetypes="cccc"
       clip-path="url(#clipPath7084)"
       transform="translate(40,0)" />
    <path
       style="fill:url(#linearGradient2232);fill-opacity:1"
       id="path14523"
       d="M 79.172,120 C 79.172,120 91.086,110.086 96.586,104.586 C 102.086,99.086 112,87.172 112,87.172 C 112,87.172 98.25,96 88,96 C 88,106.25 79.172,120 79.172,120 z"
       sodipodi:nodetypes="csccc" />
  </g>
</svg>
