<?xml version="1.0" encoding="UTF-8" standalone="no"?>
<!-- Created with Inkscape (http://www.inkscape.org/) -->
<svg
   xmlns:dc="http://purl.org/dc/elements/1.1/"
   xmlns:cc="http://web.resource.org/cc/"
   xmlns:rdf="http://www.w3.org/1999/02/22-rdf-syntax-ns#"
   xmlns:svg="http://www.w3.org/2000/svg"
   xmlns="http://www.w3.org/2000/svg"
   xmlns:xlink="http://www.w3.org/1999/xlink"
   xmlns:sodipodi="http://sodipodi.sourceforge.net/DTD/sodipodi-0.dtd"
   xmlns:inkscape="http://www.inkscape.org/namespaces/inkscape"
   width="128"
   height="128"
   id="svg2606"
   sodipodi:version="0.32"
   inkscape:version="0.45.1"
   version="1.0"
   sodipodi:docname="application-x-kgetlist.svg"
   inkscape:output_extension="org.inkscape.output.svg.inkscape"
   sodipodi:docbase="/home/david/sandbox">
  <defs
     id="defs2608">
    <linearGradient
       id="linearGradient3291">
      <stop
         style="stop-color:black;stop-opacity:1"
         offset="0"
         id="stop3293" />
      <stop
         style="stop-color:black;stop-opacity:0"
         offset="1"
         id="stop3295" />
    </linearGradient>
    <radialGradient
       inkscape:collect="always"
       xlink:href="#linearGradient3291"
       id="radialGradient4545"
       gradientUnits="userSpaceOnUse"
       gradientTransform="matrix(0.3930786,0,0,6.5513144e-2,40,98.96312)"
       cx="61.056499"
       cy="76.883453"
       fx="61.056499"
       fy="76.883453"
       r="61.056499" />
    <linearGradient
       id="XMLID_9_"
       gradientUnits="userSpaceOnUse"
       x1="538.77338"
       y1="793"
       x2="538.77338"
       y2="674"
       gradientTransform="translate(-484,-674)">
	<stop
   offset="0"
   style="stop-color:#094422"
   id="stop7" />

	<stop
   offset="0.1124"
   style="stop-color:#095A22"
   id="stop9" />

	<stop
   offset="0.4045"
   style="stop-color:#1E7D27"
   id="stop11" />

	<stop
   offset="0.4231"
   style="stop-color:#217F29"
   id="stop13" />

	<stop
   offset="0.4369"
   style="stop-color:#2A8531"
   id="stop15" />

	<stop
   offset="0.4491"
   style="stop-color:#3A8F3D"
   id="stop17" />

	<stop
   offset="0.4605"
   style="stop-color:#519D4E"
   id="stop19" />

	<stop
   offset="0.4712"
   style="stop-color:#6EAF64"
   id="stop21" />

	<stop
   offset="0.4814"
   style="stop-color:#92C680"
   id="stop23" />

	<stop
   offset="0.4911"
   style="stop-color:#BCE0A0"
   id="stop25" />

	<stop
   offset="0.4944"
   style="stop-color:#CCEAAC"
   id="stop27" />

	<stop
   offset="0.5124"
   style="stop-color:#A4CD90"
   id="stop29" />

	<stop
   offset="0.5326"
   style="stop-color:#80B276"
   id="stop31" />

	<stop
   offset="0.5552"
   style="stop-color:#609A5F"
   id="stop33" />

	<stop
   offset="0.5803"
   style="stop-color:#44864C"
   id="stop35" />

	<stop
   offset="0.6086"
   style="stop-color:#2E763C"
   id="stop37" />

	<stop
   offset="0.6416"
   style="stop-color:#1D6931"
   id="stop39" />

	<stop
   offset="0.6825"
   style="stop-color:#126028"
   id="stop9560" />

	<stop
   offset="0.7398"
   style="stop-color:#0B5B23"
   id="stop43" />

	<stop
   offset="0.8989"
   style="stop-color:#095A22"
   id="stop45" />

	<stop
   offset="1"
   style="stop-color:#9ED676"
   id="stop9564" />

</linearGradient>
    <linearGradient
       id="XMLID_11_"
       gradientUnits="userSpaceOnUse"
       x1="579.72852"
       y1="732.41022"
       x2="579.72852"
       y2="736.55688"
       gradientTransform="translate(-484,-674)">
		<stop
   offset="0"
   style="stop-color:#094422"
   id="stop61" />

		<stop
   offset="1"
   style="stop-color:#9ED676"
   id="stop63" />

	</linearGradient>
    <linearGradient
       id="XMLID_10_"
       gradientUnits="userSpaceOnUse"
       x1="538.77338"
       y1="674"
       x2="538.77338"
       y2="678.3681"
       gradientTransform="translate(-484,-674)">
		<stop
   offset="0"
   style="stop-color:#094422"
   id="stop54" />

		<stop
   offset="1"
   style="stop-color:#9ED676"
   id="stop56" />

	</linearGradient>
    <radialGradient
       id="XMLID_13_"
       cx="538.77252"
       cy="792.99609"
       r="121.5466"
       gradientTransform="translate(-484,-674)"
       gradientUnits="userSpaceOnUse">
	<stop
   offset="0"
   style="stop-color:#FFFAB3"
   id="stop9505" />

	<stop
   offset="0.0494"
   style="stop-color:#DFEE9F"
   id="stop9507" />

	<stop
   offset="0.1049"
   style="stop-color:#C3E48D"
   id="stop9509" />

	<stop
   offset="0.1605"
   style="stop-color:#AEDC80"
   id="stop9511" />

	<stop
   offset="0.2156"
   style="stop-color:#A2D879"
   id="stop9513" />

	<stop
   offset="0.2697"
   style="stop-color:#9ED676"
   id="stop9515" />

	<stop
   offset="0.3989"
   style="stop-color:#3BA42A"
   id="stop9517" />

	<stop
   offset="0.3995"
   style="stop-color:#3BA42A"
   id="stop9519" />

	<stop
   offset="0.4484"
   style="stop-color:#258426"
   id="stop9521" />

	<stop
   offset="0.4956"
   style="stop-color:#166D24"
   id="stop101" />

	<stop
   offset="0.54"
   style="stop-color:#0C5F23"
   id="stop103" />

	<stop
   offset="0.5787"
   style="stop-color:#095A22"
   id="stop105" />

	<stop
   offset="0.5948"
   style="stop-color:#166727"
   id="stop107" />

	<stop
   offset="0.6456"
   style="stop-color:#388B33"
   id="stop109" />

	<stop
   offset="0.6932"
   style="stop-color:#51A53C"
   id="stop111" />

	<stop
   offset="0.7359"
   style="stop-color:#61B542"
   id="stop113" />

	<stop
   offset="0.7697"
   style="stop-color:#66BA44"
   id="stop115" />

	<stop
   offset="1"
   style="stop-color:#095A22"
   id="stop117" />

</radialGradient>
    <linearGradient
       id="XMLID_14_"
       gradientUnits="userSpaceOnUse"
       x1="538.77338"
       y1="677.87701"
       x2="538.77338"
       y2="789.12207"
       gradientTransform="translate(-484,-674)">
	<stop
   offset="0.0056"
   style="stop-color:#1E7D27"
   id="stop122" />

	<stop
   offset="0.1348"
   style="stop-color:#3BA42A"
   id="stop124" />

	<stop
   offset="0.4831"
   style="stop-color:#B8E57F"
   id="stop126" />

	<stop
   offset="0.6299"
   style="stop-color:#A9E66E"
   id="stop128" />

	<stop
   offset="0.8528"
   style="stop-color:#97E859"
   id="stop130" />

	<stop
   offset="1"
   style="stop-color:#91E851"
   id="stop132" />

</linearGradient>
    <radialGradient
       id="XMLID_15_"
       cx="538.77338"
       cy="651.10352"
       r="126.0234"
       gradientTransform="translate(-484,-674)"
       gradientUnits="userSpaceOnUse">
	<stop
   offset="0"
   style="stop-color:#CCEAAC"
   id="stop137" />

	<stop
   offset="0.5393"
   style="stop-color:#3BA42A"
   id="stop139" />

	<stop
   offset="1"
   style="stop-color:#91E851"
   id="stop141" />

</radialGradient>
    <linearGradient
       id="XMLID_16_"
       gradientUnits="userSpaceOnUse"
       x1="538.77338"
       y1="675.48541"
       x2="538.77338"
       y2="677.06049"
       gradientTransform="translate(-484,-674)">
	<stop
   offset="0"
   style="stop-color:#FFFFFF"
   id="stop146" />

	<stop
   offset="1"
   style="stop-color:#00BF00"
   id="stop148" />

</linearGradient>
    <linearGradient
       id="linearGradient10207">
      <stop
         style="stop-color:#a2a2a2;stop-opacity:1;"
         offset="0"
         id="stop10209" />
      <stop
         style="stop-color:#ffffff;stop-opacity:1;"
         offset="1"
         id="stop10211" />
    </linearGradient>
    <linearGradient
       id="XMLID_12_"
       gradientUnits="userSpaceOnUse"
       x1="96"
       y1="104"
       x2="88.000198"
       y2="96.000198">
      <stop
         offset="0"
         style="stop-color:#888A85"
         id="stop83" />
      <stop
         offset="0.0072"
         style="stop-color:#8C8E89"
         id="stop85" />
      <stop
         offset="0.0673"
         style="stop-color:#ABACA9"
         id="stop87" />
      <stop
         offset="0.1347"
         style="stop-color:#C5C6C4"
         id="stop89" />
      <stop
         offset="0.2652576"
         style="stop-color:#DBDBDA"
         id="stop91" />
      <stop
         offset="0.37646064"
         style="stop-color:#EBEBEB"
         id="stop93" />
      <stop
         offset="0.48740286"
         style="stop-color:#F7F7F6"
         id="stop95" />
      <stop
         offset="0.6324091"
         style="stop-color:#FDFDFD"
         id="stop97" />
      <stop
         offset="1"
         style="stop-color:#FFFFFF"
         id="stop99" />
    </linearGradient>
    <radialGradient
       id="XMLID_8_"
       cx="102"
       cy="112.3047"
       r="139.55859"
       gradientUnits="userSpaceOnUse">
      <stop
         offset="0"
         style="stop-color:#b7b8b9;stop-opacity:1;"
         id="stop41" />
      <stop
         offset="0.18851049"
         style="stop-color:#ECECEC"
         id="stop47" />
      <stop
         offset="0.25718147"
         style="stop-color:#FAFAFA"
         id="stop49" />
      <stop
         offset="0.30111277"
         style="stop-color:#FFFFFF"
         id="stop51" />
      <stop
         offset="0.5313"
         style="stop-color:#FAFAFA"
         id="stop53" />
      <stop
         offset="0.8449"
         style="stop-color:#EBECEC"
         id="stop55" />
      <stop
         offset="1"
         style="stop-color:#E1E2E3"
         id="stop57" />
    </radialGradient>
    <filter
       inkscape:collect="always"
       x="-0.19200002"
       width="1.3839999"
       y="-0.19199999"
       height="1.3839999"
       id="filter6697">
      <feGaussianBlur
         inkscape:collect="always"
         stdDeviation="1.9447689"
         id="feGaussianBlur6699" />
    </filter>
    <clipPath
       clipPathUnits="userSpaceOnUse"
       id="clipPath7084">
      <path
         style="fill:#000000;fill-opacity:1;fill-rule:evenodd;stroke:none;stroke-width:1px;stroke-linecap:butt;stroke-linejoin:miter;stroke-opacity:1"
         d="M 72,88 L 40,120 L 32,120 L 32,80 L 72,80 L 72,88 z"
         id="path7086" />
    </clipPath>
    <radialGradient
       inkscape:collect="always"
       xlink:href="#XMLID_8_"
       id="radialGradient9437"
       gradientUnits="userSpaceOnUse"
       gradientTransform="matrix(1,0,0,0.9996653,2e-6,3.0160848e-3)"
       cx="102"
       cy="112.3047"
       r="139.55859" />
    <linearGradient
       inkscape:collect="always"
       xlink:href="#linearGradient10207"
       id="linearGradient10213"
       x1="98.617439"
       y1="106.41443"
       x2="91.228737"
       y2="99.254974"
       gradientUnits="userSpaceOnUse" />
    <filter
       inkscape:collect="always"
       id="filter2770">
      <feGaussianBlur
         inkscape:collect="always"
         stdDeviation="2.0786429"
         id="feGaussianBlur2772" />
    </filter>
    <linearGradient
       inkscape:collect="always"
       xlink:href="#XMLID_9_"
       id="linearGradient9614"
       gradientUnits="userSpaceOnUse"
       gradientTransform="matrix(0.6024737,0,0,0.6890756,-188.17076,-522.43699)"
       x1="538.77338"
       y1="793"
       x2="538.77338"
       y2="674" />
    <linearGradient
       inkscape:collect="always"
       xlink:href="#XMLID_10_"
       id="linearGradient9616"
       gradientUnits="userSpaceOnUse"
       gradientTransform="translate(-484,-674)"
       x1="538.77338"
       y1="674"
       x2="538.77338"
       y2="678.3681" />
    <linearGradient
       inkscape:collect="always"
       xlink:href="#XMLID_11_"
       id="linearGradient9618"
       gradientUnits="userSpaceOnUse"
       gradientTransform="translate(-484,-674)"
       x1="579.72852"
       y1="732.41022"
       x2="579.72852"
       y2="736.55688" />
    <linearGradient
       inkscape:collect="always"
       xlink:href="#XMLID_12_"
       id="linearGradient9620"
       gradientUnits="userSpaceOnUse"
       gradientTransform="translate(-484,-674)"
       x1="497.81451"
       y1="732.4082"
       x2="497.81451"
       y2="736.62341" />
    <radialGradient
       inkscape:collect="always"
       xlink:href="#XMLID_13_"
       id="radialGradient9622"
       gradientUnits="userSpaceOnUse"
       gradientTransform="matrix(0.6024737,0,0,0.6890756,-188.17076,-522.43699)"
       cx="538.77252"
       cy="792.99609"
       r="121.5466" />
    <linearGradient
       inkscape:collect="always"
       xlink:href="#XMLID_14_"
       id="linearGradient9624"
       gradientUnits="userSpaceOnUse"
       gradientTransform="matrix(0.6024737,0,0,0.6890756,-188.17074,-522.43699)"
       x1="538.77338"
       y1="677.87701"
       x2="538.77338"
       y2="789.12207" />
    <radialGradient
       inkscape:collect="always"
       xlink:href="#XMLID_15_"
       id="radialGradient9626"
       gradientUnits="userSpaceOnUse"
       gradientTransform="matrix(0.6015648,0,0,0.7971009,-187.68106,-594.06594)"
       cx="538.77338"
       cy="651.10352"
       fx="538.77338"
       fy="651.10352"
       r="126.0234" />
    <linearGradient
       inkscape:collect="always"
       xlink:href="#XMLID_16_"
       id="linearGradient9628"
       gradientUnits="userSpaceOnUse"
       gradientTransform="matrix(0.6024737,0,0,0.6890756,-188.17076,-522.43699)"
       x1="538.77338"
       y1="675.48541"
       x2="538.77338"
       y2="677.06049" />
  </defs>
  <sodipodi:namedview
     id="base"
     pagecolor="#ffffff"
     bordercolor="#666666"
     borderopacity="1.0"
     inkscape:pageopacity="0.0"
     inkscape:pageshadow="2"
     inkscape:zoom="2.8284271"
     inkscape:cx="64"
     inkscape:cy="85.798844"
     inkscape:document-units="px"
     inkscape:current-layer="layer1"
     width="128px"
     height="128px"
     gridspacingx="4px"
     gridspacingy="4px"
     gridempspacing="2"
     showgrid="true"
     inkscape:grid-points="true"
     showguides="true"
     inkscape:guide-bbox="true"
     inkscape:window-width="1016"
     inkscape:window-height="692"
     inkscape:window-x="0"
     inkscape:window-y="0" />
  <metadata
     id="metadata2611">
    <rdf:RDF>
      <cc:Work
         rdf:about="">
        <dc:format>image/svg+xml</dc:format>
        <dc:type
           rdf:resource="http://purl.org/dc/dcmitype/StillImage" />
      </cc:Work>
    </rdf:RDF>
  </metadata>
  <g
     inkscape:label="Livello 1"
     inkscape:groupmode="layer"
     id="layer1">
    <path
       style="opacity:0.5;fill:#000000;fill-opacity:1;filter:url(#filter2770)"
       d="M 16,8 L 16,120 C 16,120 79.15625,120 79.15625,120 L 79.1875,120 C 79.187503,120 91.09375,110.09375 96.59375,104.59375 C 102.09375,99.09375 112,87.1875 112,87.1875 L 112,87.15625 L 112,8 L 16,8 z"
       id="path7865"
       sodipodi:nodetypes="csccscccc"
       transform="matrix(1.0416667,0,0,1.0267857,-2.6666667,-1.2142891)" />
    <path
       style="fill:#ffffff;fill-opacity:1"
       d="M 16.000001,8 L 16,120 C 16,120 79.146418,120 79.146418,120 L 112,87.14642 L 112,8 L 16.000001,8 z"
       id="path34"
       sodipodi:nodetypes="cccccc" />
    <path
       style="fill:url(#radialGradient9437);fill-opacity:1"
       d="M 18.000002,9.0000034 C 17.449002,9.0000034 17.000002,9.4488534 17.000002,9.9996684 L 17.000002,117.96352 C 17.000002,118.51533 17.449002,118.96318 18.000002,118.96318 L 77.171999,118.96318 C 77.434999,118.96318 79.934679,119.08131 80.12068,118.89438 L 110.707,88.094202 C 110.894,87.907264 111,85.40942 111,85.146508 L 111,9.9996684 C 111,9.4488534 110.552,9.0000034 110,9.0000034 L 18.000002,9.0000034 z"
       id="path59"
       sodipodi:nodetypes="ccccccccccc" />
    <path
       d="M 41.879531,115.98249 C 41.879531,115.98249 66.18914,91.672876 66.18914,91.672876 C 66.18914,91.672876 56.836,94.586 46.586,94.586 C 46.586,104.836 41.879531,115.98249 41.879531,115.98249 z"
       id="path5540"
       style="opacity:0.4;fill:#000000;fill-opacity:1;filter:url(#filter6697)"
       sodipodi:nodetypes="cccc"
       clip-path="url(#clipPath7084)"
       transform="translate(40,0)" />
    <path
       style="fill:url(#linearGradient10213);fill-opacity:1"
       id="path14523"
       d="M 79.172,120 C 79.172,120 91.086,110.086 96.586,104.586 C 102.086,99.086 112,87.172 112,87.172 C 112,87.172 98.25,96 88,96 C 88,106.25 79.172,120 79.172,120 z"
       sodipodi:nodetypes="csccc" />
    <path
       id="path4543"
       style="opacity:0.3;fill:url(#radialGradient4545);fill-opacity:1;fill-rule:nonzero;stroke:none;stroke-width:0;stroke-linecap:round;stroke-linejoin:round;stroke-miterlimit:4;stroke-dasharray:none;stroke-dashoffset:4;stroke-opacity:1"
       d="M 88,103.99999 C 88,106.20914 77.254827,108 63.999997,108 C 50.745166,108 40,106.20914 40,103.99999 C 40,101.79086 50.745166,100 63.999997,100 C 77.254827,100 88,101.79086 88,103.99999 L 88,103.99999 z " />
    <g
       id="g9589"
       transform="matrix(1,0,0,0.9756098,-72.426501,80.585366)">
      <path
         id="path49"
         d="M 122.40803,-58 C 121.11995,-58 120.07225,-56.801009 120.07225,-55.327765 C 120.07225,-55.327765 120.07225,-20.243475 120.07225,-17.752469 C 118.07565,-17.752469 105.76289,-17.752469 105.76289,-17.752469 C 104.82364,-17.752469 103.98018,-17.113701 103.61327,-16.125567 C 103.61266,-16.122801 103.4265,-15.080231 103.4265,-15.080231 C 103.4265,-14.384954 103.65845,-13.726198 104.08019,-13.22662 L 134.74308,23.18138 C 135.18048,23.70094 135.7944,24 136.42579,24 C 137.05778,24 137.6705,23.70094 138.1085,23.18138 L 168.772,-13.22662 C 169.42327,-14.000449 169.60703,-15.136741 169.23953,-16.125567 C 168.87081,-17.115074 168.02735,-17.751777 167.08929,-17.751777 C 167.08929,-17.751777 154.77654,-17.751777 152.77994,-17.751777 C 152.77994,-20.243475 152.77994,-55.327076 152.77994,-55.327076 C 152.77933,-56.801009 151.73164,-58 150.44355,-58 L 122.40803,-58 z "
         style="fill:url(#linearGradient9614)" />
      <g
         transform="matrix(0.6024737,0,0,0.6890756,103.4265,-58)"
         id="g51">
	
		<linearGradient
   gradientTransform="translate(-484,-674)"
   y2="678.3681"
   x2="538.77338"
   y1="674"
   x1="538.77338"
   gradientUnits="userSpaceOnUse"
   id="linearGradient9265">
		<stop
   id="stop9267"
   style="stop-color:#094422"
   offset="0" />

		<stop
   id="stop9269"
   style="stop-color:#9ED676"
   offset="1" />

	</linearGradient>

	<path
   id="path58"
   d="M 31.506,0.486 L 78.04,0.486 C 80.18,0.486 81.918,2.225 81.918,4.363 C 81.918,4.051 81.918,3.878 81.918,3.878 C 81.917,1.74 80.178,0 78.04,0 L 31.506,0 C 29.368,0 27.629,1.74 27.629,3.878 C 27.629,3.878 27.629,4.051 27.629,4.363 C 27.629,2.225 29.368,0.486 31.506,0.486 z "
   style="fill:url(#linearGradient9616)" />

	
		<linearGradient
   gradientTransform="translate(-484,-674)"
   y2="736.55688"
   x2="579.72852"
   y1="732.41022"
   x1="579.72852"
   gradientUnits="userSpaceOnUse"
   id="linearGradient9272">
		<stop
   id="stop9274"
   style="stop-color:#094422"
   offset="0" />

		<stop
   id="stop9276"
   style="stop-color:#9ED676"
   offset="1" />

	</linearGradient>

	<path
   id="path65"
   d="M 81.917,58.894 C 85.23,58.894 105.668,58.894 105.668,58.894 C 107.227,58.894 108.625,59.82 109.236,61.255 C 109.415,61.675 109.506,62.111 109.531,62.551 C 109.572,61.954 109.48,61.344 109.236,60.77 C 108.625,59.335 107.224,58.411 105.668,58.411 C 105.668,58.411 85.23,58.411 81.917,58.411 C 81.917,58.616 81.917,58.779 81.917,58.894 z "
   style="fill:url(#linearGradient9618)" />

	
		<linearGradient
   gradientTransform="translate(-484,-674)"
   y2="736.62341"
   x2="497.81451"
   y1="732.4082"
   x1="497.81451"
   gradientUnits="userSpaceOnUse"
   id="linearGradient9279">
		<stop
   id="stop9281"
   style="stop-color:#094422"
   offset="0" />

		<stop
   id="stop9283"
   style="stop-color:#9ED676"
   offset="1" />

	</linearGradient>

	<path
   id="path72"
   d="M 0.309,61.256 C 0.918,59.821 2.319,58.894 3.877,58.894 C 3.877,58.894 24.314,58.894 27.628,58.894 C 27.628,58.779 27.628,58.616 27.628,58.408 C 24.314,58.408 3.877,58.408 3.877,58.408 C 2.318,58.408 0.918,59.335 0.309,60.769 C 0.309,60.773 0,62.286 0,62.286 C 0,62.398 0.022,62.507 0.032,62.616 C 0.109,62.239 0.309,61.258 0.309,61.256 z "
   style="fill:url(#linearGradient9620)" />

</g>
      <path
         id="path74"
         d="M 152.77933,-15.331057 C 154.77534,-15.331057 167.08869,-15.331057 167.08869,-15.331057 C 168.02794,-15.331057 168.87021,-14.692971 169.23832,-13.704155 C 169.2594,-13.646273 169.27387,-13.585625 169.29193,-13.527062 C 169.48051,-14.144468 169.47147,-14.830788 169.23832,-15.457162 C 168.87021,-16.445977 168.02614,-17.084064 167.08869,-17.084064 C 167.08869,-17.084064 154.77534,-17.084064 152.77933,-17.084064 C 152.77933,-16.201364 152.77933,-15.589458 152.77933,-15.331057 z "
         enable-background="new    "
         style="opacity:0.5;fill:#ffffff" />
      <path
         id="path76"
         d="M 103.61266,-13.703464 C 103.97957,-14.693662 104.82364,-15.331057 105.76229,-15.331057 C 105.76229,-15.331057 118.07504,-15.331057 120.07164,-15.331057 C 120.07164,-15.589458 120.07164,-16.201364 120.07164,-17.084064 C 118.07504,-17.084064 105.76229,-17.084064 105.76229,-17.084064 C 104.82304,-17.084064 103.97957,-16.445296 103.61266,-15.45647 C 103.61266,-15.454406 103.4265,-14.411826 103.4265,-14.411826 C 103.4265,-14.091416 103.48072,-13.783399 103.57471,-13.490541 C 103.597,-13.613189 103.61266,-13.702772 103.61266,-13.703464 z "
         enable-background="new    "
         style="opacity:0.5;fill:#ffffff" />
      <path
         id="path78"
         d="M 167.08869,-17.084064 C 167.08869,-17.084064 155.12718,-17.084064 152.19494,-17.084064 C 151.87201,-17.084064 151.60994,-17.383123 151.60994,-17.752469 L 151.60994,-17.084064 C 151.60994,-16.887684 151.60994,-16.196534 151.60994,-15.999462 C 152.68415,-15.999462 167.08688,-15.999462 167.08688,-15.999462 C 167.6014,-15.999462 168.08217,-16.490774 168.51174,-16.214449 C 168.19122,-16.745037 167.67008,-17.084064 167.08869,-17.084064 z "
         style="fill:#ffffff" />
      <path
         id="path80"
         d="M 120.65604,-17.084064 C 117.72381,-17.084064 105.76229,-17.084064 105.76229,-17.084064 C 105.1809,-17.084064 104.66037,-16.745728 104.33744,-16.213768 C 104.7664,-16.489392 105.24778,-15.998771 105.76229,-15.998771 C 105.76229,-15.998771 120.16563,-15.998771 121.23984,-15.998771 C 121.23984,-16.195853 121.23984,-16.886992 121.23984,-17.083372 L 121.23984,-17.751777 C 121.24044,-17.383123 120.97897,-17.084064 120.65604,-17.084064 z "
         style="fill:#ffffff" />
      <path
         id="path119"
         d="M 122.40803,-56.663883 C 121.76339,-56.663883 121.24044,-56.065765 121.24044,-55.327765 C 121.24044,-55.327765 121.24044,-18.913558 121.24044,-16.415659 C 119.22035,-16.415659 105.76289,-16.415659 105.76289,-16.415659 C 105.29477,-16.415659 104.87123,-16.095238 104.68808,-15.602553 C 104.62542,-15.434417 104.5947,-15.256633 104.5947,-15.078859 C 104.5947,-14.741204 104.70796,-14.404251 104.92124,-14.151362 L 135.58414,22.25664 C 135.80464,22.51918 136.10829,22.66733 136.42519,22.66733 C 136.74209,22.66733 137.04634,22.51918 137.26624,22.25664 L 167.92975,-14.151362 C 168.25448,-14.538622 168.34485,-15.109177 168.16351,-15.601181 C 167.97915,-16.093865 167.55682,-16.414286 167.08869,-16.414286 C 167.08869,-16.414286 153.63063,-16.414286 151.61174,-16.414286 C 151.61174,-18.912186 151.61174,-55.327076 151.61174,-55.327076 C 151.61174,-56.065076 151.08819,-56.663193 150.44415,-56.663193 L 122.40803,-56.663883 L 122.40803,-56.663883 z "
         style="fill:url(#radialGradient9622)" />
      <path
         sodipodi:nodetypes="cccccccc"
         id="polygon134"
         d="M 149.66237,-15.080231 L 149.66237,-55.327765 L 123.18921,-55.327765 L 123.18921,-15.080231 L 105.76229,-15.080231 L 136.42579,21.32776 L 167.08869,-15.080231 L 149.66237,-15.080231 z "
         style="fill:url(#linearGradient9624)" />
      <path
         id="path143"
         d="M 126.33071,-52.106113 C 126.33071,-46.18585 126.33071,-13.208265 126.33071,-13.208265 C 126.33071,-11.263404 125.14137,-9.68748 123.67415,-9.68748 C 123.67415,-9.68748 119.09054,-9.68748 114.77933,-9.68748 C 120.46129,-1.871013 133.66077,16.28485 136.4264,20.08959 C 139.19202,16.28485 152.39204,-1.871013 158.07347,-9.68748 C 153.7617,-9.68748 149.17863,-9.68748 149.17863,-9.68748 C 147.71087,-9.68748 146.52153,-11.263404 146.52153,-13.208265 C 146.52153,-13.208265 146.52153,-46.18585 146.52153,-52.106113 C 142.75237,-52.106113 130.09878,-52.106113 126.33071,-52.106113 z "
         style="fill:url(#radialGradient9626)" />
      <path
         id="path150"
         d="M 122.40803,-56.976034 C 121.80556,-56.976034 121.29949,-56.604621 120.98379,-56.073345 C 121.41155,-56.354488 121.88027,-55.89074 122.40803,-55.89074 L 150.44355,-55.89074 C 150.97131,-55.89074 151.43944,-56.354488 151.8678,-56.073345 C 151.5521,-56.604621 151.04602,-56.976034 150.44355,-56.976034 L 122.40803,-56.976034 L 122.40803,-56.976034 z "
         style="fill:url(#linearGradient9628)" />
      <path
         id="path152"
         d="M 137.26745,21.62407 C 137.04754,21.86318 136.74269,21.99617 136.42579,21.99617 C 136.10889,21.99617 135.80464,21.86318 135.58414,21.62407 L 129.83112,15.424454 L 135.58414,22.25526 C 135.80464,22.51711 136.10829,22.66526 136.42519,22.66526 C 136.74209,22.66526 137.04634,22.51711 137.26624,22.25526 L 143.01806,15.425837 L 137.26745,21.62407 z "
         style="fill:#ffffff" />
    </g>
  </g>
</svg>
