<?xml version="1.0" encoding="UTF-8" standalone="no"?>
<!-- Created with Inkscape (http://www.inkscape.org/) -->
<svg
   xmlns:dc="http://purl.org/dc/elements/1.1/"
   xmlns:cc="http://web.resource.org/cc/"
   xmlns:rdf="http://www.w3.org/1999/02/22-rdf-syntax-ns#"
   xmlns:svg="http://www.w3.org/2000/svg"
   xmlns="http://www.w3.org/2000/svg"
   xmlns:xlink="http://www.w3.org/1999/xlink"
   xmlns:sodipodi="http://sodipodi.sourceforge.net/DTD/sodipodi-0.dtd"
   xmlns:inkscape="http://www.inkscape.org/namespaces/inkscape"
   width="128"
   height="128"
   id="svg2606"
   sodipodi:version="0.32"
   inkscape:version="0.45.1"
   version="1.0"
   sodipodi:docname="application-x-python.svg"
   inkscape:output_extension="org.inkscape.output.svg.inkscape"
   sodipodi:docbase="/home/david/sandbox"
   inkscape:export-filename="/Users/david/Desktop/sandbox/source_py.png"
   inkscape:export-xdpi="90"
   inkscape:export-ydpi="90">
  <defs
     id="defs2608">
    <linearGradient
       id="linearGradient4689">
      <stop
         style="stop-color:#5a9fd4;stop-opacity:1;"
         offset="0"
         id="stop4691" />
      <stop
         style="stop-color:#306998;stop-opacity:1;"
         offset="1"
         id="stop4693" />
    </linearGradient>
    <linearGradient
       id="linearGradient4671">
      <stop
         style="stop-color:#ffd43b;stop-opacity:1;"
         offset="0"
         id="stop4673" />
      <stop
         style="stop-color:#ffe873;stop-opacity:1"
         offset="1"
         id="stop4675" />
    </linearGradient>
    <linearGradient
       inkscape:collect="always"
       id="linearGradient3206">
      <stop
         style="stop-color:#000000;stop-opacity:1;"
         offset="0"
         id="stop2466" />
      <stop
         style="stop-color:#000000;stop-opacity:0;"
         offset="1"
         id="stop2468" />
    </linearGradient>
    <linearGradient
       id="linearGradient10207">
      <stop
         style="stop-color:#a2a2a2;stop-opacity:1;"
         offset="0"
         id="stop10209" />
      <stop
         style="stop-color:#ffffff;stop-opacity:1;"
         offset="1"
         id="stop10211" />
    </linearGradient>
    <radialGradient
       id="XMLID_8_"
       cx="102"
       cy="112.3047"
       r="139.55859"
       gradientUnits="userSpaceOnUse">
      <stop
         offset="0"
         style="stop-color:#b7b8b9;stop-opacity:1;"
         id="stop41" />
      <stop
         offset="0.18851049"
         style="stop-color:#ECECEC"
         id="stop47" />
      <stop
         offset="0.25718147"
         style="stop-color:#FAFAFA"
         id="stop49" />
      <stop
         offset="0.30111277"
         style="stop-color:#FFFFFF"
         id="stop51" />
      <stop
         offset="0.5313"
         style="stop-color:#FAFAFA"
         id="stop53" />
      <stop
         offset="0.8449"
         style="stop-color:#EBECEC"
         id="stop55" />
      <stop
         offset="1"
         style="stop-color:#E1E2E3"
         id="stop57" />
    </radialGradient>
    <filter
       inkscape:collect="always"
       x="-0.19200002"
       width="1.3839999"
       y="-0.19199999"
       height="1.3839999"
       id="filter6697">
      <feGaussianBlur
         inkscape:collect="always"
         stdDeviation="1.9447689"
         id="feGaussianBlur6699" />
    </filter>
    <clipPath
       clipPathUnits="userSpaceOnUse"
       id="clipPath7084">
      <path
         style="fill:#000000;fill-opacity:1;fill-rule:evenodd;stroke:none;stroke-width:1px;stroke-linecap:butt;stroke-linejoin:miter;stroke-opacity:1"
         d="M 72,88 L 40,120 L 32,120 L 32,80 L 72,80 L 72,88 z"
         id="path7086" />
    </clipPath>
    <radialGradient
       inkscape:collect="always"
       xlink:href="#XMLID_8_"
       id="radialGradient9437"
       gradientUnits="userSpaceOnUse"
       gradientTransform="matrix(1,0,0,0.9996653,2e-6,3.0160848e-3)"
       cx="102"
       cy="112.3047"
       r="139.55859" />
    <linearGradient
       inkscape:collect="always"
       xlink:href="#linearGradient10207"
       id="linearGradient10213"
       x1="98.617439"
       y1="106.41443"
       x2="91.228737"
       y2="99.254974"
       gradientUnits="userSpaceOnUse" />
    <filter
       inkscape:collect="always"
       id="filter2770">
      <feGaussianBlur
         inkscape:collect="always"
         stdDeviation="2.0786429"
         id="feGaussianBlur2772" />
    </filter>
    <linearGradient
       inkscape:collect="always"
       xlink:href="#linearGradient3206"
       id="linearGradient2900"
       x1="208.99495"
       y1="61.532082"
       x2="219.65445"
       y2="61.532082"
       gradientUnits="userSpaceOnUse" />
    <filter
       inkscape:collect="always"
       id="filter3895">
      <feGaussianBlur
         inkscape:collect="always"
         stdDeviation="1.2730092"
         id="feGaussianBlur3897" />
    </filter>
    <linearGradient
       inkscape:collect="always"
       xlink:href="#linearGradient4671"
       id="linearGradient2353"
       gradientUnits="userSpaceOnUse"
       gradientTransform="matrix(0.3972744,0,0,0.4011098,14.161203,16.050272)"
       x1="150.96111"
       y1="192.35176"
       x2="112.03144"
       y2="137.27299" />
    <linearGradient
       inkscape:collect="always"
       xlink:href="#linearGradient4689"
       id="linearGradient2356"
       gradientUnits="userSpaceOnUse"
       gradientTransform="matrix(0.3972744,0,0,0.4011098,14.161203,16.050272)"
       x1="26.648937"
       y1="20.603781"
       x2="135.66525"
       y2="114.39767" />
    <filter
       inkscape:collect="always"
       id="filter3339">
      <feGaussianBlur
         inkscape:collect="always"
         stdDeviation="0.14322898"
         id="feGaussianBlur3341" />
    </filter>
    <filter
       inkscape:collect="always"
       id="filter3343">
      <feGaussianBlur
         inkscape:collect="always"
         stdDeviation="0.14322906"
         id="feGaussianBlur3345" />
    </filter>
  </defs>
  <sodipodi:namedview
     id="base"
     pagecolor="#ffffff"
     bordercolor="#666666"
     borderopacity="1.0"
     inkscape:pageopacity="0.0"
     inkscape:pageshadow="2"
     inkscape:zoom="2.8284271"
     inkscape:cx="64"
     inkscape:cy="85.798844"
     inkscape:document-units="px"
     inkscape:current-layer="layer1"
     width="128px"
     height="128px"
     gridspacingx="4px"
     gridspacingy="4px"
     gridempspacing="2"
     showgrid="true"
     inkscape:grid-points="true"
     showguides="true"
     inkscape:guide-bbox="true"
     inkscape:window-width="1016"
     inkscape:window-height="692"
     inkscape:window-x="1"
     inkscape:window-y="1" />
  <metadata
     id="metadata2611">
    <rdf:RDF>
      <cc:Work
         rdf:about="">
        <dc:format>image/svg+xml</dc:format>
        <dc:type
           rdf:resource="http://purl.org/dc/dcmitype/StillImage" />
      </cc:Work>
    </rdf:RDF>
  </metadata>
  <g
     inkscape:label="Livello 1"
     inkscape:groupmode="layer"
     id="layer1">
    <path
       style="opacity:0.5;fill:#000000;fill-opacity:1;filter:url(#filter2770)"
       d="M 16,8 L 16,120 C 16,120 79.15625,120 79.15625,120 L 79.1875,120 C 79.187503,120 91.09375,110.09375 96.59375,104.59375 C 102.09375,99.09375 112,87.1875 112,87.1875 L 112,87.15625 L 112,8 L 16,8 z"
       id="path7865"
       sodipodi:nodetypes="csccscccc"
       transform="matrix(1.0416667,0,0,1.0267857,-2.6666667,-1.2142891)" />
    <path
       style="fill:#ffffff;fill-opacity:1"
       d="M 16.000001,8 L 16,120 C 16,120 79.146418,120 79.146418,120 L 112,87.14642 L 112,8 L 16.000001,8 z"
       id="path34"
       sodipodi:nodetypes="cccccc" />
    <path
       style="fill:url(#radialGradient9437);fill-opacity:1"
       d="M 18.000002,9.0000034 C 17.449002,9.0000034 17.000002,9.4488534 17.000002,9.9996684 L 17.000002,117.96352 C 17.000002,118.51533 17.449002,118.96318 18.000002,118.96318 L 77.171999,118.96318 C 77.434999,118.96318 79.934679,119.08131 80.12068,118.89438 L 110.707,88.094202 C 110.894,87.907264 111,85.40942 111,85.146508 L 111,9.9996684 C 111,9.4488534 110.552,9.0000034 110,9.0000034 L 18.000002,9.0000034 z"
       id="path59"
       sodipodi:nodetypes="ccccccccccc" />
    <path
       d="M 41.879531,115.98249 C 41.879531,115.98249 66.18914,91.672876 66.18914,91.672876 C 66.18914,91.672876 56.836,94.586 46.586,94.586 C 46.586,104.836 41.879531,115.98249 41.879531,115.98249 z"
       id="path5540"
       style="opacity:0.4;fill:#000000;fill-opacity:1;filter:url(#filter6697)"
       sodipodi:nodetypes="cccc"
       clip-path="url(#clipPath7084)"
       transform="translate(40,0)" />
    <path
       style="fill:url(#linearGradient10213);fill-opacity:1"
       id="path14523"
       d="M 79.172,120 C 79.172,120 91.086,110.086 96.586,104.586 C 102.086,99.086 112,87.172 112,87.172 C 112,87.172 98.25,96 88,96 C 88,106.25 79.172,120 79.172,120 z"
       sodipodi:nodetypes="csccc" />
    <g
       id="g5702"
       style="opacity:0.7;fill-opacity:1.0;fill:url(#linearGradient2900)"
       transform="translate(-110,-1.2109375e-4)">
      <text
         sodipodi:linespacing="100%"
         id="text2489"
         y="15.936523"
         x="133.86816"
         style="font-size:5px;font-style:normal;font-variant:normal;font-weight:normal;font-stretch:normal;text-align:start;line-height:100%;writing-mode:lr-tb;text-anchor:start;opacity:1;fill:url(#linearGradient2900);fill-opacity:1.0;stroke:none;stroke-width:1px;stroke-linecap:butt;stroke-linejoin:miter;stroke-opacity:1;font-family:Liberation Mono"
         xml:space="preserve"><tspan
           y="15.936523"
           x="133.86816"
           id="tspan2491"
           sodipodi:role="line"
           style="fill:url(#linearGradient2900);fill-opacity:1.0">def add (5):</tspan></text>
      <text
         xml:space="preserve"
         style="font-size:5px;font-style:normal;font-variant:normal;font-weight:normal;font-stretch:normal;text-align:start;line-height:100%;writing-mode:lr-tb;text-anchor:start;opacity:1;fill:url(#linearGradient2900);fill-opacity:1.0;stroke:none;stroke-width:1px;stroke-linecap:butt;stroke-linejoin:miter;stroke-opacity:1;font-family:Liberation Mono"
         x="141.40918"
         y="23.936523"
         id="text2493"
         sodipodi:linespacing="100%"><tspan
           sodipodi:role="line"
           id="tspan2495"
           x="141.40918"
           y="23.936523"
           style="fill:url(#linearGradient2900);fill-opacity:1.0">return x+5</tspan></text>
      <text
         xml:space="preserve"
         style="font-size:5px;font-style:normal;font-variant:normal;font-weight:normal;font-stretch:normal;text-align:start;line-height:100%;writing-mode:lr-tb;text-anchor:start;opacity:1;fill:url(#linearGradient2900);fill-opacity:1.0;stroke:none;stroke-width:1px;stroke-linecap:butt;stroke-linejoin:miter;stroke-opacity:1;font-family:Liberation Mono"
         x="137.56299"
         y="43.936523"
         id="text2505"
         sodipodi:linespacing="100%"><tspan
           sodipodi:role="line"
           id="tspan2507"
           x="137.56299"
           y="43.936523"
           style="fill:url(#linearGradient2900);fill-opacity:1.0">nodename = getNodename()</tspan></text>
      <text
         sodipodi:linespacing="100%"
         id="text2509"
         y="51.936523"
         x="137.67285"
         style="font-size:5px;font-style:normal;font-variant:normal;font-weight:normal;font-stretch:normal;text-align:start;line-height:100%;writing-mode:lr-tb;text-anchor:start;opacity:1;fill:url(#linearGradient2900);fill-opacity:1.0;stroke:none;stroke-width:1px;stroke-linecap:butt;stroke-linejoin:miter;stroke-opacity:1;font-family:Liberation Mono"
         xml:space="preserve"><tspan
           y="51.936523"
           x="137.67285"
           id="tspan2511"
           sodipodi:role="line"
           style="fill:url(#linearGradient2900);fill-opacity:1.0">label=symbol.sym_name.get (i</tspan></text>
      <text
         xml:space="preserve"
         style="font-size:5px;font-style:normal;font-variant:normal;font-weight:normal;font-stretch:normal;text-align:start;line-height:100%;writing-mode:lr-tb;text-anchor:start;opacity:1;fill:url(#linearGradient2900);fill-opacity:1.0;stroke:none;stroke-width:1px;stroke-linecap:butt;stroke-linejoin:miter;stroke-opacity:1;font-family:Liberation Mono"
         x="137.56299"
         y="59.936523"
         id="text2519"
         sodipodi:linespacing="100%"><tspan
           sodipodi:role="line"
           id="tspan2521"
           x="137.56299"
           y="59.936523"
           style="fill:url(#linearGradient2900);fill-opacity:1.0">print ' %slabel=&quot;%s' % (node</tspan></text>
      <text
         xml:space="preserve"
         style="font-size:5px;font-style:normal;font-variant:normal;font-weight:normal;font-stretch:normal;text-align:start;line-height:100%;writing-mode:lr-tb;text-anchor:start;opacity:1;fill:url(#linearGradient2900);fill-opacity:1.0;stroke:none;stroke-width:1px;stroke-linecap:butt;stroke-linejoin:miter;stroke-opacity:1;font-family:Liberation Mono"
         x="145.56299"
         y="83.936523"
         id="text2527"
         sodipodi:linespacing="100%"><tspan
           sodipodi:role="line"
           id="tspan2529"
           x="145.56299"
           y="83.936523"
           style="fill:url(#linearGradient2900);fill-opacity:1.0">print '= %s&quot;];' % ast[1]</tspan></text>
      <text
         sodipodi:linespacing="100%"
         id="text2531"
         y="91.936523"
         x="141.40918"
         style="font-size:5px;font-style:normal;font-variant:normal;font-weight:normal;font-stretch:normal;text-align:start;line-height:100%;writing-mode:lr-tb;text-anchor:start;opacity:1;fill:url(#linearGradient2900);fill-opacity:1.0;stroke:none;stroke-width:1px;stroke-linecap:butt;stroke-linejoin:miter;stroke-opacity:1;font-family:Liberation Mono"
         xml:space="preserve"><tspan
           y="91.936523"
           x="141.40918"
           id="tspan2533"
           sodipodi:role="line"
           style="fill:url(#linearGradient2900);fill-opacity:1.0">else:</tspan></text>
      <text
         xml:space="preserve"
         style="font-size:5px;font-style:normal;font-variant:normal;font-weight:normal;font-stretch:normal;text-align:start;line-height:100%;writing-mode:lr-tb;text-anchor:start;opacity:1;fill:url(#linearGradient2900);fill-opacity:1.0;stroke:none;stroke-width:1px;stroke-linecap:butt;stroke-linejoin:miter;stroke-opacity:1;font-family:Liberation Mono"
         x="133.86816"
         y="107.93652"
         id="text2535"
         sodipodi:linespacing="100%"><tspan
           sodipodi:role="line"
           id="tspan2537"
           x="133.86816"
           y="107.93652"
           style="fill:url(#linearGradient2900);fill-opacity:1.0">else:</tspan></text>
      <text
         sodipodi:linespacing="100%"
         id="text2539"
         y="115.93652"
         x="141.83154"
         style="font-size:5px;font-style:normal;font-variant:normal;font-weight:normal;font-stretch:normal;text-align:start;line-height:100%;writing-mode:lr-tb;text-anchor:start;opacity:1;fill:url(#linearGradient2900);fill-opacity:1.0;stroke:none;stroke-width:1px;stroke-linecap:butt;stroke-linejoin:miter;stroke-opacity:1;font-family:Liberation Mono"
         xml:space="preserve"><tspan
           y="115.93652"
           x="141.83154"
           id="tspan2541"
           sodipodi:role="line"
           style="fill:url(#linearGradient2900);fill-opacity:1.0">print '&quot;];'</tspan></text>
      <text
         xml:space="preserve"
         style="font-size:5px;font-style:normal;font-variant:normal;font-weight:normal;font-stretch:normal;text-align:start;line-height:100%;writing-mode:lr-tb;text-anchor:start;opacity:1;fill:url(#linearGradient2900);fill-opacity:1.0;stroke:none;stroke-width:1px;stroke-linecap:butt;stroke-linejoin:miter;stroke-opacity:1;font-family:Liberation Mono"
         x="133.66309"
         y="35.936523"
         id="text2497"
         sodipodi:linespacing="100%"><tspan
           sodipodi:role="line"
           id="tspan2499"
           x="133.66309"
           y="35.936523"
           style="fill:url(#linearGradient2900);fill-opacity:1.0">def dotwrite(ast):</tspan></text>
      <text
         sodipodi:linespacing="100%"
         id="text2869"
         y="67.936523"
         x="137.65088"
         style="font-size:5px;font-style:normal;font-variant:normal;font-weight:normal;font-stretch:normal;text-align:start;line-height:100%;writing-mode:lr-tb;text-anchor:start;opacity:1;fill:url(#linearGradient2900);fill-opacity:1.0;stroke:none;stroke-width:1px;stroke-linecap:butt;stroke-linejoin:miter;stroke-opacity:1;font-family:Liberation Mono"
         xml:space="preserve"><tspan
           style="fill:url(#linearGradient2900);fill-opacity:1.0"
           y="67.936523"
           x="137.65088"
           id="tspan2871"
           sodipodi:role="line">if isinstance (ast[1], str) :</tspan></text>
      <text
         xml:space="preserve"
         style="font-size:5px;font-style:normal;font-variant:normal;font-weight:normal;font-stretch:normal;text-align:start;line-height:100%;writing-mode:lr-tb;text-anchor:start;opacity:1;fill:url(#linearGradient2900);fill-opacity:1.0;stroke:none;stroke-width:1px;stroke-linecap:butt;stroke-linejoin:miter;stroke-opacity:1;font-family:Liberation Mono"
         x="141.65088"
         y="74.936523"
         id="text2875"
         sodipodi:linespacing="100%"><tspan
           sodipodi:role="line"
           id="tspan2877"
           x="141.65088"
           y="74.936523"
           style="fill:url(#linearGradient2900);fill-opacity:1.0">if ast[1]</tspan></text>
      <text
         xml:space="preserve"
         style="font-size:5px;font-style:normal;font-variant:normal;font-weight:normal;font-stretch:normal;text-align:start;line-height:100%;writing-mode:lr-tb;text-anchor:start;opacity:1;fill:url(#linearGradient2900);fill-opacity:1.0;stroke:none;stroke-width:1px;stroke-linecap:butt;stroke-linejoin:miter;stroke-opacity:1;font-family:Liberation Mono"
         x="145.67529"
         y="99.936523"
         id="text2894"
         sodipodi:linespacing="100%"><tspan
           style="fill:url(#linearGradient2900);fill-opacity:1.0"
           sodipodi:role="line"
           id="tspan2896"
           x="145.67529"
           y="99.936523">print '&quot;]'</tspan></text>
    </g>
    <g
       transform="matrix(1.2401671,0,0,1.2401671,7.8925721,-43.629208)"
       id="g2920"
       style="opacity:0.5;fill:#000000;fill-opacity:1;filter:url(#filter3895)">
      <path
         style="fill:#000000;fill-opacity:1"
         d="M 44.864914,54.786576 C 42.25475,54.798704 39.762101,55.021313 37.568827,55.409412 C 31.107715,56.550879 29.934628,58.940065 29.934627,63.346132 L 29.934627,69.165207 L 45.203026,69.165207 L 45.203026,71.104899 L 29.934627,71.104899 L 24.204529,71.104899 C 19.767108,71.104899 15.881574,73.772045 14.666229,78.84587 C 13.264344,84.661651 13.202163,88.290793 14.666229,94.363403 C 15.751561,98.883619 18.343482,102.10437 22.780902,102.10437 L 28.030527,102.10437 L 28.030527,95.128603 C 28.030527,90.089019 32.390893,85.64369 37.568827,85.643689 L 52.81943,85.643689 C 57.064657,85.643689 60.453631,82.148306 60.453629,77.884922 L 60.453629,63.346132 C 60.453629,59.20831 56.962907,56.099998 52.81943,55.409412 C 50.196547,54.9728 47.475079,54.774447 44.864914,54.786576 z M 36.607879,59.466749 C 38.184999,59.466749 39.472928,60.775715 39.472928,62.385184 C 39.472926,63.988949 38.184999,65.285824 36.607879,65.285824 C 35.025104,65.285823 33.742829,63.988948 33.742829,62.385184 C 33.742829,60.775715 35.025104,59.466749 36.607879,59.466749 z "
         id="path2922" />
      <path
         style="fill:#000000;fill-opacity:1"
         d="M 62.35773,71.104899 L 62.35773,77.884922 C 62.35773,83.141382 57.901268,87.565584 52.81943,87.565585 L 37.568827,87.565585 C 33.391431,87.565585 29.934628,91.140872 29.934627,95.324351 L 29.934627,109.86314 C 29.934627,114.00096 33.532752,116.43478 37.568827,117.62191 C 42.401944,119.04303 47.03665,119.29987 52.81943,117.62191 C 56.663311,116.50898 60.453631,114.2692 60.453629,109.86314 L 60.453629,104.04407 L 45.203026,104.04407 L 45.203026,102.10437 L 60.453629,102.10437 L 68.08783,102.10437 C 72.525253,102.10437 74.178818,99.009177 75.722024,94.363403 C 77.316104,89.580651 77.248277,84.98126 75.722024,78.84587 C 74.625387,74.428389 72.530896,71.104899 68.08783,71.104899 L 62.35773,71.104899 z M 53.780378,107.92345 C 55.363154,107.92345 56.645427,109.22033 56.645427,110.82409 C 56.645426,112.43355 55.363152,113.74252 53.780378,113.74252 C 52.203255,113.74252 50.915329,112.43355 50.915329,110.82409 C 50.91533,109.22033 52.203254,107.92345 53.780378,107.92345 z "
         id="path2924" />
    </g>
    <path
       style="fill:url(#linearGradient2356);fill-opacity:1"
       d="M 63.532562,24.315301 C 60.295523,24.330342 57.204222,24.606414 54.484195,25.087722 C 46.471337,26.503332 45.016513,29.466321 45.016512,34.930581 L 45.016512,42.147206 L 63.951878,42.147206 L 63.951878,44.552748 L 45.016512,44.552748 L 37.910233,44.552748 C 32.407089,44.552748 27.588378,47.860455 26.081147,54.152846 C 24.342575,61.365386 24.26546,65.866129 26.081147,73.39718 C 27.42714,79.003003 30.641555,82.997272 36.144697,82.997272 L 42.655109,82.997272 L 42.655109,74.346156 C 42.655109,68.096229 48.062692,62.583279 54.484195,62.583277 L 73.397491,62.583277 C 78.662282,62.583277 82.865176,58.248418 82.865174,52.96111 L 82.865174,34.930581 C 82.865174,29.79899 78.536095,25.944164 73.397491,25.087722 C 70.144678,24.54625 66.769603,24.300259 63.532562,24.315301 z M 53.292459,30.119498 C 55.248352,30.119498 56.845599,31.742834 56.845599,33.738845 C 56.845596,35.727781 55.248352,37.336123 53.292459,37.336123 C 51.329554,37.336122 49.739318,35.72778 49.739318,33.738845 C 49.739318,31.742834 51.329554,30.119498 53.292459,30.119498 z "
       id="path1948" />
    <path
       style="fill:url(#linearGradient2353);fill-opacity:1"
       d="M 85.226577,44.552748 L 85.226577,52.96111 C 85.226577,59.479999 79.69982,64.966748 73.397491,64.96675 L 54.484195,64.96675 C 49.303526,64.96675 45.016513,69.400703 45.016512,74.588916 L 45.016512,92.619444 C 45.016512,97.751032 49.478788,100.76938 54.484195,102.24162 C 60.478068,104.00404 66.225878,104.32257 73.397491,102.24162 C 78.164546,100.8614 82.865176,98.083694 82.865174,92.619444 L 82.865174,85.402825 L 63.951878,85.402825 L 63.951878,82.997272 L 82.865174,82.997272 L 92.332859,82.997272 C 97.836005,82.997272 99.886702,79.158716 101.80054,73.39718 C 103.77746,67.465768 103.69334,61.761755 101.80054,54.152846 C 100.44052,48.674431 97.843003,44.552748 92.332859,44.552748 L 85.226577,44.552748 z M 74.589228,90.213904 C 76.552134,90.213904 78.142367,91.822252 78.142367,93.811182 C 78.142366,95.807182 76.552132,97.430523 74.589228,97.430523 C 72.633331,97.430523 71.036088,95.807182 71.036088,93.811182 C 71.036089,91.822252 72.63333,90.213904 74.589228,90.213904 z "
       id="path1950" />
    <path
       style="fill:#ffffff;fill-opacity:1;filter:url(#filter3343);opacity:0.7"
       d="M 53.292459,30.119498 C 55.248352,30.119498 56.845599,31.742834 56.845599,33.738845 C 56.845596,35.727781 55.248352,37.336123 53.292459,37.336123 C 51.329554,37.336122 49.739318,35.72778 49.739318,33.738845 C 49.739318,31.742834 51.329554,30.119498 53.292459,30.119498 z "
       id="path2358" />
    <path
       style="fill:#ffffff;fill-opacity:1;opacity:0.7;filter:url(#filter3339)"
       d="M 74.589228,90.213904 C 76.552134,90.213904 78.142367,91.822252 78.142367,93.811182 C 78.142366,95.807182 76.552132,97.430523 74.589228,97.430523 C 72.633331,97.430523 71.036088,95.807182 71.036088,93.811182 C 71.036089,91.822252 72.63333,90.213904 74.589228,90.213904 z "
       id="path2360" />
  </g>
</svg>
