<?xml version="1.0" encoding="UTF-8" standalone="no"?>
<!-- Created with Inkscape (http://www.inkscape.org/) -->
<svg
   xmlns:dc="http://purl.org/dc/elements/1.1/"
   xmlns:cc="http://web.resource.org/cc/"
   xmlns:rdf="http://www.w3.org/1999/02/22-rdf-syntax-ns#"
   xmlns:svg="http://www.w3.org/2000/svg"
   xmlns="http://www.w3.org/2000/svg"
   xmlns:xlink="http://www.w3.org/1999/xlink"
   xmlns:sodipodi="http://sodipodi.sourceforge.net/DTD/sodipodi-0.dtd"
   xmlns:inkscape="http://www.inkscape.org/namespaces/inkscape"
   width="128"
   height="128"
   id="svg11465"
   sodipodi:version="0.32"
   inkscape:version="0.45.1"
   version="1.0"
   sodipodi:docbase="/home/david/Projects/Oxygen/oxygen/scalable/apps/small/16x16"
   sodipodi:docname="kaddressbook.svg"
   inkscape:output_extension="org.inkscape.output.svg.inkscape"
   inkscape:export-filename="/home/david/Projects/Oxygen/oxygen/scalable/actions/small/16x16/kaddressbook.png"
   inkscape:export-xdpi="11.25"
   inkscape:export-ydpi="11.25">
  <defs
     id="defs11467">
    <radialGradient
       inkscape:collect="always"
       xlink:href="#XMLID_12_"
       id="radialGradient16729"
       gradientUnits="userSpaceOnUse"
       gradientTransform="matrix(0.198406,9.929988e-17,-5.256355e-3,-0.198406,-93.84279,22.97293)"
       cx="336.8938"
       cy="-319.7261"
       r="130.5231" />
    <linearGradient
       inkscape:collect="always"
       xlink:href="#XMLID_7_"
       id="linearGradient3447"
       gradientUnits="userSpaceOnUse"
       gradientTransform="matrix(1.519716,-0.479483,0.479483,1.519716,-597.6613,24.75994)"
       x1="290.9375"
       y1="27.1499"
       x2="233.81979"
       y2="184.0795" />
    <linearGradient
       inkscape:collect="always"
       xlink:href="#radialGradient4035"
       id="linearGradient3443"
       gradientUnits="userSpaceOnUse"
       gradientTransform="matrix(0.301151,-9.602399e-2,9.805796e-2,0.34279,-215.2436,30.43063)"
       x1="73.783409"
       y1="-17.918573"
       x2="59.461929"
       y2="151.13226" />
    <linearGradient
       inkscape:collect="always"
       xlink:href="#radialGradient4029"
       id="linearGradient16743"
       gradientUnits="userSpaceOnUse"
       gradientTransform="matrix(0.133207,-4.247392e-2,4.33736e-2,0.151625,28.14363,53.87361)"
       x1="81.624855"
       y1="-4.6484313"
       x2="73.938446"
       y2="133.6398" />
    <linearGradient
       inkscape:collect="always"
       xlink:href="#XMLID_12_"
       id="linearGradient16741"
       gradientUnits="userSpaceOnUse"
       gradientTransform="matrix(0.12918,-4.118954e-2,4.314469e-2,0.150825,20.79683,30.32008)"
       x1="8.207305"
       y1="219.11998"
       x2="134.41685"
       y2="219.11998" />
    <radialGradient
       gradientTransform="matrix(0.238899,-6.401268e-2,6.401268e-2,0.238899,-49.5543,-73.38964)"
       gradientUnits="userSpaceOnUse"
       r="40.7109"
       cy="8.7803"
       cx="62.292"
       id="radialGradient11445">
      <stop
         id="stop11447"
         style="stop-color:#79B5E5"
         offset="0" />
      <stop
         id="stop11449"
         style="stop-color:#4A8CD9"
         offset="0.7303" />
      <stop
         id="stop11451"
         style="stop-color:#4788D5"
         offset="0.88876778" />
      <stop
         id="stop11457"
         style="stop-color:#79b5e5;stop-opacity:1;"
         offset="1" />
    </radialGradient>
    <radialGradient
       inkscape:collect="always"
       xlink:href="#radialGradient11445"
       id="radialGradient11375"
       gradientUnits="userSpaceOnUse"
       gradientTransform="matrix(0.433565,-9.814901e-2,5.364137e-2,0.236958,77.43783,86.90994)"
       cx="62.292"
       cy="8.7803001"
       r="40.710899"
       fx="62.292"
       fy="8.7803001" />
    <radialGradient
       gradientUnits="userSpaceOnUse"
       gradientTransform="matrix(0.198406,0,-5.256355e-3,-0.198406,-93.84279,22.97293)"
       r="130.5231"
       cy="-319.7261"
       cx="336.8938"
       id="radialGradient4035">
      <stop
         id="stop4037"
         style="stop-color:#A4C0E4"
         offset="0" />
      <stop
         id="stop4039"
         style="stop-color:#6193CF"
         offset="0.6036" />
      <stop
         id="stop4041"
         style="stop-color:#A4C0E4"
         offset="1" />
    </radialGradient>
    <linearGradient
       inkscape:collect="always"
       xlink:href="#radialGradient4035"
       id="linearGradient7294"
       gradientUnits="userSpaceOnUse"
       gradientTransform="matrix(0.216453,-3.884327e-2,3.645922e-2,0.245359,12.2174,59.70296)"
       x1="73.783409"
       y1="-17.918573"
       x2="59.461929"
       y2="151.13226" />
    <radialGradient
       gradientUnits="userSpaceOnUse"
       gradientTransform="matrix(0.198406,0,-5.256355e-3,-0.198406,-452.9859,-58.52922)"
       r="130.5231"
       cy="-319.7261"
       cx="336.8938"
       id="radialGradient4029">
      <stop
         id="stop4031"
         style="stop-color:#A4C0E4"
         offset="0" />
      <stop
         id="stop4033"
         style="stop-color:#6193CF"
         offset="1" />
    </radialGradient>
    <linearGradient
       inkscape:collect="always"
       xlink:href="#radialGradient4029"
       id="linearGradient7297"
       gradientUnits="userSpaceOnUse"
       gradientTransform="matrix(0.216453,-3.884327e-2,3.645922e-2,0.245359,12.10493,59.60872)"
       x1="81.624855"
       y1="-4.6484313"
       x2="73.938446"
       y2="133.6398" />
    <radialGradient
       id="XMLID_12_"
       cx="336.8938"
       cy="-319.7261"
       r="130.5231"
       gradientTransform="matrix(0.198406,0,-5.256355e-3,-0.198406,-93.84279,22.97293)"
       gradientUnits="userSpaceOnUse">
      <stop
         offset="0"
         style="stop-color:#A4C0E4"
         id="stop44" />
      <stop
         offset="0.6036"
         style="stop-color:#6193CF"
         id="stop46" />
      <stop
         offset="1"
         style="stop-color:#A4C0E4"
         id="stop48" />
    </radialGradient>
    <linearGradient
       inkscape:collect="always"
       xlink:href="#XMLID_12_"
       id="linearGradient7300"
       gradientUnits="userSpaceOnUse"
       gradientTransform="matrix(0.209908,-3.766857e-2,3.62667e-2,0.244064,5.491511,21.36935)"
       x1="8.207305"
       y1="219.11998"
       x2="134.41685"
       y2="219.11998" />
    <linearGradient
       id="XMLID_7_"
       gradientUnits="userSpaceOnUse"
       x1="290.9375"
       y1="27.1499"
       x2="233.8198"
       y2="184.0795"
       gradientTransform="matrix(0.9659,-0.2588,0.2588,0.9659,-368.9027,-26.63475)">
      <stop
         offset="0"
         style="stop-color:#EEEEEE"
         id="stop785" />
      <stop
         offset="0.2012"
         style="stop-color:#FFFFFF"
         id="stop787" />
      <stop
         offset="0.3969"
         style="stop-color:#F9F9F9"
         id="stop789" />
      <stop
         offset="0.574"
         style="stop-color:#EEEEEE"
         id="stop791" />
      <stop
         offset="0.7988"
         style="stop-color:#FFFFFF"
         id="stop793" />
    </linearGradient>
    <linearGradient
       inkscape:collect="always"
       xlink:href="#XMLID_7_"
       id="linearGradient2869"
       gradientUnits="userSpaceOnUse"
       gradientTransform="matrix(1.063194,-0.187457,0.187457,1.063194,-241.7565,23.70027)"
       x1="290.9375"
       y1="27.1499"
       x2="233.8198"
       y2="184.0795" />
    <radialGradient
       inkscape:collect="always"
       xlink:href="#radialGradient11445"
       id="radialGradient1402"
       gradientUnits="userSpaceOnUse"
       gradientTransform="matrix(0.433565,-9.814901e-2,5.364137e-2,0.236958,77.27917,86.35172)"
       cx="62.292"
       cy="8.7803001"
       fx="62.292"
       fy="8.7803001"
       r="40.710899" />
    <linearGradient
       inkscape:collect="always"
       xlink:href="#radialGradient4035"
       id="linearGradient1410"
       gradientUnits="userSpaceOnUse"
       gradientTransform="matrix(0.216453,-3.884327e-2,3.645922e-2,0.245359,12.05874,59.14474)"
       x1="73.783409"
       y1="-17.918573"
       x2="59.461929"
       y2="151.13226" />
    <linearGradient
       inkscape:collect="always"
       xlink:href="#radialGradient4029"
       id="linearGradient1413"
       gradientUnits="userSpaceOnUse"
       gradientTransform="matrix(0.216453,-3.884327e-2,3.645922e-2,0.245359,11.94627,59.0505)"
       x1="81.624855"
       y1="-4.6484313"
       x2="73.938446"
       y2="133.6398" />
    <linearGradient
       inkscape:collect="always"
       xlink:href="#XMLID_12_"
       id="linearGradient1416"
       gradientUnits="userSpaceOnUse"
       gradientTransform="matrix(0.209908,-3.766857e-2,3.62667e-2,0.244064,5.332846,20.81113)"
       x1="8.207305"
       y1="219.11998"
       x2="134.41685"
       y2="219.11998" />
    <linearGradient
       inkscape:collect="always"
       xlink:href="#XMLID_7_"
       id="linearGradient1454"
       gradientUnits="userSpaceOnUse"
       gradientTransform="matrix(1.063194,-0.187457,0.187457,1.063194,-241.9152,23.14205)"
       x1="290.9375"
       y1="27.1499"
       x2="233.8198"
       y2="184.0795" />
    <linearGradient
       inkscape:collect="always"
       xlink:href="#XMLID_7_"
       id="linearGradient8639"
       gradientUnits="userSpaceOnUse"
       gradientTransform="matrix(1.063194,-0.187457,0.187457,1.063194,-241.9152,23.14205)"
       x1="290.9375"
       y1="27.1499"
       x2="233.8198"
       y2="184.0795" />
    <linearGradient
       inkscape:collect="always"
       xlink:href="#XMLID_12_"
       id="linearGradient8641"
       gradientUnits="userSpaceOnUse"
       gradientTransform="matrix(0.209908,-3.766857e-2,3.62667e-2,0.244064,5.332846,20.81113)"
       x1="8.207305"
       y1="219.11998"
       x2="134.41685"
       y2="219.11998" />
    <linearGradient
       inkscape:collect="always"
       xlink:href="#radialGradient4029"
       id="linearGradient8643"
       gradientUnits="userSpaceOnUse"
       gradientTransform="matrix(0.216453,-3.884327e-2,3.645922e-2,0.245359,11.94627,59.0505)"
       x1="81.624855"
       y1="-4.6484313"
       x2="73.938446"
       y2="133.6398" />
    <linearGradient
       inkscape:collect="always"
       xlink:href="#radialGradient4035"
       id="linearGradient8645"
       gradientUnits="userSpaceOnUse"
       gradientTransform="matrix(0.216453,-3.884327e-2,3.645922e-2,0.245359,12.05874,59.14474)"
       x1="73.783409"
       y1="-17.918573"
       x2="59.461929"
       y2="151.13226" />
    <radialGradient
       inkscape:collect="always"
       xlink:href="#radialGradient11445"
       id="radialGradient8647"
       gradientUnits="userSpaceOnUse"
       gradientTransform="matrix(0.433565,-9.814901e-2,5.364137e-2,0.236958,77.27917,86.35172)"
       cx="62.292"
       cy="8.7803001"
       fx="62.292"
       fy="8.7803001"
       r="40.710899" />
    <linearGradient
       inkscape:collect="always"
       xlink:href="#radialGradient4035"
       id="linearGradient8668"
       gradientUnits="userSpaceOnUse"
       gradientTransform="matrix(0.216453,-3.884327e-2,3.645922e-2,0.245359,12.05874,59.14474)"
       x1="73.783409"
       y1="-17.918573"
       x2="59.461929"
       y2="151.13226" />
    <linearGradient
       inkscape:collect="always"
       xlink:href="#radialGradient4029"
       id="linearGradient8671"
       gradientUnits="userSpaceOnUse"
       gradientTransform="matrix(0.216453,-3.884327e-2,3.645922e-2,0.245359,11.94627,59.0505)"
       x1="81.624855"
       y1="-4.6484313"
       x2="73.938446"
       y2="133.6398" />
    <linearGradient
       inkscape:collect="always"
       xlink:href="#XMLID_12_"
       id="linearGradient8674"
       gradientUnits="userSpaceOnUse"
       gradientTransform="matrix(0.209908,-3.766857e-2,3.62667e-2,0.244064,5.332846,20.81113)"
       x1="8.207305"
       y1="219.11998"
       x2="134.41685"
       y2="219.11998" />
    <linearGradient
       inkscape:collect="always"
       xlink:href="#XMLID_7_"
       id="linearGradient10493"
       gradientUnits="userSpaceOnUse"
       gradientTransform="matrix(1.063194,-0.187457,0.187457,1.063194,-241.9152,23.14205)"
       x1="290.9375"
       y1="27.1499"
       x2="233.8198"
       y2="184.0795" />
    <linearGradient
       inkscape:collect="always"
       xlink:href="#XMLID_7_"
       id="linearGradient10497"
       gradientUnits="userSpaceOnUse"
       gradientTransform="matrix(1.063194,-0.187457,0.187457,1.063194,-241.9152,23.14205)"
       x1="290.9375"
       y1="27.1499"
       x2="233.8198"
       y2="184.0795" />
    <linearGradient
       inkscape:collect="always"
       xlink:href="#XMLID_7_"
       id="linearGradient10501"
       gradientUnits="userSpaceOnUse"
       gradientTransform="matrix(1.063194,-0.187457,0.187457,1.063194,-241.9152,23.14205)"
       x1="290.9375"
       y1="27.1499"
       x2="233.8198"
       y2="184.0795" />
    <linearGradient
       inkscape:collect="always"
       xlink:href="#XMLID_12_"
       id="linearGradient10541"
       gradientUnits="userSpaceOnUse"
       gradientTransform="matrix(0.209908,-3.766857e-2,3.62667e-2,0.244064,5.332846,20.81113)"
       x1="-108.37574"
       y1="218.93271"
       x2="250.99985"
       y2="219.30725" />
    <linearGradient
       inkscape:collect="always"
       xlink:href="#radialGradient4035"
       id="linearGradient10543"
       gradientUnits="userSpaceOnUse"
       gradientTransform="matrix(0.216453,-3.884327e-2,3.645922e-2,0.245359,12.05874,59.14474)"
       x1="73.783409"
       y1="-17.918573"
       x2="59.461929"
       y2="151.13226" />
    <linearGradient
       inkscape:collect="always"
       xlink:href="#radialGradient4029"
       id="linearGradient10545"
       gradientUnits="userSpaceOnUse"
       gradientTransform="matrix(0.216453,-3.884327e-2,3.645922e-2,0.245359,11.94627,59.0505)"
       x1="81.624855"
       y1="-4.6484313"
       x2="73.938446"
       y2="133.6398" />
    <linearGradient
       inkscape:collect="always"
       xlink:href="#XMLID_7_"
       id="linearGradient2244"
       gradientUnits="userSpaceOnUse"
       gradientTransform="matrix(1.0976365,-5.4121818e-4,5.1141939e-4,1.1615923,-232.91082,-37.267537)"
       x1="290.9375"
       y1="27.1499"
       x2="233.8198"
       y2="184.0795" />
  </defs>
  <sodipodi:namedview
     id="base"
     pagecolor="#ffffff"
     bordercolor="#666666"
     borderopacity="1.0"
     inkscape:pageopacity="0.0"
     inkscape:pageshadow="2"
     inkscape:zoom="1.2285156"
     inkscape:cx="64"
     inkscape:cy="64"
     inkscape:current-layer="layer1"
     showgrid="false"
     inkscape:document-units="px"
     inkscape:grid-bbox="false"
     inkscape:window-width="743"
     inkscape:window-height="740"
     inkscape:window-x="0"
     inkscape:window-y="0"
     fill="#b1d28f"
     showguides="true"
     inkscape:guide-bbox="true"
     gridspacingx="8px"
     gridspacingy="8px"
     gridempspacing="4"
     showborder="false"
     gridtolerance="50"
     inkscape:grid-points="false" />
  <metadata
     id="metadata11470">
    <rdf:RDF>
      <cc:Work
         rdf:about="">
        <dc:format>image/svg+xml</dc:format>
        <dc:type
           rdf:resource="http://purl.org/dc/dcmitype/StillImage" />
      </cc:Work>
    </rdf:RDF>
  </metadata>
  <g
     id="layer1"
     inkscape:label="Layer 1"
     inkscape:groupmode="layer">
    <path
       id="path3229"
       d="M 120.13838,15.968487 C 119.7031,15.968738 113.76438,15.971379 105.34504,15.975674 L 105.33905,20.78386 C 108.44887,21.866418 110.67743,24.957156 110.6648,28.60755 C 110.64912,33.143937 107.16977,36.813507 102.88312,36.7969 C 98.596499,36.780293 95.129203,33.096818 95.144901,28.560415 C 95.156054,25.335316 96.931763,22.542136 99.493306,21.206749 L 99.48581,15.978677 C 90.348451,15.983331 79.401496,15.989285 67.939044,15.995153 L 67.933305,20.900146 C 71.043153,21.982706 73.271939,25.072049 73.259325,28.722433 C 73.243628,33.258836 69.762954,36.92815 65.476309,36.911554 C 61.189693,36.894941 57.723734,33.2117 57.739412,28.675304 C 57.750565,25.450205 59.524938,22.656779 62.08649,21.321394 L 62.078259,15.999304 C 50.785322,16.005073 39.695845,16.00975 30.531693,16.014373 L 30.526509,21.014793 C 33.636346,22.097351 35.865152,25.186695 35.8525,28.837074 C 35.836812,33.373478 32.357475,37.043044 28.070821,37.026446 C 23.784205,37.00984 20.316899,33.32635 20.332616,28.789951 C 20.343759,25.564851 22.119449,22.77167 24.681001,21.436284 L 24.673783,16.017625 C 15.600046,16.022206 8.3417602,16.02473 7.8873081,16.024925 C 7.8882534,18.084972 7.8772422,109.98116 7.878178,112.04122 C 9.8501095,112.03897 118.02864,112.00001 120,112 C 119.99935,109.93883 120.13902,18.029651 120.13838,15.968487 z "
       style="fill:none;stroke:#000000;stroke-width:16;stroke-miterlimit:4;stroke-dasharray:none;stroke-opacity:1;fill-opacity:1;opacity:0.1"
       sodipodi:nodetypes="cccsssccccsssccccssscccccc" />
    <path
       sodipodi:nodetypes="cccsssccccsssccccssscccccc"
       style="fill:none;stroke:#000000;stroke-width:12;stroke-miterlimit:4;stroke-dasharray:none;stroke-opacity:1;fill-opacity:1;opacity:0.15"
       d="M 120.13838,15.968487 C 119.7031,15.968738 113.76438,15.971379 105.34504,15.975674 L 105.33905,20.78386 C 108.44887,21.866418 110.67743,24.957156 110.6648,28.60755 C 110.64912,33.143937 107.16977,36.813507 102.88312,36.7969 C 98.596499,36.780293 95.129203,33.096818 95.144901,28.560415 C 95.156054,25.335316 96.931763,22.542136 99.493306,21.206749 L 99.48581,15.978677 C 90.348451,15.983331 79.401496,15.989285 67.939044,15.995153 L 67.933305,20.900146 C 71.043153,21.982706 73.271939,25.072049 73.259325,28.722433 C 73.243628,33.258836 69.762954,36.92815 65.476309,36.911554 C 61.189693,36.894941 57.723734,33.2117 57.739412,28.675304 C 57.750565,25.450205 59.524938,22.656779 62.08649,21.321394 L 62.078259,15.999304 C 50.785322,16.005073 39.695845,16.00975 30.531693,16.014373 L 30.526509,21.014793 C 33.636346,22.097351 35.865152,25.186695 35.8525,28.837074 C 35.836812,33.373478 32.357475,37.043044 28.070821,37.026446 C 23.784205,37.00984 20.316899,33.32635 20.332616,28.789951 C 20.343759,25.564851 22.119449,22.77167 24.681001,21.436284 L 24.673783,16.017625 C 15.600046,16.022206 8.3417602,16.02473 7.8873081,16.024925 C 7.8882534,18.084972 7.8772422,109.98116 7.878178,112.04122 C 9.8501095,112.03897 118.02864,112.00001 120,112 C 119.99935,109.93883 120.13902,18.029651 120.13838,15.968487 z "
       id="path3227" />
    <path
       id="path3225"
       d="M 120.13838,15.968487 C 119.7031,15.968738 113.76438,15.971379 105.34504,15.975674 L 105.33905,20.78386 C 108.44887,21.866418 110.67743,24.957156 110.6648,28.60755 C 110.64912,33.143937 107.16977,36.813507 102.88312,36.7969 C 98.596499,36.780293 95.129203,33.096818 95.144901,28.560415 C 95.156054,25.335316 96.931763,22.542136 99.493306,21.206749 L 99.48581,15.978677 C 90.348451,15.983331 79.401496,15.989285 67.939044,15.995153 L 67.933305,20.900146 C 71.043153,21.982706 73.271939,25.072049 73.259325,28.722433 C 73.243628,33.258836 69.762954,36.92815 65.476309,36.911554 C 61.189693,36.894941 57.723734,33.2117 57.739412,28.675304 C 57.750565,25.450205 59.524938,22.656779 62.08649,21.321394 L 62.078259,15.999304 C 50.785322,16.005073 39.695845,16.00975 30.531693,16.014373 L 30.526509,21.014793 C 33.636346,22.097351 35.865152,25.186695 35.8525,28.837074 C 35.836812,33.373478 32.357475,37.043044 28.070821,37.026446 C 23.784205,37.00984 20.316899,33.32635 20.332616,28.789951 C 20.343759,25.564851 22.119449,22.77167 24.681001,21.436284 L 24.673783,16.017625 C 15.600046,16.022206 8.3417602,16.02473 7.8873081,16.024925 C 7.8882534,18.084972 7.8772422,109.98116 7.878178,112.04122 C 9.8501095,112.03897 118.02864,112.00001 120,112 C 119.99935,109.93883 120.13902,18.029651 120.13838,15.968487 z "
       style="fill:none;stroke:#000000;stroke-width:8;stroke-miterlimit:4;stroke-dasharray:none;stroke-opacity:1;fill-opacity:1;opacity:0.2"
       sodipodi:nodetypes="cccsssccccsssccccssscccccc" />
    <path
       sodipodi:nodetypes="cccsssccccsssccccssscccccc"
       style="fill:none;stroke:#000000;stroke-width:4;stroke-miterlimit:4;stroke-dasharray:none;stroke-opacity:1;fill-opacity:1;opacity:0.25"
       d="M 120.13838,15.968487 C 119.7031,15.968738 113.76438,15.971379 105.34504,15.975674 L 105.33905,20.78386 C 108.44887,21.866418 110.67743,24.957156 110.6648,28.60755 C 110.64912,33.143937 107.16977,36.813507 102.88312,36.7969 C 98.596499,36.780293 95.129203,33.096818 95.144901,28.560415 C 95.156054,25.335316 96.931763,22.542136 99.493306,21.206749 L 99.48581,15.978677 C 90.348451,15.983331 79.401496,15.989285 67.939044,15.995153 L 67.933305,20.900146 C 71.043153,21.982706 73.271939,25.072049 73.259325,28.722433 C 73.243628,33.258836 69.762954,36.92815 65.476309,36.911554 C 61.189693,36.894941 57.723734,33.2117 57.739412,28.675304 C 57.750565,25.450205 59.524938,22.656779 62.08649,21.321394 L 62.078259,15.999304 C 50.785322,16.005073 39.695845,16.00975 30.531693,16.014373 L 30.526509,21.014793 C 33.636346,22.097351 35.865152,25.186695 35.8525,28.837074 C 35.836812,33.373478 32.357475,37.043044 28.070821,37.026446 C 23.784205,37.00984 20.316899,33.32635 20.332616,28.789951 C 20.343759,25.564851 22.119449,22.77167 24.681001,21.436284 L 24.673783,16.017625 C 15.600046,16.022206 8.3417602,16.02473 7.8873081,16.024925 C 7.8882534,18.084972 7.8772422,109.98116 7.878178,112.04122 C 9.8501095,112.03897 118.02864,112.00001 120,112 C 119.99935,109.93883 120.13902,18.029651 120.13838,15.968487 z "
       id="path3223" />
    <path
       id="path2867"
       d="M 120.13838,15.968487 C 119.7031,15.968738 113.76438,15.971379 105.34504,15.975674 L 105.33905,20.78386 C 108.44887,21.866418 110.67743,24.957156 110.6648,28.60755 C 110.64912,33.143937 107.16977,36.813507 102.88312,36.7969 C 98.596499,36.780293 95.129203,33.096818 95.144901,28.560415 C 95.156054,25.335316 96.931763,22.542136 99.493306,21.206749 L 99.48581,15.978677 C 90.348451,15.983331 79.401496,15.989285 67.939044,15.995153 L 67.933305,20.900146 C 71.043153,21.982706 73.271939,25.072049 73.259325,28.722433 C 73.243628,33.258836 69.762954,36.92815 65.476309,36.911554 C 61.189693,36.894941 57.723734,33.2117 57.739412,28.675304 C 57.750565,25.450205 59.524938,22.656779 62.08649,21.321394 L 62.078259,15.999304 C 50.785322,16.005073 39.695845,16.00975 30.531693,16.014373 L 30.526509,21.014793 C 33.636346,22.097351 35.865152,25.186695 35.8525,28.837074 C 35.836812,33.373478 32.357475,37.043044 28.070821,37.026446 C 23.784205,37.00984 20.316899,33.32635 20.332616,28.789951 C 20.343759,25.564851 22.119449,22.77167 24.681001,21.436284 L 24.673783,16.017625 C 15.600046,16.022206 8.3417602,16.02473 7.8873081,16.024925 C 7.8882534,18.084972 7.8772422,109.98116 7.878178,112.04122 C 9.8501095,112.03897 118.02864,112.00001 120,112 C 119.99935,109.93883 120.13902,18.029651 120.13838,15.968487 z "
       style="fill:url(#linearGradient2244);stroke:none;stroke-width:1.05700004;stroke-miterlimit:4;stroke-dasharray:none;stroke-opacity:1"
       sodipodi:nodetypes="cccsssccccsssccccssscccccc" />
    <g
       id="g10535"
       transform="matrix(1.6982678,0.3011057,-0.2631262,1.6896223,10.631885,-58.46276)">
      <g
         id="g10511">
        <path
           d="M 25.730957,56.969284 C 24.022824,57.39872 22.455448,58.5089 21.791544,60.259702 C 21.642295,60.653301 21.647531,60.902882 21.629253,61.282491 C 21.610971,61.662075 21.619148,62.11589 21.654036,62.602896 C 21.721961,63.55095 21.869709,64.631761 22.096011,65.769497 C 22.548979,68.04683 23.206299,70.263402 24.007714,71.520795 C 24.808218,72.776773 25.08551,74.78329 24.834362,75.545775 C 24.522903,76.491386 23.631683,77.428049 21.987955,78.308836 C 20.154138,79.291476 18.718185,80.184335 17.778912,81.515155 C 16.947366,82.693354 16.486005,83.965799 16.706599,85.450326 L 17.032581,87.64409 L 17.185983,88.676456 L 18.07648,88.516653 L 42.787715,84.08213 L 43.67821,83.922328 L 43.524806,82.889961 L 43.198825,80.696199 C 42.978233,79.211669 42.1725,78.166611 41.043094,77.340312 C 39.781547,76.417336 38.155776,76.032089 36.119773,75.739714 C 34.293038,75.477379 33.187951,74.925068 32.626194,74.147502 C 32.167375,73.512422 31.849437,71.5132 32.244791,70.042623 C 32.640599,68.570382 32.622139,66.239161 32.392358,63.921779 C 32.277559,62.764035 32.104766,61.687704 31.894729,60.765166 C 31.786838,60.29126 31.663222,59.85816 31.536011,59.504687 C 31.408795,59.151186 31.341511,58.912741 31.086085,58.591762 C 29.955487,57.171071 28.124389,56.539774 26.343174,56.859419 L 25.786613,56.959297 L 25.758786,56.964291 L 25.730957,56.969284 z "
           style="fill:url(#linearGradient10541);fill-opacity:1;stroke:none;stroke-width:2;stroke-miterlimit:4;stroke-dasharray:none;stroke-opacity:1"
           id="path3220" />
        <path
           style="opacity:0.24590167;fill:url(#linearGradient10543);fill-opacity:1;fill-rule:evenodd;stroke:none;stroke-width:1px;stroke-linecap:butt;stroke-linejoin:miter;stroke-opacity:1"
           d="M 25.664261,57.096867 C 23.987285,57.540487 22.46396,58.646896 21.810391,60.370475 C 21.661141,60.76406 21.661078,61.012812 21.642797,61.392409 C 21.624519,61.772005 21.638117,62.230347 21.67301,62.717352 C 21.740928,63.665395 21.889066,64.743487 22.115364,65.881222 C 22.21244,66.369273 22.319312,66.853957 22.434441,67.3275 C 23.700105,63.842056 25.710751,60.524604 29.14446,57.243789 C 28.278695,56.896787 27.31256,56.801071 26.360968,56.971839 L 25.806308,57.071374 L 25.772488,57.077444 L 25.745433,57.082301 C 25.743764,57.08272 25.740354,57.083184 25.738668,57.083513 C 25.731892,57.084662 25.718385,57.087219 25.711612,57.088369 C 25.709931,57.088722 25.706512,57.089149 25.704847,57.089582 C 25.691627,57.093001 25.677467,57.093371 25.664261,57.096867 z M 31.775479,60.321904 C 25.642145,67.635402 25.718057,74.501928 26.256802,83.330128 C 33.473192,81.97087 40.700207,79.366509 42.99176,79.909774 C 42.630539,78.88489 41.943953,78.103047 41.057452,77.454458 C 39.795907,76.531481 38.174403,76.142059 36.138394,75.849672 C 34.311662,75.587334 33.206477,75.034291 32.64472,74.256726 C 32.185897,73.621635 31.868723,71.623453 32.264082,70.1529 C 32.659889,68.680648 32.640155,66.351127 32.410374,64.033745 C 32.295576,62.875999 32.123937,61.802124 31.913903,60.879585 C 31.870073,60.687065 31.82426,60.499329 31.775479,60.321904 z M 20.074808,79.535281 C 19.141709,80.147709 18.374337,80.808894 17.795607,81.628881 C 17.273943,82.368024 16.895886,83.14024 16.742576,83.982652 C 17.637742,84.088936 18.582629,84.125727 19.559668,84.106867 C 19.752941,82.537967 19.913172,81.016098 20.074808,79.535281 z "
           id="path3271" />
      </g>
      <path
         id="path2377"
         d="M 25.592375,56.995277 C 23.899815,57.431927 22.356632,58.539035 21.697917,60.276169 C 21.548669,60.669754 21.548606,60.918507 21.530322,61.298105 C 21.512045,61.677699 21.525644,62.13604 21.560535,62.623047 C 21.628455,63.571102 21.776591,64.649195 22.002891,65.786917 C 22.455857,68.064247 23.111478,70.279657 23.912898,71.537063 C 24.7134,72.793024 24.991115,74.79829 24.739967,75.560774 C 24.428508,76.506386 23.537171,77.442199 21.893448,78.322986 C 20.059629,79.305627 18.622406,80.203756 17.683135,81.534591 C 17.161469,82.273718 16.783414,83.045934 16.6301,83.888346 C 25.62711,84.956632 39.528143,79.021024 42.879283,79.815469 C 42.518067,78.790585 41.831478,78.008743 40.94498,77.360167 C 39.683429,76.437178 38.06193,76.047753 36.02592,75.755367 C 34.19919,75.493029 33.094005,74.939997 32.532246,74.162421 C 32.073427,73.527341 31.756251,71.529159 32.15161,70.058593 C 32.547414,68.586341 32.527679,66.256821 32.297899,63.93944 C 32.183103,62.781708 32.011467,61.707833 31.801429,60.78528 C 31.693537,60.311374 31.566989,59.873302 31.439773,59.519816 C 31.312563,59.166329 31.247258,58.929308 30.991831,58.608342 C 29.861236,57.187653 28.02971,56.557887 26.248494,56.877532 L 25.693835,56.977069 L 25.660016,56.983138 L 25.632958,56.987994 C 25.619616,56.991364 25.605703,56.991854 25.592375,56.995277 z "
         style="opacity:0.17213117;fill:url(#linearGradient10545);fill-opacity:1;fill-rule:evenodd;stroke:none;stroke-width:1px;stroke-linecap:butt;stroke-linejoin:miter;stroke-opacity:1" />
    </g>
    <text
       xml:space="preserve"
       style="font-size:6.67700768px;font-style:normal;font-variant:normal;font-weight:normal;font-stretch:normal;text-align:start;line-height:125%;writing-mode:lr-tb;text-anchor:start;fill:#77b753;fill-opacity:1;stroke:#77b753;stroke-width:1.00000012px;stroke-linecap:butt;stroke-linejoin:miter;stroke-opacity:1;font-family:Luxi Sans"
       x="98.454506"
       y="47.707024"
       id="text10503"
       sodipodi:linespacing="125%"
       transform="matrix(0.7303179,-1.0537512e-2,-7.8576082e-3,1.36938,0,0)"><tspan
         sodipodi:role="line"
         id="tspan10505"
         x="98.454506"
         y="47.707024"
         style="stroke-width:1.00000012">Oxygen Icons</tspan><tspan
         sodipodi:role="line"
         x="98.454506"
         y="56.053283"
         id="tspan10507"
         style="stroke-width:1.00000012">1100 Sea of Colors</tspan><tspan
         sodipodi:role="line"
         x="98.454506"
         y="64.399543"
         id="tspan10509"
         style="stroke-width:1.00000012">World</tspan></text>
  </g>
</svg>
