<?xml version="1.0" encoding="UTF-8" standalone="no"?>
<!-- Created with Inkscape (http://www.inkscape.org/) -->
<svg
   xmlns:dc="http://purl.org/dc/elements/1.1/"
   xmlns:cc="http://web.resource.org/cc/"
   xmlns:rdf="http://www.w3.org/1999/02/22-rdf-syntax-ns#"
   xmlns:svg="http://www.w3.org/2000/svg"
   xmlns="http://www.w3.org/2000/svg"
   xmlns:xlink="http://www.w3.org/1999/xlink"
   xmlns:sodipodi="http://sodipodi.sourceforge.net/DTD/sodipodi-0.dtd"
   xmlns:inkscape="http://www.inkscape.org/namespaces/inkscape"
   width="88"
   height="88"
   id="svg1307"
   sodipodi:version="0.32"
   inkscape:version="0.45.1"
   version="1.0"
   sodipodi:docbase="/home/david/Projects/Oxygen/oxygen/scalable/apps/small/22x22"
   sodipodi:docname="kruler.svg"
   inkscape:output_extension="org.inkscape.output.svg.inkscape"
   inkscape:export-filename="/home/david/Projects/Oxygen/oxygen/scalable/apps/small/22x22/kruler.png"
   inkscape:export-xdpi="22.5"
   inkscape:export-ydpi="22.5">
  <defs
     id="defs1309">
    <linearGradient
       inkscape:collect="always"
       id="linearGradient4690">
      <stop
         style="stop-color:white;stop-opacity:1;"
         offset="0"
         id="stop4692" />
      <stop
         style="stop-color:white;stop-opacity:0;"
         offset="1"
         id="stop4694" />
    </linearGradient>
    <linearGradient
       inkscape:collect="always"
       id="linearGradient4162">
      <stop
         style="stop-color:white;stop-opacity:1;"
         offset="0"
         id="stop4164" />
      <stop
         style="stop-color:white;stop-opacity:0;"
         offset="1"
         id="stop4166" />
    </linearGradient>
    <linearGradient
       id="linearGradient2875">
      <stop
         style="stop-color:white;stop-opacity:1;"
         offset="0"
         id="stop2877" />
      <stop
         id="stop2887"
         offset="0.125"
         style="stop-color:white;stop-opacity:0.63898915;" />
      <stop
         id="stop2885"
         offset="0.25"
         style="stop-color:white;stop-opacity:0.59205776;" />
      <stop
         id="stop2883"
         offset="0.5"
         style="stop-color:white;stop-opacity:0.39350182;" />
      <stop
         style="stop-color:white;stop-opacity:0.1299639;"
         offset="0.75"
         id="stop2889" />
      <stop
         style="stop-color:white;stop-opacity:0;"
         offset="1"
         id="stop2879" />
    </linearGradient>
    <linearGradient
       id="linearGradient2257">
      <stop
         style="stop-color:#8f6b32;stop-opacity:1;"
         offset="0"
         id="stop2259" />
      <stop
         style="stop-color:#debc85;stop-opacity:1;"
         offset="1"
         id="stop2261" />
    </linearGradient>
    <radialGradient
       inkscape:collect="always"
       xlink:href="#linearGradient4690"
       id="radialGradient2445"
       gradientUnits="userSpaceOnUse"
       gradientTransform="matrix(0.9404632,0,0,1.6913723e-2,-16.256979,-63.519092)"
       cx="64.000008"
       cy="-11.911847"
       fx="80.324013"
       fy="-11.911847"
       r="62.387917" />
    <radialGradient
       inkscape:collect="always"
       xlink:href="#linearGradient4690"
       id="radialGradient2448"
       gradientUnits="userSpaceOnUse"
       gradientTransform="matrix(1.1386852,0,0,2.4317649e-2,-28.94319,24.349444)"
       cx="64.000008"
       cy="-11.911847"
       fx="80.324013"
       fy="-11.911847"
       r="62.387917" />
    <radialGradient
       inkscape:collect="always"
       xlink:href="#linearGradient4162"
       id="radialGradient2574"
       gradientUnits="userSpaceOnUse"
       gradientTransform="matrix(-0.8951898,-8.6924574e-3,2.2676828e-4,-0.2740384,179.91945,55.585205)"
       cx="120.85229"
       cy="64.04113"
       fx="120.85229"
       fy="64.04113"
       r="61.10347" />
    <radialGradient
       inkscape:collect="always"
       xlink:href="#linearGradient2875"
       id="radialGradient2577"
       gradientUnits="userSpaceOnUse"
       gradientTransform="matrix(0.8185081,0,0,0.5329476,15.382409,-3.8978888)"
       cx="63.835533"
       cy="157.9335"
       fx="63.835533"
       fy="157.9335"
       r="61.217163" />
    <linearGradient
       inkscape:collect="always"
       xlink:href="#linearGradient2257"
       id="linearGradient2580"
       gradientUnits="userSpaceOnUse"
       gradientTransform="matrix(0.6525698,6.8979518e-3,-1.8533424e-3,2.4287934,2.354893,-95.694247)"
       x1="55.054707"
       y1="66.105774"
       x2="55.054707"
       y2="45.826214" />
  </defs>
  <sodipodi:namedview
     id="base"
     pagecolor="#ffffff"
     bordercolor="#666666"
     borderopacity="1.0"
     inkscape:pageopacity="0.0"
     inkscape:pageshadow="2"
     inkscape:zoom="0.25"
     inkscape:cx="44"
     inkscape:cy="44"
     inkscape:current-layer="layer1"
     showgrid="false"
     inkscape:document-units="px"
     inkscape:grid-bbox="true"
     guidetolerance="0.1px"
     showguides="false"
     inkscape:guide-bbox="true"
     inkscape:window-width="743"
     inkscape:window-height="745"
     inkscape:window-x="531"
     inkscape:window-y="0"
     width="88px"
     height="88px"
     gridempspacing="4"
     gridspacingx="4px"
     gridspacingy="4px"
     showborder="false">
    <sodipodi:guide
       orientation="horizontal"
       position="139.98221"
       id="guide2204" />
  </sodipodi:namedview>
  <metadata
     id="metadata1312">
    <rdf:RDF>
      <cc:Work
         rdf:about="">
        <dc:format>image/svg+xml</dc:format>
        <dc:type
           rdf:resource="http://purl.org/dc/dcmitype/StillImage" />
        <cc:license
           rdf:resource="http://creativecommons.org/licenses/GPL/2.0/" />
        <dc:contributor>
          <cc:Agent>
            <dc:title>Oxygen team</dc:title>
          </cc:Agent>
        </dc:contributor>
      </cc:Work>
      <cc:License
         rdf:about="http://creativecommons.org/licenses/LGPL/2.1/">
        <cc:permits
           rdf:resource="http://web.resource.org/cc/Reproduction" />
        <cc:permits
           rdf:resource="http://web.resource.org/cc/Distribution" />
        <cc:requires
           rdf:resource="http://web.resource.org/cc/Notice" />
        <cc:permits
           rdf:resource="http://web.resource.org/cc/DerivativeWorks" />
        <cc:requires
           rdf:resource="http://web.resource.org/cc/ShareAlike" />
        <cc:requires
           rdf:resource="http://web.resource.org/cc/SourceCode" />
      </cc:License>
    </rdf:RDF>
  </metadata>
  <g
     id="layer1"
     inkscape:label="Layer 1"
     inkscape:groupmode="layer">
    <rect
       y="24"
       x="4"
       height="40.126183"
       width="80.113564"
       id="rect3587"
       style="opacity:0.1;fill:none;fill-opacity:1;stroke:#000000;stroke-width:8;stroke-linecap:round;stroke-linejoin:miter;stroke-miterlimit:4;stroke-dasharray:none;stroke-opacity:1" />
    <rect
       style="opacity:0.15;fill:none;fill-opacity:1;stroke:#000000;stroke-width:6;stroke-linecap:round;stroke-linejoin:miter;stroke-miterlimit:4;stroke-dasharray:none;stroke-opacity:1"
       id="rect3585"
       width="80.113564"
       height="40.126183"
       x="4"
       y="24" />
    <rect
       y="24"
       x="4"
       height="40.126183"
       width="80.113564"
       id="rect3583"
       style="opacity:0.60555556;fill:none;fill-opacity:1;stroke:#57401e;stroke-width:4;stroke-linecap:round;stroke-linejoin:miter;stroke-miterlimit:4;stroke-dasharray:none;stroke-opacity:1" />
    <rect
       style="opacity:1;fill:none;fill-opacity:1;stroke:#57401e;stroke-width:2;stroke-linecap:round;stroke-linejoin:miter;stroke-miterlimit:4;stroke-dasharray:none;stroke-opacity:1"
       id="rect2612"
       width="80.113564"
       height="40.126183"
       x="4"
       y="24" />
    <path
       sodipodi:nodetypes="ccc"
       id="path2276"
       d="M 50.892799,3.2812959 L 50.892799,0.48658747 L 50.892799,3.2812959 z "
       style="fill:#ffffff;fill-opacity:0.75688076;fill-rule:nonzero;stroke:none;stroke-width:0.5;stroke-linecap:round;stroke-linejoin:round;stroke-miterlimit:4;stroke-dasharray:none;stroke-dashoffset:4;stroke-opacity:1" />
    <rect
       style="fill:url(#linearGradient2580);fill-opacity:1;fill-rule:nonzero;stroke:none;stroke-width:0.37927157;stroke-linecap:round;stroke-linejoin:round;stroke-miterlimit:4;stroke-dasharray:none;stroke-dashoffset:4;stroke-opacity:1"
       id="rect1975"
       width="79.701263"
       height="39.710281"
       x="4.1107116"
       y="24.147663"
       transform="matrix(0.9999984,-1.7618272e-3,1.271847e-4,1,0,0)" />
    <path
       style="opacity:0.95999995;fill:url(#radialGradient2577);fill-opacity:1;fill-rule:nonzero;stroke:none;stroke-width:0.30000001;stroke-linecap:round;stroke-linejoin:round;stroke-miterlimit:4;stroke-dasharray:none;stroke-dashoffset:4;stroke-opacity:1"
       d="M 83.999971,45.13243 L 4.1511524,45.200204 L 4.1511524,63.769974 L 83.999971,63.702203 L 83.999971,45.13243 z "
       id="rect2873" />
    <rect
       style="fill:#ffffff;fill-opacity:1;fill-rule:nonzero;stroke:url(#radialGradient2574);stroke-width:0;stroke-linecap:round;stroke-linejoin:round;stroke-miterlimit:4;stroke-dasharray:none;stroke-dashoffset:4;stroke-opacity:1;opacity:0.37222222"
       id="rect2891"
       width="79.56115"
       height="8.3111696"
       x="4.1975284"
       y="24.225594"
       transform="matrix(0.9999987,-1.6187805e-3,1.3791741e-4,1,0,0)" />
    <g
       id="g2927"
       transform="matrix(-1.0400634,1.1459677e-3,-2.1921539e-4,-1.079453,72.323932,110.30533)">
      <path
         sodipodi:nodetypes="cccc"
         id="path2921"
         d="M 3.6477449,58.694838 C 24.396255,58.060378 44.191961,59.426849 64.65561,59.266786 C 53.231275,59.393886 40.732122,58.866834 28.762081,59.266786 C 23.517442,58.789603 14.643528,58.921971 3.6477449,58.694838 z "
         style="opacity:0.295082;fill:#382509;fill-opacity:1;fill-rule:evenodd;stroke:none;stroke-width:1px;stroke-linecap:butt;stroke-linejoin:miter;stroke-opacity:1" />
      <path
         style="opacity:0.295082;fill:#f7e5cb;fill-opacity:1;fill-rule:evenodd;stroke:none;stroke-width:1px;stroke-linecap:butt;stroke-linejoin:miter;stroke-opacity:1"
         d="M 3.6477449,58.694838 C 24.396255,58.060378 44.191961,59.426849 64.65561,59.266786 C 52.659326,59.060249 45.46912,58.87801 34.243613,58.258399 C 28.427025,58.400827 14.595866,57.968723 3.6477449,58.694838 z "
         id="path2923"
         sodipodi:nodetypes="cccc" />
    </g>
    <g
       transform="matrix(-0.7161153,5.5103525e-4,-1.5041255e-4,-0.5203868,85.065133,71.768071)"
       id="g2931"
       style="opacity:0.5">
      <path
         style="opacity:0.295082;fill:#382509;fill-opacity:1;fill-rule:evenodd;stroke:none;stroke-width:1px;stroke-linecap:butt;stroke-linejoin:miter;stroke-opacity:1"
         d="M 3.6477449,58.694838 C 24.396255,58.060378 44.191961,59.426849 64.65561,59.266786 C 53.231275,59.393886 40.732122,58.866834 28.762081,59.266786 C 23.517442,58.789603 14.643528,58.921971 3.6477449,58.694838 z "
         id="path2933"
         sodipodi:nodetypes="cccc" />
      <path
         sodipodi:nodetypes="cccc"
         id="path2935"
         d="M 3.6477449,58.694838 C 24.396255,58.060378 44.191961,59.426849 64.65561,59.266786 C 52.659326,59.060249 45.46912,58.87801 34.243613,58.258399 C 28.427025,58.400827 14.595866,57.968723 3.6477449,58.694838 z "
         style="opacity:0.295082;fill:#f7e5cb;fill-opacity:1;fill-rule:evenodd;stroke:none;stroke-width:1px;stroke-linecap:butt;stroke-linejoin:miter;stroke-opacity:1" />
    </g>
    <g
       transform="matrix(0.6960918,-7.6503975e-4,-1.4702876e-4,-0.7224554,58.851529,96.693919)"
       id="g2937">
      <path
         style="opacity:0.295082;fill:#382509;fill-opacity:1;fill-rule:evenodd;stroke:none;stroke-width:1px;stroke-linecap:butt;stroke-linejoin:miter;stroke-opacity:1"
         d="M 81.0625,75.65625 C 77.146302,75.81706 70.523224,75.764208 62.3125,75.84375 C 70.54064,75.952108 78.55451,75.904021 86.5625,75.8125 L 86.5625,75.6875 C 84.719066,75.682406 82.883278,75.68253 81.0625,75.65625 z "
         transform="matrix(1.339192,-1.41813e-3,-6.340608e-4,-3.001894,-79.73525,286.4649)"
         id="path2939" />
      <path
         style="opacity:0.295082;fill:#f7e5cb;fill-opacity:1;fill-rule:evenodd;stroke:none;stroke-width:1px;stroke-linecap:butt;stroke-linejoin:miter;stroke-opacity:1"
         d="M 85.15625,75.8125 C 77.614093,75.896779 70.059204,75.945768 62.3125,75.84375 C 70.487785,76.081774 80.812869,75.923354 85.15625,75.96875 C 85.686051,75.955454 86.055107,75.94966 86.5625,75.9375 L 86.5625,75.8125 C 86.093946,75.817855 85.624973,75.807262 85.15625,75.8125 z "
         transform="matrix(1.339192,-1.41813e-3,-6.340608e-4,-3.001894,-79.73525,286.4649)"
         id="path2941" />
    </g>
    <g
       id="g2943"
       transform="matrix(0.5013972,-5.5103525e-4,-1.0531326e-4,-0.5203868,59.560176,75.080297)"
       style="opacity:0.5">
      <path
         style="opacity:0.295082;fill:#382509;fill-opacity:1;fill-rule:evenodd;stroke:none;stroke-width:1px;stroke-linecap:butt;stroke-linejoin:miter;stroke-opacity:1"
         d="M 75.8125,71.21875 C 72.991648,71.334586 68.22671,71.286456 62.3125,71.34375 C 70.22287,71.447923 77.856728,71.2955 85.5625,71.21875 C 82.308922,71.236095 79.03165,71.265214 75.8125,71.21875 z "
         transform="matrix(1.859206,-1.968702e-3,-8.753469e-4,-4.167534,-112.1193,356.1676)"
         id="path2945" />
      <path
         style="opacity:0.295082;fill:#f7e5cb;fill-opacity:1;fill-rule:evenodd;stroke:none;stroke-width:1px;stroke-linecap:butt;stroke-linejoin:miter;stroke-opacity:1"
         d="M 86.5625,71.21875 C 78.518166,71.292802 70.564892,71.452427 62.3125,71.34375 C 68.201182,71.5152 75.621454,71.404805 78.75,71.4375 C 81.686668,71.363799 84.105557,71.317816 86.5625,71.28125 L 86.5625,71.21875 z "
         transform="matrix(1.859206,-1.968702e-3,-8.753469e-4,-4.167534,-112.1193,356.1676)"
         id="path2947" />
    </g>
    <g
       transform="matrix(-0.4722375,5.2032292e-4,-9.9534175e-5,-0.4901235,85.63538,75.087954)"
       id="g2949"
       style="opacity:0.5">
      <path
         style="opacity:0.295082;fill:#382509;fill-opacity:1;fill-rule:evenodd;stroke:none;stroke-width:1px;stroke-linecap:butt;stroke-linejoin:miter;stroke-opacity:1"
         d="M 3.6477449,58.694838 C 24.396255,58.060378 44.191961,59.426849 64.65561,59.266786 C 53.231275,59.393886 40.732122,58.866834 28.762081,59.266786 C 23.517442,58.789603 14.643528,58.921971 3.6477449,58.694838 z "
         id="path2951"
         sodipodi:nodetypes="cccc" />
      <path
         sodipodi:nodetypes="cccc"
         id="path2953"
         d="M 3.6477449,58.694838 C 24.396255,58.060378 44.191961,59.426849 64.65561,59.266786 C 52.659326,59.060249 45.46912,58.87801 34.243613,58.258399 C 28.427025,58.400827 14.595866,57.968723 3.6477449,58.694838 z "
         style="opacity:0.295082;fill:#f7e5cb;fill-opacity:1;fill-rule:evenodd;stroke:none;stroke-width:1px;stroke-linecap:butt;stroke-linejoin:miter;stroke-opacity:1" />
    </g>
    <g
       id="g2955"
       transform="matrix(-1.0400634,1.1459677e-3,-2.1921539e-4,-1.079453,67.453596,121.58958)"
       style="opacity:0.8">
      <path
         style="opacity:0.295082;fill:#382509;fill-opacity:1;fill-rule:evenodd;stroke:none;stroke-width:1px;stroke-linecap:butt;stroke-linejoin:miter;stroke-opacity:1"
         d="M 7.71875,63.4375 C 25.111494,63.515948 42.196435,63.929944 59.96875,63.6875 C 48.972967,63.586172 40.088391,63.650379 34.84375,63.4375 C 25.866219,63.571319 16.614874,63.471345 7.71875,63.4375 z "
         transform="matrix(-1,0,0,-2.241569,63.61836,201.4675)"
         id="path2957" />
      <path
         style="opacity:0.295082;fill:#f7e5cb;fill-opacity:1;fill-rule:evenodd;stroke:none;stroke-width:1px;stroke-linecap:butt;stroke-linejoin:miter;stroke-opacity:1"
         d="M 2.625,63.4375 L 2.625,63.46875 C 12.314935,63.550294 19.473449,63.631183 29.375,63.875 C 35.191589,63.811462 49.020629,64.011432 59.96875,63.6875 C 40.463875,63.953579 21.79229,63.441803 2.625,63.4375 z "
         transform="matrix(-1,0,0,-2.241569,63.61836,201.4675)"
         id="path2959" />
    </g>
    <g
       id="g2961"
       transform="matrix(-1.1130899,1.2259147e-3,-1.0531326e-4,-0.5203868,78.379158,62.551678)">
      <path
         sodipodi:nodetypes="cccc"
         id="path2963"
         d="M 3.6477449,58.694838 C 24.396255,58.060378 44.191961,59.426849 64.65561,59.266786 C 53.231275,59.393886 40.732122,58.866834 28.762081,59.266786 C 23.517442,58.789603 14.643528,58.921971 3.6477449,58.694838 z "
         style="opacity:0.295082;fill:#382509;fill-opacity:1;fill-rule:evenodd;stroke:none;stroke-width:1px;stroke-linecap:butt;stroke-linejoin:miter;stroke-opacity:1" />
      <path
         style="opacity:0.295082;fill:#f7e5cb;fill-opacity:1;fill-rule:evenodd;stroke:none;stroke-width:1px;stroke-linecap:butt;stroke-linejoin:miter;stroke-opacity:1"
         d="M 3.6477449,58.694838 C 24.396255,58.060378 44.191961,59.426849 64.65561,59.266786 C 52.659326,59.060249 45.46912,58.87801 34.243613,58.258399 C 28.427025,58.400827 14.595866,57.968723 3.6477449,58.694838 z "
         id="path2965"
         sodipodi:nodetypes="cccc" />
    </g>
    <g
       transform="matrix(-1.1130899,1.2259147e-3,-1.0531326e-4,-0.5203868,81.172622,70.935157)"
       id="g2967"
       style="opacity:0.5">
      <path
         style="opacity:0.295082;fill:#382509;fill-opacity:1;fill-rule:evenodd;stroke:none;stroke-width:1px;stroke-linecap:butt;stroke-linejoin:miter;stroke-opacity:1"
         d="M 3.6477449,58.694838 C 24.396255,58.060378 44.191961,59.426849 64.65561,59.266786 C 53.231275,59.393886 40.732122,58.866834 28.762081,59.266786 C 23.517442,58.789603 14.643528,58.921971 3.6477449,58.694838 z "
         id="path2969"
         sodipodi:nodetypes="cccc" />
      <path
         sodipodi:nodetypes="cccc"
         id="path2971"
         d="M 3.6477449,58.694838 C 24.396255,58.060378 44.191961,59.426849 64.65561,59.266786 C 52.659326,59.060249 45.46912,58.87801 34.243613,58.258399 C 28.427025,58.400827 14.595866,57.968723 3.6477449,58.694838 z "
         style="opacity:0.295082;fill:#f7e5cb;fill-opacity:1;fill-rule:evenodd;stroke:none;stroke-width:1px;stroke-linecap:butt;stroke-linejoin:miter;stroke-opacity:1" />
    </g>
    <g
       transform="matrix(1.1177945,-1.2300007e-3,-1.4702876e-4,-0.7224554,0.3203129,78.983083)"
       id="g2991">
      <path
         style="opacity:0.295082;fill:#382509;fill-opacity:1;fill-rule:evenodd;stroke:none;stroke-width:1px;stroke-linecap:butt;stroke-linejoin:miter;stroke-opacity:1"
         d="M 3.6477449,58.694838 C 24.396255,58.060378 44.191961,59.426849 64.65561,59.266786 C 53.231275,59.393886 40.732122,58.866834 28.762081,59.266786 C 23.517442,58.789603 14.643528,58.921971 3.6477449,58.694838 z "
         id="path2993"
         sodipodi:nodetypes="cccc" />
      <path
         sodipodi:nodetypes="cccc"
         id="path2995"
         d="M 3.6477449,58.694838 C 24.396255,58.060378 44.191961,59.426849 64.65561,59.266786 C 52.659326,59.060249 45.46912,58.87801 34.243613,58.258399 C 28.427025,58.400827 14.595866,57.968723 3.6477449,58.694838 z "
         style="opacity:0.295082;fill:#f7e5cb;fill-opacity:1;fill-rule:evenodd;stroke:none;stroke-width:1px;stroke-linecap:butt;stroke-linejoin:miter;stroke-opacity:1" />
    </g>
    <g
       style="opacity:0.5"
       transform="matrix(1.0400634,-1.1459677e-3,-2.1921539e-4,-1.079453,47.160701,105.2404)"
       id="g2997">
      <path
         style="opacity:0.295082;fill:#382509;fill-opacity:1;fill-rule:evenodd;stroke:none;stroke-width:1px;stroke-linecap:butt;stroke-linejoin:miter;stroke-opacity:1"
         d="M 79.125,69.8125 C 73.273634,70.052781 63.361769,70.006138 51.09375,70.125 C 63.117694,70.283329 74.858891,70.195363 86.5625,70.0625 L 86.5625,69.875 C 84.073495,69.865902 81.585139,69.848005 79.125,69.8125 z "
         transform="matrix(0.896292,-9.515194e-4,-4.234608e-4,-2.009101,-42.12304,199.6302)"
         id="path2999" />
      <path
         style="opacity:0.295082;fill:#f7e5cb;fill-opacity:1;fill-rule:evenodd;stroke:none;stroke-width:1px;stroke-linecap:butt;stroke-linejoin:miter;stroke-opacity:1"
         d="M 85.25,70.0625 C 73.980918,70.18844 62.668453,70.277413 51.09375,70.125 C 63.308816,70.480628 78.760361,70.244678 85.25,70.3125 C 85.744424,70.300091 86.081502,70.292988 86.5625,70.28125 L 86.5625,70.0625 C 86.125228,70.067464 85.687378,70.057612 85.25,70.0625 z "
         transform="matrix(0.896292,-9.515194e-4,-4.234608e-4,-2.009101,-42.12304,199.6302)"
         id="path3001" />
    </g>
    <g
       id="g3021"
       transform="matrix(1.0400634,-1.1459677e-3,-2.1921539e-4,-1.079453,4.1543327,106.39299)">
      <path
         sodipodi:nodetypes="cccc"
         id="path3023"
         d="M 3.6477449,58.694838 C 24.396255,58.060378 44.191961,59.426849 64.65561,59.266786 C 53.231275,59.393886 40.732122,58.866834 28.762081,59.266786 C 23.517442,58.789603 14.643528,58.921971 3.6477449,58.694838 z "
         style="opacity:0.295082;fill:#382509;fill-opacity:1;fill-rule:evenodd;stroke:none;stroke-width:1px;stroke-linecap:butt;stroke-linejoin:miter;stroke-opacity:1" />
      <path
         style="opacity:0.295082;fill:#f7e5cb;fill-opacity:1;fill-rule:evenodd;stroke:none;stroke-width:1px;stroke-linecap:butt;stroke-linejoin:miter;stroke-opacity:1"
         d="M 3.6477449,58.694838 C 24.396255,58.060378 44.191961,59.426849 64.65561,59.266786 C 52.659326,59.060249 45.46912,58.87801 34.243613,58.258399 C 28.427025,58.400827 14.595866,57.968723 3.6477449,58.694838 z "
         id="path3025"
         sodipodi:nodetypes="cccc" />
    </g>
    <g
       transform="matrix(-0.6960918,7.6503975e-4,-1.4702876e-4,-0.7224554,70.332395,76.667327)"
       id="g3045">
      <path
         style="opacity:0.295082;fill:#382509;fill-opacity:1;fill-rule:evenodd;stroke:none;stroke-width:1px;stroke-linecap:butt;stroke-linejoin:miter;stroke-opacity:1"
         d="M 3.6477449,58.694838 C 24.396255,58.060378 44.191961,59.426849 64.65561,59.266786 C 53.231275,59.393886 40.732122,58.866834 28.762081,59.266786 C 23.517442,58.789603 14.643528,58.921971 3.6477449,58.694838 z "
         id="path3047"
         sodipodi:nodetypes="cccc" />
      <path
         sodipodi:nodetypes="cccc"
         id="path3049"
         d="M 3.6477449,58.694838 C 24.396255,58.060378 44.191961,59.426849 64.65561,59.266786 C 52.659326,59.060249 45.46912,58.87801 34.243613,58.258399 C 28.427025,58.400827 14.595866,57.968723 3.6477449,58.694838 z "
         style="opacity:0.295082;fill:#f7e5cb;fill-opacity:1;fill-rule:evenodd;stroke:none;stroke-width:1px;stroke-linecap:butt;stroke-linejoin:miter;stroke-opacity:1" />
    </g>
    <g
       id="g3051"
       transform="matrix(-0.6960918,7.6503975e-4,-1.4702876e-4,-0.7224554,37.976838,97.145988)">
      <path
         style="opacity:0.295082;fill:#382509;fill-opacity:1;fill-rule:evenodd;stroke:none;stroke-width:1px;stroke-linecap:butt;stroke-linejoin:miter;stroke-opacity:1"
         d="M 16.03125,62.0625 C 11.603957,62.128493 7.0874171,62.117138 2.625,62.09375 C 12.641796,62.18109 22.568115,62.390176 32.84375,62.25 C 25.484503,62.182184 19.541377,62.204974 16.03125,62.0625 z "
         transform="matrix(-1.494145,0,0,-3.349231,52.71625,267.1431)"
         id="path3053" />
      <path
         style="opacity:0.295082;fill:#f7e5cb;fill-opacity:1;fill-rule:evenodd;stroke:none;stroke-width:1px;stroke-linecap:butt;stroke-linejoin:miter;stroke-opacity:1"
         d="M 2.625,62.09375 L 2.625,62.15625 C 5.6894965,62.200338 8.7123695,62.284811 12.375,62.375 C 16.26792,62.332474 25.516402,62.466801 32.84375,62.25 C 22.568115,62.390176 12.641796,62.18109 2.625,62.09375 z "
         transform="matrix(-1.494145,0,0,-3.349231,52.71625,267.1431)"
         id="path3055" />
    </g>
    <g
       id="g3057"
       transform="matrix(-1.1177945,1.2300007e-3,-1.4702876e-4,-0.7224554,126.17712,74.983284)">
      <path
         style="opacity:0.295082;fill:#382509;fill-opacity:1;fill-rule:evenodd;stroke:none;stroke-width:1px;stroke-linecap:butt;stroke-linejoin:miter;stroke-opacity:1"
         d="M 75.53125,65.71875 C 79.212597,65.738744 82.885213,65.757679 86.5625,65.78125 L 86.5625,65.71875 C 82.893673,65.723642 79.189314,65.728088 75.53125,65.71875 z "
         transform="matrix(-0.833964,-1.419849e-3,3.948531e-4,-3.001894,109.8888,256.5164)"
         id="path3059" />
      <path
         style="opacity:0.295082;fill:#f7e5cb;fill-opacity:1;fill-rule:evenodd;stroke:none;stroke-width:1px;stroke-linecap:butt;stroke-linejoin:miter;stroke-opacity:1"
         d="M 54.28125,65.6875 C 66.983896,65.742247 75.547241,65.788671 86.5625,65.9375 L 86.5625,65.78125 C 75.843195,65.712542 65.145849,65.658752 54.28125,65.6875 z "
         transform="matrix(-0.833964,-1.419849e-3,3.948531e-4,-3.001894,109.8888,256.5164)"
         id="path3061" />
    </g>
    <g
       style="opacity:0.5"
       id="g3063"
       transform="matrix(-0.5013972,5.5103525e-4,-1.0531326e-4,-0.5203868,75.921884,78.797793)">
      <path
         sodipodi:nodetypes="cccc"
         id="path3065"
         d="M 3.6477449,58.694838 C 24.396255,58.060378 44.191961,59.426849 64.65561,59.266786 C 53.231275,59.393886 40.732122,58.866834 28.762081,59.266786 C 23.517442,58.789603 14.643528,58.921971 3.6477449,58.694838 z "
         style="opacity:0.295082;fill:#382509;fill-opacity:1;fill-rule:evenodd;stroke:none;stroke-width:1px;stroke-linecap:butt;stroke-linejoin:miter;stroke-opacity:1" />
      <path
         style="opacity:0.295082;fill:#f7e5cb;fill-opacity:1;fill-rule:evenodd;stroke:none;stroke-width:1px;stroke-linecap:butt;stroke-linejoin:miter;stroke-opacity:1"
         d="M 3.6477449,58.694838 C 24.396255,58.060378 44.191961,59.426849 64.65561,59.266786 C 52.659326,59.060249 45.46912,58.87801 34.243613,58.258399 C 28.427025,58.400827 14.595866,57.968723 3.6477449,58.694838 z "
         id="path3067"
         sodipodi:nodetypes="cccc" />
    </g>
    <g
       transform="matrix(-0.6960918,7.6503975e-4,-1.4702876e-4,-0.7224554,82.948345,98.747923)"
       id="g3069">
      <path
         style="opacity:0.295082;fill:#382509;fill-opacity:1;fill-rule:evenodd;stroke:none;stroke-width:1px;stroke-linecap:butt;stroke-linejoin:miter;stroke-opacity:1"
         d="M 3.6477449,58.694838 C 24.396255,58.060378 44.191961,59.426849 64.65561,59.266786 C 53.231275,59.393886 40.732122,58.866834 28.762081,59.266786 C 23.517442,58.789603 14.643528,58.921971 3.6477449,58.694838 z "
         id="path3071"
         sodipodi:nodetypes="cccc" />
      <path
         sodipodi:nodetypes="cccc"
         id="path3073"
         d="M 3.6477449,58.694838 C 24.396255,58.060378 44.191961,59.426849 64.65561,59.266786 C 52.659326,59.060249 45.46912,58.87801 34.243613,58.258399 C 28.427025,58.400827 14.595866,57.968723 3.6477449,58.694838 z "
         style="opacity:0.295082;fill:#f7e5cb;fill-opacity:1;fill-rule:evenodd;stroke:none;stroke-width:1px;stroke-linecap:butt;stroke-linejoin:miter;stroke-opacity:1" />
    </g>
    <g
       id="g3075"
       transform="matrix(-0.5013972,5.5103525e-4,-1.0531326e-4,-0.5203868,82.230857,77.135945)"
       style="opacity:0.5">
      <path
         sodipodi:nodetypes="cccc"
         id="path3077"
         d="M 3.6477449,58.694838 C 24.396255,58.060378 44.191961,59.426849 64.65561,59.266786 C 53.231275,59.393886 40.732122,58.866834 28.762081,59.266786 C 23.517442,58.789603 14.643528,58.921971 3.6477449,58.694838 z "
         style="opacity:0.295082;fill:#382509;fill-opacity:1;fill-rule:evenodd;stroke:none;stroke-width:1px;stroke-linecap:butt;stroke-linejoin:miter;stroke-opacity:1" />
      <path
         style="opacity:0.295082;fill:#f7e5cb;fill-opacity:1;fill-rule:evenodd;stroke:none;stroke-width:1px;stroke-linecap:butt;stroke-linejoin:miter;stroke-opacity:1"
         d="M 3.6477449,58.694838 C 24.396255,58.060378 44.191961,59.426849 64.65561,59.266786 C 52.659326,59.060249 45.46912,58.87801 34.243613,58.258399 C 28.427025,58.400827 14.595866,57.968723 3.6477449,58.694838 z "
         id="path3079"
         sodipodi:nodetypes="cccc" />
    </g>
    <g
       id="g3081"
       transform="matrix(-0.6960918,7.6503975e-4,-1.4702876e-4,-0.7224554,33.224782,82.626243)"
       style="opacity:0.85">
      <path
         style="opacity:0.295082;fill:#382509;fill-opacity:1;fill-rule:evenodd;stroke:none;stroke-width:1px;stroke-linecap:butt;stroke-linejoin:miter;stroke-opacity:1"
         d="M 28.757775,59.271837 C 33.11787,59.126156 37.548636,59.03862 41.97162,59.06251 C 29.305503,58.756488 16.65338,58.24585 3.637462,58.643856 C 14.633244,58.870988 23.513136,58.794652 28.757775,59.271837 z "
         id="path3083" />
      <path
         style="opacity:0.295082;fill:#f7e5cb;fill-opacity:1;fill-rule:evenodd;stroke:none;stroke-width:1px;stroke-linecap:butt;stroke-linejoin:miter;stroke-opacity:1"
         d="M 2.625,56.125 L 2.625,56.25 C 4.3136259,56.28282 5.863722,56.327013 7.8125,56.375 C 11.70542,56.332473 20.953902,56.466801 28.28125,56.25 C 19.56997,56.368835 11.102166,56.216371 2.625,56.125 z "
         transform="matrix(-1.494145,0,0,-3.349231,45.89375,247.0381)"
         id="path3085" />
    </g>
    <g
       id="g3099"
       transform="matrix(-1.0400634,1.1459677e-3,-2.1921539e-4,-1.079453,84.854884,115.74085)">
      <path
         sodipodi:nodetypes="cccc"
         id="path3101"
         d="M 3.6477449,58.694838 C 24.396255,58.060378 44.191961,59.426849 64.65561,59.266786 C 53.231275,59.393886 40.732122,58.866834 28.762081,59.266786 C 23.517442,58.789603 14.643528,58.921971 3.6477449,58.694838 z "
         style="opacity:0.295082;fill:#382509;fill-opacity:1;fill-rule:evenodd;stroke:none;stroke-width:1px;stroke-linecap:butt;stroke-linejoin:miter;stroke-opacity:1" />
      <path
         style="opacity:0.295082;fill:#f7e5cb;fill-opacity:1;fill-rule:evenodd;stroke:none;stroke-width:1px;stroke-linecap:butt;stroke-linejoin:miter;stroke-opacity:1"
         d="M 3.6477449,58.694838 C 24.396255,58.060378 44.191961,59.426849 64.65561,59.266786 C 52.659326,59.060249 45.46912,58.87801 34.243613,58.258399 C 28.427025,58.400827 14.595866,57.968723 3.6477449,58.694838 z "
         id="path3103"
         sodipodi:nodetypes="cccc" />
    </g>
    <g
       style="opacity:0.43852461"
       id="g3117"
       transform="matrix(1.1177945,-1.2300007e-3,-1.4702876e-4,-0.7224554,0.436803,68.777647)">
      <path
         sodipodi:nodetypes="cccc"
         id="path3119"
         d="M 3.6477449,58.694838 C 24.396255,58.060378 44.191961,59.426849 64.65561,59.266786 C 53.231275,59.393886 40.732122,58.866834 28.762081,59.266786 C 23.517442,58.789603 14.643528,58.921971 3.6477449,58.694838 z "
         style="opacity:0.295082;fill:#382509;fill-opacity:1;fill-rule:evenodd;stroke:none;stroke-width:1px;stroke-linecap:butt;stroke-linejoin:miter;stroke-opacity:1" />
      <path
         style="opacity:0.295082;fill:#f7e5cb;fill-opacity:1;fill-rule:evenodd;stroke:none;stroke-width:1px;stroke-linecap:butt;stroke-linejoin:miter;stroke-opacity:1"
         d="M 3.6477449,58.694838 C 24.396255,58.060378 44.191961,59.426849 64.65561,59.266786 C 52.659326,59.060249 45.46912,58.87801 34.243613,58.258399 C 28.649442,58.395381 15.641909,58.000929 4.9156969,58.616525 C 4.4892369,58.641001 4.0663832,58.667073 3.6477449,58.694838 z "
         id="path3121"
         sodipodi:nodetypes="cccsc" />
    </g>
    <g
       id="g3123"
       transform="matrix(1.0400634,-1.1459677e-3,-2.1921539e-4,-1.079453,16.260434,98.730745)"
       style="opacity:0.85">
      <path
         sodipodi:nodetypes="cccc"
         id="path3125"
         d="M 3.6477449,58.694838 C 24.396255,58.060378 44.191961,59.426849 64.65561,59.266786 C 53.231275,59.393886 40.732122,58.866834 28.762081,59.266786 C 23.517442,58.789603 14.643528,58.921971 3.6477449,58.694838 z "
         style="opacity:0.295082;fill:#382509;fill-opacity:1;fill-rule:evenodd;stroke:none;stroke-width:1px;stroke-linecap:butt;stroke-linejoin:miter;stroke-opacity:1" />
      <path
         style="opacity:0.295082;fill:#f7e5cb;fill-opacity:1;fill-rule:evenodd;stroke:none;stroke-width:1px;stroke-linecap:butt;stroke-linejoin:miter;stroke-opacity:1"
         d="M 3.6477449,58.694838 C 24.396255,58.060378 44.191961,59.426849 64.65561,59.266786 C 52.659326,59.060249 45.46912,58.87801 34.243613,58.258399 C 28.427025,58.400827 14.595866,57.968723 3.6477449,58.694838 z "
         id="path3127"
         sodipodi:nodetypes="cccc" />
    </g>
    <g
       transform="matrix(1.0400634,-1.1459677e-3,-2.1921539e-4,-1.079453,4.2708163,96.187383)"
       id="g3141"
       style="opacity:0.8">
      <path
         style="opacity:0.295082;fill:#382509;fill-opacity:1;fill-rule:evenodd;stroke:none;stroke-width:1px;stroke-linecap:butt;stroke-linejoin:miter;stroke-opacity:1"
         d="M 3.6477449,58.694838 C 24.396255,58.060378 44.191961,59.426849 64.65561,59.266786 C 53.231275,59.393886 40.732122,58.866834 28.762081,59.266786 C 23.517442,58.789603 14.643528,58.921971 3.6477449,58.694838 z "
         id="path3143"
         sodipodi:nodetypes="cccc" />
      <path
         sodipodi:nodetypes="cccc"
         id="path3145"
         d="M 3.6477449,58.694838 C 24.396255,58.060378 44.191961,59.426849 64.65561,59.266786 C 52.659326,59.060249 45.46912,58.87801 34.243613,58.258399 C 28.427025,58.400827 14.595866,57.968723 3.6477449,58.694838 z "
         style="opacity:0.295082;fill:#f7e5cb;fill-opacity:1;fill-rule:evenodd;stroke:none;stroke-width:1px;stroke-linecap:butt;stroke-linejoin:miter;stroke-opacity:1" />
    </g>
    <g
       transform="matrix(-0.5013972,5.5103525e-4,-1.0531326e-4,-0.5203868,82.347401,66.930405)"
       id="g3153">
      <path
         style="opacity:0.295082;fill:#382509;fill-opacity:1;fill-rule:evenodd;stroke:none;stroke-width:1px;stroke-linecap:butt;stroke-linejoin:miter;stroke-opacity:1"
         d="M 3.6477449,58.694838 C 24.396255,58.060378 44.191961,59.426849 64.65561,59.266786 C 53.231275,59.393886 40.732122,58.866834 28.762081,59.266786 C 23.517442,58.789603 14.643528,58.921971 3.6477449,58.694838 z "
         id="path3155"
         sodipodi:nodetypes="cccc" />
      <path
         sodipodi:nodetypes="cccc"
         id="path3157"
         d="M 3.6477449,58.694838 C 24.396255,58.060378 44.191961,59.426849 64.65561,59.266786 C 52.659326,59.060249 45.46912,58.87801 34.243613,58.258399 C 28.427025,58.400827 14.595866,57.968723 3.6477449,58.694838 z "
         style="opacity:0.295082;fill:#f7e5cb;fill-opacity:1;fill-rule:evenodd;stroke:none;stroke-width:1px;stroke-linecap:butt;stroke-linejoin:miter;stroke-opacity:1" />
    </g>
    <g
       transform="matrix(-0.5013972,5.5103525e-4,-1.0531326e-4,-0.5203868,84.460859,92.303839)"
       id="g3165">
      <path
         style="opacity:0.295082;fill:#382509;fill-opacity:1;fill-rule:evenodd;stroke:none;stroke-width:1px;stroke-linecap:butt;stroke-linejoin:miter;stroke-opacity:1"
         d="M 3.6477449,58.694838 C 24.396255,58.060378 44.191961,59.426849 64.65561,59.266786 C 53.231275,59.393886 40.732122,58.866834 28.762081,59.266786 C 23.517442,58.789603 14.643528,58.921971 3.6477449,58.694838 z "
         id="path3167"
         sodipodi:nodetypes="cccc" />
      <path
         sodipodi:nodetypes="cccc"
         id="path3169"
         d="M 3.6477449,58.694838 C 24.396255,58.060378 44.191961,59.426849 64.65561,59.266786 C 52.659326,59.060249 45.46912,58.87801 34.243613,58.258399 C 28.427025,58.400827 14.595866,57.968723 3.6477449,58.694838 z "
         style="opacity:0.295082;fill:#f7e5cb;fill-opacity:1;fill-rule:evenodd;stroke:none;stroke-width:1px;stroke-linecap:butt;stroke-linejoin:miter;stroke-opacity:1" />
    </g>
    <g
       transform="matrix(-1.4613287,1.6070744e-3,-2.059225e-4,-1.0122951,93.416366,107.21574)"
       id="g3177">
      <path
         style="opacity:0.295082;fill:#382509;fill-opacity:1;fill-rule:evenodd;stroke:none;stroke-width:1px;stroke-linecap:butt;stroke-linejoin:miter;stroke-opacity:1"
         d="M 14.4375,59.03125 C 51.260358,59.141781 87.466092,59.682336 124.9375,59.4375 L 124.9375,59.375 C 103.62965,59.276649 85.799765,59.317904 75.21875,59.03125 C 55.115374,59.231255 34.358584,59.081834 14.4375,59.03125 z "
         transform="matrix(-0.446568,0,0,-1.499774,62.35127,147.8115)"
         id="path3179" />
      <path
         style="opacity:0.295082;fill:#f7e5cb;fill-opacity:1;fill-rule:evenodd;stroke:none;stroke-width:1px;stroke-linecap:butt;stroke-linejoin:miter;stroke-opacity:1"
         d="M 61.179029,59.277966 L 61.179029,59.18423 C 55.319659,59.000542 51.026438,58.796986 45.062879,58.246871 C 41.582436,58.3893 33.301564,57.989435 26.75059,58.715551 C 38.460623,58.117126 49.669636,59.276114 61.179029,59.277966 z "
         id="path3181" />
    </g>
    <g
       transform="matrix(1.1177945,-1.2300007e-3,-1.4702876e-4,-0.7224554,24.154481,97.988748)"
       id="g3195">
      <path
         style="opacity:0.295082;fill:#382509;fill-opacity:1;fill-rule:evenodd;stroke:none;stroke-width:1px;stroke-linecap:butt;stroke-linejoin:miter;stroke-opacity:1"
         d="M 56.84375,76.25 C 50.55502,76.411937 39.90367,76.3556 26.71875,76.4375 C 45.378354,76.58719 63.399696,76.354229 81.59375,76.25 C 73.349611,76.281102 65.032052,76.322135 56.84375,76.25 z "
         transform="matrix(0.833964,-1.419849e-3,-3.948531e-4,-3.001894,-18.61323,288.2045)"
         id="path3197" />
      <path
         style="opacity:0.295082;fill:#f7e5cb;fill-opacity:1;fill-rule:evenodd;stroke:none;stroke-width:1px;stroke-linecap:butt;stroke-linejoin:miter;stroke-opacity:1"
         d="M 81.59375,76.25 C 63.399696,76.354229 45.378354,76.58719 26.71875,76.4375 C 39.846669,76.673176 56.431602,76.518353 63.40625,76.5625 C 72.039878,76.426024 79.112616,76.369115 86.5625,76.3125 L 86.5625,76.25 C 84.910634,76.257093 83.242095,76.240557 81.59375,76.25 z "
         transform="matrix(0.833964,-1.419849e-3,-3.948531e-4,-3.001894,-18.61323,288.2045)"
         id="path3199" />
    </g>
    <g
       transform="matrix(-0.5013972,5.5103525e-4,-1.0531326e-4,-0.5203868,90.769893,90.216317)"
       id="g3213">
      <path
         style="opacity:0.295082;fill:#382509;fill-opacity:1;fill-rule:evenodd;stroke:none;stroke-width:1px;stroke-linecap:butt;stroke-linejoin:miter;stroke-opacity:1"
         d="M 78.34375,78.1875 C 75.124646,78.237005 71.847343,78.233022 68.59375,78.21875 C 74.566306,78.272594 80.509068,78.389208 86.5625,78.375 L 86.5625,78.3125 C 83.191499,78.298896 80.222545,78.262872 78.34375,78.1875 z "
         transform="matrix(-1.859206,-1.968702e-3,8.753469e-4,-4.167534,174.3587,385.3196)"
         id="path3215" />
      <path
         style="opacity:0.295082;fill:#f7e5cb;fill-opacity:1;fill-rule:evenodd;stroke:none;stroke-width:1px;stroke-linecap:butt;stroke-linejoin:miter;stroke-opacity:1"
         d="M 59.03125,78.21875 C 65.483643,78.265257 69.368384,78.291677 75.40625,78.4375 C 77.637162,78.412077 82.07297,78.443301 86.5625,78.40625 L 86.5625,78.375 C 77.300643,78.396739 68.283045,78.182096 59.03125,78.21875 z "
         transform="matrix(-1.859206,-1.968702e-3,8.753469e-4,-4.167534,174.3587,385.3196)"
         id="path3217" />
    </g>
    <g
       id="g3219"
       transform="matrix(1.0400634,-1.1459677e-3,-2.1921539e-4,-1.079453,27.98854,124.97287)">
      <path
         style="opacity:0.295082;fill:#382509;fill-opacity:1;fill-rule:evenodd;stroke:none;stroke-width:1px;stroke-linecap:butt;stroke-linejoin:miter;stroke-opacity:1"
         d="M 86.5625,78.90625 C 77.334179,78.953911 67.819606,79.071101 58.5625,78.9375 C 52.711132,79.177781 42.799269,79.099888 30.53125,79.21875 C 49.591052,79.469725 67.934872,79.056644 86.5625,78.9375 L 86.5625,78.90625 z "
         transform="matrix(0.896292,-9.515194e-4,-4.234608e-4,-2.009101,-23.68551,217.8907)"
         id="path3221" />
      <path
         style="opacity:0.295082;fill:#f7e5cb;fill-opacity:1;fill-rule:evenodd;stroke:none;stroke-width:1px;stroke-linecap:butt;stroke-linejoin:miter;stroke-opacity:1"
         d="M 86.5625,78.9375 C 67.934867,79.056644 49.591057,79.469725 30.53125,79.21875 C 42.746316,79.574378 58.166606,79.369686 64.65625,79.4375 C 72.820802,79.232586 79.491701,79.114277 86.5625,79.03125 L 86.5625,78.9375 z "
         transform="matrix(0.896292,-9.515194e-4,-4.234608e-4,-2.009101,-23.68551,217.8907)"
         id="path3223" />
    </g>
    <g
       id="g3268"
       transform="matrix(-1.4598012,2.5612949e-3,-2.0570706e-4,-1.6133558,98.485954,139.18143)"
       style="opacity:0.52999998">
      <path
         style="opacity:0.5;fill:#382509;fill-opacity:1;fill-rule:evenodd;stroke:none;stroke-width:1px;stroke-linecap:butt;stroke-linejoin:miter;stroke-opacity:1"
         d="M 83.09375,57.65625 C 62.990365,57.856256 42.20234,57.738085 22.28125,57.6875 C 56.524639,57.790255 90.25138,58.254103 124.9375,58.125 L 124.9375,58 C 107.43462,57.939335 92.275262,57.90499 83.09375,57.65625 z "
         transform="matrix(-0.446568,0,0,-1.499774,65.86371,145.7599)"
         id="path3270" />
      <path
         style="opacity:0.56967211;fill:#f7e5cb;fill-opacity:1;fill-rule:evenodd;stroke:none;stroke-width:1px;stroke-linecap:butt;stroke-linejoin:miter;stroke-opacity:1"
         d="M 2.71875,57.65625 C 29.582029,57.793962 45.675222,57.930614 70.8125,58.34375 C 81.387555,58.266647 103.76199,58.440391 124.9375,58.25 L 124.9375,58.125 C 83.659556,58.278638 43.7869,57.560602 2.71875,57.65625 z "
         transform="matrix(-0.446568,0,0,-1.499774,65.86371,145.7599)"
         id="path3272" />
    </g>
    <path
       style="opacity:0.07371599;fill:#382509;fill-opacity:1;fill-rule:evenodd;stroke:none;stroke-width:1px;stroke-linecap:butt;stroke-linejoin:miter;stroke-opacity:1"
       d="M 77.367276,30.18997 C 54.272406,30.545544 32.237884,29.858692 9.4600466,29.967049 C 22.176331,29.886916 36.089051,30.145881 49.412726,29.923092 C 55.250525,30.16499 65.127963,30.08524 77.367276,30.18997 z "
       id="path3107"
       sodipodi:nodetypes="cccc" />
    <path
       sodipodi:nodetypes="cccc"
       id="path3109"
       d="M 77.367276,30.18997 C 54.272406,30.545544 32.237884,29.858692 9.4600466,29.967049 C 22.812996,30.059836 30.816351,30.145866 43.311402,30.454558 C 49.785764,30.373315 65.181117,30.581239 77.367276,30.18997 z "
       style="opacity:0.07371599;fill:#f7e5cb;fill-opacity:1;fill-rule:evenodd;stroke:none;stroke-width:1px;stroke-linecap:butt;stroke-linejoin:miter;stroke-opacity:1" />
    <g
       transform="matrix(-0.5013972,5.5103525e-4,-1.0531326e-4,-0.5203868,84.383777,60.726191)"
       id="g3550"
       style="opacity:0.24981522">
      <path
         style="opacity:0.295082;fill:#382509;fill-opacity:1;fill-rule:evenodd;stroke:none;stroke-width:1px;stroke-linecap:butt;stroke-linejoin:miter;stroke-opacity:1"
         d="M 3.6477449,58.694838 C 24.396255,58.060378 44.191961,59.426849 64.65561,59.266786 C 53.231275,59.393886 40.732122,58.866834 28.762081,59.266786 C 23.517442,58.789603 14.643528,58.921971 3.6477449,58.694838 z "
         id="path3552"
         sodipodi:nodetypes="cccc" />
      <path
         sodipodi:nodetypes="cccc"
         id="path3554"
         d="M 3.6477449,58.694838 C 24.396255,58.060378 44.191961,59.426849 64.65561,59.266786 C 52.659326,59.060249 45.46912,58.87801 34.243613,58.258399 C 28.427025,58.400827 14.595866,57.968723 3.6477449,58.694838 z "
         style="opacity:0.295082;fill:#f7e5cb;fill-opacity:1;fill-rule:evenodd;stroke:none;stroke-width:1px;stroke-linecap:butt;stroke-linejoin:miter;stroke-opacity:1" />
    </g>
    <g
       id="g3395"
       transform="matrix(0.2511821,-0.1528931,0.1450188,0.2648204,-157.20077,-7.0887305)"
       style="opacity:0.5">
      <g
         id="g6634"
         transform="matrix(0.195819,0.113056,-0.113056,0.195819,347.9316,277.7625)">
        <path
           d="M 549.34013,497.73464 L 723.80107,497.73464 C 732.5833,497.73464 739.75224,504.9031 739.75224,513.68532 L 739.75224,686.98268 C 739.75224,695.76491 732.58329,703.0237 723.80107,703.0237 L 549.34013,703.0237 C 540.55839,703.0237 533.39042,695.76491 533.39042,686.98268 L 533.39042,513.68532 C 533.38896,504.90309 540.55839,497.73464 549.34013,497.73464 z "
           style="fill:none;stroke:#ffffff;stroke-width:9.31579781;stroke-miterlimit:4;stroke-dasharray:none;stroke-opacity:1"
           id="path113" />
        <polygon
           points="95.6416,148.22559 95.6416,30.53027 124.22754,27.79297 123.9248,79.49414 161.63672,29.01074 192.04785,36.00391 152.81543,86.4873 191.74219,140.01465 161.94043,149.44238 123.92676,93.78662 123.92676,143.96582 95.6416,148.22559 "
           style="fill:#ffffff"
           id="path5692_1_"
           transform="translate(524.0706,488.4153)" />
        <path
           d="M 687.88994,645.24928 L 685.42021,646.03346 C 685.05888,646.14479 684.67021,646.011 684.45537,645.69655 C 684.45537,645.69655 679.58428,638.56764 673.29521,629.36061 C 665.77373,644.07838 650.47197,654.16041 632.80498,654.16041 C 607.70049,654.16041 587.34795,633.80885 587.34795,608.70436 C 587.34795,590.23805 598.36406,574.35573 614.17705,567.23952 L 614.17705,555.51393 C 611.29912,556.52125 608.51885,557.73414 605.87627,559.1736 C 605.87139,559.17067 605.86748,559.16628 605.8626,559.16335 L 584.45097,545.12038 C 583.8748,544.74343 583.11406,544.82155 582.62773,545.30886 L 571.40996,556.52614 C 570.93828,556.99928 570.8499,557.73415 571.19609,558.3069 L 584.33037,579.93776 C 582.00029,583.85475 580.13506,588.0779 578.80303,592.53249 L 554.6878,597.54812 C 554.0169,597.68679 553.53301,598.28103 553.53301,598.96853 L 553.53301,614.8323 C 553.53301,615.5032 553.99004,616.08425 554.63946,616.24246 L 578.04083,621.96219 C 579.29083,627.11942 581.22247,632.01199 583.77862,636.50711 L 570.23369,657.1653 C 569.85576,657.74147 569.93584,658.50221 570.42314,658.98854 L 581.63847,670.20631 C 582.11161,670.67799 582.84892,670.76783 583.42021,670.42018 L 604.65263,657.53053 C 608.81865,659.9358 613.31816,661.83033 618.06962,663.11354 L 623.02372,686.92702 C 623.16239,687.59987 623.75761,688.08425 624.44462,688.08425 L 640.30888,688.08425 C 640.9749,688.08425 641.55888,687.62722 641.71708,686.97585 L 647.55009,663.10769 C 652.45048,661.7864 657.08329,659.81765 661.35673,657.30203 L 682.2747,671.02078 C 682.85185,671.39676 683.60966,671.31961 684.09892,670.83328 L 695.31572,659.61551 C 695.79033,659.14188 695.87724,658.40848 695.52959,657.83719 L 687.88994,645.24928 z "
           style="fill:#ffffff"
           id="path273" />
      </g>
    </g>
    <path
       style="font-size:5.66798306px;font-style:normal;font-variant:normal;font-weight:bold;font-stretch:normal;text-align:start;line-height:125%;writing-mode:lr-tb;text-anchor:start;opacity:0.40163933;fill:#ffffff;fill-opacity:1;stroke:none;stroke-width:1px;stroke-linecap:butt;stroke-linejoin:miter;stroke-opacity:1;font-family:Bitstream Vera Sans"
       d="M 64.505725,57.67071 L 65.440555,57.67071 L 65.440555,60.014842 L 66.516385,58.877371 L 67.602665,58.877371 L 66.174305,60.299902 L 67.714955,61.977049 L 66.581665,61.977049 L 65.440555,60.684594 L 65.440555,61.977049 L 64.505725,61.977049 L 64.505725,57.67071 M 70.240035,59.72148 C 70.158215,59.680891 70.076395,59.65137 69.994575,59.632917 C 69.914495,59.612624 69.833545,59.602476 69.751725,59.602474 C 69.511485,59.602476 69.326095,59.684581 69.195535,59.848788 C 69.066715,60.011154 69.002295,60.244552 69.002295,60.548983 L 69.002295,61.977049 L 68.067475,61.977049 L 68.067475,58.877371 L 69.002295,58.877371 L 69.002295,59.386604 C 69.122415,59.183651 69.259945,59.036048 69.414885,58.943792 C 69.571555,58.849698 69.758695,58.80265 69.976295,58.802646 C 70.007625,58.80265 70.041575,58.804495 70.078135,58.808182 C 70.114685,58.81003 70.167795,58.815565 70.237425,58.824787 L 70.240035,59.72148 M 70.678725,60.770389 L 70.678725,58.877371 L 71.618785,58.877371 L 71.618785,59.187339 C 71.618775,59.35524 71.617905,59.566498 71.616165,59.821112 C 71.614425,60.073885 71.613555,60.242707 71.613555,60.327577 C 71.613555,60.57666 71.619645,60.756552 71.631835,60.867254 C 71.644025,60.976112 71.664915,61.055449 71.694505,61.105265 C 71.732795,61.169842 71.782415,61.219658 71.843345,61.254713 C 71.906015,61.28977 71.977385,61.307298 72.057475,61.307297 C 72.252435,61.307298 72.405625,61.227961 72.517045,61.069286 C 72.628465,60.910613 72.684165,60.69013 72.684165,60.407837 L 72.684165,58.877371 L 73.618995,58.877371 L 73.618995,61.977049 L 72.684165,61.977049 L 72.684165,61.528703 C 72.543155,61.709518 72.393445,61.843283 72.235035,61.93 C 72.078365,62.014872 71.905135,62.057308 71.715395,62.057309 C 71.377675,62.057308 71.120025,61.947528 70.942455,61.727968 C 70.766635,61.508408 70.678725,61.189215 70.678725,60.770389 M 74.522485,57.67071 L 75.457315,57.67071 L 75.457315,61.977049 L 74.522485,61.977049 L 74.522485,57.67071 M 79.280205,60.418907 L 79.280205,60.701199 L 77.094575,60.701199 C 77.117205,60.933676 77.196415,61.108033 77.332205,61.22427 C 77.467985,61.340509 77.657735,61.398627 77.901455,61.398627 C 78.098175,61.398627 78.299235,61.368184 78.504655,61.307297 C 78.711805,61.244566 78.924195,61.150469 79.141795,61.025005 L 79.141795,61.788854 C 78.920715,61.877417 78.699625,61.943838 78.478545,61.988119 C 78.257455,62.034245 78.036375,62.057308 77.815285,62.057309 C 77.286065,62.057308 76.874365,61.91524 76.580165,61.631103 C 76.287705,61.345121 76.141475,60.944746 76.141475,60.429977 C 76.141475,59.924437 76.285085,59.52683 76.572335,59.237155 C 76.861305,58.947486 77.258215,58.80265 77.763065,58.802646 C 78.222645,58.80265 78.589955,58.949331 78.865005,59.24269 C 79.141795,59.536055 79.280195,59.928127 79.280205,60.418907 M 78.319255,60.089566 C 78.319255,59.901374 78.267035,59.75008 78.162585,59.635685 C 78.059875,59.519449 77.924955,59.461331 77.757835,59.461328 C 77.576795,59.461331 77.429685,59.515759 77.316535,59.624615 C 77.203375,59.73163 77.132875,59.886613 77.105025,60.089566 L 78.319255,60.089566 M 82.168245,59.72148 C 82.086425,59.680891 82.004605,59.65137 81.922795,59.632917 C 81.842705,59.612624 81.761765,59.602476 81.679935,59.602474 C 81.439705,59.602476 81.254305,59.684581 81.123745,59.848788 C 80.994925,60.011154 80.930515,60.244552 80.930515,60.548983 L 80.930515,61.977049 L 79.995685,61.977049 L 79.995685,58.877371 L 80.930515,58.877371 L 80.930515,59.386604 C 81.050635,59.183651 81.188155,59.036048 81.343095,58.943792 C 81.499765,58.849698 81.686905,58.80265 81.904505,58.802646 C 81.935845,58.80265 81.969785,58.804495 82.006345,58.808182 C 82.042905,58.81003 82.096005,58.815565 82.165635,58.824787 L 82.168245,59.72148"
       id="text2228" />
    <rect
       y="-63.720573"
       x="4.0264177"
       height="1.0972961"
       width="79.812531"
       id="rect4698"
       style="fill:url(#radialGradient2445);fill-opacity:1;fill-rule:nonzero;stroke:none;stroke-width:0.1;stroke-linecap:round;stroke-linejoin:round;stroke-miterlimit:4;stroke-dasharray:none;stroke-dashoffset:4;stroke-opacity:1"
       transform="scale(1,-1)" />
    <path
       style="fill:#57401e;fill-opacity:1;fill-rule:evenodd;stroke:#382509;stroke-width:0.69999999;stroke-linecap:butt;stroke-linejoin:miter;stroke-miterlimit:4;stroke-dasharray:none;stroke-opacity:1"
       d="M 72,24 L 72,37.405127 L 73.523356,35.336516 L 73.49851,24 L 72,24 z "
       id="path3365"
       sodipodi:nodetypes="ccccc" />
    <path
       style="fill:#5a3b0e;fill-opacity:1;fill-rule:evenodd;stroke:#382509;stroke-width:0.69999999;stroke-linecap:butt;stroke-linejoin:miter;stroke-miterlimit:4;stroke-dasharray:none;stroke-opacity:1"
       d="M 40,24.044982 L 40,37.450112 L 41.52788,35.418488 L 41.52788,24.044982 L 40,24.044982 z "
       id="path3367"
       sodipodi:nodetypes="ccccc" />
    <path
       style="fill:#51350d;fill-opacity:1;fill-rule:evenodd;stroke:#382509;stroke-width:0.69999999;stroke-linecap:butt;stroke-linejoin:miter;stroke-miterlimit:4;stroke-dasharray:none;stroke-opacity:1"
       d="M 8.0766664,24.044982 L 8.0766664,37.450112 L 9.6045455,35.172355 L 9.6045455,24.044982 L 8.0766664,24.044982 z "
       id="path3371"
       sodipodi:nodetypes="ccccc" />
    <path
       sodipodi:nodetypes="ccccc"
       id="path3612"
       d="M 16,24.044981 L 16,28.668768 L 17.527879,27.883109 L 17.527879,24.044981 L 16,24.044981 z "
       style="fill:#51350d;fill-opacity:1;fill-rule:evenodd;stroke:#382509;stroke-width:0.69999999;stroke-linecap:butt;stroke-linejoin:miter;stroke-miterlimit:4;stroke-dasharray:none;stroke-opacity:1" />
    <path
       style="fill:#51350d;fill-opacity:1;fill-rule:evenodd;stroke:#382509;stroke-width:0.69999999;stroke-linecap:butt;stroke-linejoin:miter;stroke-miterlimit:4;stroke-dasharray:none;stroke-opacity:1"
       d="M 24,24.044981 L 24,28.668768 L 25.527879,27.883109 L 25.527879,24.044981 L 24,24.044981 z "
       id="path3614"
       sodipodi:nodetypes="ccccc" />
    <path
       sodipodi:nodetypes="ccccc"
       id="path3616"
       d="M 32,24.044981 L 32,28.668768 L 33.527879,27.883109 L 33.527879,24.044981 L 32,24.044981 z "
       style="fill:#51350d;fill-opacity:1;fill-rule:evenodd;stroke:#382509;stroke-width:0.69999999;stroke-linecap:butt;stroke-linejoin:miter;stroke-miterlimit:4;stroke-dasharray:none;stroke-opacity:1" />
    <path
       style="fill:#51350d;fill-opacity:1;fill-rule:evenodd;stroke:#382509;stroke-width:0.69999999;stroke-linecap:butt;stroke-linejoin:miter;stroke-miterlimit:4;stroke-dasharray:none;stroke-opacity:1"
       d="M 48,24.044981 L 48,28.668768 L 49.527879,27.883109 L 49.527879,24.044981 L 48,24.044981 z "
       id="path3618"
       sodipodi:nodetypes="ccccc" />
    <path
       sodipodi:nodetypes="ccccc"
       id="path3620"
       d="M 56,24.044981 L 56,28.668768 L 57.527879,27.883109 L 57.527879,24.044981 L 56,24.044981 z "
       style="fill:#51350d;fill-opacity:1;fill-rule:evenodd;stroke:#382509;stroke-width:0.69999999;stroke-linecap:butt;stroke-linejoin:miter;stroke-miterlimit:4;stroke-dasharray:none;stroke-opacity:1" />
    <path
       style="fill:#51350d;fill-opacity:1;fill-rule:evenodd;stroke:#382509;stroke-width:0.69999999;stroke-linecap:butt;stroke-linejoin:miter;stroke-miterlimit:4;stroke-dasharray:none;stroke-opacity:1"
       d="M 64,24.044981 L 64,28.668768 L 65.527879,27.883109 L 65.527879,24.044981 L 64,24.044981 z "
       id="path3622"
       sodipodi:nodetypes="ccccc" />
    <path
       sodipodi:nodetypes="ccccc"
       id="path3624"
       d="M 80,24.044981 L 80,28.668768 L 81.527879,27.883109 L 81.527879,24.044981 L 80,24.044981 z "
       style="fill:#51350d;fill-opacity:1;fill-rule:evenodd;stroke:#382509;stroke-width:0.69999999;stroke-linecap:butt;stroke-linejoin:miter;stroke-miterlimit:4;stroke-dasharray:none;stroke-opacity:1" />
    <rect
       style="fill:url(#radialGradient2448);fill-opacity:1;fill-rule:nonzero;stroke:none;stroke-width:0.1;stroke-linecap:round;stroke-linejoin:round;stroke-miterlimit:4;stroke-dasharray:none;stroke-dashoffset:4;stroke-opacity:1"
       id="rect3800"
       width="79.812531"
       height="1.3029997"
       x="4.0264177"
       y="24.059776" />
  </g>
</svg>
