<?xml version="1.0" encoding="UTF-8" standalone="no"?>
<!-- Created with Inkscape (http://www.inkscape.org/) -->
<svg
   xmlns:dc="http://purl.org/dc/elements/1.1/"
   xmlns:cc="http://web.resource.org/cc/"
   xmlns:rdf="http://www.w3.org/1999/02/22-rdf-syntax-ns#"
   xmlns:svg="http://www.w3.org/2000/svg"
   xmlns="http://www.w3.org/2000/svg"
   xmlns:xlink="http://www.w3.org/1999/xlink"
   xmlns:sodipodi="http://sodipodi.sourceforge.net/DTD/sodipodi-0.dtd"
   xmlns:inkscape="http://www.inkscape.org/namespaces/inkscape"
   width="128"
   height="128"
   id="svg4446"
   sodipodi:version="0.32"
   inkscape:version="0.44"
   version="1.0"
   sodipodi:docbase="/home/pinheiro/artwork/Oxygen/theme/svg/apps"
   sodipodi:docname="k3b.svg">
  <defs
     id="defs4448">
    <linearGradient
       id="linearGradient3701">
      <stop
         style="stop-color:black;stop-opacity:1;"
         offset="0"
         id="stop3703" />
      <stop
         id="stop3709"
         offset="0.76106197"
         style="stop-color:black;stop-opacity:1;" />
      <stop
         style="stop-color:black;stop-opacity:0;"
         offset="1"
         id="stop3705" />
    </linearGradient>
    <radialGradient
       inkscape:collect="always"
       xlink:href="#linearGradient3701"
       id="radialGradient3533"
       gradientUnits="userSpaceOnUse"
       cx="64.17112"
       cy="65.540108"
       fx="64.17112"
       fy="81.597778"
       r="63.144386" />
    <linearGradient
       id="linearGradient3954">
      <stop
         style="stop-color:#b3b3b3;stop-opacity:1;"
         offset="0"
         id="stop3956" />
      <stop
         id="stop3962"
         offset="0.52879584"
         style="stop-color:#ffffff;stop-opacity:1;" />
      <stop
         style="stop-color:#c5c5c5;stop-opacity:1;"
         offset="1"
         id="stop3958" />
    </linearGradient>
    <linearGradient
       inkscape:collect="always"
       xlink:href="#linearGradient3954"
       id="linearGradient3535"
       gradientUnits="userSpaceOnUse"
       x1="10.955224"
       y1="132.72182"
       x2="134.49483"
       y2="9.1802578" />
    <linearGradient
       inkscape:collect="always"
       id="linearGradient13074">
      <stop
         style="stop-color:#ffc2c2;stop-opacity:1;"
         offset="0"
         id="stop13076" />
      <stop
         style="stop-color:#ffc2c2;stop-opacity:0;"
         offset="1"
         id="stop13078" />
    </linearGradient>
    <linearGradient
       inkscape:collect="always"
       xlink:href="#linearGradient13074"
       id="linearGradient3537"
       gradientUnits="userSpaceOnUse"
       gradientTransform="matrix(0.444608,0,0,0.444608,-18.72151,203.9215)"
       x1="37.562634"
       y1="-411.41898"
       x2="31.65682"
       y2="-314.65137" />
    <linearGradient
       id="linearGradient2677">
      <stop
         id="stop2679"
         offset="0"
         style="stop-color:#fff017;stop-opacity:1;" />
      <stop
         style="stop-color:#ebb100;stop-opacity:0.49803922;"
         offset="0.48351648"
         id="stop2685" />
      <stop
         id="stop2681"
         offset="1"
         style="stop-color:#ebb100;stop-opacity:0;" />
    </linearGradient>
    <radialGradient
       inkscape:collect="always"
       xlink:href="#linearGradient2677"
       id="radialGradient3539"
       gradientUnits="userSpaceOnUse"
       gradientTransform="matrix(0.972681,-1.729724e-2,1.321147e-2,0.742924,-67.44821,-18.16038)"
       cx="64.05146"
       cy="76.959541"
       fx="64.015671"
       fy="62.624741"
       r="40.934029" />
    <radialGradient
       inkscape:collect="always"
       xlink:href="#linearGradient4601"
       id="radialGradient3541"
       gradientUnits="userSpaceOnUse"
       gradientTransform="matrix(1.018878,0,0,0.882791,-69.39021,0.71662)"
       cx="49.661034"
       cy="15.306388"
       fx="29.735439"
       fy="29.70657"
       r="48.206001" />
    <linearGradient
       id="linearGradient4601">
      <stop
         style="stop-color:white;stop-opacity:0"
         offset="0"
         id="stop4603" />
      <stop
         id="stop4609"
         offset="0.60768723"
         style="stop-color:white;stop-opacity:0;" />
      <stop
         style="stop-color:white;stop-opacity:1;"
         offset="0.80807632"
         id="stop4613" />
      <stop
         style="stop-color:white;stop-opacity:0;"
         offset="0.94315338"
         id="stop4611" />
      <stop
         style="stop-color:white;stop-opacity:0"
         offset="1"
         id="stop4605" />
    </linearGradient>
    <radialGradient
       inkscape:collect="always"
       xlink:href="#linearGradient4601"
       id="radialGradient3543"
       gradientUnits="userSpaceOnUse"
       gradientTransform="matrix(1.018878,0,0,0.882791,-69.39021,0.71662)"
       cx="83.739357"
       cy="23.903526"
       fx="63.813786"
       fy="38.303715"
       r="48.206001" />
    <linearGradient
       inkscape:collect="always"
       id="linearGradient4632">
      <stop
         style="stop-color:white;stop-opacity:1;"
         offset="0"
         id="stop4634" />
      <stop
         style="stop-color:white;stop-opacity:0;"
         offset="1"
         id="stop4636" />
    </linearGradient>
    <radialGradient
       inkscape:collect="always"
       xlink:href="#linearGradient4632"
       id="radialGradient3545"
       gradientUnits="userSpaceOnUse"
       gradientTransform="matrix(0.658968,0,0,0.46529,-46.24381,4.97392)"
       cx="63.219772"
       cy="36.040401"
       fx="63.482861"
       fy="21.91662"
       r="37.190357" />
    <linearGradient
       id="linearGradient6728">
      <stop
         style="stop-color:#460000;stop-opacity:0;"
         offset="0"
         id="stop6730" />
      <stop
         id="stop6736"
         offset="0.86725664"
         style="stop-color:#460000;stop-opacity:0;" />
      <stop
         style="stop-color:#460000;stop-opacity:0.71764708;"
         offset="1"
         id="stop6732" />
    </linearGradient>
    <radialGradient
       inkscape:collect="always"
       xlink:href="#linearGradient6728"
       id="radialGradient3547"
       gradientUnits="userSpaceOnUse"
       cx="64.17112"
       cy="65.540108"
       fx="60.836517"
       fy="25.623783"
       r="63.144386" />
    <linearGradient
       id="linearGradient8361">
      <stop
         id="stop8363"
         offset="0"
         style="stop-color:#002246;stop-opacity:0;" />
      <stop
         style="stop-color:#460000;stop-opacity:0;"
         offset="0.78761059"
         id="stop8365" />
      <stop
         id="stop8367"
         offset="1"
         style="stop-color:#8a0000;stop-opacity:1;" />
    </linearGradient>
    <radialGradient
       inkscape:collect="always"
       xlink:href="#linearGradient8361"
       id="radialGradient3549"
       gradientUnits="userSpaceOnUse"
       gradientTransform="matrix(0.44989,0,0,0.468082,-32.89801,8.67312)"
       cx="64.49144"
       cy="66.580559"
       fx="63.720734"
       fy="15.594903"
       r="63.144386" />
    <radialGradient
       inkscape:collect="always"
       xlink:href="#linearGradient3701"
       id="radialGradient4519"
       gradientUnits="userSpaceOnUse"
       cx="64.17112"
       cy="65.540108"
       fx="64.17112"
       fy="81.597778"
       r="63.144386" />
    <linearGradient
       inkscape:collect="always"
       xlink:href="#linearGradient3954"
       id="linearGradient4521"
       gradientUnits="userSpaceOnUse"
       x1="10.955224"
       y1="132.72182"
       x2="134.49483"
       y2="9.1802578" />
    <linearGradient
       inkscape:collect="always"
       xlink:href="#linearGradient13074"
       id="linearGradient4523"
       gradientUnits="userSpaceOnUse"
       gradientTransform="matrix(0.444608,0,0,0.444608,-18.72151,203.9215)"
       x1="37.562634"
       y1="-411.41898"
       x2="31.65682"
       y2="-314.65137" />
    <radialGradient
       inkscape:collect="always"
       xlink:href="#linearGradient2677"
       id="radialGradient4525"
       gradientUnits="userSpaceOnUse"
       gradientTransform="matrix(0.972681,-1.729724e-2,1.321147e-2,0.742924,-67.44821,-18.16038)"
       cx="64.05146"
       cy="76.959541"
       fx="64.015671"
       fy="62.624741"
       r="40.934029" />
    <radialGradient
       inkscape:collect="always"
       xlink:href="#linearGradient4601"
       id="radialGradient4527"
       gradientUnits="userSpaceOnUse"
       gradientTransform="matrix(1.018878,0,0,0.882791,-69.39021,0.71662)"
       cx="49.661034"
       cy="15.306388"
       fx="29.735439"
       fy="29.70657"
       r="48.206001" />
    <radialGradient
       inkscape:collect="always"
       xlink:href="#linearGradient4601"
       id="radialGradient4529"
       gradientUnits="userSpaceOnUse"
       gradientTransform="matrix(1.018878,0,0,0.882791,-69.39021,0.71662)"
       cx="83.739357"
       cy="23.903526"
       fx="63.813786"
       fy="38.303715"
       r="48.206001" />
    <radialGradient
       inkscape:collect="always"
       xlink:href="#linearGradient4632"
       id="radialGradient4531"
       gradientUnits="userSpaceOnUse"
       gradientTransform="matrix(0.658968,0,0,0.46529,-46.24381,4.97392)"
       cx="63.219772"
       cy="36.040401"
       fx="63.482861"
       fy="21.91662"
       r="37.190357" />
    <radialGradient
       inkscape:collect="always"
       xlink:href="#linearGradient6728"
       id="radialGradient4533"
       gradientUnits="userSpaceOnUse"
       cx="64.17112"
       cy="65.540108"
       fx="60.836517"
       fy="25.623783"
       r="63.144386" />
    <radialGradient
       inkscape:collect="always"
       xlink:href="#linearGradient8361"
       id="radialGradient4535"
       gradientUnits="userSpaceOnUse"
       gradientTransform="matrix(0.44989,0,0,0.468082,-32.89801,8.67312)"
       cx="64.49144"
       cy="66.580559"
       fx="63.720734"
       fy="15.594903"
       r="63.144386" />
  </defs>
  <sodipodi:namedview
     id="base"
     pagecolor="#ffffff"
     bordercolor="#666666"
     borderopacity="1.0"
     inkscape:pageopacity="0.0"
     inkscape:pageshadow="2"
     inkscape:zoom="15.556349"
     inkscape:cx="127.61719"
     inkscape:cy="64.624798"
     inkscape:current-layer="layer1"
     showgrid="true"
     inkscape:document-units="px"
     inkscape:grid-bbox="true"
     width="128px"
     height="128px"
     inkscape:window-width="849"
     inkscape:window-height="571"
     inkscape:window-x="1063"
     inkscape:window-y="0" />
  <metadata
     id="metadata4451">
    <rdf:RDF>
      <cc:Work
         rdf:about="">
        <dc:format>image/svg+xml</dc:format>
        <dc:type
           rdf:resource="http://purl.org/dc/dcmitype/StillImage" />
      </cc:Work>
    </rdf:RDF>
  </metadata>
  <g
     id="layer1"
     inkscape:label="Layer 1"
     inkscape:groupmode="layer">
    <g
       id="g4506"
       transform="matrix(1.980441,0,0,1.980441,72.28183,-8.016036)">
      <path
         sodipodi:type="arc"
         style="fill:url(#radialGradient4519);fill-opacity:1;fill-rule:nonzero;stroke:none;stroke-width:0.69999999;stroke-linecap:round;stroke-linejoin:round;stroke-miterlimit:4;stroke-dasharray:none;stroke-dashoffset:4;stroke-opacity:0.9908257"
         id="path3287"
         sodipodi:cx="64.17112"
         sodipodi:cy="65.540108"
         sodipodi:rx="63.144386"
         sodipodi:ry="63.144386"
         d="M 127.31551 65.540108 A 63.144386 63.144386 0 1 1  1.0267334,65.540108 A 63.144386 63.144386 0 1 1  127.31551 65.540108 z"
         inkscape:r_cx="true"
         inkscape:r_cy="true"
         transform="matrix(0.51178,0,0,0.51178,-37.02331,2.82152)" />
      <path
         transform="matrix(0.477661,0,0,0.477661,-34.83391,5.05762)"
         inkscape:r_cy="true"
         inkscape:r_cx="true"
         d="M 127.31551 65.540108 A 63.144386 63.144386 0 1 1  1.0267334,65.540108 A 63.144386 63.144386 0 1 1  127.31551 65.540108 z"
         sodipodi:ry="63.144386"
         sodipodi:rx="63.144386"
         sodipodi:cy="65.540108"
         sodipodi:cx="64.17112"
         id="path3290"
         style="fill:url(#linearGradient4521);fill-opacity:1;fill-rule:nonzero;stroke:none;stroke-width:0.69999999;stroke-linecap:round;stroke-linejoin:round;stroke-miterlimit:4;stroke-dasharray:none;stroke-dashoffset:4;stroke-opacity:0.9908257"
         sodipodi:type="arc" />
      <path
         id="path3292"
         d="M -6.5792138,20.19379 L -6.5792138,37.01605 L -3.4878338,37.01605 L -3.4878338,20.19379 L -6.5792138,20.19379 z M 0.11875618,20.19379 L 0.11875618,37.01605 L 3.2101262,37.01605 L 3.2101262,20.19379 L 0.11875618,20.19379 z M 6.7909662,20.19379 L 6.7909662,37.01605 L 9.9081062,37.01605 L 9.9081062,20.19379 L 6.7909662,20.19379 z M -20.722294,20.3226 L -20.722294,37.14485 L -18.429514,37.14485 L -18.429514,30.54991 L -16.703524,28.72084 L -11.216284,37.14485 L -8.4598138,37.14485 L -15.209344,27.20091 L -8.6401638,20.3226 L -11.319374,20.3226 L -18.429514,27.79342 L -18.429514,20.3226 L -20.722294,20.3226 z M -6.8626138,39.69524 L -6.8626138,45.28549 C -6.8626138,47.50557 -6.4772438,49.18626 -5.7033338,50.30898 C -4.9219038,51.43168 -3.7508238,51.98347 -2.2255438,51.98347 C -1.0233338,51.98347 -0.036903817,51.63633 0.73705618,50.92726 C 1.5184262,50.22661 1.9885862,49.25709 2.1538962,48.01621 C 2.3042062,49.12202 2.6680562,49.94061 3.2616462,50.48932 C 3.8552462,51.04643 4.6796062,51.33943 5.7090162,51.33944 C 7.0690062,51.33943 8.1080162,50.81472 8.8519162,49.76799 C 9.5957662,48.72125 9.9596162,47.21857 9.9596662,45.28549 L 9.9596662,39.69524 L -6.8626138,39.69524 z M -4.9820138,42.27139 L 1.1749862,42.27139 L 1.1749862,45.28549 C 1.1749862,46.70363 0.92058618,47.76152 0.40214618,48.4284 C -0.10882382,49.09525 -0.92243382,49.43308 -2.0194738,49.43308 C -3.0788938,49.43308 -3.8206238,49.113 -4.2864338,48.47991 C -4.7447838,47.8468 -4.9820138,46.77117 -4.9820138,45.28549 L -4.9820138,42.27139 z M 3.0298262,42.27139 L 8.1048362,42.27139 L 8.1048362,45.23397 C 8.1047862,46.48329 7.9137162,47.39866 7.5380462,47.93892 C 7.1623862,48.4876 6.5580262,48.76328 5.7090162,48.76329 C 4.7697662,48.76328 4.0688362,48.47028 3.6480662,47.91316 C 3.2273062,47.36446 3.0297762,46.46641 3.0298262,45.23397 L 3.0298262,42.27139 z "
         style="font-size:28px;font-style:normal;font-weight:normal;fill:white;fill-opacity:1;stroke:none;stroke-width:1px;stroke-linecap:butt;stroke-linejoin:miter;stroke-opacity:1;font-family:Bitstream Vera Sans Mono" />
      <path
         sodipodi:type="arc"
         style="fill:#bf0303;fill-opacity:1;fill-rule:nonzero;stroke:none;stroke-width:0.69999999;stroke-linecap:round;stroke-linejoin:round;stroke-miterlimit:4;stroke-dasharray:none;stroke-dashoffset:4;stroke-opacity:0.9908257"
         id="path3294"
         sodipodi:cx="64.17112"
         sodipodi:cy="65.540108"
         sodipodi:rx="63.144386"
         sodipodi:ry="63.144386"
         d="M 127.31551 65.540108 A 63.144386 63.144386 0 1 1  1.0267334,65.540108 A 63.144386 63.144386 0 1 1  127.31551 65.540108 z"
         inkscape:r_cx="true"
         inkscape:r_cy="true"
         transform="matrix(0.415922,0,0,0.415923,-30.87221,9.09622)" />
      <path
         style="opacity:0.40659341;fill:url(#linearGradient4523);fill-opacity:1;stroke:none;stroke-width:2.0999999;stroke-linecap:round;stroke-linejoin:round;stroke-miterlimit:4;stroke-dasharray:none;stroke-dashoffset:0;stroke-opacity:1"
         d="M -2.4948438,21.00173 L -2.4948438,31.46792 L 7.8768362,31.46792 L 7.8768362,21.00173 L -2.4948438,21.00173 z M -17.573734,21.36146 L -17.573734,24.52907 L -12.052534,28.77896 L -17.607254,28.77896 L -17.607254,31.35815 L -3.8332338,31.35815 L -3.8332338,28.77896 L -9.4885738,28.77896 L -3.8332338,24.5626 L -3.8332338,21.42853 L -10.769024,26.60217 L -17.573734,21.36146 z M -17.561534,32.87335 L -17.561534,47.53152 L -14.744524,47.53152 L -14.744524,32.87335 L -17.561534,32.87335 z M -12.095214,32.87335 L -12.095214,47.53152 L -9.2782038,47.53152 L -9.2782038,32.87335 L -12.095214,32.87335 z M -6.6624238,32.87335 L -6.6624238,47.53152 L -3.8454338,47.53152 L -3.8454338,32.87335 L -6.6624238,32.87335 z M -1.2143938,32.87335 L -1.2143938,47.53152 L 3.0812162,47.52543 C 9.3332362,47.52543 9.6481562,40.55128 5.7976162,39.51953 C 8.7876962,38.52636 7.9207262,32.88861 3.0751262,32.88861 L -1.2143938,32.87335 z M 1.5690762,35.66598 L 1.6208962,35.7178 L 3.2001162,35.7178 C 5.2131662,35.7178 5.1572962,38.50126 3.2336562,38.50126 L 1.5690762,38.46773 L 1.5690762,35.66598 z M 1.5690762,41.18412 L 3.4196362,41.21766 C 6.0770162,41.21766 6.4338462,44.84865 3.3860962,44.84865 L 1.5690762,44.78464 L 1.5690762,41.18412 z "
         id="path3296" />
      <path
         style="fill:url(#radialGradient4525);fill-opacity:1"
         d="M 7.9851762,16.10924 C 0.65382618,24.4384 4.9757562,29.09946 4.9757562,29.09946 C 4.9757562,29.09946 11.479006,33.10918 8.8134562,37.10619 C 6.1471762,41.10469 4.4775562,44.26935 7.1430962,49.59943 C 9.8093762,54.92953 7.1459162,59.92535 4.3131262,59.92535 C 1.4795862,59.92535 -5.8257338,52.33809 -3.6604438,47.84025 C -2.0719638,44.54248 1.0564162,40.799 1.6527562,37.90527 C 2.1457262,35.51313 2.7399062,30.52496 0.96815618,27.35224 C 1.4511362,31.61904 -2.4172538,39.84957 -5.9398238,35.83822 C -9.4071738,31.88977 -7.1806238,26.60019 -6.9140038,23.68494 C -12.906854,32.49805 -10.353604,35.63887 -7.2535538,41.87774 C -5.5818038,45.24214 -9.3947238,53.17614 -13.177474,52.59505 C -19.676304,51.59488 -16.683874,44.60214 -16.683874,44.60214 C -16.683874,44.60214 -15.250504,42.62014 -14.502724,39.93615 C -13.872794,38.0869 -13.643214,36.05725 -14.433694,34.34524 C -14.777114,33.23584 -15.385504,32.12733 -16.352554,31.10114 C -21.684384,25.43742 -18.685554,18.95302 -18.685554,18.95302 C -21.685594,22.61787 -20.349644,25.6026 -19.016864,28.93381 C -17.684104,32.26502 -14.174704,40.42916 -20.507784,41.2614 C -26.839354,42.09439 -26.181514,33.5998 -26.181514,33.5998 C -26.181514,33.5998 -30.338624,35.76652 -22.840784,46.09304 C -18.752534,51.72334 -19.532874,54.7246 -21.073764,56.29472 C -17.297714,59.591 -11.065044,62.00604 -7.2966538,62.36878 C -3.5916738,62.72542 -1.5393438,62.91239 2.9602562,61.41626 C 7.4793862,59.91363 11.978626,57.06074 15.094616,53.25768 C 14.938516,52.10666 14.984166,50.92468 14.984166,50.92468 C 20.649006,37.76554 14.984166,33.26848 14.984166,33.26848 C 18.315736,43.26212 13.148146,41.77218 13.148146,41.77218 C 6.8158162,37.44153 12.309906,36.10616 13.976426,29.7759 C 15.642216,23.44637 11.146466,17.4483 11.146466,17.4483 C 11.146466,17.4483 15.645306,27.44602 8.8134562,26.94593 C 1.9823662,26.44658 7.9851762,16.10924 7.9851762,16.10924 z "
         id="path3298"
         sodipodi:nodetypes="ccscscsczcsccccccscccczzcccccccc" />
      <path
         style="opacity:0.13919414;fill:url(#radialGradient4527);fill-opacity:1;stroke:none;stroke-width:0.412;stroke-linecap:round;stroke-linejoin:round;stroke-miterlimit:4;stroke-dasharray:none;stroke-dashoffset:4;stroke-opacity:1"
         d="M -4.1820938,10.09258 C -18.679274,10.09258 -30.445124,21.85845 -30.445124,36.35571 C -30.445124,39.31671 -29.947744,42.16327 -29.043074,44.81941 C -22.668794,51.65464 -13.591594,55.93337 -3.5152638,55.93337 C 5.4700262,55.93337 13.651716,52.53967 19.841096,46.95671 C 21.274106,43.71447 22.080986,40.12652 22.080986,36.35571 C 22.080986,21.85845 10.315136,10.09258 -4.1820938,10.09258 z "
         id="path3300" />
      <path
         id="path3302"
         d="M -4.1820938,10.09258 C -18.679274,10.09258 -30.445124,21.85845 -30.445124,36.35571 C -30.445124,39.31671 -29.947744,42.16327 -29.043074,44.81941 C -22.668794,51.65464 -13.591594,55.93337 -3.5152638,55.93337 C 5.4700262,55.93337 13.651716,52.53967 19.841096,46.95671 C 21.274106,43.71447 22.080986,40.12652 22.080986,36.35571 C 22.080986,21.85845 10.315136,10.09258 -4.1820938,10.09258 z "
         style="opacity:0.19047618;fill:url(#radialGradient4529);fill-opacity:1;stroke:none;stroke-width:0.412;stroke-linecap:round;stroke-linejoin:round;stroke-miterlimit:4;stroke-dasharray:none;stroke-dashoffset:4;stroke-opacity:1" />
      <path
         id="path3304"
         d="M -4.1820938,9.79991 C -13.835744,9.79991 -22.273644,15.0279 -26.837374,22.79469 C -25.280724,28.95059 -15.948154,33.68637 -4.6779138,33.68637 C 7.3735562,33.68637 17.188006,28.27129 17.669576,21.49522 C 12.958476,14.44524 4.9275462,9.79991 -4.1820938,9.79991 z "
         style="opacity:0.51648356;fill:url(#radialGradient4531);fill-opacity:1;stroke:none;stroke-width:0.412;stroke-linecap:round;stroke-linejoin:round;stroke-miterlimit:4;stroke-dasharray:none;stroke-dashoffset:4;stroke-opacity:1" />
      <path
         transform="matrix(0.415922,0,0,0.415923,-30.87221,9.09622)"
         inkscape:r_cy="true"
         inkscape:r_cx="true"
         d="M 127.31551 65.540108 A 63.144386 63.144386 0 1 1  1.0267334,65.540108 A 63.144386 63.144386 0 1 1  127.31551 65.540108 z"
         sodipodi:ry="63.144386"
         sodipodi:rx="63.144386"
         sodipodi:cy="65.540108"
         sodipodi:cx="64.17112"
         id="path3306"
         style="opacity:0.59706936;fill:url(#radialGradient4533);fill-opacity:1;fill-rule:nonzero;stroke:none;stroke-width:0.69999999;stroke-linecap:round;stroke-linejoin:round;stroke-miterlimit:4;stroke-dasharray:none;stroke-dashoffset:4;stroke-opacity:0.9908257"
         sodipodi:type="arc" />
      <path
         id="path3308"
         d="M -4.1731538,9.7999 C -4.6352338,9.7999 -5.1006038,9.81353 -5.5568638,9.83721 C -5.9979438,9.8599 -6.4307338,9.88624 -6.8657838,9.93046 C -7.1596338,9.96036 -7.4537838,10.00284 -7.7446438,10.04238 C -7.7507538,10.04322 -7.7572138,10.04154 -7.7633338,10.04238 C -8.3388538,10.12101 -8.9019338,10.22544 -9.4649338,10.34082 C -10.002574,10.45102 -10.529204,10.5713 -11.054364,10.71388 C -11.128814,10.7341 -11.204564,10.74898 -11.278764,10.76984 C -11.788924,10.91324 -12.296254,11.0818 -12.793334,11.25482 C -13.332994,11.44261 -13.859774,11.64893 -14.382774,11.87036 C -14.388014,11.87258 -14.396204,11.86813 -14.401454,11.87036 C -14.901064,12.08226 -15.395464,12.31908 -15.878704,12.56051 C -15.926184,12.58423 -15.980984,12.59246 -16.028314,12.61646 C -16.502254,12.85688 -16.955044,13.11343 -17.412024,13.38123 C -17.811574,13.6154 -18.204314,13.87302 -18.590024,14.12734 C -18.673304,14.18226 -18.769224,14.22073 -18.851854,14.27657 C -18.858924,14.28136 -18.863414,14.29041 -18.870544,14.29522 C -18.970584,14.36296 -19.070644,14.43131 -19.169694,14.5004 C -19.481454,14.71741 -19.784244,14.94192 -20.085974,15.1719 C -20.191724,15.25264 -20.299304,15.33207 -20.403854,15.41438 C -20.781594,15.71185 -21.146454,16.02971 -21.507054,16.34703 C -21.923994,16.71384 -22.310914,17.0927 -22.703804,17.48484 C -22.713244,17.49424 -22.731784,17.49409 -22.741224,17.5035 C -23.130574,17.89329 -23.517454,18.30247 -23.881854,18.71593 C -24.243034,19.12571 -24.593544,19.53385 -24.929004,19.96567 C -24.942684,19.98329 -24.952744,20.00396 -24.966374,20.02162 C -25.303814,20.45823 -25.628764,20.90689 -25.938724,21.36462 C -25.943624,21.37184 -25.952564,21.37605 -25.957464,21.38328 C -26.267064,21.84147 -26.555404,22.32283 -26.836264,22.80089 C -26.461454,24.28323 -25.619114,25.67031 -24.424144,26.94181 C -24.249444,26.73457 -24.062414,26.53115 -23.881854,26.32626 C -23.517454,25.9128 -23.130574,25.50362 -22.741224,25.11383 C -22.731784,25.10441 -22.713244,25.10458 -22.703804,25.09518 C -22.310914,24.70303 -21.923994,24.32417 -21.507054,23.95735 C -21.146454,23.64005 -20.781594,23.32218 -20.403854,23.02473 C -20.299304,22.94242 -20.191724,22.86298 -20.085974,22.78224 C -19.784244,22.55225 -19.481454,22.32775 -19.169694,22.11073 C -19.070644,22.04165 -18.970584,21.9733 -18.870544,21.90555 C -18.863414,21.90074 -18.858924,21.8917 -18.851854,21.88689 C -18.769224,21.83107 -18.673304,21.79259 -18.590024,21.73768 C -18.204314,21.48336 -17.811574,21.22573 -17.412024,20.99157 C -16.955044,20.72376 -16.502254,20.46721 -16.028314,20.2268 C -15.980984,20.20281 -15.926184,20.19457 -15.878704,20.17085 C -15.395464,19.92942 -14.901064,19.6926 -14.401454,19.48069 C -14.396204,19.47846 -14.388014,19.48292 -14.382774,19.48069 C -13.859774,19.25926 -13.332994,19.05296 -12.793334,18.86515 C -12.296254,18.69214 -11.788924,18.52358 -11.278764,18.38018 C -11.204564,18.35932 -11.128814,18.34443 -11.054364,18.32422 C -10.529204,18.18164 -10.002574,18.06135 -9.4649338,17.95117 C -8.9019338,17.83577 -8.3388538,17.73135 -7.7633338,17.65272 C -7.7572138,17.65188 -7.7507538,17.65355 -7.7446438,17.65272 C -7.4537838,17.61319 -7.1596338,17.5707 -6.8657838,17.54081 C -6.4307338,17.49658 -5.9979438,17.47024 -5.5568638,17.44753 C -5.1006038,17.42387 -4.6352338,17.41023 -4.1731538,17.41023 C -3.6038038,17.41023 -3.0506038,17.43044 -2.4902438,17.46618 C -2.4023138,17.47179 -2.3161438,17.47838 -2.2284238,17.48484 C -1.8575538,17.51223 -1.4916338,17.55411 -1.1252138,17.59676 C -0.89354382,17.62371 -0.66313382,17.63844 -0.43333382,17.67137 C -0.35211382,17.68302 -0.27120382,17.69629 -0.19024382,17.70868 C -0.10261382,17.72206 -0.015793817,17.75038 0.071536183,17.76464 C 0.41633618,17.821 0.75977618,17.88149 1.0999862,17.95117 C 1.5272662,18.03867 1.9520262,18.12294 2.3715362,18.23096 C 2.3846662,18.23433 2.3957762,18.2462 2.4089062,18.24961 C 2.8148762,18.35482 3.2261962,18.46144 3.6243262,18.58536 C 3.7421162,18.62201 3.8625162,18.65902 3.9795962,18.69727 C 4.0624762,18.72437 4.1402062,18.76264 4.2227362,18.79054 C 4.6141462,18.92279 4.9991062,19.0696 5.3820462,19.21956 C 5.4186562,19.23389 5.4577062,19.24237 5.4942162,19.25686 C 5.5508362,19.27933 5.6061462,19.30861 5.6625062,19.33147 C 6.1029162,19.50985 6.5432862,19.68983 6.9714662,19.89105 C 7.4319862,20.10763 7.8910462,20.33912 8.3364562,20.58121 C 8.3560962,20.59186 8.3730262,20.6078 8.3925662,20.61852 C 8.7444862,20.81093 9.0977762,21.00757 9.4397062,21.2154 C 9.5515262,21.28335 9.6656262,21.35102 9.7762862,21.42058 C 9.8973462,21.49666 10.011836,21.58508 10.131596,21.66307 C 10.455286,21.87401 10.771606,22.09131 11.085246,22.31591 C 11.388996,22.53347 11.688846,22.75741 11.982786,22.98741 C 12.105266,23.08325 12.236026,23.16926 12.356746,23.26721 C 12.741446,23.57928 13.112416,23.90423 13.478676,24.23715 C 13.504636,24.26073 13.527626,24.28808 13.553476,24.31176 C 13.942946,24.66849 14.308096,25.03294 14.675426,25.41228 C 14.976086,25.72277 15.269026,26.05665 15.554286,26.38222 C 16.794816,24.88621 17.543266,23.2402 17.667256,21.49519 C 17.407606,21.10661 17.142646,20.73096 16.863196,20.35738 C 16.825926,20.30754 16.788646,20.25771 16.751026,20.20815 C 16.533246,19.92133 16.306926,19.6462 16.077826,19.36878 C 15.971716,19.24017 15.868476,19.1036 15.759946,18.97707 C 15.703176,18.91092 15.630396,18.85611 15.572966,18.79054 C 15.282356,18.45872 14.982146,18.11869 14.675426,17.80194 C 14.308096,17.4226 13.942946,17.05815 13.553476,16.70143 C 13.527626,16.67775 13.504636,16.65039 13.478676,16.62681 C 13.112416,16.29389 12.741446,15.96894 12.356746,15.65687 C 12.236026,15.55893 12.105266,15.47292 11.982786,15.37708 C 11.688846,15.14708 11.388996,14.92314 11.085246,14.70558 C 10.771606,14.48096 10.455286,14.26367 10.131596,14.05273 C 10.011836,13.97474 9.8973462,13.88633 9.7762862,13.81024 C 9.6656262,13.74068 9.5515262,13.67302 9.4397062,13.60506 C 9.0977762,13.39723 8.7444862,13.2006 8.3925662,13.00817 C 8.3730262,12.99747 8.3560962,12.98153 8.3364562,12.97087 C 7.8910462,12.72878 7.4319862,12.4973 6.9714662,12.28072 C 6.5432862,12.0795 6.1029162,11.89952 5.6625062,11.72113 C 5.6061462,11.69828 5.5508362,11.66899 5.4942162,11.64652 C 5.4577062,11.63203 5.4186562,11.62355 5.3820462,11.60921 C 4.9991062,11.45925 4.6141462,11.31244 4.2227362,11.1802 C 4.1402062,11.15229 4.0624762,11.11404 3.9795962,11.08694 C 3.8625162,11.04868 3.7421162,11.01166 3.6243262,10.97502 C 3.2261962,10.8511 2.8148762,10.74449 2.4089062,10.63928 C 2.3957762,10.63587 2.3846662,10.624 2.3715362,10.62062 C 1.9520262,10.51261 1.5272662,10.42834 1.0999862,10.34082 C 0.75977618,10.27116 0.41633618,10.21066 0.071536183,10.1543 C -0.015793817,10.14004 -0.10261382,10.11174 -0.19024382,10.09834 C -0.27120382,10.08595 -0.35211382,10.07267 -0.43333382,10.06104 C -0.66313382,10.02809 -0.89354382,10.01336 -1.1252138,9.98642 C -1.4916338,9.94378 -1.8575538,9.90188 -2.2284238,9.87451 C -2.3161438,9.86805 -2.4023138,9.86145 -2.4902438,9.85586 C -3.0506038,9.82011 -3.6038038,9.7999 -4.1731538,9.7999 z "
         style="opacity:0.51648356;fill:url(#radialGradient4535);fill-opacity:1;fill-rule:nonzero;stroke:none;stroke-width:0.69999999;stroke-linecap:round;stroke-linejoin:round;stroke-miterlimit:4;stroke-dasharray:none;stroke-dashoffset:4;stroke-opacity:0.9908257" />
    </g>
  </g>
</svg>
