<?xml version="1.0" encoding="UTF-8" standalone="no"?>
<!-- Created with Inkscape (http://www.inkscape.org/) -->
<svg
   xmlns:dc="http://purl.org/dc/elements/1.1/"
   xmlns:cc="http://web.resource.org/cc/"
   xmlns:rdf="http://www.w3.org/1999/02/22-rdf-syntax-ns#"
   xmlns:svg="http://www.w3.org/2000/svg"
   xmlns="http://www.w3.org/2000/svg"
   xmlns:xlink="http://www.w3.org/1999/xlink"
   xmlns:sodipodi="http://inkscape.sourceforge.net/DTD/sodipodi-0.dtd"
   xmlns:inkscape="http://www.inkscape.org/namespaces/inkscape"
   width="128"
   height="128"
   id="svg11465"
   sodipodi:version="0.32"
   inkscape:version="0.43"
   version="1.0"
   sodipodi:docbase="/Users/David/Documents/Version Cue/Oxygen/documents/FTP/Nuno/oxygen/svg/actions"
   sodipodi:docname="kontact_contacts.svg">
  <defs
     id="defs11467">
    <radialGradient
       inkscape:collect="always"
       xlink:href="#XMLID_12_"
       id="radialGradient16729"
       gradientUnits="userSpaceOnUse"
       gradientTransform="matrix(0.198406,9.929988e-17,-5.256355e-3,-0.198406,-93.84279,22.97293)"
       cx="336.8938"
       cy="-319.7261"
       r="130.5231" />
    <linearGradient
       inkscape:collect="always"
       xlink:href="#XMLID_7_"
       id="linearGradient3447"
       gradientUnits="userSpaceOnUse"
       gradientTransform="matrix(1.519716,-0.479483,0.479483,1.519716,-597.6613,24.75994)"
       x1="290.9375"
       y1="27.1499"
       x2="233.81979"
       y2="184.0795" />
    <linearGradient
       inkscape:collect="always"
       xlink:href="#radialGradient4035"
       id="linearGradient3443"
       gradientUnits="userSpaceOnUse"
       gradientTransform="matrix(0.301151,-9.602399e-2,9.805796e-2,0.34279,-215.2436,30.43063)"
       x1="73.783409"
       y1="-17.918573"
       x2="59.461929"
       y2="151.13226" />
    <linearGradient
       inkscape:collect="always"
       xlink:href="#radialGradient4029"
       id="linearGradient16743"
       gradientUnits="userSpaceOnUse"
       gradientTransform="matrix(0.133207,-4.247392e-2,4.33736e-2,0.151625,28.14363,53.87361)"
       x1="81.624855"
       y1="-4.6484313"
       x2="73.938446"
       y2="133.6398" />
    <linearGradient
       inkscape:collect="always"
       xlink:href="#XMLID_12_"
       id="linearGradient16741"
       gradientUnits="userSpaceOnUse"
       gradientTransform="matrix(0.12918,-4.118954e-2,4.314469e-2,0.150825,20.79683,30.32008)"
       x1="8.207305"
       y1="219.11998"
       x2="134.41685"
       y2="219.11998" />
    <radialGradient
       gradientTransform="matrix(0.238899,-6.401268e-2,6.401268e-2,0.238899,-49.5543,-73.38964)"
       gradientUnits="userSpaceOnUse"
       r="40.7109"
       cy="8.7803"
       cx="62.292"
       id="radialGradient11445">
      <stop
         id="stop11447"
         style="stop-color:#79B5E5"
         offset="0" />
      <stop
         id="stop11449"
         style="stop-color:#4A8CD9"
         offset="0.7303" />
      <stop
         id="stop11451"
         style="stop-color:#4788D5"
         offset="0.88876778" />
      <stop
         id="stop11457"
         style="stop-color:#79b5e5;stop-opacity:1;"
         offset="1" />
    </radialGradient>
    <radialGradient
       inkscape:collect="always"
       xlink:href="#radialGradient11445"
       id="radialGradient11375"
       gradientUnits="userSpaceOnUse"
       gradientTransform="matrix(0.433565,-9.814901e-2,5.364137e-2,0.236958,77.43783,86.90994)"
       cx="62.292"
       cy="8.7803001"
       r="40.710899"
       fx="62.292"
       fy="8.7803001" />
    <radialGradient
       gradientUnits="userSpaceOnUse"
       gradientTransform="matrix(0.198406,0,-5.256355e-3,-0.198406,-93.84279,22.97293)"
       r="130.5231"
       cy="-319.7261"
       cx="336.8938"
       id="radialGradient4035">
      <stop
         id="stop4037"
         style="stop-color:#A4C0E4"
         offset="0" />
      <stop
         id="stop4039"
         style="stop-color:#6193CF"
         offset="0.6036" />
      <stop
         id="stop4041"
         style="stop-color:#A4C0E4"
         offset="1" />
    </radialGradient>
    <linearGradient
       inkscape:collect="always"
       xlink:href="#radialGradient4035"
       id="linearGradient7294"
       gradientUnits="userSpaceOnUse"
       gradientTransform="matrix(0.216453,-3.884327e-2,3.645922e-2,0.245359,12.2174,59.70296)"
       x1="73.783409"
       y1="-17.918573"
       x2="59.461929"
       y2="151.13226" />
    <radialGradient
       gradientUnits="userSpaceOnUse"
       gradientTransform="matrix(0.198406,0,-5.256355e-3,-0.198406,-452.9859,-58.52922)"
       r="130.5231"
       cy="-319.7261"
       cx="336.8938"
       id="radialGradient4029">
      <stop
         id="stop4031"
         style="stop-color:#A4C0E4"
         offset="0" />
      <stop
         id="stop4033"
         style="stop-color:#6193CF"
         offset="1" />
    </radialGradient>
    <linearGradient
       inkscape:collect="always"
       xlink:href="#radialGradient4029"
       id="linearGradient7297"
       gradientUnits="userSpaceOnUse"
       gradientTransform="matrix(0.216453,-3.884327e-2,3.645922e-2,0.245359,12.10493,59.60872)"
       x1="81.624855"
       y1="-4.6484313"
       x2="73.938446"
       y2="133.6398" />
    <radialGradient
       id="XMLID_12_"
       cx="336.8938"
       cy="-319.7261"
       r="130.5231"
       gradientTransform="matrix(0.198406,0,-5.256355e-3,-0.198406,-93.84279,22.97293)"
       gradientUnits="userSpaceOnUse">
      <stop
         offset="0"
         style="stop-color:#A4C0E4"
         id="stop44" />
      <stop
         offset="0.6036"
         style="stop-color:#6193CF"
         id="stop46" />
      <stop
         offset="1"
         style="stop-color:#A4C0E4"
         id="stop48" />
    </radialGradient>
    <linearGradient
       inkscape:collect="always"
       xlink:href="#XMLID_12_"
       id="linearGradient7300"
       gradientUnits="userSpaceOnUse"
       gradientTransform="matrix(0.209908,-3.766857e-2,3.62667e-2,0.244064,5.491511,21.36935)"
       x1="8.207305"
       y1="219.11998"
       x2="134.41685"
       y2="219.11998" />
    <linearGradient
       id="XMLID_7_"
       gradientUnits="userSpaceOnUse"
       x1="290.9375"
       y1="27.1499"
       x2="233.8198"
       y2="184.0795"
       gradientTransform="matrix(0.9659,-0.2588,0.2588,0.9659,-368.9027,-26.63475)">
      <stop
         offset="0"
         style="stop-color:#EEEEEE"
         id="stop785" />
      <stop
         offset="0.2012"
         style="stop-color:#FFFFFF"
         id="stop787" />
      <stop
         offset="0.3969"
         style="stop-color:#F9F9F9"
         id="stop789" />
      <stop
         offset="0.574"
         style="stop-color:#EEEEEE"
         id="stop791" />
      <stop
         offset="0.7988"
         style="stop-color:#FFFFFF"
         id="stop793" />
    </linearGradient>
    <linearGradient
       inkscape:collect="always"
       xlink:href="#XMLID_7_"
       id="linearGradient2869"
       gradientUnits="userSpaceOnUse"
       gradientTransform="matrix(1.063194,-0.187457,0.187457,1.063194,-241.7565,23.70027)"
       x1="290.9375"
       y1="27.1499"
       x2="233.8198"
       y2="184.0795" />
    <radialGradient
       inkscape:collect="always"
       xlink:href="#radialGradient11445"
       id="radialGradient1402"
       gradientUnits="userSpaceOnUse"
       gradientTransform="matrix(0.433565,-9.814901e-2,5.364137e-2,0.236958,77.27917,86.35172)"
       cx="62.292"
       cy="8.7803001"
       fx="62.292"
       fy="8.7803001"
       r="40.710899" />
    <linearGradient
       inkscape:collect="always"
       xlink:href="#radialGradient4035"
       id="linearGradient1410"
       gradientUnits="userSpaceOnUse"
       gradientTransform="matrix(0.216453,-3.884327e-2,3.645922e-2,0.245359,12.05874,59.14474)"
       x1="73.783409"
       y1="-17.918573"
       x2="59.461929"
       y2="151.13226" />
    <linearGradient
       inkscape:collect="always"
       xlink:href="#radialGradient4029"
       id="linearGradient1413"
       gradientUnits="userSpaceOnUse"
       gradientTransform="matrix(0.216453,-3.884327e-2,3.645922e-2,0.245359,11.94627,59.0505)"
       x1="81.624855"
       y1="-4.6484313"
       x2="73.938446"
       y2="133.6398" />
    <linearGradient
       inkscape:collect="always"
       xlink:href="#XMLID_12_"
       id="linearGradient1416"
       gradientUnits="userSpaceOnUse"
       gradientTransform="matrix(0.209908,-3.766857e-2,3.62667e-2,0.244064,5.332846,20.81113)"
       x1="8.207305"
       y1="219.11998"
       x2="134.41685"
       y2="219.11998" />
    <linearGradient
       inkscape:collect="always"
       xlink:href="#XMLID_7_"
       id="linearGradient1454"
       gradientUnits="userSpaceOnUse"
       gradientTransform="matrix(1.063194,-0.187457,0.187457,1.063194,-241.9152,23.14205)"
       x1="290.9375"
       y1="27.1499"
       x2="233.8198"
       y2="184.0795" />
    <linearGradient
       inkscape:collect="always"
       xlink:href="#XMLID_7_"
       id="linearGradient8639"
       gradientUnits="userSpaceOnUse"
       gradientTransform="matrix(1.063194,-0.187457,0.187457,1.063194,-241.9152,23.14205)"
       x1="290.9375"
       y1="27.1499"
       x2="233.8198"
       y2="184.0795" />
    <linearGradient
       inkscape:collect="always"
       xlink:href="#XMLID_12_"
       id="linearGradient8641"
       gradientUnits="userSpaceOnUse"
       gradientTransform="matrix(0.209908,-3.766857e-2,3.62667e-2,0.244064,5.332846,20.81113)"
       x1="8.207305"
       y1="219.11998"
       x2="134.41685"
       y2="219.11998" />
    <linearGradient
       inkscape:collect="always"
       xlink:href="#radialGradient4029"
       id="linearGradient8643"
       gradientUnits="userSpaceOnUse"
       gradientTransform="matrix(0.216453,-3.884327e-2,3.645922e-2,0.245359,11.94627,59.0505)"
       x1="81.624855"
       y1="-4.6484313"
       x2="73.938446"
       y2="133.6398" />
    <linearGradient
       inkscape:collect="always"
       xlink:href="#radialGradient4035"
       id="linearGradient8645"
       gradientUnits="userSpaceOnUse"
       gradientTransform="matrix(0.216453,-3.884327e-2,3.645922e-2,0.245359,12.05874,59.14474)"
       x1="73.783409"
       y1="-17.918573"
       x2="59.461929"
       y2="151.13226" />
    <radialGradient
       inkscape:collect="always"
       xlink:href="#radialGradient11445"
       id="radialGradient8647"
       gradientUnits="userSpaceOnUse"
       gradientTransform="matrix(0.433565,-9.814901e-2,5.364137e-2,0.236958,77.27917,86.35172)"
       cx="62.292"
       cy="8.7803001"
       fx="62.292"
       fy="8.7803001"
       r="40.710899" />
    <linearGradient
       inkscape:collect="always"
       xlink:href="#radialGradient4035"
       id="linearGradient8668"
       gradientUnits="userSpaceOnUse"
       gradientTransform="matrix(0.216453,-3.884327e-2,3.645922e-2,0.245359,12.05874,59.14474)"
       x1="73.783409"
       y1="-17.918573"
       x2="59.461929"
       y2="151.13226" />
    <linearGradient
       inkscape:collect="always"
       xlink:href="#radialGradient4029"
       id="linearGradient8671"
       gradientUnits="userSpaceOnUse"
       gradientTransform="matrix(0.216453,-3.884327e-2,3.645922e-2,0.245359,11.94627,59.0505)"
       x1="81.624855"
       y1="-4.6484313"
       x2="73.938446"
       y2="133.6398" />
    <linearGradient
       inkscape:collect="always"
       xlink:href="#XMLID_12_"
       id="linearGradient8674"
       gradientUnits="userSpaceOnUse"
       gradientTransform="matrix(0.209908,-3.766857e-2,3.62667e-2,0.244064,5.332846,20.81113)"
       x1="8.207305"
       y1="219.11998"
       x2="134.41685"
       y2="219.11998" />
    <linearGradient
       inkscape:collect="always"
       xlink:href="#XMLID_7_"
       id="linearGradient8712"
       gradientUnits="userSpaceOnUse"
       gradientTransform="matrix(1.063194,-0.187457,0.187457,1.063194,-241.9152,23.14205)"
       x1="290.9375"
       y1="27.1499"
       x2="233.8198"
       y2="184.0795" />
    <linearGradient
       inkscape:collect="always"
       xlink:href="#XMLID_7_"
       id="linearGradient10493"
       gradientUnits="userSpaceOnUse"
       gradientTransform="matrix(1.063194,-0.187457,0.187457,1.063194,-241.9152,23.14205)"
       x1="290.9375"
       y1="27.1499"
       x2="233.8198"
       y2="184.0795" />
    <linearGradient
       inkscape:collect="always"
       xlink:href="#XMLID_7_"
       id="linearGradient10497"
       gradientUnits="userSpaceOnUse"
       gradientTransform="matrix(1.063194,-0.187457,0.187457,1.063194,-241.9152,23.14205)"
       x1="290.9375"
       y1="27.1499"
       x2="233.8198"
       y2="184.0795" />
    <linearGradient
       inkscape:collect="always"
       xlink:href="#XMLID_7_"
       id="linearGradient10501"
       gradientUnits="userSpaceOnUse"
       gradientTransform="matrix(1.063194,-0.187457,0.187457,1.063194,-241.9152,23.14205)"
       x1="290.9375"
       y1="27.1499"
       x2="233.8198"
       y2="184.0795" />
    <linearGradient
       inkscape:collect="always"
       xlink:href="#XMLID_12_"
       id="linearGradient10541"
       gradientUnits="userSpaceOnUse"
       gradientTransform="matrix(0.209908,-3.766857e-2,3.62667e-2,0.244064,5.332846,20.81113)"
       x1="8.207305"
       y1="219.11998"
       x2="134.41685"
       y2="219.11998" />
    <linearGradient
       inkscape:collect="always"
       xlink:href="#radialGradient4035"
       id="linearGradient10543"
       gradientUnits="userSpaceOnUse"
       gradientTransform="matrix(0.216453,-3.884327e-2,3.645922e-2,0.245359,12.05874,59.14474)"
       x1="73.783409"
       y1="-17.918573"
       x2="59.461929"
       y2="151.13226" />
    <linearGradient
       inkscape:collect="always"
       xlink:href="#radialGradient4029"
       id="linearGradient10545"
       gradientUnits="userSpaceOnUse"
       gradientTransform="matrix(0.216453,-3.884327e-2,3.645922e-2,0.245359,11.94627,59.0505)"
       x1="81.624855"
       y1="-4.6484313"
       x2="73.938446"
       y2="133.6398" />
  </defs>
  <sodipodi:namedview
     id="base"
     pagecolor="#ffffff"
     bordercolor="#666666"
     borderopacity="1.0"
     inkscape:pageopacity="0.0"
     inkscape:pageshadow="2"
     inkscape:zoom="1"
     inkscape:cx="82.574688"
     inkscape:cy="82.154183"
     inkscape:current-layer="layer1"
     showgrid="false"
     inkscape:document-units="px"
     inkscape:grid-bbox="true"
     inkscape:window-width="954"
     inkscape:window-height="688"
     inkscape:window-x="330"
     inkscape:window-y="112"
     fill="#b1d28f" />
  <metadata
     id="metadata11470">
    <rdf:RDF>
      <cc:Work
         rdf:about="">
        <dc:format>image/svg+xml</dc:format>
        <dc:type
           rdf:resource="http://purl.org/dc/dcmitype/StillImage" />
      </cc:Work>
    </rdf:RDF>
  </metadata>
  <g
     id="layer1"
     inkscape:label="Layer 1"
     inkscape:groupmode="layer">
    <path
       style="opacity:0.15;fill:none;stroke:#000000;stroke-width:4.2292614;stroke-linecap:round;stroke-linejoin:round;stroke-miterlimit:4;stroke-dasharray:none;stroke-opacity:1"
       d="M 110.05466,14.114631 C 109.63303,14.189002 103.88062,15.20297 95.725497,16.640973 L 96.493583,21.043235 C 99.680316,21.504471 102.33659,23.954033 102.91188,27.297628 C 103.62683,31.452744 100.84701,35.404381 96.691873,36.119328 C 92.53674,36.834273 88.585114,34.053135 87.870168,29.897999 C 87.361885,26.943957 88.632441,24.084723 90.898874,22.426046 L 90.050143,17.64173 C 81.199534,19.202366 70.596169,21.072422 59.493437,23.030202 L 60.277359,27.521038 C 63.464102,27.982272 66.120372,30.430516 66.695687,33.774095 C 67.41063,37.929233 64.629485,41.880861 60.474341,42.595817 C 56.319224,43.310752 52.368919,40.529605 51.653967,36.374478 C 51.145678,33.420437 52.414899,30.561203 54.681344,28.902526 L 53.81677,24.032274 C 42.878227,25.961093 32.136606,27.854255 23.260039,29.419426 L 24.05984,33.997518 C 27.246583,34.458751 29.90286,36.906993 30.478147,40.250576 C 31.193099,44.405712 28.413288,48.35734 24.258138,49.072296 C 20.103021,49.787241 16.151369,47.006094 15.436448,42.850957 C 14.928159,39.896916 16.198697,37.037683 18.465141,35.379006 L 17.586001,30.420187 C 8.7970102,31.969919 2.5548273,33.069889 2.1146308,33.147477 C 2.4471122,35.033012 17.270717,116.70019 17.603197,118.58573 C 19.513042,118.24781 123.63354,99.888674 125.54322,99.552884 C 125.21084,97.666276 110.38703,16.001238 110.05466,14.114631 z "
       id="path5299" />
    <path
       id="path5301"
       d="M 110.05466,14.114631 C 109.63303,14.189002 103.88062,15.20297 95.725497,16.640973 L 96.493583,21.043235 C 99.680316,21.504471 102.33659,23.954033 102.91188,27.297628 C 103.62683,31.452744 100.84701,35.404381 96.691873,36.119328 C 92.53674,36.834273 88.585114,34.053135 87.870168,29.897999 C 87.361885,26.943957 88.632441,24.084723 90.898874,22.426046 L 90.050143,17.64173 C 81.199534,19.202366 70.596169,21.072422 59.493437,23.030202 L 60.277359,27.521038 C 63.464102,27.982272 66.120372,30.430516 66.695687,33.774095 C 67.41063,37.929233 64.629485,41.880861 60.474341,42.595817 C 56.319224,43.310752 52.368919,40.529605 51.653967,36.374478 C 51.145678,33.420437 52.414899,30.561203 54.681344,28.902526 L 53.81677,24.032274 C 42.878227,25.961093 32.136606,27.854255 23.260039,29.419426 L 24.05984,33.997518 C 27.246583,34.458751 29.90286,36.906993 30.478147,40.250576 C 31.193099,44.405712 28.413288,48.35734 24.258138,49.072296 C 20.103021,49.787241 16.151369,47.006094 15.436448,42.850957 C 14.928159,39.896916 16.198697,37.037683 18.465141,35.379006 L 17.586001,30.420187 C 8.7970102,31.969919 2.5548273,33.069889 2.1146308,33.147477 C 2.4471122,35.033012 17.270717,116.70019 17.603197,118.58573 C 19.513042,118.24781 123.63354,99.888674 125.54322,99.552884 C 125.21084,97.666276 110.38703,16.001238 110.05466,14.114631 z "
       style="opacity:0.2;fill:none;stroke:#000000;stroke-width:2.74901986;stroke-linecap:round;stroke-linejoin:round;stroke-miterlimit:4;stroke-dasharray:none;stroke-opacity:1" />
    <path
       id="path5297"
       d="M 109.63174,13.691705 C 109.2101,13.766077 103.45768,14.780044 95.302571,16.218047 L 96.070658,20.620309 C 99.257385,21.081545 101.91364,23.531107 102.48897,26.874701 C 103.2039,31.029817 100.42408,34.981455 96.268946,35.696401 C 92.113814,36.411346 88.162188,33.630209 87.447242,29.475073 C 86.938958,26.52103 88.209516,23.661797 90.475947,22.003119 L 89.627216,17.218803 C 80.776608,18.779439 70.173243,20.649495 59.070511,22.607276 L 59.854432,27.098111 C 63.041176,27.559345 65.697446,30.007589 66.272761,33.35117 C 66.987704,37.506306 64.20656,41.457935 60.051416,42.17289 C 55.896297,42.887826 51.945993,40.106678 51.231042,35.951552 C 50.722752,32.997511 51.991973,30.138278 54.258419,28.479599 L 53.393844,23.609349 C 42.455301,25.538166 31.71368,27.431328 22.837112,28.996501 L 23.636914,33.574591 C 26.823656,34.035824 29.479934,36.484068 30.055222,39.827649 C 30.770172,43.982786 27.990362,47.934414 23.835212,48.64937 C 19.680094,49.364315 15.728442,46.583167 15.013523,42.428031 C 14.505233,39.473991 15.77577,36.614756 18.042215,34.95608 L 17.163075,29.99726 C 8.3740849,31.546992 2.1319012,32.646965 1.6917047,32.724551 C 2.024186,34.610085 16.84779,116.27726 17.180271,118.1628 C 19.090116,117.82488 123.21062,99.465744 125.12028,99.129961 C 124.7879,97.243346 109.96411,15.578311 109.63174,13.691705 z "
       style="opacity:0.25;fill:none;stroke:#000000;stroke-width:2.1146307;stroke-linecap:round;stroke-linejoin:round;stroke-miterlimit:4;stroke-dasharray:none;stroke-opacity:1" />
    <path
       style="opacity:0.3;fill:none;stroke:#000000;stroke-width:1.05731535;stroke-linecap:round;stroke-linejoin:round;stroke-miterlimit:4;stroke-dasharray:none;stroke-opacity:1"
       d="M 109.63174,13.691705 C 109.2101,13.766077 103.45768,14.780044 95.302571,16.218047 L 96.070658,20.620309 C 99.257385,21.081545 101.91364,23.531107 102.48897,26.874701 C 103.2039,31.029817 100.42408,34.981455 96.268946,35.696401 C 92.113814,36.411346 88.162188,33.630209 87.447242,29.475073 C 86.938958,26.52103 88.209516,23.661797 90.475947,22.003119 L 89.627216,17.218803 C 80.776608,18.779439 70.173243,20.649495 59.070511,22.607276 L 59.854432,27.098111 C 63.041176,27.559345 65.697446,30.007589 66.272761,33.35117 C 66.987704,37.506306 64.20656,41.457935 60.051416,42.17289 C 55.896297,42.887826 51.945993,40.106678 51.231042,35.951552 C 50.722752,32.997511 51.991973,30.138278 54.258419,28.479599 L 53.393844,23.609349 C 42.455301,25.538166 31.71368,27.431328 22.837112,28.996501 L 23.636914,33.574591 C 26.823656,34.035824 29.479934,36.484068 30.055222,39.827649 C 30.770172,43.982786 27.990362,47.934414 23.835212,48.64937 C 19.680094,49.364315 15.728442,46.583167 15.013523,42.428031 C 14.505233,39.473991 15.77577,36.614756 18.042215,34.95608 L 17.163075,29.99726 C 8.3740849,31.546992 2.1319012,32.646965 1.6917047,32.724551 C 2.024186,34.610085 16.84779,116.27726 17.180271,118.1628 C 19.090116,117.82488 123.21062,99.465744 125.12028,99.129961 C 124.7879,97.243346 109.96411,15.578311 109.63174,13.691705 z "
       id="path4422" />
    <path
       id="path2867"
       d="M 109.2088,13.268778 C 108.78718,13.34315 103.03476,14.357117 94.879644,15.79512 L 95.647731,20.197384 C 98.834462,20.658619 101.49072,23.108181 102.06603,26.451774 C 102.78099,30.606891 100.00116,34.558529 95.846019,35.273475 C 91.690888,35.988419 87.739262,33.207283 87.024315,29.052147 C 86.516032,26.098106 87.786589,23.23887 90.05302,21.580194 L 89.204291,16.795877 C 80.353683,18.356513 69.750317,20.226569 58.647586,22.184351 L 59.431506,26.675185 C 62.61825,27.136419 65.274519,29.584662 65.849835,32.928244 C 66.564778,37.08338 63.783633,41.035008 59.62849,41.749964 C 55.473372,42.4649 51.523067,39.683752 50.808115,35.528625 C 50.299825,32.574584 51.569047,29.715351 53.835493,28.056674 L 52.970917,23.186423 C 42.032374,25.115241 31.290753,27.008403 22.414185,28.573574 L 23.213988,33.151665 C 26.40073,33.612899 29.057008,36.061141 29.632295,39.404723 C 30.347246,43.559859 27.567437,47.511489 23.412286,48.226444 C 19.257169,48.941388 15.305516,46.160241 14.590597,42.005105 C 14.082307,39.051064 15.352844,36.191831 17.619289,34.533153 L 16.74015,29.574334 C 7.9511584,31.124065 1.7089751,32.224038 1.2687785,32.301624 C 1.6012599,34.187159 16.424864,115.85434 16.757344,117.73988 C 18.667191,117.40194 122.7877,99.042829 124.69736,98.70703 C 124.36498,96.820425 109.54117,15.155385 109.2088,13.268778 z "
       style="fill:url(#linearGradient8712);stroke:none;stroke-width:1.057;stroke-miterlimit:4;stroke-dasharray:none;stroke-opacity:1" />
    <rect
       style="fill:#8fcb89;fill-opacity:0.23137255;fill-rule:nonzero;stroke:#37a42c;stroke-width:2.05700048;stroke-linecap:butt;stroke-linejoin:miter;stroke-miterlimit:4;stroke-dasharray:none;stroke-dashoffset:4;stroke-opacity:1;opacity:0.46"
       id="rect5303"
       width="99.87825"
       height="57.67046"
       x="-0.13751514"
       y="56.315063"
       transform="matrix(0.983651,-0.180084,0.180084,0.983651,0,0)" />
    <text
       xml:space="preserve"
       style="font-size:6.19135809px;font-style:normal;font-variant:normal;font-weight:normal;font-stretch:normal;text-align:start;line-height:125%;writing-mode:lr-tb;text-anchor:start;fill:#006e29;fill-opacity:1;stroke:none;stroke-width:1px;stroke-linecap:butt;stroke-linejoin:miter;stroke-opacity:1;font-family:Luxi Sans"
       x="44.966061"
       y="75.573082"
       id="text10503"
       sodipodi:linespacing="125%"
       transform="matrix(0.982597,-0.185748,0.185748,0.982597,0,0)"><tspan
         sodipodi:role="line"
         id="tspan10505"
         x="44.966061"
         y="75.573082">Oxygen Icons</tspan><tspan
         sodipodi:role="line"
         x="44.966061"
         y="83.31228"
         id="tspan10507">1100 Sea of Colors</tspan><tspan
         sodipodi:role="line"
         x="44.966061"
         y="91.051477"
         id="tspan10509">World</tspan></text>
    <rect
       transform="matrix(0.983651,-0.180084,0.180084,0.983651,0,0)"
       y="57.194756"
       x="0.31048429"
       height="47.350121"
       width="39.478535"
       id="rect5305"
       style="fill:#ffffff;fill-opacity:1;fill-rule:nonzero;stroke:#37a42c;stroke-width:1.86156809;stroke-linecap:round;stroke-linejoin:miter;stroke-miterlimit:4;stroke-dasharray:none;stroke-dashoffset:4;stroke-opacity:1;opacity:0.46" />
    <g
       id="g10535"
       transform="matrix(1.378011,-2.866617e-2,2.417719e-2,1.27344,-5.944699,-11.75435)">
      <g
         id="g10511">
        <path
           d="M 25.730957,56.969284 C 24.022824,57.39872 22.455448,58.5089 21.791544,60.259702 C 21.642295,60.653301 21.647531,60.902882 21.629253,61.282491 C 21.610971,61.662075 21.619148,62.11589 21.654036,62.602896 C 21.721961,63.55095 21.869709,64.631761 22.096011,65.769497 C 22.548979,68.04683 23.206299,70.263402 24.007714,71.520795 C 24.808218,72.776773 25.08551,74.78329 24.834362,75.545775 C 24.522903,76.491386 23.631683,77.428049 21.987955,78.308836 C 20.154138,79.291476 18.718185,80.184335 17.778912,81.515155 C 16.947366,82.693354 16.486005,83.965799 16.706599,85.450326 L 17.032581,87.64409 L 17.185983,88.676456 L 18.07648,88.516653 L 42.787715,84.08213 L 43.67821,83.922328 L 43.524806,82.889961 L 43.198825,80.696199 C 42.978233,79.211669 42.1725,78.166611 41.043094,77.340312 C 39.781547,76.417336 38.155776,76.032089 36.119773,75.739714 C 34.293038,75.477379 33.187951,74.925068 32.626194,74.147502 C 32.167375,73.512422 31.849437,71.5132 32.244791,70.042623 C 32.640599,68.570382 32.622139,66.239161 32.392358,63.921779 C 32.277559,62.764035 32.104766,61.687704 31.894729,60.765166 C 31.786838,60.29126 31.663222,59.85816 31.536011,59.504687 C 31.408795,59.151186 31.341511,58.912741 31.086085,58.591762 C 29.955487,57.171071 28.124389,56.539774 26.343174,56.859419 L 25.786613,56.959297 L 25.758786,56.964291 L 25.730957,56.969284 z "
           style="fill:url(#linearGradient10541);fill-opacity:1;stroke:none;stroke-width:2;stroke-miterlimit:4;stroke-dasharray:none;stroke-opacity:1"
           id="path3220" />
        <path
           style="opacity:0.24590167;fill:url(#linearGradient10543);fill-opacity:1;fill-rule:evenodd;stroke:none;stroke-width:1px;stroke-linecap:butt;stroke-linejoin:miter;stroke-opacity:1"
           d="M 25.664261,57.096867 C 23.987285,57.540487 22.46396,58.646896 21.810391,60.370475 C 21.661141,60.76406 21.661078,61.012812 21.642797,61.392409 C 21.624519,61.772005 21.638117,62.230347 21.67301,62.717352 C 21.740928,63.665395 21.889066,64.743487 22.115364,65.881222 C 22.21244,66.369273 22.319312,66.853957 22.434441,67.3275 C 23.700105,63.842056 25.710751,60.524604 29.14446,57.243789 C 28.278695,56.896787 27.31256,56.801071 26.360968,56.971839 L 25.806308,57.071374 L 25.772488,57.077444 L 25.745433,57.082301 C 25.743764,57.08272 25.740354,57.083184 25.738668,57.083513 C 25.731892,57.084662 25.718385,57.087219 25.711612,57.088369 C 25.709931,57.088722 25.706512,57.089149 25.704847,57.089582 C 25.691627,57.093001 25.677467,57.093371 25.664261,57.096867 z M 31.775479,60.321904 C 25.642145,67.635402 25.718057,74.501928 26.256802,83.330128 C 33.473192,81.97087 40.700207,79.366509 42.99176,79.909774 C 42.630539,78.88489 41.943953,78.103047 41.057452,77.454458 C 39.795907,76.531481 38.174403,76.142059 36.138394,75.849672 C 34.311662,75.587334 33.206477,75.034291 32.64472,74.256726 C 32.185897,73.621635 31.868723,71.623453 32.264082,70.1529 C 32.659889,68.680648 32.640155,66.351127 32.410374,64.033745 C 32.295576,62.875999 32.123937,61.802124 31.913903,60.879585 C 31.870073,60.687065 31.82426,60.499329 31.775479,60.321904 z M 20.074808,79.535281 C 19.141709,80.147709 18.374337,80.808894 17.795607,81.628881 C 17.273943,82.368024 16.895886,83.14024 16.742576,83.982652 C 17.637742,84.088936 18.582629,84.125727 19.559668,84.106867 C 19.752941,82.537967 19.913172,81.016098 20.074808,79.535281 z "
           id="path3271" />
      </g>
      <path
         id="path2377"
         d="M 25.592375,56.995277 C 23.899815,57.431927 22.356632,58.539035 21.697917,60.276169 C 21.548669,60.669754 21.548606,60.918507 21.530322,61.298105 C 21.512045,61.677699 21.525644,62.13604 21.560535,62.623047 C 21.628455,63.571102 21.776591,64.649195 22.002891,65.786917 C 22.455857,68.064247 23.111478,70.279657 23.912898,71.537063 C 24.7134,72.793024 24.991115,74.79829 24.739967,75.560774 C 24.428508,76.506386 23.537171,77.442199 21.893448,78.322986 C 20.059629,79.305627 18.622406,80.203756 17.683135,81.534591 C 17.161469,82.273718 16.783414,83.045934 16.6301,83.888346 C 25.62711,84.956632 39.528143,79.021024 42.879283,79.815469 C 42.518067,78.790585 41.831478,78.008743 40.94498,77.360167 C 39.683429,76.437178 38.06193,76.047753 36.02592,75.755367 C 34.19919,75.493029 33.094005,74.939997 32.532246,74.162421 C 32.073427,73.527341 31.756251,71.529159 32.15161,70.058593 C 32.547414,68.586341 32.527679,66.256821 32.297899,63.93944 C 32.183103,62.781708 32.011467,61.707833 31.801429,60.78528 C 31.693537,60.311374 31.566989,59.873302 31.439773,59.519816 C 31.312563,59.166329 31.247258,58.929308 30.991831,58.608342 C 29.861236,57.187653 28.02971,56.557887 26.248494,56.877532 L 25.693835,56.977069 L 25.660016,56.983138 L 25.632958,56.987994 C 25.619616,56.991364 25.605703,56.991854 25.592375,56.995277 z "
         style="opacity:0.17213117;fill:url(#linearGradient10545);fill-opacity:1;fill-rule:evenodd;stroke:none;stroke-width:1px;stroke-linecap:butt;stroke-linejoin:miter;stroke-opacity:1" />
    </g>
  </g>
</svg>
