<?xml version="1.0" encoding="UTF-8" standalone="no"?>
<!-- Created with Inkscape (http://www.inkscape.org/) -->
<svg
   xmlns:dc="http://purl.org/dc/elements/1.1/"
   xmlns:cc="http://web.resource.org/cc/"
   xmlns:rdf="http://www.w3.org/1999/02/22-rdf-syntax-ns#"
   xmlns:svg="http://www.w3.org/2000/svg"
   xmlns="http://www.w3.org/2000/svg"
   xmlns:xlink="http://www.w3.org/1999/xlink"
   xmlns:sodipodi="http://sodipodi.sourceforge.net/DTD/sodipodi-0.dtd"
   xmlns:inkscape="http://www.inkscape.org/namespaces/inkscape"
   width="128"
   height="128"
   id="svg11337"
   sodipodi:version="0.32"
   inkscape:version="0.44"
   version="1.0"
   sodipodi:docbase="/home/pinheiro/artwork/Oxygen/theme/svg/apps"
   sodipodi:docname="kalzium.svg">
  <defs
     id="defs11339">
    <linearGradient
       inkscape:collect="always"
       id="linearGradient2943">
      <stop
         style="stop-color:white;stop-opacity:1;"
         offset="0"
         id="stop2945" />
      <stop
         style="stop-color:white;stop-opacity:0;"
         offset="1"
         id="stop2947" />
    </linearGradient>
    <linearGradient
       inkscape:collect="always"
       id="linearGradient2930">
      <stop
         style="stop-color:#327bc0;stop-opacity:1;"
         offset="0"
         id="stop2932" />
      <stop
         style="stop-color:#327bc0;stop-opacity:0;"
         offset="1"
         id="stop2934" />
    </linearGradient>
    <linearGradient
       inkscape:collect="always"
       id="linearGradient2920">
      <stop
         style="stop-color:black;stop-opacity:1;"
         offset="0"
         id="stop2922" />
      <stop
         style="stop-color:black;stop-opacity:0;"
         offset="1"
         id="stop2924" />
    </linearGradient>
    <linearGradient
       id="linearGradient2907">
      <stop
         style="stop-color:black;stop-opacity:1;"
         offset="0"
         id="stop2909" />
      <stop
         id="stop2915"
         offset="0.77472526"
         style="stop-color:#000761;stop-opacity:1;" />
      <stop
         style="stop-color:black;stop-opacity:0;"
         offset="1"
         id="stop2911" />
    </linearGradient>
    <linearGradient
       id="linearGradient2856">
      <stop
         style="stop-color:#d9d9d9;stop-opacity:1;"
         offset="0"
         id="stop2858" />
      <stop
         style="stop-color:white;stop-opacity:1;"
         offset="1"
         id="stop2860" />
    </linearGradient>
    <linearGradient
       inkscape:collect="always"
       id="linearGradient2848">
      <stop
         style="stop-color:#6ea7d8;stop-opacity:1;"
         offset="0"
         id="stop2850" />
      <stop
         style="stop-color:#6ea7d8;stop-opacity:0;"
         offset="1"
         id="stop2852" />
    </linearGradient>
    <linearGradient
       inkscape:collect="always"
       id="linearGradient2828">
      <stop
         style="stop-color:#002b8e;stop-opacity:1;"
         offset="0"
         id="stop2830" />
      <stop
         style="stop-color:#002b8e;stop-opacity:0;"
         offset="1"
         id="stop2832" />
    </linearGradient>
    <linearGradient
       inkscape:collect="always"
       id="linearGradient17346">
      <stop
         style="stop-color:#edf8fc;stop-opacity:1;"
         offset="0"
         id="stop17348" />
      <stop
         style="stop-color:#edf8fc;stop-opacity:0;"
         offset="1"
         id="stop17350" />
    </linearGradient>
    <linearGradient
       inkscape:collect="always"
       id="linearGradient11023">
      <stop
         style="stop-color:#99b8ff;stop-opacity:1;"
         offset="0"
         id="stop11025" />
      <stop
         style="stop-color:#99b8ff;stop-opacity:0;"
         offset="1"
         id="stop11027" />
    </linearGradient>
    <linearGradient
       inkscape:collect="always"
       id="linearGradient31821">
      <stop
         style="stop-color:#8cc2e6;stop-opacity:1;"
         offset="0"
         id="stop31823" />
      <stop
         style="stop-color:#8cc2e6;stop-opacity:0;"
         offset="1"
         id="stop31825" />
    </linearGradient>
    <linearGradient
       id="linearGradient4116">
      <stop
         style="stop-color:#e6e6e6;stop-opacity:1;"
         offset="0"
         id="stop4118" />
      <stop
         style="stop-color:white;stop-opacity:0;"
         offset="1"
         id="stop4120" />
    </linearGradient>
    <linearGradient
       inkscape:collect="always"
       id="linearGradient9975">
      <stop
         style="stop-color:white;stop-opacity:1;"
         offset="0"
         id="stop9977" />
      <stop
         style="stop-color:white;stop-opacity:0"
         offset="1"
         id="stop9979" />
    </linearGradient>
    <linearGradient
       inkscape:collect="always"
       xlink:href="#linearGradient9975"
       id="linearGradient1952"
       gradientUnits="userSpaceOnUse"
       gradientTransform="matrix(1.02099,0,0,0.31764,81.1698,12.07593)"
       x1="67.291084"
       y1="31.515755"
       x2="67.524582"
       y2="25.580921" />
    <linearGradient
       inkscape:collect="always"
       xlink:href="#linearGradient9975"
       id="linearGradient2041"
       gradientUnits="userSpaceOnUse"
       gradientTransform="matrix(-0.439807,0,0,0.881483,98.90471,6.072933)"
       x1="51.692898"
       y1="39.492558"
       x2="62.978611"
       y2="45.173569" />
    <linearGradient
       inkscape:collect="always"
       xlink:href="#linearGradient11023"
       id="linearGradient2043"
       gradientUnits="userSpaceOnUse"
       gradientTransform="matrix(-1.000267,0,0,1.065934,129.2663,-10.70503)"
       x1="33.511276"
       y1="107.18645"
       x2="44.743717"
       y2="109.18645" />
    <linearGradient
       inkscape:collect="always"
       xlink:href="#linearGradient11023"
       id="linearGradient2045"
       gradientUnits="userSpaceOnUse"
       gradientTransform="matrix(1.205574,0,0,1.08802,-15.23003,-13.47396)"
       x1="33.511276"
       y1="107.18645"
       x2="44.743717"
       y2="109.18645" />
    <linearGradient
       inkscape:collect="always"
       xlink:href="#linearGradient11023"
       id="linearGradient2047"
       gradientUnits="userSpaceOnUse"
       gradientTransform="matrix(-1.057047,0,0,1.088019,136.0397,-13.47396)"
       x1="33.511276"
       y1="107.18645"
       x2="44.743717"
       y2="109.18645" />
    <linearGradient
       inkscape:collect="always"
       xlink:href="#linearGradient11023"
       id="linearGradient2049"
       gradientUnits="userSpaceOnUse"
       gradientTransform="matrix(0.997018,0,0,1.076813,-2.101251,-12.06919)"
       x1="33.511276"
       y1="107.18645"
       x2="44.743717"
       y2="109.18645" />
    <linearGradient
       inkscape:collect="always"
       xlink:href="#linearGradient17346"
       id="linearGradient2051"
       gradientUnits="userSpaceOnUse"
       x1="159.27913"
       y1="37.490334"
       x2="166.36295"
       y2="-9.9224138" />
    <linearGradient
       inkscape:collect="always"
       xlink:href="#linearGradient9975"
       id="linearGradient2053"
       gradientUnits="userSpaceOnUse"
       gradientTransform="matrix(-0.931621,0,0,0.955236,133.8121,2.102744)"
       x1="40.772728"
       y1="68.636368"
       x2="59.817509"
       y2="72.272728" />
    <linearGradient
       inkscape:collect="always"
       xlink:href="#linearGradient9975"
       id="linearGradient2055"
       gradientUnits="userSpaceOnUse"
       gradientTransform="matrix(0.989524,0,0,0.965908,-1.889713,0.43688)"
       x1="40.772728"
       y1="68.636368"
       x2="59.817509"
       y2="72.272728" />
    <linearGradient
       inkscape:collect="always"
       xlink:href="#linearGradient9975"
       id="linearGradient2057"
       gradientUnits="userSpaceOnUse"
       gradientTransform="matrix(0.94248,0,0,0.94803,-8.703487,2.712004)"
       x1="40.772728"
       y1="68.636368"
       x2="59.817509"
       y2="72.272728" />
    <linearGradient
       inkscape:collect="always"
       xlink:href="#linearGradient9975"
       id="linearGradient2059"
       gradientUnits="userSpaceOnUse"
       gradientTransform="matrix(-0.918553,0,0,0.955609,126.4079,0.674882)"
       x1="40.772728"
       y1="68.636368"
       x2="59.817509"
       y2="72.272728" />
    <linearGradient
       inkscape:collect="always"
       xlink:href="#linearGradient9975"
       id="linearGradient2067"
       gradientUnits="userSpaceOnUse"
       gradientTransform="matrix(1.003707,0,0,0.312263,-2.890277,16.73816)"
       x1="67.291084"
       y1="31.515755"
       x2="67.524582"
       y2="25.580921" />
    <linearGradient
       inkscape:collect="always"
       xlink:href="#linearGradient9975"
       id="linearGradient2069"
       gradientUnits="userSpaceOnUse"
       gradientTransform="matrix(0.439807,0,0,0.881483,29.58395,6.072933)"
       x1="51.692898"
       y1="39.492558"
       x2="62.978611"
       y2="45.173569" />
    <linearGradient
       inkscape:collect="always"
       xlink:href="#linearGradient4116"
       id="linearGradient2126"
       gradientUnits="userSpaceOnUse"
       gradientTransform="matrix(1.090369,0,0,0.949446,-255.3963,-483.4586)"
       x1="286.49881"
       y1="565.05914"
       x2="311.26419"
       y2="571.60455" />
    <linearGradient
       inkscape:collect="always"
       xlink:href="#linearGradient31821"
       id="linearGradient2129"
       gradientUnits="userSpaceOnUse"
       gradientTransform="matrix(0.859923,0,0,0.722731,130.3106,-85.60848)"
       x1="-80.500648"
       y1="257.15033"
       x2="-75.731331"
       y2="229.89458" />
    <linearGradient
       inkscape:collect="always"
       xlink:href="#linearGradient11023"
       id="linearGradient2131"
       gradientUnits="userSpaceOnUse"
       gradientTransform="matrix(1.036335,0.105609,-0.192855,0.995017,71.89713,1.710371)"
       x1="-85.269962"
       y1="257.15033"
       x2="-75.731331"
       y2="257.15033" />
    <linearGradient
       inkscape:collect="always"
       xlink:href="#linearGradient4116"
       id="linearGradient2157"
       gradientUnits="userSpaceOnUse"
       gradientTransform="matrix(0.970156,0,0,0.941734,-222.2325,-481.8072)"
       x1="286.49881"
       y1="565.05914"
       x2="311.26419"
       y2="571.60455" />
    <radialGradient
       inkscape:collect="always"
       xlink:href="#linearGradient2828"
       id="radialGradient2834"
       cx="66.629807"
       cy="34.041546"
       fx="66.629807"
       fy="34.041546"
       r="13.297085"
       gradientTransform="matrix(0.941064,-0.161452,1.62506e-2,9.472105e-2,3.308033,33.02433)"
       gradientUnits="userSpaceOnUse" />
    <linearGradient
       inkscape:collect="always"
       xlink:href="#linearGradient2848"
       id="linearGradient2854"
       x1="62.812454"
       y1="86.643661"
       x2="58.780773"
       y2="85.563377"
       gradientUnits="userSpaceOnUse"
       gradientTransform="matrix(0.983072,0,0,0.983072,1.062201,4.540162e-2)" />
    <linearGradient
       inkscape:collect="always"
       xlink:href="#linearGradient2856"
       id="linearGradient2862"
       x1="38.401947"
       y1="90.770405"
       x2="47.244867"
       y2="90.770405"
       gradientUnits="userSpaceOnUse"
       gradientTransform="matrix(0.973584,4.398871e-2,0,0.98311,1.317434,-1.832062)" />
    <linearGradient
       inkscape:collect="always"
       xlink:href="#linearGradient2856"
       id="linearGradient2872"
       x1="36.932367"
       y1="85.678239"
       x2="50.182367"
       y2="85.678239"
       gradientUnits="userSpaceOnUse"
       gradientTransform="matrix(0.973584,4.398871e-2,0,0.98311,1.317434,-1.832062)" />
    <linearGradient
       inkscape:collect="always"
       xlink:href="#linearGradient2856"
       id="linearGradient2874"
       x1="32.713617"
       y1="95.474094"
       x2="50.057367"
       y2="95.474094"
       gradientUnits="userSpaceOnUse"
       gradientTransform="matrix(0.973584,0.100673,0,0.98311,1.317434,-4.177951)" />
    <linearGradient
       inkscape:collect="always"
       xlink:href="#linearGradient2856"
       id="linearGradient2878"
       gradientUnits="userSpaceOnUse"
       x1="38.401955"
       y1="90.113304"
       x2="47.244867"
       y2="90.770405"
       gradientTransform="matrix(0.888294,4.013514e-2,0,0.888294,6.596138,-3.055738)" />
    <linearGradient
       inkscape:collect="always"
       xlink:href="#linearGradient2856"
       id="linearGradient2899"
       gradientUnits="userSpaceOnUse"
       x1="38.024147"
       y1="85.678238"
       x2="50.182367"
       y2="85.678239"
       gradientTransform="matrix(0.983072,4.441743e-2,0,0.983072,4.885455,-16.43854)" />
    <linearGradient
       inkscape:collect="always"
       xlink:href="#linearGradient2856"
       id="linearGradient2901"
       gradientUnits="userSpaceOnUse"
       x1="38.401947"
       y1="90.520409"
       x2="47.244867"
       y2="90.770405"
       gradientTransform="matrix(0.983072,4.441743e-2,0,0.983072,4.885455,-16.43854)" />
    <linearGradient
       inkscape:collect="always"
       xlink:href="#linearGradient2856"
       id="linearGradient2903"
       gradientUnits="userSpaceOnUse"
       gradientTransform="matrix(0.829322,3.747063e-2,0,0.829322,13.2063,-12.09481)"
       x1="38.401947"
       y1="90.770405"
       x2="47.244867"
       y2="90.770405" />
    <radialGradient
       inkscape:collect="always"
       xlink:href="#linearGradient2907"
       id="radialGradient2913"
       cx="62.5"
       cy="121.625"
       fx="62.5"
       fy="121.625"
       r="36.25"
       gradientTransform="matrix(1,0,0,0.244828,0,91.84784)"
       gradientUnits="userSpaceOnUse" />
    <linearGradient
       inkscape:collect="always"
       xlink:href="#linearGradient2920"
       id="linearGradient2926"
       x1="20.207975"
       y1="129.55519"
       x2="32.452454"
       y2="107.55519"
       gradientUnits="userSpaceOnUse"
       gradientTransform="matrix(0.983072,0,0,0.983072,1.062201,4.540162e-2)" />
    <radialGradient
       inkscape:collect="always"
       xlink:href="#linearGradient2930"
       id="radialGradient2936"
       cx="48.625"
       cy="24.625"
       fx="48.754017"
       fy="25.653078"
       r="1.625"
       gradientTransform="matrix(1,0,0,19,0,-443.25)"
       gradientUnits="userSpaceOnUse" />
    <radialGradient
       inkscape:collect="always"
       xlink:href="#linearGradient2943"
       id="radialGradient2949"
       cx="74.921875"
       cy="2.1976438"
       fx="74.921875"
       fy="2.1976438"
       r="1.75"
       gradientTransform="matrix(2.689119,0,0,0.605898,-126.6813,1.663074)"
       gradientUnits="userSpaceOnUse" />
  </defs>
  <sodipodi:namedview
     id="base"
     pagecolor="#ffffff"
     bordercolor="#666666"
     borderopacity="1.0"
     gridtolerance="10000"
     guidetolerance="10"
     objecttolerance="10"
     inkscape:pageopacity="0.0"
     inkscape:pageshadow="2"
     inkscape:zoom="4"
     inkscape:cx="155.65521"
     inkscape:cy="27.87654"
     inkscape:document-units="px"
     inkscape:current-layer="layer1"
     width="128px"
     height="128px"
     inkscape:window-width="1268"
     inkscape:window-height="907"
     inkscape:window-x="529"
     inkscape:window-y="77"
     showguides="true"
     inkscape:guide-bbox="true" />
  <metadata
     id="metadata11342">
    <rdf:RDF>
      <cc:Work
         rdf:about="">
        <dc:format>image/svg+xml</dc:format>
        <dc:type
           rdf:resource="http://purl.org/dc/dcmitype/StillImage" />
      </cc:Work>
    </rdf:RDF>
  </metadata>
  <g
     inkscape:label="Layer 1"
     inkscape:groupmode="layer"
     id="layer1">
    <path
       sodipodi:type="arc"
       style="opacity:1;fill:url(#radialGradient2913);fill-opacity:1;fill-rule:nonzero;stroke:none;stroke-width:0.2;stroke-linecap:round;stroke-linejoin:round;stroke-miterlimit:4;stroke-dasharray:none;stroke-dashoffset:4;stroke-opacity:1"
       id="path2905"
       sodipodi:cx="62.5"
       sodipodi:cy="121.625"
       sodipodi:rx="36.25"
       sodipodi:ry="8.875"
       d="M 98.75 121.625 A 36.25 8.875 0 1 1  26.25,121.625 A 36.25 8.875 0 1 1  98.75 121.625 z"
       transform="matrix(1.041232,0,0,1.149942,-2.327038,-23.4386)" />
    <path
       inkscape:export-ydpi="90"
       inkscape:export-xdpi="90"
       inkscape:export-filename="/home/beast/kalzium/kalzium-beaker-with-rod.png"
       style="fill:#d3d7cf;fill-opacity:1;fill-rule:evenodd;stroke:none;stroke-width:0.99143928;stroke-miterlimit:4;stroke-dasharray:none;stroke-opacity:1"
       d="M 50.410506,25.489637 C 59.38121,22.792715 66.020321,22.264795 75.928777,25.260306 L 77.258088,52.283297 C 79.441541,62.648027 103.87351,109.40273 98.096138,115.38388 C 92.307974,123.40022 77.127565,124.18758 66.667182,124.20672 C 54.139575,124.22868 33.707367,124.40325 27.48095,114.91901 C 22.342194,109.6122 43.281441,71.157375 48.863946,52.778962 L 50.410506,25.489637 z "
       id="path1963"
       sodipodi:nodetypes="ccccsccc" />
    <path
       inkscape:export-ydpi="90"
       inkscape:export-xdpi="90"
       inkscape:export-filename="/home/beast/kalzium/kalzium-beaker-with-rod.png"
       style="opacity:0.75;fill:url(#linearGradient2041);fill-opacity:1;fill-rule:evenodd;stroke:none;stroke-width:0.86480457;stroke-miterlimit:4;stroke-opacity:1"
       d="M 67.097595,27.475217 L 67.097595,27.905311 C 66.926029,27.900199 66.7442,27.884962 66.575544,27.87459 C 66.746864,27.725655 66.928654,27.600274 67.097595,27.475217 z M 74.3788,28.826942 L 74.900851,53.557359 C 74.90616,53.604429 74.909188,53.663629 74.914585,53.710964 L 65.558929,53.710964 L 65.558929,54.294663 L 65.20174,54.294663 C 65.245644,53.884044 65.299398,53.428036 65.325381,53.096544 L 65.737534,30.793087 C 66.328272,30.862079 66.936725,30.915961 67.578436,30.915971 C 70.754841,30.915951 74.001939,30.524462 74.365057,29.410641 C 74.385053,29.429978 74.358785,28.807428 74.3788,28.826942 z "
       id="path1965" />
    <g
       inkscape:export-ydpi="90"
       inkscape:export-xdpi="90"
       inkscape:export-filename="/home/beast/kalzium/kalzium-beaker-with-rod.png"
       style="fill:#002b8e;fill-opacity:1"
       transform="matrix(1.136786,0,0,1.021373,-10.32151,-3.688473)"
       id="g1967">
      <path
         style="opacity:1;fill:#002b8e;fill-opacity:1;fill-rule:evenodd;stroke:none;stroke-width:0.317;stroke-miterlimit:4;stroke-opacity:1"
         d="M 40.944672,87.914923 C 35.859934,101.30067 31.483277,113.49973 33.878412,116.28042 C 39.297364,125.55992 57.091733,125.39097 67.994704,125.36948 C 77.098539,125.35076 90.287303,124.57072 95.324849,116.72742 C 97.805443,113.84037 93.797626,101.27088 88.962069,88.030079 L 40.944672,87.914923 z "
         id="path1969"
         sodipodi:nodetypes="cccccc" />
      <path
         id="path1971"
         d="M 34.848384,106.40214 C 33.627893,111.11094 33.274764,114.57388 34.408951,115.90214 C 39.780992,125.18164 57.436578,125.01738 68.245165,124.99589 C 77.270191,124.97717 90.349495,124.21419 95.343433,116.37089 C 96.529592,114.97832 96.208467,111.2962 95.050479,106.40214 L 34.848384,106.40214 z "
         style="opacity:0.5;fill:#002b8e;fill-opacity:1;fill-rule:evenodd;stroke:none;stroke-width:0.317;stroke-miterlimit:4;stroke-opacity:1" />
    </g>
    <path
       inkscape:export-ydpi="90"
       inkscape:export-xdpi="90"
       inkscape:export-filename="/home/beast/kalzium/kalzium-beaker-with-rod.png"
       id="path1973"
       d="M 38.682661,86.192336 C 33.447661,99.352003 29.175477,111.26139 31.64139,113.9951 C 37.220474,123.11788 55.540678,122.95178 66.765839,122.93065 C 76.138698,122.91225 89.717197,122.14538 94.903605,114.43456 C 97.457501,111.59627 93.413914,99.209507 88.435463,86.192336 L 38.682661,86.192336 z "
       style="opacity:0.5;fill:#3466d9;fill-opacity:1;fill-rule:evenodd;stroke:none;stroke-width:0.317;stroke-miterlimit:4;stroke-opacity:1" />
    <path
       inkscape:export-ydpi="90"
       inkscape:export-xdpi="90"
       inkscape:export-filename="/home/beast/kalzium/kalzium-beaker-with-rod.png"
       style="fill:#0060b5;fill-opacity:1;fill-rule:evenodd;stroke:none;stroke-width:0.317;stroke-miterlimit:4;stroke-opacity:1"
       d="M 41.123096,86.192336 C 36.401602,99.352003 32.548468,111.26139 34.772504,113.9951 C 39.804347,123.11788 56.327528,122.95178 66.451624,122.93065 C 74.905109,122.91225 87.151705,122.14538 91.829387,114.43456 C 94.13277,111.59627 90.485812,99.209507 85.995701,86.192336 L 41.123096,86.192336 z "
       id="path1975" />
    <path
       sodipodi:type="arc"
       style="fill:#006bd9;fill-opacity:1;fill-rule:evenodd;stroke:none;stroke-width:0.317;stroke-miterlimit:4;stroke-dasharray:none;stroke-opacity:1"
       id="path1977"
       sodipodi:cx="71.224937"
       sodipodi:cy="492.99567"
       sodipodi:rx="35.741035"
       sodipodi:ry="9.8994951"
       d="M 106.96597 492.99567 A 35.741035 9.8994951 0 1 1  35.483902,492.99567 A 35.741035 9.8994951 0 1 1  106.96597 492.99567 z"
       transform="matrix(0.908015,0,0,0.821923,-1.138571,-289.3551)"
       inkscape:export-filename="/home/beast/kalzium/kalzium-beaker-with-rod.png"
       inkscape:export-xdpi="90"
       inkscape:export-ydpi="90" />
    <path
       sodipodi:nodetypes="ccccsccc"
       id="path2918"
       d="M 50.312399,25.295529 C 56.426353,22.299567 55.668267,23.442319 62.276952,26.975305 L 63.23705,53.294486 C 64.814046,63.389264 82.460059,108.92626 78.287339,114.75164 C 74.106833,122.55919 63.142783,123.32604 55.587763,123.34467 C 46.539691,123.36606 31.782525,123.5361 27.285489,114.29887 C 23.574037,109.13028 43.40719,69.003866 49.594501,51.865364 L 50.312399,25.295529 z "
       style="fill:url(#linearGradient2926);fill-opacity:1;fill-rule:evenodd;stroke:none;stroke-width:0.86480457;stroke-miterlimit:4;stroke-dasharray:none;stroke-opacity:1"
       inkscape:export-filename="/home/beast/kalzium/kalzium-beaker-with-rod.png"
       inkscape:export-xdpi="90"
       inkscape:export-ydpi="90" />
    <path
       style="opacity:0.5;fill:#0077fd;fill-opacity:1;fill-rule:evenodd;stroke:none;stroke-width:0.317;stroke-miterlimit:4;stroke-opacity:1"
       d="M 37.253236,109.98172 C 36.187112,113.11837 35.878662,115.42513 36.86939,116.30993 C 41.561928,122.49126 56.984318,122.38185 66.425746,122.36753 C 74.309226,122.35506 85.734176,121.84682 90.096446,116.62218 C 91.132564,115.69454 90.852064,113.24177 89.84054,109.98172 C 69.180288,105.30056 53.015999,107.34098 37.253236,109.98172 z "
       id="path1979"
       inkscape:export-filename="/home/beast/kalzium/kalzium-beaker-with-rod.png"
       inkscape:export-xdpi="90"
       inkscape:export-ydpi="90"
       sodipodi:nodetypes="ccsccc" />
    <path
       inkscape:export-ydpi="90"
       inkscape:export-xdpi="90"
       inkscape:export-filename="/home/beast/kalzium/kalzium-beaker-with-rod.png"
       transform="matrix(0.950051,0,0,0.510399,-94.58228,70.49132)"
       d="M 195.16148 31.062088 A 28.798531 6.4282436 0 1 1  137.56441,31.062088 A 28.798531 6.4282436 0 1 1  195.16148 31.062088 z"
       sodipodi:ry="6.4282436"
       sodipodi:rx="28.798531"
       sodipodi:cy="31.062088"
       sodipodi:cx="166.36295"
       id="path1981"
       style="fill:#002b8e;fill-opacity:1;fill-rule:evenodd;stroke:none;stroke-width:1;stroke-miterlimit:4;stroke-dasharray:none;stroke-opacity:1"
       sodipodi:type="arc" />
    <path
       inkscape:export-ydpi="90"
       inkscape:export-xdpi="90"
       inkscape:export-filename="/home/beast/kalzium/kalzium-beaker-with-rod.png"
       id="path1983"
       d="M 84.459268,88.42667 C 88.777522,101.29949 92.301575,111.51583 90.267485,114.18995 C 85.665393,123.11387 70.553372,122.9514 61.293926,122.93073 C 53.562423,122.91272 42.361747,122.16257 38.083566,114.61983 C 35.976906,111.84341 39.312385,101.1601 43.419031,88.42667 C 58.448987,91.716885 71.821388,91.000787 84.459268,88.42667 z "
       style="fill:url(#linearGradient2043);fill-opacity:1;fill-rule:evenodd;stroke:none;stroke-width:0.317;stroke-miterlimit:4;stroke-opacity:1"
       sodipodi:nodetypes="ccsccc" />
    <path
       inkscape:export-ydpi="90"
       inkscape:export-xdpi="90"
       inkscape:export-filename="/home/beast/kalzium/kalzium-beaker-with-rod.png"
       id="path1985"
       d="M 38.773818,87.711684 C 33.569223,100.85123 29.321855,111.27926 31.773447,114.00878 C 37.32013,123.1176 55.533941,122.95175 66.69391,122.93067 C 76.012336,122.91229 89.511974,122.14658 94.66827,114.44756 C 97.207329,111.61362 93.187225,100.70895 88.237689,87.711684 C 70.122786,91.070067 54.005657,90.339134 38.773818,87.711684 z "
       style="fill:url(#linearGradient2045);fill-opacity:1;fill-rule:evenodd;stroke:none;stroke-width:0.317;stroke-miterlimit:4;stroke-opacity:1"
       sodipodi:nodetypes="ccsccc" />
    <path
       inkscape:export-ydpi="90"
       inkscape:export-xdpi="90"
       inkscape:export-filename="/home/beast/kalzium/kalzium-beaker-with-rod.png"
       sodipodi:nodetypes="ccsccc"
       style="fill:url(#linearGradient2047);fill-opacity:1;fill-rule:evenodd;stroke:none;stroke-width:0.317;stroke-miterlimit:4;stroke-opacity:1"
       d="M 88.689296,87.711684 C 93.252679,100.85123 96.976764,111.27926 94.827217,114.00878 C 89.963893,123.1176 73.994047,122.95175 64.208993,122.93067 C 56.038608,122.91229 44.202133,122.14658 39.68111,114.44756 C 37.454855,111.61362 40.979677,100.70895 45.319428,87.711684 C 61.202556,91.070067 75.33404,90.339134 88.689296,87.711684 z "
       id="path1987" />
    <path
       inkscape:export-ydpi="90"
       inkscape:export-xdpi="90"
       inkscape:export-filename="/home/beast/kalzium/kalzium-beaker-with-rod.png"
       sodipodi:nodetypes="ccsccc"
       style="fill:url(#linearGradient2049);fill-opacity:1;fill-rule:evenodd;stroke:none;stroke-width:0.317;stroke-miterlimit:4;stroke-opacity:1"
       d="M 42.56032,88.074442 C 38.256086,101.07866 34.743481,111.39927 36.770971,114.1007 C 41.358109,123.11571 56.42105,122.95157 65.650423,122.9307 C 73.356818,122.9125 84.52111,122.15469 88.785398,114.53496 C 90.885224,111.7302 87.560572,100.93784 83.467264,88.074442 C 68.486123,91.398239 55.157153,90.674837 42.56032,88.074442 z "
       id="path1989" />
    <path
       inkscape:export-ydpi="90"
       inkscape:export-xdpi="90"
       inkscape:export-filename="/home/beast/kalzium/kalzium-beaker-with-rod.png"
       transform="matrix(0.805477,0,0,0.334427,-70.39003,76.55229)"
       d="M 195.16148 31.062088 A 28.798531 6.4282436 0 1 1  137.56441,31.062088 A 28.798531 6.4282436 0 1 1  195.16148 31.062088 z"
       sodipodi:ry="6.4282436"
       sodipodi:rx="28.798531"
       sodipodi:cy="31.062088"
       sodipodi:cx="166.36295"
       id="path1991"
       style="fill:#0d68bb;fill-opacity:1;fill-rule:evenodd;stroke:none;stroke-width:1;stroke-miterlimit:4;stroke-dasharray:none;stroke-opacity:1"
       sodipodi:type="arc" />
    <path
       inkscape:export-ydpi="90"
       inkscape:export-xdpi="90"
       inkscape:export-filename="/home/beast/kalzium/kalzium-beaker-with-rod.png"
       sodipodi:type="arc"
       style="opacity:0.5;fill:url(#linearGradient2051);fill-opacity:1;fill-rule:evenodd;stroke:none;stroke-width:1;stroke-miterlimit:4;stroke-dasharray:none;stroke-opacity:1"
       id="path1993"
       sodipodi:cx="166.36295"
       sodipodi:cy="31.062088"
       sodipodi:rx="28.798531"
       sodipodi:ry="6.4282436"
       d="M 195.16148 31.062088 A 28.798531 6.4282436 0 1 1  137.56441,31.062088 A 28.798531 6.4282436 0 1 1  195.16148 31.062088 z"
       transform="matrix(0.876163,0,0,0.431751,-82.41524,73.08231)" />
    <path
       inkscape:export-ydpi="90"
       inkscape:export-xdpi="90"
       inkscape:export-filename="/home/beast/kalzium/kalzium-beaker-with-rod.png"
       sodipodi:nodetypes="ccccsccc"
       id="path1995"
       d="M 75.476434,24.857933 C 69.432928,21.839193 70.182271,22.990636 63.649734,26.550469 L 62.7007,53.069695 C 61.141875,63.241202 43.699182,109.12429 47.823823,114.99395 C 51.956167,122.86084 62.793887,123.63353 70.261854,123.65231 C 79.205667,123.67385 93.792803,123.84518 98.238023,114.53775 C 101.9067,109.32986 82.298419,69.63951 76.182411,52.37074 L 75.476434,24.857933 z "
       style="fill:url(#linearGradient2053);fill-opacity:1;fill-rule:evenodd;stroke:none;stroke-width:0.86480457;stroke-miterlimit:4;stroke-dasharray:none;stroke-opacity:1" />
    <path
       inkscape:export-ydpi="90"
       inkscape:export-xdpi="90"
       inkscape:export-filename="/home/beast/kalzium/kalzium-beaker-with-rod.png"
       sodipodi:nodetypes="ccccsccc"
       id="path1997"
       d="M 53.283234,25.385411 C 59.702364,22.332952 65.695213,21.558241 72.633778,25.15785 L 73.641791,51.973384 C 75.297501,62.258534 93.824328,108.65428 89.443324,114.58952 C 85.054142,122.54431 73.542815,123.32561 65.610688,123.34461 C 56.110984,123.3664 40.617201,123.53965 35.8957,114.12821 C 31.998978,108.86215 47.87724,70.702546 52.110468,52.465234 L 53.283234,25.385411 z "
       style="fill:url(#linearGradient2055);fill-opacity:1;fill-rule:evenodd;stroke:none;stroke-width:0.86480457;stroke-miterlimit:4;stroke-dasharray:none;stroke-opacity:1" />
    <path
       inkscape:export-ydpi="90"
       inkscape:export-xdpi="90"
       inkscape:export-filename="/home/beast/kalzium/kalzium-beaker-with-rod.png"
       style="fill:url(#linearGradient2057);fill-opacity:1;fill-rule:evenodd;stroke:none;stroke-width:0.86480457;stroke-miterlimit:4;stroke-dasharray:none;stroke-opacity:1"
       d="M 50.312399,25.295529 C 56.426353,22.299567 55.668267,23.442319 62.276952,26.975305 L 63.23705,53.294486 C 64.814046,63.389264 82.460059,108.92626 78.287339,114.75164 C 74.106833,122.55919 63.142783,123.32604 55.587763,123.34467 C 46.539691,123.36606 31.782525,123.5361 27.285489,114.29887 C 23.574037,109.13028 43.40719,69.003866 49.594501,51.865364 L 50.312399,25.295529 z "
       id="path1999"
       sodipodi:nodetypes="ccccsccc" />
    <path
       inkscape:export-ydpi="90"
       inkscape:export-xdpi="90"
       inkscape:export-filename="/home/beast/kalzium/kalzium-beaker-with-rod.png"
       id="path2001"
       d="M 52.286733,24.627188 C 51.133225,24.430298 50.466516,24.20258 50.466516,23.958807 C 50.466516,23.220382 56.523668,22.622045 63.990929,22.622045 C 71.45818,22.622045 77.515342,23.220382 77.515342,23.958807 C 77.515342,24.20258 76.848632,24.430298 75.695125,24.627188 C 73.353033,24.228198 68.988987,23.958807 63.990929,23.958807 C 58.99287,23.958807 54.628825,24.228198 52.286733,24.627188 z "
       style="fill:#888a85;fill-opacity:1;fill-rule:evenodd;stroke:none;stroke-width:0.317;stroke-miterlimit:4;stroke-dasharray:none;stroke-opacity:1" />
    <path
       inkscape:export-ydpi="90"
       inkscape:export-xdpi="90"
       inkscape:export-filename="/home/beast/kalzium/kalzium-beaker-with-rod.png"
       id="path2005"
       d="M 75.192283,25.357453 C 69.233546,22.337543 63.670516,21.57109 57.229612,25.132319 L 56.293894,51.661936 C 54.756929,61.837435 37.558911,107.73851 41.625695,113.61046 C 45.700069,121.48044 56.385772,122.25341 63.748975,122.2722 C 72.567342,122.29376 86.949859,122.46516 91.332721,113.15408 C 94.949956,107.94415 80.210534,70.191418 76.280928,52.148547 L 75.192283,25.357453 z "
       style="fill:url(#linearGradient2059);fill-opacity:1;fill-rule:evenodd;stroke:none;stroke-width:0.86480457;stroke-miterlimit:4;stroke-opacity:1" />
    <path
       inkscape:export-ydpi="90"
       inkscape:export-xdpi="90"
       inkscape:export-filename="/home/beast/kalzium/kalzium-beaker-with-rod.png"
       sodipodi:type="arc"
       style="fill:#ccccc6;fill-opacity:1;fill-rule:evenodd;stroke:none;stroke-width:0.317;stroke-miterlimit:4;stroke-dasharray:none;stroke-opacity:1"
       id="path2003"
       sodipodi:cx="159.42044"
       sodipodi:cy="-210.12561"
       sodipodi:rx="19.541861"
       sodipodi:ry="1.7999082"
       d="M 178.9623 -210.12561 A 19.541861 1.7999082 0 1 1  139.87858,-210.12561 A 19.541861 1.7999082 0 1 1  178.9623 -210.12561 z"
       transform="matrix(0.603741,0,0,0.403286,-32.01002,108.6226)" />
    <path
       style="opacity:1;fill:#c8c8c8;fill-opacity:1;fill-rule:evenodd;stroke:none;stroke-width:1;stroke-miterlimit:4;stroke-dasharray:none;stroke-opacity:1"
       d="M 74.825218,2.7045371 C 74.07718,2.7889793 73.501761,3.1355151 73.369985,3.5874137 L 73.218398,3.5579845 L 58.847963,87.519539 L 63.213666,87.519539 L 77.493147,4.1465688 C 77.497639,4.1203414 77.491722,4.0844331 77.493147,4.0582812 C 77.526831,3.4393916 76.709747,2.8308427 75.613471,2.7045371 C 75.339402,2.6729561 75.074568,2.6763897 74.825218,2.7045371 z "
       id="path2110"
       inkscape:export-filename="/home/beast/kalzium/kalzium-beaker-with-rod.png"
       inkscape:export-xdpi="90"
       inkscape:export-ydpi="90" />
    <path
       style="opacity:1;fill:url(#linearGradient2157);fill-opacity:1;fill-rule:evenodd;stroke:none;stroke-width:0.39152244;stroke-miterlimit:4;stroke-dasharray:none;stroke-opacity:1"
       d="M 75.266989,2.8769083 C 75.135348,2.8773368 74.997528,2.8922632 74.872863,2.9063375 C 74.124834,2.9907828 73.549396,3.3373131 73.41763,3.789214 L 73.266043,3.7597848 L 58.895608,87.485905 L 60.441794,87.485905 L 74.660641,4.4660859 L 74.812228,4.4660859 C 74.987924,3.8635546 75.989745,3.4862955 77.086032,3.6126387 C 77.153205,3.6203797 77.202994,3.6603283 77.267935,3.6714971 C 76.94989,3.311453 76.378536,2.9889935 75.661115,2.9063375 C 75.524081,2.8905493 75.39863,2.8764798 75.266989,2.8769083 z "
       id="path2150"
       inkscape:export-filename="/home/beast/kalzium/kalzium-beaker-with-rod.png"
       inkscape:export-xdpi="90"
       inkscape:export-ydpi="90" />
    <path
       inkscape:export-ydpi="90"
       inkscape:export-xdpi="90"
       inkscape:export-filename="/home/beast/kalzium/kalzium-beaker-with-rod.png"
       id="path2013"
       d="M 52.644691,23.344459 C 51.529768,23.595417 50.885364,23.885679 50.885364,24.196399 C 50.885364,25.137622 56.739905,25.90029 63.957368,25.90029 C 71.174821,25.90029 77.029361,25.137622 77.029361,24.196399 C 77.029361,23.885679 76.384957,23.595417 75.270035,23.344459 C 73.006294,23.853012 68.788225,24.196399 63.957368,24.196399 C 59.126491,24.196399 54.908431,23.853012 52.644691,23.344459 z "
       style="fill:url(#radialGradient2834);fill-opacity:1;fill-rule:evenodd;stroke:none;stroke-width:0.317;stroke-miterlimit:4;stroke-dasharray:none;stroke-opacity:1" />
    <path
       sodipodi:type="arc"
       style="opacity:0.12295083;fill:url(#radialGradient2936);fill-opacity:1;fill-rule:nonzero;stroke:none;stroke-width:0.2;stroke-linecap:round;stroke-linejoin:round;stroke-miterlimit:4;stroke-dasharray:none;stroke-dashoffset:4;stroke-opacity:1"
       id="path2928"
       sodipodi:cx="48.625"
       sodipodi:cy="24.625"
       sodipodi:rx="1.625"
       sodipodi:ry="30.875"
       d="M 50.25 24.625 A 1.625 30.875 0 1 1  47,24.625 A 1.625 30.875 0 1 1  50.25 24.625 z"
       transform="matrix(0.549423,8.522971e-2,-6.549249e-2,0.42219,47.12144,7.090128)" />
    <path
       inkscape:export-ydpi="90"
       inkscape:export-xdpi="90"
       inkscape:export-filename="/home/beast/kalzium/kalzium-beaker-with-rod.png"
       style="fill:#646fee;fill-opacity:1;fill-rule:evenodd;stroke:none;stroke-width:0.317;stroke-miterlimit:4;stroke-dasharray:none;stroke-opacity:1"
       d="M 51.13761,23.768986 C 49.919416,24.039272 49.21533,24.351879 49.21533,24.686517 C 49.21533,25.700192 55.612084,26.521579 63.497997,26.521579 C 71.383909,26.521579 77.780673,25.700192 77.780673,24.686517 C 77.780673,24.351879 77.076577,24.039272 75.858393,23.768986 C 73.384993,24.316704 68.77628,24.686517 63.497997,24.686517 C 58.219713,24.686517 53.610991,24.316704 51.13761,23.768986 z "
       id="path2015" />
    <path
       inkscape:export-ydpi="90"
       inkscape:export-xdpi="90"
       inkscape:export-filename="/home/beast/kalzium/kalzium-beaker-with-rod.png"
       style="fill:#babdb6;fill-opacity:1;fill-rule:evenodd;stroke:none;stroke-width:0.317;stroke-miterlimit:4;stroke-dasharray:none;stroke-opacity:1"
       d="M 51.191915,23.473857 C 49.939313,23.826584 49.21533,24.234559 49.21533,24.671279 C 49.21533,25.9942 55.792822,27.066132 63.901548,27.066132 C 72.010284,27.066132 78.587776,25.9942 78.587776,24.671279 C 78.587776,24.234559 77.863792,23.826584 76.611201,23.473857 C 74.067904,24.188659 69.328973,24.671279 63.901548,24.671279 C 58.474132,24.671279 53.735202,24.188659 51.191915,23.473857 z "
       id="path2017" />
    <path
       inkscape:export-ydpi="90"
       inkscape:export-xdpi="90"
       inkscape:export-filename="/home/beast/kalzium/kalzium-beaker-with-rod.png"
       id="path2019"
       d="M 51.055712,23.473857 C 49.803111,23.792432 49.079127,24.160907 49.079127,24.555355 C 49.079127,25.750181 55.656619,26.718321 63.765345,26.718321 C 71.874081,26.718321 78.451573,25.750181 78.451573,24.555355 C 78.451573,24.160907 77.72759,23.792432 76.474998,23.473857 C 73.931701,24.119451 69.19277,24.555355 63.765345,24.555355 C 58.33793,24.555355 53.598999,24.119451 51.055712,23.473857 z "
       style="fill:#eeeeec;fill-opacity:1;fill-rule:evenodd;stroke:none;stroke-width:0.317;stroke-miterlimit:4;stroke-dasharray:none;stroke-opacity:1" />
    <path
       inkscape:export-ydpi="90"
       inkscape:export-xdpi="90"
       inkscape:export-filename="/home/beast/kalzium/kalzium-beaker-with-rod.png"
       style="fill:url(#linearGradient2067);fill-opacity:1;fill-rule:evenodd;stroke:none;stroke-width:0.317;stroke-miterlimit:4;stroke-dasharray:none;stroke-opacity:1"
       d="M 52.244175,24.725967 C 51.206532,24.907944 50.606799,25.11842 50.606799,25.34371 C 50.606799,26.026199 56.055498,26.579206 62.772655,26.579206 C 69.489822,26.579206 74.938531,26.026199 74.938531,25.34371 C 74.938531,25.11842 74.338788,24.907944 73.301155,24.725967 C 71.194333,25.094728 67.268669,25.34371 62.772655,25.34371 C 58.276662,25.34371 54.350988,25.094728 52.244175,24.725967 z "
       id="path2021" />
    <path
       style="fill:url(#linearGradient2874);fill-opacity:1;fill-rule:evenodd;stroke:none;stroke-width:0.317;stroke-miterlimit:4;stroke-dasharray:none;stroke-opacity:1"
       d="M 33.684106,91.540423 L 33.166888,92.685105 C 35.422012,93.421342 38.938957,94.306392 42.933153,95.077476 C 45.581,95.588626 48.016752,95.964267 50.052487,96.213032 L 50.052487,94.9227 C 48.032709,94.674199 45.672712,94.305114 43.054852,93.799728 C 39.274639,93.069971 35.961698,92.248929 33.684106,91.540423 z "
       id="path2023"
       inkscape:export-filename="/home/beast/kalzium/kalzium-beaker-with-rod.png"
       inkscape:export-xdpi="90"
       inkscape:export-ydpi="90" />
    <path
       style="fill:url(#linearGradient2872);fill-opacity:1;fill-rule:evenodd;stroke:none;stroke-width:0.317;stroke-miterlimit:4;stroke-dasharray:none;stroke-opacity:1"
       d="M 37.791413,82.755729 L 37.274197,83.930525 C 38.931733,84.360831 40.983454,84.791408 43.267824,85.153719 C 45.960845,85.580819 48.375001,85.835701 50.174185,85.895875 L 50.174185,84.605542 C 48.383471,84.543696 46.013194,84.31919 43.359097,83.898233 C 41.270827,83.567049 39.383107,83.157459 37.791413,82.755729 z "
       id="path2025"
       inkscape:export-filename="/home/beast/kalzium/kalzium-beaker-with-rod.png"
       inkscape:export-xdpi="90"
       inkscape:export-ydpi="90" />
    <path
       style="fill:#002b8e;fill-opacity:1;fill-rule:evenodd;stroke:none;stroke-width:0.317;stroke-miterlimit:4;stroke-opacity:1"
       d="M 58.665659,89.186349 L 63.555708,89.275714 L 63.511459,89.633213 L 58.444392,89.566184 L 58.665659,89.186349 z "
       id="path2029"
       sodipodi:nodetypes="ccccc"
       inkscape:export-filename="/home/beast/kalzium/kalzium-beaker-with-rod.png"
       inkscape:export-xdpi="90"
       inkscape:export-ydpi="90" />
    <path
       inkscape:transform-center-x="5.8427057"
       id="path2037"
       d="M 38.933641,87.906111 L 38.704957,89.093943 C 39.596428,89.410101 40.619665,89.742469 41.731674,89.998752 C 44.211538,90.570255 46.355468,90.83953 47.314282,90.82242 C 47.334037,90.471705 47.32618,89.741172 47.321098,89.474023 C 46.2559,89.396441 44.025145,89.227034 41.785483,88.710851 C 40.744255,88.470891 39.785537,88.200731 38.933641,87.906111 z "
       style="fill:url(#linearGradient2862);fill-opacity:1;fill-rule:evenodd;stroke:none;stroke-width:0.317;stroke-miterlimit:4;stroke-dasharray:none;stroke-opacity:1"
       inkscape:export-filename="/home/beast/kalzium/kalzium-beaker-with-rod.png"
       inkscape:export-xdpi="90"
       inkscape:export-ydpi="90"
       sodipodi:nodetypes="ccsccsc"
       inkscape:transform-center-y="-0.26454789" />
    <path
       inkscape:export-ydpi="90"
       inkscape:export-xdpi="90"
       inkscape:export-filename="/home/beast/kalzium/kalzium-beaker-with-rod.png"
       id="path2836"
       d="M 74.825218,2.7045371 C 74.07718,2.7889793 73.501761,3.1355151 73.369985,3.5874137 L 73.218398,3.5579845 L 58.847963,87.519539 L 62.996435,87.519539 L 76.96321,4.1465688 C 76.967702,4.1203414 77.491722,4.0844331 77.493147,4.0582812 C 77.526831,3.4393916 76.709747,2.8308427 75.613471,2.7045371 C 75.339402,2.6729561 75.074568,2.6763897 74.825218,2.7045371 z "
       style="opacity:0.4262295;fill:url(#linearGradient2854);fill-opacity:1;fill-rule:evenodd;stroke:none;stroke-width:1;stroke-miterlimit:4;stroke-dasharray:none;stroke-opacity:1"
       sodipodi:nodetypes="ccccccssc" />
    <path
       inkscape:export-ydpi="90"
       inkscape:export-xdpi="90"
       inkscape:export-filename="/home/beast/kalzium/kalzium-beaker-with-rod.png"
       id="path2039"
       d="M 61.390977,27.475217 L 61.390977,27.905311 C 61.562543,27.900199 61.744372,27.884962 61.913028,27.87459 C 61.741708,27.725655 61.559918,27.600274 61.390977,27.475217 z M 54.109772,28.826942 L 53.587722,53.557359 C 53.582413,53.604429 53.579385,53.663629 53.573988,53.710964 L 62.929643,53.710964 L 62.929643,54.294663 L 63.286833,54.294663 C 63.242929,53.884044 63.189174,53.428036 63.163192,53.096544 L 62.751039,30.793087 C 62.1603,30.862079 61.551847,30.915961 60.910137,30.915971 C 57.733731,30.915951 54.486633,30.524462 54.123516,29.410641 C 54.10352,29.429978 54.129788,28.807428 54.109772,28.826942 z "
       style="opacity:0.75;fill:url(#linearGradient2069);fill-opacity:1;fill-rule:evenodd;stroke:none;stroke-width:0.86480457;stroke-miterlimit:4;stroke-opacity:1" />
    <path
       style="fill:url(#linearGradient2129);fill-opacity:1;fill-rule:evenodd;stroke:url(#linearGradient2131);stroke-width:0.32506576;stroke-miterlimit:4;stroke-dasharray:none;stroke-opacity:1"
       d="M 60.981825,89.705104 L 57.288037,108.84502 C 57.243933,108.93379 57.202283,109.02456 57.183494,109.12152 C 57.166563,109.2089 57.143216,109.3436 57.148649,109.42874 C 57.191438,110.09973 57.921889,110.68179 58.891004,110.78053 C 59.860109,110.8793 60.755301,110.43383 61.051523,109.79741 L 61.121212,109.82813 L 65.024077,89.705104 L 60.981825,89.705104 z "
       id="path2009"
       inkscape:export-filename="/home/beast/kalzium/kalzium-beaker-with-rod.png"
       inkscape:export-xdpi="90"
       inkscape:export-ydpi="90" />
    <path
       style="opacity:0.75;fill:url(#linearGradient2126);fill-opacity:1;fill-rule:evenodd;stroke:none;stroke-width:0.39152244;stroke-miterlimit:4;stroke-dasharray:none;stroke-opacity:1"
       d="M 60.723309,89.890686 L 57.145524,108.55323 C 57.09187,108.66279 57.066167,108.75993 57.043307,108.8796 C 57.022697,108.98742 57.002612,109.13055 57.009232,109.23565 C 57.060832,110.05599 57.92551,110.76547 59.087756,110.89718 C 58.800792,110.6199 58.633297,110.27715 58.61071,109.91806 C 58.604099,109.81297 58.624194,109.69953 58.644785,109.59169 C 58.667654,109.47203 58.693347,109.34517 58.747011,109.23565 L 62.427003,89.890686 L 60.723309,89.890686 z "
       id="path2011"
       inkscape:export-filename="/home/beast/kalzium/kalzium-beaker-with-rod.png"
       inkscape:export-xdpi="90"
       inkscape:export-ydpi="90" />
    <path
       sodipodi:nodetypes="ccsccsc"
       inkscape:export-ydpi="90"
       inkscape:export-xdpi="90"
       inkscape:export-filename="/home/beast/kalzium/kalzium-beaker-with-rod.png"
       style="fill:url(#linearGradient2878);fill-opacity:1;fill-rule:evenodd;stroke:none;stroke-width:0.317;stroke-miterlimit:4;stroke-dasharray:none;stroke-opacity:1"
       d="M 40.917034,78.042713 L 40.585499,79.048901 C 41.398875,79.334924 42.363193,79.821359 43.377786,80.053369 C 45.640405,80.570743 47.93445,80.799453 48.80927,80.784376 C 48.827294,80.467493 48.820126,79.807413 48.815489,79.566027 C 47.843605,79.495503 45.470342,79.356996 43.426882,78.8897 C 42.476868,78.672467 41.694301,78.309259 40.917034,78.042713 z "
       id="path2876"
       inkscape:transform-center-x="5.3308645"
       inkscape:transform-center-y="-0.23932577" />
    <path
       inkscape:export-ydpi="90"
       inkscape:export-xdpi="90"
       inkscape:export-filename="/home/beast/kalzium/kalzium-beaker-with-rod.png"
       id="path2891"
       d="M 45.247823,68.844011 L 44.940613,70.089692 C 46.589791,70.579856 48.206117,70.924375 49.886696,70.958308 L 49.886696,69.668026 C 48.43866,69.6026 46.820232,69.242559 45.247823,68.844011 z "
       style="fill:url(#linearGradient2899);fill-opacity:1;fill-rule:evenodd;stroke:none;stroke-width:0.317;stroke-miterlimit:4;stroke-dasharray:none;stroke-opacity:1"
       sodipodi:nodetypes="ccccc" />
    <path
       sodipodi:nodetypes="ccsccsc"
       inkscape:export-ydpi="90"
       inkscape:export-xdpi="90"
       inkscape:export-filename="/home/beast/kalzium/kalzium-beaker-with-rod.png"
       style="fill:url(#linearGradient2901);fill-opacity:1;fill-rule:evenodd;stroke:none;stroke-width:0.317;stroke-miterlimit:4;stroke-dasharray:none;stroke-opacity:1"
       d="M 42.868267,73.312817 L 42.483748,74.493563 C 43.383908,74.810104 44.570722,75.14985 45.693568,75.406616 C 48.197601,75.979192 50.362425,76.249405 51.330584,76.232719 C 51.350532,75.882027 51.342598,75.151518 51.337467,74.884378 C 50.261887,74.806328 48.009392,74.635941 45.747902,74.118788 C 44.696526,73.878376 43.728465,73.607803 42.868267,73.312817 z "
       id="path2893"
       inkscape:transform-center-x="5.8996484"
       inkscape:transform-center-y="-0.26362326" />
    <path
       inkscape:transform-center-x="4.976959"
       id="path2895"
       d="M 45.248694,63.619682 L 45.053894,64.621618 C 45.813273,64.888652 46.68489,65.169408 47.632126,65.386016 C 49.744534,65.869042 51.570785,66.096995 52.387527,66.08292 C 52.404355,65.787074 52.397662,65.170814 52.393333,64.945454 C 51.485972,64.879611 49.58576,64.735873 47.677963,64.299601 C 46.791018,64.09679 45.97436,63.868532 45.248694,63.619682 z "
       style="fill:url(#linearGradient2903);fill-opacity:1;fill-rule:evenodd;stroke:none;stroke-width:0.317;stroke-miterlimit:4;stroke-dasharray:none;stroke-opacity:1"
       inkscape:export-filename="/home/beast/kalzium/kalzium-beaker-with-rod.png"
       inkscape:export-xdpi="90"
       inkscape:export-ydpi="90"
       sodipodi:nodetypes="ccsccsc"
       inkscape:transform-center-y="-0.22532" />
    <path
       style="opacity:1;fill:url(#radialGradient2949);fill-opacity:1;fill-rule:nonzero;stroke:none;stroke-width:0.2;stroke-linecap:round;stroke-linejoin:round;stroke-miterlimit:4;stroke-dasharray:none;stroke-dashoffset:4;stroke-opacity:1"
       d="M 75.268813,2.841014 C 74.272531,2.841014 73.456273,3.308956 73.456273,3.8855285 C 73.456273,4.1621275 73.674906,4.4051832 73.978531,4.5921119 C 73.952352,4.518139 73.917088,4.4554956 73.917088,4.3770648 C 73.917087,3.7496186 74.799044,3.2403872 75.883233,3.2403872 C 76.261765,3.2403872 76.689212,3.3018462 76.98919,3.4093528 C 76.702118,3.0524097 75.993568,2.841014 75.268813,2.841014 z "
       id="path2938"
       sodipodi:nodetypes="cscsscc" />
  </g>
</svg>
