<?xml version="1.0" encoding="UTF-8" standalone="no"?>
<!-- Created with Inkscape (http://www.inkscape.org/) -->
<svg
   xmlns:dc="http://purl.org/dc/elements/1.1/"
   xmlns:cc="http://web.resource.org/cc/"
   xmlns:rdf="http://www.w3.org/1999/02/22-rdf-syntax-ns#"
   xmlns:svg="http://www.w3.org/2000/svg"
   xmlns="http://www.w3.org/2000/svg"
   xmlns:xlink="http://www.w3.org/1999/xlink"
   xmlns:sodipodi="http://sodipodi.sourceforge.net/DTD/sodipodi-0.dtd"
   xmlns:inkscape="http://www.inkscape.org/namespaces/inkscape"
   width="128"
   height="128"
   id="svg37105"
   sodipodi:version="0.32"
   inkscape:version="0.45.1"
   version="1.0"
   sodipodi:docname="kexi.svg"
   inkscape:output_extension="org.inkscape.output.svg.inkscape"
   sodipodi:docbase="/home/pinheiro/pics/oxygen/scalable/apps"
   inkscape:export-filename="/home/pinheiro/pics/oxygen/scalable/apps/kexi.png"
   inkscape:export-xdpi="11.25"
   inkscape:export-ydpi="11.25">
  <defs
     id="defs37107">
    <linearGradient
       inkscape:collect="always"
       id="linearGradient4144">
      <stop
         style="stop-color:#000000;stop-opacity:1;"
         offset="0"
         id="stop4146" />
      <stop
         style="stop-color:#000000;stop-opacity:0;"
         offset="1"
         id="stop4148" />
    </linearGradient>
    <linearGradient
       inkscape:collect="always"
       id="linearGradient4129">
      <stop
         style="stop-color:#000000;stop-opacity:1;"
         offset="0"
         id="stop4131" />
      <stop
         style="stop-color:#000000;stop-opacity:0;"
         offset="1"
         id="stop4133" />
    </linearGradient>
    <linearGradient
       id="linearGradient3752">
      <stop
         style="stop-color:#000000;stop-opacity:1;"
         offset="0"
         id="stop3754" />
      <stop
         style="stop-color:#000000;stop-opacity:0;"
         offset="1"
         id="stop3756" />
    </linearGradient>
    <filter
       id="filter3514"
       inkscape:collect="always">
      <feGaussianBlur
         id="feGaussianBlur3516"
         stdDeviation="4.19576"
         inkscape:collect="always" />
    </filter>
    <filter
       id="filter3480"
       inkscape:collect="always">
      <feGaussianBlur
         id="feGaussianBlur3482"
         stdDeviation="4.7167893"
         inkscape:collect="always" />
    </filter>
    <filter
       id="filter3275"
       inkscape:collect="always">
      <feGaussianBlur
         id="feGaussianBlur3277"
         stdDeviation="5.6853481"
         inkscape:collect="always" />
    </filter>
    <linearGradient
       id="linearGradient3152">
      <stop
         id="stop3154"
         offset="0"
         style="stop-color:#a2a2a2;stop-opacity:1;" />
      <stop
         style="stop-color:#b7b7b7;stop-opacity:1;"
         offset="0.27766603"
         id="stop3166" />
      <stop
         style="stop-color:#f2f2f2;stop-opacity:1;"
         offset="0.34831479"
         id="stop3160" />
      <stop
         id="stop3162"
         offset="0.69134921"
         style="stop-color:#858585;stop-opacity:1;" />
      <stop
         style="stop-color:#8f8f8f;stop-opacity:1;"
         offset="0.76705599"
         id="stop3164" />
      <stop
         id="stop3182"
         offset="0.84946543"
         style="stop-color:#a4a4a4;stop-opacity:1;" />
      <stop
         id="stop3178"
         offset="0.88352799"
         style="stop-color:#757575;stop-opacity:1;" />
      <stop
         style="stop-color:#989898;stop-opacity:1;"
         offset="0.912646"
         id="stop3180" />
      <stop
         id="stop3156"
         offset="1"
         style="stop-color:#acacac;stop-opacity:1;" />
    </linearGradient>
    <linearGradient
       id="linearGradient3184">
      <stop
         id="stop3186"
         offset="0"
         style="stop-color:#fcfcfc;stop-opacity:1;" />
      <stop
         id="stop3188"
         offset="1"
         style="stop-color:#c0c0c0;stop-opacity:1;" />
    </linearGradient>
    <linearGradient
       id="linearGradient3220"
       inkscape:collect="always">
      <stop
         id="stop3222"
         offset="0"
         style="stop-color:#ffffff;stop-opacity:1;" />
      <stop
         id="stop3224"
         offset="1"
         style="stop-color:#ffffff;stop-opacity:0;" />
    </linearGradient>
    <linearGradient
       id="linearGradient3285"
       inkscape:collect="always">
      <stop
         id="stop3287"
         offset="0"
         style="stop-color:#474747;stop-opacity:1;" />
      <stop
         id="stop3289"
         offset="1"
         style="stop-color:#474747;stop-opacity:0;" />
    </linearGradient>
    <linearGradient
       id="linearGradient3452"
       inkscape:collect="always">
      <stop
         id="stop3454"
         offset="0"
         style="stop-color:#ffffff;stop-opacity:1;" />
      <stop
         id="stop3456"
         offset="1"
         style="stop-color:#ffffff;stop-opacity:0;" />
    </linearGradient>
    <filter
       inkscape:collect="always"
       id="filter3748">
      <feGaussianBlur
         inkscape:collect="always"
         stdDeviation="0.94685189"
         id="feGaussianBlur3750" />
    </filter>
    <linearGradient
       inkscape:collect="always"
       xlink:href="#linearGradient3752"
       id="linearGradient3962"
       gradientUnits="userSpaceOnUse"
       gradientTransform="translate(-0.1334096,2.952418e-3)"
       x1="67.593292"
       y1="25.671875"
       x2="77.093292"
       y2="193.13844" />
    <linearGradient
       inkscape:collect="always"
       xlink:href="#linearGradient3184"
       id="linearGradient3964"
       gradientUnits="userSpaceOnUse"
       spreadMethod="reflect"
       x1="341.5318"
       y1="528.58008"
       x2="341.5318"
       y2="700.07751" />
    <radialGradient
       inkscape:collect="always"
       xlink:href="#linearGradient3152"
       id="radialGradient3966"
       gradientUnits="userSpaceOnUse"
       gradientTransform="matrix(1.0000001,0,0,0.7898656,-515.84706,106.14197)"
       cx="902.44019"
       cy="573.33636"
       fx="902.44019"
       fy="777.67505"
       r="252.67185" />
    <radialGradient
       inkscape:collect="always"
       xlink:href="#linearGradient3220"
       id="radialGradient3968"
       gradientUnits="userSpaceOnUse"
       gradientTransform="matrix(1.7097296,6.4528328e-2,-5.2167868e-2,0.9870304,-1209.4918,-86.255073)"
       cx="949.625"
       cy="517.85107"
       fx="942.22406"
       fy="440.14154"
       r="119.39729" />
    <radialGradient
       inkscape:collect="always"
       xlink:href="#linearGradient3452"
       id="radialGradient3970"
       gradientUnits="userSpaceOnUse"
       gradientTransform="matrix(1.4615497,0,0,0.7922186,-1517.0981,316.29645)"
       cx="1302.5156"
       cy="396.677"
       fx="1302.5156"
       fy="396.677"
       r="252.67185" />
    <linearGradient
       inkscape:collect="always"
       xlink:href="#linearGradient3285"
       id="linearGradient3972"
       gradientUnits="userSpaceOnUse"
       x1="1228.4824"
       y1="349.26135"
       x2="1228.4824"
       y2="687.31006" />
    <linearGradient
       inkscape:collect="always"
       xlink:href="#linearGradient3184"
       id="linearGradient3974"
       gradientUnits="userSpaceOnUse"
       spreadMethod="reflect"
       x1="341.5318"
       y1="528.58008"
       x2="341.5318"
       y2="700.07751" />
    <radialGradient
       inkscape:collect="always"
       xlink:href="#linearGradient3152"
       id="radialGradient3976"
       gradientUnits="userSpaceOnUse"
       gradientTransform="matrix(1.0000001,0,0,0.7898656,-515.84706,106.14197)"
       cx="902.44019"
       cy="573.33636"
       fx="902.44019"
       fy="777.67505"
       r="252.67185" />
    <radialGradient
       inkscape:collect="always"
       xlink:href="#linearGradient3220"
       id="radialGradient3978"
       gradientUnits="userSpaceOnUse"
       gradientTransform="matrix(1.7097296,6.4528328e-2,-5.2167868e-2,0.9870304,-1209.4918,-86.255073)"
       cx="949.625"
       cy="517.85107"
       fx="942.22406"
       fy="440.14154"
       r="119.39729" />
    <radialGradient
       inkscape:collect="always"
       xlink:href="#linearGradient3452"
       id="radialGradient3980"
       gradientUnits="userSpaceOnUse"
       gradientTransform="matrix(1.4615497,0,0,0.7922186,-1517.0981,316.29645)"
       cx="1302.5156"
       cy="396.677"
       fx="1302.5156"
       fy="396.677"
       r="252.67185" />
    <linearGradient
       inkscape:collect="always"
       xlink:href="#linearGradient3285"
       id="linearGradient3982"
       gradientUnits="userSpaceOnUse"
       x1="1228.4824"
       y1="349.26135"
       x2="1228.4824"
       y2="687.31006" />
    <linearGradient
       inkscape:collect="always"
       xlink:href="#linearGradient3184"
       id="linearGradient3984"
       gradientUnits="userSpaceOnUse"
       spreadMethod="reflect"
       x1="341.5318"
       y1="528.58008"
       x2="341.5318"
       y2="700.07751" />
    <radialGradient
       inkscape:collect="always"
       xlink:href="#linearGradient3152"
       id="radialGradient3986"
       gradientUnits="userSpaceOnUse"
       gradientTransform="matrix(1.0000001,0,0,0.7898656,-515.84706,106.14197)"
       cx="902.44019"
       cy="573.33636"
       fx="902.44019"
       fy="777.67505"
       r="252.67185" />
    <radialGradient
       inkscape:collect="always"
       xlink:href="#linearGradient3220"
       id="radialGradient3988"
       gradientUnits="userSpaceOnUse"
       gradientTransform="matrix(1.7097296,6.4528328e-2,-5.2167868e-2,0.9870304,-1209.4918,-86.255073)"
       cx="949.33209"
       cy="517.87024"
       fx="941.93115"
       fy="440.16125"
       r="119.39729" />
    <radialGradient
       inkscape:collect="always"
       xlink:href="#linearGradient3452"
       id="radialGradient3990"
       gradientUnits="userSpaceOnUse"
       gradientTransform="matrix(1.4615497,0,0,0.7922186,-1517.0981,316.29645)"
       cx="1302.5156"
       cy="396.677"
       fx="1302.5156"
       fy="396.677"
       r="252.67185" />
    <linearGradient
       inkscape:collect="always"
       xlink:href="#linearGradient3285"
       id="linearGradient3992"
       gradientUnits="userSpaceOnUse"
       x1="1228.4824"
       y1="349.26135"
       x2="1228.4824"
       y2="687.31006" />
    <linearGradient
       inkscape:collect="always"
       xlink:href="#linearGradient3184"
       id="linearGradient3994"
       gradientUnits="userSpaceOnUse"
       spreadMethod="reflect"
       x1="341.5318"
       y1="528.58008"
       x2="341.5318"
       y2="700.07751" />
    <radialGradient
       inkscape:collect="always"
       xlink:href="#linearGradient3152"
       id="radialGradient3996"
       gradientUnits="userSpaceOnUse"
       gradientTransform="matrix(1.0000001,0,0,0.7898656,-515.84706,106.14197)"
       cx="902.44019"
       cy="573.33636"
       fx="902.44019"
       fy="777.67505"
       r="252.67185" />
    <radialGradient
       inkscape:collect="always"
       xlink:href="#linearGradient3220"
       id="radialGradient3998"
       gradientUnits="userSpaceOnUse"
       gradientTransform="matrix(1.7097296,6.4528328e-2,-5.2167868e-2,0.9870304,-1209.4918,-86.255073)"
       cx="949.33209"
       cy="517.87024"
       fx="941.93115"
       fy="440.16125"
       r="119.39729" />
    <radialGradient
       inkscape:collect="always"
       xlink:href="#linearGradient3452"
       id="radialGradient4000"
       gradientUnits="userSpaceOnUse"
       gradientTransform="matrix(1.4615497,0,0,0.7922186,-1517.0981,316.29645)"
       cx="1302.5156"
       cy="396.677"
       fx="1302.5156"
       fy="396.677"
       r="252.67185" />
    <linearGradient
       inkscape:collect="always"
       xlink:href="#linearGradient3285"
       id="linearGradient4002"
       gradientUnits="userSpaceOnUse"
       x1="1228.4824"
       y1="349.26135"
       x2="1228.4824"
       y2="687.31006" />
    <linearGradient
       inkscape:collect="always"
       xlink:href="#linearGradient4129"
       id="linearGradient4135"
       x1="183.82497"
       y1="128.7849"
       x2="184.21759"
       y2="191.71741"
       gradientUnits="userSpaceOnUse"
       gradientTransform="matrix(0.925475,0,0,0.925475,-112.47442,-127.14501)" />
    <linearGradient
       inkscape:collect="always"
       xlink:href="#linearGradient4144"
       id="linearGradient4150"
       x1="40.752522"
       y1="-160.69528"
       x2="51.394039"
       y2="71.328323"
       gradientUnits="userSpaceOnUse" />
  </defs>
  <sodipodi:namedview
     id="base"
     pagecolor="#ffffff"
     bordercolor="#666666"
     borderopacity="1.0"
     inkscape:pageopacity="0.0"
     inkscape:pageshadow="2"
     inkscape:zoom="0.25000001"
     inkscape:cx="-391.35333"
     inkscape:cy="16.400522"
     inkscape:document-units="px"
     inkscape:current-layer="layer1"
     height="128px"
     width="128px"
     inkscape:window-width="1191"
     inkscape:window-height="716"
     inkscape:window-x="320"
     inkscape:window-y="104"
     gridspacingy="4px"
     gridspacingx="4px"
     showgrid="false"
     showguides="true"
     inkscape:guide-bbox="true">
    <sodipodi:guide
       orientation="vertical"
       position="24.5"
       id="guide4182" />
  </sodipodi:namedview>
  <metadata
     id="metadata37110">
    <rdf:RDF>
      <cc:Work
         rdf:about="">
        <dc:format>image/svg+xml</dc:format>
        <dc:type
           rdf:resource="http://purl.org/dc/dcmitype/StillImage" />
      </cc:Work>
    </rdf:RDF>
  </metadata>
  <g
     inkscape:label="Livello 1"
     inkscape:groupmode="layer"
     id="layer1">
    <g
       id="g3930"
       transform="matrix(1.1203171,0,0,1.1104491,-14.185675,-16.102254)">
      <path
         transform="matrix(1.4145567,0,0,1.3959364,-46.613408,-49.954347)"
         id="path2560"
         d="M 82.30409,50.190452 C 62.7982,50.190452 46.96033,58.093756 46.96034,67.846702 C 46.96034,67.878193 46.96001,67.908999 46.96034,67.940452 C 46.95944,67.960794 46.96108,67.982593 46.96034,68.002952 C 46.96104,68.044491 46.95906,68.086481 46.96034,68.127952 L 46.96034,68.221702 C 46.96017,68.242155 46.96034,68.263731 46.96034,68.284202 C 46.96034,68.588982 46.96104,68.889446 46.99159,69.190452 L 47.08534,74.690452 C 47.01215,75.154459 46.96034,75.623343 46.96034,76.096702 C 46.96034,76.559854 47.01524,77.017488 47.08534,77.471702 C 47.01524,77.925916 46.96034,78.38355 46.96034,78.846702 C 46.96034,78.878193 46.96001,78.908999 46.96034,78.940452 C 46.95947,78.961415 46.96104,78.981971 46.96034,79.002952 C 46.96107,79.04596 46.959,79.085018 46.96034,79.127952 L 46.96034,79.190452 C 46.96016,79.21152 46.96034,79.231866 46.96034,79.252952 C 46.96034,79.557732 46.96104,79.858196 46.99159,80.159202 L 47.08534,85.690452 C 47.01215,86.154459 46.96034,86.623343 46.96034,87.096702 C 46.96034,87.554813 47.01674,87.991079 47.08534,88.440452 C 47.01524,88.894666 46.96034,89.3523 46.96034,89.815452 C 46.96034,89.846943 46.96001,89.877749 46.96034,89.909202 C 46.95944,89.929544 46.96108,89.951343 46.96034,89.971702 C 46.96104,90.013241 46.95906,90.055231 46.96034,90.096702 L 46.96034,90.190452 C 46.96017,90.210905 46.96034,90.232481 46.96034,90.252952 C 46.96034,90.557732 46.96104,90.858195 46.99159,91.159202 L 47.08534,96.659202 C 47.01215,97.123209 46.96034,97.592093 46.96034,98.065452 C 46.96034,98.433229 46.97847,98.796977 47.02284,99.159202 C 46.97847,99.521427 46.96034,99.885175 46.96034,100.25295 C 46.96034,100.28444 46.96001,100.31525 46.96034,100.3467 C 46.95947,100.36766 46.96104,100.38822 46.96034,100.4092 C 46.96104,100.45074 46.95906,100.49273 46.96034,100.5342 L 46.96034,100.5967 C 46.96016,100.61777 46.96034,100.63811 46.96034,100.6592 C 46.96034,100.96398 46.96104,101.29569 46.99159,101.5967 L 47.08534,107.0967 C 47.01215,107.56071 46.96034,108.02959 46.96034,108.50295 C 46.96034,118.2559 62.79819,126.1592 82.30409,126.1592 C 101.80998,126.1592 117.6166,118.2559 117.61659,108.50295 C 117.61659,107.98763 117.57819,107.47586 117.49159,106.9717 L 117.58534,101.5967 C 117.61588,101.29569 117.61659,100.96398 117.61659,100.6592 C 117.61659,100.60648 117.61755,100.55555 117.61659,100.50295 C 117.61893,100.41925 117.61659,100.33693 117.61659,100.25295 C 117.61659,99.884869 117.59853,99.521723 117.55409,99.159202 C 117.59853,98.796681 117.61659,98.433535 117.61659,98.065452 C 117.61659,97.550136 117.57819,97.038362 117.49159,96.534202 L 117.58534,91.159202 C 117.61588,90.858196 117.61659,90.557732 117.61659,90.252952 C 117.61659,90.201776 117.61749,90.147771 117.61659,90.096702 C 117.61955,90.002578 117.61659,89.909926 117.61659,89.815452 C 117.61659,89.353126 117.59269,88.893872 117.52284,88.440452 C 117.59116,87.991984 117.61659,87.553871 117.61659,87.096702 C 117.61659,86.581386 117.57819,86.069612 117.49159,85.565452 L 117.58534,80.159202 C 117.61588,79.858196 117.61659,79.557732 117.61659,79.252952 C 117.61659,79.200235 117.61755,79.149305 117.61659,79.096702 C 117.61893,79.013001 117.61659,78.930679 117.61659,78.846702 C 117.61659,78.384376 117.59269,77.925122 117.52284,77.471702 C 117.59269,77.018282 117.61659,76.559028 117.61659,76.096702 C 117.61659,75.581386 117.57819,75.069612 117.49159,74.565452 L 117.58534,69.190452 C 117.61588,68.889446 117.61659,68.588982 117.61659,68.284202 C 117.61659,68.233025 117.61749,68.179021 117.61659,68.127952 C 117.61955,68.033828 117.61659,67.941176 117.61659,67.846702 C 117.61659,58.093755 101.80998,50.190451 82.30409,50.190452 z "
         style="fill:url(#linearGradient3962);fill-opacity:1;stroke:none;stroke-width:1.125;stroke-linecap:round;stroke-linejoin:round;stroke-miterlimit:4;stroke-dasharray:none;stroke-dashoffset:1.08779998;stroke-opacity:1;filter:url(#filter3748)" />
      <g
         clip-path="none"
         transform="matrix(0.1978243,0,0,0.1978243,-5.1350142,6.1101815)"
         id="g4229">
        <g
           transform="translate(-7.8536398,-102.09733)"
           id="g3518">
          <path
             sodipodi:type="arc"
             style="opacity:1;fill:#7a7a7a;fill-opacity:1;stroke:none;stroke-width:1.125;stroke-linecap:round;stroke-linejoin:round;stroke-miterlimit:4;stroke-dasharray:none;stroke-dashoffset:1.08779998;stroke-opacity:1;filter:url(#filter3514)"
             id="path3490"
             sodipodi:cx="341.5318"
             sodipodi:cy="637.24835"
             sodipodi:rx="252.67799"
             sodipodi:ry="126.339"
             d="M 594.20979 637.24835 A 252.67799 126.339 0 1 1  88.853806,637.24835 A 252.67799 126.339 0 1 1  594.20979 637.24835 z"
             transform="translate(45.061429,-54.602901)" />
          <path
             transform="translate(45.061429,-113.57703)"
             d="M 594.20979 637.24835 A 252.67799 126.339 0 1 1  88.853806,637.24835 A 252.67799 126.339 0 1 1  594.20979 637.24835 z"
             sodipodi:ry="126.339"
             sodipodi:rx="252.67799"
             sodipodi:cy="637.24835"
             sodipodi:cx="341.5318"
             id="path2161"
             style="opacity:1;fill:url(#linearGradient3964);fill-opacity:1;stroke:none;stroke-width:1.125;stroke-linecap:round;stroke-linejoin:round;stroke-miterlimit:4;stroke-dasharray:none;stroke-dashoffset:1.08779998;stroke-opacity:1"
             sodipodi:type="arc" />
          <path
             style="opacity:1;fill:url(#radialGradient3966);fill-opacity:1;stroke:none;stroke-width:1.125;stroke-linecap:round;stroke-linejoin:round;stroke-miterlimit:4;stroke-dasharray:none;stroke-dashoffset:1.08779998;stroke-opacity:1"
             d="M 639.26508,523.65926 C 639.26508,593.39836 526.05588,650.00301 386.57768,650.00301 C 247.82578,650.00299 135.09208,593.99158 133.92138,524.75301 L 134.92138,575.00301 C 134.92138,644.74214 247.13058,701.34677 386.60898,701.34676 C 526.08718,701.34676 638.26508,644.74214 638.26508,575.00301 L 639.26508,523.65926 z "
             id="path2168"
             sodipodi:nodetypes="csccscc" />
          <path
             style="fill:url(#radialGradient3968);fill-opacity:1;stroke:none;stroke-width:2.5999999;stroke-linecap:round;stroke-linejoin:round;stroke-miterlimit:4;stroke-dashoffset:1.08779998;stroke-opacity:1;filter:url(#filter3275)"
             d="M 566.27727,486.15744 C 579.07697,526.52416 502.66377,561.86523 387.09487,561.86523 C 265.94097,561.86523 190.88237,525.39212 207.91257,486.15744 C 230.12597,434.98116 310.39967,410.44965 387.09487,410.44965 C 461.01347,410.44965 551.85327,440.66801 566.27727,486.15744 z "
             id="path3210"
             sodipodi:nodetypes="csszs" />
          <path
             style="opacity:1;fill:url(#radialGradient3970);fill-opacity:1;stroke:none;stroke-width:1.125;stroke-linecap:round;stroke-linejoin:round;stroke-miterlimit:4;stroke-dasharray:none;stroke-dashoffset:1.08779998;stroke-opacity:1;filter:url(#filter3480)"
             d="M 134.39008,519.23381 C 134.10378,521.69514 133.92128,524.1743 133.92138,526.67131 C 133.92138,596.41044 247.13058,653.01505 386.60878,653.01506 C 526.08708,653.01506 639.26508,596.41043 639.26508,526.67131 C 639.26508,524.1743 639.11388,521.69514 638.82758,519.23381 C 631.11908,585.51499 521.09308,638.14006 386.60878,638.14006 C 252.12458,638.14006 142.09858,585.51499 134.39008,519.23381 z "
             id="path3443" />
          <path
             id="path3484"
             d="M 1050.3125,441.16063 C 1050.0262,443.62196 1049.8437,446.10112 1049.8438,448.59813 C 1049.8438,518.33726 1163.053,574.94187 1302.5312,574.94188 C 1442.0095,574.94188 1555.1875,518.33725 1555.1875,448.59813 C 1555.1875,446.10112 1555.0363,443.62196 1554.75,441.16063 C 1547.0415,507.44181 1437.0155,566.06688 1302.5312,566.06688 C 1168.047,566.06688 1058.021,507.44181 1050.3125,441.16063 z "
             style="opacity:0.50553505;fill:url(#linearGradient3972);fill-opacity:1;stroke:none;stroke-width:1.125;stroke-linecap:round;stroke-linejoin:round;stroke-miterlimit:4;stroke-dasharray:none;stroke-dashoffset:1.08779998;stroke-opacity:1;filter:url(#filter3480)"
             sodipodi:nodetypes="cssscsc"
             transform="matrix(0.9792446,0,0,0.9792446,-888.88819,80.200032)" />
        </g>
        <g
           transform="translate(-7.8536398,-176.70692)"
           id="g3526">
          <path
             transform="translate(45.061429,-54.602901)"
             d="M 594.20979 637.24835 A 252.67799 126.339 0 1 1  88.853806,637.24835 A 252.67799 126.339 0 1 1  594.20979 637.24835 z"
             sodipodi:ry="126.339"
             sodipodi:rx="252.67799"
             sodipodi:cy="637.24835"
             sodipodi:cx="341.5318"
             id="path3528"
             style="opacity:1;fill:#7a7a7a;fill-opacity:1;stroke:none;stroke-width:1.125;stroke-linecap:round;stroke-linejoin:round;stroke-miterlimit:4;stroke-dasharray:none;stroke-dashoffset:1.08779998;stroke-opacity:1;filter:url(#filter3514)"
             sodipodi:type="arc" />
          <path
             sodipodi:type="arc"
             style="opacity:1;fill:url(#linearGradient3974);fill-opacity:1;stroke:none;stroke-width:1.125;stroke-linecap:round;stroke-linejoin:round;stroke-miterlimit:4;stroke-dasharray:none;stroke-dashoffset:1.08779998;stroke-opacity:1"
             id="path3530"
             sodipodi:cx="341.5318"
             sodipodi:cy="637.24835"
             sodipodi:rx="252.67799"
             sodipodi:ry="126.339"
             d="M 594.20979 637.24835 A 252.67799 126.339 0 1 1  88.853806,637.24835 A 252.67799 126.339 0 1 1  594.20979 637.24835 z"
             transform="translate(45.061429,-113.57703)" />
          <path
             sodipodi:nodetypes="csccscc"
             id="path3532"
             d="M 639.26508,523.65926 C 639.26508,593.39836 526.05588,650.00301 386.57768,650.00301 C 247.82578,650.00299 135.09208,593.99158 133.92138,524.75301 L 134.92138,575.00301 C 134.92138,644.74214 247.13058,701.34677 386.60898,701.34676 C 526.08718,701.34676 638.26508,644.74214 638.26508,575.00301 L 639.26508,523.65926 z "
             style="opacity:1;fill:url(#radialGradient3976);fill-opacity:1;stroke:none;stroke-width:1.125;stroke-linecap:round;stroke-linejoin:round;stroke-miterlimit:4;stroke-dasharray:none;stroke-dashoffset:1.08779998;stroke-opacity:1" />
          <path
             sodipodi:nodetypes="csszs"
             id="path3534"
             d="M 566.27727,486.15744 C 579.07697,526.52416 502.66377,561.86523 387.09487,561.86523 C 265.94097,561.86523 190.88237,525.39212 207.91257,486.15744 C 230.12597,434.98116 310.39967,410.44965 387.09487,410.44965 C 461.01347,410.44965 551.85327,440.66801 566.27727,486.15744 z "
             style="fill:url(#radialGradient3978);fill-opacity:1;stroke:none;stroke-width:2.5999999;stroke-linecap:round;stroke-linejoin:round;stroke-miterlimit:4;stroke-dashoffset:1.08779998;stroke-opacity:1;filter:url(#filter3275)" />
          <path
             id="path3536"
             d="M 134.39008,519.23381 C 134.10378,521.69514 133.92128,524.1743 133.92138,526.67131 C 133.92138,596.41044 247.13058,653.01505 386.60878,653.01506 C 526.08708,653.01506 639.26508,596.41043 639.26508,526.67131 C 639.26508,524.1743 639.11388,521.69514 638.82758,519.23381 C 631.11908,585.51499 521.09308,638.14006 386.60878,638.14006 C 252.12458,638.14006 142.09858,585.51499 134.39008,519.23381 z "
             style="opacity:1;fill:url(#radialGradient3980);fill-opacity:1;stroke:none;stroke-width:1.125;stroke-linecap:round;stroke-linejoin:round;stroke-miterlimit:4;stroke-dasharray:none;stroke-dashoffset:1.08779998;stroke-opacity:1;filter:url(#filter3480)" />
          <path
             transform="matrix(0.9792446,0,0,0.9792446,-888.88819,80.200032)"
             sodipodi:nodetypes="cssscsc"
             style="opacity:0.50553505;fill:url(#linearGradient3982);fill-opacity:1;stroke:none;stroke-width:1.125;stroke-linecap:round;stroke-linejoin:round;stroke-miterlimit:4;stroke-dasharray:none;stroke-dashoffset:1.08779998;stroke-opacity:1;filter:url(#filter3480)"
             d="M 1050.3125,441.16063 C 1050.0262,443.62196 1049.8437,446.10112 1049.8438,448.59813 C 1049.8438,518.33726 1163.053,574.94187 1302.5312,574.94188 C 1442.0095,574.94188 1555.1875,518.33725 1555.1875,448.59813 C 1555.1875,446.10112 1555.0363,443.62196 1554.75,441.16063 C 1547.0415,507.44181 1437.0155,566.06688 1302.5312,566.06688 C 1168.047,566.06688 1058.021,507.44181 1050.3125,441.16063 z "
             id="path3538" />
        </g>
        <g
           id="g3550"
           transform="translate(-7.8536398,-255.24332)">
          <path
             sodipodi:type="arc"
             style="opacity:1;fill:#7a7a7a;fill-opacity:1;stroke:none;stroke-width:1.125;stroke-linecap:round;stroke-linejoin:round;stroke-miterlimit:4;stroke-dasharray:none;stroke-dashoffset:1.08779998;stroke-opacity:1;filter:url(#filter3514)"
             id="path3552"
             sodipodi:cx="341.5318"
             sodipodi:cy="637.24835"
             sodipodi:rx="252.67799"
             sodipodi:ry="126.339"
             d="M 594.20979 637.24835 A 252.67799 126.339 0 1 1  88.853806,637.24835 A 252.67799 126.339 0 1 1  594.20979 637.24835 z"
             transform="translate(45.061429,-54.602901)" />
          <path
             transform="translate(45.061429,-113.57703)"
             d="M 594.20979 637.24835 A 252.67799 126.339 0 1 1  88.853806,637.24835 A 252.67799 126.339 0 1 1  594.20979 637.24835 z"
             sodipodi:ry="126.339"
             sodipodi:rx="252.67799"
             sodipodi:cy="637.24835"
             sodipodi:cx="341.5318"
             id="path3554"
             style="opacity:1;fill:url(#linearGradient3984);fill-opacity:1;stroke:none;stroke-width:1.125;stroke-linecap:round;stroke-linejoin:round;stroke-miterlimit:4;stroke-dasharray:none;stroke-dashoffset:1.08779998;stroke-opacity:1"
             sodipodi:type="arc" />
          <path
             style="opacity:1;fill:url(#radialGradient3986);fill-opacity:1;stroke:none;stroke-width:1.125;stroke-linecap:round;stroke-linejoin:round;stroke-miterlimit:4;stroke-dasharray:none;stroke-dashoffset:1.08779998;stroke-opacity:1"
             d="M 639.26508,523.65926 C 639.26508,593.39836 526.05588,650.00301 386.57768,650.00301 C 247.82578,650.00299 135.09208,593.99158 133.92138,524.75301 L 134.92138,575.00301 C 134.92138,644.74214 247.13058,701.34677 386.60898,701.34676 C 526.08718,701.34676 638.26508,644.74214 638.26508,575.00301 L 639.26508,523.65926 z "
             id="path3556"
             sodipodi:nodetypes="csccscc" />
          <path
             style="fill:url(#radialGradient3988);fill-opacity:1;stroke:none;stroke-width:2.5999999;stroke-linecap:round;stroke-linejoin:round;stroke-miterlimit:4;stroke-dashoffset:1.08779998;stroke-opacity:1"
             d="M 566.27727,486.15744 C 579.07697,526.52416 502.66377,561.86523 387.09487,561.86523 C 265.94097,561.86523 190.88237,525.39212 207.91257,486.15744 C 230.12597,434.98116 310.39967,410.44965 387.09487,410.44965 C 461.01347,410.44965 551.85327,440.66801 566.27727,486.15744 z "
             id="path3558"
             sodipodi:nodetypes="csszs" />
          <path
             style="opacity:1;fill:url(#radialGradient3990);fill-opacity:1;stroke:none;stroke-width:1.125;stroke-linecap:round;stroke-linejoin:round;stroke-miterlimit:4;stroke-dasharray:none;stroke-dashoffset:1.08779998;stroke-opacity:1;filter:url(#filter3480)"
             d="M 134.39008,519.23381 C 134.10378,521.69514 133.92128,524.1743 133.92138,526.67131 C 133.92138,596.41044 247.13058,653.01505 386.60878,653.01506 C 526.08708,653.01506 639.26508,596.41043 639.26508,526.67131 C 639.26508,524.1743 639.11388,521.69514 638.82758,519.23381 C 631.11908,585.51499 521.09308,638.14006 386.60878,638.14006 C 252.12458,638.14006 142.09858,585.51499 134.39008,519.23381 z "
             id="path3560" />
          <path
             id="path3562"
             d="M 1050.3125,441.16063 C 1050.0262,443.62196 1049.8437,446.10112 1049.8438,448.59813 C 1049.8438,518.33726 1163.053,574.94187 1302.5312,574.94188 C 1442.0095,574.94188 1555.1875,518.33725 1555.1875,448.59813 C 1555.1875,446.10112 1555.0363,443.62196 1554.75,441.16063 C 1547.0415,507.44181 1437.0155,566.06688 1302.5312,566.06688 C 1168.047,566.06688 1058.021,507.44181 1050.3125,441.16063 z "
             style="opacity:0.50553505;fill:url(#linearGradient3992);fill-opacity:1;stroke:none;stroke-width:1.125;stroke-linecap:round;stroke-linejoin:round;stroke-miterlimit:4;stroke-dasharray:none;stroke-dashoffset:1.08779998;stroke-opacity:1;filter:url(#filter3480)"
             sodipodi:nodetypes="cssscsc"
             transform="matrix(0.9792446,0,0,0.9792446,-888.88819,80.200032)" />
        </g>
        <g
           transform="translate(-7.8536398,-333.77972)"
           id="g3588">
          <path
             transform="translate(45.061429,-54.602901)"
             d="M 594.20979 637.24835 A 252.67799 126.339 0 1 1  88.853806,637.24835 A 252.67799 126.339 0 1 1  594.20979 637.24835 z"
             sodipodi:ry="126.339"
             sodipodi:rx="252.67799"
             sodipodi:cy="637.24835"
             sodipodi:cx="341.5318"
             id="path3590"
             style="opacity:1;fill:#7a7a7a;fill-opacity:1;stroke:none;stroke-width:1.125;stroke-linecap:round;stroke-linejoin:round;stroke-miterlimit:4;stroke-dasharray:none;stroke-dashoffset:1.08779998;stroke-opacity:1;filter:url(#filter3514)"
             sodipodi:type="arc" />
          <path
             sodipodi:type="arc"
             style="opacity:1;fill:url(#linearGradient3994);fill-opacity:1;stroke:none;stroke-width:1.125;stroke-linecap:round;stroke-linejoin:round;stroke-miterlimit:4;stroke-dasharray:none;stroke-dashoffset:1.08779998;stroke-opacity:1"
             id="path3592"
             sodipodi:cx="341.5318"
             sodipodi:cy="637.24835"
             sodipodi:rx="252.67799"
             sodipodi:ry="126.339"
             d="M 594.20979 637.24835 A 252.67799 126.339 0 1 1  88.853806,637.24835 A 252.67799 126.339 0 1 1  594.20979 637.24835 z"
             transform="translate(45.061429,-113.57703)" />
          <path
             sodipodi:nodetypes="csccscc"
             id="path3594"
             d="M 639.26508,523.65926 C 639.26508,593.39836 526.05588,650.00301 386.57768,650.00301 C 247.82578,650.00299 135.09208,593.99158 133.92138,524.75301 L 134.92138,575.00301 C 134.92138,644.74214 247.13058,701.34677 386.60898,701.34676 C 526.08718,701.34676 638.26508,644.74214 638.26508,575.00301 L 639.26508,523.65926 z "
             style="opacity:1;fill:url(#radialGradient3996);fill-opacity:1;stroke:none;stroke-width:1.125;stroke-linecap:round;stroke-linejoin:round;stroke-miterlimit:4;stroke-dasharray:none;stroke-dashoffset:1.08779998;stroke-opacity:1" />
          <path
             sodipodi:nodetypes="csszs"
             id="path3596"
             d="M 566.27727,486.15744 C 579.07697,526.52416 502.66377,561.86523 387.09487,561.86523 C 265.94097,561.86523 190.88237,525.39212 207.91257,486.15744 C 230.12597,434.98116 310.39967,410.44965 387.09487,410.44965 C 461.01347,410.44965 551.85327,440.66801 566.27727,486.15744 z "
             style="fill:url(#radialGradient3998);fill-opacity:1;stroke:none;stroke-width:2.5999999;stroke-linecap:round;stroke-linejoin:round;stroke-miterlimit:4;stroke-dashoffset:1.08779998;stroke-opacity:1" />
          <path
             id="path3598"
             d="M 134.39008,519.23381 C 134.10378,521.69514 133.92128,524.1743 133.92138,526.67131 C 133.92138,596.41044 247.13058,653.01505 386.60878,653.01506 C 526.08708,653.01506 639.26508,596.41043 639.26508,526.67131 C 639.26508,524.1743 639.11388,521.69514 638.82758,519.23381 C 631.11908,585.51499 521.09308,638.14006 386.60878,638.14006 C 252.12458,638.14006 142.09858,585.51499 134.39008,519.23381 z "
             style="opacity:1;fill:url(#radialGradient4000);fill-opacity:1;stroke:none;stroke-width:1.125;stroke-linecap:round;stroke-linejoin:round;stroke-miterlimit:4;stroke-dasharray:none;stroke-dashoffset:1.08779998;stroke-opacity:1;filter:url(#filter3480)" />
          <path
             transform="matrix(0.9792446,0,0,0.9792446,-888.88819,80.200032)"
             sodipodi:nodetypes="cssscsc"
             style="opacity:0.50553505;fill:url(#linearGradient4002);fill-opacity:1;stroke:none;stroke-width:1.125;stroke-linecap:round;stroke-linejoin:round;stroke-miterlimit:4;stroke-dasharray:none;stroke-dashoffset:1.08779998;stroke-opacity:1;filter:url(#filter3480)"
             d="M 1050.3125,441.16063 C 1050.0262,443.62196 1049.8437,446.10112 1049.8438,448.59813 C 1049.8438,518.33726 1163.053,574.94187 1302.5312,574.94188 C 1442.0095,574.94188 1555.1875,518.33725 1555.1875,448.59813 C 1555.1875,446.10112 1555.0363,443.62196 1554.75,441.16063 C 1547.0415,507.44181 1437.0155,566.06688 1302.5312,566.06688 C 1168.047,566.06688 1058.021,507.44181 1050.3125,441.16063 z "
             id="path3600" />
        </g>
      </g>
    </g>
    <g
       id="g4139"
       transform="matrix(0.9628459,0,0,0.8228423,3.7304452,6.0548266)"
       style="opacity:0.501845">
      <path
         id="path4112"
         d="M 63.481516,6.2390771 C 62.653429,6.2350327 61.852799,6.2398267 61.312435,6.2679982 L 59.3458,6.3547614 L 58.593852,7.714053 C 58.17948,8.4497031 57.721175,9.0811643 57.552692,9.1311864 C 57.3842,9.1812172 56.436337,9.3426661 55.470374,9.5071602 C 54.504418,9.6716445 53.200656,9.952268 52.578264,10.114503 C 50.987992,10.529024 50.794836,10.50608 48.384706,9.6228448 L 46.244543,8.8419753 L 44.306832,9.5360821 C 43.254102,9.9293995 41.544398,10.685077 40.489247,11.213506 C 38.764615,12.077214 38.579871,12.216701 38.811825,12.514955 C 38.856025,12.571788 39.037196,12.775688 39.129955,12.890928 C 39.393827,12.72141 39.785256,12.49154 40.489247,12.138981 C 41.544398,11.610551 43.254102,10.854873 44.306832,10.461557 L 46.244543,9.7674504 L 48.384706,10.54832 C 50.794836,11.431555 50.987992,11.454499 52.578264,11.039979 C 53.200656,10.877743 54.504418,10.597119 55.470374,10.432635 C 56.436337,10.268142 57.3842,10.106692 57.552692,10.056661 C 57.721175,10.006639 58.17948,9.3751782 58.593852,8.639528 L 59.3458,7.2802364 L 61.312435,7.1934737 C 62.393176,7.1371295 64.449877,7.1537793 65.881967,7.2223935 L 68.484866,7.3380782 L 68.976524,8.4949214 C 69.244365,9.138905 69.571808,9.7786394 69.699552,9.9120559 C 69.827293,10.045482 70.446881,10.260572 71.087763,10.374793 C 71.728646,10.489015 73.209156,10.799059 74.355848,11.068899 L 76.438166,11.560558 L 78.578327,10.866453 C 79.764044,10.483129 80.958354,10.172346 81.210148,10.172346 C 81.957476,10.172346 85.801974,11.864447 87.775234,13.064456 L 87.833077,13.093377 L 88.382577,12.514955 L 87.775234,12.138981 C 85.801974,10.938972 81.957476,9.2468711 81.210148,9.2468711 C 80.958354,9.2468711 79.764044,9.5576543 78.578327,9.9409779 L 76.438166,10.635082 L 74.355848,10.143425 C 73.209156,9.8735839 71.728646,9.5635402 71.087763,9.4493184 C 70.446881,9.3350954 69.827293,9.1200061 69.699552,8.9865809 C 69.571808,8.8531643 69.244365,8.2134299 68.976524,7.5694464 L 68.484866,6.4126036 L 65.881967,6.2969192 C 65.165917,6.2626118 64.309604,6.2431213 63.481516,6.2390771 z M 40.344643,15.493828 C 40.206883,15.531467 39.232471,16.369965 38.146639,17.402619 L 36.151083,19.31141 L 34.386896,19.54278 C 33.425569,19.663655 32.04364,19.818321 31.29234,19.889834 C 30.541038,19.961335 29.773071,20.111753 29.585994,20.207966 C 28.97433,20.522525 26.593601,25.978653 26.925255,26.310316 C 26.928178,26.31324 27.05161,26.333999 27.069859,26.339238 C 27.578658,24.695714 29.111503,21.377451 29.585994,21.133441 C 29.773071,21.037228 30.541038,20.88681 31.29234,20.815309 C 32.04364,20.743796 33.425569,20.58913 34.386896,20.468255 L 36.151083,20.236885 L 38.146639,18.328094 C 39.257429,17.271701 40.27227,16.419303 40.373562,16.419303 C 40.649836,16.419303 40.617369,15.996896 40.373562,15.493828 C 40.371666,15.489913 40.346568,15.497752 40.344643,15.493828 z M 86.32918,15.667353 C 86.138087,15.903859 86.011048,16.11234 86.011048,16.159013 C 86.011048,16.25875 86.600122,16.913524 87.312497,17.605067 C 88.024863,18.296609 88.9163,19.215745 89.279133,19.658464 L 89.915395,20.468255 L 93.212401,20.902071 L 96.509405,21.335888 L 97.203509,22.839785 C 97.766574,24.060966 98.151303,25.265168 98.273586,26.16571 C 98.400414,25.335838 98.00021,23.642218 97.203509,21.91431 L 96.509405,20.410413 L 93.212401,19.976596 L 89.915395,19.54278 L 89.279133,18.732989 C 88.9163,18.29027 88.024863,17.371134 87.312497,16.679592 C 86.909647,16.288524 86.567202,15.939138 86.32918,15.667353 z M 72.071081,23.823102 C 71.96294,24.611542 71.581422,25.420387 70.885316,26.194631 C 69.856899,27.338481 68.192231,28.259098 66.200099,28.768609 C 63.453742,29.471006 59.425622,29.132311 57.292402,28.045581 C 55.270545,27.015593 54.133524,25.616236 53.908635,24.170155 C 53.699969,25.931918 54.836025,27.719712 57.292402,28.971056 C 59.425622,30.057786 63.453742,30.396481 66.200099,29.694084 C 68.192231,29.184573 69.856899,28.263956 70.885316,27.120106 C 71.855075,26.041501 72.218222,24.896273 72.071081,23.823102 z M 34.907476,33.251377 C 34.624761,33.610675 33.963537,34.183239 32.738394,35.102327 C 29.962357,37.184888 29.663457,37.293278 30.222258,38.023359 C 30.553746,37.640119 31.309054,37.100086 32.738394,36.027802 C 34.410311,34.773544 35.074737,34.153014 35.081004,33.85872 C 35.083215,33.754624 34.994406,33.519258 34.907476,33.251377 z M 89.944316,33.338141 C 89.816433,33.647852 89.740359,33.896138 89.741869,33.974405 C 89.745007,34.137419 90.799669,35.169943 92.084477,36.288094 C 93.000104,37.084972 93.639783,37.673456 94.022191,38.05228 C 94.24537,37.812739 94.398165,37.600406 94.398165,37.531701 C 94.398165,37.455098 93.369269,36.480785 92.084477,35.362619 C 91.13866,34.539491 90.312759,33.760241 89.944316,33.338141 z "
         style="fill:url(#linearGradient4135);fill-opacity:1" />
      <path
         sodipodi:nodetypes="csssssscsssssccsssssssssssccscccccssssccsssscccccsccccccssssccsssscccccsc"
         id="path4124"
         d="M 98.293456,25.639096 C 98.279195,26.052414 98.184935,26.330963 97.975324,26.391046 C 97.787488,26.44489 96.478504,26.651234 95.08322,26.824861 C 93.687947,26.99848 92.36212,27.222834 92.133268,27.31652 C 91.843845,27.435009 91.66024,27.764015 91.497003,28.444443 C 91.367937,28.982449 90.904989,30.124115 90.484767,30.960578 C 90.064555,31.797031 89.729671,32.619585 89.732817,32.782606 C 89.733178,32.801411 89.792501,32.857163 89.819581,32.898292 C 89.912536,32.58698 90.14124,32.020375 90.484767,31.336553 C 90.904989,30.500089 91.367937,29.358422 91.497003,28.820418 C 91.66024,28.13999 91.843845,27.782062 92.133268,27.663574 C 92.36212,27.569886 93.687947,27.374464 95.08322,27.200835 C 96.478504,27.027206 97.787488,26.820845 97.975324,26.767021 C 98.243313,26.690205 98.340008,26.263467 98.293456,25.639096 z M 26.916203,26.043993 C 26.878101,26.237269 26.873206,26.376969 26.916203,26.419967 C 26.954944,26.458706 28.397853,26.704411 30.097524,26.969468 C 31.797195,27.234504 33.240963,27.538949 33.336686,27.634653 C 33.432399,27.730365 33.623934,28.328619 33.741581,28.965021 C 33.859229,29.601427 34.210389,30.677216 34.52245,31.365474 C 34.770746,31.913096 34.941136,32.422995 35.01411,32.753685 C 35.025011,32.722839 35.071406,32.692606 35.071952,32.666921 C 35.076763,32.440293 34.834513,31.677748 34.52245,30.989499 C 34.210389,30.301261 33.859229,29.225452 33.741581,28.589049 C 33.623934,27.952637 33.432399,27.35439 33.336686,27.258678 C 33.240963,27.162967 31.797195,26.858532 30.097524,26.593493 C 28.397853,26.328456 26.954944,26.082731 26.916203,26.043993 z M 30.039681,37.438903 C 29.892707,37.771463 30.144899,38.012419 30.560261,38.537905 C 31.557905,39.800001 33.841968,41.864515 35.476846,42.991753 L 36.778296,43.888306 L 40.711563,42.297646 L 44.615912,40.706985 L 46.640388,41.487856 C 48.449221,42.183425 50.180552,42.722098 52.598134,43.309885 C 53.090708,43.42965 53.457078,43.620863 53.523609,43.830464 C 53.584347,44.021825 53.84262,45.38777 54.102031,46.86718 C 54.361443,48.346597 54.603592,49.595684 54.651531,49.643605 C 54.699462,49.691534 55.425265,49.814687 56.271112,49.903894 C 59.687671,50.322533 63.941643,50.112329 66.885155,49.874973 C 67.785372,49.805554 68.580096,49.639958 68.649341,49.52792 C 68.718575,49.415882 69.10747,48.137663 69.516973,46.664731 C 69.926496,45.191802 70.352335,43.87323 70.471369,43.743702 C 70.590405,43.614161 71.726721,43.229647 72.987505,42.904989 C 74.24828,42.580333 76.234775,41.958173 77.412432,41.516778 L 79.552593,40.706985 L 83.167729,42.326567 L 86.782867,43.917228 L 88.7495,42.615778 C 90.48175,41.473593 94.418035,38.019138 94.418035,37.64135 C 94.418035,37.633373 94.295317,37.523418 94.273428,37.496745 C 93.615315,38.345138 90.306613,41.213101 88.7495,42.239803 L 86.782867,43.541253 L 83.167729,41.950592 L 79.552593,40.359934 L 77.412432,41.140803 C 76.234775,41.582189 74.24828,42.204358 72.987505,42.529016 C 71.726721,42.853672 70.590405,43.238189 70.471369,43.367728 C 70.352335,43.497248 69.926496,44.815827 69.516973,46.288756 C 69.10747,47.761688 68.718575,49.039907 68.649341,49.151945 C 68.580096,49.263984 67.785372,49.429579 66.885155,49.498999 C 63.912907,49.725795 59.655982,49.756197 56.271112,49.52792 C 55.425265,49.438704 54.699462,49.344481 54.651531,49.296552 C 54.603592,49.24862 54.361443,47.999545 54.102031,46.520127 C 53.84262,45.040709 53.584347,43.674772 53.523609,43.48341 C 53.457078,43.2738 53.090708,43.053676 52.598134,42.93391 C 50.180552,42.346114 48.449221,41.807451 46.640388,41.111881 L 44.615912,40.331013 L 40.711563,41.921672 L 36.778296,43.512331 L 35.476846,42.615778 C 33.841968,41.48856 31.557905,39.424029 30.560261,38.161931 C 30.305357,37.839447 30.118493,37.633539 30.039681,37.438903 z "
         style="fill:#ffffff;fill-opacity:1" />
      <path
         id="path4137"
         d="M 59.055085,49.92899 C 58.001085,49.858817 57.31119,49.773231 57.521987,49.738795 C 57.732795,49.704368 57.225641,49.604504 56.394991,49.516891 C 55.564332,49.429279 54.846198,49.319081 54.799129,49.272012 C 54.75206,49.224941 54.505126,47.997753 54.250376,46.544917 C 53.995636,45.09208 53.738405,43.749651 53.678758,43.561728 C 53.613429,43.355893 53.251146,43.142469 52.76742,43.024855 C 50.393276,42.447618 48.696207,41.932302 46.919874,41.249231 L 44.941407,40.488445 L 41.092005,42.051625 L 37.242612,43.614804 L 35.956931,42.728344 C 34.351424,41.621368 32.117007,39.593358 31.137289,38.353937 C 30.240602,37.219533 30.09607,37.442991 33.2633,35.066957 C 34.905177,33.835233 35.564817,33.226551 35.570971,32.937548 C 35.575705,32.714979 35.328836,31.979877 35.022381,31.303996 C 34.715919,30.628114 34.370656,29.563781 34.255125,28.938814 C 34.139591,28.313836 33.968155,27.725594 33.874162,27.631601 C 33.780169,27.537608 32.33762,27.24775 30.668487,26.987475 C 28.999364,26.727189 27.602585,26.483109 27.56454,26.445066 C 27.238846,26.119372 29.566503,20.74756 30.167178,20.438653 C 30.35089,20.34417 31.104862,20.209424 31.842663,20.139207 C 32.580466,20.06898 33.956531,19.914412 34.900586,19.795707 L 36.617053,19.579885 L 38.600374,17.693672 C 39.691208,16.65625 40.665082,15.807462 40.764557,15.807462 C 41.179145,15.807462 40.896539,14.91042 40.225083,14.095058 C 39.828899,13.613979 39.390725,13.073742 39.251353,12.894544 C 39.023561,12.601651 39.188316,12.473395 40.881961,11.625203 C 41.918156,11.10627 43.611808,10.365661 44.645621,9.9794183 L 46.52528,9.2771449 L 48.636976,10.051028 C 51.003804,10.918393 51.20793,10.942315 52.769629,10.535243 C 53.380827,10.375921 54.65702,10.11341 55.605622,9.9518808 C 56.554231,9.7903515 57.46573,9.6179888 57.631194,9.5688563 C 57.79665,9.5197337 58.26497,8.8884487 58.671896,8.1660159 L 59.411762,6.8525048 L 61.341424,6.7519135 C 62.402749,6.696583 64.42175,6.7064538 65.828109,6.7738359 L 68.385123,6.8963472 L 68.863357,8.0461658 C 69.126387,8.6785688 69.444227,9.3031815 69.569676,9.4342021 C 69.695134,9.5652205 70.312712,9.7641952 70.94208,9.8763648 C 71.571447,9.9885344 73.007734,10.297125 74.133823,10.562117 L 76.181264,11.043914 L 78.298384,10.359499 C 79.462798,9.9830715 80.617825,9.6750823 80.865095,9.6750823 C 81.598997,9.6750823 85.391477,11.347888 87.329285,12.526343 L 87.924833,12.888518 L 86.760811,14.132857 C 86.120591,14.817255 85.596786,15.457356 85.596786,15.555302 C 85.596786,15.653257 86.169159,16.28904 86.868735,16.968158 C 87.568302,17.647276 88.432224,18.558641 88.788538,18.993406 L 89.4364,19.783884 L 92.673565,20.21883 L 95.910724,20.653767 L 96.582751,22.111259 C 97.625944,24.373741 97.985157,26.614566 97.33454,26.801061 C 97.15009,26.853928 95.878105,27.036698 94.507891,27.207206 C 93.137686,27.377715 91.832738,27.592502 91.607997,27.684505 C 91.323765,27.800874 91.129235,28.144218 90.968934,28.81242 C 90.842185,29.34076 90.400849,30.445127 89.988178,31.26656 C 89.575516,32.087994 89.240407,32.891059 89.243497,33.051153 C 89.246578,33.211237 90.281418,34.240642 91.543143,35.338703 C 92.804848,36.43677 93.837161,37.39674 93.837161,37.471957 C 93.837161,37.842947 89.977182,41.229891 88.276058,42.351553 L 86.342268,43.626638 L 82.801637,42.059559 L 79.261008,40.49248 L 77.158291,41.280578 C 76.001792,41.714033 74.042557,42.329542 72.804434,42.648364 C 71.566303,42.967188 70.457646,43.332116 70.340751,43.459328 C 70.223855,43.58653 69.79917,44.874084 69.397005,46.320551 C 68.99485,47.767025 68.610171,49.04051 68.54218,49.150536 C 68.47418,49.260551 67.695236,49.406347 66.811191,49.474521 C 65.761346,49.55548 65.333933,49.649356 65.578922,49.745176 C 65.804742,49.833487 65.343921,49.897898 64.420915,49.907004 C 63.577714,49.91533 62.456644,49.952392 61.929639,49.989356 C 61.402635,50.026327 60.109092,49.999161 59.055085,49.92899 z M 66.127248,28.843466 C 68.083595,28.343119 69.719246,27.447814 70.729183,26.324515 C 73.721651,22.996174 70.883378,19.127324 64.827651,18.280178 C 61.914742,17.872679 58.670652,18.571792 56.405642,20.095136 C 52.876437,22.468725 53.318572,26.080145 57.392459,28.155496 C 59.487351,29.222693 63.430235,29.533244 66.127248,28.843466 z "
         style="fill:url(#linearGradient4150);fill-opacity:1.0;opacity:0.59778598" />
    </g>
  </g>
</svg>
