<?xml version="1.0" encoding="UTF-8" standalone="no"?>
<!-- Created with Inkscape (http://www.inkscape.org/) -->
<svg
   xmlns:dc="http://purl.org/dc/elements/1.1/"
   xmlns:cc="http://web.resource.org/cc/"
   xmlns:rdf="http://www.w3.org/1999/02/22-rdf-syntax-ns#"
   xmlns:svg="http://www.w3.org/2000/svg"
   xmlns="http://www.w3.org/2000/svg"
   xmlns:xlink="http://www.w3.org/1999/xlink"
   xmlns:sodipodi="http://sodipodi.sourceforge.net/DTD/sodipodi-0.dtd"
   xmlns:inkscape="http://www.inkscape.org/namespaces/inkscape"
   width="128"
   height="128"
   id="svg2156"
   sodipodi:version="0.32"
   inkscape:version="0.44"
   version="1.0"
   sodipodi:docbase="/home/pinheiro/artwork/Oxygen/theme/svg"
   sodipodi:docname="kiten.svg">
  <defs
     id="defs2158">
    <linearGradient
       id="linearGradient2975">
      <stop
         style="stop-color:black;stop-opacity:1;"
         offset="0"
         id="stop2977" />
      <stop
         style="stop-color:black;stop-opacity:0;"
         offset="1"
         id="stop2979" />
    </linearGradient>
    <linearGradient
       id="linearGradient2963">
      <stop
         style="stop-color:#ac0000;stop-opacity:1;"
         offset="0"
         id="stop2965" />
      <stop
         id="stop2971"
         offset="0.5"
         style="stop-color:#760000;stop-opacity:1;" />
      <stop
         style="stop-color:#ac0000;stop-opacity:1;"
         offset="1"
         id="stop2967" />
    </linearGradient>
    <linearGradient
       inkscape:collect="always"
       id="linearGradient2955">
      <stop
         style="stop-color:white;stop-opacity:1;"
         offset="0"
         id="stop2957" />
      <stop
         style="stop-color:white;stop-opacity:0;"
         offset="1"
         id="stop2959" />
    </linearGradient>
    <linearGradient
       id="linearGradient2882">
      <stop
         style="stop-color:#e7e7e7;stop-opacity:1;"
         offset="0"
         id="stop2884" />
      <stop
         id="stop2892"
         offset="0.18131869"
         style="stop-color:#919191;stop-opacity:1;" />
      <stop
         id="stop2890"
         offset="0.5"
         style="stop-color:#737373;stop-opacity:1;" />
      <stop
         style="stop-color:#999;stop-opacity:1;"
         offset="0.75"
         id="stop2894" />
      <stop
         style="stop-color:#f2f2f2;stop-opacity:1;"
         offset="1"
         id="stop2886" />
    </linearGradient>
    <linearGradient
       inkscape:collect="always"
       id="linearGradient28778">
      <stop
         style="stop-color:#8e8e8e;stop-opacity:1;"
         offset="0"
         id="stop28780" />
      <stop
         style="stop-color:#8e8e8e;stop-opacity:0;"
         offset="1"
         id="stop28782" />
    </linearGradient>
    <linearGradient
       inkscape:collect="always"
       id="linearGradient30539">
      <stop
         style="stop-color:#ffffff;stop-opacity:1;"
         offset="0"
         id="stop30541" />
      <stop
         style="stop-color:#ffffff;stop-opacity:0;"
         offset="1"
         id="stop30543" />
    </linearGradient>
    <linearGradient
       inkscape:collect="always"
       xlink:href="#linearGradient30539"
       id="linearGradient37006"
       gradientUnits="userSpaceOnUse"
       x1="-742.43384"
       y1="195.60983"
       x2="-739.79175"
       y2="217.92102" />
    <linearGradient
       inkscape:collect="always"
       id="linearGradient30549">
      <stop
         style="stop-color:#ffffff;stop-opacity:1;"
         offset="0"
         id="stop30551" />
      <stop
         style="stop-color:#ffffff;stop-opacity:0;"
         offset="1"
         id="stop30553" />
    </linearGradient>
    <radialGradient
       inkscape:collect="always"
       xlink:href="#linearGradient30549"
       id="radialGradient37008"
       gradientUnits="userSpaceOnUse"
       gradientTransform="matrix(1,0,0,0.928571,0,40.41772)"
       cx="-633.63702"
       cy="565.84845"
       fx="-634.81256"
       fy="578.65271"
       r="18.908777" />
    <linearGradient
       inkscape:collect="always"
       xlink:href="#linearGradient31433"
       id="linearGradient36994"
       gradientUnits="userSpaceOnUse"
       gradientTransform="matrix(0.3253,0,0,0.30413,249.855,-64.01645)"
       spreadMethod="reflect"
       x1="-744.58466"
       y1="296.54315"
       x2="-728.62476"
       y2="296.41748" />
    <linearGradient
       inkscape:collect="always"
       xlink:href="#linearGradient31433"
       id="linearGradient36991"
       gradientUnits="userSpaceOnUse"
       gradientTransform="matrix(0.3253,0,0,0.30413,249.855,-57.67747)"
       spreadMethod="reflect"
       x1="-744.58466"
       y1="296.54315"
       x2="-728.62476"
       y2="296.41748" />
    <linearGradient
       inkscape:collect="always"
       xlink:href="#linearGradient31433"
       id="linearGradient36988"
       gradientUnits="userSpaceOnUse"
       gradientTransform="matrix(0.3253,0,0,0.30413,249.855,-70.35543)"
       spreadMethod="reflect"
       x1="-744.58466"
       y1="296.54315"
       x2="-728.62476"
       y2="296.41748" />
    <linearGradient
       inkscape:collect="always"
       xlink:href="#linearGradient31433"
       id="linearGradient36985"
       gradientUnits="userSpaceOnUse"
       gradientTransform="matrix(0.3253,0,0,0.30413,249.855,-51.33849)"
       spreadMethod="reflect"
       x1="-744.58466"
       y1="296.54315"
       x2="-728.62476"
       y2="296.41748" />
    <linearGradient
       inkscape:collect="always"
       xlink:href="#linearGradient31433"
       id="linearGradient36982"
       gradientUnits="userSpaceOnUse"
       gradientTransform="matrix(0.3253,0,0,0.30413,249.855,-44.99951)"
       spreadMethod="reflect"
       x1="-744.58466"
       y1="296.54315"
       x2="-728.62476"
       y2="296.41748" />
    <linearGradient
       inkscape:collect="always"
       xlink:href="#linearGradient31433"
       id="linearGradient36979"
       gradientUnits="userSpaceOnUse"
       gradientTransform="matrix(0.3253,0,0,0.30413,249.855,-38.66067)"
       spreadMethod="reflect"
       x1="-744.58466"
       y1="296.54315"
       x2="-728.62476"
       y2="296.41748" />
    <linearGradient
       inkscape:collect="always"
       xlink:href="#linearGradient31433"
       id="linearGradient36976"
       gradientUnits="userSpaceOnUse"
       gradientTransform="matrix(0.3253,0,0,0.30413,249.855,-32.32169)"
       spreadMethod="reflect"
       x1="-744.58466"
       y1="296.54315"
       x2="-728.62476"
       y2="296.41748" />
    <linearGradient
       inkscape:collect="always"
       xlink:href="#linearGradient31433"
       id="linearGradient36973"
       gradientUnits="userSpaceOnUse"
       gradientTransform="matrix(0.3253,0,0,0.30413,249.855,-25.98271)"
       spreadMethod="reflect"
       x1="-744.58466"
       y1="296.54315"
       x2="-728.62476"
       y2="296.41748" />
    <linearGradient
       inkscape:collect="always"
       xlink:href="#linearGradient31433"
       id="linearGradient36970"
       gradientUnits="userSpaceOnUse"
       gradientTransform="matrix(0.3253,0,0,0.30413,249.855,-19.64373)"
       spreadMethod="reflect"
       x1="-744.58466"
       y1="296.54315"
       x2="-728.62476"
       y2="296.41748" />
    <linearGradient
       inkscape:collect="always"
       xlink:href="#linearGradient31433"
       id="linearGradient36967"
       gradientUnits="userSpaceOnUse"
       gradientTransform="matrix(0.3253,0,0,0.30413,249.855,-13.30475)"
       spreadMethod="reflect"
       x1="-744.58466"
       y1="296.54315"
       x2="-728.62476"
       y2="296.41748" />
    <linearGradient
       inkscape:collect="always"
       xlink:href="#linearGradient31433"
       id="linearGradient36964"
       gradientUnits="userSpaceOnUse"
       gradientTransform="matrix(0.3253,0,0,0.30413,249.855,-6.96591)"
       spreadMethod="reflect"
       x1="-744.58466"
       y1="296.54315"
       x2="-728.62476"
       y2="296.41748" />
    <linearGradient
       inkscape:collect="always"
       xlink:href="#linearGradient31433"
       id="linearGradient36961"
       gradientUnits="userSpaceOnUse"
       gradientTransform="matrix(0.3253,0,0,0.30413,249.855,-0.62693)"
       spreadMethod="reflect"
       x1="-744.58466"
       y1="296.54315"
       x2="-728.62476"
       y2="296.41748" />
    <linearGradient
       inkscape:collect="always"
       xlink:href="#linearGradient31433"
       id="linearGradient36958"
       gradientUnits="userSpaceOnUse"
       gradientTransform="matrix(0.3253,0,0,0.30413,249.855,12.05103)"
       spreadMethod="reflect"
       x1="-744.58466"
       y1="296.54315"
       x2="-728.62476"
       y2="296.41748" />
    <linearGradient
       inkscape:collect="always"
       xlink:href="#linearGradient31433"
       id="linearGradient36955"
       gradientUnits="userSpaceOnUse"
       gradientTransform="matrix(0.3253,0,0,0.30413,249.855,18.39001)"
       spreadMethod="reflect"
       x1="-744.58466"
       y1="296.54315"
       x2="-728.62476"
       y2="296.41748" />
    <linearGradient
       inkscape:collect="always"
       id="linearGradient31433">
      <stop
         style="stop-color:#ffffff;stop-opacity:1;"
         offset="0"
         id="stop31435" />
      <stop
         style="stop-color:#ffffff;stop-opacity:0;"
         offset="1"
         id="stop31437" />
    </linearGradient>
    <linearGradient
       inkscape:collect="always"
       xlink:href="#linearGradient31433"
       id="linearGradient36952"
       gradientUnits="userSpaceOnUse"
       gradientTransform="matrix(0.3253,0,0,0.30413,249.855,5.712051)"
       spreadMethod="reflect"
       x1="-744.58466"
       y1="296.54315"
       x2="-728.62476"
       y2="296.41748" />
    <linearGradient
       inkscape:collect="always"
       id="linearGradient32372">
      <stop
         style="stop-color:#000000;stop-opacity:1;"
         offset="0"
         id="stop32374" />
      <stop
         style="stop-color:#000000;stop-opacity:0;"
         offset="1"
         id="stop32376" />
    </linearGradient>
    <linearGradient
       inkscape:collect="always"
       xlink:href="#linearGradient32372"
       id="linearGradient36949"
       gradientUnits="userSpaceOnUse"
       x1="-757.66064"
       y1="620.91235"
       x2="-714.74719"
       y2="356.50623"
       gradientTransform="matrix(0.3253,0,0,0.30413,249.855,-60.31903)" />
    <linearGradient
       inkscape:collect="always"
       xlink:href="#linearGradient32382"
       id="linearGradient36946"
       gradientUnits="userSpaceOnUse"
       x1="-751.59839"
       y1="238.11371"
       x2="-736.92934"
       y2="242.4993"
       gradientTransform="matrix(0.3253,0,0,0.30413,249.855,-60.31903)" />
    <linearGradient
       inkscape:collect="always"
       id="linearGradient33265">
      <stop
         style="stop-color:#ffffff;stop-opacity:1;"
         offset="0"
         id="stop33267" />
      <stop
         style="stop-color:#ffffff;stop-opacity:0;"
         offset="1"
         id="stop33269" />
    </linearGradient>
    <radialGradient
       inkscape:collect="always"
       xlink:href="#linearGradient33265"
       id="radialGradient35166"
       gradientUnits="userSpaceOnUse"
       gradientTransform="matrix(1,0,0,5.820106e-2,0,239.4202)"
       cx="-742.3244"
       cy="254.21584"
       fx="-745.34979"
       fy="255.14407"
       r="5.1053205" />
    <linearGradient
       inkscape:collect="always"
       id="linearGradient32382">
      <stop
         style="stop-color:#ffffff;stop-opacity:1;"
         offset="0"
         id="stop32384" />
      <stop
         style="stop-color:#ffffff;stop-opacity:0;"
         offset="1"
         id="stop32386" />
    </linearGradient>
    <radialGradient
       inkscape:collect="always"
       xlink:href="#linearGradient32382"
       id="radialGradient36942"
       gradientUnits="userSpaceOnUse"
       gradientTransform="matrix(0.831647,-7.760576e-3,2.670049e-3,0.250101,628.5352,-52.24113)"
       cx="-749.71906"
       cy="253.47478"
       fx="-749.71906"
       fy="253.47478"
       r="4.234355" />
    <linearGradient
       inkscape:collect="always"
       id="linearGradient36928">
      <stop
         style="stop-color:#000000;stop-opacity:1;"
         offset="0"
         id="stop36930" />
      <stop
         style="stop-color:#000000;stop-opacity:0;"
         offset="1"
         id="stop36932" />
    </linearGradient>
    <radialGradient
       inkscape:collect="always"
       xlink:href="#linearGradient36928"
       id="radialGradient36934"
       cx="78.620689"
       cy="801.51721"
       fx="78.620689"
       fy="801.51721"
       r="5.7931032"
       gradientTransform="matrix(1,0,0,0.357143,0,515.2611)"
       gradientUnits="userSpaceOnUse" />
    <linearGradient
       inkscape:collect="always"
       id="linearGradient37885">
      <stop
         style="stop-color:#000000;stop-opacity:1;"
         offset="0"
         id="stop37887" />
      <stop
         style="stop-color:#000000;stop-opacity:0;"
         offset="1"
         id="stop37889" />
    </linearGradient>
    <radialGradient
       inkscape:collect="always"
       xlink:href="#linearGradient37885"
       id="radialGradient37891"
       cx="114.58915"
       cy="801.87805"
       fx="83.909851"
       fy="801.87805"
       r="39.872711"
       gradientTransform="matrix(1,0,0,9.009009e-2,0,729.6368)"
       gradientUnits="userSpaceOnUse" />
    <radialGradient
       inkscape:collect="always"
       xlink:href="#linearGradient28778"
       id="radialGradient2249"
       gradientUnits="userSpaceOnUse"
       gradientTransform="matrix(0.162268,0.141036,-0.122767,6.416779e-2,204.8173,108.6796)"
       cx="-416.22699"
       cy="413.23447"
       fx="-446.17487"
       fy="447.93506"
       r="170.91994" />
    <radialGradient
       inkscape:collect="always"
       xlink:href="#linearGradient28778"
       id="radialGradient2255"
       gradientUnits="userSpaceOnUse"
       gradientTransform="matrix(0.232764,0.257749,-0.148367,0.162373,239.7677,122.9846)"
       cx="-471.99405"
       cy="445.17426"
       fx="-478.93063"
       fy="474.55029"
       r="170.91994" />
    <linearGradient
       inkscape:collect="always"
       xlink:href="#linearGradient2882"
       id="linearGradient2888"
       x1="-511.73413"
       y1="243.04254"
       x2="-406.1962"
       y2="220.15413"
       gradientUnits="userSpaceOnUse"
       gradientTransform="matrix(0.353759,-9.502591e-3,0,0.408361,232.7169,-45.44395)" />
    <linearGradient
       inkscape:collect="always"
       xlink:href="#linearGradient2955"
       id="linearGradient2961"
       x1="83.57663"
       y1="21.89839"
       x2="72.99334"
       y2="58.667942"
       gradientUnits="userSpaceOnUse" />
    <linearGradient
       inkscape:collect="always"
       xlink:href="#linearGradient2963"
       id="linearGradient2969"
       x1="53.348612"
       y1="52.347796"
       x2="85.41195"
       y2="52.347796"
       gradientUnits="userSpaceOnUse" />
    <linearGradient
       inkscape:collect="always"
       xlink:href="#linearGradient2975"
       id="linearGradient2981"
       x1="3.587779"
       y1="60.417942"
       x2="17.617184"
       y2="59.62505"
       gradientUnits="userSpaceOnUse" />
  </defs>
  <sodipodi:namedview
     id="base"
     pagecolor="#ffffff"
     bordercolor="#666666"
     borderopacity="1.0"
     inkscape:pageopacity="0.0"
     inkscape:pageshadow="2"
     inkscape:zoom="1.4142136"
     inkscape:cx="180.07307"
     inkscape:cy="126.04985"
     inkscape:current-layer="layer1"
     showgrid="true"
     inkscape:document-units="px"
     inkscape:grid-bbox="true"
     showguides="true"
     inkscape:guide-bbox="true"
     inkscape:window-width="876"
     inkscape:window-height="575"
     inkscape:window-x="323"
     inkscape:window-y="526" />
  <metadata
     id="metadata2161">
    <rdf:RDF>
      <cc:Work
         rdf:about="">
        <dc:format>image/svg+xml</dc:format>
        <dc:type
           rdf:resource="http://purl.org/dc/dcmitype/StillImage" />
      </cc:Work>
    </rdf:RDF>
  </metadata>
  <g
     id="layer1"
     inkscape:label="Layer 1"
     inkscape:groupmode="layer">
    <path
       style="fill:url(#linearGradient2888);fill-opacity:1.0;fill-rule:evenodd;stroke:#ababab;stroke-width:0.38008085px;stroke-linecap:butt;stroke-linejoin:miter;stroke-opacity:1"
       d="M 41.090134,13.071169 C 32.402397,13.474017 23.723721,16.802377 11.661781,17.600716 C 11.650825,17.584055 11.639521,17.567228 11.628614,17.550566 C 11.628623,17.551851 11.628606,17.600244 11.628614,17.601607 C 11.568622,17.605554 11.511902,17.615301 11.45174,17.619123 C 11.500521,17.969559 11.565536,18.312267 11.639673,18.660499 C 14.377495,21.07005 14.873091,77.168238 12.137147,78.30611 C 33.581948,80.014056 52.92449,69.610879 73.337506,77.517163 C 83.9779,82.992883 86.277329,93.394155 99.206153,99.154512 C 108.68443,103.3775 115.99698,104.00745 127.44056,104.30455 C 123.09923,83.649363 117.15098,46.250095 117.48002,45.678831 C 117.48917,45.598177 117.50618,45.517145 117.51319,45.435469 C 117.48955,45.432966 117.47047,45.426991 117.44686,45.424495 C 117.44301,45.424079 117.43966,45.425199 117.43582,45.424792 C 103.26636,43.92437 96.224373,44.070112 83.441754,38.374891 C 70.51292,32.614533 68.213502,22.213258 57.573104,16.737541 C 51.583518,13.655194 46.333537,12.828033 41.090134,13.071169 z "
       id="path1975"
       sodipodi:nodetypes="ccssccccscccssssc" />
    <path
       style="opacity:1;fill:url(#linearGradient2969);fill-opacity:1.0;fill-rule:nonzero;stroke:none;stroke-width:0.22846179;stroke-linecap:round;stroke-linejoin:round;stroke-miterlimit:4;stroke-dasharray:none;stroke-dashoffset:4;stroke-opacity:1"
       d="M 59.231352,29.37073 C 52.839039,33.296629 52.496451,38.071505 54.277421,46.429024 C 56.059838,54.793234 59.463527,64.410699 67.20199,66.758356 L 67.20199,66.771121 C 71.902284,68.437134 77.015511,76.658488 79.379053,75.46222 C 84.8293,72.703678 86.502114,67.887594 84.739159,59.614591 C 82.978848,51.354027 79.117876,40.607189 71.474744,38.321436 C 68.515999,37.436604 63.868957,29.192072 60.292626,29.115441 C 59.929441,29.107663 59.57084,29.190649 59.231352,29.37073 z "
       id="path2905"
       sodipodi:nodetypes="csccssscs" />
    <path
       sodipodi:nodetypes="ccssccccccssssc"
       id="path2937"
       d="M 41.090134,13.071169 C 32.402397,13.474017 23.723721,16.802377 11.661781,17.600716 C 11.650825,17.584055 11.639521,17.567228 11.628614,17.550566 C 11.628623,17.551851 11.628606,17.600244 11.628614,17.601607 C 11.568622,17.605554 11.511902,17.615301 11.45174,17.619123 C 11.500521,17.969559 11.565536,18.312267 11.639673,18.660499 C 14.377495,21.07005 14.873091,44.168238 12.137147,45.30611 C 75.639583,30.146995 68.603714,68.356273 120.44056,71.30455 C 116.09923,50.649363 117.15098,46.250095 117.48002,45.678831 C 117.48917,45.598177 117.50618,45.517145 117.51319,45.435469 C 117.48955,45.432966 117.47047,45.426991 117.44686,45.424495 C 117.44301,45.424079 117.43966,45.425199 117.43582,45.424792 C 103.26636,43.92437 96.224373,44.070112 83.441754,38.374891 C 70.51292,32.614533 68.213502,22.213258 57.573104,16.737541 C 51.583518,13.655194 46.333537,12.828033 41.090134,13.071169 z "
       style="fill:url(#linearGradient2961);fill-opacity:1.0;fill-rule:evenodd;stroke:none;stroke-width:0.38008085px;stroke-linecap:butt;stroke-linejoin:miter;stroke-opacity:1" />
    <path
       sodipodi:nodetypes="ccssccccc"
       id="path2973"
       d="M 41.090134,13.071169 C 32.402397,13.474017 23.723721,16.802377 11.661781,17.600716 C 11.650825,17.584055 11.639521,17.567228 11.628614,17.550566 C 11.628623,17.551851 11.628606,17.600244 11.628614,17.601607 C 11.568622,17.605554 11.511902,17.615301 11.45174,17.619123 C 11.500521,17.969559 11.565536,18.312267 11.639673,18.660499 C 14.377495,21.07005 14.873091,77.168238 12.137147,78.30611 C 33.581948,80.014056 52.92449,69.610879 73.337506,77.517163 C 156.73637,146.45938 120.80905,23.817713 41.090134,13.071169 z "
       style="fill:url(#linearGradient2981);fill-opacity:1.0;fill-rule:evenodd;stroke:none;stroke-width:0.38008085px;stroke-linecap:butt;stroke-linejoin:miter;stroke-opacity:1" />
    <path
       style="fill:black;fill-opacity:1;fill-rule:nonzero;stroke:none;stroke-width:1;stroke-linecap:round;stroke-linejoin:miter;stroke-miterlimit:4;stroke-dashoffset:4;stroke-opacity:1"
       d="M 5.922519,16.924661 L 9.509347,4.4237722 L 13.096181,16.924661 L 13.096181,122.20978 L 5.922519,122.20978 L 5.922519,16.924661 z "
       id="rect28786"
       sodipodi:nodetypes="cccccc" />
    <path
       sodipodi:type="arc"
       style="fill:black;fill-opacity:1;fill-rule:nonzero;stroke:none;stroke-width:1;stroke-linecap:round;stroke-linejoin:miter;stroke-miterlimit:4;stroke-dasharray:none;stroke-dashoffset:4;stroke-opacity:1"
       id="path29662"
       sodipodi:cx="-633.63702"
       sodipodi:cy="565.84845"
       sodipodi:rx="18.908777"
       sodipodi:ry="17.558151"
       d="M -614.72825 565.84845 A 18.908777 17.558151 0 1 1  -652.5458,565.84845 A 18.908777 17.558151 0 1 1  -614.72825 565.84845 z"
       transform="matrix(0.241377,0,0,0.270807,162.2774,-148.2113)" />
    <path
       sodipodi:type="arc"
       style="fill:url(#linearGradient37006);fill-opacity:1;fill-rule:nonzero;stroke:none;stroke-width:1;stroke-linecap:round;stroke-linejoin:miter;stroke-miterlimit:4;stroke-dasharray:none;stroke-dashoffset:4;stroke-opacity:1"
       id="path29664"
       sodipodi:cx="-737.44324"
       sodipodi:cy="207.9397"
       sodipodi:rx="7.3392043"
       sodipodi:ry="6.6052842"
       d="M -730.10403 207.9397 A 7.3392043 6.6052842 0 1 1  -744.78244,207.9397 A 7.3392043 6.6052842 0 1 1  -730.10403 207.9397 z"
       transform="matrix(0.356587,0,0,0.264639,272.3482,-52.46421)" />
    <path
       transform="matrix(0.218714,0,0,0.240298,147.918,-130.9473)"
       d="M -614.72825 565.84845 A 18.908777 17.558151 0 1 1  -652.5458,565.84845 A 18.908777 17.558151 0 1 1  -614.72825 565.84845 z"
       sodipodi:ry="17.558151"
       sodipodi:rx="18.908777"
       sodipodi:cy="565.84845"
       sodipodi:cx="-633.63702"
       id="path30547"
       style="opacity:0.70232556;fill:url(#radialGradient37008);fill-opacity:1;fill-rule:nonzero;stroke:none;stroke-width:1;stroke-linecap:round;stroke-linejoin:miter;stroke-miterlimit:4;stroke-dasharray:none;stroke-dashoffset:4;stroke-opacity:1"
       sodipodi:type="arc" />
    <path
       style="opacity:0.70232556;fill:url(#linearGradient36994);fill-opacity:1;fill-rule:nonzero;stroke:none;stroke-width:1;stroke-linecap:round;stroke-linejoin:miter;stroke-miterlimit:4;stroke-dashoffset:4;stroke-opacity:1"
       d="M 6.210784,26.467408 C 8.591051,24.572438 10.863883,24.697022 12.833328,22.817839 L 12.833328,25.798958 C 10.625813,28.005416 8.418299,27.129918 6.210784,29.448527 L 6.210784,26.467408 z "
       id="rect30557"
       sodipodi:nodetypes="ccccc" />
    <path
       sodipodi:nodetypes="ccccc"
       id="path31441"
       d="M 6.210784,32.80636 C 8.591051,30.91139 10.863883,31.035973 12.833328,29.156791 L 12.833328,32.13791 C 10.625813,34.344368 8.418299,33.468869 6.210784,35.787478 L 6.210784,32.80636 z "
       style="opacity:0.70232556;fill:url(#linearGradient36991);fill-opacity:1;fill-rule:nonzero;stroke:none;stroke-width:1;stroke-linecap:round;stroke-linejoin:miter;stroke-miterlimit:4;stroke-dashoffset:4;stroke-opacity:1" />
    <path
       sodipodi:nodetypes="ccccc"
       id="path31445"
       d="M 6.210784,20.128456 C 8.591051,18.233487 10.863883,18.35807 12.833328,16.478888 L 12.833328,19.460007 C 10.625813,21.666465 8.418299,20.790966 6.210784,23.109575 L 6.210784,20.128456 z "
       style="opacity:0.70232556;fill:url(#linearGradient36988);fill-opacity:1;fill-rule:nonzero;stroke:none;stroke-width:1;stroke-linecap:round;stroke-linejoin:miter;stroke-miterlimit:4;stroke-dashoffset:4;stroke-opacity:1" />
    <path
       style="opacity:0.70232556;fill:url(#linearGradient36985);fill-opacity:1;fill-rule:nonzero;stroke:none;stroke-width:1;stroke-linecap:round;stroke-linejoin:miter;stroke-miterlimit:4;stroke-dashoffset:4;stroke-opacity:1"
       d="M 6.210784,39.145297 C 8.591051,37.250327 10.863883,37.374925 12.833328,35.495728 L 12.833328,38.476861 C 10.625813,40.683319 8.418299,39.807821 6.210784,42.12643 L 6.210784,39.145297 z "
       id="path31449"
       sodipodi:nodetypes="ccccc" />
    <path
       sodipodi:nodetypes="ccccc"
       id="path31453"
       d="M 6.210784,45.484248 C 8.591051,43.589278 10.863883,43.713877 12.833328,41.83468 L 12.833328,44.815813 C 10.625813,47.022271 8.418299,46.146758 6.210784,48.465382 L 6.210784,45.484248 z "
       style="opacity:0.70232556;fill:url(#linearGradient36982);fill-opacity:1;fill-rule:nonzero;stroke:none;stroke-width:1;stroke-linecap:round;stroke-linejoin:miter;stroke-miterlimit:4;stroke-dashoffset:4;stroke-opacity:1" />
    <path
       style="opacity:0.70232556;fill:url(#linearGradient36979);fill-opacity:1;fill-rule:nonzero;stroke:none;stroke-width:1;stroke-linecap:round;stroke-linejoin:miter;stroke-miterlimit:4;stroke-dashoffset:4;stroke-opacity:1"
       d="M 6.210784,51.8232 C 8.591051,49.92823 10.863883,50.052828 12.833328,48.173631 L 12.833328,51.154764 C 10.625813,53.361222 8.418299,52.485709 6.210784,54.804333 L 6.210784,51.8232 z "
       id="path31457"
       sodipodi:nodetypes="ccccc" />
    <path
       sodipodi:nodetypes="ccccc"
       id="path31461"
       d="M 6.210784,58.162151 C 8.591051,56.267182 10.863883,56.39178 12.833328,54.512583 L 12.833328,57.493716 C 10.625813,59.700159 8.418299,58.824661 6.210784,61.14327 L 6.210784,58.162151 z "
       style="opacity:0.70232556;fill:url(#linearGradient36976);fill-opacity:1;fill-rule:nonzero;stroke:none;stroke-width:1;stroke-linecap:round;stroke-linejoin:miter;stroke-miterlimit:4;stroke-dashoffset:4;stroke-opacity:1" />
    <path
       style="opacity:0.70232556;fill:url(#linearGradient36973);fill-opacity:1;fill-rule:nonzero;stroke:none;stroke-width:1;stroke-linecap:round;stroke-linejoin:miter;stroke-miterlimit:4;stroke-dashoffset:4;stroke-opacity:1"
       d="M 6.210784,64.501103 C 8.591051,62.606133 10.863883,62.730731 12.833328,60.851534 L 12.833328,63.832668 C 10.625813,66.039111 8.418299,65.163612 6.210784,67.482222 L 6.210784,64.501103 z "
       id="path31465"
       sodipodi:nodetypes="ccccc" />
    <path
       sodipodi:nodetypes="ccccc"
       id="path31469"
       d="M 6.210784,70.840054 C 8.591051,68.945085 10.863883,69.069668 12.833328,67.190486 L 12.833328,70.171619 C 10.625813,72.378063 8.418299,71.502564 6.210784,73.821173 L 6.210784,70.840054 z "
       style="opacity:0.70232556;fill:url(#linearGradient36970);fill-opacity:1;fill-rule:nonzero;stroke:none;stroke-width:1;stroke-linecap:round;stroke-linejoin:miter;stroke-miterlimit:4;stroke-dashoffset:4;stroke-opacity:1" />
    <path
       style="opacity:0.70232556;fill:url(#linearGradient36967);fill-opacity:1;fill-rule:nonzero;stroke:none;stroke-width:1;stroke-linecap:round;stroke-linejoin:miter;stroke-miterlimit:4;stroke-dashoffset:4;stroke-opacity:1"
       d="M 6.210784,77.179006 C 8.591051,75.284036 10.863883,75.40862 12.833328,73.529437 L 12.833328,76.510571 C 10.625813,78.717014 8.418299,77.841516 6.210784,80.160125 L 6.210784,77.179006 z "
       id="path31473"
       sodipodi:nodetypes="ccccc" />
    <path
       sodipodi:nodetypes="ccccc"
       id="path31477"
       d="M 6.210784,83.517957 C 8.591051,81.622988 10.863883,81.747571 12.833328,79.868389 L 12.833328,82.849508 C 10.625813,85.055966 8.418299,84.180467 6.210784,86.499076 L 6.210784,83.517957 z "
       style="opacity:0.70232556;fill:url(#linearGradient36964);fill-opacity:1;fill-rule:nonzero;stroke:none;stroke-width:1;stroke-linecap:round;stroke-linejoin:miter;stroke-miterlimit:4;stroke-dashoffset:4;stroke-opacity:1" />
    <path
       style="opacity:0.70232556;fill:url(#linearGradient36961);fill-opacity:1;fill-rule:nonzero;stroke:none;stroke-width:1;stroke-linecap:round;stroke-linejoin:miter;stroke-miterlimit:4;stroke-dashoffset:4;stroke-opacity:1"
       d="M 6.210784,89.856913 C 8.591051,87.961944 10.863883,88.086527 12.833328,86.20734 L 12.833328,89.188464 C 10.625813,91.394922 8.418299,90.519423 6.210784,92.838032 L 6.210784,89.856913 z "
       id="path31481"
       sodipodi:nodetypes="ccccc" />
    <path
       sodipodi:nodetypes="ccccc"
       id="path31485"
       d="M 6.210784,102.5348 C 8.591051,100.63983 10.863883,100.76443 12.833328,98.885248 L 12.833328,101.86637 C 10.625813,104.07282 8.418299,103.19733 6.210784,105.51594 L 6.210784,102.5348 z "
       style="opacity:0.70232556;fill:url(#linearGradient36958);fill-opacity:1;fill-rule:nonzero;stroke:none;stroke-width:1;stroke-linecap:round;stroke-linejoin:miter;stroke-miterlimit:4;stroke-dashoffset:4;stroke-opacity:1" />
    <path
       style="opacity:0.70232556;fill:url(#linearGradient36955);fill-opacity:1;fill-rule:nonzero;stroke:none;stroke-width:1;stroke-linecap:round;stroke-linejoin:miter;stroke-miterlimit:4;stroke-dashoffset:4;stroke-opacity:1"
       d="M 6.210784,108.87375 C 8.591051,106.97878 10.863883,107.10338 12.833328,105.2242 L 12.833328,108.20532 C 10.625813,110.41178 8.418299,109.53628 6.210784,111.85489 L 6.210784,108.87375 z "
       id="path31489"
       sodipodi:nodetypes="ccccc" />
    <path
       sodipodi:nodetypes="ccccc"
       id="path31493"
       d="M 6.210784,96.195865 C 8.591051,94.300881 10.863883,94.425479 12.833328,92.546296 L 12.833328,95.527415 C 10.625813,97.733873 8.418299,96.858375 6.210784,99.176984 L 6.210784,96.195865 z "
       style="opacity:0.70232556;fill:url(#linearGradient36952);fill-opacity:1;fill-rule:nonzero;stroke:none;stroke-width:1;stroke-linecap:round;stroke-linejoin:miter;stroke-miterlimit:4;stroke-dashoffset:4;stroke-opacity:1" />
    <path
       sodipodi:nodetypes="cccccc"
       id="path31497"
       d="M 5.922519,16.924661 L 9.509347,4.4237722 L 13.096181,16.924661 L 13.096181,122.20978 L 5.922519,122.20978 L 5.922519,16.924661 z "
       style="fill:url(#linearGradient36949);fill-opacity:1;fill-rule:nonzero;stroke:none;stroke-width:1;stroke-linecap:round;stroke-linejoin:miter;stroke-miterlimit:4;stroke-dashoffset:4;stroke-opacity:1" />
    <path
       style="opacity:0.69767438;fill:url(#linearGradient36946);fill-opacity:1;fill-rule:evenodd;stroke:none;stroke-width:1px;stroke-linecap:butt;stroke-linejoin:miter;stroke-opacity:1"
       d="M 8.410057,9.9369541 L 6.68826,16.927857 L 9.443131,16.88186 L 10.13185,10.028932 L 8.410057,9.9369541 z "
       id="path32380" />
    <path
       sodipodi:type="arc"
       style="opacity:0.69767438;fill:url(#radialGradient35166);fill-opacity:1;fill-rule:nonzero;stroke:none;stroke-width:1;stroke-linecap:round;stroke-linejoin:miter;stroke-miterlimit:4;stroke-dasharray:none;stroke-dashoffset:4;stroke-opacity:1"
       id="path32390"
       sodipodi:cx="-742.3244"
       sodipodi:cy="254.21584"
       sodipodi:rx="5.1053205"
       sodipodi:ry="0.29713506"
       d="M -737.21908 254.21584 A 5.1053205 0.29713506 0 1 1  -747.42972,254.21584 A 5.1053205 0.29713506 0 1 1  -737.21908 254.21584 z"
       transform="matrix(0.3253,0,0,0.580612,249.5562,-130.7038)" />
    <path
       id="path33273"
       d="M 6.70536,18.908007 L 6.68826,16.927857 L 9.443131,16.88186 L 8.427154,19 L 6.70536,18.908007 z "
       style="opacity:0.69767438;fill:url(#radialGradient36942);fill-opacity:1;fill-rule:evenodd;stroke:none;stroke-width:1px;stroke-linecap:butt;stroke-linejoin:miter;stroke-opacity:1"
       sodipodi:nodetypes="ccccc" />
    <path
       sodipodi:type="arc"
       style="opacity:1;fill:url(#radialGradient36934);fill-opacity:1;fill-rule:nonzero;stroke:none;stroke-width:1;stroke-linecap:round;stroke-linejoin:miter;stroke-miterlimit:4;stroke-dasharray:none;stroke-dashoffset:4;stroke-opacity:1"
       id="path36053"
       sodipodi:cx="78.620689"
       sodipodi:cy="801.51721"
       sodipodi:rx="5.7931032"
       sodipodi:ry="2.0689654"
       d="M 84.413793 801.51721 A 5.7931032 2.0689654 0 1 1  72.827586,801.51721 A 5.7931032 2.0689654 0 1 1  84.413793 801.51721 z"
       transform="matrix(1.452362,0,0,1.452362,-104.8265,-1041.837)" />
    <path
       sodipodi:type="arc"
       style="opacity:0.33953486;fill:url(#radialGradient37891);fill-opacity:1;fill-rule:nonzero;stroke:none;stroke-width:1;stroke-linecap:round;stroke-linejoin:miter;stroke-miterlimit:4;stroke-dasharray:none;stroke-dashoffset:4;stroke-opacity:1"
       id="path37010"
       sodipodi:cx="114.58915"
       sodipodi:cy="801.87805"
       sodipodi:rx="39.872711"
       sodipodi:ry="3.5921361"
       d="M 154.46186 801.87805 A 39.872711 3.5921361 0 1 1  74.716438,801.87805 A 39.872711 3.5921361 0 1 1  154.46186 801.87805 z"
       transform="matrix(1.624102,0,0,1.624102,-121.3472,-1179.836)" />
  </g>
</svg>
