<?xml version="1.0" encoding="UTF-8" standalone="no"?>
<!-- Generator: Adobe Illustrator 12.0.0, SVG Export Plug-In . SVG Version: 6.00 Build 51448)  -->
<svg
   xmlns:dc="http://purl.org/dc/elements/1.1/"
   xmlns:cc="http://web.resource.org/cc/"
   xmlns:rdf="http://www.w3.org/1999/02/22-rdf-syntax-ns#"
   xmlns:svg="http://www.w3.org/2000/svg"
   xmlns="http://www.w3.org/2000/svg"
   xmlns:xlink="http://www.w3.org/1999/xlink"
   xmlns:sodipodi="http://sodipodi.sourceforge.net/DTD/sodipodi-0.dtd"
   xmlns:inkscape="http://www.inkscape.org/namespaces/inkscape"
   version="1.1"
   id="Livello_1"
   width="128"
   height="128"
   viewBox="0 0 128 128"
   overflow="visible"
   enable-background="new 0 0 128 128"
   xml:space="preserve"
   sodipodi:version="0.32"
   inkscape:version="0.44.1"
   sodipodi:docname="konqueror.svg"
   sodipodi:docbase="/Users/david/Progetti/oxygen-dev/studio"><metadata
   id="metadata7258"><rdf:RDF><cc:Work
       rdf:about=""><dc:format>image/svg+xml</dc:format><dc:type
         rdf:resource="http://purl.org/dc/dcmitype/StillImage" /></cc:Work></rdf:RDF></metadata><defs
   id="defs7256"><radialGradient
   xlink:href="#XMLID_110_"
   id="radialGradient7645"
   cx="74.611298"
   cy="66.035202"
   r="7.7451"
   fx="77.539803"
   fy="73.205299"
   gradientTransform="matrix(0.9977,-6.72e-2,6.72e-2,0.9977,-4.6726,4.7878)"
   gradientUnits="userSpaceOnUse"
   spreadMethod="pad">
		<stop
   offset="0"
   style="stop-color:#FFFFFF"
   id="stop7647" />
		<stop
   offset="1"
   style="stop-color:#000000"
   id="stop7649" />
	</radialGradient><radialGradient
   inkscape:collect="always"
   xlink:href="#XMLID_72_"
   id="radialGradient5400"
   gradientUnits="userSpaceOnUse"
   gradientTransform="matrix(0.752459,0.505144,-0.505144,0.752459,26.77144,-15.77464)"
   cx="47.582001"
   cy="30.584"
   fx="50.021099"
   fy="27.666901"
   r="5.5998998" /><radialGradient
   inkscape:collect="always"
   xlink:href="#XMLID_72_"
   id="radialGradient5398"
   gradientUnits="userSpaceOnUse"
   gradientTransform="matrix(0.799675,0.426481,-0.426481,0.799675,62.50542,-15.23098)"
   cx="66.300797"
   cy="106.3525"
   fx="59.748402"
   fy="106.177"
   r="6.5546999" /><radialGradient
   inkscape:collect="always"
   xlink:href="#XMLID_72_"
   id="radialGradient5396"
   gradientUnits="userSpaceOnUse"
   gradientTransform="matrix(0.904166,-6.09e-2,6.09e-2,0.904166,1.43405,9.402706)"
   cx="61.417"
   cy="70.335899"
   fx="64.085701"
   fy="76.870102"
   r="7.0581002" /><linearGradient
   inkscape:collect="always"
   xlink:href="#XMLID_66_"
   id="linearGradient5394"
   gradientUnits="userSpaceOnUse"
   gradientTransform="matrix(0.90625,0,0,0.90625,5.4375,5.4375)"
   x1="90.726997"
   y1="42.274502"
   x2="109.81"
   y2="42.274502" /><radialGradient
   inkscape:collect="always"
   xlink:href="#XMLID_66_"
   id="radialGradient5392"
   gradientUnits="userSpaceOnUse"
   gradientTransform="matrix(1,0,0,0.189875,0,75.40759)"
   cx="55.237297"
   cy="93.081375"
   fx="55.237297"
   fy="93.081375"
   r="36.428986" /><radialGradient
   inkscape:collect="always"
   xlink:href="#XMLID_66_"
   id="radialGradient5390"
   gradientUnits="userSpaceOnUse"
   gradientTransform="matrix(1,0,0,0.386603,0,39.66544)"
   cx="51.922235"
   cy="64.665233"
   fx="51.922235"
   fy="64.665233"
   r="37.981391" /><radialGradient
   inkscape:collect="always"
   xlink:href="#XMLID_66_"
   id="radialGradient5388"
   gradientUnits="userSpaceOnUse"
   gradientTransform="matrix(0.90625,0,0,0.90625,5.4375,5.4375)"
   cx="75.122101"
   cy="45.164101"
   r="30.476" /><radialGradient
   inkscape:collect="always"
   xlink:href="#XMLID_65_"
   id="radialGradient5386"
   gradientUnits="userSpaceOnUse"
   gradientTransform="matrix(0.863656,3.80625e-3,-3.80625e-3,0.863656,13.50004,-22.53318)"
   cx="41.043499"
   cy="76.447304"
   r="57.298901" /><radialGradient
   inkscape:collect="always"
   xlink:href="#XMLID_64_"
   id="radialGradient5384"
   gradientUnits="userSpaceOnUse"
   gradientTransform="matrix(0.863656,3.80625e-3,-3.80625e-3,0.863656,13.50004,-22.53318)"
   cx="41.267101"
   cy="76.440399"
   r="57.117401" /><radialGradient
   inkscape:collect="always"
   xlink:href="#XMLID_63_"
   id="radialGradient5382"
   gradientUnits="userSpaceOnUse"
   gradientTransform="matrix(0.863656,3.80625e-3,-3.80625e-3,0.863656,13.50004,-22.53318)"
   cx="41.090302"
   cy="76.441399"
   r="57.2607" /><radialGradient
   inkscape:collect="always"
   xlink:href="#XMLID_60_"
   id="radialGradient5380"
   gradientUnits="userSpaceOnUse"
   gradientTransform="matrix(0.863656,3.80625e-3,-3.80625e-3,0.863656,13.50004,-22.53318)"
   cx="41.078602"
   cy="76.4375"
   r="57.271599" /><radialGradient
   inkscape:collect="always"
   xlink:href="#XMLID_59_"
   id="radialGradient5378"
   gradientUnits="userSpaceOnUse"
   gradientTransform="matrix(0.863656,3.80625e-3,-3.80625e-3,0.863656,13.50004,-22.53318)"
   cx="40.5532"
   cy="76.454102"
   r="57.6535" /><radialGradient
   inkscape:collect="always"
   xlink:href="#XMLID_58_"
   id="radialGradient5376"
   gradientUnits="userSpaceOnUse"
   gradientTransform="matrix(0.863656,3.80625e-3,-3.80625e-3,0.863656,13.50004,-22.53318)"
   cx="41.099098"
   cy="76.450203"
   r="57.252899" /><radialGradient
   inkscape:collect="always"
   xlink:href="#XMLID_57_"
   id="radialGradient5374"
   gradientUnits="userSpaceOnUse"
   gradientTransform="matrix(0.863656,3.80625e-3,-3.80625e-3,0.863656,13.50004,-22.53318)"
   cx="41.213402"
   cy="76.448196"
   r="57.159401" /><radialGradient
   inkscape:collect="always"
   xlink:href="#XMLID_56_"
   id="radialGradient5372"
   gradientUnits="userSpaceOnUse"
   gradientTransform="matrix(0.863656,3.80625e-3,-3.80625e-3,0.863656,13.50004,-22.53318)"
   cx="41.0308"
   cy="76.419899"
   r="57.328098" /><radialGradient
   gradientUnits="userSpaceOnUse"
   gradientTransform="matrix(0.953,4.2e-3,-4.2e-3,0.953,8.8966,-30.8642)"
   r="57.266102"
   cy="76.470703"
   cx="41.074699"
   id="XMLID_55_">
		<stop
   id="stop3576"
   style="stop-color:#FFFFFF"
   offset="0.2485" />
		<stop
   id="stop3578"
   style="stop-color:#C7ECFF"
   offset="0.5207" />
		<stop
   id="stop3580"
   style="stop-color:#7AC3FF"
   offset="0.7515" />
		<stop
   id="stop3582"
   style="stop-color:#63B8FF"
   offset="0.858" />
		<stop
   id="stop3584"
   style="stop-color:#8ACAFF"
   offset="0.9527" />
	</radialGradient><radialGradient
   inkscape:collect="always"
   xlink:href="#XMLID_55_"
   id="radialGradient5370"
   gradientUnits="userSpaceOnUse"
   gradientTransform="matrix(0.863656,3.80625e-3,-3.80625e-3,0.863656,13.50004,-22.53318)"
   cx="41.074699"
   cy="76.470703"
   r="57.266102" /><radialGradient
   gradientUnits="userSpaceOnUse"
   gradientTransform="matrix(0.953,4.2e-3,-4.2e-3,0.953,8.8966,-30.8642)"
   r="57.307098"
   cy="76.444298"
   cx="41.0298"
   id="XMLID_54_">
		<stop
   id="stop3561"
   style="stop-color:#BFD9FF"
   offset="0.5207" />
		<stop
   id="stop3563"
   style="stop-color:#80B3FF"
   offset="0.7515" />
		<stop
   id="stop3565"
   style="stop-color:#80B3FF"
   offset="0.858" />
		<stop
   id="stop3567"
   style="stop-color:#7AB0FA"
   offset="0.8995" />
		<stop
   id="stop3569"
   style="stop-color:#68A8EC"
   offset="0.9563" />
		<stop
   id="stop3571"
   style="stop-color:#56A0DE"
   offset="1" />
	</radialGradient><radialGradient
   inkscape:collect="always"
   xlink:href="#XMLID_54_"
   id="radialGradient5368"
   gradientUnits="userSpaceOnUse"
   gradientTransform="matrix(0.863656,3.80625e-3,-3.80625e-3,0.863656,13.50004,-22.53318)"
   cx="41.0298"
   cy="76.444298"
   r="57.307098" /><radialGradient
   gradientUnits="userSpaceOnUse"
   gradientTransform="matrix(0.953,0,0,0.953,2.5914,2.6856)"
   r="46.678699"
   cy="76.084"
   cx="52.2803"
   id="XMLID_53_">
		<stop
   id="stop3544"
   style="stop-color:#FFFFFF"
   offset="0.2485" />
		<stop
   id="stop3546"
   style="stop-color:#C7ECFF"
   offset="0.5207" />
		<stop
   id="stop3548"
   style="stop-color:#C3EAFF"
   offset="0.6268" />
		<stop
   id="stop3550"
   style="stop-color:#B8E4FF"
   offset="0.7285" />
		<stop
   id="stop3552"
   style="stop-color:#A4DAFF"
   offset="0.8283" />
		<stop
   id="stop3554"
   style="stop-color:#89CBFF"
   offset="0.9263" />
		<stop
   id="stop3556"
   style="stop-color:#70BEFF"
   offset="1" />
	</radialGradient><radialGradient
   inkscape:collect="always"
   xlink:href="#XMLID_53_"
   id="radialGradient5366"
   gradientUnits="userSpaceOnUse"
   gradientTransform="matrix(0.863656,0,0,0.863656,7.785956,7.871325)"
   cx="52.2803"
   cy="76.084"
   r="46.678699" /><radialGradient
   gradientUnits="userSpaceOnUse"
   gradientTransform="matrix(0.953,4.2e-3,-4.2e-3,0.953,8.8966,-30.8642)"
   r="57.312199"
   cy="76.427696"
   cx="41.021"
   id="XMLID_52_">
		<stop
   id="stop3531"
   style="stop-color:#FFFFFF"
   offset="0.2485" />
		<stop
   id="stop3533"
   style="stop-color:#C7ECFF"
   offset="0.5207" />
		<stop
   id="stop3535"
   style="stop-color:#7AC3FF"
   offset="0.7515" />
		<stop
   id="stop3537"
   style="stop-color:#63B8FF"
   offset="0.858" />
		<stop
   id="stop3539"
   style="stop-color:#8ACAFF"
   offset="0.9527" />
	</radialGradient><radialGradient
   inkscape:collect="always"
   xlink:href="#XMLID_52_"
   id="radialGradient5364"
   gradientUnits="userSpaceOnUse"
   gradientTransform="matrix(0.863656,3.80625e-3,-3.80625e-3,0.863656,13.50004,-22.53318)"
   cx="41.021"
   cy="76.427696"
   r="57.312199" /><radialGradient
   gradientUnits="userSpaceOnUse"
   gradientTransform="matrix(0.953,0,0,0.953,2.5914,2.6856)"
   r="57.306"
   cy="60.963902"
   cx="43.9482"
   id="XMLID_51_">
		<stop
   id="stop3522"
   style="stop-color:#FFFFFF"
   offset="0.2485" />
		<stop
   id="stop3524"
   style="stop-color:#C7ECFF"
   offset="0.5207" />
		<stop
   id="stop3526"
   style="stop-color:#8ACAFF"
   offset="0.9527" />
	</radialGradient><radialGradient
   inkscape:collect="always"
   xlink:href="#XMLID_51_"
   id="radialGradient5362"
   gradientUnits="userSpaceOnUse"
   gradientTransform="matrix(0.863656,0,0,0.863656,7.785956,7.871325)"
   cx="43.9482"
   cy="60.963902"
   r="57.306" /><radialGradient
   gradientUnits="userSpaceOnUse"
   gradientTransform="matrix(0.953,4.2e-3,-4.2e-3,0.953,8.8966,-30.8642)"
   r="57.307499"
   cy="76.441399"
   cx="41.0298"
   id="XMLID_50_">
		<stop
   id="stop3507"
   style="stop-color:#BFD9FF"
   offset="0.5207" />
		<stop
   id="stop3509"
   style="stop-color:#80B3FF"
   offset="0.7515" />
		<stop
   id="stop3511"
   style="stop-color:#80B3FF"
   offset="0.858" />
		<stop
   id="stop3513"
   style="stop-color:#7AB0FA"
   offset="0.8995" />
		<stop
   id="stop3515"
   style="stop-color:#68A8EC"
   offset="0.9563" />
		<stop
   id="stop3517"
   style="stop-color:#56A0DE"
   offset="1" />
	</radialGradient><radialGradient
   inkscape:collect="always"
   xlink:href="#XMLID_50_"
   id="radialGradient5360"
   gradientUnits="userSpaceOnUse"
   gradientTransform="matrix(0.863656,3.80625e-3,-3.80625e-3,0.863656,13.50004,-22.53318)"
   cx="41.0298"
   cy="76.441399"
   r="57.307499" /><radialGradient
   gradientUnits="userSpaceOnUse"
   gradientTransform="matrix(0.953,0,0,0.953,2.5914,2.6856)"
   r="57.310001"
   cy="60.973598"
   cx="43.959"
   id="XMLID_49_">
		<stop
   id="stop3498"
   style="stop-color:#FFFFFF"
   offset="0.2485" />
		<stop
   id="stop3500"
   style="stop-color:#C7ECFF"
   offset="0.5207" />
		<stop
   id="stop3502"
   style="stop-color:#058EFF"
   offset="0.9527" />
	</radialGradient><radialGradient
   inkscape:collect="always"
   xlink:href="#XMLID_49_"
   id="radialGradient5358"
   gradientUnits="userSpaceOnUse"
   gradientTransform="matrix(0.863656,0,0,0.863656,7.785956,7.871325)"
   cx="43.959"
   cy="60.973598"
   r="57.310001" /><radialGradient
   gradientUnits="userSpaceOnUse"
   gradientTransform="matrix(0.948,-9.81e-2,9.81e-2,0.948,-2.0096,9.2425)"
   r="57.3041"
   cy="39.725101"
   cx="48.304699"
   id="XMLID_48_">
		<stop
   id="stop3485"
   style="stop-color:#FFFFFF"
   offset="0.2485" />
		<stop
   id="stop3487"
   style="stop-color:#BFD9FF"
   offset="0.5207" />
		<stop
   id="stop3489"
   style="stop-color:#80B3FF"
   offset="0.7515" />
		<stop
   id="stop3491"
   style="stop-color:#6193CF"
   offset="0.858" />
		<stop
   id="stop3493"
   style="stop-color:#80B3FF"
   offset="1" />
	</radialGradient><radialGradient
   inkscape:collect="always"
   xlink:href="#XMLID_48_"
   id="radialGradient5356"
   gradientUnits="userSpaceOnUse"
   gradientTransform="matrix(0.859125,-8.890313e-2,8.890313e-2,0.859125,3.6163,13.81352)"
   cx="48.304699"
   cy="39.725101"
   r="57.3041" /><radialGradient
   gradientUnits="userSpaceOnUse"
   gradientTransform="matrix(0.953,0,0,0.953,2.5914,2.6856)"
   fy="60.575199"
   fx="80.556396"
   r="71.870102"
   cy="53.120098"
   cx="39.9678"
   id="XMLID_47_">
		<stop
   id="stop3466"
   style="stop-color:#FFFFFF"
   offset="0" />
		<stop
   id="stop3468"
   style="stop-color:#F5FAFE"
   offset="0.0669" />
		<stop
   id="stop3470"
   style="stop-color:#DBEBFB"
   offset="0.1789" />
		<stop
   id="stop3472"
   style="stop-color:#B1D4F6"
   offset="0.3223" />
		<stop
   id="stop3474"
   style="stop-color:#77B4F0"
   offset="0.4916" />
		<stop
   id="stop3476"
   style="stop-color:#2D8BE8"
   offset="0.6803" />
		<stop
   id="stop3478"
   style="stop-color:#0072E3"
   offset="0.787" />
		<stop
   id="stop3480"
   style="stop-color:#8ACAFF"
   offset="0.9527" />
	</radialGradient><radialGradient
   inkscape:collect="always"
   xlink:href="#XMLID_47_"
   id="radialGradient5354"
   gradientUnits="userSpaceOnUse"
   gradientTransform="matrix(0.863656,0,0,0.863656,7.785956,7.871325)"
   cx="39.9678"
   cy="53.120098"
   fx="80.556396"
   fy="60.575199"
   r="71.870102" /><radialGradient
   gradientUnits="userSpaceOnUse"
   gradientTransform="matrix(0.953,4.2e-3,-4.2e-3,0.953,8.8966,-30.8642)"
   r="57.264801"
   cy="76.421898"
   cx="41.050301"
   id="XMLID_46_">
		<stop
   id="stop3453"
   style="stop-color:#FFFFFF"
   offset="0.2485" />
		<stop
   id="stop3455"
   style="stop-color:#C7ECFF"
   offset="0.5207" />
		<stop
   id="stop3457"
   style="stop-color:#7AC3FF"
   offset="0.7515" />
		<stop
   id="stop3459"
   style="stop-color:#63B8FF"
   offset="0.858" />
		<stop
   id="stop3461"
   style="stop-color:#8ACAFF"
   offset="0.9527" />
	</radialGradient><radialGradient
   inkscape:collect="always"
   xlink:href="#XMLID_46_"
   id="radialGradient5352"
   gradientUnits="userSpaceOnUse"
   gradientTransform="matrix(0.863656,3.80625e-3,-3.80625e-3,0.863656,13.50004,-22.53318)"
   cx="41.050301"
   cy="76.421898"
   r="57.264801" /><radialGradient
   gradientUnits="userSpaceOnUse"
   gradientTransform="matrix(0.953,0,0,0.953,2.5914,2.6856)"
   r="57.311901"
   cy="60.973598"
   cx="43.959"
   id="XMLID_45_">
		<stop
   id="stop3444"
   style="stop-color:#FFFFFF"
   offset="0.2485" />
		<stop
   id="stop3446"
   style="stop-color:#C7ECFF"
   offset="0.5207" />
		<stop
   id="stop3448"
   style="stop-color:#8ACAFF"
   offset="0.9527" />
	</radialGradient><radialGradient
   inkscape:collect="always"
   xlink:href="#XMLID_45_"
   id="radialGradient5350"
   gradientUnits="userSpaceOnUse"
   gradientTransform="matrix(0.863656,0,0,0.863656,7.785956,7.871325)"
   cx="43.959"
   cy="60.973598"
   r="57.311901" /><radialGradient
   gradientUnits="userSpaceOnUse"
   gradientTransform="matrix(0.953,4.2e-3,-4.2e-3,0.953,8.8966,-30.8642)"
   r="57.309101"
   cy="76.444298"
   cx="41.028801"
   id="XMLID_44_">
		<stop
   id="stop3429"
   style="stop-color:#BFD9FF"
   offset="0.5207" />
		<stop
   id="stop3431"
   style="stop-color:#80B3FF"
   offset="0.7515" />
		<stop
   id="stop3433"
   style="stop-color:#80B3FF"
   offset="0.858" />
		<stop
   id="stop3435"
   style="stop-color:#7AB0FA"
   offset="0.8995" />
		<stop
   id="stop3437"
   style="stop-color:#68A8EC"
   offset="0.9563" />
		<stop
   id="stop3439"
   style="stop-color:#56A0DE"
   offset="1" />
	</radialGradient><radialGradient
   inkscape:collect="always"
   xlink:href="#XMLID_44_"
   id="radialGradient5348"
   gradientUnits="userSpaceOnUse"
   gradientTransform="matrix(0.863656,3.80625e-3,-3.80625e-3,0.863656,13.50004,-22.53318)"
   cx="41.028801"
   cy="76.444298"
   r="57.309101" /><radialGradient
   gradientUnits="userSpaceOnUse"
   gradientTransform="matrix(0.953,0,0,0.953,2.5914,2.6856)"
   r="57.304199"
   cy="60.965801"
   cx="43.959"
   id="XMLID_43_">
		<stop
   id="stop3420"
   style="stop-color:#FFFFFF"
   offset="0.2485" />
		<stop
   id="stop3422"
   style="stop-color:#C7ECFF"
   offset="0.5207" />
		<stop
   id="stop3424"
   style="stop-color:#8ACAFF"
   offset="0.9527" />
	</radialGradient><radialGradient
   inkscape:collect="always"
   xlink:href="#XMLID_43_"
   id="radialGradient5346"
   gradientUnits="userSpaceOnUse"
   gradientTransform="matrix(0.863656,0,0,0.863656,7.785956,7.871325)"
   cx="43.959"
   cy="60.965801"
   r="57.304199" /><radialGradient
   gradientUnits="userSpaceOnUse"
   gradientTransform="matrix(0.953,4.2e-3,-4.2e-3,0.953,8.8966,-30.8642)"
   r="57.304501"
   cy="76.441399"
   cx="41.0298"
   id="XMLID_42_">
		<stop
   id="stop3407"
   style="stop-color:#FFFFFF"
   offset="0.2485" />
		<stop
   id="stop3409"
   style="stop-color:#C7ECFF"
   offset="0.5207" />
		<stop
   id="stop3411"
   style="stop-color:#7AC3FF"
   offset="0.7515" />
		<stop
   id="stop3413"
   style="stop-color:#63B8FF"
   offset="0.858" />
		<stop
   id="stop3415"
   style="stop-color:#8ACAFF"
   offset="0.9527" />
	</radialGradient><radialGradient
   inkscape:collect="always"
   xlink:href="#XMLID_42_"
   id="radialGradient5344"
   gradientUnits="userSpaceOnUse"
   gradientTransform="matrix(0.863656,3.80625e-3,-3.80625e-3,0.863656,13.50004,-22.53318)"
   cx="41.0298"
   cy="76.441399"
   r="57.304501" /><radialGradient
   gradientUnits="userSpaceOnUse"
   gradientTransform="matrix(0.953,0,0,0.953,2.5914,2.6856)"
   r="57.312801"
   cy="60.973598"
   cx="43.960899"
   id="XMLID_41_">
		<stop
   id="stop3398"
   style="stop-color:#FFFFFF"
   offset="0.2485" />
		<stop
   id="stop3400"
   style="stop-color:#C7ECFF"
   offset="0.5207" />
		<stop
   id="stop3402"
   style="stop-color:#8ACAFF"
   offset="0.9527" />
	</radialGradient><radialGradient
   inkscape:collect="always"
   xlink:href="#XMLID_41_"
   id="radialGradient5342"
   gradientUnits="userSpaceOnUse"
   gradientTransform="matrix(0.863656,0,0,0.863656,7.785956,7.871325)"
   cx="43.960899"
   cy="60.973598"
   r="57.312801" /><radialGradient
   gradientUnits="userSpaceOnUse"
   gradientTransform="matrix(0.953,4.2e-3,-4.2e-3,0.953,8.8966,-30.8642)"
   r="57.305401"
   cy="76.441399"
   cx="41.0298"
   id="XMLID_40_">
		<stop
   id="stop3383"
   style="stop-color:#BFD9FF"
   offset="0.5207" />
		<stop
   id="stop3385"
   style="stop-color:#80B3FF"
   offset="0.7515" />
		<stop
   id="stop3387"
   style="stop-color:#80B3FF"
   offset="0.858" />
		<stop
   id="stop3389"
   style="stop-color:#7AB0FA"
   offset="0.8995" />
		<stop
   id="stop3391"
   style="stop-color:#68A8EC"
   offset="0.9563" />
		<stop
   id="stop3393"
   style="stop-color:#56A0DE"
   offset="1" />
	</radialGradient><radialGradient
   inkscape:collect="always"
   xlink:href="#XMLID_40_"
   id="radialGradient5340"
   gradientUnits="userSpaceOnUse"
   gradientTransform="matrix(0.863656,3.80625e-3,-3.80625e-3,0.863656,13.50004,-22.53318)"
   cx="41.0298"
   cy="76.441399"
   r="57.305401" /><radialGradient
   gradientUnits="userSpaceOnUse"
   gradientTransform="matrix(0.953,0,0,0.953,2.5914,2.6856)"
   r="57.310902"
   cy="60.973598"
   cx="43.959"
   id="XMLID_39_">
		<stop
   id="stop3374"
   style="stop-color:#FFFFFF"
   offset="0.2485" />
		<stop
   id="stop3376"
   style="stop-color:#C7ECFF"
   offset="0.5207" />
		<stop
   id="stop3378"
   style="stop-color:#8ACAFF"
   offset="0.9527" />
	</radialGradient><radialGradient
   inkscape:collect="always"
   xlink:href="#XMLID_39_"
   id="radialGradient5338"
   gradientUnits="userSpaceOnUse"
   gradientTransform="matrix(0.863656,0,0,0.863656,7.785956,7.871325)"
   cx="43.959"
   cy="60.973598"
   r="57.310902" /><radialGradient
   gradientUnits="userSpaceOnUse"
   gradientTransform="matrix(0.953,0,0,0.953,2.5914,2.6856)"
   r="84.581299"
   cy="39.420898"
   cx="63.4492"
   id="XMLID_38_">
		<stop
   id="stop3341"
   style="stop-color:#BFD9FF"
   offset="0" />
		<stop
   id="stop3343"
   style="stop-color:#B4D1FA"
   offset="0.0569" />
		<stop
   id="stop3345"
   style="stop-color:#98BCEB"
   offset="0.1558" />
		<stop
   id="stop3347"
   style="stop-color:#6A9AD4"
   offset="0.284" />
		<stop
   id="stop3349"
   style="stop-color:#6193CF"
   offset="0.3077" />
		<stop
   id="stop3351"
   style="stop-color:#588DCC"
   offset="0.3445" />
		<stop
   id="stop3353"
   style="stop-color:#407EC4"
   offset="0.4045" />
		<stop
   id="stop3355"
   style="stop-color:#1866B6"
   offset="0.4798" />
		<stop
   id="stop3357"
   style="stop-color:#0057AE"
   offset="0.5207" />
		<stop
   id="stop3359"
   style="stop-color:#80B3FF"
   offset="0.7515" />
		<stop
   id="stop3361"
   style="stop-color:#77ACF9"
   offset="0.7765" />
		<stop
   id="stop3363"
   style="stop-color:#5F99E9"
   offset="0.8173" />
		<stop
   id="stop3365"
   style="stop-color:#377BCF"
   offset="0.8685" />
		<stop
   id="stop3367"
   style="stop-color:#2C72C7"
   offset="0.8817" />
		<stop
   id="stop3369"
   style="stop-color:#0057AE"
   offset="1" />
	</radialGradient><radialGradient
   inkscape:collect="always"
   xlink:href="#XMLID_38_"
   id="radialGradient5336"
   gradientUnits="userSpaceOnUse"
   gradientTransform="matrix(0.953,0,0,0.953,2.5914,2.6856)"
   cx="63.4492"
   cy="39.420898"
   r="84.581299" /><radialGradient
   gradientUnits="userSpaceOnUse"
   r="84.580902"
   cy="39.059101"
   cx="63.792999"
   id="XMLID_37_">
		<stop
   id="stop3332"
   style="stop-color:#103961"
   offset="0" />
		<stop
   id="stop3334"
   style="stop-color:#227AD1"
   offset="0.6746" />
		<stop
   id="stop3336"
   style="stop-color:#00438A"
   offset="0.929" />
	</radialGradient><radialGradient
   inkscape:collect="always"
   xlink:href="#XMLID_37_"
   id="radialGradient5334"
   gradientUnits="userSpaceOnUse"
   gradientTransform="matrix(0.90625,0,0,0.90625,5.4375,5.4375)"
   cx="63.792999"
   cy="39.059101"
   r="84.580902" /><radialGradient
   inkscape:collect="always"
   xlink:href="#XMLID_104_"
   id="radialGradient7601"
   gradientUnits="userSpaceOnUse"
   cx="85.9258"
   cy="43.7856"
   r="26.3907" /><radialGradient
   inkscape:collect="always"
   xlink:href="#XMLID_105_"
   id="radialGradient7603"
   gradientUnits="userSpaceOnUse"
   cx="65.291"
   cy="61.2705"
   r="27.5141" /><radialGradient
   inkscape:collect="always"
   xlink:href="#XMLID_106_"
   id="radialGradient7605"
   gradientUnits="userSpaceOnUse"
   cx="68.459"
   cy="88.4229"
   r="25.0538" /><radialGradient
   inkscape:collect="always"
   xlink:href="#XMLID_107_"
   id="radialGradient7607"
   gradientUnits="userSpaceOnUse"
   cx="107.7012"
   cy="41.2842"
   r="8.3891" />
	<radialGradient
   gradientUnits="userSpaceOnUse"
   r="26.3907"
   cy="43.7856"
   cx="85.9258"
   id="XMLID_104_">
		<stop
   id="stop7200"
   style="stop-color:#FFFFFF"
   offset="0" />
		<stop
   id="stop7202"
   style="stop-color:white;stop-opacity:0;"
   offset="1" />
	</radialGradient>
	
	<radialGradient
   gradientUnits="userSpaceOnUse"
   r="27.5141"
   cy="61.2705"
   cx="65.291"
   id="XMLID_105_">
		<stop
   id="stop7207"
   style="stop-color:#FFFFFF"
   offset="0" />
		<stop
   id="stop7209"
   style="stop-color:#000000"
   offset="1" />
	</radialGradient>
	
	<radialGradient
   gradientUnits="userSpaceOnUse"
   r="25.0538"
   cy="88.4229"
   cx="68.459"
   id="XMLID_106_">
		<stop
   id="stop7214"
   style="stop-color:#FFFFFF"
   offset="0" />
		<stop
   id="stop7216"
   style="stop-color:#000000"
   offset="1" />
	</radialGradient>
	
	<radialGradient
   gradientUnits="userSpaceOnUse"
   r="8.3891"
   cy="41.2842"
   cx="107.7012"
   id="XMLID_107_">
		<stop
   id="stop7221"
   style="stop-color:#FFFFFF"
   offset="0" />
		<stop
   id="stop7223"
   style="stop-color:#000000"
   offset="1" />
	</radialGradient>
	
<radialGradient
   inkscape:collect="always"
   xlink:href="#XMLID_104_"
   id="radialGradient7622"
   gradientUnits="userSpaceOnUse"
   cx="107.7012"
   cy="41.284199"
   r="8.3891001" /><radialGradient
   inkscape:collect="always"
   xlink:href="#XMLID_104_"
   id="radialGradient7625"
   gradientUnits="userSpaceOnUse"
   cx="68.459"
   cy="88.422897"
   r="25.053801" /><radialGradient
   inkscape:collect="always"
   xlink:href="#XMLID_104_"
   id="radialGradient7628"
   gradientUnits="userSpaceOnUse"
   cx="65.291"
   cy="61.2705"
   r="27.514099" /><radialGradient
   inkscape:collect="always"
   xlink:href="#XMLID_104_"
   id="radialGradient7631"
   gradientUnits="userSpaceOnUse"
   cx="85.9258"
   cy="43.7856"
   r="26.3907" />
	
		<radialGradient
   gradientUnits="userSpaceOnUse"
   gradientTransform="matrix(0.8303,0.5574,-0.5574,0.8303,26.7887,-26.0721)"
   fy="23.7029"
   fx="61.9103"
   r="6.5562"
   cy="27.1182"
   cx="59.0547"
   id="XMLID_110_">
		<stop
   id="stop7248"
   style="stop-color:#FFFFFF"
   offset="0" />
		<stop
   id="stop7250"
   style="stop-color:white;stop-opacity:0;"
   offset="1" />
	</radialGradient>
	

	
		<radialGradient
   gradientUnits="userSpaceOnUse"
   gradientTransform="matrix(0.9977,-6.72e-2,6.72e-2,0.9977,-4.6726,4.7878)"
   fy="73.205299"
   fx="77.539803"
   r="7.7451"
   cy="66.035202"
   cx="74.611298"
   id="XMLID_108_"
   xlink:href="#XMLID_110_">
		<stop
   id="stop7230"
   style="stop-color:#FFFFFF"
   offset="0" />
		<stop
   id="stop7232"
   style="stop-color:#000000"
   offset="1" />
	</radialGradient>
	

	
		<radialGradient
   gradientUnits="userSpaceOnUse"
   gradientTransform="matrix(0.8824,0.4706,-0.4706,0.8824,65.5595,-25.1598)"
   fy="96.2132"
   fx="65.172"
   r="5.6758"
   cy="96.3652"
   cx="70.8457"
   id="XMLID_109_">
		<stop
   id="stop7239"
   style="stop-color:#FFFFFF"
   offset="0" />
		<stop
   id="stop7241"
   style="stop-color:#000000"
   offset="1" />
	</radialGradient>
	
<radialGradient
   inkscape:collect="always"
   xlink:href="#XMLID_110_"
   id="radialGradient7654"
   gradientUnits="userSpaceOnUse"
   gradientTransform="matrix(0.9977,-6.72e-2,6.72e-2,0.9977,-4.6726,4.7878)"
   cx="74.611298"
   cy="66.035202"
   fx="77.539803"
   fy="73.205299"
   r="7.7451" /><radialGradient
   inkscape:collect="always"
   xlink:href="#XMLID_110_"
   id="radialGradient7658"
   gradientUnits="userSpaceOnUse"
   gradientTransform="matrix(0.8824,0.4706,-0.4706,0.8824,65.5595,-25.1598)"
   cx="70.845703"
   cy="96.365196"
   fx="65.171997"
   fy="96.213203"
   r="5.6757998" /></defs><sodipodi:namedview
   inkscape:window-height="577"
   inkscape:window-width="823"
   inkscape:pageshadow="2"
   inkscape:pageopacity="0.0"
   guidetolerance="10.0"
   gridtolerance="10.0"
   objecttolerance="10.0"
   borderopacity="1.0"
   bordercolor="#666666"
   pagecolor="#ffffff"
   id="base"
   inkscape:zoom="2.953125"
   inkscape:cx="64"
   inkscape:cy="64"
   inkscape:window-x="416"
   inkscape:window-y="491"
   inkscape:current-layer="Livello_1" />
<g
   id="g6507">
	<path
   opacity="0.1"
   d="M26.236,3.122L26.236,3.122l-7.613,7.612c-0.565,0.565-0.876,1.319-0.876,2.124   c0,0.652,0.216,1.295,0.607,1.811c0.001,0.001,5.253,6.922,5.996,7.901c-0.498,0.697-1.375,1.927-1.375,1.927   c-0.366,0.515-0.56,1.118-0.56,1.744c0,0.799,0.312,1.551,0.878,2.118c0,0,1.883,1.889,2.6,2.607   c-1.849,3.215-3.352,6.623-4.478,10.163c-0.99,0.001-3.78,0.006-3.78,0.006c-1.46,0.003-2.666,0.991-2.933,2.403   c0,0-0.373,1.965-0.579,3.051c-1.234,0.169-9.531,1.306-9.531,1.306C3.115,48.097,2,49.375,2,50.866v10.767   c0,1.491,1.114,2.769,2.592,2.972c0.001,0.001,7.12,0.977,9.372,1.285c0.147,0.856,0.417,2.42,0.417,2.42   c0.248,1.439,1.488,2.487,2.951,2.49c0.011,0,2.303,0.004,3.504,0.006c1.058,3.816,2.552,7.506,4.458,11   c-0.693,0.695-2.497,2.504-2.497,2.504c-0.574,0.575-0.89,1.328-0.89,2.119c0,0.603,0.185,1.186,0.535,1.688   c0.004,0.005,0.993,1.417,1.576,2.249c-0.759,1-5.663,7.462-5.663,7.462c-0.398,0.524-0.608,1.15-0.608,1.812   c0,0.805,0.312,1.559,0.877,2.124l7.613,7.612c1.055,1.054,2.745,1.17,3.933,0.27c-0.07,0.053-0.162,0.049-0.242,0.081   c0.538-0.309,2.104-1.493,7.706-5.745c0.746,0.521,2.249,1.573,2.249,1.573c1.194,0.838,2.761,0.693,3.809-0.354   c0,0,1.808-1.802,2.503-2.495c3.49,1.905,7.181,3.4,11.001,4.459c0.001,0.99,0.004,3.501,0.004,3.501   c0.001,1.465,1.05,2.707,2.492,2.953c0,0,1.547,0.268,2.399,0.414c0.172,1.236,1.306,9.374,1.306,9.374   c0.201,1.478,1.479,2.593,2.972,2.593h10.766c1.491,0,2.769-1.114,2.972-2.591c0.001-0.003,1.143-8.334,1.307-9.532   c0.928-0.175,3.005-0.568,3.005-0.568c1.416-0.266,2.405-1.474,2.405-2.938c0,0,0.002-2.521,0.003-3.771   c3.555-1.126,6.979-2.634,10.208-4.492c0.718,0.716,2.608,2.601,2.608,2.601c0.971,0.968,2.439,1.12,3.604,0.446   c0.041-0.017,0.093-0.041,0.147-0.073c0.034-0.022,0.074-0.029,0.107-0.054c-0.014,0.01-0.032,0.006-0.047,0.015   c0.163-0.101,0.378-0.251,0.773-0.533c0,0,0.658-0.47,1.188-0.847c1.007,0.762,7.917,5.984,7.917,5.984   c1.19,0.901,2.881,0.785,3.935-0.27l7.612-7.614c0.565-0.563,0.877-1.318,0.877-2.123c0-0.662-0.211-1.289-0.61-1.814   c0,0-4.683-6.17-6.13-8.076c0.533-0.792,1.782-2.646,1.782-2.646c0.33-0.487,0.505-1.056,0.505-1.641   c0-0.794-0.317-1.548-0.893-2.123c0,0-1.91-1.91-2.829-2.83c3.735-7.329,5.743-15.464,5.743-23.607   c0-28.797-23.429-52.226-52.226-52.226c-8.142,0-16.278,2.008-23.609,5.744c-0.709-0.709-2.829-2.829-2.829-2.829   c-1.029-1.029-2.577-1.188-3.765-0.388c0,0-1.853,1.249-2.645,1.783c-0.995-0.755-8.08-6.132-8.08-6.132   C28.982,1.951,27.291,2.066,26.236,3.122z"
   id="path6509" />
	<path
   opacity="0.15"
   d="M26.943,3.829L26.943,3.829l-7.613,7.613c-0.386,0.386-0.583,0.9-0.583,1.417   c0,0.424,0.133,0.85,0.404,1.207c0,0,4.933,6.5,6.441,8.487c-0.566,0.793-1.803,2.526-1.803,2.526   c-0.25,0.352-0.374,0.759-0.374,1.163c0,0.514,0.198,1.023,0.585,1.411c0,0,2.353,2.359,3.114,3.123   c-2.121,3.56-3.801,7.367-5.004,11.352c-1.047,0.001-4.473,0.008-4.473,0.008c-0.973,0.002-1.776,0.655-1.953,1.589   c0,0-0.522,2.756-0.712,3.758c-1.246,0.171-10.244,1.404-10.244,1.404C3.743,49.02,3,49.872,3,50.866v10.767   c0,0.995,0.743,1.846,1.729,1.982c0,0,7.696,1.055,10.097,1.384c0.166,0.966,0.541,3.142,0.541,3.142   c0.165,0.96,0.993,1.658,1.967,1.66c0,0,2.833,0.005,4.222,0.007c1.109,4.256,2.769,8.353,4.945,12.204   c-0.759,0.761-2.996,3.005-2.996,3.005c-0.396,0.396-0.598,0.904-0.598,1.413c0,0.387,0.117,0.774,0.355,1.116   c0,0,1.304,1.86,1.993,2.845c-0.767,1.011-6.104,8.043-6.104,8.043c-0.271,0.357-0.404,0.782-0.404,1.207   c0,0.516,0.197,1.03,0.583,1.416l7.613,7.613c0.703,0.702,1.83,0.78,2.622,0.18c0.001,0,6.128-4.65,8.044-6.104   c0.816,0.571,2.846,1.991,2.846,1.991c0.791,0.555,1.831,0.455,2.529-0.242c0,0,2.022-2.017,3.004-2.995   c3.848,2.175,7.945,3.835,12.206,4.946c0.001,1.086,0.005,4.22,0.005,4.22c0.001,0.977,0.699,1.805,1.661,1.969   c0,0,2.181,0.376,3.12,0.538c0.254,1.736,0.935,6.658,1.407,10.1c0.134,0.985,0.986,1.729,1.981,1.729h10.766   c0.994,0,1.846-0.742,1.981-1.728c0-0.001,1.075-7.839,1.404-10.244c0.998-0.188,3.712-0.702,3.712-0.702   c0.937-0.176,1.591-0.98,1.591-1.956c0,0,0.002-3.067,0.003-4.466c3.998-1.202,7.822-2.887,11.399-5.019   c0.758,0.755,3.123,3.114,3.123,3.114c0.693,0.691,1.775,0.781,2.573,0.213c0.001,0,1.614-1.152,2.511-1.791   c1.451,1.081,5.605,4.227,8.505,6.428c0.793,0.601,1.921,0.523,2.623-0.18l7.612-7.614c0.387-0.386,0.584-0.899,0.584-1.416   c0-0.425-0.134-0.851-0.406-1.209c0,0-5.055-6.659-6.563-8.647c0.571-0.848,2.183-3.239,2.183-3.239   c0.225-0.332,0.334-0.707,0.334-1.082c0-0.511-0.204-1.021-0.6-1.416c0,0-2.295-2.296-3.317-3.317   c3.862-7.314,5.938-15.524,5.938-23.827c0-28.246-22.979-51.226-51.226-51.226c-8.303,0-16.513,2.077-23.828,5.938   c-0.749-0.749-3.317-3.316-3.317-3.316c-0.686-0.686-1.713-0.795-2.499-0.266c0,0-2.163,1.458-3.238,2.183   c-1-0.758-8.65-6.565-8.65-6.565C28.774,3.048,27.646,3.125,26.943,3.829z"
   id="path6511" />
	<path
   opacity="0.2"
   d="M27.65,4.536l-7.613,7.613c-0.354,0.354-0.392,0.914-0.09,1.312l6.886,9.073   c-0.022,0.03-2.231,3.125-2.231,3.125c-0.283,0.397-0.239,0.941,0.106,1.287l3.631,3.642c-2.405,3.894-4.266,8.112-5.53,12.538   c-0.001,0-5.17,0.009-5.17,0.009c-0.48,0.001-0.883,0.303-0.972,0.775l-0.846,4.465L4.864,49.875C4.369,49.943,4,50.366,4,50.866   v10.767c0,0.5,0.369,0.923,0.864,0.991l10.822,1.483c0.006,0.037,0.665,3.863,0.665,3.863c0.083,0.479,0.498,0.829,0.984,0.83   l4.976,0.008c1.145,4.689,2.969,9.192,5.421,13.384l-3.52,3.53c-0.342,0.344-0.409,0.853-0.131,1.25l2.411,3.441l-6.545,8.624   c-0.302,0.398-0.264,0.958,0.09,1.312l7.613,7.613c0.354,0.354,0.913,0.392,1.312,0.09l8.624-6.545l3.443,2.409   c0.397,0.278,0.906,0.212,1.25-0.131l3.53-3.519c4.188,2.451,8.691,4.275,13.386,5.422l0.006,4.975c0,0.486,0.351,0.902,0.83,0.984   l3.828,0.659c0.038,0.006,1.521,10.828,1.521,10.828c0.067,0.495,0.49,0.864,0.99,0.864h10.766c0.5,0,0.923-0.369,0.991-0.864   l1.502-10.956l4.419-0.836c0.473-0.089,0.776-0.493,0.776-0.974l0.004-5.166c4.438-1.262,8.672-3.127,12.586-5.544   c0.001,0,3.642,3.632,3.642,3.632c0.346,0.345,0.89,0.39,1.287,0.106l3.098-2.21c0.029-0.022,9.103,6.864,9.103,6.864   c0.398,0.302,0.958,0.264,1.312-0.09l7.612-7.614c0.354-0.354,0.392-0.914,0.089-1.312l-6.997-9.22l2.583-3.832   c0.268-0.396,0.195-0.894-0.144-1.232l-3.812-3.812c4.017-7.335,6.14-15.647,6.14-24.04c0-27.694-22.531-50.226-50.226-50.226   c-8.392,0-16.705,2.123-24.041,6.14l-3.811-3.811c-0.338-0.338-0.836-0.411-1.232-0.144l-3.832,2.583l-9.22-6.999   C28.564,4.144,28.004,4.182,27.65,4.536z"
   id="path6513" />
	<path
   opacity="0.25"
   d="M20.744,12.856c1.503,1.981,6.886,9.073,6.886,9.073c0.13,0.171,0.192,0.381,0.192,0.593   c0,0.219-0.067,0.44-0.197,0.622c0,0-1.575,2.208-2.209,3.096c0.858,0.861,3.631,3.642,3.631,3.642   c0.192,0.193,0.292,0.449,0.292,0.707c0,0.181-0.049,0.363-0.149,0.525c-2.357,3.816-4.181,7.95-5.42,12.287   c-0.123,0.429-0.515,0.724-0.96,0.725c0,0-4.387,0.008-5.169,0.009c-0.309,1.337-0.587,2.763-0.832,4.388   c-0.066,0.439-0.413,0.782-0.853,0.842c0,0-9.803,1.343-10.957,1.501c0,1.102,0,9.665,0,10.767   c2.398,0.329,10.822,1.483,10.822,1.483c0.432,0.06,0.782,0.429,0.855,0.858c0,0,0.473,2.747,0.659,3.826   c1.23,0.002,4.976,0.008,4.976,0.008c0.46,0.001,0.861,0.315,0.97,0.763c1.122,4.598,2.91,9.01,5.312,13.116   c0.092,0.157,0.137,0.331,0.137,0.505c0,0.258-0.1,0.514-0.292,0.706c0,0-2.67,2.678-3.52,3.53c0.692,1.068,1.457,2.173,2.37,3.383   c0.134,0.179,0.202,0.391,0.202,0.603c0,0.213-0.068,0.426-0.204,0.604c0,0-5.843,7.698-6.544,8.624   c1.476,1.476,6.138,6.138,7.613,7.613c1.919-1.456,8.624-6.545,8.624-6.545c0.356-0.271,0.849-0.271,1.207-0.002   c1.217,0.918,2.321,1.681,3.384,2.369c0.852-0.849,3.53-3.519,3.53-3.519c0.322-0.321,0.819-0.385,1.211-0.155   c4.105,2.403,8.518,4.19,13.118,5.313c0.447,0.109,0.762,0.51,0.763,0.971c0,0,0.005,3.745,0.006,4.975   c1.08,0.187,3.827,0.659,3.827,0.659c0.43,0.074,0.8,0.424,0.859,0.855c0,0,1.325,9.67,1.483,10.822c1.102,0,9.664,0,10.766,0   c0.332-2.422,1.502-10.956,1.502-10.956c0.061-0.439,0.403-0.787,0.843-0.854c1.605-0.241,3.018-0.517,4.344-0.821   c0.001-1.203,0.004-5.166,0.004-5.166c0-0.446,0.297-0.839,0.727-0.961c4.351-1.237,8.5-3.065,12.334-5.433   c0.395-0.243,0.904-0.184,1.232,0.143c0,0,2.782,2.775,3.641,3.632c0.889-0.634,3.098-2.21,3.098-2.21   c0.356-0.255,0.866-0.27,1.215-0.005c0,0,8.143,6.181,9.073,6.887c1.471-1.471,6.137-6.139,7.612-7.614   c-0.707-0.931-6.998-9.22-6.998-9.22c-0.135-0.179-0.203-0.392-0.203-0.604c0-0.208,0.064-0.415,0.193-0.592   c0.974-1.326,1.794-2.559,2.539-3.766c-0.781-0.781-3.812-3.812-3.812-3.812c-0.192-0.192-0.293-0.448-0.293-0.707   c0-0.164,0.04-0.329,0.123-0.48c3.937-7.188,6.017-15.335,6.017-23.56c0-27.143-22.082-49.226-49.226-49.226   c-8.225,0-16.372,2.081-23.561,6.017c-0.39,0.213-0.874,0.144-1.188-0.17c0,0-3.029-3.029-3.811-3.811   c-1.207,0.746-2.44,1.566-3.766,2.539c-0.357,0.262-0.844,0.258-1.197-0.01c0,0-8.288-6.291-9.22-6.999   C27.578,6.022,21.523,12.077,20.744,12.856z"
   id="path6515" />
</g>
<linearGradient
   id="XMLID_56_"
   gradientUnits="userSpaceOnUse"
   x1="104.6133"
   y1="75.1152"
   x2="92.7333"
   y2="86.9953">
	<stop
   offset="0.0592"
   style="stop-color:#888888"
   id="stop6518" />
	<stop
   offset="0.0928"
   style="stop-color:#A2A2A2"
   id="stop6520" />
	<stop
   offset="0.1307"
   style="stop-color:#B7B7B7"
   id="stop6522" />
	<stop
   offset="0.173"
   style="stop-color:#C6C6C6"
   id="stop6524" />
	<stop
   offset="0.2231"
   style="stop-color:#CECECE"
   id="stop6526" />
	<stop
   offset="0.3"
   style="stop-color:#D1D1D1"
   id="stop6528" />
	<stop
   offset="0.574"
   style="stop-color:#8C8C8C"
   id="stop6530" />
	<stop
   offset="0.8521"
   style="stop-color:#FFFFFF"
   id="stop6532" />
	<stop
   offset="1"
   style="stop-color:#8F8F8F"
   id="stop6534" />
</linearGradient>
<path
   fill="url(#XMLID_56_)"
   d="M72.183,66.677l29.974,29.975c0.025,0.022,12.904,9.796,12.904,9.796  c0.1,0.076,0.24,0.066,0.33-0.022l8.535-8.537c0.09-0.089,0.1-0.229,0.023-0.33l-9.773-12.877  c-0.023-0.026-30.607-30.609-30.607-30.609L72.183,66.677z"
   id="path6536" />
<linearGradient
   id="XMLID_57_"
   gradientUnits="userSpaceOnUse"
   x1="67.0781"
   y1="70.5664"
   x2="55.0581"
   y2="58.5464">
	<stop
   offset="0.0592"
   style="stop-color:#888888"
   id="stop6539" />
	<stop
   offset="0.0879"
   style="stop-color:#9E9E9E"
   id="stop6541" />
	<stop
   offset="0.1408"
   style="stop-color:#C0C0C0"
   id="stop6543" />
	<stop
   offset="0.1844"
   style="stop-color:#D5D5D5"
   id="stop6545" />
	<stop
   offset="0.213"
   style="stop-color:#DDDDDD"
   id="stop6547" />
	<stop
   offset="0.4083"
   style="stop-color:#8C8C8C"
   id="stop6549" />
	<stop
   offset="0.8521"
   style="stop-color:#FFFFFF"
   id="stop6551" />
	<stop
   offset="1"
   style="stop-color:#8F8F8F"
   id="stop6553" />
</linearGradient>
<path
   fill="url(#XMLID_57_)"
   d="M29.349,84.655c-0.008,0.008-0.016,0.017-0.022,0.025l-9.773,12.877  c-0.076,0.101-0.066,0.241,0.022,0.33l8.537,8.537c0.089,0.089,0.229,0.099,0.33,0.022l12.877-9.773  c0.025-0.022,63.171-63.167,63.171-63.167L92.848,21.511L29.349,84.655z"
   id="path6555" />
<linearGradient
   id="XMLID_58_"
   gradientUnits="userSpaceOnUse"
   x1="55.8955"
   y1="26.3975"
   x2="43.9674"
   y2="38.3256">
	<stop
   offset="0"
   style="stop-color:#979797"
   id="stop6558" />
	<stop
   offset="0.1232"
   style="stop-color:#C8C8C8"
   id="stop6560" />
	<stop
   offset="0.2397"
   style="stop-color:#F0F0F0"
   id="stop6562" />
	<stop
   offset="0.3"
   style="stop-color:#FFFFFF"
   id="stop6564" />
	<stop
   offset="0.5"
   style="stop-color:#8C8C8C"
   id="stop6566" />
	<stop
   offset="0.8166"
   style="stop-color:#FFFFFF"
   id="stop6568" />
	<stop
   offset="1"
   style="stop-color:#8F8F8F"
   id="stop6570" />
</linearGradient>
<path
   fill="url(#XMLID_58_)"
   d="M28.112,2.074l-8.537,8.537c-0.089,0.089-0.098,0.23-0.022,0.33l9.773,12.877  c0.022,0.026,40.448,40.452,40.448,40.452c0.052,0.052,0.122,0.078,0.195,0.073s0.14-0.041,0.184-0.099l10.029-13.252  c0.076-0.1,0.066-0.241-0.022-0.33L41.345,11.847c-0.026-0.022-12.903-9.796-12.903-9.796C28.342,1.976,28.201,1.985,28.112,2.074z"
   id="path6572" />
<linearGradient
   id="XMLID_59_"
   gradientUnits="userSpaceOnUse"
   x1="79.9824"
   y1="67.2832"
   x2="63.5202"
   y2="67.2832">
	<stop
   offset="0"
   style="stop-color:#979797"
   id="stop6575" />
	<stop
   offset="0.0107"
   style="stop-color:#A1A1A1"
   id="stop6577" />
	<stop
   offset="0.0379"
   style="stop-color:#B6B6B6"
   id="stop6579" />
	<stop
   offset="0.0684"
   style="stop-color:#C5C5C5"
   id="stop6581" />
	<stop
   offset="0.1044"
   style="stop-color:#CECECE"
   id="stop6583" />
	<stop
   offset="0.1598"
   style="stop-color:#D1D1D1"
   id="stop6585" />
	<stop
   offset="0.5385"
   style="stop-color:#8C8C8C"
   id="stop6587" />
	<stop
   offset="0.8521"
   style="stop-color:#FFFFFF"
   id="stop6589" />
	<stop
   offset="1"
   style="stop-color:#8F8F8F"
   id="stop6591" />
</linearGradient>
<path
   fill="url(#XMLID_59_)"
   d="M63.52,12.567c-0.139,0-0.251,0.112-0.251,0.251v92.913c0.002,0.035,2.198,16.052,2.198,16.052  c0.017,0.124,0.123,0.217,0.249,0.217h12.072c0.126,0,0.232-0.093,0.249-0.217l2.195-16.017l0.002-92.948  c0-0.139-0.112-0.251-0.251-0.251H63.52z"
   id="path6593" />
<linearGradient
   id="XMLID_60_"
   gradientUnits="userSpaceOnUse"
   x1="61.23"
   y1="62.7324"
   x2="61.23"
   y2="45.6887">
	<stop
   offset="0"
   style="stop-color:#7A7A7A"
   id="stop6596" />
	<stop
   offset="0.006"
   style="stop-color:#7C7C7C"
   id="stop6598" />
	<stop
   offset="0.0797"
   style="stop-color:#909090"
   id="stop6600" />
	<stop
   offset="0.1302"
   style="stop-color:#979797"
   id="stop6602" />
	<stop
   offset="0.1881"
   style="stop-color:#B6B6B6"
   id="stop6604" />
	<stop
   offset="0.2381"
   style="stop-color:#CACACA"
   id="stop6606" />
	<stop
   offset="0.2722"
   style="stop-color:#D1D1D1"
   id="stop6608" />
	<stop
   offset="0.4615"
   style="stop-color:#8C8C8C"
   id="stop6610" />
	<stop
   offset="0.7811"
   style="stop-color:#FFFFFF"
   id="stop6612" />
	<stop
   offset="1"
   style="stop-color:#8F8F8F"
   id="stop6614" />
</linearGradient>
<path
   fill="url(#XMLID_60_)"
   d="M20.268,45.767c-0.012,0-0.023,0.001-0.034,0.002L4.217,47.964C4.093,47.981,4,48.087,4,48.213  v12.073c0,0.125,0.093,0.232,0.217,0.249l16.017,2.195l97.974,0.002c0.139,0,0.251-0.113,0.251-0.251V46.018  c0-0.139-0.112-0.251-0.251-0.251H20.268z"
   id="path6616" />
<linearGradient
   id="XMLID_61_"
   gradientUnits="userSpaceOnUse"
   x1="60.1216"
   y1="66.9277"
   x2="60.1216"
   y2="41.0972">
	<stop
   offset="0"
   style="stop-color:#888888"
   id="stop6619" />
	<stop
   offset="0.0591"
   style="stop-color:#9B9B9B"
   id="stop6621" />
	<stop
   offset="0.1787"
   style="stop-color:#CCCCCC"
   id="stop6623" />
	<stop
   offset="0.1893"
   style="stop-color:#D1D1D1"
   id="stop6625" />
	<stop
   offset="0.574"
   style="stop-color:#8C8C8C"
   id="stop6627" />
	<stop
   offset="0.8521"
   style="stop-color:#FFFFFF"
   id="stop6629" />
	<stop
   offset="1"
   style="stop-color:#8F8F8F"
   id="stop6631" />
</linearGradient>
<path
   fill="url(#XMLID_61_)"
   d="M105.065,41.097c0,0-87.732,0.013-87.923,0.039l-0.315,0.043c-1.076,4.332-1.65,8.86-1.65,13.52  c0,4.154,0.458,8.202,1.318,12.101l88.571,0.128V41.097z"
   id="path6633" />
<linearGradient
   id="XMLID_62_"
   gradientUnits="userSpaceOnUse"
   x1="75.04"
   y1="69.2275"
   x2="56.774"
   y2="50.9615">
	<stop
   offset="0"
   style="stop-color:#979797"
   id="stop6636" />
	<stop
   offset="0.0115"
   style="stop-color:#A1A1A1"
   id="stop6638" />
	<stop
   offset="0.0407"
   style="stop-color:#B6B6B6"
   id="stop6640" />
	<stop
   offset="0.0735"
   style="stop-color:#C5C5C5"
   id="stop6642" />
	<stop
   offset="0.1121"
   style="stop-color:#CECECE"
   id="stop6644" />
	<stop
   offset="0.1716"
   style="stop-color:#D1D1D1"
   id="stop6646" />
	<stop
   offset="0.574"
   style="stop-color:#8C8C8C"
   id="stop6648" />
	<stop
   offset="0.8521"
   style="stop-color:#FFFFFF"
   id="stop6650" />
	<stop
   offset="1"
   style="stop-color:#8F8F8F"
   id="stop6652" />
</linearGradient>
<path
   fill="url(#XMLID_62_)"
   d="M91.043,16.691L23.638,84.299c4.558,7.313,10.75,13.506,18.063,18.062l67.608-67.404L91.043,16.691z  "
   id="path6654" />
<linearGradient
   id="XMLID_63_"
   gradientUnits="userSpaceOnUse"
   x1="59.0723"
   y1="60.5811"
   x2="84.9033"
   y2="60.5811">
	<stop
   offset="0"
   style="stop-color:#979797"
   id="stop6657" />
	<stop
   offset="0.0189"
   style="stop-color:#B5B5B5"
   id="stop6659" />
	<stop
   offset="0.0409"
   style="stop-color:#D0D0D0"
   id="stop6661" />
	<stop
   offset="0.0649"
   style="stop-color:#E5E5E5"
   id="stop6663" />
	<stop
   offset="0.0916"
   style="stop-color:#F4F4F4"
   id="stop6665" />
	<stop
   offset="0.1231"
   style="stop-color:#FCFCFC"
   id="stop6667" />
	<stop
   offset="0.1716"
   style="stop-color:#FFFFFF"
   id="stop6669" />
	<stop
   offset="0.574"
   style="stop-color:#8C8C8C"
   id="stop6671" />
	<stop
   offset="0.8521"
   style="stop-color:#DDDDDD"
   id="stop6673" />
	<stop
   offset="1"
   style="stop-color:#8F8F8F"
   id="stop6675" />
</linearGradient>
<path
   fill="url(#XMLID_63_)"
   d="M59.072,10.338l0.128,99.167c3.899,0.861,7.947,1.318,12.1,1.318c4.66,0,9.188-0.574,13.521-1.65  l0.082-98.834H59.072z"
   id="path6677" />
<linearGradient
   id="XMLID_64_"
   gradientUnits="userSpaceOnUse"
   x1="62.8696"
   y1="63.1313"
   x2="81.122"
   y2="44.879">
	<stop
   offset="0"
   style="stop-color:#979797"
   id="stop6680" />
	<stop
   offset="0.0189"
   style="stop-color:#B5B5B5"
   id="stop6682" />
	<stop
   offset="0.0409"
   style="stop-color:#D0D0D0"
   id="stop6684" />
	<stop
   offset="0.0649"
   style="stop-color:#E5E5E5"
   id="stop6686" />
	<stop
   offset="0.0916"
   style="stop-color:#F4F4F4"
   id="stop6688" />
	<stop
   offset="0.1231"
   style="stop-color:#FCFCFC"
   id="stop6690" />
	<stop
   offset="0.1716"
   style="stop-color:#FFFFFF"
   id="stop6692" />
	<stop
   offset="0.574"
   style="stop-color:#8C8C8C"
   id="stop6694" />
	<stop
   offset="0.8521"
   style="stop-color:#FFFFFF"
   id="stop6696" />
	<stop
   offset="1"
   style="stop-color:#8F8F8F"
   id="stop6698" />
</linearGradient>
<path
   fill="url(#XMLID_64_)"
   d="M119.558,83.324c-0.021-0.022-0.04-0.049-0.062-0.071L42.746,6.504  c-0.022-0.022-0.048-0.04-0.07-0.062c-7.483,4.456-13.848,10.6-18.563,17.905c0.114,0.148,77.392,77.427,77.54,77.54  C108.959,97.173,115.102,90.808,119.558,83.324z"
   id="path6700" />
<linearGradient
   id="XMLID_65_"
   gradientUnits="userSpaceOnUse"
   x1="72.0088"
   y1="107.5859"
   x2="72.0088"
   y2="101.0342">
	<stop
   offset="0"
   style="stop-color:#FFFFFF"
   id="stop6703" />
	<stop
   offset="1"
   style="stop-color:#000000"
   id="stop6705" />
</linearGradient>
<path
   fill="url(#XMLID_65_)"
   d="M59.195,105.916c2.712,0.82,6.714,1.67,11.662,1.67c5.689,0,10.778-1.286,13.968-2.328l0.002-2.805  l-3.268-1.419H61.927l-2.736,1.388L59.195,105.916z"
   id="path6707" />
<linearGradient
   id="XMLID_66_"
   gradientUnits="userSpaceOnUse"
   x1="38.4014"
   y1="75.0703"
   x2="38.4014"
   y2="99.6201">
	<stop
   offset="0"
   style="stop-color:#FFFFFF"
   id="stop6710" />
	<stop
   offset="1"
   style="stop-color:#000000"
   id="stop6712" />
</linearGradient>
<path
   opacity="0.5"
   fill="url(#XMLID_66_)"
   d="M32.839,75.07l-5.373,5.39c3.998,7.79,9.863,14.398,16.984,19.16l4.886-4.871  L32.839,75.07z"
   id="path6714" />
<linearGradient
   id="XMLID_67_"
   gradientUnits="userSpaceOnUse"
   x1="102.8672"
   y1="72.7744"
   x2="102.8672"
   y2="98.958">
	<stop
   offset="0"
   style="stop-color:#FFFFFF"
   id="stop6717" />
	<stop
   offset="1"
   style="stop-color:#000000"
   id="stop6719" />
</linearGradient>
<path
   opacity="0.5"
   fill="url(#XMLID_67_)"
   d="M90.349,90.603c0,0,6.385,6.381,8.362,8.355c7.08-4.979,12.85-11.812,16.676-19.814  l-6.371-6.369L90.349,90.603z"
   id="path6721" />
<linearGradient
   id="XMLID_68_"
   gradientUnits="userSpaceOnUse"
   x1="30.3062"
   y1="42.8335"
   x2="30.3062"
   y2="68.6558">
	<stop
   offset="0"
   style="stop-color:#FFFFFF"
   id="stop6724" />
	<stop
   offset="1"
   style="stop-color:#000000"
   id="stop6726" />
</linearGradient>
<path
   opacity="0.5"
   fill="url(#XMLID_68_)"
   d="M37,42.833L22.492,43.99c0,0-2.752,5.01-2.752,16.24  c0.122,2.24,0.41,4.43,0.817,6.576l20.315,1.85L37,42.833z"
   id="path6728" />
<radialGradient
   id="XMLID_69_"
   cx="75.1904"
   cy="39.9844"
   r="63.21"
   gradientUnits="userSpaceOnUse">
	<stop
   offset="0"
   style="stop-color:#103961"
   id="stop6731" />
	<stop
   offset="0.6746"
   style="stop-color:#227AD1"
   id="stop6733" />
	<stop
   offset="0.929"
   style="stop-color:#ADDAFF"
   id="stop6735" />
</radialGradient>
<path
   fill="url(#XMLID_69_)"
   d="M27.517,27.763c12.478,12.497,55.72,55.74,69.72,69.721c7.22-4.9,13.097-11.633,16.971-19.521  l-67.171-67.17C39.149,14.667,32.417,20.544,27.517,27.763z"
   id="path6737" />
<radialGradient
   id="XMLID_70_"
   cx="76.1152"
   cy="38.4995"
   r="73.2433"
   gradientUnits="userSpaceOnUse">
	<stop
   offset="0"
   style="stop-color:#103961"
   id="stop6740" />
	<stop
   offset="0.6746"
   style="stop-color:#227AD1"
   id="stop6742" />
	<stop
   offset="0.929"
   style="stop-color:#00438A"
   id="stop6744" />
</radialGradient>
<path
   fill="url(#XMLID_70_)"
   d="M20.873,54.901c0,27.695,22.531,50.226,50.226,50.226c27.695,0,50.226-22.53,50.226-50.226  c0-27.694-22.53-50.226-50.226-50.226C43.404,4.676,20.873,27.207,20.873,54.901z"
   id="path6746" />
<radialGradient
   id="XMLID_71_"
   cx="76.1865"
   cy="38.4712"
   r="73.244"
   gradientTransform="matrix(0.953 0 0 0.953 2.8734 2.8736)"
   gradientUnits="userSpaceOnUse">
	<stop
   offset="0"
   style="stop-color:#BFD9FF"
   id="stop6749" />
	<stop
   offset="0.0447"
   style="stop-color:#B4D3FF"
   id="stop6751" />
	<stop
   offset="0.1221"
   style="stop-color:#98C2FF"
   id="stop6753" />
	<stop
   offset="0.1775"
   style="stop-color:#80B3FF"
   id="stop6755" />
	<stop
   offset="0.3077"
   style="stop-color:#4FA8FF"
   id="stop6757" />
	<stop
   offset="0.3497"
   style="stop-color:#469FF6"
   id="stop6759" />
	<stop
   offset="0.4183"
   style="stop-color:#2F87DE"
   id="stop6761" />
	<stop
   offset="0.5043"
   style="stop-color:#085FB6"
   id="stop6763" />
	<stop
   offset="0.5207"
   style="stop-color:#0057AE"
   id="stop6765" />
	<stop
   offset="0.7515"
   style="stop-color:#42A1FF"
   id="stop6767" />
	<stop
   offset="0.7852"
   style="stop-color:#3E99F6"
   id="stop6769" />
	<stop
   offset="0.84"
   style="stop-color:#3585DE"
   id="stop6771" />
	<stop
   offset="0.8817"
   style="stop-color:#2C72C7"
   id="stop6773" />
	<stop
   offset="1"
   style="stop-color:#0057AE"
   id="stop6775" />
</radialGradient>
<circle
   fill="url(#XMLID_71_)"
   cx="71.099"
   cy="54.901"
   r="49.221"
   id="circle6777" />
<linearGradient
   id="XMLID_72_"
   gradientUnits="userSpaceOnUse"
   x1="16.1597"
   y1="66.7998"
   x2="16.1597"
   y2="41.1362">
	<stop
   offset="0"
   style="stop-color:#323232"
   id="stop6780" />
	<stop
   offset="0.0889"
   style="stop-color:#353535"
   id="stop6782" />
	<stop
   offset="0.1603"
   style="stop-color:#3F3F3F"
   id="stop6784" />
	<stop
   offset="0.2256"
   style="stop-color:#505050"
   id="stop6786" />
	<stop
   offset="0.2874"
   style="stop-color:#686868"
   id="stop6788" />
	<stop
   offset="0.3465"
   style="stop-color:#878787"
   id="stop6790" />
	<stop
   offset="0.4038"
   style="stop-color:#ADADAD"
   id="stop6792" />
	<stop
   offset="0.4585"
   style="stop-color:#D8D8D8"
   id="stop6794" />
	<stop
   offset="0.5"
   style="stop-color:#FFFFFF"
   id="stop6796" />
	<stop
   offset="1"
   style="stop-color:#DDDDDD"
   id="stop6798" />
</linearGradient>
<path
   fill="url(#XMLID_72_)"
   d="M16.729,54.699c0-4.684,0.426-13.565,0.414-13.563l-0.315,0.043c-1.076,4.332-1.65,8.86-1.65,13.52  c0,4.154,0.458,8.202,1.318,12.101C16.495,66.8,16.729,58.859,16.729,54.699z"
   id="path6800" />
<linearGradient
   id="XMLID_73_"
   gradientUnits="userSpaceOnUse"
   x1="41.1846"
   y1="102.8779"
   x2="23.1223"
   y2="84.8156">
	<stop
   offset="0"
   style="stop-color:#BBBBBB"
   id="stop6803" />
	<stop
   offset="0.1187"
   style="stop-color:#B8B8B8"
   id="stop6805" />
	<stop
   offset="0.2141"
   style="stop-color:#AEAEAE"
   id="stop6807" />
	<stop
   offset="0.3013"
   style="stop-color:#9D9D9D"
   id="stop6809" />
	<stop
   offset="0.3837"
   style="stop-color:#858585"
   id="stop6811" />
	<stop
   offset="0.462"
   style="stop-color:#676767"
   id="stop6813" />
	<stop
   offset="0.5"
   style="stop-color:#555555"
   id="stop6815" />
	<stop
   offset="1"
   style="stop-color:#DDDDDD"
   id="stop6817" />
</linearGradient>
<path
   fill="url(#XMLID_73_)"
   d="M23.638,84.299c4.558,7.313,10.75,13.506,18.063,18.062L23.638,84.299z"
   id="path6819" />
<linearGradient
   id="XMLID_74_"
   gradientUnits="userSpaceOnUse"
   x1="72.0107"
   y1="110.8232"
   x2="72.0107"
   y2="109.1729">
	<stop
   offset="0"
   style="stop-color:#555555"
   id="stop6822" />
	<stop
   offset="1"
   style="stop-color:#DDDDDD"
   id="stop6824" />
</linearGradient>
<path
   fill="url(#XMLID_74_)"
   d="M71.301,109.271c-4.159,0-12.1,0.233-12.1,0.233c3.899,0.861,7.947,1.318,12.1,1.318  c4.66,0,9.188-0.574,13.521-1.65C84.821,109.173,75.968,109.271,71.301,109.271z"
   id="path6826" />
<linearGradient
   id="XMLID_75_"
   gradientUnits="userSpaceOnUse"
   x1="23.8623"
   y1="24.0977"
   x2="42.1009"
   y2="5.8591">
	<stop
   offset="0"
   style="stop-color:#FFFFFF"
   id="stop6829" />
	<stop
   offset="0.096"
   style="stop-color:#FCFCFC"
   id="stop6831" />
	<stop
   offset="0.1732"
   style="stop-color:#F2F2F2"
   id="stop6833" />
	<stop
   offset="0.2438"
   style="stop-color:#E1E1E1"
   id="stop6835" />
	<stop
   offset="0.3105"
   style="stop-color:#C9C9C9"
   id="stop6837" />
	<stop
   offset="0.3745"
   style="stop-color:#AAAAAA"
   id="stop6839" />
	<stop
   offset="0.4363"
   style="stop-color:#858585"
   id="stop6841" />
	<stop
   offset="0.4955"
   style="stop-color:#595959"
   id="stop6843" />
	<stop
   offset="0.5"
   style="stop-color:#555555"
   id="stop6845" />
	<stop
   offset="1"
   style="stop-color:#FFFFFF"
   id="stop6847" />
</linearGradient>
<path
   fill="url(#XMLID_75_)"
   d="M42.676,6.443c-7.483,4.456-13.848,10.6-18.563,17.905C24.12,24.358,42.746,6.504,42.746,6.504  C42.724,6.482,42.698,6.465,42.676,6.443z"
   id="path6849" />
<linearGradient
   id="XMLID_76_"
   gradientUnits="userSpaceOnUse"
   x1="101.9033"
   y1="102.1377"
   x2="120.1426"
   y2="83.8984">
	<stop
   offset="0"
   style="stop-color:#555555"
   id="stop6852" />
	<stop
   offset="0.3124"
   style="stop-color:#555555"
   id="stop6854" />
	<stop
   offset="0.3432"
   style="stop-color:#555555"
   id="stop6856" />
	<stop
   offset="1"
   style="stop-color:#FFFFFF"
   id="stop6858" />
</linearGradient>
<path
   fill="url(#XMLID_76_)"
   d="M119.496,83.253c0,0-17.854,18.627-17.844,18.635c7.307-4.715,13.449-11.08,17.905-18.563  C119.536,83.302,119.518,83.275,119.496,83.253z"
   id="path6860" />
<radialGradient
   id="XMLID_77_"
   cx="59.3096"
   cy="57.1392"
   r="49.6344"
   gradientTransform="matrix(0.953 0 0 0.953 2.8734 2.8736)"
   gradientUnits="userSpaceOnUse">
	<stop
   offset="0.2485"
   style="stop-color:#FFFFFF"
   id="stop6863" />
	<stop
   offset="0.5207"
   style="stop-color:#C7ECFF"
   id="stop6865" />
	<stop
   offset="0.9527"
   style="stop-color:#8ACAFF"
   id="stop6867" />
</radialGradient>
<path
   fill="url(#XMLID_77_)"
   d="M66.313,6.15c-2.26,0.226-4.544,0.618-6.792,1.168c-0.037,0.009-0.072,0.022-0.105,0.04  c-0.395,0.209-0.811,0.441-1.174,0.771l0,0c0,0.003-1.665,1.898-1.665,3.217c0,0.102,0.01,0.2,0.031,0.293  c0.097,0.418,0.363,0.724,0.77,0.888c0.586,0.237,1.408,0.113,1.583-0.001l0.411-0.431l0.098-0.128  c1.421-1.65,2.498-2.466,2.72-2.582c0.682-0.021,1.034-0.293,2.439-1.405l0.042-0.033c0.406-0.32,0.899-0.523,1.422-0.738  l0.447-0.187c0.172-0.072,0.276-0.238,0.276-0.417c0-0.038-0.005-0.076-0.014-0.114C66.748,6.271,66.538,6.127,66.313,6.15z"
   id="path6869" />
<radialGradient
   id="XMLID_78_"
   cx="55.9092"
   cy="75.1914"
   r="49.6293"
   gradientTransform="matrix(0.953 0.0042 -0.0042 0.953 9.1954 -30.7014)"
   gradientUnits="userSpaceOnUse">
	<stop
   offset="0.2485"
   style="stop-color:#FFFFFF"
   id="stop6872" />
	<stop
   offset="0.5207"
   style="stop-color:#C7ECFF"
   id="stop6874" />
	<stop
   offset="0.7515"
   style="stop-color:#7AC3FF"
   id="stop6876" />
	<stop
   offset="0.858"
   style="stop-color:#63B8FF"
   id="stop6878" />
	<stop
   offset="0.9527"
   style="stop-color:#8ACAFF"
   id="stop6880" />
</radialGradient>
<path
   fill="url(#XMLID_78_)"
   d="M58.549,8.466c-0.018,0.013-1.723,2.074-1.496,3.072c0.219,0.941,1.647,0.613,1.661,0.605  c0.161-0.104,0.289-0.333,0.412-0.475c1.547-1.796,2.807-2.735,2.961-2.734c0.603,0.004,0.825-0.177,2.302-1.345  c0.581-0.458,1.292-0.69,1.969-0.985c-2.292,0.229-4.538,0.622-6.729,1.157C59.247,7.963,58.869,8.175,58.549,8.466z"
   id="path6882" />
<radialGradient
   id="XMLID_79_"
   cx="59.3101"
   cy="57.144"
   r="49.6405"
   gradientTransform="matrix(0.953 0 0 0.953 2.8734 2.8736)"
   gradientUnits="userSpaceOnUse">
	<stop
   offset="0.2485"
   style="stop-color:#FFFFFF"
   id="stop6885" />
	<stop
   offset="0.5207"
   style="stop-color:#C7ECFF"
   id="stop6887" />
	<stop
   offset="0.9527"
   style="stop-color:#8ACAFF"
   id="stop6889" />
</radialGradient>
<path
   fill="url(#XMLID_79_)"
   d="M65.722,7.586c-0.117,0.004-0.233,0.06-0.314,0.143c-0.177,0.18-0.505,0.517-0.635,0.94  c-0.106,0.345-0.127,0.679-0.147,1.002c-0.018,0.28-0.033,0.545-0.105,0.785c-0.055,0.182,0.01,0.38,0.161,0.494  c0.151,0.115,0.358,0.124,0.519,0.022c0.425-0.269,0.531-0.283,0.751-0.29c0.243-0.01,0.501-0.043,0.859-0.318  c0.002-0.001,0.17-0.16,0.17-0.16c0.055-0.069,0.537-1.284,0.23-1.961C66.894,7.541,66.131,7.571,65.722,7.586z"
   id="path6891" />
<radialGradient
   id="XMLID_80_"
   cx="55.9092"
   cy="75.1953"
   r="49.6343"
   gradientTransform="matrix(0.953 0.0042 -0.0042 0.953 9.1954 -30.7014)"
   gradientUnits="userSpaceOnUse">
	<stop
   offset="0.2485"
   style="stop-color:#FFFFFF"
   id="stop6894" />
	<stop
   offset="0.5207"
   style="stop-color:#C7ECFF"
   id="stop6896" />
	<stop
   offset="0.7515"
   style="stop-color:#7AC3FF"
   id="stop6898" />
	<stop
   offset="0.858"
   style="stop-color:#63B8FF"
   id="stop6900" />
	<stop
   offset="0.9527"
   style="stop-color:#8ACAFF"
   id="stop6902" />
</radialGradient>
<path
   fill="url(#XMLID_80_)"
   d="M65.739,8.042c-0.151,0.153-0.434,0.438-0.531,0.761c-0.179,0.582-0.076,1.2-0.251,1.784  c0.461-0.292,0.646-0.349,0.979-0.36c0.156-0.007,0.32-0.011,0.599-0.224c0.02-0.017,0.058-0.036,0.073-0.059  c0.006-0.008,0.396-1.052,0.188-1.513C66.637,8.078,66.286,8.021,65.739,8.042z"
   id="path6904" />
<radialGradient
   id="XMLID_81_"
   cx="59.3086"
   cy="57.1338"
   r="49.6283"
   gradientTransform="matrix(0.953 0 0 0.953 2.8734 2.8736)"
   gradientUnits="userSpaceOnUse">
	<stop
   offset="0.2485"
   style="stop-color:#FFFFFF"
   id="stop6907" />
	<stop
   offset="0.5207"
   style="stop-color:#C7ECFF"
   id="stop6909" />
	<stop
   offset="0.9527"
   style="stop-color:#8ACAFF"
   id="stop6911" />
</radialGradient>
<path
   fill="url(#XMLID_81_)"
   d="M55.03,8.647c-2.891,1.006-5.714,2.298-8.39,3.841c-0.086,0.049-0.143,0.101-0.181,0.192  l-0.199,0.467c-0.05,0.118-0.043,0.237,0.01,0.354c0.053,0.116,0.158,0.192,0.279,0.231c0.331,0.107,0.538,0.146,0.763,0.12  c-0.126,0.348-0.18,0.642-0.18,0.918c0,0.291,0.052,0.565,0.12,0.873c0.031,0.141,0.127,0.259,0.259,0.318l0.63,0.281  c0.174,0.078,0.378,0.04,0.511-0.097c0.685-0.699,0.839-0.72,1.412-0.799c0.138-0.019,0.26-0.1,0.331-0.22  c1.069-1.815,1.292-2.193,5.094-5.714c0.158-0.146,0.192-0.384,0.081-0.569C55.459,8.658,55.234,8.577,55.03,8.647z"
   id="path6913" />
<radialGradient
   id="XMLID_82_"
   cx="55.9097"
   cy="75.1934"
   r="49.6313"
   gradientTransform="matrix(0.953 0.0042 -0.0042 0.953 9.1954 -30.7014)"
   gradientUnits="userSpaceOnUse">
	<stop
   offset="0.2485"
   style="stop-color:#FFFFFF"
   id="stop6916" />
	<stop
   offset="0.5207"
   style="stop-color:#C7ECFF"
   id="stop6918" />
	<stop
   offset="0.7515"
   style="stop-color:#7AC3FF"
   id="stop6920" />
	<stop
   offset="0.858"
   style="stop-color:#63B8FF"
   id="stop6922" />
	<stop
   offset="0.9527"
   style="stop-color:#8ACAFF"
   id="stop6924" />
</radialGradient>
<path
   fill="url(#XMLID_82_)"
   d="M47.697,15.545c0.189,0.084,0.441,0.197,0.63,0.281c0.792-0.809,1.047-0.845,1.675-0.931  c1.119-1.9,1.415-2.334,5.177-5.817c-2.906,1.011-5.684,2.291-8.312,3.805c-0.064,0.13-0.125,0.268-0.177,0.416  c0.551,0.178,0.551,0.178,1.531-0.262C47.437,14.344,47.539,14.82,47.697,15.545z"
   id="path6926" />
<radialGradient
   id="XMLID_83_"
   cx="59.3105"
   cy="57.1211"
   r="49.6157"
   gradientTransform="matrix(0.953 0 0 0.953 2.8734 2.8736)"
   gradientUnits="userSpaceOnUse">
	<stop
   offset="0.2485"
   style="stop-color:#FFFFFF"
   id="stop6929" />
	<stop
   offset="0.5207"
   style="stop-color:#C7ECFF"
   id="stop6931" />
	<stop
   offset="0.9527"
   style="stop-color:#8ACAFF"
   id="stop6933" />
</radialGradient>
<path
   fill="url(#XMLID_83_)"
   d="M67.702,11.878l-0.123,0.313c-0.002,0.005-0.01,0.017-0.012,0.022l-0.194,0.555  c-0.018,0.161-0.003,0.555,0.49,0.749c0.112,0.043,0.25,0.004,0.361-0.044c0.11-0.048,0.209-0.177,0.253-0.289l0.123-0.316  l0.159-0.393c0.123-0.425-0.044-0.77-0.447-0.926C68.079,11.458,67.794,11.646,67.702,11.878z"
   id="path6935" />
<radialGradient
   id="XMLID_84_"
   cx="55.918"
   cy="75.1738"
   r="49.5991"
   gradientTransform="matrix(0.953 0.0042 -0.0042 0.953 9.1954 -30.7014)"
   gradientUnits="userSpaceOnUse">
	<stop
   offset="0.2485"
   style="stop-color:#FFFFFF"
   id="stop6938" />
	<stop
   offset="0.5207"
   style="stop-color:#C7ECFF"
   id="stop6940" />
	<stop
   offset="0.7515"
   style="stop-color:#7AC3FF"
   id="stop6942" />
	<stop
   offset="0.858"
   style="stop-color:#63B8FF"
   id="stop6944" />
	<stop
   offset="0.9527"
   style="stop-color:#8ACAFF"
   id="stop6946" />
</radialGradient>
<path
   fill="url(#XMLID_84_)"
   d="M67.986,12.393c-0.082,0.171-0.147,0.306-0.16,0.423c-0.021,0.19,0.127,0.246,0.205,0.277  c0.054-0.265,0.215-0.49,0.291-0.748c0.065-0.227-0.021-0.313-0.175-0.372C68.124,12.085,68.098,12.17,67.986,12.393z"
   id="path6948" />
<radialGradient
   id="XMLID_85_"
   cx="55.8516"
   cy="50.333"
   r="62.2369"
   fx="90.9998"
   fy="56.7889"
   gradientTransform="matrix(0.953 0 0 0.953 2.8734 2.8736)"
   gradientUnits="userSpaceOnUse">
	<stop
   offset="0"
   style="stop-color:#FFFFFF"
   id="stop6951" />
	<stop
   offset="0.0669"
   style="stop-color:#F5FAFE"
   id="stop6953" />
	<stop
   offset="0.1789"
   style="stop-color:#DBEBFB"
   id="stop6955" />
	<stop
   offset="0.3223"
   style="stop-color:#B1D4F6"
   id="stop6957" />
	<stop
   offset="0.4916"
   style="stop-color:#77B4F0"
   id="stop6959" />
	<stop
   offset="0.6803"
   style="stop-color:#2D8BE8"
   id="stop6961" />
	<stop
   offset="0.787"
   style="stop-color:#0072E3"
   id="stop6963" />
	<stop
   offset="0.9527"
   style="stop-color:#8ACAFF"
   id="stop6965" />
</radialGradient>
<path
   fill="url(#XMLID_85_)"
   d="M74.408,6.204c-0.094,0.115-0.125,0.27-0.084,0.413c0.307,1.067,0.416,1.938,0.324,2.587v0  c-0.691,4.926,0.703,6.416,1.995,6.799c0.072,0.021,0.139,0.023,0.204,0.019c0.033,0.739,0.312,1.467,0.995,2.375  c-0.168,0.249-0.569,0.84-1.097,1.618c-0.021-0.066-0.039-0.134-0.061-0.195c-0.041-0.12-0.131-0.217-0.247-0.268  c-1.02-0.447-2.192-1.337-2.192-3.066c0-0.112,0.005-0.228,0.016-0.347c0.001-0.013,0.002-0.026,0.002-0.039  c0-0.109-0.04-0.215-0.111-0.298c-0.081-0.093-0.195-0.149-0.318-0.157c-0.092-0.006-0.212-0.025-0.261-0.088  c-0.036-0.045-0.066-0.134-0.066-0.306c0-0.135,0.02-0.321,0.07-0.578c0.005-0.022,0.007-0.044,0.007-0.065  c0-0.126-0.07-0.247-0.163-0.339c-0.107-0.106-0.291-0.145-0.44-0.115c-0.021,0.004-0.046,0.011-0.062,0.017  c-0.464,0.162-0.494,0.185-2.077,1.411c-0.11,0.085-0.175,0.217-0.176,0.356c0,0.019,0,0.037,0,0.055  c0,0.967,0.219,1.578,0.771,2.426c-0.459,0.144-0.702,0.525-0.866,0.806c-0.215,0.366-0.284,0.429-0.466,0.422  c-0.162-0.006-0.316,0.074-0.402,0.211c-0.088,0.137-0.095,0.31-0.021,0.454c0.19,0.367,0.22,0.801,0.25,1.262  c0.04,0.601,0.085,1.281,0.517,1.896c0.078,0.112,0.202,0.183,0.338,0.193c0.568,0.043,0.897-0.198,1.188-0.45  c0.161-0.143,0.285-0.301,0.398-0.459c-0.123,0.36-0.193,0.632-0.193,0.909c0,0.185,0.022,0.387,0.062,0.655  c0.021,0.141,0.107,0.265,0.232,0.333c0.125,0.068,0.275,0.074,0.406,0.015c0.423-0.19,0.806-0.436,1.177-0.683  c-0.278,0.409-0.61,0.899-0.61,0.899c-0.053,0.078-0.078,0.167-0.078,0.256c0,0.112,0.04,0.223,0.121,0.309  c1.071,1.161,1.709,1.852,2.034,2.228c-0.883,0.203-3.502,0.803-3.502,0.803c-0.211,0.048-0.359,0.238-0.359,0.447  c0,0.029,0.002,0.06,0.009,0.089c0.146,0.716,0.215,1.47,0.281,2.199c0.123,1.348,0.25,2.742,0.858,4.073  c0.101,0.219,0.352,0.322,0.576,0.236c0.558-0.212,1.18-0.176,1.839-0.138c0.014,0.001,0.028,0.001,0.042,0.002  c-0.035,0.032-0.087,0.043-0.111,0.086c-1.606,2.861-2.165,3.857-2.165,4.491c0,0.196,0.066,0.364,0.159,0.536  c-1.909,1.708-2.264,2.782-3.792,7.627c-0.014,0.045-0.021,0.092-0.021,0.137c0,0.146,0.07,0.286,0.194,0.373  c0.549,0.386,0.788,0.554,0.788,1.418c0,0.304-0.03,0.695-0.087,1.211c-0.021,0.185-0.03,0.366-0.03,0.543  c0,3.864,4.706,6.008,6.802,6.771c2.787,1.014,5.261,0.023,7.653-0.935c2.224-0.892,4.333-1.714,6.652-1.021  c0.002,0.462,0.098,0.903,0.192,1.332c0.088,0.397,0.173,0.78,0.173,1.153c0,0.203-0.025,0.403-0.089,0.6  c-0.015,0.046-0.021,0.093-0.021,0.14c0,0.076,0.02,0.152,0.057,0.219c0.061,0.109,0.163,0.189,0.284,0.222  c0.893,0.233,2.752,0.716,3.721,2.49c0.421,0.773,0.632,1.708,0.632,2.803c0,1.217-0.261,2.63-0.783,4.228  c-0.016,0.046-0.023,0.093-0.023,0.141c0,0.127,0.053,0.25,0.149,0.338c2.702,2.453,2.702,2.453,2.835,4.172  c0.005,0.072,0.027,0.141,0.064,0.202l3.42,5.63c0.12,0.197,0.369,0.273,0.579,0.178c3.375-1.533,8.438-3.851,8.73-10.017  c0.697-0.418,0.813-0.719,1.688-3.13c0.02-0.052,0.029-0.105,0.029-0.16c0-0.079-0.021-0.156-0.062-0.227  c-0.068-0.117-0.184-0.197-0.318-0.218c0,0-0.061-0.01-0.117-0.019c-0.033-0.307-0.072-0.612-0.072-0.891  c0-1.101,0.389-2.086,2.133-3.866c0.084-0.085,0.13-0.2,0.13-0.319c0-0.014-0.001-0.026-0.002-0.04  c-0.12-1.395-0.638-2.687-1.14-3.936c-0.564-1.409-1.102-2.747-1.102-4.203c0-0.124,0.005-0.249,0.013-0.375  c0.098-1.505,0.433-3.037,0.759-4.519c0.398-1.819,0.807-3.677,0.807-5.58c0-1.126-0.144-2.269-0.516-3.429  c-0.043-0.137-0.148-0.244-0.283-0.291c-0.137-0.047-0.287-0.028-0.405,0.052c-0.536,0.361-0.806,0.91-1.043,1.394  c-0.284,0.58-0.513,0.958-0.968,1.142c-0.176-0.197-0.279-0.36-0.279-0.446c0-0.007,0.001-0.014,0.002-0.02  c0.024-0.178,0.435-0.382,0.655-0.49c0.901-0.446,2.093-2.858,2.093-5.965c0-1.33-0.219-2.788-0.771-4.273  c-0.054-0.143-0.175-0.25-0.322-0.285c-0.164-0.039-0.244-0.082-1.76-1.051c0.867-0.409,1.799-0.847,1.799-0.847  c0.12-0.057,0.21-0.163,0.245-0.291c0.011-0.04,0.017-0.081,0.017-0.122c0-0.089-0.026-0.178-0.078-0.254  C103.783,15.041,90.092,7.108,74.794,6.035C74.646,6.025,74.501,6.087,74.408,6.204z M79.829,11.676  c0.154,0.086,0.289,0.146,0.4,0.182c0.017,0.086,0.033,0.174,0.033,0.174c0.075,0.353,0.177,0.69,0.281,1.023  c-0.041,0.001-0.09,0.01-0.134,0.016c-0.025-0.267-0.098-0.566-0.308-0.957C80.021,11.96,79.922,11.822,79.829,11.676z   M81.248,14.908c0.004-0.007,0.002-0.014,0.005-0.021c0.107,0.231,0.211,0.458,0.312,0.66c-0.362,0.091-0.543,0.362-0.659,0.759  c-0.04,0.138-0.104,0.249-0.238,0.338c-0.023-0.057-0.043-0.11-0.043-0.155c0-0.101,0.054-0.185,0.138-0.317  c0.164-0.254,0.269-0.49,0.269-0.753c0-0.091-0.047-0.197-0.074-0.296C81.079,15.094,81.186,15.018,81.248,14.908z M81.517,28.017  c0,0.019,0.004,0.036,0.004,0.055c0,0.092-0.002,0.185-0.005,0.28c-0.002,0.097-0.003,0.196-0.003,0.297  c0,0.478,0.043,0.995,0.339,1.488c0.534,0.887,1.256,0.974,2.022,1.027c-1.704,0.364-3.134,1.259-4.522,2.138  c-0.196,0.125-0.39,0.244-0.585,0.365c0.019-0.099,0.036-0.199,0.051-0.292c0.041-0.275,0.076-0.512,0.192-0.688  c0.156-0.237,0.493-0.425,0.851-0.624c0.6-0.334,1.39-0.774,1.39-1.692c0-0.146-0.02-0.305-0.063-0.477  c-0.058-0.225-0.274-0.37-0.504-0.338c-0.154,0.021-0.269,0.046-0.382,0.103c0.097-0.229,0.201-0.503,0.309-0.788  C81.077,28.687,81.337,28.333,81.517,28.017z M84.433,30.936c0.147-0.274,0.218-0.5,0.218-0.719c0-0.399-0.25-0.794-0.706-1.412  c0.256,0.077,0.521,0.127,0.783,0.173c0.692,0.124,1.107,0.236,1.312,0.623c-0.077,0.042-0.169,0.094-0.169,0.094l-0.736,0.438  c-0.128,0.076-0.184,0.192-0.184,0.324c0,0.054,0.01,0.111,0.027,0.169c0.047,0.154,0.114,0.255,0.174,0.376  c-0.298,0.012-0.588,0.04-0.869,0.084C84.343,31.047,84.398,31,84.433,30.936z M87.997,31.006c0.17-0.362,0.255-0.739,0.337-1.104  c0.089-0.395,0.182-0.748,0.359-1.051c0.336,0.77,0.711,1.051,2.209,2.136c0.145,0.104,0.338,0.115,0.492,0.027  c0.6-0.34,1.041-0.81,1.468-1.265c0.208-0.222,0.421-0.409,0.633-0.602c0.57,0.576,1.301,1.024,2.501,0.176  c0.092,0.147,0.173,0.287,0.227,0.398c0.061,0.129,0.178,0.221,0.317,0.25l0.464,0.097c0.143,0.03,0.271,0.011,0.381-0.088  c0,0,0.284-0.26,0.566-0.518c0.073,0.242,0.121,0.471,0.121,0.676c0,0.28-0.069,0.527-0.207,0.743  c-0.441,0.692-1.868,1.502-6.161,1.434c-0.121-0.002-0.239,0.045-0.325,0.13c-0.088,0.085-0.137,0.201-0.138,0.323  c-0.008,1.399-0.009,1.743-0.156,1.989c-0.919-0.382-1.881-0.513-2.817-0.625c-0.677-0.081-1.315-0.178-1.933-0.348  c0.016-0.143,0.042-0.293,0.042-0.434c0-0.423-0.086-0.868-0.342-1.485c0.126,0.042,0.243,0.062,0.341,0.068  C87.096,31.987,87.766,31.502,87.997,31.006z M108.654,30.124c-0.158,0.284-0.332,0.481-0.574,0.663  c-0.096-0.092-0.188-0.18-0.273-0.263C107.829,30.513,108.379,30.254,108.654,30.124z M103.564,36.237  c0.157,0.033,0.318,0.059,0.5,0.05c0.086,0.189,0.174,0.365,0.262,0.524C104.053,36.605,103.735,36.366,103.564,36.237z   M106.063,38.639c-0.019-0.023-0.038-0.047-0.056-0.071c0.137,0.083,0.273,0.163,0.412,0.242c0.635,0.361,1.144,0.688,1.599,1.525  c-0.179,0.012-0.431-0.032-0.767-0.317C106.795,39.626,106.439,39.146,106.063,38.639z M91.326,56.281  c0-0.019,0.001-0.038,0.004-0.057C91.327,56.244,91.328,56.262,91.326,56.281L91.326,56.281z"
   id="path6967" />
<radialGradient
   id="XMLID_86_"
   cx="63.6948"
   cy="39.4492"
   r="49.6226"
   gradientTransform="matrix(0.948 -0.0981 0.0981 0.948 -2.09 10.0391)"
   gradientUnits="userSpaceOnUse">
	<stop
   offset="0.2485"
   style="stop-color:#FFFFFF"
   id="stop6970" />
	<stop
   offset="0.5207"
   style="stop-color:#C7ECFF"
   id="stop6972" />
	<stop
   offset="0.7515"
   style="stop-color:#7AC3FF"
   id="stop6974" />
	<stop
   offset="0.858"
   style="stop-color:#63B8FF"
   id="stop6976" />
	<stop
   offset="0.9527"
   style="stop-color:#8ACAFF"
   id="stop6978" />
</radialGradient>
<path
   fill="url(#XMLID_86_)"
   d="M110.792,70.183c0.757-0.424,0.757-0.424,1.696-3.013c-0.141-0.024-0.325-0.05-0.465-0.072  c-0.217-1.818-0.346-2.916,2.158-5.471c-0.256-2.973-2.428-5.5-2.229-8.583c0.288-4.457,2.543-8.772,1.071-13.359  c-1.043,0.702-0.887,2.366-2.396,2.689c-1.244-1.131-0.272-1.609,0.309-1.897c0.955-0.472,2.914-4.777,1.094-9.669  c-0.264-0.062-0.264-0.062-2.498-1.494c-0.516,1.256-0.672,1.524-1.492,2.064c-2.043-1.955-2.043-1.955-2.025-2.103  c0.146-0.008,0.345-0.022,0.494-0.03c0.35,0.297,0.666,0.626,1.043,0.895l4.429-2.086c-8.185-12.179-21.7-20.476-37.218-21.564  c0.283,0.984,0.452,1.973,0.338,2.778c-0.646,4.598,0.553,5.967,1.673,6.299c0.301-0.497,0.26-1.159,0.824-1.526  c-0.446,1.786-0.583,2.645,0.803,4.349l-2.133,3.146c-0.007-0.319,0.131-0.62,0.135-0.938c0.002-0.194-0.081-0.442-0.146-0.628  c-1.002-0.439-2.65-1.523-2.448-3.87c-0.855-0.05-0.821-0.794-0.678-1.517c-0.02,0.007-0.044,0.014-0.062,0.017  c-0.395,0.138-0.395,0.138-1.948,1.341c-0.008,1.116,0.263,1.667,1.129,2.859c0.799,1.096,0.85,1.475,0.285,2.127  c-0.081-1.038-0.247-1.535-0.71-2.123c-0.955-0.018-0.771,1.335-1.737,1.297c0.508,0.978,0.068,2.158,0.733,3.106  c0.394,0.03,0.612-0.129,0.854-0.34c0.376-0.33,0.548-0.792,0.866-1.16c0.251-0.288,0.836-0.399,0.352,0.919  c-0.284,0.772-0.304,0.924-0.2,1.623c1.018-0.458,1.838-1.264,2.876-1.685l-1.745,2.573c2.394,2.592,2.394,2.592,2.417,2.84  c-1.531,0.376-2.533,0.604-4.123,0.945c0.418,2.05,0.208,4.202,1.108,6.174c1.469-0.559,3.151,0.354,4.562-0.6  c0.755-0.512,0.424-1.425,0.841-2.062c0.593-0.897,2.487-0.983,2.117-2.43c-0.346,0.047-0.346,0.047-1.467,1.52  c-0.242-0.051-0.552-0.22-0.717-0.395c0.927-0.586,1.138-1.137,1.696-2.612c0.901-0.174,0.859-1.175,1.519-1.562  c0.451,0.938-0.089,2.02,0.467,2.946c0.439,0.73,1.003,0.765,1.788,0.817c0.326-0.611,0.205-0.774-0.73-2.019  c0.063-0.178,0.149-0.414,0.218-0.591c0.954,0.686,2.774,0.125,3.085,1.697c-0.382,0.252-0.827,0.406-1.189,0.686  c0.484,1.583,1.882,0.938,2.17,0.32c0.438-0.933,0.265-2.113,1.271-2.813c0.438,1.259,0.438,1.259,2.314,2.618  c0.946-0.537,1.498-1.479,2.348-2.116c0.683,0.76,1.22,1.357,2.582,0.164c0.181,0.246,0.404,0.587,0.534,0.86  c0.141,0.029,0.326,0.066,0.467,0.097c0.062-0.049,0.062-0.049,1.033-0.945c1.358,2.807-0.807,4.184-6.437,4.094  c-0.011,2.03-0.011,2.03-0.47,2.536c-1.687-0.843-3.637-0.579-5.383-1.176c0.132-0.872,0.165-1.351-0.504-2.688  c-3.915,0.059-6.284,3.336-9.788,4.251c-2.324,4.142-2.324,4.142-1.82,4.891c-2.084,1.791-2.331,2.575-3.94,7.678  c0.938,0.66,1.117,0.997,0.894,3.051c-0.433,3.881,4.385,6.076,6.474,6.836c5.235,1.907,9.392-3.747,14.623-1.872  c-0.15,1.204,0.627,2.353,0.236,3.569c1.642,0.427,6.627,1.732,3.887,10.102c2.837,2.575,2.837,2.575,2.983,4.475l3.42,5.63  C105.627,78.549,110.645,76.267,110.792,70.183z M81.341,16.44c-0.059,0.204-0.157,0.542-0.632,0.713  c-0.116,0.039-0.146,0.044-0.238,0.065c-0.472-0.694-0.306-0.956-0.094-1.291c0.222-0.34,0.392-0.61-0.275-1.426  c0.26,0.026,0.471,0.242,0.751,0.18c0.182-0.317-0.299-0.67,0.063-0.976c-0.238-0.255-0.238-0.255-0.979-0.072  c0.054-0.286,0.118-0.646-0.236-1.304c-0.573-1.076-1.483-1.944-2.073-3.013c0.453-0.195,0.204-0.725-0.144-1.459  c-0.304-0.65-0.279-0.783-0.15-0.932c0.562,0.796,0.653,1.074,0.645,1.968c0.001,0.077-0.045,0.192,0,0.257  c1.575,2.177,2.38,2.293,2.645,2.332c0.025,0.135,0.055,0.315,0.085,0.452c0.354,1.675,1.144,3.193,1.618,4.101  C81.517,15.83,81.456,16.049,81.341,16.44z M106.957,40.364c-0.979-0.835-1.508-2.02-2.472-2.865  c-0.921-0.804-2.037-1.378-2.912-2.239c-0.54-0.535-0.674-0.7-1.115-1.303c1.714-0.178,2.06,2.236,3.885,1.843  c0.694,1.701,1.442,2.125,2.306,2.615c0.742,0.424,1.443,0.819,2.018,2.178c-0.081,0.04-0.184,0.098-0.266,0.127  C107.924,40.893,107.438,40.773,106.957,40.364z"
   id="path6980" />
<radialGradient
   id="XMLID_87_"
   cx="59.3086"
   cy="57.1338"
   r="49.6291"
   gradientTransform="matrix(0.953 0 0 0.953 2.8734 2.8736)"
   gradientUnits="userSpaceOnUse">
	<stop
   offset="0.2485"
   style="stop-color:#FFFFFF"
   id="stop6983" />
	<stop
   offset="0.5207"
   style="stop-color:#C7ECFF"
   id="stop6985" />
	<stop
   offset="0.9527"
   style="stop-color:#058EFF"
   id="stop6987" />
</radialGradient>
<path
   fill="url(#XMLID_87_)"
   d="M44.995,14.179c-0.209,0.205-0.472,0.399-0.704,0.541c-0.105-0.045-0.282-0.122-0.282-0.122  c-0.142-0.062-0.303-0.049-0.432,0.038l-0.439,0.294c-0.108,0.072-0.184,0.199-0.202,0.327l-0.06,0.424l-0.022,0.148  c-0.003,0.022-0.005,0.045-0.005,0.067c0,0.127,0.067,0.232,0.157,0.317c-1.713,1.514-2.96,3.356-4.145,5.163  c-0.719,1.097-1.477,2.212-2.318,3.242c0.121-0.331,0.422-0.842,1.135-1.901c0.052-0.077,0.078-0.166,0.078-0.254  s-0.025-0.177-0.077-0.253c-0.246-0.368-0.582-0.872-0.807-1.453c-0.056-0.145-0.181-0.25-0.332-0.282  c-0.151-0.031-0.308,0.015-0.417,0.125c-6.45,6.528-10.947,14.686-13.004,23.594c-0.045,0.195,0.048,0.392,0.222,0.492  c0.174,0.1,0.397,0.07,0.544-0.066c0,0,0.064-0.06,0.121-0.113c2.161,0.945,3.392,1.497,3.809,2.016  c0.124,0.153,0.182,0.32,0.182,0.541c0,0.34-0.143,0.822-0.389,1.568c-0.897,0.225-1.072,0.435-1.34,1.523  c-0.009,0.036-0.013,0.073-0.013,0.109c0,0.101,0.034,0.201,0.098,0.282c0.677,0.859,1.083,1.071,2.813,0.839  c0.095,0.346,0.217,0.674,0.359,0.959c-0.08,0.268-0.314,1.056-0.314,1.056c-0.013,0.042-0.019,0.083-0.019,0.125  c0,0.146,0.075,0.28,0.204,0.368c0.735,0.498,0.983,0.433,2.233-0.244c0.751,0.861,1.258,0.835,5.182,0.62  c1.6-0.088,1.6-0.088,2.861,2.884c0.052,0.123,0.156,0.217,0.284,0.257l0.652,0.203c0.207,0.065,0.427-0.022,0.531-0.212  l0.252-0.458c0.086-0.158,0.07-0.346-0.038-0.489c-0.44-0.586-0.713-1.251-1.002-1.955l-0.675-1.472  c-0.062-0.138-0.173-0.203-0.322-0.228c-0.259-0.044-0.607-0.229-0.743-0.396c-0.089-0.108-0.223-0.17-0.364-0.167  c-2.374,0.054-2.374,0.054-5.036-2.806c-0.107-0.114-0.269-0.165-0.423-0.136c0,0-0.089,0.017-0.156,0.029  c-0.972-2.203-1.146-2.621-1.146-2.843c0-0.046,0.008-0.084,0.016-0.13c0.005-0.029,0.008-0.058,0.008-0.087  c0-0.106-0.036-0.21-0.106-0.292c-0.09-0.104-0.218-0.162-0.355-0.157l-0.204,0.007l-0.339,0.003  c-0.776-0.072-0.874-0.376-0.906-0.477c-0.029-0.089-0.042-0.188-0.042-0.295c0-2.339,6.503-8.89,7.927-10.13  c0.102-0.088,0.162-0.219,0.162-0.352c0-0.03-0.003-0.06-0.009-0.089c-0.035-0.166-0.056-0.272-0.056-0.379  c0-0.15,0.046-0.311,0.158-0.635c4.244-0.449,4.861-0.566,6.387-2.99c0.023-0.038,0.024-0.082,0.036-0.125  c2.376,0.328,2.413,0.345,2.644,0.646c0.092,0.12,0.238,0.186,0.389,0.177c0.151-0.009,0.288-0.093,0.365-0.223  c0.548-0.924,0.897-1.722,0.897-2.467c0-0.633-0.272-1.229-0.867-1.835c0.164-0.431,0.996-2.611,0.996-2.611  c0.02-0.054,0.03-0.112,0.03-0.169c0-0.114-0.04-0.227-0.118-0.311c-0.672-0.73-0.997-1.084-0.997-1.911  c0-0.775,0.285-1.965,0.837-4.271c0.008-0.035,0.013-0.07,0.013-0.105c0-0.128-0.054-0.252-0.152-0.34  c-0.125-0.111-0.3-0.146-0.458-0.09c-0.547,0.196-0.917,0.613-1.243,0.981c-0.144,0.162-0.271,0.294-0.397,0.411  c0.688-0.995,0.735-1.127,0.831-1.562c0.007-0.033,0.011-0.066,0.011-0.099c0-0.103-0.034-0.202-0.1-0.283  c0,0-0.092-0.115-0.153-0.19c0.104-0.255,0.405-1,0.405-1c0.023-0.056,0.034-0.113,0.034-0.171c0-0.112-0.041-0.222-0.119-0.307  c-0.118-0.129-0.299-0.181-0.467-0.13c-0.188,0.056-0.456,0.088-0.696,0.089c-0.055-0.129-0.111-0.258-0.111-0.258  c-0.06-0.138-0.183-0.238-0.331-0.267S45.102,14.073,44.995,14.179z M43.984,28.591c0.307-0.552,0.591-0.865,0.846-1.057  c-0.09,0.113-0.176,0.225-0.273,0.339c-0.438,0.516-0.882,1.054-1.054,1.788c-0.248-0.073-0.496-0.121-0.727-0.15  c-0.261-0.034-0.484-0.083-0.687-0.161C42.21,29,42.316,28.856,42.6,28.6c0.277,0.05,0.589,0.122,0.848,0.204  C43.654,28.87,43.879,28.781,43.984,28.591z"
   id="path6989" />
<radialGradient
   id="XMLID_88_"
   cx="55.9102"
   cy="75.1904"
   r="49.6269"
   gradientTransform="matrix(0.953 0.0042 -0.0042 0.953 9.1954 -30.7014)"
   gradientUnits="userSpaceOnUse">
	<stop
   offset="0.2485"
   style="stop-color:#FFFFFF"
   id="stop6992" />
	<stop
   offset="0.5207"
   style="stop-color:#C7ECFF"
   id="stop6994" />
	<stop
   offset="0.7515"
   style="stop-color:#7AC3FF"
   id="stop6996" />
	<stop
   offset="0.858"
   style="stop-color:#63B8FF"
   id="stop6998" />
	<stop
   offset="0.9527"
   style="stop-color:#8ACAFF"
   id="stop7000" />
</radialGradient>
<path
   fill="url(#XMLID_88_)"
   d="M23.914,43.969c4.998,2.185,4.998,2.185,4.049,5.037c-1,0.223-1,0.223-1.254,1.257  c0.58,0.737,0.739,0.934,2.791,0.617c0.056,0.449,0.29,1.028,0.508,1.432c-0.128,0.359-0.263,0.839-0.358,1.203  c0.569,0.385,0.569,0.385,2.089-0.445c0.782,0.977,0.782,0.977,5.046,0.743c1.919-0.106,1.919-0.106,3.305,3.162  c0.191,0.059,0.456,0.142,0.651,0.203c0.076-0.135,0.175-0.315,0.248-0.451c-0.798-1.061-1.079-2.346-1.711-3.479  c-0.345-0.058-0.803-0.29-1.02-0.556c-2.578,0.06-2.578,0.06-5.381-2.95c-0.154,0.03-0.363,0.07-0.516,0.097  c-1.386-3.137-1.386-3.137-1.307-3.569c-0.176,0.002-0.411,0.025-0.59,0.008c-5.288-0.488,6.582-11.591,6.726-11.704  c-0.121-0.581-0.121-0.581,0.212-1.528c4.524-0.477,4.893-0.517,6.337-2.811c-0.674-0.393-1.566-0.147-2.205-0.654  c0.284-0.904,0.284-0.904,0.927-1.472c0.343,0.048,0.794,0.154,1.125,0.26c0.938-1.686,1.833-1.592,2.213-1.553  c-0.402,1.138-1.654,1.804-1.882,3.043c2.894,0.398,2.894,0.398,3.25,0.861c1.136-1.918,1.112-2.879-0.107-3.961  c0.464-1.304,0.588-1.631,1.102-2.891c-1.466-1.593-1.466-1.593-0.269-6.597c-1.102,0.394-1.387,2.006-2.915,1.774  c1.404-2.003,1.404-2.003,1.507-2.471c-0.095-0.119-0.224-0.278-0.32-0.397c0.154-0.372,0.355-0.874,0.507-1.249  c-0.327,0.098-0.796,0.133-1.134,0.094c-0.066-0.154-0.155-0.362-0.223-0.519c-0.26,0.256-0.655,0.563-0.984,0.729  c-0.152-0.063-0.354-0.152-0.501-0.216c-0.134,0.088-0.307,0.207-0.44,0.295c-0.021,0.174-0.058,0.409-0.084,0.585  c0.159,0.054,0.369,0.125,0.529,0.181c-3.216,2.527-4.691,6.294-7.278,9.268c-0.158-0.02-0.367-0.047-0.525-0.067  c-0.067-0.576-0.093-0.792,1.269-2.813c-0.264-0.396-0.613-0.92-0.854-1.542c-6.265,6.34-10.807,14.381-12.884,23.376  C23.675,44.184,23.789,44.072,23.914,43.969z"
   id="path7002" />
<radialGradient
   id="XMLID_89_"
   cx="59.3086"
   cy="57.123"
   r="49.636"
   gradientTransform="matrix(0.953 0 0 0.953 2.8734 2.8736)"
   gradientUnits="userSpaceOnUse">
	<stop
   offset="0.2485"
   style="stop-color:#FFFFFF"
   id="stop7005" />
	<stop
   offset="0.5207"
   style="stop-color:#C7ECFF"
   id="stop7007" />
	<stop
   offset="0.9527"
   style="stop-color:#8ACAFF"
   id="stop7009" />
</radialGradient>
<path
   fill="url(#XMLID_89_)"
   d="M24.64,65.594c-0.128,0.108-0.193,0.276-0.157,0.441c0.145,0.665,0.13,0.944,0.052,1.519  c-0.017,0.123,0.015,0.246,0.091,0.343c0.077,0.098,0.187,0.159,0.31,0.172l1.677,0.166c0.143,0.014,0.307-0.037,0.404-0.143  c0.097-0.105,0.162-0.247,0.136-0.389c-0.125-0.68-0.311-1.087-0.662-1.45c-0.002-0.003-0.554-0.392-0.554-0.392  c0-0.001-0.522-0.221-0.522-0.221L25.11,65.52C24.953,65.457,24.768,65.484,24.64,65.594z"
   id="path7011" />
<radialGradient
   id="XMLID_90_"
   cx="55.9204"
   cy="75.1846"
   r="49.6382"
   gradientTransform="matrix(0.953 0.0042 -0.0042 0.953 9.1954 -30.7014)"
   gradientUnits="userSpaceOnUse">
	<stop
   offset="0.2485"
   style="stop-color:#FFFFFF"
   id="stop7014" />
	<stop
   offset="0.5207"
   style="stop-color:#C7ECFF"
   id="stop7016" />
	<stop
   offset="0.7515"
   style="stop-color:#7AC3FF"
   id="stop7018" />
	<stop
   offset="0.858"
   style="stop-color:#63B8FF"
   id="stop7020" />
	<stop
   offset="0.9527"
   style="stop-color:#8ACAFF"
   id="stop7022" />
</radialGradient>
<path
   fill="url(#XMLID_90_)"
   d="M26.65,67.779c0.014,0.001,0.037,0.003,0.056,0.007c-0.109-0.591-0.256-0.92-0.542-1.218  c-0.057-0.059-0.188-0.178-0.432-0.301c-0.258-0.131-0.535-0.213-0.803-0.33c0.162,0.743,0.139,1.08,0.059,1.678  C25.532,67.676,26.092,67.734,26.65,67.779z"
   id="path7024" />
<radialGradient
   id="XMLID_91_"
   cx="66.5146"
   cy="70.2168"
   r="40.4221"
   gradientTransform="matrix(0.953 0 0 0.953 2.8734 2.8736)"
   gradientUnits="userSpaceOnUse">
	<stop
   offset="0.2485"
   style="stop-color:#FFFFFF"
   id="stop7027" />
	<stop
   offset="0.5207"
   style="stop-color:#C7ECFF"
   id="stop7029" />
	<stop
   offset="0.6268"
   style="stop-color:#C3EAFF"
   id="stop7031" />
	<stop
   offset="0.7285"
   style="stop-color:#B8E4FF"
   id="stop7033" />
	<stop
   offset="0.8283"
   style="stop-color:#A4DAFF"
   id="stop7035" />
	<stop
   offset="0.9263"
   style="stop-color:#89CBFF"
   id="stop7037" />
	<stop
   offset="1"
   style="stop-color:#70BEFF"
   id="stop7039" />
</radialGradient>
<path
   fill="url(#XMLID_91_)"
   d="M23.481,51.151c-0.331,0.401-0.672,0.8-1.029,0.994c-0.049-0.01-0.095-0.029-0.147-0.021  c-0.22,0.03-0.381,0.223-0.388,0.445c0,0-0.074,2.452-0.074,2.457c0,0.201,0.133,0.369,0.327,0.427  c0.279,0.082,0.547,0.101,0.819,0.13c0.185,1.068,0.57,1.782,1.169,2.085c0.381,0.192,0.789,0.187,1.141,0.099  c0.451,1.074,1.62,3.47,3.251,3.975c0.489,0.151,0.973,0.109,1.446-0.087c0.091,0.308,0.149,0.613,0.149,0.917  c0,0.745-0.228,1.487-0.464,2.255c-0.248,0.81-0.505,1.645-0.505,2.525c0,0.023,0,0.048,0,0.072  c0.023,0.312,0.252,2.823,1.491,4.351c4.778,5.896,4.778,5.896,5.914,6.459c1.121,0.553,1.877,1.098,2.258,1.623  c0.049,0.115,3.77,8.776,3.771,8.779c1.298,5.708,7.11,10.725,10.662,12.019c1.423,0.519,2.553,0.503,3.266-0.045  c0.113-0.088,0.178-0.222,0.178-0.362c0-0.023-0.002-0.048-0.005-0.071c-0.027-0.167-0.142-0.304-0.3-0.358  c-1.303-0.454-2.177-1.401-3.102-2.404c-0.669-0.726-1.368-1.459-2.239-2.022c0.052-0.053,0.13-0.132,0.13-0.132  c0.084-0.086,0.132-0.177,0.132-0.289c0-0.017,0-0.035-0.003-0.054l-0.186-1.457c0,0-0.075-0.515-0.117-0.804  c0.719-0.567,1.234-0.635,1.546-0.661c0.125-0.01,0.246-0.071,0.323-0.17c0.066-0.082,0.104-0.185,0.104-0.289  c0-0.02-0.001-0.04-0.004-0.061c-0.112-0.78-0.124-0.861-0.124-1.627c0-0.018,0-0.04,0-0.058c0.907-0.533,1.243-1.407,1.515-2.203  c0.248-0.727,0.462-1.354,1.065-1.72c0.137-0.083,0.219-0.231,0.219-0.39c0-0.015,0-0.03-0.002-0.045  c-0.043-0.436-0.166-0.84-0.284-1.231c-0.114-0.376-0.206-0.733-0.236-1.091c0.779-0.483,0.99-0.553,3.296-1.271  c0.142-0.044,0.258-0.168,0.303-0.31c0.432-1.342,0.751-2.334,0.751-3.465c0-0.595-0.088-1.227-0.294-1.969  c-0.053-0.188-0.076-0.363-0.076-0.53c0-0.769,0.509-1.338,1.081-1.979c0.478-0.535,0.972-1.089,1.195-1.804  c0.068-0.22,0.103-0.446,0.103-0.677c0-0.748-0.359-1.536-1.049-2.277c-1.355-1.456-4.051-2.708-6.38-2.16  c-0.993,0.233-4.002-1.299-5.543-2.207c0.037-0.085,0.163-0.372,0.163-0.372c0.025-0.06,0.039-0.121,0.039-0.184  c0-0.074-0.018-0.147-0.053-0.214c-0.906-1.705-2.554-2.025-4.009-2.307c-0.951-0.185-1.85-0.359-2.546-0.867  c-0.516-0.375-0.715-0.919-0.946-1.549c-0.135-0.369-0.275-0.751-0.49-1.111c-0.123-0.206-0.384-0.281-0.598-0.173  c-1.69,0.858-2.958,0.557-4.846-1.15c-0.169-0.153-0.426-0.157-0.6-0.009c-0.784,0.665-0.848,0.719-2.968,1.08  c-0.216,0.037-0.375,0.222-0.379,0.441c-0.019,0.993-0.056,1.211-0.598,1.701c-0.426-0.505-0.857-0.542-2.237-0.488  c-0.334-3.797-0.475-4.296-2.479-5.311c0.065-0.386,0.146-0.768,0.256-1.17c0.186-0.684,0.377-1.39,0.377-2.146  c0-0.03,0-0.061-0.001-0.091c-0.003-0.143-0.073-0.277-0.189-0.36C25.081,49.212,24.156,50.333,23.481,51.151z"
   id="path7041" />
<radialGradient
   id="XMLID_92_"
   cx="55.9097"
   cy="75.1904"
   r="49.6251"
   gradientTransform="matrix(0.953 0.0042 -0.0042 0.953 9.1954 -30.7014)"
   gradientUnits="userSpaceOnUse">
	<stop
   offset="0.5207"
   style="stop-color:#C7ECFF"
   id="stop7044" />
	<stop
   offset="0.7515"
   style="stop-color:#7AC3FF"
   id="stop7046" />
	<stop
   offset="0.858"
   style="stop-color:#63B8FF"
   id="stop7048" />
	<stop
   offset="0.9065"
   style="stop-color:#61B3F9"
   id="stop7050" />
	<stop
   offset="0.9728"
   style="stop-color:#5AA7E7"
   id="stop7052" />
	<stop
   offset="1"
   style="stop-color:#56A0DE"
   id="stop7054" />
</radialGradient>
<path
   fill="url(#XMLID_92_)"
   d="M39.233,79.618l3.797,8.841c1.568,7.145,10.774,13.679,13.23,11.789  c-2.591-0.901-3.59-3.58-5.917-4.769c0.16-0.162,0.372-0.377,0.529-0.538c-0.046-0.837-0.253-1.654-0.337-2.486  c0.947-0.832,1.638-0.884,2.007-0.915c-0.13-0.903-0.13-0.903-0.128-1.992c1.826-0.799,1.224-3.114,2.799-4.069  c-0.089-0.889-0.563-1.701-0.545-2.606c1.054-0.661,1.054-0.661,3.641-1.466c0.656-2.036,1.021-3.159,0.457-5.187  c-0.583-2.099,1.698-2.948,2.204-4.57c0.734-2.352-3.641-5.275-6.787-4.535c-1.554,0.366-6.182-2.436-6.228-2.465  c0.1-0.221,0.229-0.519,0.327-0.741c-1.347-2.533-4.489-1.61-6.421-3.019c-0.969-0.706-1.011-1.878-1.559-2.795  c-1.873,0.951-3.324,0.621-5.358-1.218c-0.836,0.71-0.943,0.8-3.186,1.182c-0.025,1.304-0.064,1.479-1.127,2.364  c-0.504-0.775-0.504-0.775-2.579-0.687c-0.389-4.462-0.389-4.462-2.581-5.538c0.137-1.231,0.72-2.386,0.694-3.643  c-1.647-1.186-2.34,1.689-3.77,2.122c-0.007-0.026-0.014-0.055-0.024-0.082c-0.045,0.801-0.067,1.609-0.073,2.421  c0.317,0.093,0.662,0.163,1.078,0.172c0.355,2.938,1.992,2.105,2.179,1.999c0.217,0.577,2.192,5.582,4.7,3.824  c1.063,2.248-0.658,4.251-0.623,6.407c0.002,0.024,0.185,2.586,1.389,4.07c4.715,5.819,4.715,5.819,5.763,6.337  C37.989,78.419,38.812,79.021,39.233,79.618z"
   id="path7056" />
<radialGradient
   id="XMLID_93_"
   cx="55.9282"
   cy="75.1943"
   r="49.61"
   gradientTransform="matrix(0.953 0.0042 -0.0042 0.953 9.1954 -30.7014)"
   gradientUnits="userSpaceOnUse">
	<stop
   offset="0.2485"
   style="stop-color:#FFFFFF"
   id="stop7059" />
	<stop
   offset="0.5207"
   style="stop-color:#C7ECFF"
   id="stop7061" />
	<stop
   offset="0.7515"
   style="stop-color:#7AC3FF"
   id="stop7063" />
	<stop
   offset="0.858"
   style="stop-color:#63B8FF"
   id="stop7065" />
	<stop
   offset="0.9527"
   style="stop-color:#8ACAFF"
   id="stop7067" />
</radialGradient>
<path
   fill="url(#XMLID_93_)"
   d="M114.952,57.111c-0.13,0.096-0.176,0.528,0.001,0.676c0.129,0.105,0.293,0.024,0.273-0.396  C115.219,57.213,115.086,57.044,114.952,57.111z"
   id="path7069" />
<radialGradient
   id="XMLID_94_"
   cx="55.9131"
   cy="75.1084"
   r="49.6931"
   gradientTransform="matrix(0.953 0.0042 -0.0042 0.953 9.1954 -30.7014)"
   gradientUnits="userSpaceOnUse">
	<stop
   offset="0.2485"
   style="stop-color:#FFFFFF"
   id="stop7072" />
	<stop
   offset="0.5207"
   style="stop-color:#C7ECFF"
   id="stop7074" />
	<stop
   offset="0.7515"
   style="stop-color:#7AC3FF"
   id="stop7076" />
	<stop
   offset="0.858"
   style="stop-color:#63B8FF"
   id="stop7078" />
	<stop
   offset="0.9527"
   style="stop-color:#8ACAFF"
   id="stop7080" />
</radialGradient>
<path
   fill="url(#XMLID_94_)"
   d="M56.847,98.436c-0.474,0.01-0.951,0.02-1.427,0.022c0.617,0.779,1.253,1.104,2.002,1.027  c-0.107-0.197-0.103-0.429-0.205-0.629c-0.016-0.021-0.028-0.044-0.043-0.067C57.063,98.642,57.021,98.602,56.847,98.436z"
   id="path7082" />
<radialGradient
   id="XMLID_95_"
   cx="56.0659"
   cy="75.1797"
   r="49.5012"
   gradientTransform="matrix(0.953 0.0042 -0.0042 0.953 9.1954 -30.7014)"
   gradientUnits="userSpaceOnUse">
	<stop
   offset="0.2485"
   style="stop-color:#FFFFFF"
   id="stop7085" />
	<stop
   offset="0.5207"
   style="stop-color:#C7ECFF"
   id="stop7087" />
	<stop
   offset="0.7515"
   style="stop-color:#7AC3FF"
   id="stop7089" />
	<stop
   offset="0.858"
   style="stop-color:#63B8FF"
   id="stop7091" />
	<stop
   offset="0.9527"
   style="stop-color:#8ACAFF"
   id="stop7093" />
</radialGradient>
<path
   fill="url(#XMLID_95_)"
   d="M117.127,54.404c-0.002-0.082-0.049-0.248-0.148-0.183c-0.158,0.128-0.348,0.627-0.178,0.778  C116.926,55.11,117.133,54.634,117.127,54.404z"
   id="path7095" />
<radialGradient
   id="XMLID_96_"
   cx="55.8989"
   cy="75.1904"
   r="49.6344"
   gradientTransform="matrix(0.953 0.0042 -0.0042 0.953 9.1954 -30.7014)"
   gradientUnits="userSpaceOnUse">
	<stop
   offset="0.2485"
   style="stop-color:#FFFFFF"
   id="stop7098" />
	<stop
   offset="0.5207"
   style="stop-color:#C7ECFF"
   id="stop7100" />
	<stop
   offset="0.7515"
   style="stop-color:#7AC3FF"
   id="stop7102" />
	<stop
   offset="0.858"
   style="stop-color:#63B8FF"
   id="stop7104" />
	<stop
   offset="0.9527"
   style="stop-color:#8ACAFF"
   id="stop7106" />
</radialGradient>
<path
   fill="url(#XMLID_96_)"
   d="M119.744,48.035c-0.042-0.102-0.082-0.202-0.148-0.293c-0.113-0.157-0.187-0.108-0.254-0.061  c0.178,0.558,0.322,1.037,0.488,1.599c0.025,0.002,0.045-0.007,0.068-0.01C119.848,48.857,119.805,48.443,119.744,48.035z"
   id="path7108" />
<radialGradient
   id="XMLID_97_"
   cx="55.5986"
   cy="75.1543"
   r="49.862"
   gradientTransform="matrix(0.953 0.0042 -0.0042 0.953 9.1954 -30.7014)"
   gradientUnits="userSpaceOnUse">
	<stop
   offset="0.2485"
   style="stop-color:#FFFFFF"
   id="stop7111" />
	<stop
   offset="0.5207"
   style="stop-color:#C7ECFF"
   id="stop7113" />
	<stop
   offset="0.7515"
   style="stop-color:#7AC3FF"
   id="stop7115" />
	<stop
   offset="0.858"
   style="stop-color:#63B8FF"
   id="stop7117" />
	<stop
   offset="0.9527"
   style="stop-color:#8ACAFF"
   id="stop7119" />
</radialGradient>
<path
   fill="url(#XMLID_97_)"
   d="M119.757,61.516c-0.106,0.098-0.179,0.53-0.058,0.673c0.03,0.029,0.064,0.033,0.098,0.02  c0.031-0.221,0.061-0.443,0.09-0.664C119.85,61.5,119.806,61.48,119.757,61.516z"
   id="path7121" />
<radialGradient
   id="XMLID_98_"
   cx="55.8076"
   cy="75.1748"
   r="49.711"
   gradientTransform="matrix(0.953 0.0042 -0.0042 0.953 9.1954 -30.7014)"
   gradientUnits="userSpaceOnUse">
	<stop
   offset="0.2485"
   style="stop-color:#FFFFFF"
   id="stop7124" />
	<stop
   offset="0.5207"
   style="stop-color:#C7ECFF"
   id="stop7126" />
	<stop
   offset="0.7515"
   style="stop-color:#7AC3FF"
   id="stop7128" />
	<stop
   offset="0.858"
   style="stop-color:#63B8FF"
   id="stop7130" />
	<stop
   offset="0.9527"
   style="stop-color:#8ACAFF"
   id="stop7132" />
</radialGradient>
<path
   fill="url(#XMLID_98_)"
   d="M118.175,54.155c-0.002-0.055-0.011-0.103-0.019-0.143c-0.145,0.196-0.356,0.343-0.469,0.563  c-0.094,0.178-0.096,0.317-0.067,0.485c0.142-0.185,0.335-0.332,0.461-0.531C118.129,54.452,118.186,54.325,118.175,54.155z"
   id="path7134" />
<radialGradient
   id="XMLID_99_"
   cx="59.3091"
   cy="57.1377"
   r="49.6326"
   gradientTransform="matrix(0.953 0 0 0.953 2.8734 2.8736)"
   gradientUnits="userSpaceOnUse">
	<stop
   offset="0.2485"
   style="stop-color:#FFFFFF"
   id="stop7137" />
	<stop
   offset="0.5207"
   style="stop-color:#C7ECFF"
   id="stop7139" />
	<stop
   offset="0.9527"
   style="stop-color:#8ACAFF"
   id="stop7141" />
</radialGradient>
<path
   fill="url(#XMLID_99_)"
   d="M94.014,29.623c-0.295,0.28-0.427,0.26-0.797,0.151c0.001,0,0.001,0,0.002,0  c-0.52-0.155-0.773-0.132-1.115-0.026c-0.045,0.016-0.324,0.162-0.324,0.162c-0.167,0.088-0.229,0.25-0.208,0.438  c0.029,0.247,0.082,0.706,0.518,1.023c0.593,0.428,1.448,0.239,2.035-0.136c0.532-0.341,0.799-0.801,0.714-1.231  c-0.011-0.043-0.125-0.293-0.125-0.293c-0.061-0.133-0.168-0.203-0.313-0.231C94.255,29.451,94.121,29.522,94.014,29.623z"
   id="path7143" />
<radialGradient
   id="XMLID_100_"
   cx="55.8984"
   cy="75.1924"
   r="49.6438"
   gradientTransform="matrix(0.953 0.0042 -0.0042 0.953 9.1954 -30.7014)"
   gradientUnits="userSpaceOnUse">
	<stop
   offset="0.2485"
   style="stop-color:#FFFFFF"
   id="stop7146" />
	<stop
   offset="0.5207"
   style="stop-color:#C7ECFF"
   id="stop7148" />
	<stop
   offset="0.7515"
   style="stop-color:#7AC3FF"
   id="stop7150" />
	<stop
   offset="0.858"
   style="stop-color:#63B8FF"
   id="stop7152" />
	<stop
   offset="0.9527"
   style="stop-color:#8ACAFF"
   id="stop7154" />
</radialGradient>
<path
   fill="url(#XMLID_100_)"
   d="M94.391,30.092c-0.014-0.043-0.039-0.099-0.063-0.138c-0.463,0.439-0.79,0.39-1.238,0.258  c-0.44-0.131-0.601-0.105-0.852-0.028c-0.077,0.033-0.131,0.059-0.213,0.112c0.024,0.213,0.062,0.51,0.333,0.708  C93.054,31.506,94.51,30.697,94.391,30.092z"
   id="path7156" />
<radialGradient
   id="XMLID_101_"
   cx="55.9468"
   cy="75.1826"
   r="49.5991"
   gradientTransform="matrix(0.953 0.0042 -0.0042 0.953 9.1954 -30.7014)"
   gradientUnits="userSpaceOnUse">
	<stop
   offset="0.2485"
   style="stop-color:#FFFFFF"
   id="stop7159" />
	<stop
   offset="0.5207"
   style="stop-color:#C7ECFF"
   id="stop7161" />
	<stop
   offset="0.7515"
   style="stop-color:#7AC3FF"
   id="stop7163" />
	<stop
   offset="0.858"
   style="stop-color:#63B8FF"
   id="stop7165" />
	<stop
   offset="0.9527"
   style="stop-color:#8ACAFF"
   id="stop7167" />
</radialGradient>
<path
   fill="url(#XMLID_101_)"
   d="M116.632,58.254c-0.067-0.414-0.144-0.841-0.192-1.101c-0.306,0.206-0.566,0.383-0.732,0.493  c0.07,0.393,0.123,0.713,0.191,1.101c0.227-0.152,0.463-0.306,0.687-0.462C116.599,58.273,116.619,58.263,116.632,58.254z"
   id="path7169" />
<radialGradient
   id="XMLID_102_"
   cx="55.9858"
   cy="75.1875"
   r="49.5651"
   gradientTransform="matrix(0.953 0.0042 -0.0042 0.953 9.1954 -30.7014)"
   gradientUnits="userSpaceOnUse">
	<stop
   offset="0.2485"
   style="stop-color:#FFFFFF"
   id="stop7172" />
	<stop
   offset="0.5207"
   style="stop-color:#C7ECFF"
   id="stop7174" />
	<stop
   offset="0.7515"
   style="stop-color:#7AC3FF"
   id="stop7176" />
	<stop
   offset="0.858"
   style="stop-color:#63B8FF"
   id="stop7178" />
	<stop
   offset="0.9527"
   style="stop-color:#8ACAFF"
   id="stop7180" />
</radialGradient>
<path
   fill="url(#XMLID_102_)"
   d="M118.928,50.983c0.196,0.316,0.346-0.121,0.486-0.597c0.003-0.02,0.016-0.044,0.017-0.061  c-0.001-0.031-0.137-0.423-0.409-0.208C118.841,50.295,118.761,50.71,118.928,50.983z"
   id="path7182" />
<radialGradient
   id="XMLID_103_"
   cx="55.9263"
   cy="75.1934"
   r="49.6132"
   gradientTransform="matrix(0.953 0.0042 -0.0042 0.953 9.1954 -30.7014)"
   gradientUnits="userSpaceOnUse">
	<stop
   offset="0.2485"
   style="stop-color:#FFFFFF"
   id="stop7185" />
	<stop
   offset="0.5207"
   style="stop-color:#C7ECFF"
   id="stop7187" />
	<stop
   offset="0.7515"
   style="stop-color:#7AC3FF"
   id="stop7189" />
	<stop
   offset="0.858"
   style="stop-color:#63B8FF"
   id="stop7191" />
	<stop
   offset="0.9527"
   style="stop-color:#8ACAFF"
   id="stop7193" />
</radialGradient>
<path
   fill="url(#XMLID_103_)"
   d="M115.832,66.864c0.531-0.442,1.55,0.152,1.856-0.69c0.007-0.024,0.893-6.529,0.896-6.861  c0.022-2.542-0.798-3.159-1.19-3.457c-0.111,2.224-0.512,3.215-1.709,4.244c0.302,1.352,0.354,2.095,0.075,3.821  C115.531,65.332,115.512,65.826,115.832,66.864z"
   id="path7195" />
<path
   style="opacity:0.8;fill:url(#radialGradient7631)"
   id="path7204"
   d="M 67.753,29.272 C 62.349,28.253 57.089,27.843 52.095,28.095 C 68.075,31.071 84.51,37.007 101.584,47.239 C 107.522,50.797 113.547,54.893 119.651,59.548 C 119.732,58.415 119.756,57.291 119.755,56.169 C 103.644,42.003 84.969,32.519 67.753,29.272 z " /><path
   style="opacity:0.8;fill:url(#radialGradient7628);fill-opacity:1.0"
   id="path7211"
   d="M 101.584,47.239 C 93.896,58.531 55.39,71.929 28.999,72.576 C 29.34,73.491 29.709,74.407 30.106,75.297 C 61.535,75.61 93.549,60.245 101.584,47.239 z " /><path
   style="opacity:0.8;fill:url(#radialGradient7625);fill-opacity:1.0"
   id="path7218"
   d="M 103.269,91.96 C 74.416,94.05 52.079,89.822 33.65,81.814 C 33.988,82.333 34.331,82.848 34.689,83.354 C 51.058,93.738 76.745,97.854 101.958,93.016 C 102.397,92.669 102.842,92.322 103.269,91.96 z " /><path
   style="opacity:0.8;fill:url(#radialGradient7622);fill-opacity:1.0"
   id="path7225"
   d="M 114.69,32.77 C 109.049,42.043 104.3,47.458 99.439,49.799 C 104.802,47.504 110.076,43.207 115.962,35.309 L 114.69,32.77 z " />
<path
   style="fill:url(#radialGradient7654);fill-opacity:1.0"
   id="path7234"
   d="M 71.979,65.925 C 70.018,65.09 68.076,64.328 66.325,63.919 C 68.305,63.851 70.363,64.027 72.455,64.286 C 71.703,62.326 71.055,60.405 70.737,58.581 C 71.497,60.051 72.672,61.728 73.937,63.433 C 74.771,61.471 75.533,59.53 75.944,57.778 C 76.011,59.758 75.838,61.816 75.578,63.909 C 77.538,63.157 79.457,62.508 81.28,62.19 C 79.811,62.951 78.134,64.126 76.429,65.392 C 78.39,66.225 80.331,66.987 82.083,67.398 C 80.104,67.464 78.045,67.292 75.953,67.03 C 76.705,68.99 77.353,70.907 77.671,72.732 C 76.91,71.262 75.736,69.586 74.471,67.883 C 73.638,69.846 72.876,71.786 72.465,73.536 C 72.399,71.557 72.573,69.5 72.831,67.407 C 70.873,68.16 68.954,68.806 67.13,69.125 C 68.601,68.364 70.276,67.19 71.979,65.925 z " />
<path
   style="fill:url(#radialGradient7658);fill-opacity:1.0"
   id="path7243"
   d="M 81.237,92.516 C 80.339,91.238 79.426,90.011 78.497,89.078 C 79.755,89.804 80.967,90.711 82.167,91.682 C 82.46,90.171 82.799,88.725 83.31,87.466 C 83.213,88.675 83.294,90.175 83.419,91.726 C 84.699,90.828 85.927,89.916 86.86,88.986 C 86.133,90.243 85.228,91.457 84.256,92.658 C 85.767,92.95 87.213,93.29 88.469,93.8 C 87.26,93.703 85.761,93.784 84.21,93.91 C 85.107,95.189 86.02,96.416 86.951,97.348 C 85.693,96.624 84.479,95.718 83.282,94.745 C 82.988,96.256 82.646,97.699 82.14,98.956 C 82.235,97.748 82.154,96.251 82.027,94.7 C 80.748,95.597 79.521,96.51 78.588,97.441 C 79.315,96.183 80.219,94.971 81.192,93.769 C 79.683,93.477 78.237,93.136 76.981,92.627 C 78.188,92.726 79.686,92.644 81.237,92.516 z " />
<path
   style="fill:url(#XMLID_110_)"
   id="path7252"
   d="M 59.078,28.385 C 58.197,26.811 57.292,25.295 56.331,24.113 C 57.691,25.094 58.978,26.277 60.243,27.535 C 60.756,25.833 61.316,24.211 62.049,22.826 C 61.797,24.203 61.715,25.934 61.678,27.731 C 63.253,26.85 64.77,25.945 65.953,24.984 C 64.972,26.345 63.789,27.633 62.532,28.9 C 64.233,29.412 65.856,29.971 67.239,30.703 C 65.862,30.451 64.13,30.369 62.334,30.334 C 63.216,31.908 64.12,33.424 65.081,34.605 C 63.72,33.624 62.433,32.442 61.168,31.185 C 60.656,32.886 60.096,34.506 59.364,35.891 C 59.616,34.514 59.697,32.783 59.732,30.987 C 58.158,31.869 56.642,32.774 55.46,33.736 C 56.44,32.375 57.623,31.088 58.88,29.822 C 57.179,29.31 55.558,28.75 54.174,28.018 C 55.551,28.269 57.282,28.35 59.078,28.385 z " />
<rect
   id="_x3C_Sezione_x3E_"
   fill="none"
   width="128"
   height="128" />
</svg>