<?xml version="1.0" encoding="UTF-8" standalone="no"?>
<!-- Created with Inkscape (http://www.inkscape.org/) -->
<svg
   xmlns:dc="http://purl.org/dc/elements/1.1/"
   xmlns:cc="http://web.resource.org/cc/"
   xmlns:rdf="http://www.w3.org/1999/02/22-rdf-syntax-ns#"
   xmlns:svg="http://www.w3.org/2000/svg"
   xmlns="http://www.w3.org/2000/svg"
   xmlns:xlink="http://www.w3.org/1999/xlink"
   xmlns:sodipodi="http://sodipodi.sourceforge.net/DTD/sodipodi-0.dtd"
   xmlns:inkscape="http://www.inkscape.org/namespaces/inkscape"
   width="128"
   height="128"
   id="svg1307"
   sodipodi:version="0.32"
   inkscape:version="0.44"
   version="1.0"
   sodipodi:docbase="/home/pinheiro/artwork/Oxygen/theme/svg/apps"
   sodipodi:docname="ktorrent.svg">
  <defs
     id="defs1309">
    <linearGradient
       inkscape:collect="always"
       id="linearGradient3729">
      <stop
         style="stop-color:white;stop-opacity:1;"
         offset="0"
         id="stop3731" />
      <stop
         style="stop-color:white;stop-opacity:0;"
         offset="1"
         id="stop3733" />
    </linearGradient>
    <linearGradient
       inkscape:collect="always"
       id="linearGradient3820">
      <stop
         style="stop-color:black;stop-opacity:1;"
         offset="0"
         id="stop3822" />
      <stop
         style="stop-color:black;stop-opacity:0;"
         offset="1"
         id="stop3824" />
    </linearGradient>
    <linearGradient
       inkscape:collect="always"
       id="linearGradient3812">
      <stop
         style="stop-color:#a0bdf5;stop-opacity:1;"
         offset="0"
         id="stop3814" />
      <stop
         style="stop-color:#a0bdf5;stop-opacity:0;"
         offset="1"
         id="stop3816" />
    </linearGradient>
    <linearGradient
       inkscape:collect="always"
       id="linearGradient3779">
      <stop
         style="stop-color:#008c00;stop-opacity:1;"
         offset="0"
         id="stop3781" />
      <stop
         style="stop-color:#008c00;stop-opacity:0;"
         offset="1"
         id="stop3783" />
    </linearGradient>
    <linearGradient
       id="linearGradient3771">
      <stop
         style="stop-color:#008c00;stop-opacity:1;"
         offset="0"
         id="stop3773" />
      <stop
         style="stop-color:#0cff0c;stop-opacity:1;"
         offset="1"
         id="stop3775" />
    </linearGradient>
    <linearGradient
       id="linearGradient3755">
      <stop
         style="stop-color:#032b78;stop-opacity:1;"
         offset="0"
         id="stop3757" />
      <stop
         id="stop3763"
         offset="0.95604396"
         style="stop-color:#032b78;stop-opacity:1;" />
      <stop
         style="stop-color:#032b78;stop-opacity:0;"
         offset="1"
         id="stop3759" />
    </linearGradient>
    <linearGradient
       inkscape:collect="always"
       id="linearGradient3745">
      <stop
         style="stop-color:white;stop-opacity:1;"
         offset="0"
         id="stop3747" />
      <stop
         style="stop-color:white;stop-opacity:0;"
         offset="1"
         id="stop3749" />
    </linearGradient>
    <linearGradient
       inkscape:collect="always"
       id="linearGradient3735">
      <stop
         style="stop-color:white;stop-opacity:1;"
         offset="0"
         id="stop3737" />
      <stop
         style="stop-color:white;stop-opacity:0;"
         offset="1"
         id="stop3739" />
    </linearGradient>
    <linearGradient
       id="linearGradient3722">
      <stop
         style="stop-color:#e6eef8;stop-opacity:1;"
         offset="0"
         id="stop3724" />
      <stop
         style="stop-color:#a4c0e4;stop-opacity:0;"
         offset="1"
         id="stop3726" />
    </linearGradient>
    <linearGradient
       id="linearGradient3716">
      <stop
         id="stop3718"
         offset="0"
         style="stop-color:#eae6d4;stop-opacity:1;" />
      <stop
         id="stop3720"
         offset="1"
         style="stop-color:#7d85ff;stop-opacity:1;" />
    </linearGradient>
    <linearGradient
       id="linearGradient3698">
      <stop
         id="stop3700"
         offset="0"
         style="stop-color:#00148e;stop-opacity:1;" />
      <stop
         id="stop3702"
         offset="1"
         style="stop-color:#9f9f9f;stop-opacity:0;" />
    </linearGradient>
    <linearGradient
       id="linearGradient2805">
      <stop
         style="stop-color:#c1ddff;stop-opacity:1;"
         offset="0"
         id="stop2807" />
      <stop
         style="stop-color:#00316e;stop-opacity:1;"
         offset="1"
         id="stop2809" />
    </linearGradient>
    <linearGradient
       id="linearGradient4230">
      <stop
         style="stop-color:#6c6c6c;stop-opacity:1;"
         offset="0"
         id="stop4232" />
      <stop
         style="stop-color:#ffffff;stop-opacity:1;"
         offset="1"
         id="stop4234" />
    </linearGradient>
    <linearGradient
       id="linearGradient3175">
      <stop
         style="stop-color:#ffffff;stop-opacity:1;"
         offset="0"
         id="stop3177" />
      <stop
         style="stop-color:#bebebe;stop-opacity:1;"
         offset="1"
         id="stop3179" />
    </linearGradient>
    <radialGradient
       inkscape:collect="always"
       xlink:href="#linearGradient3175"
       id="radialGradient3183"
       cx="-384.55103"
       cy="106.33506"
       fx="-335.45837"
       fy="43.704659"
       r="97.124817"
       gradientTransform="matrix(1.042727,1.271604e-4,-1.240882e-4,1.017677,18.23924,-2.113567)"
       gradientUnits="userSpaceOnUse" />
    <linearGradient
       inkscape:collect="always"
       id="linearGradient4068">
      <stop
         style="stop-color:#9f9f9f;stop-opacity:1;"
         offset="0"
         id="stop4070" />
      <stop
         style="stop-color:#9f9f9f;stop-opacity:0;"
         offset="1"
         id="stop4072" />
    </linearGradient>
    <radialGradient
       inkscape:collect="always"
       xlink:href="#linearGradient4068"
       id="radialGradient4074"
       cx="-376.81227"
       cy="100.83635"
       fx="-376.81227"
       fy="100.83635"
       r="98.40625"
       gradientTransform="matrix(1,0,0,0.999868,-1.71769,-1.704422)"
       gradientUnits="userSpaceOnUse" />
    <linearGradient
       id="linearGradient4060">
      <stop
         style="stop-color:#1d1d1d;stop-opacity:1;"
         offset="0"
         id="stop4062" />
      <stop
         style="stop-color:#ffffff;stop-opacity:0;"
         offset="1"
         id="stop4064" />
    </linearGradient>
    <linearGradient
       inkscape:collect="always"
       xlink:href="#linearGradient4060"
       id="linearGradient4077"
       gradientUnits="userSpaceOnUse"
       gradientTransform="matrix(0.638958,0,0,0.861285,-163.4183,12.91795)"
       x1="-482.5896"
       y1="198.75192"
       x2="-216.33328"
       y2="12.372486" />
    <linearGradient
       inkscape:collect="always"
       id="linearGradient3291">
      <stop
         style="stop-color:#000000;stop-opacity:1;"
         offset="0"
         id="stop3293" />
      <stop
         style="stop-color:#000000;stop-opacity:0;"
         offset="1"
         id="stop3295" />
    </linearGradient>
    <radialGradient
       inkscape:collect="always"
       xlink:href="#linearGradient3291"
       id="radialGradient3297"
       cx="63.912209"
       cy="115.70919"
       fx="64.086494"
       fy="118.07164"
       r="63.912209"
       gradientTransform="matrix(1,0,0,0.197802,0,92.82166)"
       gradientUnits="userSpaceOnUse" />
    <linearGradient
       inkscape:collect="always"
       xlink:href="#linearGradient4230"
       id="linearGradient4236"
       x1="-64.16288"
       y1="149.37651"
       x2="107.71619"
       y2="18.743874"
       gradientUnits="userSpaceOnUse" />
    <linearGradient
       inkscape:collect="always"
       xlink:href="#linearGradient4060"
       id="linearGradient1912"
       gradientUnits="userSpaceOnUse"
       gradientTransform="matrix(0.638958,0,0,0.861285,-163.4183,12.91795)"
       x1="-482.5896"
       y1="198.75192"
       x2="-216.33328"
       y2="12.372486" />
    <radialGradient
       inkscape:collect="always"
       xlink:href="#linearGradient3175"
       id="radialGradient1916"
       gradientUnits="userSpaceOnUse"
       gradientTransform="matrix(1.042727,1.271604e-4,-1.240882e-4,1.017677,18.23924,-2.113567)"
       cx="-384.55103"
       cy="106.33506"
       fx="-335.45837"
       fy="43.704659"
       r="97.124817" />
    <radialGradient
       inkscape:collect="always"
       xlink:href="#linearGradient2805"
       id="radialGradient2811"
       cx="65.361084"
       cy="60.92733"
       fx="57.520046"
       fy="107.16486"
       r="60.01239"
       gradientTransform="matrix(1,0,0,1.00713,0,-0.434418)"
       gradientUnits="userSpaceOnUse" />
    <linearGradient
       inkscape:collect="always"
       xlink:href="#linearGradient3698"
       id="linearGradient3704"
       x1="-647.40521"
       y1="93.033043"
       x2="-415.34451"
       y2="73.694656"
       gradientUnits="userSpaceOnUse"
       gradientTransform="translate(2.654289,-3.412657)" />
    <linearGradient
       inkscape:collect="always"
       xlink:href="#linearGradient3698"
       id="linearGradient3710"
       gradientUnits="userSpaceOnUse"
       gradientTransform="matrix(0.507191,0,0,0.507191,330.3757,16.08027)"
       x1="-647.40521"
       y1="93.033043"
       x2="-415.34451"
       y2="73.694656" />
    <linearGradient
       inkscape:collect="always"
       xlink:href="#linearGradient4060"
       id="linearGradient3714"
       gradientUnits="userSpaceOnUse"
       gradientTransform="matrix(0.371987,0,0,0.501421,389.4939,-18.2007)"
       x1="-482.5896"
       y1="198.75192"
       x2="-216.33328"
       y2="12.372486" />
    <linearGradient
       inkscape:collect="always"
       xlink:href="#linearGradient3722"
       id="linearGradient3728"
       x1="266.00696"
       y1="-19.02128"
       x2="244.3732"
       y2="93.121078"
       gradientUnits="userSpaceOnUse"
       gradientTransform="matrix(0.871195,0,0,0.871195,-156.068,11.94851)" />
    <radialGradient
       inkscape:collect="always"
       xlink:href="#linearGradient3745"
       id="radialGradient3751"
       cx="257.83911"
       cy="52.944092"
       fx="257.14221"
       fy="89.183182"
       r="38.85247"
       gradientUnits="userSpaceOnUse" />
    <radialGradient
       inkscape:collect="always"
       xlink:href="#linearGradient3755"
       id="radialGradient3761"
       cx="286.59174"
       cy="42.459553"
       fx="286.59174"
       fy="42.459553"
       r="49.014053"
       gradientUnits="userSpaceOnUse" />
    <radialGradient
       inkscape:collect="always"
       xlink:href="#linearGradient3771"
       id="radialGradient3777"
       cx="49.384689"
       cy="98.518631"
       fx="60.140072"
       fy="103.74369"
       r="40.143066"
       gradientTransform="matrix(2.03372,-0.786629,0.400992,1.036707,-96.93405,38.48555)"
       gradientUnits="userSpaceOnUse" />
    <linearGradient
       inkscape:collect="always"
       xlink:href="#linearGradient3779"
       id="linearGradient3785"
       x1="51.775902"
       y1="58.964638"
       x2="81.958923"
       y2="117.65662"
       gradientUnits="userSpaceOnUse"
       gradientTransform="matrix(1.218658,0,0,1.218658,-17.17733,-17.26101)" />
    <radialGradient
       inkscape:collect="always"
       xlink:href="#linearGradient2805"
       id="radialGradient3796"
       gradientUnits="userSpaceOnUse"
       gradientTransform="matrix(-1.775868,0.790188,-0.402807,-0.905264,227.8999,70.63665)"
       cx="49.384689"
       cy="98.518631"
       fx="60.140072"
       fy="103.74369"
       r="40.143066" />
    <linearGradient
       inkscape:collect="always"
       xlink:href="#linearGradient3755"
       id="linearGradient3798"
       gradientUnits="userSpaceOnUse"
       gradientTransform="matrix(-1.084971,5.384183e-2,-5.384183e-2,-1.084971,159.3553,123.7915)"
       x1="51.775902"
       y1="58.964638"
       x2="81.958923"
       y2="117.65662" />
    <radialGradient
       inkscape:collect="always"
       xlink:href="#linearGradient3812"
       id="radialGradient3818"
       cx="56.32473"
       cy="135.17984"
       fx="42.900497"
       fy="168.76335"
       r="50.67107"
       gradientTransform="matrix(0.859546,-0.230314,0.103781,0.387317,-7.755036,66.71091)"
       gradientUnits="userSpaceOnUse" />
    <linearGradient
       inkscape:collect="always"
       xlink:href="#linearGradient3820"
       id="linearGradient3826"
       x1="43.332726"
       y1="124.85667"
       x2="33.414757"
       y2="87.701988"
       gradientUnits="userSpaceOnUse"
       gradientTransform="matrix(1.04598,0,0,1.04598,-4.226828,-5.884488)" />
    <radialGradient
       inkscape:collect="always"
       xlink:href="#linearGradient3735"
       id="radialGradient3724"
       cx="58.991161"
       cy="28.064653"
       fx="58.991161"
       fy="28.064653"
       r="41.926258"
       gradientTransform="matrix(1.402239,0,0,0.956778,-23.72853,1.811369)"
       gradientUnits="userSpaceOnUse" />
    <radialGradient
       inkscape:collect="always"
       xlink:href="#linearGradient3729"
       id="radialGradient3735"
       cx="30.022364"
       cy="72.811836"
       fx="30.022364"
       fy="72.811836"
       r="20.146735"
       gradientTransform="matrix(1,0,0,0.846599,0,11.16944)"
       gradientUnits="userSpaceOnUse" />
    <radialGradient
       inkscape:collect="always"
       xlink:href="#linearGradient3729"
       id="radialGradient3739"
       gradientUnits="userSpaceOnUse"
       gradientTransform="matrix(1,0,0,0.846599,0,11.16944)"
       cx="30.022364"
       cy="72.811836"
       fx="30.022364"
       fy="72.811836"
       r="20.146735" />
  </defs>
  <sodipodi:namedview
     id="base"
     pagecolor="#ffffff"
     bordercolor="#666666"
     borderopacity="1.0"
     inkscape:pageopacity="0.0"
     inkscape:pageshadow="2"
     inkscape:zoom="3.203163"
     inkscape:cx="78.58759"
     inkscape:cy="49.332173"
     inkscape:current-layer="layer1"
     showgrid="false"
     inkscape:document-units="px"
     inkscape:grid-bbox="true"
     guidetolerance="0.1px"
     showguides="true"
     inkscape:guide-bbox="true"
     inkscape:window-width="1106"
     inkscape:window-height="958"
     inkscape:window-x="601"
     inkscape:window-y="25">
    <sodipodi:guide
       orientation="horizontal"
       position="32.487481"
       id="guide2204" />
  </sodipodi:namedview>
  <metadata
     id="metadata1312">
    <rdf:RDF>
      <cc:Work
         rdf:about="">
        <dc:format>image/svg+xml</dc:format>
        <dc:type
           rdf:resource="http://purl.org/dc/dcmitype/StillImage" />
        <cc:license
           rdf:resource="http://creativecommons.org/licenses/GPL/2.0/" />
        <dc:contributor>
          <cc:Agent>
            <dc:title>Oxygen team</dc:title>
          </cc:Agent>
        </dc:contributor>
      </cc:Work>
      <cc:License
         rdf:about="http://creativecommons.org/licenses/LGPL/2.1/">
        <cc:permits
           rdf:resource="http://web.resource.org/cc/Reproduction" />
        <cc:permits
           rdf:resource="http://web.resource.org/cc/Distribution" />
        <cc:requires
           rdf:resource="http://web.resource.org/cc/Notice" />
        <cc:permits
           rdf:resource="http://web.resource.org/cc/DerivativeWorks" />
        <cc:requires
           rdf:resource="http://web.resource.org/cc/ShareAlike" />
        <cc:requires
           rdf:resource="http://web.resource.org/cc/SourceCode" />
      </cc:License>
    </rdf:RDF>
  </metadata>
  <g
     id="layer1"
     inkscape:label="Layer 1"
     inkscape:groupmode="layer">
    <path
       sodipodi:nodetypes="cccccccc"
       id="path3794"
       d="M 40.759787,57.704223 C 51.813252,36.236732 75.216903,37.541423 96.169821,36.217731 L 94.994516,53.606189 L 127.30986,22.456414 L 89.242926,0.74027247 L 91.544761,13.270322 C 67.741551,20.522341 45.755138,31.794398 39.521226,54.099821 C 39.848816,54.731259 40.084444,55.455567 40.759787,57.704223 z "
       style="fill:url(#radialGradient3796);fill-opacity:1;fill-rule:evenodd;stroke:url(#linearGradient3798);stroke-width:1.19090021px;stroke-linecap:butt;stroke-linejoin:round;stroke-opacity:0.93089432" />
    <path
       sodipodi:type="arc"
       style="opacity:0.56557378;fill:url(#radialGradient3761);fill-opacity:1;fill-rule:nonzero;stroke:none;stroke-width:1.5;stroke-linecap:round;stroke-linejoin:round;stroke-miterlimit:4;stroke-dasharray:none;stroke-dashoffset:4;stroke-opacity:1"
       id="path3753"
       sodipodi:cx="286.59174"
       sodipodi:cy="42.459553"
       sodipodi:rx="49.014053"
       sodipodi:ry="49.014053"
       d="M 335.60579 42.459553 A 49.014053 49.014053 0 1 1  237.57768,42.459553 A 49.014053 49.014053 0 1 1  335.60579 42.459553 z"
       transform="matrix(1.062635,0,0,1.051538,-245.4195,21.83393)" />
    <path
       sodipodi:nodetypes="ccc"
       id="path2276"
       d="M 50.892799,3.2812959 L 50.892799,0.48658747 L 50.892799,3.2812959 z "
       style="fill:#ffffff;fill-opacity:0.75688076;fill-rule:nonzero;stroke:none;stroke-width:0.5;stroke-linecap:round;stroke-linejoin:round;stroke-miterlimit:4;stroke-dasharray:none;stroke-dashoffset:4;stroke-opacity:1" />
    <path
       transform="matrix(0.833924,0,0,0.821853,4.601072,16.25953)"
       d="M 125.37347 60.92733 A 60.01239 60.440285 0 1 1  5.3486938,60.92733 A 60.01239 60.440285 0 1 1  125.37347 60.92733 z"
       sodipodi:ry="60.440285"
       sodipodi:rx="60.01239"
       sodipodi:cy="60.92733"
       sodipodi:cx="65.361084"
       id="path1898"
       style="opacity:1;fill:url(#radialGradient2811);fill-opacity:1;fill-rule:nonzero;stroke:none;stroke-width:2.88599992;stroke-linecap:round;stroke-linejoin:round;stroke-miterlimit:4;stroke-dasharray:none;stroke-dashoffset:4;stroke-opacity:1"
       sodipodi:type="arc" />
    <path
       id="path1906"
       d="M 58.143202,16.450876 C 53.279512,16.543392 48.592543,17.342729 44.163763,18.733235 C 44.298755,18.690864 44.424512,18.647687 44.56,18.606437 C 44.561045,18.606471 44.574757,18.606297 44.575846,18.606437 L 45.209841,20.191407 L 46.58876,20.096309 L 49.299065,20.191407 L 52.564104,19.462321 C 52.564104,19.462322 55.372532,18.914749 56.098585,18.733235 C 56.824648,18.551719 58.650385,18.907581 58.650385,18.907581 L 60.552353,20.001211 L 61.281438,21.538632 C 61.281438,21.538633 60.825934,23.270591 59.918366,23.361349 C 59.01079,23.452106 55.290256,23.012655 55.290256,23.012655 C 55.290256,23.012654 53.742639,22.720192 53.19809,22.901707 C 52.653549,23.083222 50.471938,23.725892 50.471938,23.725892 L 48.934522,24.534226 L 46.398569,25.897301 L 45.748728,27.276225 L 46.747256,27.720017 L 48.37978,27.894364 C 48.318631,27.964492 47.832548,28.538365 47.492198,28.62345 C 47.129171,28.714208 44.938874,28.817987 44.575846,28.908745 C 44.21282,28.9995 42.214246,29.083091 42.214246,29.083091 L 41.58026,30.081622 L 43.767517,30.351068 C 43.770061,30.348591 43.766071,30.336714 43.767517,30.335218 C 43.768798,30.333901 43.780751,30.32201 43.783365,30.319369 C 43.78549,30.317773 43.796764,30.321074 43.799211,30.319369 C 43.802008,30.317564 43.811922,30.305412 43.815067,30.303519 C 43.913626,30.248323 44.170454,30.160872 44.766046,30.160872 C 45.673622,30.160872 45.933273,30.268993 46.477814,30.541265 C 47.022363,30.813538 48.934522,30.620513 48.934522,30.620513 L 49.853799,30.541265 L 51.660666,30.25597 L 51.739919,31.777541 L 49.441715,32.332281 C 49.274907,32.287021 49.134278,32.253033 49.029622,32.253033 C 48.485073,32.253034 46.492145,32.895704 46.129126,33.077218 C 45.76609,33.258733 44.940399,33.172316 44.940399,33.172315 L 44.03696,32.522478 L 42.404446,32.791923 C 42.404446,32.791922 40.584554,33.80065 40.312279,34.345194 C 40.308028,34.353703 40.301555,34.368168 40.296433,34.376893 C 39.949453,34.928789 37.950678,35.882615 37.95067,35.882615 C 37.950678,35.882615 38.68426,33.990718 39.076002,33.584408 C 39.079068,33.581373 39.088834,33.571401 39.091857,33.568559 C 39.093364,33.567217 39.10536,33.555155 39.107704,33.552709 C 39.108775,33.551604 39.106527,33.538129 39.107704,33.536859 C 39.11416,33.533512 39.135147,33.523136 39.139398,33.52101 C 39.140582,33.519741 39.154174,33.522127 39.155253,33.52101 C 39.174699,33.504219 39.20385,33.47787 39.21865,33.457611 C 39.509386,33.033293 39.583185,31.349599 39.583193,31.349599 L 38.410313,30.541265 C 38.410313,30.541266 37.143656,29.616329 36.508354,30.160872 C 35.873053,30.705416 34.225997,31.983587 34.225997,31.983588 L 33.053117,34.345194 C 33.053108,34.345194 32.417614,35.166551 32.054587,35.438824 C 31.691561,35.711093 31.058882,35.884129 30.786607,36.247159 C 30.514324,36.610186 30.152621,37.435887 30.152621,37.435887 C 30.152621,37.435887 32.151195,37.1621 32.514221,37.071344 C 32.877249,36.980585 34.509972,36.159229 35.145274,35.977713 C 35.541023,35.864643 35.873053,35.529765 36.127955,35.454672 C 36.129384,35.454556 36.142209,35.454668 36.143811,35.454672 C 36.14551,35.454756 36.157916,35.454555 36.159659,35.454672 C 36.161244,35.454727 36.174103,35.454719 36.175506,35.454672 C 36.179722,35.452576 36.186892,35.44115 36.191352,35.438824 C 36.192485,35.438824 36.20585,35.438768 36.207208,35.438824 C 36.209709,35.438798 36.221819,35.438706 36.223056,35.438824 C 36.23269,35.441961 36.248207,35.452529 36.254759,35.454672 C 36.255856,35.454667 36.269342,35.454737 36.270605,35.454672 C 36.271973,35.454615 36.28532,35.454682 36.286453,35.454672 C 36.290843,35.456951 36.298039,35.468367 36.302308,35.470522 C 36.303414,35.470497 36.316857,35.470603 36.318155,35.470522 C 36.32502,35.474509 36.341564,35.47982 36.349858,35.486373 C 36.360949,35.495549 36.373267,35.510634 36.381552,35.518072 C 36.384052,35.520473 36.394925,35.531385 36.397399,35.533922 C 36.401746,35.538136 36.408925,35.545416 36.413255,35.549772 C 36.441969,35.586971 36.482837,35.648709 36.508354,35.708268 C 36.510584,35.712534 36.522023,35.735633 36.524201,35.739969 C 36.524132,35.744207 36.524323,35.767359 36.524201,35.771667 C 36.681243,36.524922 35.224527,39.337851 35.224527,39.337851 C 35.224527,39.33785 35.960783,40.343753 35.779268,41.160567 C 35.623272,41.86252 35.321578,42.628191 34.955083,42.888185 C 34.938357,42.89958 34.90871,42.91067 34.891678,42.919885 C 34.874594,42.928653 34.845661,42.945125 34.828281,42.951584 C 34.81259,42.955073 34.794025,42.964775 34.780731,42.967434 C 34.326952,43.058192 32.973864,43.331978 32.973864,43.331976 L 33.417659,44.504854 L 30.501317,46.40682 L 30.881707,48.150287 L 30.057521,50.955686 L 28.520098,48.594079 L 29.154092,46.86646 L 29.962422,44.869398 L 29.328435,42.872336 L 28.329907,42.682139 L 28.060455,43.506323 L 27.695912,44.695051 L 26.966826,45.503386 L 26.697383,46.40682 L 25.889045,45.503386 L 24.716173,44.695051 L 24.16143,45.503386 L 23.622544,45.424138 L 22.513059,44.156161 L 20.722048,44.7743 L 19.43822,45.233941 L 18.518935,45.043745 L 16.997367,46.517767 L 16.442625,48.419733 C 16.430759,48.525182 16.329614,49.386879 16.014685,49.751108 C 16.012272,49.753455 16.000197,49.765487 15.99883,49.766957 C 15.635803,50.129984 15.0954,51.399476 15.0954,51.399476 L 14.984454,54.664516 L 14.715011,55.678897 L 14.445559,56.407983 L 13.447029,56.407983 L 12.274149,58.579393 L 11.640162,60.845902 L 10.197838,56.360435 C 9.5412356,59.588322 9.1993088,62.924935 9.1993088,66.34575 C 9.1993088,93.894944 31.560837,116.25648 59.110027,116.25648 C 86.659224,116.25648 109.02075,93.894944 109.02075,66.34575 C 109.02075,64.48921 108.91744,62.665893 108.7196,60.861751 C 108.72382,60.900068 108.71549,60.934357 108.7196,60.972699 L 108.38676,61.574988 L 107.83203,62.034629 L 107.75277,63.207508 L 107.37238,64.396236 L 107.19803,65.917809 L 107.10294,65.743462 L 106.02516,64.206039 L 105.20097,62.573519 L 104.83643,64.66568 L 104.56699,67.740523 L 104.10734,70.371573 L 104.20244,72.463734 L 104.56699,74.096253 L 105.12171,74.904588 L 106.02516,75.189883 L 105.66061,76.457859 L 105.21682,77.329593 C 105.23171,77.149677 105.28055,76.395282 105.12171,75.998218 C 105.1196,75.993932 105.10802,75.986507 105.10587,75.982368 C 105.10291,75.976195 105.09308,75.956258 105.09002,75.950668 C 105.08792,75.946277 105.07631,75.923225 105.07417,75.918969 C 105.07336,75.917991 105.06101,75.905737 105.05832,75.90312 C 105.05749,75.902333 105.04515,75.889984 105.04247,75.88727 C 105.04038,75.885043 105.02874,75.87353 105.02662,75.871421 C 105.02531,75.871531 105.01189,75.871385 105.01078,75.871421 C 105.00946,75.871471 104.99603,75.871401 104.99492,75.871421 C 104.9923,75.871456 104.97999,75.871461 104.97907,75.871421 C 104.97724,75.871435 104.96507,75.871303 104.96323,75.871421 C 104.96192,75.871364 104.94848,75.871426 104.94738,75.871421 C 104.94607,75.872886 104.93262,75.870279 104.93152,75.871421 C 104.93022,75.871314 104.91678,75.871446 104.91568,75.871421 C 104.91438,75.8728 104.90094,75.886133 104.89983,75.88727 C 104.89044,75.893783 104.87591,75.913526 104.86813,75.918969 C 104.73253,76.034629 104.59132,76.309917 104.56699,76.362761 L 104.20244,77.99528 C 104.1599,77.954396 103.7895,77.616551 103.10881,77.361293 C 103.00104,77.320879 102.90504,77.257075 102.82352,77.186946 C 102.81085,77.175681 102.78804,77.151209 102.77597,77.139397 C 102.36425,76.724053 102.30048,75.998218 102.30048,75.998218 L 101.20685,74.555894 L 100.11322,72.923374 L 99.225628,70.831214 L 99.035438,72.384485 L 98.132,72.733179 L 98.211253,71.655398 L 97.307814,72.004093 L 96.119086,71.100659 L 94.946214,71.370104 C 94.946214,71.370104 94.049955,72.73469 93.868432,73.097721 C 93.866307,73.101982 93.855887,73.107141 93.852586,73.113571 C 93.841425,73.13037 93.821371,73.159892 93.805036,73.17697 C 93.459249,73.522032 92.140818,73.906051 92.140818,73.906056 L 90.048652,74.017005 L 89.319566,74.999687 L 87.3225,74.82534 L 87.053056,74.175502 L 84.596359,73.826808 L 84.691459,74.999687 L 85.15109,76.093316 L 86.783613,77.630737 L 88.416137,77.725836 L 89.050123,76.632206 L 89.874309,75.459327 L 90.682638,76.093316 L 92.045719,75.998218 L 92.774804,76.9175 L 92.045719,79.263257 L 91.411724,81.085974 L 89.874309,83.447579 L 87.972341,85.53974 L 86.149627,86.982063 L 85.230343,88.440237 L 82.963835,88.614583 L 82.789491,86.982063 C 82.789491,86.982063 82.167014,85.98202 82.076253,85.618989 C 82.073997,85.616849 82.062689,85.605279 82.060406,85.603139 C 82.060519,85.601937 82.06038,85.58836 82.060406,85.58729 C 81.935433,85.235609 81.236221,84.889898 81.236221,84.889903 L 80.602235,84.081567 L 79.603697,83.352482 L 79.25501,82.084506 L 77.701739,81.989406 L 77.337196,80.990875 L 76.338659,79.802147 L 75.34013,78.280576 L 74.246501,77.900183 L 73.533263,78.819466 C 73.533263,78.819466 74.612559,79.81083 74.975587,79.992343 C 74.979664,79.994235 75.002846,80.005912 75.007281,80.008193 C 75.008396,80.009304 75.021934,80.022755 75.023137,80.024043 C 75.025541,80.026523 75.037625,80.022785 75.038984,80.024043 C 75.043079,80.028085 75.048392,80.049195 75.054831,80.055743 C 75.057375,80.058725 75.068142,80.068468 75.070686,80.071593 C 75.385885,80.476827 75.722157,81.976006 76.037513,82.401499 C 76.040065,82.40479 76.050833,82.4142 76.053368,82.417349 C 76.054448,82.418423 76.05214,82.432021 76.053368,82.433199 C 76.056095,82.436094 76.066489,82.446325 76.069216,82.449048 C 76.432251,82.81208 76.798301,82.987938 76.798301,82.987938 L 78.082129,84.810653 L 79.873149,87.077162 L 83.058935,89.613115 L 84.596359,90.532398 C 84.596359,90.532398 86.139121,89.589627 86.482468,89.201023 C 86.488775,89.192465 86.508691,89.161649 86.51417,89.153473 C 86.515459,89.152028 86.512715,89.1391 86.51417,89.137624 C 86.51918,89.133004 86.540959,89.126729 86.545865,89.121774 C 86.951153,88.688344 89.050123,87.251504 89.050123,87.251509 L 89.414666,88.80478 L 89.145223,91.245635 L 87.861395,92.878154 L 85.689985,94.605772 L 84.881646,96.428488 L 83.154034,97.870811 L 81.061869,101.40529 L 81.33132,103.76691 L 81.236221,105.58962 L 81.061869,107.22214 L 78.621015,107.85613 L 77.622487,109.21921 L 76.528858,109.85319 L 75.989963,111.29552 L 74.246501,112.1197 L 72.899276,113.57787 L 71.076562,113.84731 L 69.903681,114.94095 L 69.079495,114.6715 L 67.542072,114.6715 L 65.275562,115.40058 L 63.81739,115.47984 L 63.183405,114.94095 L 62.279975,114.30696 L 61.186338,114.11677 L 60.552353,113.30842 L 60.282909,112.1197 L 59.28438,111.58081 L 58.285842,110.94682 L 57.9213,110.39208 L 58.380943,108.85466 L 59.553823,107.76104 L 59.094181,106.76249 L 58.380943,105.49452 L 57.556757,104.41674 L 56.288784,103.03782 L 55.195157,102.22948 L 55.829142,100.86641 L 55.924243,98.964437 L 54.561162,98.504799 L 52.928647,98.409701 L 51.565575,96.697933 L 48.37978,96.777181 L 46.30347,96.777181 L 45.035489,96.159043 L 43.402974,95.968846 L 42.134994,95.889598 L 40.851174,95.509205 L 37.681227,92.339264 L 37.506884,91.895472 L 36.777798,90.437299 L 35.224527,88.519485 L 35.224527,87.17226 L 35.684169,85.080099 L 36.318155,83.986469 L 36.682698,81.989406 L 36.238903,80.451985 L 38.869955,78.819466 L 39.503941,77.266194 L 42.134994,77.186946 L 42.039894,75.998218 C 42.039894,75.998218 44.042815,74.538533 44.496603,74.175502 C 44.950399,73.81247 45.938927,73.73171 45.938927,73.73171 L 46.398569,72.65393 L 47.301999,73.19282 L 49.394165,73.557363 L 50.471938,73.097721 L 52.564104,73.002624 L 55.115904,73.272069 L 57.382413,73.272069 L 57.651857,74.555894 L 57.556757,76.362761 L 58.285842,76.727304 L 60.282909,77.630737 L 62.723763,78.724367 L 64.277033,78.550021 C 64.277033,78.550021 64.550815,77.731486 64.641576,77.186946 C 64.641559,77.18587 64.641638,77.172293 64.641576,77.171096 C 64.643771,77.166786 64.639311,77.159527 64.641576,77.155246 C 64.641428,77.15092 64.641654,77.127843 64.641576,77.123547 C 64.643824,77.121387 64.655166,77.109853 64.657432,77.107697 C 64.659714,77.102767 64.670752,77.09662 64.673278,77.091847 C 64.679543,77.08069 64.681817,77.054686 64.689126,77.044299 C 64.691322,77.042133 64.702769,77.046454 64.704973,77.044299 C 64.715166,77.032055 64.739507,77.008867 64.752523,76.996749 C 64.754666,76.994523 64.766226,76.983056 64.768379,76.980899 C 64.7817,76.973292 64.802599,76.955622 64.815928,76.9492 C 65.170618,76.787467 65.89993,76.972993 65.988801,76.996749 L 68.080967,77.266194 L 69.982925,77.361293 L 71.615448,76.996749 L 72.709077,76.996749 L 74.088004,76.727304 L 74.357448,75.633674 L 74.896334,74.82534 L 74.896334,73.462265 L 74.357448,72.828277 L 74.088004,72.923374 L 73.16872,73.097721 L 72.534733,73.462265 L 70.632767,73.636612 L 69.634238,73.19282 L 69.079495,72.384485 L 68.350411,71.005561 L 68.635701,70.102127 L 69.364787,69.832683 L 70.252377,69.563237 L 70.99731,68.92925 L 71.346006,68.279413 C 71.346006,68.279413 72.350389,67.835621 72.804177,67.835621 C 73.257965,67.835621 74.088004,67.930715 74.088004,67.930719 L 75.989963,67.661274 L 77.162844,67.201633 L 76.972644,65.838561 C 76.972644,65.838561 76.352998,65.386086 75.989963,65.204573 C 75.626935,65.023057 75.070686,64.840026 75.070686,64.840026 C 75.070686,64.840026 74.808413,64.29962 74.626891,63.936593 C 74.624678,63.934446 74.613283,63.922879 74.611044,63.920745 C 74.608997,63.916415 74.597349,63.893321 74.595197,63.889045 C 74.582164,63.875559 74.556333,63.849274 74.547647,63.841495 C 74.534588,63.830453 74.51523,63.819645 74.500098,63.809795 C 74.158676,63.598244 73.358919,63.667148 73.358919,63.667149 L 72.17019,64.206039 L 70.71202,63.936593 L 69.539138,65.014374 L 69.174596,65.917809 L 68.905152,67.661274 L 69.269695,68.548856 L 68.540609,70.022879 L 67.351881,69.911931 L 66.543543,70.466671 C 66.543543,70.466671 66.536373,71.90768 66.717886,72.542983 C 66.8994,73.178284 66.729395,73.54302 66.638643,73.906056 C 66.636464,73.910383 66.625051,73.933501 66.622787,73.937756 C 66.622909,73.938958 66.622769,73.95248 66.622787,73.953605 C 66.620591,73.95814 66.609118,73.965449 66.60694,73.969456 C 66.604727,73.971647 66.609187,73.983134 66.60694,73.985306 C 66.604204,73.987993 66.591833,74.000333 66.591093,74.001156 C 66.585064,74.007267 66.56548,74.011061 66.55939,74.017005 C 66.557203,74.019231 66.545747,74.030643 66.543543,74.032855 C 66.541365,74.035086 66.54573,74.046488 66.543543,74.048705 C 66.537331,74.05191 66.517277,74.0618 66.51184,74.064553 C 66.508146,74.066303 66.50251,74.061328 66.495993,74.064553 C 66.475573,74.0724 66.439783,74.091414 66.41675,74.096253 C 66.144396,74.146004 65.719358,74.017005 65.719358,74.017005 C 65.678447,74.002418 65.431314,73.897637 65.228021,73.73171 C 65.141067,73.658583 65.05664,73.563302 65.006119,73.462265 C 64.824606,73.099238 64.736675,72.826766 64.736675,72.463734 C 64.736675,72.100701 64.736675,71.370104 64.736675,71.370104 L 63.91249,70.736116 L 63.357748,70.181377 L 63.278505,69.198694 L 62.454319,68.834151 C 62.454319,68.834151 61.375021,68.115058 61.011995,67.661274 C 60.648968,67.207486 60.282909,66.472553 60.282909,66.472547 L 59.458724,66.187253 L 58.729638,66.741993 L 60.013466,68.105066 L 61.186338,69.46814 L 62.549419,70.371573 L 62.818862,71.195757 L 62.105623,71.100659 L 61.994677,71.813896 L 61.725233,72.65393 L 60.916896,73.002624 L 60.742552,73.826808 L 60.282909,74.82534 L 60.18781,74.017005 L 59.823267,73.462265 L 58.824737,72.65393 L 60.013466,72.65393 L 61.011995,72.65393 L 61.186338,71.655398 C 61.185372,71.603331 61.172156,71.157363 60.916896,70.561769 C 60.877814,70.470566 60.816115,70.376568 60.758398,70.308174 C 60.754208,70.303452 60.746802,70.296878 60.742552,70.292324 C 60.732725,70.282114 60.707764,70.257267 60.695001,70.244775 C 60.368452,69.952167 59.881357,69.914102 59.823267,69.911931 L 58.555295,69.103596 L 57.651857,68.105066 L 57.097115,67.201633 L 56.019342,67.471078 L 54.925705,67.835621 L 54.006428,67.280882 L 53.293189,67.471078 L 53.19809,68.834151 L 52.294661,69.008498 L 51.391222,69.37304 L 50.852337,70.181377 L 50.852337,70.831214 L 50.392694,71.465203 L 49.742852,71.924843 L 48.934522,72.542983 L 48.37978,72.542983 L 46.668013,72.09919 L 46.20837,71.465203 L 45.035489,71.195757 L 45.035489,70.831214 L 45.304942,70.292324 L 44.845298,69.642486 L 44.845298,69.103596 L 45.574384,68.469609 L 45.748728,67.835621 L 46.129126,66.187253 L 46.30347,65.838561 L 47.666541,66.108003 L 49.108866,66.646895 L 50.392694,67.740523 L 50.582893,67.011436 L 50.662137,65.917809 L 50.662137,64.744929 L 50.93158,63.57205 L 49.108866,62.938062 L 49.473409,62.208976 L 51.02668,62.652768 L 52.025209,62.573519 L 53.023747,62.113878 L 54.117374,60.750803 L 54.925705,60.481358 L 55.654799,59.039035 L 56.368029,59.039035 L 57.556757,58.658642 L 57.556757,57.929555 L 57.382413,56.946873 L 57.73111,55.948342 L 58.190752,56.677429 L 58.729638,57.580862 L 59.744022,58.484295 L 61.011995,58.389197 L 62.375066,58.484295 L 63.278505,58.389197 L 63.183405,57.66011 L 63.088306,56.487232 L 63.738147,55.583799 L 64.641576,55.758145 L 64.911019,55.124157 L 65.180471,54.315823 L 64.467233,54.125626 L 64.467233,53.665985 L 63.452848,53.396539 L 63.009061,52.588204 L 62.818862,52.223662 L 63.009061,51.494576 L 63.738147,50.1315 L 64.181933,49.497513 L 63.738147,48.768426 L 63.088306,49.323166 L 62.723763,50.67039 L 61.64598,51.859119 L 61.550881,53.317291 L 61.376538,55.393602 L 62.105623,56.58233 L 61.186338,57.12122 L 60.013466,57.390666 L 59.553823,56.677429 L 59.014928,55.758145 L 59.014928,54.585267 L 58.555295,54.315823 L 57.651857,55.583799 L 56.558228,55.124157 L 56.368029,54.395071 L 56.368029,52.493107 L 56.922771,51.22513 L 58.460194,50.321697 C 58.460194,50.321697 59.562509,49.23655 59.744022,48.419733 C 59.914193,47.653966 60.15683,47.274666 60.18781,47.231004 L 62.184876,45.32904 C 62.184876,45.32904 64.013435,44.516365 64.467233,44.425607 C 64.485955,44.422404 64.508501,44.412193 64.53063,44.409757 C 64.534132,44.409547 64.543244,44.40972 64.546476,44.409757 C 64.549064,44.409848 64.559179,44.409821 64.562332,44.409757 C 64.564832,44.409691 64.57317,44.409763 64.578179,44.409757 C 64.985559,44.45733 65.485207,44.978495 65.545014,45.043745 L 65.275562,46.86646 L 65.719358,47.405351 C 65.719358,47.405351 66.640159,47.595547 67.003186,47.595547 C 67.116633,47.595547 67.206828,47.622385 67.272628,47.658947 C 67.282386,47.665291 67.29785,47.686158 67.304331,47.690646 C 67.332489,47.711152 67.363964,47.731697 67.383575,47.754045 C 67.392688,47.765103 67.408186,47.791343 67.415278,47.801594 C 67.425976,47.817974 67.441649,47.838206 67.446972,47.849143 C 67.449534,47.854753 67.444524,47.860212 67.446972,47.864992 L 68.001714,48.419733 L 68.540609,49.402413 L 69.174596,49.132969 L 69.539138,48.498981 L 69.808581,47.50045 L 70.252377,47.231004 L 70.99731,45.32904 C 70.99731,45.32904 71.968029,44.44456 72.344534,44.330508 C 72.347348,44.327743 72.343942,44.315383 72.344534,44.314659 C 72.345606,44.314695 72.359197,44.314559 72.360381,44.314659 C 72.366863,44.311552 72.388094,44.316813 72.392085,44.314659 C 72.396422,44.312648 72.403645,44.300989 72.407931,44.298809 C 72.410423,44.296692 72.42133,44.285243 72.423787,44.282959 C 72.427402,44.279295 72.448999,44.273692 72.455481,44.267109 C 72.462346,44.258405 72.46482,44.229563 72.471328,44.21956 C 72.473437,44.215362 72.485111,44.208007 72.487184,44.20371 C 72.707596,43.789501 72.709077,42.602891 72.709077,42.602891 L 72.994376,42.064 L 74.167249,41.430012 L 75.879016,41.968903 L 75.879016,41.065469 L 74.246501,40.241284 L 72.899276,38.529517 C 72.899276,38.529517 74.168765,38.509324 74.531791,38.418568 C 74.894827,38.327812 75.879025,37.800429 75.879016,37.80043 L 75.165786,37.340788 L 74.357448,37.071344 L 74.088004,36.786048 L 73.358919,36.247159 L 72.899276,35.343725 C 72.905436,35.31194 72.924889,35.170528 72.994376,34.614638 C 73.079457,33.933958 73.56872,33.493702 73.628362,33.44176 L 74.436691,33.251564 L 74.088004,32.791923 L 73.707607,31.714143 L 74.531791,30.810709 C 74.531791,30.810709 74.167249,29.992178 74.167249,29.447635 C 74.167249,29.13282 74.324578,28.898911 74.452547,28.766097 C 74.502571,28.715545 74.562318,28.677601 74.595197,28.65515 C 74.604937,28.648725 74.618806,28.628802 74.626891,28.62345 L 73.977058,27.624919 L 72.994376,27.545671 L 72.17019,27.450572 L 71.805648,26.166746 L 71.266753,25.263312 L 70.442568,24.454978 L 69.444038,23.361349 L 67.890768,22.822458 L 66.369199,22.901707 L 65.370662,21.364286 L 65.814458,21.189939 L 66.543543,20.540101 L 68.810053,20.460852 L 70.807111,20.651049 L 72.804177,21.09484 L 74.626891,21.459383 L 76.528858,22.442065 L 77.701739,23.456446 L 79.064811,23.995336 L 80.332783,25.088966 L 80.966778,25.818052 L 84.422007,26.721485 L 85.959428,27.894364 L 87.417599,28.354005 L 88.955023,28.797797 L 90.413195,29.257438 L 90.872837,29.621981 L 92.584605,30.351068 L 93.868432,31.523947 L 94.042776,32.982119 L 95.041313,33.077218 L 96.404385,33.980651 L 97.307814,35.708268 L 97.862557,34.915783 C 97.906204,34.969514 97.961786,35.020364 98.005206,35.074281 C 88.854688,23.714308 74.821681,16.450876 59.110027,16.450876 C 58.787189,16.450876 58.464595,16.444764 58.143202,16.450876 z M 43.085981,19.081928 C 42.97784,19.11863 42.860943,19.155453 42.753133,19.192876 C 42.863513,19.154566 42.975253,19.119483 43.085981,19.081928 z M 37.697083,21.269187 C 37.57143,21.329031 37.441753,21.398523 37.316684,21.459383 C 37.442232,21.398299 37.570951,21.329247 37.697083,21.269187 z M 34.717334,22.806608 C 34.599618,22.872737 34.485771,22.945601 34.368639,23.012655 C 34.485309,22.945902 34.600081,22.872444 34.717334,22.806608 z M 31.15115,25.025567 C 31.045596,25.097142 30.939127,25.159253 30.834156,25.231613 C 30.936531,25.161083 31.048236,25.095351 31.15115,25.025567 z M 28.298204,27.086028 C 28.219631,27.147786 28.1545,27.214009 28.07631,27.276225 C 28.150423,27.217297 28.223743,27.144544 28.298204,27.086028 z M 52.025209,35.216927 L 54.735514,37.689481 L 54.656261,37.958926 L 54.196619,38.069875 C 54.196619,38.069874 52.736932,39.157848 52.373904,39.702394 C 52.341723,39.753836 52.322461,39.821579 52.310507,39.876741 C 52.303556,39.913667 52.294077,39.965688 52.294661,40.003538 C 52.296281,40.046209 52.30095,40.103145 52.310507,40.146186 C 52.41973,40.600455 52.928647,41.065469 52.928647,41.065469 L 50.202494,43.427075 C 50.202494,43.427075 48.524747,42.812182 48.126185,42.793087 C 48.123178,42.793012 48.113168,42.793087 48.110337,42.793087 C 47.747301,42.793087 44.575846,42.967434 44.575846,42.967434 L 42.404446,43.601422 L 40.407379,44.695051 L 40.12208,45.867929 L 39.21865,44.314659 C 39.21865,44.314659 39.310719,42.264976 39.741691,41.778706 C 39.748677,41.771329 39.766223,41.75355 39.773393,41.747006 C 39.774595,41.745744 39.772304,41.732247 39.773393,41.731156 C 39.782637,41.724125 39.80994,41.721879 39.820942,41.715307 C 39.824985,41.713021 39.832425,41.701624 39.83679,41.699457 C 39.83807,41.699559 39.851539,41.69943 39.852637,41.699457 C 39.860173,41.696948 39.876133,41.687107 39.884339,41.683607 C 39.901137,41.675783 39.931296,41.661924 39.947736,41.651908 C 39.958871,41.644307 39.983978,41.628974 39.995286,41.620209 C 40.465235,41.242435 41.087434,39.910996 41.453457,39.528047 C 41.456429,39.525048 41.466238,39.515103 41.469305,39.512197 C 41.488079,39.495362 41.49944,39.477215 41.516854,39.464648 C 41.517952,39.463529 41.531448,39.450155 41.53271,39.448799 C 41.539305,39.445452 41.561285,39.434559 41.564404,39.43295 C 41.568709,39.430635 41.576008,39.435035 41.58026,39.43295 C 41.943287,39.342193 43.767517,39.242754 43.767517,39.242753 C 43.767517,39.242752 44.666817,37.878164 45.574384,37.515135 C 46.48196,37.152106 48.934522,35.343724 48.934522,35.343725 C 48.934522,35.343725 49.02267,35.3063 49.045469,35.296176 L 52.025209,35.216927 z M 104.23414,44.996195 C 104.35584,45.252995 104.46542,45.513647 104.58284,45.772831 C 104.46507,45.513267 104.35619,45.253368 104.23414,44.996195 z M 106.56405,50.860587 C 106.58725,50.931755 106.60456,51.011175 106.62744,51.082482 C 106.60395,51.009387 106.58787,50.933535 106.56405,50.860587 z M 106.89689,51.938366 C 106.94015,52.082081 106.9817,52.222055 107.02368,52.366309 C 106.98192,52.223131 106.9399,52.081011 106.89689,51.938366 z M 107.30898,53.348991 C 107.33833,53.458074 107.3596,53.572459 107.38823,53.681834 C 107.35959,53.572567 107.33835,53.457965 107.30898,53.348991 z M 51.930118,53.586736 L 53.10299,54.775464 L 52.659204,55.393602 L 52.484851,56.677429 L 53.293189,57.216319 L 53.293189,58.769589 L 53.736985,59.577925 L 53.10299,59.84737 L 53.10299,60.940999 L 51.470475,60.750803 L 50.852337,60.845902 L 49.853799,60.750803 L 49.933052,60.40211 L 50.123251,59.213382 L 51.02668,58.389197 L 51.660666,58.040503 L 51.201032,57.580862 C 51.109173,57.602078 50.352636,57.779411 50.012304,58.119752 C 49.649277,58.482782 49.473409,59.213383 49.473409,59.213382 L 48.221284,59.118283 L 47.666541,58.309949 L 47.666541,57.12122 L 49.108866,56.297036 L 50.471938,56.407983 L 50.297595,55.393602 L 50.741389,53.665985 L 51.930118,53.586736 z M 107.45163,53.90373 C 107.4773,54.003652 107.50582,54.088864 107.53088,54.189025 C 107.50706,54.09406 107.476,53.998478 107.45163,53.90373 z M 107.64183,54.680366 C 107.65821,54.748721 107.67329,54.817949 107.68938,54.886412 C 107.67322,54.817775 107.65828,54.748894 107.64183,54.680366 z M 107.76863,55.219256 C 107.80227,55.366859 107.8314,55.514953 107.86372,55.663048 C 107.83128,55.514659 107.80237,55.367149 107.76863,55.219256 z M 107.95882,56.106839 C 107.97228,56.171317 107.99316,56.232468 108.00637,56.297036 C 107.99314,56.232422 107.9723,56.171362 107.95882,56.106839 z M 108.00637,56.328736 C 108.02155,56.403144 108.03908,56.476104 108.05392,56.550632 C 108.03897,56.47565 108.02165,56.403596 108.00637,56.328736 z M 108.06977,56.59818 C 108.08129,56.656332 108.09015,56.714303 108.10147,56.772526 C 108.0906,56.716709 108.08082,56.653931 108.06977,56.59818 z M 108.11732,56.883475 C 108.13072,56.953246 108.15176,57.019647 108.16487,57.089521 C 108.15169,57.019415 108.13079,56.953478 108.11732,56.883475 z M 108.18072,57.232169 C 108.19456,57.307048 108.21476,57.379068 108.22827,57.454064 C 108.21467,57.378606 108.19465,57.307509 108.18072,57.232169 z M 108.29166,57.834458 C 108.2998,57.881758 108.29952,57.929758 108.30751,57.977104 C 108.29934,57.928812 108.29998,57.882702 108.29166,57.834458 z M 108.35506,58.24655 C 108.37973,58.397338 108.411,58.539106 108.4343,58.690341 C 108.41137,58.541731 108.37931,58.394726 108.35506,58.24655 z M 108.46601,58.912237 C 108.47732,58.987965 108.48674,59.074145 108.49771,59.149983 C 108.48627,59.070928 108.47784,58.991172 108.46601,58.912237 z M 108.64035,60.180214 C 108.65451,60.294694 108.65869,60.39834 108.67205,60.513057 C 108.65927,60.403528 108.65385,60.289526 108.64035,60.180214 z M 34.495441,64.475483 L 34.416188,65.474017 L 33.592003,64.570582 L 34.495441,64.475483 z M 57.097115,68.009968 L 57.097115,69.911931 L 57.192214,71.54445 L 56.558228,72.004093 L 56.019342,71.370104 L 55.924243,69.642486 L 57.097115,68.009968 z M 87.782142,102.68912 L 87.591952,103.59255 L 86.51417,105.58962 L 85.230343,108.14142 L 83.423478,108.85466 L 82.345696,107.76104 L 83.058935,106.68325 L 83.97822,104.86053 L 84.691459,104.32164 L 86.51417,103.59255 L 87.782142,102.68912 z "
       style="opacity:0.33999999;fill:url(#linearGradient3710);fill-opacity:1;fill-rule:nonzero;stroke:none;stroke-width:2.12895298;stroke-linecap:round;stroke-linejoin:round;stroke-miterlimit:4;stroke-dasharray:none;stroke-dashoffset:4;stroke-opacity:1" />
    <path
       style="opacity:1;fill:url(#linearGradient3728);fill-opacity:1;fill-rule:evenodd;stroke:none;stroke-width:1px;stroke-linecap:butt;stroke-linejoin:miter;stroke-opacity:1"
       d="M 44.664639,18.637071 C 27.322239,23.917133 13.971201,38.390879 10.303261,56.374002 L 11.737562,60.874737 L 12.368159,58.612005 L 13.5428,56.435826 L 14.544335,56.435826 L 14.816357,55.706311 L 15.088378,54.704774 L 15.187303,51.440505 C 15.187303,51.440505 15.726895,50.171396 16.089921,49.80837 C 16.092753,49.805533 16.099478,49.798917 16.102284,49.796005 C 16.105011,49.793065 16.111954,49.786656 16.114655,49.783641 C 16.450579,49.395129 16.547412,48.448259 16.547412,48.448259 L 17.091456,46.544101 L 18.624672,45.085071 L 19.539653,45.270541 L 20.813219,44.813048 L 22.618456,44.182452 L 23.718915,45.45601 L 24.262959,45.542563 L 24.807004,44.726497 L 25.981644,45.542563 L 26.79771,46.445184 L 27.069732,45.542563 L 27.799245,44.726497 L 28.157829,43.53949 L 28.42985,42.723422 L 29.431385,42.908892 L 30.061982,44.899601 L 29.245907,46.902675 L 28.615319,48.621363 L 30.160897,50.983012 L 30.976971,48.176236 L 30.606026,46.445184 L 33.511722,44.541027 L 33.066594,43.366384 C 33.066594,43.366384 34.418044,43.086203 34.871832,42.995444 C 34.885127,42.992785 34.9056,42.986569 34.92129,42.98308 C 34.922396,42.983107 34.932398,42.982993 34.93366,42.98308 C 34.951041,42.976623 34.978388,42.967119 34.995481,42.958351 C 35.012513,42.949135 35.040583,42.932652 35.0573,42.921257 C 35.423795,42.661263 35.717379,41.892158 35.873367,41.190205 C 36.05488,40.373389 35.329332,39.3726 35.329322,39.372601 C 35.329322,39.372601 36.772292,36.552469 36.61525,35.799215 C 36.615372,35.794907 36.61518,35.778725 36.61525,35.774485 C 36.613063,35.770151 36.605118,35.75402 36.602879,35.749756 C 36.602914,35.74867 36.602749,35.738623 36.602879,35.737391 C 36.577362,35.677832 36.545049,35.626214 36.516334,35.589015 C 36.512013,35.584661 36.495949,35.5685 36.491601,35.564286 C 36.489119,35.561748 36.481739,35.554322 36.479239,35.551921 C 36.462661,35.537048 36.435732,35.513094 36.417411,35.502463 C 36.416121,35.502543 36.406155,35.502438 36.405048,35.502463 C 36.400779,35.500306 36.384706,35.492376 36.380323,35.490099 C 36.379191,35.490106 36.369329,35.490039 36.367952,35.490099 C 36.366698,35.490161 36.356688,35.490091 36.35559,35.490099 C 36.346852,35.487238 36.327346,35.480074 36.318495,35.477733 C 36.317258,35.477616 36.308633,35.477708 36.306133,35.477733 C 36.304773,35.47768 36.294894,35.477734 36.293762,35.477733 C 36.289301,35.480062 36.273254,35.488003 36.269037,35.490099 C 36.267635,35.490144 36.25826,35.490151 36.256675,35.490099 C 36.254942,35.489979 36.246011,35.490182 36.244312,35.490099 C 36.24271,35.490092 36.23337,35.489981 36.231942,35.490099 C 35.975297,35.558114 35.644799,35.894549 35.24277,36.009413 C 34.607468,36.190929 32.97213,37.006744 32.609103,37.097504 C 32.246067,37.188261 30.24746,37.468443 30.24745,37.468443 C 30.24745,37.468443 30.605773,36.644463 30.878048,36.281436 C 31.150323,35.918407 31.788577,35.737638 32.151604,35.46537 C 32.514631,35.193097 33.153138,34.377279 33.153147,34.377279 L 34.327788,32.01563 C 34.327788,32.01563 35.967586,30.742569 36.602879,30.198025 C 37.238181,29.653481 38.507042,30.568967 38.507042,30.568966 L 39.681683,31.385032 C 39.681683,31.385032 39.60148,33.062707 39.310745,33.487025 C 39.295943,33.507283 39.26837,33.532058 39.248925,33.548846 C 39.245832,33.551286 39.239403,33.559207 39.236554,33.561212 C 39.232302,33.563339 39.218285,33.570229 39.211829,33.573576 C 39.210653,33.574848 39.20053,33.584836 39.199459,33.585941 C 39.197124,33.588386 39.188603,33.596963 39.187096,33.598306 C 39.184073,33.601147 39.177801,33.607636 39.174734,33.61067 C 38.782992,34.016982 38.049551,35.922861 38.049551,35.922861 C 38.049551,35.922861 40.13892,34.921822 40.411194,34.377279 C 40.683469,33.832735 42.500825,32.831696 42.500825,32.831697 L 44.132957,32.559674 L 45.035577,33.202636 C 45.035577,33.202636 45.859553,33.285235 46.222588,33.103719 C 46.585606,32.922205 48.583736,32.287653 49.128277,32.287652 C 49.232933,32.287652 49.36951,32.31658 49.536309,32.36184 L 51.836142,31.817795 L 51.761951,30.296943 L 49.94435,30.568966 L 49.02936,30.655517 C 49.02936,30.655517 47.125703,30.841238 46.581163,30.568966 C 46.036614,30.296693 45.770046,30.198025 44.862478,30.198025 C 44.181788,30.198025 43.953735,30.307714 43.885669,30.358765 C 43.883047,30.361408 43.874587,30.369814 43.873306,30.371131 C 43.87186,30.372626 43.863479,30.381019 43.860936,30.383494 L 41.68476,30.111473 L 42.315357,29.109935 C 42.315357,29.109935 44.313975,29.027586 44.67701,28.93683 C 45.040037,28.846073 47.219671,28.755565 47.582697,28.664808 C 47.923039,28.579722 48.424168,28.005421 48.485317,27.935293 L 46.853185,27.749823 L 45.851642,27.304696 L 46.49461,25.932219 L 49.02936,24.572107 L 50.574939,23.75604 C 50.574939,23.75604 52.750627,23.121487 53.295167,22.939973 C 53.839716,22.758458 55.384798,23.038889 55.384798,23.03889 C 55.384798,23.03889 59.113966,23.488221 60.021542,23.397465 C 60.929118,23.306707 61.381652,21.57986 61.381652,21.57986 L 60.652139,20.034278 L 58.747985,18.946188 C 58.747985,18.946188 56.926927,18.591568 56.200864,18.773083 C 55.47481,18.954598 52.66457,19.490234 52.66457,19.490232 L 49.400307,20.219748 L 46.680079,20.133196 L 45.307598,20.219748 L 44.67701,18.637071 C 44.675912,18.636932 44.665684,18.637107 44.664639,18.637071 z M 68.91173,20.49177 L 66.63663,20.578323 L 65.91948,21.221285 L 65.461989,21.394389 L 66.463532,22.939973 L 67.996749,22.853419 L 69.542327,23.397465 L 70.54387,24.485554 L 71.359936,25.301621 L 71.903971,26.204242 L 72.262555,27.4778 L 73.090983,27.576717 L 74.080155,27.663271 L 74.723114,28.664808 C 74.71503,28.670159 74.695768,28.683112 74.686028,28.689537 C 74.653149,28.711988 74.600041,28.750266 74.550017,28.800819 C 74.422047,28.933632 74.265623,29.16606 74.265623,29.480875 C 74.265623,30.025419 74.624199,30.840987 74.624199,30.840987 L 73.808134,31.743607 L 74.179071,32.831697 L 74.537646,33.28919 L 73.72158,33.474659 C 73.661946,33.526601 73.176073,33.968621 73.090983,34.649302 C 73.011574,35.284601 72.994872,35.368227 72.992067,35.378816 L 73.449558,36.281436 L 74.179071,36.825481 L 74.451092,37.097504 L 75.267167,37.369525 L 75.984318,37.827018 C 75.984318,37.827017 74.987235,38.366858 74.624199,38.457615 C 74.261172,38.548372 72.992067,38.556533 72.992067,38.556533 L 74.352177,40.27522 L 75.984318,41.091288 L 75.984318,42.006272 L 74.265623,41.462228 L 73.090983,42.092824 L 72.806599,42.636869 C 72.806599,42.636869 72.804438,43.8177 72.584034,44.23191 C 72.581961,44.236207 72.573772,44.252442 72.571672,44.256639 C 72.565156,44.266642 72.553805,44.285029 72.546939,44.293734 C 72.540458,44.300317 72.52583,44.314799 72.522206,44.318463 C 72.519758,44.320745 72.512344,44.32871 72.509843,44.330827 C 72.505558,44.333007 72.489449,44.341183 72.485111,44.343193 C 72.48112,44.345349 72.466868,44.352451 72.460386,44.355556 C 72.459193,44.355458 72.449096,44.355592 72.448024,44.355556 C 72.447432,44.35628 72.438466,44.365155 72.435661,44.367921 C 72.059148,44.481973 71.087913,45.357094 71.087913,45.357094 L 70.358392,47.261251 L 69.913264,47.533274 L 69.641242,48.53481 L 69.270305,49.165409 L 68.639708,49.437431 L 68.095664,48.448259 L 67.551621,47.904214 C 67.551621,47.904214 67.54438,47.890701 67.539258,47.879484 C 67.5222,47.844487 67.478344,47.773429 67.403238,47.718743 C 67.394596,47.712761 67.375709,47.69964 67.366143,47.694014 C 67.300342,47.657454 67.207577,47.632191 67.09412,47.632191 C 66.731094,47.632191 65.820564,47.446721 65.820564,47.446721 L 65.375436,46.902675 L 65.647457,45.085071 C 65.647457,45.085071 65.117553,44.492854 64.683019,44.442109 C 64.678611,44.441927 64.663295,44.441978 64.658295,44.442109 C 64.65514,44.442172 64.648511,44.4422 64.645923,44.442109 C 64.62004,44.441821 64.584339,44.450205 64.55937,44.454474 C 64.105582,44.545233 62.28427,45.357094 62.28427,45.357094 L 60.293564,47.261251 C 60.262584,47.304913 60.006243,47.682491 59.836073,48.448259 C 59.65456,49.265077 58.562516,50.352415 58.562516,50.352415 L 57.01693,51.255035 L 56.472885,52.528594 L 56.472885,54.432751 L 56.658354,55.162267 L 57.746443,55.619759 L 58.64907,54.346199 L 59.106561,54.618221 L 59.106561,55.792863 L 59.650605,56.707848 L 60.108096,57.424998 L 61.282736,57.152975 L 62.197726,56.608931 L 61.468213,55.434289 L 61.653682,53.344662 L 61.740236,51.897997 L 62.828315,50.71099 L 63.186899,49.350878 L 63.829858,48.806833 L 64.287348,49.536348 L 63.829858,50.166944 L 63.100345,51.527056 L 62.914876,52.256572 L 63.100345,52.615147 L 63.557836,53.431214 L 64.55937,53.703237 L 64.55937,54.160729 L 65.27652,54.346199 L 65.004499,55.162267 L 64.732477,55.792863 L 63.829858,55.619759 L 63.186899,56.522379 L 63.285814,57.697021 L 63.372367,58.426536 L 62.469747,58.513087 L 61.10963,58.426536 L 59.836073,58.513087 L 58.834538,57.610468 L 58.290495,56.707848 L 57.832995,55.978334 L 57.47442,56.979871 L 57.659889,57.969043 L 57.659889,58.698559 L 56.472885,59.069498 L 55.755735,59.069498 L 55.026222,60.516163 L 54.210157,60.788184 L 53.12206,62.148297 L 52.120526,62.60579 L 51.118991,62.692342 L 49.573413,62.234849 L 49.214838,62.964364 L 51.032439,63.607326 L 50.760417,64.781969 L 50.760417,65.956612 L 50.673863,67.0447 L 50.488395,67.774218 L 49.214838,66.686126 L 47.768167,66.142081 L 46.408056,65.870059 L 46.222588,66.228634 L 45.851642,67.873135 L 45.678545,68.50373 L 44.949032,69.13433 L 44.949032,69.678372 L 45.406522,70.321334 L 45.1345,70.865381 L 45.1345,71.223956 L 46.309141,71.495976 L 46.766632,72.126577 L 48.485317,72.584068 L 49.02936,72.584068 L 49.845427,71.953467 L 50.488395,71.495976 L 50.945885,70.865381 L 50.945885,70.222416 L 51.48993,69.406352 L 52.392548,69.047778 L 53.295167,68.862304 L 53.394082,67.502196 L 54.111242,67.316721 L 55.026222,67.873135 L 56.114311,67.502196 L 57.202398,67.23017 L 57.746443,68.145156 L 58.64907,69.13433 L 59.922627,69.950395 C 59.980718,69.952566 60.4616,69.979268 60.78815,70.271877 C 60.801819,70.28448 60.824505,70.307721 60.837607,70.321334 C 60.905588,70.394171 60.966048,70.489127 61.010714,70.59336 C 61.265965,71.188954 61.281769,71.629379 61.282736,71.681446 L 61.10963,72.682985 L 60.108096,72.682985 L 58.921092,72.682985 L 59.922627,73.499049 L 60.293564,74.043098 L 60.380117,74.859162 L 60.837607,73.857628 L 61.010714,73.041559 L 61.82678,72.682985 L 62.098802,71.85455 L 62.197726,71.137403 L 62.914876,71.223956 L 62.642846,70.407885 L 61.282736,69.505269 L 60.108096,68.145156 L 58.834538,66.772679 L 59.564051,66.228634 L 60.380117,66.500656 C 60.380117,66.50066 60.746603,67.233877 61.10963,67.687665 C 61.472656,68.141449 62.556293,68.862304 62.556293,68.862304 L 63.372367,69.233247 L 63.45892,70.222416 L 64.015327,70.766464 L 64.831392,71.409425 C 64.831392,71.409425 64.831392,72.134485 64.831392,72.497515 C 64.831392,72.860548 64.921901,73.136023 65.103414,73.499049 C 65.273584,73.839385 65.761053,74.021882 65.820564,74.043098 C 65.820564,74.043098 66.325788,74.205323 66.587181,74.104919 C 66.593697,74.101694 66.608203,74.094303 66.611906,74.092554 C 66.617333,74.0898 66.630427,74.083395 66.63663,74.080189 C 66.638826,74.077972 66.646824,74.07006 66.649001,74.067828 C 66.651197,74.065617 66.659177,74.05769 66.661364,74.055463 C 66.667453,74.049519 66.680068,74.036843 66.686097,74.030733 C 66.686838,74.029911 66.695723,74.021055 66.698458,74.018367 C 66.700698,74.016197 66.708609,74.008193 66.710821,74.006002 C 66.713,74.001995 66.720988,73.985806 66.723183,73.981271 C 66.723165,73.980146 66.723306,73.970113 66.723183,73.968911 C 66.725449,73.964656 66.733376,73.948506 66.735554,73.94418 C 66.826306,73.581143 67.003613,73.219369 66.822098,72.584068 C 66.640594,71.948767 66.63663,70.494443 66.63663,70.494443 L 67.452704,69.950395 L 68.639708,70.049312 L 69.36922,68.590282 L 68.998283,67.687665 L 69.270305,65.956612 L 69.641242,65.053991 L 70.815892,63.965902 L 72.262555,64.237925 L 73.449558,63.693879 C 73.449558,63.693879 74.258062,63.630704 74.599474,63.842255 C 74.614607,63.852103 74.635873,63.868307 74.648932,63.879349 C 74.660519,63.88972 74.685356,63.914544 74.69839,63.928808 C 74.700542,63.933085 74.708705,63.949209 74.710752,63.953537 C 74.712991,63.955674 74.72091,63.963753 74.723114,63.965902 C 74.904637,64.328928 75.168252,64.868522 75.168252,64.868522 C 75.168252,64.868522 75.720197,65.057948 76.083233,65.239462 C 76.44626,65.420975 77.072405,65.870059 77.072405,65.870059 L 77.257874,67.23017 L 76.083233,67.687665 L 74.179071,67.959688 C 74.179071,67.959682 73.359302,67.873135 72.905514,67.873135 C 72.451735,67.873135 71.446481,68.31826 71.446481,68.31826 L 71.087913,68.961221 L 70.358392,69.591822 L 69.455773,69.863842 L 68.726262,70.135864 L 68.454239,71.038486 L 69.183751,72.410964 L 69.727796,73.227028 L 70.729339,73.672159 L 72.633493,73.499049 L 73.264089,73.12811 L 74.179071,72.955007 L 74.451092,72.85609 L 74.995136,73.499049 L 74.995136,74.859162 L 74.451092,75.675232 L 74.179071,76.763324 L 72.806599,77.035344 L 71.718503,77.035344 L 70.086371,77.393918 L 68.182217,77.307366 L 66.092586,77.035344 C 66.092586,77.035344 65.296288,76.813368 64.917946,76.985883 C 64.904625,76.992305 64.881808,77.003006 64.868488,77.010614 C 64.866344,77.012769 64.85826,77.020753 64.856117,77.02298 C 64.839808,77.037429 64.820249,77.056113 64.806667,77.072436 C 64.804455,77.074591 64.796492,77.082634 64.794296,77.084801 C 64.786987,77.095188 64.775836,77.110739 64.769572,77.121897 C 64.767045,77.126669 64.759492,77.141698 64.75721,77.146627 C 64.754944,77.148783 64.747087,77.156827 64.744848,77.158987 C 64.744918,77.163284 64.744699,77.179392 64.744848,77.183718 C 64.742574,77.187999 64.734672,77.204137 64.732477,77.208448 C 64.732537,77.209646 64.732459,77.219739 64.732477,77.220815 C 64.641716,77.765355 64.373901,78.580927 64.373901,78.580927 L 62.828315,78.754031 L 60.380117,77.66594 L 58.377048,76.763324 L 57.659889,76.392379 L 57.746443,74.587141 L 57.47442,73.31358 L 55.211691,73.31358 L 52.66457,73.041559 L 50.574939,73.12811 L 49.486861,73.585606 L 47.39723,73.227028 L 46.49461,72.682985 L 46.037111,73.771077 C 46.037111,73.771077 45.044245,73.85317 44.590448,74.216202 C 44.13666,74.579234 42.142251,76.033806 42.142251,76.033806 L 42.228804,77.220815 L 39.595129,77.307366 L 38.964531,78.852949 L 36.330857,80.485083 L 36.775985,82.030665 L 36.417411,84.021372 L 35.786821,85.109463 L 35.329322,87.199089 L 35.329322,88.559201 L 36.874901,90.463362 L 37.604422,91.922392 L 37.777529,92.367518 L 40.955239,95.545234 L 42.228804,95.916173 L 43.50236,96.002726 L 45.1345,96.188195 L 46.408056,96.818794 L 48.485317,96.818794 L 51.663035,96.732243 L 53.023145,98.45093 L 54.655277,98.537484 L 56.027757,98.994979 L 55.928842,100.89913 L 55.298245,102.25924 L 56.386333,103.07532 L 57.659889,104.44779 L 58.475964,105.53588 L 59.193114,106.79707 L 59.650605,107.79862 L 58.475964,108.8867 L 58.018464,110.43229 L 58.377048,110.97634 L 59.378583,111.60693 L 60.380117,112.15097 L 60.652139,113.33798 L 61.282736,114.15405 L 62.370824,114.33951 L 63.285814,114.97012 L 63.916411,115.51417 L 65.375436,115.42761 L 67.638173,114.69809 L 69.183751,114.69809 L 69.999818,114.97012 L 71.174459,113.88202 L 72.992067,113.61 L 74.352177,112.15097 L 76.083233,111.3349 L 76.627276,109.88824 L 77.715365,109.25764 L 78.716907,107.88517 L 81.165105,107.25457 L 81.338211,105.62244 L 81.437127,103.80484 L 81.165105,101.44318 L 83.254736,97.906887 L 84.973418,96.460216 L 85.789484,94.642613 L 87.965659,92.911561 L 89.239224,91.279426 L 89.511247,88.831229 L 89.152671,87.285646 C 89.152671,87.28564 87.047925,88.719276 86.642645,89.152706 C 86.63774,89.157666 86.62293,89.172816 86.617912,89.177436 C 86.616457,89.178912 86.606839,89.188357 86.605549,89.189801 C 86.600069,89.197977 86.587124,89.218336 86.580816,89.226892 C 86.23747,89.615502 84.701399,90.56228 84.701399,90.56228 L 83.155811,89.647292 L 79.978102,87.112537 L 78.172855,84.837442 L 76.899298,83.019838 C 76.899298,83.019838 76.532813,82.838823 76.169787,82.47579 C 76.16706,82.473066 76.160142,82.466326 76.157415,82.46343 C 76.156195,82.462254 76.146133,82.452139 76.145053,82.451065 C 75.819957,82.04795 75.480819,80.470942 75.15588,80.089412 C 75.149442,80.082864 75.135242,80.068725 75.131156,80.064682 C 75.129797,80.063424 75.121199,80.054802 75.118786,80.052323 C 75.117592,80.051034 75.10753,80.041067 75.106423,80.039957 C 75.10198,80.037674 75.085775,80.029483 75.081698,80.027592 C 74.718663,79.846079 73.635035,78.852949 73.635035,78.852949 L 74.352177,77.937961 L 75.440274,78.308905 L 76.441808,79.842123 L 77.443343,81.029125 L 77.801917,82.030665 L 79.347497,82.117217 L 79.706079,83.390778 L 80.707614,84.107924 L 81.338211,84.923994 C 81.338211,84.92399 82.029314,85.2771 82.154277,85.62878 C 82.15426,85.629851 82.154391,85.639944 82.154277,85.641147 C 82.15656,85.643287 82.164383,85.651366 82.166639,85.653506 C 82.257401,86.016539 82.883789,87.01362 82.883789,87.01362 L 83.069267,88.645754 L 85.331993,88.472649 L 86.246975,87.01362 L 88.064584,85.566955 L 89.968737,83.477329 L 91.514316,81.115678 L 92.144922,79.298074 L 92.874434,76.948792 L 92.144922,76.033806 L 90.784803,76.120358 L 89.968737,75.489762 L 89.152671,76.664405 L 88.509703,77.764857 L 86.877572,77.66594 L 85.24544,76.120358 L 84.787949,75.032271 L 84.701399,73.857628 L 87.149594,74.216202 L 87.421624,74.859162 L 89.424693,75.032271 L 90.141843,74.043098 L 92.231474,73.94418 C 92.231474,73.944176 93.71214,73.511228 93.950159,73.152842 C 93.953461,73.14641 93.960396,73.132371 93.962522,73.12811 C 94.144044,72.76508 95.05061,71.409425 95.05061,71.409425 L 96.22525,71.137403 L 97.412262,72.040025 L 98.314881,71.681446 L 98.228328,72.769537 L 99.130947,72.410964 L 99.316415,70.865381 L 100.21903,72.955007 L 101.30713,74.587141 L 102.39522,76.033806 C 102.39522,76.033806 102.48523,77.121648 103.21128,77.393918 C 103.89197,77.649177 104.25684,77.983633 104.29938,78.024519 L 104.67032,76.392379 C 104.69464,76.339535 104.83147,76.062913 104.96707,75.947253 C 104.97485,75.941811 104.99476,75.929035 105.00416,75.922523 C 105.00527,75.921387 105.01523,75.911537 105.01652,75.910157 C 105.01762,75.910184 105.02758,75.910051 105.02888,75.910157 C 105.02999,75.909016 105.03994,75.899262 105.04126,75.897797 C 105.04237,75.897802 105.05231,75.897742 105.05362,75.897797 C 105.05472,75.897797 105.06468,75.897761 105.06598,75.897797 C 105.06783,75.897681 105.07652,75.897812 105.07835,75.897797 C 105.07927,75.897838 105.08808,75.897833 105.09071,75.897797 C 105.09181,75.897777 105.10175,75.897848 105.10308,75.897797 C 105.10529,75.900059 105.11324,75.90787 105.11544,75.910157 C 105.11656,75.910122 105.12648,75.910269 105.12781,75.910157 C 105.12992,75.912268 105.13807,75.920296 105.14018,75.922523 C 105.14186,75.923969 105.15087,75.933316 105.15253,75.934889 C 105.15418,75.936719 105.16327,75.945296 105.1649,75.947253 C 105.16712,75.949419 105.17505,75.957418 105.17727,75.959619 C 105.17939,75.963874 105.18752,75.979957 105.18963,75.98435 C 105.19267,75.989938 105.19903,76.002902 105.20199,76.009075 C 105.20415,76.013214 105.21222,76.029519 105.21436,76.033806 C 105.37318,76.43087 105.32817,77.176906 105.31328,77.356822 L 105.7584,76.491297 L 106.11699,75.21774 L 105.21436,74.945714 L 104.67032,74.12965 L 104.29938,72.497515 L 104.21282,70.407885 L 104.67032,67.774218 L 104.94233,64.695417 L 105.30091,62.60579 L 106.11699,64.237925 L 107.20507,65.783507 L 107.30399,65.956612 L 107.47709,64.423394 L 107.84803,63.236387 L 107.93459,62.061745 L 108.47862,61.604252 L 108.82484,61.010749 C 107.77176,51.195174 103.87631,42.219705 97.968669,34.946053 L 97.412262,35.737391 L 96.497281,34.018704 L 95.137163,33.103719 L 94.135628,33.017167 L 93.962522,31.558138 L 92.688965,30.383494 L 90.970271,29.653981 L 90.512781,29.295405 L 89.053756,28.837913 L 87.520539,28.392785 L 86.061506,27.935293 L 84.51593,26.748286 L 81.06619,25.845666 L 80.435592,25.116151 L 79.162027,24.028062 L 77.801917,23.484017 L 76.627276,22.48248 L 74.723114,21.493307 L 72.905514,21.122368 L 70.902445,20.67724 L 68.91173,20.49177 z M 52.120526,35.242805 L 49.140647,35.329358 C 49.117848,35.339482 49.02936,35.378816 49.02936,35.378816 C 49.02936,35.378816 46.586121,37.191966 45.678545,37.554996 C 44.770977,37.918025 43.860944,39.273681 43.860936,39.273683 C 43.860936,39.273683 42.047796,39.368397 41.68476,39.459153 C 41.680508,39.461238 41.66433,39.469203 41.660027,39.471517 C 41.656908,39.473128 41.641897,39.480534 41.635302,39.483881 C 41.634039,39.485239 41.624029,39.495127 41.622931,39.496247 C 41.605517,39.508812 41.579876,39.528869 41.561112,39.545705 C 41.558045,39.54861 41.55172,39.555071 41.548749,39.55807 C 41.170912,39.953372 40.527639,41.360457 40.05262,41.68479 C 40.020873,41.705366 39.983821,41.724211 39.953705,41.734249 C 39.952606,41.734221 39.942622,41.734353 39.941342,41.734249 C 39.934886,41.737079 39.924693,41.742044 39.916609,41.746614 C 39.905615,41.753186 39.888765,41.764312 39.879513,41.771344 C 39.878433,41.772435 39.868354,41.782446 39.867151,41.783709 C 39.408493,42.202489 39.323107,44.355556 39.323107,44.355556 L 40.225726,45.901139 L 40.497748,44.726497 L 42.500825,43.638407 L 44.67701,42.995444 C 44.67701,42.995444 47.850259,42.82234 48.213295,42.82234 C 48.216135,42.82234 48.222661,42.822264 48.225666,42.82234 C 48.62422,42.841434 50.302918,43.452936 50.302918,43.452936 L 53.023145,41.091288 C 53.023145,41.091288 52.116074,40.275719 52.479102,39.731176 C 52.842137,39.186631 54.296711,38.09904 54.296711,38.09904 L 54.754201,38.000124 L 54.840754,37.728101 L 52.120526,35.242805 z M 52.033973,53.616684 L 50.84697,53.703237 L 50.401841,55.434289 L 50.574939,56.435826 L 49.214838,56.336909 L 47.768167,57.152975 L 47.768167,58.339983 L 48.31221,59.15605 L 49.573413,59.242603 C 49.573413,59.242606 49.754421,58.517543 50.117449,58.154513 C 50.480476,57.791482 51.30446,57.610468 51.30446,57.610468 L 51.761951,58.06796 L 51.118991,58.426536 L 50.216372,59.242603 L 50.030904,60.42961 L 49.94435,60.788184 L 50.945885,60.874737 L 51.576482,60.788184 L 53.208614,60.973656 L 53.208614,59.885565 L 53.83922,59.613542 L 53.394082,58.797476 L 53.394082,57.251893 L 52.578017,56.707848 L 52.751123,55.434289 L 53.208614,54.803691 L 52.033973,53.616684 z M 34.59981,64.509946 L 33.697191,64.5965 L 34.513257,65.511484 L 34.59981,64.509946 z M 57.202398,68.046238 L 56.027757,69.678372 L 56.114311,71.409425 L 56.658354,72.040025 L 57.288952,71.582529 L 57.202398,69.950395 L 57.202398,68.046238 z M 87.879115,102.71674 L 86.605549,103.61936 L 84.787949,104.34887 L 84.070793,104.89292 L 83.155811,106.71053 L 82.438661,107.79862 L 83.526758,108.8867 L 85.331993,108.16955 L 86.605549,105.62244 L 87.693638,103.61936 L 87.879115,102.71674 z "
       id="path1908" />
    <path
       sodipodi:type="arc"
       style="opacity:0.897541;fill:url(#radialGradient3735);fill-opacity:1;fill-rule:nonzero;stroke:none;stroke-width:1.44099998;stroke-linecap:round;stroke-linejoin:round;stroke-miterlimit:4;stroke-dasharray:none;stroke-dashoffset:4;stroke-opacity:1"
       id="path3726"
       sodipodi:cx="30.022364"
       sodipodi:cy="72.811836"
       sodipodi:rx="19.426235"
       sodipodi:ry="16.335697"
       d="M 49.448599 72.811836 A 19.426235 16.335697 0 1 1  10.596128,72.811836 A 19.426235 16.335697 0 1 1  49.448599 72.811836 z"
       transform="translate(5.739574,-4.52543)" />
    <path
       style="opacity:1;fill:url(#radialGradient3724);fill-opacity:1.0;fill-rule:nonzero;stroke:none;stroke-width:1.5;stroke-linecap:round;stroke-linejoin:round;stroke-miterlimit:4;stroke-dasharray:none;stroke-dashoffset:4;stroke-opacity:1"
       d="M 59.181739,16.805237 C 41.064768,16.805237 25.281311,26.27606 17.146579,40.220994 C 17.097897,40.719586 17.064905,41.223297 17.064905,41.729214 C 17.064905,55.684406 35.848322,67.011075 58.991164,67.011076 C 82.134007,67.011076 100.91742,55.684408 100.91742,41.729214 C 100.91742,40.970855 100.8627,40.2211 100.75407,39.479665 C 92.498777,25.940437 76.976872,16.805237 59.181739,16.805237 z "
       id="path3730" />
    <path
       transform="matrix(0.77027,0,0,0.77027,65.12801,31.4071)"
       d="M 49.448599 72.811836 A 19.426235 16.335697 0 1 1  10.596128,72.811836 A 19.426235 16.335697 0 1 1  49.448599 72.811836 z"
       sodipodi:ry="16.335697"
       sodipodi:rx="19.426235"
       sodipodi:cy="72.811836"
       sodipodi:cx="30.022364"
       id="path3737"
       style="opacity:0.897541;fill:url(#radialGradient3739);fill-opacity:1;fill-rule:nonzero;stroke:none;stroke-width:1.44099998;stroke-linecap:round;stroke-linejoin:round;stroke-miterlimit:4;stroke-dasharray:none;stroke-dashoffset:4;stroke-opacity:1"
       sodipodi:type="arc" />
    <path
       sodipodi:type="arc"
       style="opacity:0.56557378;fill:url(#radialGradient3751);fill-opacity:1;fill-rule:nonzero;stroke:none;stroke-width:1.5;stroke-linecap:round;stroke-linejoin:round;stroke-miterlimit:4;stroke-dasharray:none;stroke-dashoffset:4;stroke-opacity:1"
       id="path3743"
       sodipodi:cx="257.83911"
       sodipodi:cy="52.944092"
       sodipodi:rx="38.85247"
       sodipodi:ry="38.85247"
       d="M 296.69158 52.944092 A 38.85247 38.85247 0 1 1  218.98664,52.944092 A 38.85247 38.85247 0 1 1  296.69158 52.944092 z"
       transform="matrix(1.103843,0,0,0.554397,-225.9526,64.87702)" />
    <path
       style="opacity:1;fill:#0e3581;fill-opacity:1;fill-rule:evenodd;stroke:white;stroke-width:1.50725758;stroke-linecap:round;stroke-linejoin:round;stroke-miterlimit:4;stroke-dasharray:none;stroke-opacity:0.21951222"
       d="M 106.3491,48.39371 C 94.947971,75.817583 68.485252,81.583521 41.915065,81.942414 L 44.491612,60.034925 L 1.6868086,97.384988 L 48.445968,127.22496 L 44.036369,110.26136 C 75.234675,105.52602 101.34788,81.813283 107.68869,53.027832 C 107.31418,52.209065 106.75138,49.194198 106.3491,48.39371 z "
       id="path3767"
       sodipodi:nodetypes="cccccccc" />
    <path
       style="opacity:0.11065572;fill:white;fill-opacity:1;fill-rule:evenodd;stroke:none;stroke-width:1.44099998;stroke-linecap:round;stroke-linejoin:round;stroke-miterlimit:4;stroke-dasharray:none;stroke-opacity:0.21951222"
       d="M 106.19961,49.145437 C 93.722385,76.226856 65.974548,82.281178 41.580876,82.610672 L 44.16314,60.677774 L 1.3760104,98.038881 L 5.0068369,99.740857 L 38.543256,70.552117 L 35.631864,90.488211 C 59.161378,90.17039 101.13317,80.286451 106.19961,49.145437 z "
       id="path3800"
       sodipodi:nodetypes="cccccccc" />
    <path
       sodipodi:nodetypes="cccccccc"
       id="path3808"
       d="M 106.19961,49.145437 C 93.722385,76.226856 65.974548,82.281178 41.580876,82.610672 L 44.16314,60.677774 L 2.3556486,97.059243 L 3.7006527,98.434673 L 41.318897,65.164108 L 38.734051,86.406385 C 62.263565,86.088564 97.867712,78.000628 106.19961,49.145437 z "
       style="opacity:0.11065572;fill:white;fill-opacity:1;fill-rule:evenodd;stroke:none;stroke-width:1.44099998;stroke-linecap:round;stroke-linejoin:round;stroke-miterlimit:4;stroke-dasharray:none;stroke-opacity:0.21951222" />
    <path
       sodipodi:nodetypes="cccccccc"
       id="path3810"
       d="M 106.3491,48.39371 C 94.947971,75.817583 68.485252,81.583521 41.915065,81.942414 L 44.491612,60.034925 L 1.6868086,97.384988 L 48.445968,127.22496 L 44.036369,110.26136 C 75.234675,105.52602 101.34788,81.813283 107.68869,53.027832 C 107.31418,52.209065 106.75138,49.194198 106.3491,48.39371 z "
       style="opacity:1;fill:url(#radialGradient3818);fill-opacity:1;fill-rule:evenodd;stroke:url(#linearGradient3826);stroke-width:1.50725758;stroke-linecap:round;stroke-linejoin:round;stroke-miterlimit:4;stroke-dasharray:none;stroke-opacity:1" />
  </g>
</svg>
