<?xml version="1.0" encoding="UTF-8" standalone="no"?>
<!-- Created with Inkscape (http://www.inkscape.org/) -->
<svg
   xmlns:dc="http://purl.org/dc/elements/1.1/"
   xmlns:cc="http://web.resource.org/cc/"
   xmlns:rdf="http://www.w3.org/1999/02/22-rdf-syntax-ns#"
   xmlns:svg="http://www.w3.org/2000/svg"
   xmlns="http://www.w3.org/2000/svg"
   xmlns:xlink="http://www.w3.org/1999/xlink"
   xmlns:sodipodi="http://sodipodi.sourceforge.net/DTD/sodipodi-0.dtd"
   xmlns:inkscape="http://www.inkscape.org/namespaces/inkscape"
   id="svg2"
   sodipodi:version="0.32"
   inkscape:version="0.45.1"
   width="128"
   height="128"
   version="1.0"
   sodipodi:docbase="/home/pinheiro/pics/oxygen/scalable/apps"
   sodipodi:docname="package-graphics.svg"
   inkscape:output_extension="org.inkscape.output.svg.inkscape"
   inkscape:export-filename="/home/pinheiro/pics/oxygen/scalable/apps/package-graphics.png"
   inkscape:export-xdpi="11.25"
   inkscape:export-ydpi="11.25">
  <metadata
     id="metadata7">
    <rdf:RDF>
      <cc:Work
         rdf:about="">
        <dc:format>image/svg+xml</dc:format>
        <dc:type
           rdf:resource="http://purl.org/dc/dcmitype/StillImage" />
      </cc:Work>
    </rdf:RDF>
  </metadata>
  <defs
     id="defs5">
    <linearGradient
       inkscape:collect="always"
       id="linearGradient6243">
      <stop
         style="stop-color:#4c3006;stop-opacity:1;"
         offset="0"
         id="stop6245" />
      <stop
         style="stop-color:#4c3006;stop-opacity:0;"
         offset="1"
         id="stop6247" />
    </linearGradient>
    <linearGradient
       inkscape:collect="always"
       id="linearGradient6203">
      <stop
         style="stop-color:#432a04;stop-opacity:1;"
         offset="0"
         id="stop6205" />
      <stop
         style="stop-color:#432a04;stop-opacity:0;"
         offset="1"
         id="stop6207" />
    </linearGradient>
    <linearGradient
       id="linearGradient4882">
      <stop
         id="stop4884"
         offset="0"
         style="stop-color:#000000;stop-opacity:1;" />
      <stop
         style="stop-color:#000000;stop-opacity:0.49803922;"
         offset="0.88177341"
         id="stop4886" />
      <stop
         id="stop4888"
         offset="1"
         style="stop-color:#000000;stop-opacity:0;" />
    </linearGradient>
    <linearGradient
       inkscape:collect="always"
       id="linearGradient4588">
      <stop
         style="stop-color:#000000;stop-opacity:1;"
         offset="0"
         id="stop4590" />
      <stop
         style="stop-color:#000000;stop-opacity:0;"
         offset="1"
         id="stop4592" />
    </linearGradient>
    <linearGradient
       inkscape:collect="always"
       id="linearGradient4543">
      <stop
         style="stop-color:#4c4c4c;stop-opacity:1;"
         offset="0"
         id="stop4545" />
      <stop
         style="stop-color:#4c4c4c;stop-opacity:0;"
         offset="1"
         id="stop4547" />
    </linearGradient>
    <linearGradient
       inkscape:collect="always"
       id="linearGradient4535">
      <stop
         style="stop-color:#ffffff;stop-opacity:1;"
         offset="0"
         id="stop4537" />
      <stop
         style="stop-color:#ffffff;stop-opacity:0;"
         offset="1"
         id="stop4539" />
    </linearGradient>
    <linearGradient
       inkscape:collect="always"
       id="linearGradient4515">
      <stop
         style="stop-color:#ffffff;stop-opacity:1;"
         offset="0"
         id="stop4517" />
      <stop
         style="stop-color:#ffffff;stop-opacity:0;"
         offset="1"
         id="stop4519" />
    </linearGradient>
    <linearGradient
       inkscape:collect="always"
       id="linearGradient4235">
      <stop
         style="stop-color:#232834;stop-opacity:1;"
         offset="0"
         id="stop4237" />
      <stop
         style="stop-color:#232834;stop-opacity:0;"
         offset="1"
         id="stop4239" />
    </linearGradient>
    <linearGradient
       id="linearGradient3896">
      <stop
         style="stop-color:#242424;stop-opacity:0.04316547;"
         offset="0"
         id="stop3898" />
      <stop
         id="stop3904"
         offset="0.5"
         style="stop-color:#242424;stop-opacity:0;" />
      <stop
         style="stop-color:#242424;stop-opacity:0.82374102;"
         offset="1"
         id="stop3900" />
    </linearGradient>
    <linearGradient
       inkscape:collect="always"
       id="linearGradient3884">
      <stop
         style="stop-color:#e0e3ea;stop-opacity:1;"
         offset="0"
         id="stop3886" />
      <stop
         style="stop-color:#e0e3ea;stop-opacity:0;"
         offset="1"
         id="stop3888" />
    </linearGradient>
    <linearGradient
       id="linearGradient3312">
      <stop
         style="stop-color:#000000;stop-opacity:0;"
         offset="0"
         id="stop3314" />
      <stop
         id="stop3320"
         offset="0.71428573"
         style="stop-color:#121212;stop-opacity:0.10791367;" />
      <stop
         style="stop-color:#242424;stop-opacity:0;"
         offset="1"
         id="stop3316" />
    </linearGradient>
    <linearGradient
       inkscape:collect="always"
       id="linearGradient3203">
      <stop
         style="stop-color:#ffffff;stop-opacity:1;"
         offset="0"
         id="stop3205" />
      <stop
         style="stop-color:#ffffff;stop-opacity:0;"
         offset="1"
         id="stop3207" />
    </linearGradient>
    <filter
       inkscape:collect="always"
       x="-0.040805742"
       width="1.0816115"
       y="-0.10283394"
       height="1.2056679"
       id="filter3304">
      <feGaussianBlur
         inkscape:collect="always"
         stdDeviation="2.6980673"
         id="feGaussianBlur3306" />
    </filter>
    <clipPath
       clipPathUnits="userSpaceOnUse"
       id="clipPath3308">
      <path
         style="fill:#242424;fill-opacity:0.25514401;fill-rule:evenodd;stroke:none;stroke-width:1px;stroke-linecap:butt;stroke-linejoin:miter;stroke-opacity:1"
         d="M 890,417.36218 C 881.8468,423.24973 863.6613,427.54176 820.1563,427.73718 L 820.1563,427.79968 C 819.6273,427.79968 819.178,427.80086 818.6563,427.79968 C 818.1345,427.80085 817.6852,427.79969 817.1563,427.79968 L 817.1563,427.73718 C 773.7149,427.54205 755.4832,423.26766 747.3125,417.39343 C 750.3621,431.14641 753.6014,448.86843 757,459.61218 C 759.2237,466.64208 765.687,473.13117 817.4687,473.33093 L 817.4687,473.36218 C 817.8869,473.36219 818.2437,473.36297 818.6563,473.36218 C 819.0687,473.36298 819.4256,473.36218 819.8437,473.36218 L 819.8437,473.33093 C 871.6255,473.13118 878.0887,466.64207 880.3125,459.61218 C 883.7136,448.86045 886.9484,431.12695 890,417.36218 z "
         id="path3310"
         sodipodi:nodetypes="cccscccsccsccsc" />
    </clipPath>
    <clipPath
       clipPathUnits="userSpaceOnUse"
       id="clipPath3659">
      <path
         sodipodi:nodetypes="cssccsccsssss"
         id="path3661"
         d="M 682.67871,529.64953 C 626.60458,529.70818 589.77549,532.61567 587.86621,536.32453 C 585.85081,540.23952 601.14405,681.7922 622.20996,748.38703 C 624.4337,755.41692 630.89688,761.90602 682.67871,762.10578 L 682.67871,762.13703 C 683.09686,762.13703 683.45373,762.13782 683.86621,762.13703 C 684.27869,762.13782 684.63556,762.13703 685.05371,762.13703 L 685.05371,762.10578 C 736.83553,761.90602 743.29871,755.41692 745.52246,748.38703 C 766.58837,681.7922 781.88163,540.23952 779.86621,536.32453 C 777.95693,532.61567 741.12782,529.70859 685.05371,529.64953 C 684.64072,529.6491 684.23777,529.64911 683.83344,529.64922 C 683.45291,529.64933 683.07118,529.64912 682.67871,529.64953 z "
         style="fill:url(#linearGradient3663);fill-opacity:1;fill-rule:evenodd;stroke:none;stroke-width:1px;stroke-linecap:butt;stroke-linejoin:miter;stroke-opacity:1" />
    </clipPath>
    <linearGradient
       inkscape:collect="always"
       xlink:href="#linearGradient3312"
       id="linearGradient3663"
       gradientUnits="userSpaceOnUse"
       gradientTransform="translate(0,4.5332444)"
       x1="587.68787"
       y1="641.36005"
       x2="780.04456"
       y2="641.36005" />
    <filter
       inkscape:collect="always"
       id="filter4227">
      <feGaussianBlur
         inkscape:collect="always"
         stdDeviation="2.2043433"
         id="feGaussianBlur4229" />
    </filter>
    <filter
       inkscape:collect="always"
       id="filter4231">
      <feGaussianBlur
         inkscape:collect="always"
         stdDeviation="2.2043433"
         id="feGaussianBlur4233" />
    </filter>
    <clipPath
       clipPathUnits="userSpaceOnUse"
       id="clipPath4252">
      <path
         sodipodi:nodetypes="cssccsccsssss"
         id="path4254"
         d="M 1388.1096,951.78929 C 1332.0355,951.84794 1295.2064,954.75543 1293.2971,958.46429 C 1291.2817,962.37928 1306.575,1103.932 1327.6409,1170.5269 C 1329.8646,1177.5568 1336.3278,1184.0459 1388.1096,1184.2456 L 1388.1096,1184.2769 C 1388.5278,1184.2769 1388.8846,1184.2777 1389.2971,1184.2769 C 1389.7096,1184.2777 1390.0665,1184.2769 1390.4846,1184.2769 L 1390.4846,1184.2456 C 1442.2664,1184.0459 1448.7296,1177.5568 1450.9534,1170.5269 C 1472.0193,1103.932 1487.3125,962.37928 1485.2971,958.46429 C 1483.3878,954.75543 1446.5587,951.84835 1390.4846,951.78929 C 1390.0716,951.78886 1389.6687,951.78887 1389.2644,951.78898 C 1388.8838,951.78909 1388.5021,951.78888 1388.1096,951.78929 z "
         style="fill:url(#linearGradient4256);fill-opacity:1;fill-rule:evenodd;stroke:none;stroke-width:1px;stroke-linecap:butt;stroke-linejoin:miter;stroke-opacity:1" />
    </clipPath>
    <linearGradient
       inkscape:collect="always"
       xlink:href="#linearGradient3312"
       id="linearGradient4256"
       gradientUnits="userSpaceOnUse"
       gradientTransform="translate(705.43102,426.67301)"
       x1="587.68787"
       y1="641.36005"
       x2="780.04456"
       y2="641.36005" />
    <filter
       inkscape:collect="always"
       x="-0.029940343"
       width="1.0598807"
       y="-0.40557128"
       height="1.8111426"
       id="filter4434">
      <feGaussianBlur
         inkscape:collect="always"
         stdDeviation="1.5798843"
         id="feGaussianBlur4436" />
    </filter>
    <filter
       inkscape:collect="always"
       x="-0.030412477"
       width="1.060825"
       y="-0.32186538"
       height="1.6437308"
       id="filter4438">
      <feGaussianBlur
         inkscape:collect="always"
         stdDeviation="1.5798843"
         id="feGaussianBlur4440" />
    </filter>
    <filter
       inkscape:collect="always"
       x="-0.029027816"
       width="1.0580556"
       y="-0.1621213"
       height="1.3242426"
       id="filter4442">
      <feGaussianBlur
         inkscape:collect="always"
         stdDeviation="1.7913051"
         id="feGaussianBlur4444" />
    </filter>
    <filter
       inkscape:collect="always"
       x="-0.031779751"
       width="1.0635595"
       y="-0.36176917"
       height="1.7235383"
       id="filter4511">
      <feGaussianBlur
         inkscape:collect="always"
         stdDeviation="0.78814728"
         id="feGaussianBlur4513" />
    </filter>
    <filter
       inkscape:collect="always"
       x="-0.01927151"
       width="1.038543"
       y="-0.26774278"
       height="1.5354856"
       id="filter4571">
      <feGaussianBlur
         inkscape:collect="always"
         stdDeviation="1.5452518"
         id="feGaussianBlur4573" />
    </filter>
    <linearGradient
       inkscape:collect="always"
       xlink:href="#linearGradient3884"
       id="linearGradient4624"
       gradientUnits="userSpaceOnUse"
       gradientTransform="translate(-327.7771,0)"
       x1="674.42633"
       y1="725.22595"
       x2="674.42633"
       y2="704.21393" />
    <linearGradient
       inkscape:collect="always"
       xlink:href="#linearGradient4235"
       id="linearGradient4628"
       gradientUnits="userSpaceOnUse"
       x1="1462.6993"
       y1="1221.0568"
       x2="1510.7087"
       y2="928.50867" />
    <linearGradient
       inkscape:collect="always"
       xlink:href="#linearGradient4235"
       id="linearGradient4630"
       gradientUnits="userSpaceOnUse"
       x1="1462.6993"
       y1="1221.0568"
       x2="1510.7087"
       y2="928.50867" />
    <linearGradient
       inkscape:collect="always"
       xlink:href="#linearGradient4235"
       id="linearGradient4632"
       gradientUnits="userSpaceOnUse"
       x1="1462.6993"
       y1="1221.0568"
       x2="1510.7087"
       y2="928.50867" />
    <linearGradient
       inkscape:collect="always"
       xlink:href="#linearGradient4235"
       id="linearGradient4634"
       gradientUnits="userSpaceOnUse"
       x1="1462.6993"
       y1="1221.0568"
       x2="1510.7087"
       y2="928.50867" />
    <linearGradient
       inkscape:collect="always"
       xlink:href="#linearGradient4235"
       id="linearGradient4636"
       gradientUnits="userSpaceOnUse"
       x1="1462.6993"
       y1="1221.0568"
       x2="1510.7087"
       y2="928.50867" />
    <linearGradient
       inkscape:collect="always"
       xlink:href="#linearGradient4235"
       id="linearGradient4638"
       gradientUnits="userSpaceOnUse"
       x1="1462.6993"
       y1="1221.0568"
       x2="1510.7087"
       y2="928.50867" />
    <radialGradient
       inkscape:collect="always"
       xlink:href="#linearGradient4515"
       id="radialGradient4640"
       gradientUnits="userSpaceOnUse"
       gradientTransform="matrix(1.157446,0,0,0.1461587,-433.24427,618.11702)"
       cx="681.6189"
       cy="723.92499"
       fx="681.6189"
       fy="723.92499"
       r="29.760355" />
    <linearGradient
       inkscape:collect="always"
       xlink:href="#linearGradient4535"
       id="linearGradient4642"
       gradientUnits="userSpaceOnUse"
       gradientTransform="translate(-0.1,-1)"
       spreadMethod="reflect"
       x1="310.47693"
       y1="544.73749"
       x2="310.47693"
       y2="590.53918" />
    <linearGradient
       inkscape:collect="always"
       xlink:href="#linearGradient4588"
       id="linearGradient4807"
       gradientUnits="userSpaceOnUse"
       x1="261.76172"
       y1="534.7373"
       x2="454.10596"
       y2="534.7373"
       gradientTransform="matrix(0.373931,0,0,0.3274711,-56.015419,-124.83116)" />
    <linearGradient
       inkscape:collect="always"
       xlink:href="#linearGradient4543"
       id="linearGradient4810"
       gradientUnits="userSpaceOnUse"
       gradientTransform="matrix(0.373931,0,0,0.3274711,-56.052811,-125.15864)"
       spreadMethod="reflect"
       x1="262.10443"
       y1="543.33563"
       x2="393.77737"
       y2="543.33563" />
    <radialGradient
       inkscape:collect="always"
       xlink:href="#linearGradient3896"
       id="radialGradient4823"
       gradientUnits="userSpaceOnUse"
       gradientTransform="matrix(0.5429536,0,0,0.7932361,-190.07215,-466.7665)"
       cx="493.41537"
       cy="716.71033"
       fx="493.41537"
       fy="716.71033"
       r="72.037918" />
    <linearGradient
       inkscape:collect="always"
       xlink:href="#linearGradient3312"
       id="linearGradient4830"
       gradientUnits="userSpaceOnUse"
       gradientTransform="matrix(0.373931,0,0,0.3274711,-177.8893,-123.34665)"
       x1="587.68787"
       y1="641.36005"
       x2="780.04456"
       y2="641.36005" />
    <linearGradient
       inkscape:collect="always"
       xlink:href="#linearGradient3203"
       id="linearGradient4834"
       gradientUnits="userSpaceOnUse"
       x1="285.2211"
       y1="534.01581"
       x2="285.2211"
       y2="549.35931" />
    <radialGradient
       inkscape:collect="always"
       xlink:href="#linearGradient4882"
       id="radialGradient4836"
       gradientUnits="userSpaceOnUse"
       gradientTransform="matrix(1,0,0,0.1111111,0,479.48557)"
       cx="279.78595"
       cy="539.42126"
       fx="279.78595"
       fy="539.42126"
       r="48.594402" />
    <filter
       inkscape:collect="always"
       x="-0.036404346"
       width="1.0728087"
       y="-0.32763913"
       height="1.6552783"
       id="filter4878">
      <feGaussianBlur
         inkscape:collect="always"
         stdDeviation="1.4742062"
         id="feGaussianBlur4880" />
    </filter>
    <linearGradient
       id="linearGradient3225">
      <stop
         id="stop3227"
         offset="0"
         style="stop-color:#ffffff;stop-opacity:1;" />
      <stop
         id="stop3229"
         offset="1"
         style="stop-color:#aeaeae;stop-opacity:1;" />
    </linearGradient>
    <linearGradient
       id="linearGradient4067">
      <stop
         id="stop4069"
         offset="0"
         style="stop-color:#ffffff;stop-opacity:0.6978417;" />
      <stop
         style="stop-color:#ffffff;stop-opacity:0.18705036;"
         offset="0.5"
         id="stop4120" />
      <stop
         id="stop4071"
         offset="1"
         style="stop-color:#ffffff;stop-opacity:0" />
    </linearGradient>
    <linearGradient
       id="linearGradient4142">
      <stop
         style="stop-color:#ffffff;stop-opacity:1;"
         offset="0"
         id="stop4144" />
      <stop
         id="stop4148"
         offset="0.5"
         style="stop-color:#ffffff;stop-opacity:0.79136693;" />
      <stop
         style="stop-color:#ffffff;stop-opacity:0;"
         offset="1"
         id="stop4146" />
    </linearGradient>
    <linearGradient
       id="linearGradient5490">
      <stop
         id="stop5492"
         offset="0"
         style="stop-color:#000000;stop-opacity:0;" />
      <stop
         style="stop-color:#000000;stop-opacity:0;"
         offset="0.44935718"
         id="stop5504" />
      <stop
         style="stop-color:#000000;stop-opacity:1;"
         offset="0.50785339"
         id="stop5502" />
      <stop
         id="stop5506"
         offset="0.5980373"
         style="stop-color:#000000;stop-opacity:0;" />
      <stop
         id="stop5494"
         offset="1"
         style="stop-color:#000000;stop-opacity:0;" />
    </linearGradient>
    <linearGradient
       id="linearGradient6048">
      <stop
         id="stop6050"
         offset="0"
         style="stop-color:#000000;stop-opacity:1;" />
      <stop
         id="stop6052"
         offset="1"
         style="stop-color:#000000;stop-opacity:0;" />
    </linearGradient>
    <linearGradient
       inkscape:collect="always"
       id="linearGradient3280">
      <stop
         style="stop-color:#000000;stop-opacity:1;"
         offset="0"
         id="stop3282" />
      <stop
         style="stop-color:#000000;stop-opacity:0;"
         offset="1"
         id="stop3284" />
    </linearGradient>
    <linearGradient
       inkscape:collect="always"
       id="linearGradient2626">
      <stop
         style="stop-color:#000000;stop-opacity:1;"
         offset="0"
         id="stop2628" />
      <stop
         style="stop-color:#000000;stop-opacity:0;"
         offset="1"
         id="stop2630" />
    </linearGradient>
    <linearGradient
       inkscape:collect="always"
       id="linearGradient3552">
      <stop
         style="stop-color:#ffffff;stop-opacity:1;"
         offset="0"
         id="stop3554" />
      <stop
         style="stop-color:#ffffff;stop-opacity:0;"
         offset="1"
         id="stop3556" />
    </linearGradient>
    <linearGradient
       inkscape:collect="always"
       id="linearGradient3565">
      <stop
         style="stop-color:#ffffff;stop-opacity:1;"
         offset="0"
         id="stop3567" />
      <stop
         style="stop-color:#ffffff;stop-opacity:0;"
         offset="1"
         id="stop3569" />
    </linearGradient>
    <linearGradient
       id="linearGradient1648">
      <stop
         id="stop1650"
         offset="0"
         style="stop-color:#b4942a;stop-opacity:1;" />
      <stop
         id="stop1652"
         offset="1"
         style="stop-color:#e4dcc9;stop-opacity:1" />
    </linearGradient>
    <linearGradient
       id="linearGradient2616">
      <stop
         style="stop-color:#554513;stop-opacity:1;"
         offset="0"
         id="stop2618" />
      <stop
         style="stop-color:#b59e69;stop-opacity:1;"
         offset="1"
         id="stop2620" />
    </linearGradient>
    <linearGradient
       id="linearGradient2663">
      <stop
         style="stop-color:#ae6f10;stop-opacity:1;"
         offset="0"
         id="stop2665" />
      <stop
         style="stop-color:#281900;stop-opacity:1;"
         offset="1"
         id="stop2667" />
    </linearGradient>
    <linearGradient
       id="linearGradient3695">
      <stop
         style="stop-color:#ffffff;stop-opacity:1;"
         offset="0"
         id="stop3697" />
      <stop
         style="stop-color:#aeaeae;stop-opacity:1;"
         offset="1"
         id="stop3699" />
    </linearGradient>
    <linearGradient
       id="linearGradient2935">
      <stop
         id="stop2937"
         offset="0"
         style="stop-color:#006066;stop-opacity:1;" />
      <stop
         id="stop2939"
         offset="1"
         style="stop-color:#004448;stop-opacity:1;" />
    </linearGradient>
    <clipPath
       clipPathUnits="userSpaceOnUse"
       id="clipPath6141">
      <path
         style="opacity:0.41573032;fill:#000000;fill-opacity:1;stroke:none;stroke-width:3.4000001;stroke-linecap:round;stroke-linejoin:round;stroke-miterlimit:4;stroke-dasharray:none;stroke-dashoffset:1.08779998;stroke-opacity:1"
         d="M -2.56652,-2.4820906 L -2.56652,129.54916 L 130.96473,129.54916 L 130.96473,-2.4820906 L -2.56652,-2.4820906 z M 24.93348,48.392909 C 24.93348,50.370609 39.718125,51.986661 61.245976,51.986659 C 83.506511,51.986659 97.589725,50.370608 97.589726,48.392909 C 97.589726,46.41521 98.983828,117.36166 78.933476,117.36166 C 19.09186,117.36166 24.93348,46.415209 24.93348,48.392909 z "
         id="path6143" />
    </clipPath>
    <linearGradient
       inkscape:collect="always"
       xlink:href="#linearGradient2616"
       id="linearGradient6145"
       gradientUnits="userSpaceOnUse"
       gradientTransform="matrix(-3.145598,-0.610729,-0.54883,3.500387,96.74245,-68.90448)"
       x1="-8.7620945"
       y1="52.858494"
       x2="-11.719011"
       y2="48.873039" />
    <radialGradient
       inkscape:collect="always"
       xlink:href="#linearGradient1648"
       id="radialGradient6147"
       gradientUnits="userSpaceOnUse"
       gradientTransform="matrix(-0.530257,0.530256,1.644889,1.644889,-64.20398,-87.59262)"
       cx="37.368698"
       cy="110.8646"
       fx="43.500916"
       fy="111.97002"
       r="11.61476" />
    <linearGradient
       inkscape:collect="always"
       xlink:href="#linearGradient2626"
       id="linearGradient6149"
       gradientUnits="userSpaceOnUse"
       gradientTransform="matrix(-1.109524,0,0,1.109524,136.8782,-10.92439)"
       x1="47.745087"
       y1="100.18176"
       x2="39.897305"
       y2="105.63568" />
    <radialGradient
       inkscape:collect="always"
       xlink:href="#linearGradient2663"
       id="radialGradient6151"
       gradientUnits="userSpaceOnUse"
       gradientTransform="matrix(-0.381775,0.335546,1.65381,1.881664,22.171,-8.583961)"
       cx="34.699203"
       cy="23.848236"
       fx="25.839911"
       fy="27.013157"
       r="18.765305" />
    <radialGradient
       inkscape:collect="always"
       xlink:href="#linearGradient3552"
       id="radialGradient6153"
       gradientUnits="userSpaceOnUse"
       gradientTransform="matrix(-0.25962,0.224454,2.267967,2.623278,-47.4143,-27.88403)"
       cx="-41.394871"
       cy="49.229198"
       fx="-41.394871"
       fy="49.229198"
       r="16.602501" />
    <linearGradient
       inkscape:collect="always"
       xlink:href="#linearGradient3565"
       id="linearGradient6155"
       gradientUnits="userSpaceOnUse"
       gradientTransform="matrix(-2.555437,-0.445861,-0.445861,2.555437,96.29669,-21.44412)"
       x1="24.086939"
       y1="16.355263"
       x2="26.619194"
       y2="20.057724" />
    <radialGradient
       inkscape:collect="always"
       xlink:href="#linearGradient3225"
       id="radialGradient6157"
       gradientUnits="userSpaceOnUse"
       gradientTransform="matrix(-1.091017,0.841583,0.312923,0.414532,74.60084,-28.92296)"
       cx="49.009884"
       cy="8.4953122"
       fx="47.370888"
       fy="6.7701697"
       r="3.9750405" />
    <linearGradient
       inkscape:collect="always"
       xlink:href="#linearGradient3552"
       id="linearGradient6159"
       gradientUnits="userSpaceOnUse"
       gradientTransform="matrix(-1,0,0,1,132.567,0.923795)"
       x1="51.674519"
       y1="91.063316"
       x2="58.674988"
       y2="82.036392" />
    <radialGradient
       inkscape:collect="always"
       xlink:href="#linearGradient3225"
       id="radialGradient6161"
       gradientUnits="userSpaceOnUse"
       gradientTransform="matrix(1.006114,0.804017,0.402416,-0.496946,-8.95131,64.78593)"
       cx="49.009884"
       cy="8.4953122"
       fx="47.356842"
       fy="9.7852488"
       r="3.9750405" />
    <radialGradient
       inkscape:collect="always"
       xlink:href="#linearGradient3225"
       id="radialGradient6163"
       gradientUnits="userSpaceOnUse"
       gradientTransform="matrix(1.023607,0.818166,0.402456,-0.496915,-6.729909,60.21586)"
       cx="49.009884"
       cy="8.4953122"
       fx="47.424515"
       fy="9.6082344"
       r="3.9750405" />
    <radialGradient
       inkscape:collect="always"
       xlink:href="#linearGradient3225"
       id="radialGradient6165"
       gradientUnits="userSpaceOnUse"
       gradientTransform="matrix(1.05859,0.846463,0.402535,-0.496852,-5.327913,54.90227)"
       cx="49.009884"
       cy="8.4953122"
       fx="48.025326"
       fy="9.788682"
       r="3.9750405" />
    <radialGradient
       inkscape:collect="always"
       xlink:href="#linearGradient3225"
       id="radialGradient6167"
       gradientUnits="userSpaceOnUse"
       gradientTransform="matrix(1.076084,0.86061,0.402574,-0.496821,-3.078406,50.29781)"
       cx="49.009884"
       cy="8.4953122"
       fx="48.361217"
       fy="9.4356842"
       r="3.9750405" />
    <linearGradient
       inkscape:collect="always"
       xlink:href="#linearGradient3280"
       id="linearGradient6169"
       gradientUnits="userSpaceOnUse"
       gradientTransform="matrix(1.086544,-9.11518e-2,-0.132743,1.144289,8.908611,-9.844197)"
       x1="59.634602"
       y1="106.41199"
       x2="50.843105"
       y2="95.266502" />
    <linearGradient
       inkscape:collect="always"
       xlink:href="#linearGradient2616"
       id="linearGradient6171"
       gradientUnits="userSpaceOnUse"
       gradientTransform="matrix(-3.145598,-0.610729,-0.54883,3.500387,96.74245,-68.90448)"
       x1="-8.7620945"
       y1="52.858494"
       x2="-11.719011"
       y2="48.873039" />
    <radialGradient
       inkscape:collect="always"
       xlink:href="#linearGradient1648"
       id="radialGradient6173"
       gradientUnits="userSpaceOnUse"
       gradientTransform="matrix(-0.530257,0.530256,1.644889,1.644889,-64.20398,-87.59262)"
       cx="37.368698"
       cy="110.8646"
       fx="43.500916"
       fy="111.97002"
       r="11.61476" />
    <linearGradient
       inkscape:collect="always"
       xlink:href="#linearGradient2626"
       id="linearGradient6175"
       gradientUnits="userSpaceOnUse"
       gradientTransform="matrix(-1.109524,0,0,1.109524,136.8782,-10.92439)"
       x1="47.745087"
       y1="100.18176"
       x2="39.897305"
       y2="105.63568" />
    <radialGradient
       inkscape:collect="always"
       xlink:href="#linearGradient2663"
       id="radialGradient6177"
       gradientUnits="userSpaceOnUse"
       gradientTransform="matrix(-0.381775,0.335546,1.65381,1.881664,22.171,-8.583961)"
       cx="34.699203"
       cy="23.848236"
       fx="25.839911"
       fy="27.013157"
       r="18.765305" />
    <radialGradient
       inkscape:collect="always"
       xlink:href="#linearGradient3552"
       id="radialGradient6179"
       gradientUnits="userSpaceOnUse"
       gradientTransform="matrix(-0.25962,0.224454,2.267967,2.623278,-47.4143,-27.88403)"
       cx="-41.394871"
       cy="49.229198"
       fx="-41.394871"
       fy="49.229198"
       r="16.602501" />
    <linearGradient
       inkscape:collect="always"
       xlink:href="#linearGradient3565"
       id="linearGradient6181"
       gradientUnits="userSpaceOnUse"
       gradientTransform="matrix(-2.555437,-0.445861,-0.445861,2.555437,96.29669,-21.44412)"
       x1="24.086939"
       y1="16.355263"
       x2="26.619194"
       y2="20.057724" />
    <radialGradient
       inkscape:collect="always"
       xlink:href="#linearGradient3225"
       id="radialGradient6183"
       gradientUnits="userSpaceOnUse"
       gradientTransform="matrix(-1.091017,0.841583,0.312923,0.414532,74.60084,-28.92296)"
       cx="49.009884"
       cy="8.4953122"
       fx="47.370888"
       fy="6.7701697"
       r="3.9750405" />
    <linearGradient
       inkscape:collect="always"
       xlink:href="#linearGradient3552"
       id="linearGradient6185"
       gradientUnits="userSpaceOnUse"
       gradientTransform="matrix(-1,0,0,1,132.567,0.923795)"
       x1="51.674519"
       y1="91.063316"
       x2="58.674988"
       y2="82.036392" />
    <radialGradient
       inkscape:collect="always"
       xlink:href="#linearGradient3225"
       id="radialGradient6187"
       gradientUnits="userSpaceOnUse"
       gradientTransform="matrix(1.006114,0.804017,0.402416,-0.496946,-8.95131,64.78593)"
       cx="49.009884"
       cy="8.4953122"
       fx="47.356842"
       fy="9.7852488"
       r="3.9750405" />
    <radialGradient
       inkscape:collect="always"
       xlink:href="#linearGradient3225"
       id="radialGradient6189"
       gradientUnits="userSpaceOnUse"
       gradientTransform="matrix(1.023607,0.818166,0.402456,-0.496915,-6.729909,60.21586)"
       cx="49.009884"
       cy="8.4953122"
       fx="47.424515"
       fy="9.6082344"
       r="3.9750405" />
    <radialGradient
       inkscape:collect="always"
       xlink:href="#linearGradient3225"
       id="radialGradient6191"
       gradientUnits="userSpaceOnUse"
       gradientTransform="matrix(1.05859,0.846463,0.402535,-0.496852,-5.327913,54.90227)"
       cx="49.009884"
       cy="8.4953122"
       fx="48.025326"
       fy="9.788682"
       r="3.9750405" />
    <radialGradient
       inkscape:collect="always"
       xlink:href="#linearGradient3225"
       id="radialGradient6193"
       gradientUnits="userSpaceOnUse"
       gradientTransform="matrix(1.076084,0.86061,0.402574,-0.496821,-3.078406,50.29781)"
       cx="49.009884"
       cy="8.4953122"
       fx="48.361217"
       fy="9.4356842"
       r="3.9750405" />
    <linearGradient
       inkscape:collect="always"
       xlink:href="#linearGradient3280"
       id="linearGradient6195"
       gradientUnits="userSpaceOnUse"
       gradientTransform="matrix(1.086544,-9.11518e-2,-0.132743,1.144289,8.908611,-9.844197)"
       x1="59.634602"
       y1="106.41199"
       x2="50.843105"
       y2="95.266502" />
    <clipPath
       clipPathUnits="userSpaceOnUse"
       id="clipPath6197">
      <path
         style="opacity:0.41573032;fill:#000000;fill-opacity:1;stroke:none;stroke-width:3.4000001;stroke-linecap:round;stroke-linejoin:round;stroke-miterlimit:4;stroke-dashoffset:1.08779998;stroke-opacity:1"
         d="M 96.916986,44.682394 C 97.076532,46.653648 83.189307,49.387966 61.001327,51.183779 C 39.543644,52.920484 24.667139,52.514196 24.507593,50.542942 C 24.348047,48.571689 24.242689,119.75858 83.889265,114.93101 C 103.87426,113.31349 96.75744,42.711141 96.916986,44.682394 z "
         id="path6199"
         sodipodi:nodetypes="csssc" />
    </clipPath>
    <linearGradient
       inkscape:collect="always"
       xlink:href="#linearGradient6203"
       id="linearGradient6209"
       x1="59.393154"
       y1="51.427006"
       x2="77.524055"
       y2="110.80893"
       gradientUnits="userSpaceOnUse" />
    <filter
       inkscape:collect="always"
       id="filter6223">
      <feGaussianBlur
         inkscape:collect="always"
         stdDeviation="0.43661978"
         id="feGaussianBlur6225" />
    </filter>
    <linearGradient
       inkscape:collect="always"
       xlink:href="#linearGradient6243"
       id="linearGradient6249"
       x1="88.345245"
       y1="109.20773"
       x2="120.21683"
       y2="36.632557"
       gradientUnits="userSpaceOnUse" />
  </defs>
  <sodipodi:namedview
     inkscape:window-height="583"
     inkscape:window-width="772"
     inkscape:pageshadow="2"
     inkscape:pageopacity="0.0"
     guidetolerance="10.0"
     gridtolerance="10.0"
     objecttolerance="10.0"
     borderopacity="1.0"
     bordercolor="#666666"
     pagecolor="#ffffff"
     id="base"
     showgrid="false"
     showguides="true"
     inkscape:guide-bbox="true"
     width="128px"
     height="128px"
     inkscape:zoom="1.4405687"
     inkscape:cx="132.01414"
     inkscape:cy="79.64913"
     inkscape:window-x="607"
     inkscape:window-y="227"
     inkscape:current-layer="svg2" />
  <g
     id="g6022"
     transform="matrix(0.9581491,7.717389e-2,-7.7549043e-2,0.9535139,18.327897,-0.2905278)"
     clip-path="url(#clipPath6197)"
     inkscape:transform-center-y="64.800576"
     inkscape:transform-center-x="8.0377735">
    <g
       id="g6024"
       inkscape:label="top"
       style="display:inline"
       transform="matrix(0.1725275,-0.7977337,-0.7977337,-0.1725275,86.733834,119.81396)">
      <path
         style="fill:url(#linearGradient6171);fill-opacity:1;fill-rule:evenodd;stroke:#000000;stroke-width:0;stroke-linecap:round;stroke-linejoin:round;stroke-miterlimit:4;stroke-dasharray:none;stroke-opacity:1"
         d="M 86.005625,102.10101 C 88.126931,107.69887 87.928494,113.60333 92.369535,118.8946 C 98.641219,126.36696 116.10438,129.34212 124.14775,122.94006 C 114.29342,121.50872 109.67782,114.05725 102.758,107.64848 C 98.283706,103.50465 93.353383,101.00179 91.166041,98.127921 C 89.445901,99.452297 87.725764,100.77666 86.005625,102.10101 z "
         id="path6026"
         inkscape:r_cx="true"
         inkscape:r_cy="true"
         sodipodi:nodetypes="cscscc" />
      <path
         sodipodi:nodetypes="cscscc"
         inkscape:r_cy="true"
         inkscape:r_cx="true"
         id="path6028"
         d="M 87.555906,102.23 C 88.858738,106.37221 91.149714,113.68309 93.974044,117.55299 C 97.962602,123.01812 112.41663,126.41637 118.13364,123.04271 C 110.89817,121.51551 106.05988,113.88933 101.77082,109.0644 C 100.25469,107.35884 92.279555,101.59225 90.892519,99.486182 C 89.747771,100.5076 88.700654,101.20857 87.555906,102.23 z "
         style="fill:url(#radialGradient6173);fill-opacity:1;fill-rule:evenodd;stroke:#000000;stroke-width:0;stroke-linecap:round;stroke-linejoin:round;stroke-miterlimit:4;stroke-dasharray:none;stroke-opacity:1" />
      <path
         sodipodi:nodetypes="csscc"
         inkscape:r_cy="true"
         inkscape:r_cx="true"
         id="path6030"
         d="M 86.005625,102.10101 C 88.126931,107.69887 87.928494,113.60333 92.369535,118.8946 C 98.641219,126.36696 107.94847,113.99481 101.25673,107.34824 C 96.782448,102.90415 93.353383,101.00179 91.166041,98.127921 C 89.445901,99.452297 87.725764,100.77666 86.005625,102.10101 z "
         style="fill:url(#linearGradient6175);fill-opacity:1;fill-rule:evenodd;stroke:#000000;stroke-width:0;stroke-linecap:round;stroke-linejoin:round;stroke-miterlimit:4;stroke-dasharray:none;stroke-opacity:1" />
      <path
         style="opacity:0.7;fill:none"
         id="path6034"
         d="M 18.74807,42.131486 C 24.39623,43.614497 27.7714,49.392769 26.2884,55.040929 C 24.80231,60.687341 19.02229,64.065581 13.37523,62.577099 C 7.7286,61.094962 4.35167,55.319754 5.83621,49.672469 C 7.31637,44.018617 13.09858,40.643659 18.74807,42.131486 z " />
      <circle
         style="opacity:0.7;fill:none"
         sodipodi:ry="5.9920001"
         sodipodi:rx="5.9920001"
         sodipodi:cy="70.773003"
         sodipodi:cx="34.993"
         id="circle6036"
         r="5.9920001"
         cy="70.773003"
         cx="34.993"
         transform="matrix(1.532253,0.874618,0.874618,-1.532253,-85.8623,106.3727)" />
      <path
         style="opacity:0.7;fill:none"
         id="path6038"
         d="M 63.538933,11.921755 C 65.076268,17.552958 61.755343,23.370927 56.124797,24.910669 C 50.494467,26.446471 44.675628,23.127079 43.135885,17.496533 C 41.597019,11.864454 44.921009,6.0482343 50.550022,4.5076184 C 56.181227,2.9702834 61.999192,6.2912068 63.538933,11.921755 z " />
      <circle
         style="opacity:0.7;fill:none"
         sodipodi:ry="5.9920001"
         sodipodi:rx="5.9920001"
         sodipodi:cy="92.005997"
         sodipodi:cx="56.228001"
         id="circle6040"
         r="5.9920001"
         cy="92.005997"
         cx="56.228001"
         transform="matrix(1.532253,0.874618,0.874618,-1.532253,-85.8623,106.3727)" />
      <path
         style="fill:url(#radialGradient6177);fill-opacity:1;fill-rule:evenodd;stroke:#453500;stroke-width:1.23200393;stroke-linecap:butt;stroke-linejoin:miter;stroke-miterlimit:4;stroke-dasharray:none;stroke-opacity:1"
         d="M 84.738423,89.578143 C 78.439667,79.113873 76.854599,72.694431 65.84216,58.185339 C 54.829723,43.676248 34.328752,21.126597 18.6638,2.5236098 C 17.66606,1.3387387 15.35132,1.1298523 13.65322,2.4187113 C 11.89036,3.7567273 11.62476,6.1258896 12.40657,7.2728594 C 26.10441,27.368633 42.315274,53.174753 53.32771,67.683843 C 64.34015,82.192931 70.096702,85.446208 78.481199,94.327391 C 80.566941,92.744309 82.652682,91.161226 84.738423,89.578143 z "
         id="path6042"
         inkscape:r_cx="true"
         inkscape:r_cy="true"
         sodipodi:nodetypes="czszszcc" />
      <path
         sodipodi:nodetypes="czszszcc"
         inkscape:r_cy="true"
         inkscape:r_cx="true"
         id="path6045"
         d="M 84.738423,89.578143 C 78.439667,79.113873 76.854599,72.694431 65.84216,58.185339 C 54.829723,43.676248 34.328752,21.126597 18.6638,2.5236098 C 17.66606,1.3387387 15.35132,1.1298523 13.65322,2.4187113 C 11.89036,3.7567273 11.62476,6.1258896 12.40657,7.2728594 C 26.10441,27.368633 42.315274,53.174753 53.32771,67.683843 C 64.34015,82.192931 70.096702,85.446208 78.481199,94.327391 C 80.566941,92.744309 82.652682,91.161226 84.738423,89.578143 z "
         style="opacity:0.29302326;fill:url(#radialGradient6179);fill-opacity:1;fill-rule:evenodd;stroke:none;stroke-width:0.375;stroke-linecap:butt;stroke-linejoin:miter;stroke-miterlimit:4;stroke-dasharray:none;stroke-opacity:1" />
      <path
         inkscape:r_cy="true"
         inkscape:r_cx="true"
         style="opacity:0.86976743;fill:url(#linearGradient6181);fill-opacity:1;fill-rule:evenodd;stroke:none;stroke-width:0.375;stroke-linecap:butt;stroke-linejoin:miter;stroke-miterlimit:4;stroke-dasharray:none;stroke-opacity:1"
         d="M 17.22473,1.6250148 C 17.8004,1.780469 18.28758,2.1213031 18.63055,2.5286028 C 28.15813,13.843126 48.60104,37.094015 58.131948,49.283723 C 55.704526,48.730077 52.369045,47.836382 49.367864,45.276976 C 43.676518,40.423391 21.20592,9.74526 17.69137,5.8571043 C 15.48364,3.4146924 13.79841,5.5843376 12.01052,5.5702796 C 12.05239,4.4785673 12.53207,3.2336599 13.63385,2.3973999 C 14.74823,1.5515871 16.12571,1.3282408 17.22473,1.6250148 z "
         id="path6047"
         sodipodi:nodetypes="cscsscsc" />
      <path
         sodipodi:nodetypes="cccccccccc"
         id="path6049"
         d="M 26.70105,10.995482 C 27.76351,11.818858 28.95464,13.029204 29.42772,14.152604 L 22.41631,19.510264 L 19.92856,16.2147 L 26.70105,10.995482 z M 20.666,15.645863 L 23.15378,18.941426 L 20.69563,20.837559 C 19.76763,20.146427 18.99705,18.670912 18.45365,17.361944 L 20.666,15.645863 z "
         style="fill:url(#radialGradient6183);fill-opacity:1;fill-rule:nonzero;stroke:none;stroke-width:0.5;stroke-linecap:round;stroke-linejoin:round;stroke-miterlimit:4;stroke-dasharray:none;stroke-dashoffset:4;stroke-opacity:1" />
      <path
         style="opacity:0.29302326;fill:url(#linearGradient6185);fill-opacity:1;fill-rule:evenodd;stroke:none;stroke-width:0.375;stroke-linecap:butt;stroke-linejoin:miter;stroke-miterlimit:4;stroke-dasharray:none;stroke-opacity:1"
         d="M 84.738423,89.578143 C 78.439667,79.113873 76.854599,72.694431 65.84216,58.185339 C 54.829723,43.676248 34.328752,21.126597 18.6638,2.5236098 C 17.66606,1.3387387 15.35132,1.1298523 13.65322,2.4187113 C 11.89036,3.7567273 11.62476,6.1258896 12.40657,7.2728594 C 26.10441,27.368633 42.315274,53.174753 53.32771,67.683843 C 64.34015,82.192931 70.096702,85.446208 78.481199,94.327391 C 80.566941,92.744309 82.652682,91.161226 84.738423,89.578143 z "
         id="path6051"
         inkscape:r_cx="true"
         inkscape:r_cy="true"
         sodipodi:nodetypes="czszszcc" />
      <path
         style="font-size:12px;font-style:normal;font-variant:normal;font-weight:bold;font-stretch:normal;text-align:start;line-height:125%;writing-mode:lr-tb;text-anchor:start;fill:#999999;fill-opacity:1;stroke:none;stroke-width:1px;stroke-linecap:butt;stroke-linejoin:miter;stroke-opacity:1;font-family:Bitstream Vera Sans"
         d="M 35.876405,38.489271 C 35.984931,38.63403 36.041002,38.767812 36.044647,38.89061 C 36.048283,39.013436 35.999115,39.113892 35.897143,39.192008 C 35.79561,39.269795 35.686846,39.290315 35.570869,39.253578 C 35.454886,39.216816 35.342639,39.126075 35.234119,38.981323 C 35.124976,38.83574 35.068595,38.70155 35.064951,38.578732 C 35.061315,38.455913 35.11027,38.35563 35.211806,38.277836 C 35.313782,38.199713 35.422755,38.179033 35.538731,38.215783 C 35.654709,38.252527 35.767269,38.343689 35.876405,38.489271 M 36.057235,38.350736 C 35.835255,38.05465 35.616878,37.856805 35.402082,37.757207 C 35.187296,37.657616 35.00147,37.667905 34.844629,37.788056 C 34.688215,37.907888 34.628398,38.085777 34.66517,38.321753 C 34.701948,38.557723 34.831321,38.823755 35.053296,39.119847 C 35.274652,39.415107 35.493028,39.612952 35.708444,39.713373 C 35.923232,39.812965 36.108832,39.802847 36.265254,39.683022 C 36.422093,39.56287 36.482131,39.384804 36.445352,39.148834 C 36.40796,38.91204 36.278584,38.646009 36.057235,38.350736 M 33.884519,36.484218 L 32.911557,36.2235 L 33.282439,36.718229 L 33.935763,36.895554 L 33.92523,37.575648 L 34.297956,38.072828 L 34.312744,37.05543 L 35.247108,37.306859 L 34.875305,36.810911 L 34.261125,36.646315 L 34.271354,36.0053 L 33.897702,35.506882 L 33.884519,36.484218 M 33.858856,35.455066 L 33.469481,34.935677 L 32.810224,34.780363 L 32.84056,34.09675 L 32.45026,33.576128 L 32.41654,34.707101 L 32.00886,35.019403 L 32.36495,35.494393 L 32.772623,35.182072 L 33.858856,35.455066 M 30.16075,32.403125 C 30.21931,32.544728 30.28879,32.685065 30.36923,32.824127 C 30.4497,32.963203 30.54078,33.100592 30.64252,33.236297 C 30.87251,33.543082 31.09964,33.75169 31.32394,33.862144 C 31.54865,33.972263 31.73814,33.968229 31.89239,33.850066 C 32.04839,33.730563 32.10265,33.545263 32.05521,33.294158 C 32.00776,33.043046 31.86503,32.758759 31.62704,32.441283 C 31.53517,32.318739 31.44125,32.206161 31.34529,32.10358 C 31.24873,32.000162 31.15126,31.907817 31.05288,31.826488 L 30.85261,31.979927 C 30.96037,32.059227 31.06003,32.144078 31.15162,32.234479 C 31.24257,32.32405 31.32629,32.419849 31.40274,32.521828 C 31.54456,32.710998 31.62613,32.878333 31.64748,33.023839 C 31.66862,33.168199 31.62756,33.279942 31.52429,33.359046 C 31.42189,33.437501 31.30581,33.448718 31.17609,33.392728 C 31.04637,33.336727 30.91337,33.217852 30.7771,33.03608 C 30.74011,32.986741 30.70741,32.939933 30.67898,32.895662 C 30.65037,32.850256 30.62688,32.80803 30.60852,32.769016 L 30.79648,32.625017 L 31.01383,32.914949 L 31.18104,32.786846 L 30.6261,32.046624 L 30.16075,32.403125 M 30.74385,31.299944 L 29.78289,30.018126 L 29.59429,30.1626 L 30.19918,30.969442 L 30.01898,31.107483 L 29.45019,30.348749 L 29.26158,30.493235 L 29.83039,31.251964 L 29.60872,31.421776 L 28.9835,30.587796 L 28.7949,30.732278 L 29.77621,32.041248 L 30.74385,31.299944 M 29.44901,29.572749 L 29.05132,29.042253 L 27.88543,28.880784 L 28.5491,28.372348 L 28.21152,27.922052 L 27.24387,28.663355 L 27.64157,29.193852 L 28.80747,29.355313 L 28.14378,29.86375 L 28.48136,30.314052 L 29.44901,29.572749 M 27.2071,26.582241 L 26.8094,26.051757 L 25.64352,25.890278 L 26.30718,25.381853 L 25.9696,24.931542 L 25.00196,25.672847 L 25.39965,26.203343 L 26.56556,26.364806 L 25.90186,26.873249 L 26.23945,27.323544 L 27.2071,26.582241 M 25.28049,23.975589 C 25.14916,23.800405 25.0216,23.680595 24.8978,23.616169 C 24.77336,23.550932 24.67011,23.549753 24.58801,23.612648 C 24.50593,23.675539 24.47903,23.775771 24.50734,23.913346 C 24.53565,24.050924 24.61578,24.207715 24.74774,24.383722 C 24.87969,24.559735 25.00764,24.68053 25.13164,24.746097 C 25.255,24.810853 25.35774,24.811782 25.43983,24.748887 C 25.52193,24.685998 25.54904,24.585599 25.52116,24.447691 C 25.49267,24.30896 25.41243,24.151601 25.28049,23.975589 M 25.04777,24.954078 L 24.2866,23.938734 L 24.15697,24.038039 L 24.91814,25.05338 L 25.04777,24.954078 M 25.17032,24.059996 C 25.2221,24.129086 25.24857,24.19297 25.24971,24.251655 C 25.25024,24.309523 25.22544,24.357651 25.17532,24.39605 C 25.1252,24.434449 25.07287,24.445406 25.01833,24.428915 C 24.96318,24.411603 24.9097,24.368409 24.85792,24.29931 C 24.80673,24.231055 24.78067,24.168152 24.7797,24.110616 C 24.77813,24.052261 24.80241,24.003885 24.85253,23.965486 C 24.90266,23.927093 24.9555,23.916381 25.01109,23.933362 C 25.06605,23.94952 25.11913,23.991733 25.17032,24.059996 M 22.74535,21.567091 C 22.63538,21.455811 22.5354,21.384149 22.4454,21.352102 C 22.35522,21.318906 22.27792,21.326965 22.21354,21.376288 C 22.11762,21.449771 22.09701,21.575623 22.15171,21.753839 C 22.20684,21.931725 22.33491,22.154733 22.53591,22.422857 C 22.60683,22.517438 22.68215,22.609296 22.76189,22.698407 C 22.84056,22.787035 22.92274,22.871698 23.00839,22.952389 L 23.2009,22.804916 C 23.11097,22.733969 23.02728,22.659533 22.94982,22.58162 C 22.87219,22.50255 22.80161,22.420661 22.7381,22.335948 C 22.64375,22.210112 22.58307,22.10511 22.55602,22.020944 C 22.52836,21.935957 22.53592,21.877086 22.57871,21.844308 C 22.62277,21.810549 22.68194,21.819603 22.7562,21.871479 C 22.83028,21.922202 22.91756,22.014593 23.01807,22.148651 L 23.1605,22.338645 L 23.32123,22.215509 L 23.1714,22.015654 C 23.082,21.896391 23.02512,21.800119 23.0008,21.726824 C 22.97689,21.653205 22.98504,21.601 23.02521,21.570221 C 23.06238,21.541752 23.11239,21.548114 23.17524,21.589307 C 23.23808,21.6305 23.30836,21.702914 23.38604,21.806541 C 23.4434,21.88303 23.49681,21.96382 23.54631,22.048904 C 23.59582,22.133992 23.6407,22.221976 23.68094,22.312855 L 23.8637,22.172841 C 23.80724,22.068492 23.74793,21.967605 23.68578,21.870192 C 23.62365,21.772776 23.55927,21.679665 23.49269,21.590828 C 23.31326,21.351502 23.15842,21.188494 23.02814,21.101835 C 22.89768,21.014027 22.79098,21.001893 22.70803,21.065444 C 22.65142,21.108816 22.62626,21.172778 22.6325,21.257328 C 22.63919,21.341549 22.6768,21.444804 22.74535,21.567091"
         id="path6053" />
      <g
         id="g6055"
         transform="matrix(-0.999909,-1.351877e-2,-1.351877e-2,0.999909,133.0198,0.237052)">
        <path
           sodipodi:nodetypes="cccccccccc"
           id="path6057"
           d="M 38.34944,98.879422 C 39.100451,97.429319 40.245026,95.686957 41.376668,94.733981 L 47.788963,99.921606 L 44.589716,103.87235 L 38.34944,98.879422 z M 43.909663,103.3289 L 47.108913,99.37812 L 49.375744,101.18964 C 48.749318,102.44484 47.279318,103.85323 45.959893,104.95541 L 43.909663,103.3289 z "
           style="fill:url(#radialGradient6187);fill-opacity:1;fill-rule:nonzero;stroke:none;stroke-width:0.5;stroke-linecap:round;stroke-linejoin:round;stroke-miterlimit:4;stroke-dasharray:none;stroke-dashoffset:4;stroke-opacity:1" />
        <path
           style="fill:url(#radialGradient6189);fill-opacity:1;fill-rule:nonzero;stroke:none;stroke-width:0.5;stroke-linecap:round;stroke-linejoin:round;stroke-miterlimit:4;stroke-dasharray:none;stroke-dashoffset:4;stroke-opacity:1"
           d="M 41.361775,94.94897 C 42.108412,93.495334 43.250303,91.750805 44.385839,90.800967 L 50.910159,96.079198 L 47.710595,100.0297 L 41.361775,94.94897 z M 47.018729,99.47668 L 50.218285,95.52615 L 52.524529,97.369552 C 51.902136,98.628011 50.428538,100.03348 49.104494,101.13193 L 47.018729,99.47668 z "
           id="path6059"
           sodipodi:nodetypes="cccccccccc" />
        <path
           sodipodi:nodetypes="cccccccccc"
           id="path6061"
           d="M 44.345464,90.914825 C 45.083365,89.454122 46.21989,87.705248 47.363201,86.761702 L 54.111573,92.221146 L 50.911382,96.17114 L 44.345464,90.914825 z M 50.195867,95.599 L 53.39605,91.64897 L 55.781114,93.556131 C 55.16679,94.821109 53.685987,96.220756 52.352723,97.311753 L 50.195867,95.599 z "
           style="fill:url(#radialGradient6191);fill-opacity:1;fill-rule:nonzero;stroke:none;stroke-width:0.5;stroke-linecap:round;stroke-linejoin:round;stroke-miterlimit:4;stroke-dasharray:none;stroke-dashoffset:4;stroke-opacity:1" />
        <path
           style="fill:url(#radialGradient6193);fill-opacity:1;fill-rule:nonzero;stroke:none;stroke-width:0.5;stroke-linecap:round;stroke-linejoin:round;stroke-miterlimit:4;stroke-dasharray:none;stroke-dashoffset:4;stroke-opacity:1"
           d="M 47.385861,86.950051 C 48.119393,85.485811 49.253231,83.734769 50.40043,82.79437 L 57.260835,88.344412 L 54.060325,92.294161 L 47.385861,86.950051 z M 53.332987,91.712457 L 56.533485,87.76268 L 58.957961,89.701712 C 58.347673,90.969952 56.86326,92.36669 55.525384,93.453958 L 53.332987,91.712457 z "
           id="path6063"
           sodipodi:nodetypes="cccccccccc" />
        <path
           id="path6065"
           d="M 50.41561,82.77934 C 49.304261,83.690353 48.193593,85.381544 47.459111,86.816351 L 47.365545,86.753377 C 46.257962,87.667439 45.147654,89.358916 44.409048,90.790387 L 44.375093,90.793236 C 43.285688,91.704485 42.203179,93.376095 41.4567,94.791638 L 41.363132,94.728665 C 40.23149,95.681642 39.111243,97.425699 38.360234,98.875802 L 44.605879,103.87596 L 45.958839,104.96644 C 47.27827,103.86425 48.765041,102.42798 49.391466,101.17278 L 49.238285,101.04399 C 50.529062,99.961701 51.919709,98.588124 52.522652,97.368991 L 52.399279,97.273109 C 53.721588,96.187161 55.181733,94.805616 55.789658,93.553809 L 55.606671,93.392105 C 56.922218,92.315049 58.361371,90.953235 58.958947,89.711416 L 57.269822,88.330443 L 50.41561,82.77934 z "
           style="fill:url(#linearGradient6195);fill-opacity:1;fill-rule:nonzero;stroke:none;stroke-width:0.5;stroke-linecap:round;stroke-linejoin:round;stroke-miterlimit:4;stroke-dasharray:none;stroke-dashoffset:4;stroke-opacity:1" />
      </g>
    </g>
    <path
       id="path6067"
       d="M 8.7858237,1.2103687 C 8.7924142,1.59034 8.8702066,2.1371513 9.0045737,2.8041187 C 8.8848608,2.1433781 8.8082399,1.5906992 8.7858237,1.2103687 z M 9.0670737,3.1478687 C 9.9787287,7.9089519 12.945946,17.819525 15.723324,18.554119 L 16.535824,18.960369 C 13.568122,17.420264 10.069312,7.7943632 9.0670737,3.1478687 z M 7.1295737,4.5541187 C 7.1018212,9.2160507 8.8634808,21.089389 13.035824,23.585369 L 13.723324,23.241619 C 10.016696,19.928216 7.3398884,9.1248567 7.1295737,4.5541187 z M 5.7545737,10.304119 C 5.4252793,13.699027 6.5328307,22.322671 10.942074,24.960369 L 11.629574,24.616619 C 7.675836,21.082323 5.5417873,13.651738 5.7545737,10.304119 z "
       style="fill:#d1c08c;fill-opacity:1;fill-rule:evenodd;stroke:none;stroke-width:1px;stroke-linecap:butt;stroke-linejoin:miter;stroke-opacity:1" />
  </g>
  <path
     transform="matrix(0.512388,0,0,0.6264247,-65.294738,-214.71776)"
     d="M 328.38035 539.42126 A 48.594402 5.3993778 0 1 1  231.19155,539.42126 A 48.594402 5.3993778 0 1 1  328.38035 539.42126 z"
     sodipodi:ry="5.3993778"
     sodipodi:rx="48.594402"
     sodipodi:cy="539.42126"
     sodipodi:cx="279.78595"
     id="path3143"
     style="opacity:0.41947566;fill:url(#radialGradient4836);fill-opacity:1;stroke:none;stroke-width:3.4000001;stroke-linecap:round;stroke-linejoin:round;stroke-miterlimit:4;stroke-dasharray:none;stroke-dashoffset:1.08779998;stroke-opacity:1;filter:url(#filter4878)"
     sodipodi:type="arc" />
  <path
     sodipodi:type="arc"
     style="opacity:0.39464434;fill:url(#linearGradient4834);fill-opacity:1;stroke:none;stroke-width:3.4000001;stroke-linecap:round;stroke-linejoin:round;stroke-miterlimit:4;stroke-dasharray:none;stroke-dashoffset:1.08779998;stroke-opacity:1"
     id="path2169"
     sodipodi:cx="279.78595"
     sodipodi:cy="539.42126"
     sodipodi:rx="48.594402"
     sodipodi:ry="5.3993778"
     d="M 328.38035 539.42126 A 48.594402 5.3993778 0 1 1  231.19155,539.42126 A 48.594402 5.3993778 0 1 1  328.38035 539.42126 z"
     transform="matrix(0.4356005,0,0,0.4071761,-43.610031,-95.976028)" />
  <path
     style="fill:url(#linearGradient4830);fill-opacity:1;fill-rule:evenodd;stroke:none;stroke-width:1px;stroke-linecap:butt;stroke-linejoin:miter;stroke-opacity:1"
     d="M 77.385465,48.613751 C 56.417607,48.632957 42.646066,49.585076 41.932128,50.79962 C 41.178507,52.081666 46.897124,98.436078 54.774322,120.24396 C 55.605847,122.54604 58.022631,124.67104 77.385465,124.73645 L 77.385465,124.74669 C 77.541824,124.74669 77.675269,124.74695 77.829508,124.74669 C 77.983747,124.74695 78.117192,124.74669 78.273551,124.74669 L 78.273551,124.73645 C 97.636381,124.67104 100.05316,122.54604 100.88469,120.24396 C 108.76189,98.436078 114.48052,52.081666 113.72689,50.79962 C 113.01295,49.585076 99.241401,48.633091 78.273551,48.613751 C 78.119121,48.61361 77.968446,48.613613 77.817254,48.613649 C 77.674962,48.613685 77.532221,48.613616 77.385465,48.613751 z "
     id="path3211"
     sodipodi:nodetypes="cssccsccsssss" />
  <path
     style="fill:#292e3b;fill-opacity:1;fill-rule:evenodd;stroke:none;stroke-width:1px;stroke-linecap:butt;stroke-linejoin:miter;stroke-opacity:1;filter:url(#filter3304)"
     d="M 898,422.375 C 896.2109,423.66693 885.88552,424.8569 882.96875,425.96875 C 880.51516,437.56384 877.97135,448.36339 875.28125,457.625 C 873.23932,464.65489 867.29674,471.144 819.75,471.34375 L 819.75,471.375 C 819.36609,471.375 819.03491,471.3758 818.65625,471.375 C 818.27741,471.37579 817.94653,471.37501 817.5625,471.375 L 817.5625,471.34375 C 770.01586,471.14399 764.07309,464.6549 762.03125,457.625 C 759.34311,448.37027 756.79698,437.58506 754.34375,426 C 751.41942,424.89074 741.10647,419.696 739.3125,418.40625 C 742.3621,432.15923 745.6014,453.88125 749,464.625 C 751.2237,471.6549 765.68705,481.14399 817.46875,481.34375 L 817.46875,481.375 C 817.88696,481.37501 818.24365,481.37579 818.65625,481.375 C 819.06864,481.3758 819.42565,481.375 819.84375,481.375 L 819.84375,481.34375 C 871.62556,481.144 887.0887,466.65489 889.3125,459.625 C 892.7136,448.87327 894.9484,436.13977 898,422.375 z "
     id="path3237"
     sodipodi:nodetypes="ccsccsccsccsccsccsc"
     clip-path="url(#clipPath3308)"
     transform="matrix(0.3775693,0,0,0.3274711,-231.27,-30.265745)" />
  <path
     style="fill:#292e3b;fill-opacity:1;stroke:none;stroke-width:3.4000001;stroke-linecap:round;stroke-linejoin:round;stroke-miterlimit:4;stroke-dashoffset:1.08779998;stroke-opacity:1;filter:url(#filter4442)"
     d="M 759.02904,699.99953 C 756.11804,711.66001 735.94944,720.03886 685.38124,720.92311 C 634.80136,721.80756 614.60326,711.93805 611.70456,700.02117 C 611.46466,700.80793 611.32936,701.61581 611.32936,702.42294 C 611.32936,715.68878 630.41816,733.85118 685.38124,732.89008 C 740.35564,731.92879 759.43324,715.68879 759.43324,702.42294 C 759.43324,701.60753 759.27384,700.79413 759.02904,699.99953 z "
     id="path3325"
     clip-path="url(#clipPath3659)"
     transform="matrix(0.3669205,0,0,0.2547326,-173.1318,-73.259284)"
     sodipodi:nodetypes="cscsssc" />
  <path
     sodipodi:type="arc"
     style="opacity:0.40074906;fill:#292e3b;fill-opacity:1;stroke:none;stroke-width:3.4000001;stroke-linecap:round;stroke-linejoin:round;stroke-miterlimit:4;stroke-dasharray:none;stroke-dashoffset:1.08779998;stroke-opacity:1;filter:url(#filter4438)"
     id="path3745"
     sodipodi:cx="684.73926"
     sodipodi:cy="713.67395"
     sodipodi:rx="62.338272"
     sodipodi:ry="5.8902302"
     d="M 747.07753 713.67395 A 62.338272 5.8902302 0 1 1  622.40099,713.67395 A 62.338272 5.8902302 0 1 1  747.07753 713.67395 z"
     transform="matrix(0.3669205,0,0,0.3274711,-172.89622,-124.83116)" />
  <path
     style="opacity:0.92134836;fill:url(#linearGradient4624);fill-opacity:1;stroke:none;stroke-width:3.4000001;stroke-linecap:round;stroke-linejoin:round;stroke-miterlimit:4;stroke-dasharray:none;stroke-dashoffset:1.08779998;stroke-opacity:1;filter:url(#filter4434)"
     d="M 357.95281,710.72154 C 323.00004,710.72154 294.61882,713.99973 294.61884,718.03036 C 294.61884,718.73468 301.51273,719.42609 303.12887,720.07063 C 304.96894,716.23771 325.51047,713.20086 357.95281,713.20086 C 390.3651,713.20084 412.86733,716.24273 414.7514,720.07063 C 416.37625,719.4245 421.26143,718.73664 421.26143,718.03036 C 421.26143,713.99973 392.90558,710.72152 357.95281,710.72154 z "
     id="path3811"
     sodipodi:nodetypes="cscscsc"
     transform="matrix(0.3669205,0,0,0.3274711,-52.986925,-124.83116)" />
  <path
     sodipodi:nodetypes="cccscccsccsccsc"
     id="path3894"
     d="M 104.76672,106.40831 C 101.68832,108.33631 94.822038,109.74182 78.395883,109.80582 L 78.395883,109.82628 C 78.196147,109.82628 78.026506,109.82667 77.829527,109.82628 C 77.632513,109.82667 77.462872,109.82629 77.263175,109.82628 L 77.263175,109.80582 C 60.861033,109.74192 53.977303,108.34218 50.892297,106.41854 C 52.043732,110.92224 53.266793,116.72569 54.549997,120.24396 C 55.389599,122.54605 57.829944,124.67104 77.381127,124.73645 L 77.381127,124.74669 C 77.539027,124.74669 77.673743,124.74695 77.829527,124.74669 C 77.985239,124.74695 78.119993,124.74669 78.277855,124.74669 L 78.277855,124.73645 C 97.829075,124.67104 100.26938,122.54604 101.10902,120.24396 C 102.39317,116.72308 103.61453,110.91587 104.76672,106.40831 z "
     style="fill:url(#radialGradient4823);fill-opacity:1;fill-rule:evenodd;stroke:none;stroke-width:1px;stroke-linecap:butt;stroke-linejoin:miter;stroke-opacity:1" />
  <g
     id="g4247"
     clip-path="url(#clipPath4252)"
     transform="matrix(0.373931,0,0,0.3274711,-441.79241,-262.987)">
    <path
       sodipodi:nodetypes="csscccsccsssssc"
       id="path3927"
       d="M 1385.5858,951.9858 C 1440.6209,952.10603 1476.6976,955.0053 1478.5858,958.6733 C 1480.6012,962.58829 1465.308,1104.141 1444.2421,1170.7359 C 1442.0457,1177.6791 1435.6315,1184.0738 1385.5858,1184.4233 C 1386.2107,1184.4277 1386.7598,1184.4521 1387.3984,1184.4546 L 1387.3984,1184.4859 C 1387.8166,1184.4858 1388.1733,1184.4867 1388.5858,1184.4859 C 1388.9984,1184.4866 1389.3552,1184.4859 1389.7734,1184.4859 L 1389.7734,1184.4546 C 1441.5552,1184.2549 1452.0183,1177.7657 1454.2421,1170.7359 C 1475.308,1104.141 1490.6012,962.58829 1488.5858,958.6733 C 1486.6766,954.96443 1445.8475,952.04486 1389.7734,951.9858 C 1389.3604,951.98535 1388.9589,951.98569 1388.5546,951.9858 C 1388.1739,951.98589 1387.7908,951.98539 1387.3984,951.9858 C 1386.7805,951.98645 1386.199,951.98447 1385.5858,951.9858 z "
       style="opacity:0.23220975;fill:url(#linearGradient4628);fill-opacity:1;fill-rule:evenodd;stroke:none;stroke-width:1px;stroke-linecap:butt;stroke-linejoin:miter;stroke-opacity:1;filter:url(#filter4231)" />
    <path
       style="opacity:0.12734082;fill:url(#linearGradient4630);fill-opacity:1;fill-rule:evenodd;stroke:none;stroke-width:1px;stroke-linecap:butt;stroke-linejoin:miter;stroke-opacity:1;filter:url(#filter4231)"
       d="M 1385.5858,951.9858 C 1440.6209,952.10603 1470.6976,955.0053 1472.5858,958.6733 C 1474.6012,962.58829 1459.308,1104.141 1438.2421,1170.7359 C 1436.0457,1177.6791 1435.6315,1184.0738 1385.5858,1184.4233 C 1386.2107,1184.4277 1386.7598,1184.4521 1387.3984,1184.4546 L 1387.3984,1184.4859 C 1387.8166,1184.4858 1388.1733,1184.4867 1388.5858,1184.4859 C 1388.9984,1184.4866 1389.3552,1184.4859 1389.7734,1184.4859 L 1389.7734,1184.4546 C 1441.5552,1184.2549 1452.0183,1177.7657 1454.2421,1170.7359 C 1475.308,1104.141 1490.6012,962.58829 1488.5858,958.6733 C 1486.6766,954.96443 1445.8475,952.04486 1389.7734,951.9858 C 1389.3604,951.98535 1388.9589,951.98569 1388.5546,951.9858 C 1388.1739,951.98589 1387.7908,951.98539 1387.3984,951.9858 C 1386.7805,951.98645 1386.199,951.98447 1385.5858,951.9858 z "
       id="path4245"
       sodipodi:nodetypes="csscccsccsssssc" />
    <path
       sodipodi:nodetypes="cssccsccssc"
       id="path3911"
       d="M 1397.4017,951.69188 C 1447.6585,952.07351 1480.143,954.83981 1481.9329,958.31688 C 1483.9483,962.23187 1468.6551,1103.7845 1447.5892,1170.3794 C 1445.3749,1177.3794 1438.9242,1183.8461 1387.7455,1184.0981 L 1387.7455,1184.1294 C 1388.1637,1184.1294 1388.5204,1184.1302 1388.9329,1184.1294 C 1389.3455,1184.1301 1389.7023,1184.1294 1390.1205,1184.1294 L 1390.1205,1184.0981 C 1441.9023,1183.8983 1452.3654,1177.4093 1454.5892,1170.3794 C 1475.6551,1103.7845 1490.9483,962.23187 1488.9329,958.31688 C 1487.1082,954.77217 1449.3362,951.98546 1397.4017,951.69188 z "
       style="opacity:0.81273409;fill:url(#linearGradient4632);fill-opacity:1;fill-rule:evenodd;stroke:none;stroke-width:1px;stroke-linecap:butt;stroke-linejoin:miter;stroke-opacity:1;filter:url(#filter4227)" />
  </g>
  <g
     clip-path="url(#clipPath4252)"
     id="g4258"
     transform="matrix(-0.373931,0,0,0.3274711,597.2711,-263.04216)">
    <path
       style="opacity:0.23220975;fill:url(#linearGradient4634);fill-opacity:1;fill-rule:evenodd;stroke:none;stroke-width:1px;stroke-linecap:butt;stroke-linejoin:miter;stroke-opacity:1;filter:url(#filter4231)"
       d="M 1385.5858,951.9858 C 1440.6209,952.10603 1476.6976,955.0053 1478.5858,958.6733 C 1480.6012,962.58829 1465.308,1104.141 1444.2421,1170.7359 C 1442.0457,1177.6791 1435.6315,1184.0738 1385.5858,1184.4233 C 1386.2107,1184.4277 1386.7598,1184.4521 1387.3984,1184.4546 L 1387.3984,1184.4859 C 1387.8166,1184.4858 1388.1733,1184.4867 1388.5858,1184.4859 C 1388.9984,1184.4866 1389.3552,1184.4859 1389.7734,1184.4859 L 1389.7734,1184.4546 C 1441.5552,1184.2549 1452.0183,1177.7657 1454.2421,1170.7359 C 1475.308,1104.141 1490.6012,962.58829 1488.5858,958.6733 C 1486.6766,954.96443 1445.8475,952.04486 1389.7734,951.9858 C 1389.3604,951.98535 1388.9589,951.98569 1388.5546,951.9858 C 1388.1739,951.98589 1387.7908,951.98539 1387.3984,951.9858 C 1386.7805,951.98645 1386.199,951.98447 1385.5858,951.9858 z "
       id="path4260"
       sodipodi:nodetypes="csscccsccsssssc" />
    <path
       sodipodi:nodetypes="csscccsccsssssc"
       id="path4262"
       d="M 1385.5858,951.9858 C 1440.6209,952.10603 1470.6976,955.0053 1472.5858,958.6733 C 1474.6012,962.58829 1459.308,1104.141 1438.2421,1170.7359 C 1436.0457,1177.6791 1435.6315,1184.0738 1385.5858,1184.4233 C 1386.2107,1184.4277 1386.7598,1184.4521 1387.3984,1184.4546 L 1387.3984,1184.4859 C 1387.8166,1184.4858 1388.1733,1184.4867 1388.5858,1184.4859 C 1388.9984,1184.4866 1389.3552,1184.4859 1389.7734,1184.4859 L 1389.7734,1184.4546 C 1441.5552,1184.2549 1452.0183,1177.7657 1454.2421,1170.7359 C 1475.308,1104.141 1490.6012,962.58829 1488.5858,958.6733 C 1486.6766,954.96443 1445.8475,952.04486 1389.7734,951.9858 C 1389.3604,951.98535 1388.9589,951.98569 1388.5546,951.9858 C 1388.1739,951.98589 1387.7908,951.98539 1387.3984,951.9858 C 1386.7805,951.98645 1386.199,951.98447 1385.5858,951.9858 z "
       style="opacity:0.12734082;fill:url(#linearGradient4636);fill-opacity:1;fill-rule:evenodd;stroke:none;stroke-width:1px;stroke-linecap:butt;stroke-linejoin:miter;stroke-opacity:1;filter:url(#filter4231)" />
    <path
       style="opacity:0.81273409;fill:url(#linearGradient4638);fill-opacity:1;fill-rule:evenodd;stroke:none;stroke-width:1px;stroke-linecap:butt;stroke-linejoin:miter;stroke-opacity:1;filter:url(#filter4227)"
       d="M 1397.4017,951.69188 C 1447.6585,952.07351 1480.143,954.83981 1481.9329,958.31688 C 1483.9483,962.23187 1468.6551,1103.7845 1447.5892,1170.3794 C 1445.3749,1177.3794 1438.9242,1183.8461 1387.7455,1184.0981 L 1387.7455,1184.1294 C 1388.1637,1184.1294 1388.5204,1184.1302 1388.9329,1184.1294 C 1389.3455,1184.1301 1389.7023,1184.1294 1390.1205,1184.1294 L 1390.1205,1184.0981 C 1441.9023,1183.8983 1452.3654,1177.4093 1454.5892,1170.3794 C 1475.6551,1103.7845 1490.9483,962.23187 1488.9329,958.31688 C 1487.1082,954.77217 1449.3362,951.98546 1397.4017,951.69188 z "
       id="path4264"
       sodipodi:nodetypes="cssccsccssc" />
  </g>
  <path
     style="opacity:0.81273409;fill:url(#radialGradient4640);fill-opacity:1;stroke:none;stroke-width:3.4000001;stroke-linecap:round;stroke-linejoin:round;stroke-miterlimit:4;stroke-dasharray:none;stroke-dashoffset:1.08779998;stroke-opacity:1;filter:url(#filter4511)"
     d="M 355.68578,721.31067 C 340.1268,721.31067 327.3482,723.61023 325.93244,726.53929 C 330.89358,724.31604 342.3436,725.75435 355.68578,725.75435 C 369.02796,725.75435 380.492,724.31604 385.45315,726.53929 C 384.03739,723.61023 371.24476,721.31067 355.68578,721.31067 z "
     id="path4446"
     sodipodi:nodetypes="ccscc"
     transform="matrix(0.3669205,0,0,0.3274711,-52.986925,-124.83116)" />
  <path
     id="path4551"
     d="M 263.02526,536.90992 C 262.36081,537.35708 262.00443,537.86017 262.00443,538.32532 C 262.00443,548.22217 305.11159,550.7613 358.21784,550.76129 C 411.32409,550.76129 451.977,549.91272 454.43125,538.32532 C 454.52763,537.87027 454.07487,537.35708 453.41042,536.90992 C 446.68459,541.47313 406.61738,545.01628 358.21784,545.01628 C 309.8183,545.01629 269.75111,541.47314 263.02526,536.90992 z "
     style="opacity:0.81273409;fill:url(#linearGradient4642);fill-opacity:1;stroke:none;stroke-width:3.4000001;stroke-linecap:round;stroke-linejoin:round;stroke-miterlimit:4;stroke-dasharray:none;stroke-dashoffset:1.08779998;stroke-opacity:1;filter:url(#filter4571)"
     sodipodi:nodetypes="cssscsc"
     transform="matrix(0.373931,0,0,0.3274711,-56.015419,-124.83116)" />
  <path
     style="opacity:0.81273409;fill:url(#linearGradient4810);fill-opacity:1;stroke:none;stroke-width:3.4000001;stroke-linecap:round;stroke-linejoin:round;stroke-miterlimit:4;stroke-dasharray:none;stroke-dashoffset:1.08779998;stroke-opacity:1"
     d="M 42.337891,50.991318 C 42.089433,51.13775 41.956171,51.302498 41.956171,51.454821 C 41.956171,53.159743 58.075277,54.544832 77.933353,54.544829 C 97.791428,54.544829 113.91054,53.15974 113.91054,51.454821 C 113.91054,51.302498 113.77728,51.13775 113.52882,50.991318 C 111.01382,52.485638 96.031443,53.645917 77.933353,53.645917 C 59.835262,53.64592 44.852895,52.485641 42.337891,50.991318 z "
     id="path4530" />
  <path
     style="opacity:0.41573032;fill:url(#linearGradient4807);fill-opacity:1;fill-rule:evenodd;stroke:none;stroke-width:1px;stroke-linecap:butt;stroke-linejoin:miter;stroke-opacity:1"
     d="M 77.384482,48.61694 C 56.416627,48.636146 42.645083,49.582125 41.931144,50.79667 C 41.871614,50.89794 41.853602,51.313376 41.872717,51.942819 C 41.880447,51.700604 41.896537,51.510485 41.931144,51.451612 C 42.645083,50.237067 56.416627,49.291088 77.384482,49.271882 C 77.531238,49.271748 77.674551,49.271922 77.816839,49.271882 C 77.968031,49.271846 78.118141,49.271742 78.272567,49.271882 C 99.240418,49.291223 113.01197,50.237071 113.72591,51.451612 C 113.75523,51.501482 113.77435,51.648068 113.78434,51.830251 C 113.79795,51.266964 113.78185,50.891826 113.72591,50.79667 C 113.01197,49.582128 99.240418,48.636281 78.272567,48.61694 C 78.118141,48.616799 77.968031,48.616904 77.816839,48.61694 C 77.674551,48.616979 77.531238,48.616806 77.384482,48.61694 z "
     id="path4575" />
  <g
     transform="translate(14.539914,2.0229603)"
     id="g6069"
     clip-path="url(#clipPath6141)">
    <g
       transform="matrix(0.1725275,-0.7977337,-0.7977337,-0.1725275,86.733834,119.81396)"
       style="display:inline"
       inkscape:label="top"
       id="g6071">
      <path
         sodipodi:nodetypes="cscscc"
         inkscape:r_cy="true"
         inkscape:r_cx="true"
         id="path6073"
         d="M 86.005625,102.10101 C 88.126931,107.69887 87.928494,113.60333 92.369535,118.8946 C 98.641219,126.36696 116.10438,129.34212 124.14775,122.94006 C 114.29342,121.50872 109.67782,114.05725 102.758,107.64848 C 98.283706,103.50465 93.353383,101.00179 91.166041,98.127921 C 89.445901,99.452297 87.725764,100.77666 86.005625,102.10101 z "
         style="fill:url(#linearGradient6145);fill-opacity:1;fill-rule:evenodd;stroke:#000000;stroke-width:0;stroke-linecap:round;stroke-linejoin:round;stroke-miterlimit:4;stroke-dasharray:none;stroke-opacity:1" />
      <path
         style="fill:url(#radialGradient6147);fill-opacity:1;fill-rule:evenodd;stroke:#000000;stroke-width:0;stroke-linecap:round;stroke-linejoin:round;stroke-miterlimit:4;stroke-dasharray:none;stroke-opacity:1"
         d="M 87.555906,102.23 C 88.858738,106.37221 91.149714,113.68309 93.974044,117.55299 C 97.962602,123.01812 112.41663,126.41637 118.13364,123.04271 C 110.89817,121.51551 106.05988,113.88933 101.77082,109.0644 C 100.25469,107.35884 92.279555,101.59225 90.892519,99.486182 C 89.747771,100.5076 88.700654,101.20857 87.555906,102.23 z "
         id="path6075"
         inkscape:r_cx="true"
         inkscape:r_cy="true"
         sodipodi:nodetypes="cscscc" />
      <path
         style="fill:url(#linearGradient6149);fill-opacity:1;fill-rule:evenodd;stroke:#000000;stroke-width:0;stroke-linecap:round;stroke-linejoin:round;stroke-miterlimit:4;stroke-dasharray:none;stroke-opacity:1"
         d="M 86.005625,102.10101 C 88.126931,107.69887 87.928494,113.60333 92.369535,118.8946 C 98.641219,126.36696 107.94847,113.99481 101.25673,107.34824 C 96.782448,102.90415 93.353383,101.00179 91.166041,98.127921 C 89.445901,99.452297 87.725764,100.77666 86.005625,102.10101 z "
         id="path6077"
         inkscape:r_cx="true"
         inkscape:r_cy="true"
         sodipodi:nodetypes="csscc" />
      <path
         d="M 18.74807,42.131486 C 24.39623,43.614497 27.7714,49.392769 26.2884,55.040929 C 24.80231,60.687341 19.02229,64.065581 13.37523,62.577099 C 7.7286,61.094962 4.35167,55.319754 5.83621,49.672469 C 7.31637,44.018617 13.09858,40.643659 18.74807,42.131486 z "
         id="path6081"
         style="opacity:0.7;fill:none" />
      <circle
         transform="matrix(1.532253,0.874618,0.874618,-1.532253,-85.8623,106.3727)"
         cx="34.993"
         cy="70.773003"
         r="5.9920001"
         id="circle6083"
         sodipodi:cx="34.993"
         sodipodi:cy="70.773003"
         sodipodi:rx="5.9920001"
         sodipodi:ry="5.9920001"
         style="opacity:0.7;fill:none" />
      <path
         d="M 63.538933,11.921755 C 65.076268,17.552958 61.755343,23.370927 56.124797,24.910669 C 50.494467,26.446471 44.675628,23.127079 43.135885,17.496533 C 41.597019,11.864454 44.921009,6.0482343 50.550022,4.5076184 C 56.181227,2.9702834 61.999192,6.2912068 63.538933,11.921755 z "
         id="path6085"
         style="opacity:0.7;fill:none" />
      <circle
         transform="matrix(1.532253,0.874618,0.874618,-1.532253,-85.8623,106.3727)"
         cx="56.228001"
         cy="92.005997"
         r="5.9920001"
         id="circle6087"
         sodipodi:cx="56.228001"
         sodipodi:cy="92.005997"
         sodipodi:rx="5.9920001"
         sodipodi:ry="5.9920001"
         style="opacity:0.7;fill:none" />
      <path
         sodipodi:nodetypes="czszszcc"
         inkscape:r_cy="true"
         inkscape:r_cx="true"
         id="path6089"
         d="M 84.738423,89.578143 C 78.439667,79.113873 76.854599,72.694431 65.84216,58.185339 C 54.829723,43.676248 34.328752,21.126597 18.6638,2.5236098 C 17.66606,1.3387387 15.35132,1.1298523 13.65322,2.4187113 C 11.89036,3.7567273 11.62476,6.1258896 12.40657,7.2728594 C 26.10441,27.368633 42.315274,53.174753 53.32771,67.683843 C 64.34015,82.192931 70.096702,85.446208 78.481199,94.327391 C 80.566941,92.744309 82.652682,91.161226 84.738423,89.578143 z "
         style="fill:url(#radialGradient6151);fill-opacity:1;fill-rule:evenodd;stroke:#453500;stroke-width:1.23200393;stroke-linecap:butt;stroke-linejoin:miter;stroke-miterlimit:4;stroke-dasharray:none;stroke-opacity:1" />
      <path
         style="opacity:0.29302326;fill:url(#radialGradient6153);fill-opacity:1;fill-rule:evenodd;stroke:none;stroke-width:0.375;stroke-linecap:butt;stroke-linejoin:miter;stroke-miterlimit:4;stroke-dasharray:none;stroke-opacity:1"
         d="M 84.738423,89.578143 C 78.439667,79.113873 76.854599,72.694431 65.84216,58.185339 C 54.829723,43.676248 34.328752,21.126597 18.6638,2.5236098 C 17.66606,1.3387387 15.35132,1.1298523 13.65322,2.4187113 C 11.89036,3.7567273 11.62476,6.1258896 12.40657,7.2728594 C 26.10441,27.368633 42.315274,53.174753 53.32771,67.683843 C 64.34015,82.192931 70.096702,85.446208 78.481199,94.327391 C 80.566941,92.744309 82.652682,91.161226 84.738423,89.578143 z "
         id="path6091"
         inkscape:r_cx="true"
         inkscape:r_cy="true"
         sodipodi:nodetypes="czszszcc" />
      <path
         sodipodi:nodetypes="cscsscsc"
         id="path6093"
         d="M 17.22473,1.6250148 C 17.8004,1.780469 18.28758,2.1213031 18.63055,2.5286028 C 28.15813,13.843126 48.60104,37.094015 58.131948,49.283723 C 55.704526,48.730077 52.369045,47.836382 49.367864,45.276976 C 43.676518,40.423391 21.20592,9.74526 17.69137,5.8571043 C 15.48364,3.4146924 13.79841,5.5843376 12.01052,5.5702796 C 12.05239,4.4785673 12.53207,3.2336599 13.63385,2.3973999 C 14.74823,1.5515871 16.12571,1.3282408 17.22473,1.6250148 z "
         style="opacity:0.86976743;fill:url(#linearGradient6155);fill-opacity:1;fill-rule:evenodd;stroke:none;stroke-width:0.375;stroke-linecap:butt;stroke-linejoin:miter;stroke-miterlimit:4;stroke-dasharray:none;stroke-opacity:1"
         inkscape:r_cx="true"
         inkscape:r_cy="true" />
      <path
         style="fill:url(#radialGradient6157);fill-opacity:1;fill-rule:nonzero;stroke:none;stroke-width:0.5;stroke-linecap:round;stroke-linejoin:round;stroke-miterlimit:4;stroke-dasharray:none;stroke-dashoffset:4;stroke-opacity:1"
         d="M 26.70105,10.995482 C 27.76351,11.818858 28.95464,13.029204 29.42772,14.152604 L 22.41631,19.510264 L 19.92856,16.2147 L 26.70105,10.995482 z M 20.666,15.645863 L 23.15378,18.941426 L 20.69563,20.837559 C 19.76763,20.146427 18.99705,18.670912 18.45365,17.361944 L 20.666,15.645863 z "
         id="path6095"
         sodipodi:nodetypes="cccccccccc" />
      <path
         sodipodi:nodetypes="czszszcc"
         inkscape:r_cy="true"
         inkscape:r_cx="true"
         id="path6097"
         d="M 84.738423,89.578143 C 78.439667,79.113873 76.854599,72.694431 65.84216,58.185339 C 54.829723,43.676248 34.328752,21.126597 18.6638,2.5236098 C 17.66606,1.3387387 15.35132,1.1298523 13.65322,2.4187113 C 11.89036,3.7567273 11.62476,6.1258896 12.40657,7.2728594 C 26.10441,27.368633 42.315274,53.174753 53.32771,67.683843 C 64.34015,82.192931 70.096702,85.446208 78.481199,94.327391 C 80.566941,92.744309 82.652682,91.161226 84.738423,89.578143 z "
         style="opacity:0.29302326;fill:url(#linearGradient6159);fill-opacity:1;fill-rule:evenodd;stroke:none;stroke-width:0.375;stroke-linecap:butt;stroke-linejoin:miter;stroke-miterlimit:4;stroke-dasharray:none;stroke-opacity:1" />
      <path
         id="path6099"
         d="M 35.876405,38.489271 C 35.984931,38.63403 36.041002,38.767812 36.044647,38.89061 C 36.048283,39.013436 35.999115,39.113892 35.897143,39.192008 C 35.79561,39.269795 35.686846,39.290315 35.570869,39.253578 C 35.454886,39.216816 35.342639,39.126075 35.234119,38.981323 C 35.124976,38.83574 35.068595,38.70155 35.064951,38.578732 C 35.061315,38.455913 35.11027,38.35563 35.211806,38.277836 C 35.313782,38.199713 35.422755,38.179033 35.538731,38.215783 C 35.654709,38.252527 35.767269,38.343689 35.876405,38.489271 M 36.057235,38.350736 C 35.835255,38.05465 35.616878,37.856805 35.402082,37.757207 C 35.187296,37.657616 35.00147,37.667905 34.844629,37.788056 C 34.688215,37.907888 34.628398,38.085777 34.66517,38.321753 C 34.701948,38.557723 34.831321,38.823755 35.053296,39.119847 C 35.274652,39.415107 35.493028,39.612952 35.708444,39.713373 C 35.923232,39.812965 36.108832,39.802847 36.265254,39.683022 C 36.422093,39.56287 36.482131,39.384804 36.445352,39.148834 C 36.40796,38.91204 36.278584,38.646009 36.057235,38.350736 M 33.884519,36.484218 L 32.911557,36.2235 L 33.282439,36.718229 L 33.935763,36.895554 L 33.92523,37.575648 L 34.297956,38.072828 L 34.312744,37.05543 L 35.247108,37.306859 L 34.875305,36.810911 L 34.261125,36.646315 L 34.271354,36.0053 L 33.897702,35.506882 L 33.884519,36.484218 M 33.858856,35.455066 L 33.469481,34.935677 L 32.810224,34.780363 L 32.84056,34.09675 L 32.45026,33.576128 L 32.41654,34.707101 L 32.00886,35.019403 L 32.36495,35.494393 L 32.772623,35.182072 L 33.858856,35.455066 M 30.16075,32.403125 C 30.21931,32.544728 30.28879,32.685065 30.36923,32.824127 C 30.4497,32.963203 30.54078,33.100592 30.64252,33.236297 C 30.87251,33.543082 31.09964,33.75169 31.32394,33.862144 C 31.54865,33.972263 31.73814,33.968229 31.89239,33.850066 C 32.04839,33.730563 32.10265,33.545263 32.05521,33.294158 C 32.00776,33.043046 31.86503,32.758759 31.62704,32.441283 C 31.53517,32.318739 31.44125,32.206161 31.34529,32.10358 C 31.24873,32.000162 31.15126,31.907817 31.05288,31.826488 L 30.85261,31.979927 C 30.96037,32.059227 31.06003,32.144078 31.15162,32.234479 C 31.24257,32.32405 31.32629,32.419849 31.40274,32.521828 C 31.54456,32.710998 31.62613,32.878333 31.64748,33.023839 C 31.66862,33.168199 31.62756,33.279942 31.52429,33.359046 C 31.42189,33.437501 31.30581,33.448718 31.17609,33.392728 C 31.04637,33.336727 30.91337,33.217852 30.7771,33.03608 C 30.74011,32.986741 30.70741,32.939933 30.67898,32.895662 C 30.65037,32.850256 30.62688,32.80803 30.60852,32.769016 L 30.79648,32.625017 L 31.01383,32.914949 L 31.18104,32.786846 L 30.6261,32.046624 L 30.16075,32.403125 M 30.74385,31.299944 L 29.78289,30.018126 L 29.59429,30.1626 L 30.19918,30.969442 L 30.01898,31.107483 L 29.45019,30.348749 L 29.26158,30.493235 L 29.83039,31.251964 L 29.60872,31.421776 L 28.9835,30.587796 L 28.7949,30.732278 L 29.77621,32.041248 L 30.74385,31.299944 M 29.44901,29.572749 L 29.05132,29.042253 L 27.88543,28.880784 L 28.5491,28.372348 L 28.21152,27.922052 L 27.24387,28.663355 L 27.64157,29.193852 L 28.80747,29.355313 L 28.14378,29.86375 L 28.48136,30.314052 L 29.44901,29.572749 M 27.2071,26.582241 L 26.8094,26.051757 L 25.64352,25.890278 L 26.30718,25.381853 L 25.9696,24.931542 L 25.00196,25.672847 L 25.39965,26.203343 L 26.56556,26.364806 L 25.90186,26.873249 L 26.23945,27.323544 L 27.2071,26.582241 M 25.28049,23.975589 C 25.14916,23.800405 25.0216,23.680595 24.8978,23.616169 C 24.77336,23.550932 24.67011,23.549753 24.58801,23.612648 C 24.50593,23.675539 24.47903,23.775771 24.50734,23.913346 C 24.53565,24.050924 24.61578,24.207715 24.74774,24.383722 C 24.87969,24.559735 25.00764,24.68053 25.13164,24.746097 C 25.255,24.810853 25.35774,24.811782 25.43983,24.748887 C 25.52193,24.685998 25.54904,24.585599 25.52116,24.447691 C 25.49267,24.30896 25.41243,24.151601 25.28049,23.975589 M 25.04777,24.954078 L 24.2866,23.938734 L 24.15697,24.038039 L 24.91814,25.05338 L 25.04777,24.954078 M 25.17032,24.059996 C 25.2221,24.129086 25.24857,24.19297 25.24971,24.251655 C 25.25024,24.309523 25.22544,24.357651 25.17532,24.39605 C 25.1252,24.434449 25.07287,24.445406 25.01833,24.428915 C 24.96318,24.411603 24.9097,24.368409 24.85792,24.29931 C 24.80673,24.231055 24.78067,24.168152 24.7797,24.110616 C 24.77813,24.052261 24.80241,24.003885 24.85253,23.965486 C 24.90266,23.927093 24.9555,23.916381 25.01109,23.933362 C 25.06605,23.94952 25.11913,23.991733 25.17032,24.059996 M 22.74535,21.567091 C 22.63538,21.455811 22.5354,21.384149 22.4454,21.352102 C 22.35522,21.318906 22.27792,21.326965 22.21354,21.376288 C 22.11762,21.449771 22.09701,21.575623 22.15171,21.753839 C 22.20684,21.931725 22.33491,22.154733 22.53591,22.422857 C 22.60683,22.517438 22.68215,22.609296 22.76189,22.698407 C 22.84056,22.787035 22.92274,22.871698 23.00839,22.952389 L 23.2009,22.804916 C 23.11097,22.733969 23.02728,22.659533 22.94982,22.58162 C 22.87219,22.50255 22.80161,22.420661 22.7381,22.335948 C 22.64375,22.210112 22.58307,22.10511 22.55602,22.020944 C 22.52836,21.935957 22.53592,21.877086 22.57871,21.844308 C 22.62277,21.810549 22.68194,21.819603 22.7562,21.871479 C 22.83028,21.922202 22.91756,22.014593 23.01807,22.148651 L 23.1605,22.338645 L 23.32123,22.215509 L 23.1714,22.015654 C 23.082,21.896391 23.02512,21.800119 23.0008,21.726824 C 22.97689,21.653205 22.98504,21.601 23.02521,21.570221 C 23.06238,21.541752 23.11239,21.548114 23.17524,21.589307 C 23.23808,21.6305 23.30836,21.702914 23.38604,21.806541 C 23.4434,21.88303 23.49681,21.96382 23.54631,22.048904 C 23.59582,22.133992 23.6407,22.221976 23.68094,22.312855 L 23.8637,22.172841 C 23.80724,22.068492 23.74793,21.967605 23.68578,21.870192 C 23.62365,21.772776 23.55927,21.679665 23.49269,21.590828 C 23.31326,21.351502 23.15842,21.188494 23.02814,21.101835 C 22.89768,21.014027 22.79098,21.001893 22.70803,21.065444 C 22.65142,21.108816 22.62626,21.172778 22.6325,21.257328 C 22.63919,21.341549 22.6768,21.444804 22.74535,21.567091"
         style="font-size:12px;font-style:normal;font-variant:normal;font-weight:bold;font-stretch:normal;text-align:start;line-height:125%;writing-mode:lr-tb;text-anchor:start;fill:#999999;fill-opacity:1;stroke:none;stroke-width:1px;stroke-linecap:butt;stroke-linejoin:miter;stroke-opacity:1;font-family:Bitstream Vera Sans" />
      <g
         transform="matrix(-0.999909,-1.351877e-2,-1.351877e-2,0.999909,133.0198,0.237052)"
         id="g6101">
        <path
           style="fill:url(#radialGradient6161);fill-opacity:1;fill-rule:nonzero;stroke:none;stroke-width:0.5;stroke-linecap:round;stroke-linejoin:round;stroke-miterlimit:4;stroke-dasharray:none;stroke-dashoffset:4;stroke-opacity:1"
           d="M 38.34944,98.879422 C 39.100451,97.429319 40.245026,95.686957 41.376668,94.733981 L 47.788963,99.921606 L 44.589716,103.87235 L 38.34944,98.879422 z M 43.909663,103.3289 L 47.108913,99.37812 L 49.375744,101.18964 C 48.749318,102.44484 47.279318,103.85323 45.959893,104.95541 L 43.909663,103.3289 z "
           id="path6103"
           sodipodi:nodetypes="cccccccccc" />
        <path
           sodipodi:nodetypes="cccccccccc"
           id="path6105"
           d="M 41.361775,94.94897 C 42.108412,93.495334 43.250303,91.750805 44.385839,90.800967 L 50.910159,96.079198 L 47.710595,100.0297 L 41.361775,94.94897 z M 47.018729,99.47668 L 50.218285,95.52615 L 52.524529,97.369552 C 51.902136,98.628011 50.428538,100.03348 49.104494,101.13193 L 47.018729,99.47668 z "
           style="fill:url(#radialGradient6163);fill-opacity:1;fill-rule:nonzero;stroke:none;stroke-width:0.5;stroke-linecap:round;stroke-linejoin:round;stroke-miterlimit:4;stroke-dasharray:none;stroke-dashoffset:4;stroke-opacity:1" />
        <path
           style="fill:url(#radialGradient6165);fill-opacity:1;fill-rule:nonzero;stroke:none;stroke-width:0.5;stroke-linecap:round;stroke-linejoin:round;stroke-miterlimit:4;stroke-dasharray:none;stroke-dashoffset:4;stroke-opacity:1"
           d="M 44.345464,90.914825 C 45.083365,89.454122 46.21989,87.705248 47.363201,86.761702 L 54.111573,92.221146 L 50.911382,96.17114 L 44.345464,90.914825 z M 50.195867,95.599 L 53.39605,91.64897 L 55.781114,93.556131 C 55.16679,94.821109 53.685987,96.220756 52.352723,97.311753 L 50.195867,95.599 z "
           id="path6107"
           sodipodi:nodetypes="cccccccccc" />
        <path
           sodipodi:nodetypes="cccccccccc"
           id="path6109"
           d="M 47.385861,86.950051 C 48.119393,85.485811 49.253231,83.734769 50.40043,82.79437 L 57.260835,88.344412 L 54.060325,92.294161 L 47.385861,86.950051 z M 53.332987,91.712457 L 56.533485,87.76268 L 58.957961,89.701712 C 58.347673,90.969952 56.86326,92.36669 55.525384,93.453958 L 53.332987,91.712457 z "
           style="fill:url(#radialGradient6167);fill-opacity:1;fill-rule:nonzero;stroke:none;stroke-width:0.5;stroke-linecap:round;stroke-linejoin:round;stroke-miterlimit:4;stroke-dasharray:none;stroke-dashoffset:4;stroke-opacity:1" />
        <path
           style="fill:url(#linearGradient6169);fill-opacity:1;fill-rule:nonzero;stroke:none;stroke-width:0.5;stroke-linecap:round;stroke-linejoin:round;stroke-miterlimit:4;stroke-dasharray:none;stroke-dashoffset:4;stroke-opacity:1"
           d="M 50.41561,82.77934 C 49.304261,83.690353 48.193593,85.381544 47.459111,86.816351 L 47.365545,86.753377 C 46.257962,87.667439 45.147654,89.358916 44.409048,90.790387 L 44.375093,90.793236 C 43.285688,91.704485 42.203179,93.376095 41.4567,94.791638 L 41.363132,94.728665 C 40.23149,95.681642 39.111243,97.425699 38.360234,98.875802 L 44.605879,103.87596 L 45.958839,104.96644 C 47.27827,103.86425 48.765041,102.42798 49.391466,101.17278 L 49.238285,101.04399 C 50.529062,99.961701 51.919709,98.588124 52.522652,97.368991 L 52.399279,97.273109 C 53.721588,96.187161 55.181733,94.805616 55.789658,93.553809 L 55.606671,93.392105 C 56.922218,92.315049 58.361371,90.953235 58.958947,89.711416 L 57.269822,88.330443 L 50.41561,82.77934 z "
           id="path6111" />
      </g>
    </g>
    <path
       style="fill:#d1c08c;fill-opacity:1;fill-rule:evenodd;stroke:none;stroke-width:1px;stroke-linecap:butt;stroke-linejoin:miter;stroke-opacity:1"
       d="M 8.7858237,1.2103687 C 8.7924142,1.59034 8.8702066,2.1371513 9.0045737,2.8041187 C 8.8848608,2.1433781 8.8082399,1.5906992 8.7858237,1.2103687 z M 9.0670737,3.1478687 C 9.9787287,7.9089519 12.945946,17.819525 15.723324,18.554119 L 16.535824,18.960369 C 13.568122,17.420264 10.069312,7.7943632 9.0670737,3.1478687 z M 7.1295737,4.5541187 C 7.1018212,9.2160507 8.8634808,21.089389 13.035824,23.585369 L 13.723324,23.241619 C 10.016696,19.928216 7.3398884,9.1248567 7.1295737,4.5541187 z M 5.7545737,10.304119 C 5.4252793,13.699027 6.5328307,22.322671 10.942074,24.960369 L 11.629574,24.616619 C 7.675836,21.082323 5.5417873,13.651738 5.7545737,10.304119 z "
       id="path6113" />
  </g>
</svg>
