<?xml version="1.0" encoding="UTF-8" standalone="no"?>
<svg
   xmlns:dc="http://purl.org/dc/elements/1.1/"
   xmlns:cc="http://web.resource.org/cc/"
   xmlns:rdf="http://www.w3.org/1999/02/22-rdf-syntax-ns#"
   xmlns:svg="http://www.w3.org/2000/svg"
   xmlns="http://www.w3.org/2000/svg"
   xmlns:xlink="http://www.w3.org/1999/xlink"
   xmlns:sodipodi="http://sodipodi.sourceforge.net/DTD/sodipodi-0.dtd"
   xmlns:inkscape="http://www.inkscape.org/namespaces/inkscape"
   width="48"
   height="48"
   id="svg2"
   sodipodi:version="0.32"
   inkscape:version="0.45"
   inkscape:output_extension="org.inkscape.output.svg.inkscape"
   version="1.0"
   sodipodi:modified="true">
  <metadata
     id="metadata22">
    <rdf:RDF>
      <cc:Work
         rdf:about="">
        <dc:format>image/svg+xml</dc:format>
        <dc:type
           rdf:resource="http://purl.org/dc/dcmitype/StillImage" />
      </cc:Work>
    </rdf:RDF>
  </metadata>
  <sodipodi:namedview
     inkscape:window-height="971"
     inkscape:window-width="1280"
     inkscape:pageshadow="2"
     inkscape:pageopacity="0.0"
     guidetolerance="10.0"
     gridtolerance="10.0"
     objecttolerance="10.0"
     borderopacity="1.0"
     bordercolor="#666666"
     pagecolor="#ffffff"
     id="base"
     inkscape:zoom="8.3747959"
     inkscape:cx="8"
     inkscape:cy="28.55358"
     inkscape:window-x="1280"
     inkscape:window-y="53"
     inkscape:current-layer="svg2" />
  <defs
     id="defs4">
    <linearGradient
       id="lg0">
      <stop
         style="stop-color:#0a0a0a"
         id="stop7" />
      <stop
         style="stop-color:#224354"
         offset="1"
         id="stop9" />
    </linearGradient>
    <linearGradient
       xlink:href="#lg0"
       id="lg1"
       gradientUnits="userSpaceOnUse"
       gradientTransform="matrix(0.25988,0,0,0.25988,9.824731e-2,-0.587767)"
       x1="22.892284"
       y1="53.865356"
       x2="10.679447"
       y2="8.5585861" />
    <linearGradient
       xlink:href="#lg0"
       id="lg2"
       gradientUnits="userSpaceOnUse"
       gradientTransform="matrix(0.973,0,0,0.973,0.300334,0.125665)"
       x1="5.9066291"
       y1="13.653723"
       x2="2.6446903"
       y2="1.5526923" />
  </defs>
  <g
     id="g13"
     transform="matrix(2.9630273,0,0,2.9630273,-2.1348643,0.3193188)">
    <g
       transform="matrix(1.059519,0,0,1,-0.484066,0)"
       id="g15">
      <path
         style="fill:#ffffff;stroke:#ffffff;stroke-width:0.48575303"
         d="M 6.1798534,1.0573299 C 5.0141243,0.99673022 4.2895164,1.7840048 4.5668343,2.7286013 C 5.2308964,4.5646865 7.6934008,4.8480274 8.879635,3.9863485 C 8.879635,7.8864289 8.4867674,11.831466 8.4867674,15.731547 C 9.4595282,15.758401 9.4696923,15.781206 9.6334298,14.976934 C 9.8010183,12.729655 11.131473,12.715028 12.174375,11.503639 C 13.027983,10.51549 13.723642,8.6636809 12.85172,7.4969664 C 12.429953,6.9326025 11.290195,5.281491 11.393597,5.5231395 C 11.854955,6.5152216 12.914215,8.2957777 12.634679,9.4206107 C 12.280309,10.769522 10.990135,11.630438 9.6673297,11.840022 C 9.329255,11.891199 9.5143838,11.787976 9.4807551,11.226396 C 9.4807551,8.4386795 9.4807551,5.9280183 9.4807551,3.1402995 C 9.037773,2.0020309 7.3838694,1.0202791 6.1798534,1.0573299 z M 6.6197328,1.1183093 C 7.7397822,1.0637596 8.990187,2.2003597 8.849463,3.4249919 C 8.5590767,4.5084177 7.0138286,4.2199527 6.2621211,3.6887805 C 5.4266258,3.2837657 4.6752007,1.8548689 5.6866184,1.2917715 C 5.8802378,1.1849157 6.1333655,1.1317278 6.6197328,1.1183093 z "
         id="path17" />
      <path
         d="M 5.7731025,0.24514103 C 4.6073734,0.18454132 3.8676444,1.5940457 4.6049796,2.5134553 C 5.3363552,3.664692 7.0866499,4.3691719 8.2728841,3.507493 C 8.2728841,7.4075733 8.2888737,11.795499 8.2888737,15.69558 C 8.9951252,15.889634 8.6691918,14.61054 8.8353705,14.162148 C 9.1663913,12.468982 10.786214,11.588554 11.829116,10.377165 C 12.682724,9.389016 12.795669,7.8789633 12.047556,6.7847775 C 11.835657,6.4748534 11.150111,5.2026355 11.253513,5.444284 C 11.714871,6.4363661 12.307464,7.5502555 12.027928,8.6750885 C 11.673558,10.024 10.383384,10.884916 9.0605786,11.0945 C 8.7225041,11.145677 8.7442001,11.042454 8.7105714,10.480874 C 8.7105714,7.6931573 8.7105714,4.9054398 8.7105714,2.117721 C 8.2675893,0.97945235 6.9771185,0.20809023 5.7731025,0.24514103 z M 5.9129819,0.60612042 C 7.0330313,0.55157074 8.3834361,1.4548375 8.2427121,2.6794697 C 7.9523258,3.7628955 6.4724508,3.6822227 5.7207433,3.1510505 C 4.885248,2.7460357 4.2684498,1.34268 5.2798675,0.77958257 C 5.4734869,0.67272679 5.6932813,0.61953887 5.9129819,0.60612042 z "
         style="fill:url(#lg1);stroke:url(#lg2);stroke-width:0.48575303"
         id="path19" />
    </g>
  </g>
</svg>
